<?xml version="1.0" encoding="UTF-8" standalone="no"?>
<!-- Created with Inkscape (http://www.inkscape.org/) -->

<svg
   version="1.1"
   id="svg18"
   width="512"
   height="512"
   viewBox="0 0 512 512"
   sodipodi:docname="logo.svg"
   inkscape:version="1.2.2 (732a01da63, 2022-12-09, custom)"
   xmlns:inkscape="http://www.inkscape.org/namespaces/inkscape"
   xmlns:sodipodi="http://sodipodi.sourceforge.net/DTD/sodipodi-0.dtd"
   xmlns="http://www.w3.org/2000/svg"
   xmlns:svg="http://www.w3.org/2000/svg">
  <defs
     id="defs22" />
  <sodipodi:namedview
     id="namedview20"
     pagecolor="#ffffff"
     bordercolor="#000000"
     borderopacity="0.25"
     inkscape:showpageshadow="2"
     inkscape:pageopacity="0.0"
     inkscape:pagecheckerboard="0"
     inkscape:deskcolor="#d1d1d1"
     showgrid="false"
     inkscape:zoom="1.5058594"
     inkscape:cx="255.66796"
     inkscape:cy="257.32815"
     inkscape:window-width="2486"
     inkscape:window-height="1043"
     inkscape:window-x="0"
     inkscape:window-y="0"
     inkscape:window-maximized="1"
     inkscape:current-layer="layer1" />
  <g
     inkscape:groupmode="layer"
     id="layer1"
     inkscape:label="Image 1">
    <path
       style="fill:#000000"
       d="m 52.750002,475.12501 c -4.06167,-10.84303 -14.78296,-50.83224 -20.45241,-76.28518 -2.20515,-9.9 -4.24767,-19.0125 -4.53893,-20.25 -0.52665,-2.23754 -0.4633,-2.25 11.44416,-2.25 h 11.97374 l 0.64068,3.75 c 1.80733,10.5786 10.68945,53.66737 12.31658,59.75 1.86949,6.98861 1.87451,6.99512 3.08427,4 1.70202,-4.21388 11.23657,-36.1392 14.12123,-47.28335 l 2.403,-9.28334 9.47784,0.28334 9.477848,0.28335 4.28501,15 c 2.35675,8.25 6.37645,21.525 8.93266,29.5 l 4.64765,14.5 1.84751,-7 c 2.06915,-7.8398 10.36549,-50.12934 11.42745,-58.25 l 0.68656,-5.25 h 11.37117 c 8.4318,0 11.37043,0.32312 11.3683,1.25 -0.012,5.2483 -13.52223,59.80067 -20.67921,83.5 l -4.60536,15.25 h -10.24499 -10.245 l -6.56583,-20.25 c -3.61121,-11.1375 -7.886558,-24.525 -9.500768,-29.75 -1.68713,-5.46106 -3.19179,-8.86227 -3.53911,-8 -0.33231,0.825 -3.73179,11.625 -7.55441,24 -3.82261,12.375 -7.80495,24.975 -8.84963,28 l -1.89942,5.5 -10.17459,0.28518 c -7.58258,0.21253 -10.29723,-0.0422 -10.656,-1 z M 191.26718,426.33983 v -50 h 33.5 33.5 v 9.5 9.5 h -22.5 -22.5 v 10 10 h 20 20 v 9 9 h -20 -20 v 12 12 h 24 24 v 9.5 9.5 h -35 -35 z m 106,1.10699 c 0,-44.77976 0.14071,-48.94701 1.67255,-49.53483 0.9199,-0.353 7.64177,-1.12942 14.93749,-1.72537 27.2023,-2.22204 46.23922,2.77153 53.73244,14.09455 3.70701,5.60166 4.96748,11.77075 4.45839,21.82069 -0.52669,10.3975 -2.59728,15.12833 -9.14335,20.8904 -7.16694,6.30859 -21.57195,10.22898 -37.90752,10.31669 l -5.75,0.0309 v 16.5 16.5 h -11 -11 z m 45.19144,-5.49505 c 4.69423,-2.26894 6.78173,-5.47814 7.4198,-11.40677 0.63808,-5.92872 -1.73933,-10.84455 -6.60381,-13.65487 -2.71581,-1.56899 -5.77384,-2.10218 -13.75,-2.39744 l -10.25743,-0.3797 v 15.22973 15.22972 l 9.75,-0.41821 c 6.58556,-0.28248 10.94809,-0.99731 13.44144,-2.20246 z m 89.80856,13.88806 v -40.5 h -15 -14.99999 v -9.5 -9.5 h 40.99999 41 v 9.5 9.5 h -15 -15 v 40.5 40.5 h -11 -11 z m -404.999998,-249.5 V 35.339818 h 21 21 v 63.000004 63.000008 h 74.000008 73.99999 V 98.339822 35.339818 h 21 21 v 151.000012 151 h -21 -21 v -69.5 -69.5 H 143.26719 69.267182 v 69.5 69.5 h -21 -21 z m 264.999998,0 V 35.339818 h 92.00001 91.99999 v 18 18.000004 h -70.99999 -71.00001 v 44.999998 45.00001 h 63.00001 62.99999 v 17.5 17.5 h -62.99999 -63.00001 v 52.5 52.5 h 76.5 76.5 v 18 18 h -97.49999 -97.50001 z"
       id="path186" />
  </g>
</svg>
