<?xml version="1.0" encoding="utf-8"?>
<svg viewBox="0 0 2000 1200" preserveAspectRatio="none" xmlns="http://www.w3.org/2000/svg">
  <g transform="matrix(0.10000000149011612, 0, 0, -0.10000000149011612, 0, 1200)" fill="#000000" stroke="none" style="opacity: 0.1;">
    <path d="M14613 10367 c-35 -12 -46 -29 -13 -20 26 7 38 -23 18 -43 -13 -13 -21 -12 -70 10 -31 14 -58 32 -62 41 -3 8 -11 15 -17 15 -8 0 -9 -4 0 -13 7 -9 9 -49 5 -117 -5 -99 -11 -130 -21 -102 -3 6 -13 12 -24 12 -14 0 -19 -7 -20 -27 0 -16 -2 -79 -4 -141 -2 -63 -8 -119 -14 -126 -6 -7 -8 -21 -5 -32 2 -10 1 -64 -4 -119 -5 -58 -5 -105 0 -112 5 -6 6 -22 3 -36 -4 -14 -1 -35 5 -47 9 -17 9 -25 -4 -39 -15 -17 -15 -47 0 -98 4 -16 1 -25 -11 -29 -13 -5 -15 -14 -10 -48 4 -22 11 -45 16 -51 5 -5 9 -22 9 -37 0 -36 -38 -48 -75 -24 -13 9 -32 16 -41 16 -14 0 -15 -15 -10 -135 3 -88 2 -137 -5 -141 -7 -4 -8 -25 -4 -57 4 -27 7 -151 8 -274 0 -183 -3 -227 -15 -241 -8 -9 -18 -25 -21 -35 -9 -23 -53 -40 -102 -39 -21 1 -60 -8 -85 -19 -28 -13 -77 -23 -130 -26 l-85 -6 2 -896 c1 -493 2 -1087 2 -1321 -1 -234 0 -432 0 -440 2 -27 9 -661 9 -815 1 -383 3 -503 8 -548 4 -31 2 -53 -6 -62 -7 -8 -9 -22 -6 -32 4 -9 9 -449 12 -978 4 -840 3 -963 -10 -974 -10 -9 -88 -13 -273 -15 -245 -4 -259 -3 -286 16 -26 19 -29 19 -46 4 -21 -19 -205 -25 -800 -27 -299 0 -315 0 -341 19 -27 20 -27 20 -47 1 -19 -19 -40 -20 -543 -25 -445 -4 -526 -2 -545 10 -19 12 -26 12 -47 1 -18 -9 -82 -13 -209 -15 -309 -5 -303 -6 -312 85 -3 28 -10 80 -16 116 -5 37 -12 142 -15 234 -3 91 -7 169 -10 173 -6 9 -17 206 -21 375 -3 133 -3 138 19 154 l23 17 -31 16 c-29 14 -32 14 -51 -5 -19 -19 -19 -21 -2 -34 16 -11 18 -28 18 -115 -1 -55 4 -159 9 -231 11 -140 29 -575 29 -690 0 -38 -5 -75 -11 -83 -10 -11 -63 -13 -278 -10 -240 3 -269 5 -295 22 -28 18 -29 18 -42 0 -13 -18 -37 -19 -558 -20 -518 -1 -545 0 -561 17 -21 24 -42 24 -67 1 -18 -16 -59 -17 -560 -17 -418 0 -546 2 -565 12 -32 17 -47 16 -63 -3 -11 -14 -28 -15 -114 -10 -55 3 -184 2 -288 -3 -103 -5 -200 -6 -215 -3 -15 4 -110 5 -212 2 -173 -6 -273 2 -308 24 -6 4 -32 0 -56 -8 -36 -12 -101 -15 -334 -15 -159 0 -326 -3 -370 -6 -44 -4 -85 -4 -92 0 -7 4 -87 9 -179 10 -91 2 -179 4 -196 5 -16 1 -147 -1 -290 -4 -291 -7 -278 -7 -616 -3 -215 4 -248 6 -272 22 -27 17 -28 17 -50 -3 -22 -21 -27 -21 -583 -19 -398 2 -566 6 -575 14 -21 16 -54 20 -70 6 -16 -13 -264 -18 -788 -14 -325 2 -345 3 -369 21 -31 25 -40 25 -61 -1 -13 -16 -28 -21 -62 -21 -24 1 -127 1 -228 1 -122 0 -188 4 -197 12 -9 8 -12 23 -8 48 3 21 1 79 -5 130 -6 50 -9 114 -5 142 6 44 10 50 38 58 l31 8 -38 16 c-22 10 -41 26 -47 42 -12 32 -26 25 -35 -15 -9 -39 -19 -45 -84 -45 -37 0 -56 -4 -59 -14 -4 -11 7 -13 57 -8 47 4 65 2 76 -10 21 -20 28 -58 22 -107 -4 -23 -2 -82 3 -131 12 -120 5 -129 -100 -121 -91 7 -77 7 -230 -2 -145 -8 -273 1 -313 24 -25 14 -29 14 -53 -5 -15 -12 -35 -21 -45 -21 -16 0 -19 -8 -19 -50 0 -45 2 -50 26 -56 31 -8 29 -35 -4 -49 l-22 -10 0 -987 0 -988 10000 0 10000 0 0 984 0 983 -37 7 c-21 3 -52 6 -68 6 -17 0 -36 5 -43 12 -8 8 -15 8 -26 -1 -8 -7 -17 -8 -20 -3 -10 16 -55 20 -73 6 -23 -17 -127 -18 -153 -2 -15 10 -24 10 -38 1 -13 -7 -24 -8 -36 -1 -12 7 -21 7 -29 -1 -14 -14 -124 -15 -132 -1 -3 6 -23 10 -43 10 -20 0 -54 4 -74 9 -29 7 -43 5 -70 -12 -30 -18 -50 -20 -257 -19 -146 0 -227 4 -234 11 -15 15 -48 13 -70 -3 -15 -12 -61 -13 -245 -9 -136 3 -241 2 -262 -4 -22 -6 -61 -7 -105 -1 -39 5 -86 9 -105 10 -19 0 -48 5 -63 10 -20 8 -31 8 -40 -1 -14 -14 -74 -15 -82 -1 -3 5 -30 10 -58 10 -131 1 -238 64 -184 108 14 12 11 82 -4 82 -16 0 -77 -41 -83 -55 -7 -19 -42 -19 -49 0 -9 21 -61 1 -75 -29 -8 -18 -21 -24 -57 -29 -35 -3 -53 -12 -69 -30 -31 -38 -95 -70 -111 -57 -10 8 -19 8 -34 -2 -17 -10 -25 -10 -41 0 -24 14 -136 16 -145 2 -8 -13 -232 -13 -240 0 -9 15 -99 12 -131 -5 -43 -22 -126 -19 -157 5 -26 20 -26 21 -23 161 2 123 0 142 -15 150 -12 6 -25 3 -44 -12 l-26 -21 -62 24 c-56 22 -118 45 -217 78 -79 27 -105 45 -115 78 -11 38 -42 44 -49 10 -3 -13 -7 -79 -8 -146 -3 -118 -4 -125 -28 -144 -17 -13 -32 -18 -50 -13 -32 8 -48 8 -83 -1 -19 -4 -33 -2 -46 10 -16 15 -19 15 -36 -4 -18 -20 -28 -21 -230 -19 -115 1 -218 6 -228 11 -11 6 -31 4 -53 -4 -46 -16 -67 -3 -76 48 -8 42 -21 534 -20 731 1 120 9 157 44 205 10 14 9 21 -10 41 -27 28 -27 32 -3 66 l20 27 -35 43 c-19 24 -34 48 -34 53 0 5 11 20 24 33 17 17 39 25 82 29 33 3 91 13 129 21 39 8 79 16 89 17 31 5 38 51 26 178 -5 63 -13 234 -16 380 -3 146 -7 312 -9 370 -1 58 -5 249 -9 425 -4 176 -9 330 -11 341 -3 12 -7 158 -10 325 -3 167 -8 356 -10 419 -3 63 -7 205 -10 315 -3 110 -10 367 -17 570 -6 204 -12 435 -13 515 -2 220 -15 671 -20 705 -3 17 -7 194 -10 395 -3 201 -11 401 -16 445 -18 135 -28 317 -22 378 8 81 -18 414 -29 367 -4 -19 -9 -56 -10 -82 -1 -27 -6 -48 -11 -48 -19 0 -38 32 -37 63 3 47 1 52 -12 39 -7 -7 -18 -12 -25 -12 -7 0 -32 -12 -54 -26 -50 -31 -77 -28 -99 11 -17 31 -19 55 -6 90 9 25 100 102 150 128 36 19 65 64 49 76 -4 3 -13 15 -19 26 -16 29 -38 29 -53 1 -7 -13 -27 -34 -43 -46 -25 -18 -36 -21 -62 -13 -29 8 -31 12 -34 60 -2 35 2 55 13 66 8 9 15 20 15 26 0 6 7 11 15 11 8 0 20 10 26 23 18 35 61 77 79 77 9 0 21 5 28 12 15 15 16 74 1 83 -7 5 -4 14 7 26 14 15 15 22 6 31 -9 9 -23 1 -60 -34 -73 -71 -172 -100 -172 -50 0 9 -3 60 -7 112 -3 52 -6 105 -6 118 1 12 -2 21 -6 21 -3 -1 -21 -7 -38 -12z m-43 -137 c0 -5 -4 -10 -10 -10 -5 0 -10 5 -10 10 0 6 5 10 10 10 6 0 10 -4 10 -10z m383 -927 c10 -52 -10 -89 -74 -138 -33 -25 -64 -45 -69 -45 -5 0 -15 -9 -22 -20 -15 -23 -50 -26 -67 -6 -7 8 -9 31 -4 61 5 40 14 57 50 92 23 24 43 50 43 57 0 21 26 37 70 43 22 3 40 11 40 17 0 20 27 -29 33 -61z m25 -170 c-5 -25 -28 -28 -28 -4 0 12 6 21 16 21 9 0 14 -7 12 -17z m-30 -89 c25 -17 29 -59 7 -68 -9 -3 -15 -18 -15 -35 0 -16 -4 -33 -10 -36 -5 -3 -10 -14 -10 -24 0 -11 -15 -26 -37 -37 -21 -10 -53 -32 -70 -48 -28 -26 -37 -29 -60 -20 -26 9 -28 13 -31 77 l-3 68 64 64 c48 48 72 64 98 68 19 2 36 5 39 5 3 1 16 -5 28 -14z m-635 -50 c9 -10 -4 -34 -19 -34 -8 0 -14 6 -14 13 0 22 19 35 33 21z m594 -362 c18 -11 33 -58 33 -101 0 -35 -5 -42 -62 -85 -35 -26 -73 -49 -86 -52 -36 -10 -62 21 -62 72 0 35 7 51 38 88 20 24 42 45 48 45 7 1 14 7 17 15 3 8 16 16 29 19 13 2 25 5 28 5 3 1 10 -2 17 -6z m83 -82 c0 -5 -4 -10 -10 -10 -5 0 -10 5 -10 10 0 6 5 10 10 10 6 0 10 -4 10 -10z m20 -56 c0 -8 -7 -14 -15 -14 -15 0 -21 21 -9 33 10 9 24 -2 24 -19z m-86 -219 c19 -19 19 -105 0 -151 -10 -23 -27 -39 -56 -53 -24 -11 -55 -30 -71 -43 -40 -33 -55 -12 -59 81 -2 71 -1 74 27 95 17 11 48 35 70 53 45 35 67 40 89 18z m-696 -157 c7 -7 12 -29 12 -49 0 -43 -35 -79 -76 -79 -23 0 -24 3 -24 64 0 53 3 65 18 69 33 9 58 7 70 -5z m686 -157 c11 -12 20 -43 23 -80 5 -57 4 -61 -26 -89 -48 -43 -128 -79 -149 -65 -9 5 -17 15 -16 22 1 6 2 37 3 68 1 56 2 59 57 110 60 57 81 64 108 34z m-676 -198 c2 -35 -2 -71 -8 -82 -13 -26 -78 -40 -91 -20 -13 20 -11 87 3 125 12 35 26 43 68 41 23 -2 25 -6 28 -64z m698 -218 c12 -19 14 -36 9 -77 -7 -47 -13 -58 -58 -100 -56 -51 -91 -66 -114 -46 -23 19 -15 159 11 187 11 12 27 21 36 21 9 0 25 9 35 20 25 28 61 25 81 -5z m-703 -23 c21 -23 13 -120 -11 -139 -25 -20 -70 -16 -77 7 -8 26 12 132 28 142 20 13 43 9 60 -10z m720 -302 c3 -14 4 -47 3 -74 -2 -54 -19 -72 -107 -112 -65 -30 -79 -19 -82 63 -2 72 16 104 73 134 19 10 43 28 54 39 l21 20 17 -22 c9 -12 19 -34 21 -48z m-722 -77 c6 -16 13 -51 16 -79 5 -46 3 -53 -18 -68 -26 -18 -65 -21 -74 -6 -4 6 -8 37 -11 69 -3 48 0 63 17 85 27 34 56 34 70 -1z m61 -255 c22 -35 22 -97 1 -121 -30 -33 -93 -68 -116 -65 -18 2 -24 13 -31 52 -13 63 2 90 69 127 62 34 60 34 77 7z m663 -65 c11 -26 14 -53 10 -88 -6 -45 -11 -53 -38 -67 -18 -9 -53 -26 -79 -39 -58 -29 -73 -19 -81 54 -4 44 -1 57 20 85 13 18 39 38 56 46 18 7 38 20 46 29 23 29 49 20 66 -20z m2 -303 c7 -14 12 -50 11 -80 l-3 -55 -54 -27 c-29 -15 -62 -35 -72 -44 -18 -16 -20 -16 -37 -1 -21 19 -21 94 0 144 16 37 93 94 123 91 11 -2 25 -14 32 -28z m-666 -10 c15 -9 19 -22 19 -62 0 -53 -19 -88 -48 -88 -8 0 -28 -11 -44 -25 -49 -41 -63 -31 -61 44 2 68 19 97 73 125 32 18 37 18 61 6z m13 -321 c12 -63 7 -76 -43 -118 -74 -62 -101 -52 -103 39 -2 57 12 78 65 97 56 20 74 17 81 -18z m655 -82 c11 -31 11 -45 0 -94 -12 -49 -18 -59 -39 -61 -13 -2 -33 -10 -44 -18 -26 -18 -60 -18 -75 0 -7 9 -11 40 -9 78 3 63 3 63 43 83 22 12 51 28 65 38 32 22 42 18 59 -26z m-661 -289 c17 -21 25 -84 13 -106 -12 -22 -111 -58 -134 -49 -29 11 -25 139 4 158 21 13 105 11 117 -3z m648 -25 c7 -10 14 -27 14 -38 0 -28 -33 -105 -45 -105 -6 0 -27 -9 -47 -20 -59 -31 -72 -20 -64 59 6 72 31 105 73 98 13 -2 28 2 34 9 15 18 19 18 35 -3z m-691 -277 c36 -15 42 -34 29 -81 -6 -22 -68 -55 -102 -55 -26 0 -26 -4 -5 81 18 75 22 78 78 55z m619 -152 c9 -8 16 -21 16 -27 0 -7 7 -4 14 6 26 34 45 21 44 -30 -1 -56 -12 -73 -43 -73 -13 0 -25 -7 -29 -15 -8 -22 -53 -19 -66 6 -8 15 -8 24 0 34 7 9 9 26 5 45 -5 23 -2 37 11 51 21 23 28 24 48 3z m-572 -239 c15 -17 15 -22 3 -31 -8 -6 -12 -14 -8 -17 8 -9 -27 -47 -43 -47 -7 0 -17 -7 -22 -17 -23 -41 -66 20 -60 86 3 31 7 36 30 39 14 2 32 10 39 18 13 16 27 9 61 -31z m554 -190 c-7 -18 -26 -20 -26 -2 0 18 24 41 28 27 2 -6 1 -17 -2 -25z m-613 -157 c33 -37 29 -58 -9 -53 -29 3 -54 28 -54 55 0 40 27 39 63 -2z m656 -162 c19 -23 2 -110 -24 -120 -25 -9 -36 19 -29 78 5 44 10 56 24 56 10 0 23 -6 29 -14z m-665 -239 c-6 -17 -54 -25 -54 -9 0 4 7 18 16 31 14 20 18 21 31 9 7 -8 11 -22 7 -31z m237 -1059 c8 -15 13 -157 17 -462 8 -636 8 -648 -1 -678 -9 -34 -38 -37 -67 -8 -20 20 -50 27 -50 13 -1 -25 -23 -36 -79 -40 -46 -3 -66 0 -77 12 -13 12 -16 67 -20 337 -5 318 -4 324 18 371 20 45 21 50 6 75 -15 24 -15 30 -1 56 14 26 14 32 -2 64 -22 47 -40 209 -25 226 5 8 54 21 108 31 53 9 104 18 112 20 37 7 50 4 61 -17z m1354 -967 c3 -5 20 -13 38 -16 17 -4 43 -15 57 -25 14 -10 48 -25 75 -34 65 -22 138 -57 147 -70 4 -6 8 -59 8 -118 l0 -108 -162 0 c-226 1 -214 -11 -224 218 -6 140 -1 162 37 162 10 0 20 -4 24 -9z m-15322 -313 c34 -16 34 -24 -3 -43 -34 -18 -284 -22 -295 -5 -3 6 -22 10 -41 10 -34 0 -44 12 -22 27 7 4 81 10 163 14 83 3 155 6 161 7 5 1 22 -4 37 -10z m1117 3 c96 1 186 1 200 1 14 -1 115 -1 225 -1 289 0 465 -10 465 -27 0 -9 -13 -14 -38 -14 -21 0 -44 -6 -51 -12 -17 -18 -787 -19 -810 -1 -20 15 -83 17 -97 3 -6 -6 -41 -10 -80 -8 -61 3 -69 5 -69 23 0 22 42 48 65 39 8 -3 94 -4 190 -3z m1205 -3 c3 -3 82 -3 176 0 155 4 169 4 169 -12 0 -14 -7 -17 -34 -15 -21 2 -42 -3 -53 -12 -28 -25 -69 -31 -83 -14 -14 17 -61 20 -75 6 -6 -6 -78 -11 -162 -12 -136 -3 -154 -1 -172 16 -42 37 3 51 166 49 34 0 65 -3 68 -6z m5613 -3 c3 -3 22 -5 43 -5 44 0 55 -11 31 -32 -25 -22 -174 -31 -201 -12 -15 11 -26 12 -40 4 -13 -7 -22 -7 -26 0 -8 14 -58 13 -72 -1 -15 -15 -229 -12 -254 4 -15 9 -24 9 -40 -2 -19 -11 -25 -10 -46 6 -14 10 -25 23 -24 28 0 6 29 12 63 15 80 6 559 2 566 -5z m487 4 c11 -1 112 -1 225 -1 481 0 544 -2 548 -19 8 -43 -2 -44 -556 -41 -475 2 -527 4 -544 19 -13 11 -15 20 -8 27 19 19 180 26 335 15z m4173 -5 c50 -3 92 -9 92 -14 0 -4 -33 -11 -72 -15 -40 -3 -79 -11 -86 -17 -18 -16 -680 -15 -709 0 -27 15 -80 16 -88 2 -8 -13 -122 -13 -130 0 -3 5 -2 18 4 27 8 16 26 17 163 16 84 -2 173 1 198 5 50 8 485 5 628 -4z m706 -5 c18 -17 -4 -22 -106 -25 -56 -2 -106 -8 -112 -14 -13 -13 -73 -13 -81 0 -8 12 -72 13 -79 1 -13 -20 -60 -22 -98 -4 -21 10 -38 21 -38 25 0 18 45 27 134 27 54 -1 99 1 101 3 8 8 270 -4 279 -13z m1377 10 c203 3 229 2 253 -14 71 -47 -43 -62 -363 -48 -162 7 -185 10 -195 26 -16 26 19 51 54 40 14 -4 127 -6 251 -4z m-14427 -5 c35 -13 2 -62 -38 -56 -34 5 -126 44 -126 53 0 10 139 12 164 3z m541 -13 c3 -8 -5 -25 -17 -38 -20 -21 -28 -24 -63 -17 -22 4 -116 10 -210 13 l-170 6 -3 26 -3 26 230 -1 c188 -1 232 -4 236 -15z m2413 5 c21 -13 13 -26 -16 -26 -15 0 -33 -5 -40 -12 -8 -8 -69 -12 -196 -12 -167 -1 -186 1 -205 18 -43 39 -31 41 212 40 129 0 239 -4 245 -8z m1076 6 c82 -4 141 -11 143 -17 2 -6 -5 -20 -15 -30 -17 -19 -31 -20 -253 -17 -591 7 -602 7 -634 25 -24 13 -32 14 -45 4 -9 -8 -42 -13 -85 -13 -63 1 -70 3 -70 21 0 19 6 20 90 17 50 -2 110 1 135 5 58 11 553 14 734 5z m601 -2 c11 0 173 1 360 3 186 2 349 1 362 -1 14 -3 23 -11 23 -23 0 -25 -27 -36 -51 -21 -25 16 -132 15 -148 0 -17 -18 -725 -18 -743 0 -6 6 -23 12 -36 12 -14 0 -22 5 -20 13 5 14 101 26 178 21 30 -2 64 -4 75 -4z m1838 2 c74 -3 97 -8 97 -18 0 -11 -28 -14 -143 -14 -79 0 -147 -4 -153 -10 -5 -5 -68 -11 -139 -13 -106 -4 -133 -2 -147 11 -15 13 -20 13 -34 1 -14 -11 -58 -14 -215 -12 -110 2 -207 7 -216 12 -10 5 -27 12 -37 16 -34 10 -3 24 64 27 97 6 810 6 923 0z m2822 -1 c99 2 201 3 227 3 53 1 78 -15 60 -37 -9 -10 -51 -16 -148 -21 -112 -5 -141 -4 -166 9 -35 17 -143 21 -153 5 -9 -14 -88 -13 -103 2 -9 9 -8 16 6 31 13 15 25 17 57 12 22 -4 121 -5 220 -4z m721 3 c106 -7 127 -15 102 -40 -25 -25 -347 -33 -383 -10 -13 9 -31 16 -39 16 -19 0 -32 20 -18 29 14 9 226 12 338 5z m503 -9 l24 -7 -24 -19 c-18 -14 -42 -19 -94 -19 -38 0 -99 -5 -135 -10 -55 -8 -67 -7 -83 7 -10 9 -16 24 -15 32 3 13 24 17 113 21 138 6 184 5 214 -5z m758 2 c10 -11 -6 -37 -29 -45 -31 -12 -568 -4 -593 7 -11 6 -29 11 -39 13 -11 2 -21 8 -23 15 -3 9 18 13 74 15 129 5 604 1 610 -5z m2321 -24 l3 -33 -54 0 c-41 0 -58 5 -72 20 -30 33 -4 52 64 48 55 -3 56 -3 59 -35z m130 14 c3 -12 -4 -17 -22 -17 -28 0 -33 9 -14 28 15 15 32 10 36 -11z m-6936 3 c10 0 16 -4 13 -10 -8 -12 -92 -13 -99 -1 -10 15 8 23 38 17 16 -3 37 -6 48 -6z"/>
    <path d="M14370 2281 c0 -6 5 -13 10 -16 6 -3 10 1 10 9 0 9 -4 16 -10 16 -5 0 -10 -4 -10 -9z"/>
    <path d="M14950 10266 c0 -9 30 -14 35 -6 4 6 -3 10 -14 10 -12 0 -21 -2 -21 -4z"/>
    <path d="M14967 10183 c-14 -52 -16 -72 -7 -78 5 -3 10 -27 10 -52 0 -26 3 -43 7 -39 7 7 6 176 -1 183 -2 3 -6 -4 -9 -14z"/>
    <path d="M14970 9808 c0 -49 16 -68 22 -27 6 37 1 59 -13 59 -5 0 -9 -15 -9 -32z"/>
    <path d="M14257 9784 c-13 -13 -7 -34 8 -28 8 4 21 2 28 -4 8 -7 19 -5 36 9 l23 19 -23 0 c-13 0 -33 3 -44 6 -11 3 -24 2 -28 -2z"/>
    <path d="M14271 9538 c-1 -41 3 -49 30 -69 18 -12 30 -18 28 -13 -3 5 -11 23 -18 39 -7 17 -19 44 -26 60 l-14 30 0 -47z"/>
    <path d="M14274 9354 c0 -60 6 -66 30 -29 21 32 20 47 -7 66 -22 16 -22 16 -23 -37z"/>
    <path d="M15442 2623 c-23 -9 -33 -40 -20 -68 14 -31 30 -28 42 8 11 30 -2 67 -22 60z"/>
    <path d="M903 2543 c9 -2 25 -2 35 0 9 3 1 5 -18 5 -19 0 -27 -2 -17 -5z"/>
  </g>
</svg>