<?xml version="1.0" encoding="utf-8"?>
<svg viewBox="0 0 2000 1200" preserveAspectRatio="none" xmlns="http://www.w3.org/2000/svg">
  <g transform="matrix(0.10000000149011612, 0, 0, -0.10000000149011612, 0, 1200)" fill="#000000" stroke="none" style="opacity: 0.1;">
    <path d="M3145 9645 c-88 -20 -214 -45 -280 -56 -66 -12 -127 -25 -135 -29 -10 -6 -13 -22 -11 -53 l2 -46 -43 -11 c-240 -61 -552 -230 -724 -392 -39 -38 -79 -68 -87 -68 -27 0 -40 38 -33 94 6 48 5 53 -22 79 -32 31 -52 29 -77 -10 -13 -19 -15 -35 -9 -62 4 -20 7 -38 7 -41 -1 -3 -4 -192 -8 -420 -4 -228 -9 -418 -11 -421 -1 -3 -3 -147 -4 -320 -1 -173 -5 -489 -10 -704 -5 -214 -12 -572 -15 -795 -3 -223 -12 -763 -20 -1200 -8 -437 -19 -1094 -25 -1460 -5 -366 -12 -782 -15 -925 -3 -143 -7 -386 -10 -540 -3 -154 -7 -374 -10 -490 -3 -115 -10 -508 -17 -873 -6 -364 -14 -666 -18 -671 -3 -5 -58 -11 -123 -12 l-118 -2 -20 32 c-18 30 -22 32 -72 29 -45 -3 -53 -6 -65 -30 -16 -35 -39 -36 -54 -3 -6 14 -16 25 -22 26 -6 0 -20 2 -31 4 -11 2 -42 7 -68 11 -33 5 -53 13 -62 28 -17 27 -31 648 -16 690 7 18 7 35 0 54 l-11 27 -22 -28 c-12 -15 -31 -27 -43 -27 -42 0 -56 -28 -50 -97 2 -35 1 -66 -4 -69 -5 -3 -9 -29 -9 -58 0 -61 15 -80 53 -71 14 4 35 4 46 0 22 -7 29 -39 10 -50 -6 -4 -8 -22 -5 -44 13 -83 16 -299 5 -323 -10 -22 -19 -26 -82 -31 -39 -4 -74 -4 -77 -1 -5 5 -8 71 -9 197 -2 108 -18 49 -20 -70 -2 -176 -24 -232 -63 -164 -14 26 -23 30 -65 33 l-48 3 -1 321 c-1 177 -5 331 -9 343 -3 11 -15 26 -26 31 -15 8 -19 22 -19 60 0 39 -4 53 -20 62 -18 12 -20 24 -20 119 0 101 -2 109 -35 178 -20 40 -40 69 -45 66 -6 -4 -26 -38 -45 -75 -31 -62 -35 -78 -35 -147 0 -59 -5 -87 -20 -116 -12 -22 -20 -56 -20 -86 0 -45 -3 -51 -35 -70 l-35 -20 -2 -208 c-3 -238 -2 -234 -88 -189 -27 14 -54 26 -60 26 -6 0 -10 -100 -10 -290 l0 -290 10000 0 10000 0 0 225 0 225 -150 0 c-139 0 -150 1 -160 20 -14 26 -40 26 -47 0 -3 -11 -12 -20 -19 -20 -16 0 -18 12 -5 26 11 11 -4 54 -18 54 -13 0 -25 -45 -16 -59 3 -6 -2 -11 -13 -11 -12 0 -24 11 -32 30 -14 34 -36 39 -45 11 -5 -15 -18 -20 -78 -23 -94 -6 -98 -1 -96 113 2 90 -3 109 -25 109 -27 0 -38 -30 -38 -109 -1 -104 -8 -112 -111 -108 -68 2 -78 0 -97 -21 -13 -13 -29 -21 -37 -18 -8 3 -30 6 -50 6 -26 0 -36 5 -40 20 -3 11 -14 20 -25 20 -11 0 -22 -9 -25 -20 -5 -19 -14 -20 -174 -20 -162 0 -169 1 -169 20 0 13 -7 20 -20 20 -13 0 -20 -7 -20 -19 0 -10 -6 -21 -12 -23 -7 -3 -74 -3 -148 -2 l-135 3 -7 43 c-3 24 -7 75 -7 114 -1 57 3 76 19 97 22 27 27 72 9 83 -27 16 -37 74 -40 228 l-4 158 35 12 35 11 -2 144 c-2 152 -4 161 -51 161 -35 0 -40 29 -9 52 l26 19 -5 402 -5 402 -28 25 c-27 25 -28 30 -34 165 -4 76 -7 222 -7 325 0 131 -4 190 -12 198 -16 16 -45 15 -50 -1 -2 -6 -1 -158 2 -337 4 -179 5 -330 3 -336 -2 -6 -16 -17 -30 -23 -21 -10 -24 -16 -18 -39 9 -37 10 -37 40 -14 29 23 59 19 80 -11 20 -29 19 -32 -17 -55 -30 -19 -34 -20 -60 -4 -15 9 -31 13 -35 9 -10 -11 -3 -368 8 -389 6 -10 6 -24 2 -31 -6 -10 -9 -44 -13 -142 0 -5 3 -38 6 -73 5 -49 11 -66 30 -81 30 -23 32 -61 5 -61 -40 0 -53 -28 -47 -99 3 -36 6 -98 6 -138 l0 -72 33 -9 32 -8 8 -323 c4 -177 4 -341 0 -364 l-8 -41 -109 3 c-89 2 -111 0 -126 -14 -11 -10 -30 -15 -47 -13 -24 3 -28 7 -25 30 3 22 -1 28 -23 34 -33 8 -40 1 -25 -25 6 -12 8 -26 5 -31 -10 -16 -111 -12 -125 5 -9 11 -34 15 -96 15 -45 0 -85 3 -88 8 -7 11 -21 809 -16 940 0 8 16 12 44 12 24 0 48 6 54 13 13 15 9 404 -4 417 -5 5 -29 10 -54 12 l-45 3 0 40 c0 32 5 42 24 52 24 11 25 14 22 125 -1 62 -5 123 -7 134 -4 15 2 29 17 43 l23 22 -3 342 c-2 314 -9 792 -10 809 -1 4 -17 10 -36 14 -20 3 -40 14 -44 23 -5 9 -12 165 -16 346 -4 207 -10 334 -17 342 -6 7 -19 13 -29 13 -31 0 -50 -44 -56 -130 -4 -47 -11 -84 -19 -91 -10 -8 -8 -18 12 -46 23 -34 24 -43 26 -217 1 -223 1 -226 -24 -253 -11 -12 -18 -29 -15 -37 5 -11 11 -608 8 -683 -1 -7 -14 -26 -30 -42 -26 -26 -28 -33 -21 -71 10 -52 17 -59 29 -27 13 34 40 47 94 47 52 0 67 -13 74 -67 7 -53 -18 -82 -74 -85 -35 -2 -48 3 -73 27 -24 23 -33 27 -39 16 -8 -13 -3 -542 5 -550 2 -2 21 -7 41 -10 34 -6 38 -9 41 -40 4 -38 -9 -51 -48 -51 -48 0 -50 -11 -50 -221 0 -215 0 -215 60 -221 l35 -3 5 -200 c3 -110 1 -206 -4 -213 -5 -7 -16 -10 -25 -7 -28 8 -51 -17 -64 -70 -12 -50 -29 -64 -57 -46 -12 8 -12 13 4 30 10 11 16 27 13 36 -7 17 -53 20 -77 5 -12 -8 -12 -11 3 -28 26 -28 21 -35 -20 -28 -21 3 -110 7 -198 8 -148 3 -160 4 -160 21 0 11 -10 27 -21 36 -20 16 -22 30 -30 257 -4 131 -8 253 -9 269 -1 17 -2 63 -3 103 -1 40 -6 72 -12 72 -6 0 -8 -35 -6 -92 3 -51 6 -205 6 -343 l2 -250 -26 -15 c-14 -8 -29 -23 -32 -33 -6 -18 -29 -23 -38 -8 -6 9 -11 142 -22 611 -3 157 -8 287 -10 289 -7 8 -14 -6 -14 -30 -1 -13 0 -238 0 -499 l1 -475 -25 -20 c-37 -30 -36 -86 1 -106 l26 -14 -29 -6 c-16 -4 -55 -7 -86 -8 -47 -1 -58 2 -58 15 0 9 -15 31 -34 49 -19 17 -36 43 -38 56 -8 58 -97 26 -147 -52 -38 -57 -36 -62 43 -137 44 -41 56 -60 56 -83 0 -34 -23 -48 -51 -31 -62 39 -108 -23 -51 -68 21 -17 36 -21 69 -17 22 2 47 1 55 -4 9 -6 5 -9 -14 -9 -20 0 -35 -12 -65 -52 -21 -29 -40 -66 -43 -82 -3 -16 -13 -34 -23 -40 -29 -18 -47 17 -47 90 0 35 -7 89 -15 121 -8 31 -15 78 -15 104 0 39 -5 51 -26 68 -15 12 -32 21 -39 21 -7 0 -31 28 -53 63 -44 69 -79 95 -108 79 -15 -8 -353 -16 -452 -11 -28 1 -58 -24 -79 -68 -23 -50 -43 -43 -41 15 1 26 0 104 -2 174 -3 104 -7 134 -22 159 -24 40 -46 26 -30 -19 15 -45 1 -62 -43 -48 -39 12 -42 18 -20 36 22 18 18 35 -10 54 -16 11 -25 26 -26 44 0 15 -8 63 -17 107 -20 92 -34 102 -93 62 -33 -22 -47 -24 -215 -30 -98 -3 -184 -3 -190 1 -7 4 -14 79 -19 197 -4 105 -10 237 -12 295 -4 88 -9 256 -12 409 -1 19 -4 31 -8 28 -3 -4 -5 -211 -4 -460 2 -501 5 -481 -61 -475 l-33 3 -7 185 c-3 102 -9 300 -13 440 -16 602 -36 548 -38 -107 l-2 -498 -49 0 c-48 0 -50 -1 -56 -31 -9 -41 -38 -83 -44 -63 -5 14 -8 117 -26 813 -6 220 -13 403 -16 408 -3 5 -1 14 4 21 11 13 -8 270 -21 283 -9 9 -9 -37 -8 -891 0 -385 3 -727 7 -760 5 -54 3 -62 -18 -81 -12 -12 -36 -26 -53 -31 -25 -8 -30 -15 -33 -48 -4 -43 5 -54 49 -69 l31 -11 5 -207 c6 -234 7 -231 -68 -209 -27 8 -41 19 -44 34 -8 32 0 297 9 324 6 17 4 24 -9 29 -25 10 -41 -11 -28 -38 6 -14 8 -81 4 -178 l-6 -155 -28 -3 c-17 -2 -37 4 -48 14 -18 17 -20 31 -18 193 0 97 -2 224 -6 283 l-8 107 27 12 c26 12 26 14 26 110 l0 98 -30 16 -30 16 -1 117 c0 64 -4 187 -8 272 -4 85 -4 164 0 176 4 11 3 28 -2 37 -9 16 -17 131 -39 547 -10 203 -18 270 -30 270 -5 0 -7 -19 -6 -42 1 -24 -1 -52 -5 -63 -4 -11 -3 -171 1 -355 5 -228 4 -339 -3 -348 -7 -9 -7 -24 1 -50 6 -20 14 -106 17 -190 7 -175 13 -163 -91 -165 l-67 -2 -9 35 c-13 50 -26 59 -83 59 -27 0 -204 -1 -392 -2 -213 -1 -345 -6 -351 -12 -5 -5 -17 -44 -27 -85 -10 -41 -21 -79 -26 -84 -4 -5 -25 -12 -46 -15 l-38 -6 0 -124 0 -123 35 -12 35 -11 -4 -205 c-1 -113 -7 -210 -12 -216 -5 -6 -28 -14 -52 -17 -54 -7 -77 -35 -77 -93 0 -23 -3 -45 -8 -47 -4 -3 -37 -8 -73 -11 -57 -6 -67 -4 -83 13 -13 15 -17 28 -12 48 4 15 7 35 7 43 0 8 -3 83 -5 165 -3 83 -8 317 -10 520 -3 204 -6 372 -6 375 0 3 -4 -1 -9 -9 -5 -8 -10 -116 -10 -240 -2 -391 -12 -896 -19 -903 -4 -3 -37 -9 -74 -13 -65 -7 -68 -6 -76 16 -5 13 -12 230 -14 482 l-6 458 27 10 c60 23 75 58 45 104 -11 18 -14 35 -9 57 4 18 6 50 6 71 -1 20 -2 56 -2 80 -1 23 2 54 6 68 5 21 -2 41 -34 94 -46 76 -47 81 -24 129 15 33 15 37 -6 85 -15 37 -19 56 -12 69 5 10 6 24 1 32 -8 17 -17 209 -25 575 -7 318 -8 304 15 342 26 44 25 71 -2 101 -22 22 -23 34 -26 183 -2 88 -9 226 -16 306 -8 90 -10 160 -5 182 10 39 1 181 -11 181 -4 0 -15 -18 -25 -40 -20 -44 -26 -47 -45 -25 -18 22 -35 18 -50 -11 -12 -22 -12 -29 1 -52 11 -21 24 -28 59 -32 l45 -5 0 -810 c0 -836 -4 -948 -38 -966 -12 -7 -16 -17 -12 -30 9 -28 -8 -51 -62 -79 l-48 -25 -3 -109 c-1 -60 1 -113 6 -118 5 -5 31 -12 58 -16 l49 -7 0 -44 c0 -36 4 -45 23 -52 25 -10 29 -31 7 -49 -11 -9 -15 -33 -15 -85 0 -52 4 -76 15 -85 13 -11 15 -77 15 -487 0 -311 -4 -481 -10 -494 -8 -14 -7 -25 5 -41 18 -27 20 -69 3 -86 -17 -17 -269 -17 -286 0 -17 17 -15 52 6 77 16 20 26 22 124 22 59 0 109 3 112 7 4 6 -182 16 -274 14 -194 -3 -315 -1 -323 7 -10 10 -19 166 -11 192 3 12 24 18 87 23 45 4 85 10 90 15 4 4 6 93 5 197 l-3 189 -92 8 c-57 6 -93 14 -96 21 -3 7 -7 94 -8 194 -3 204 -1 212 62 212 42 0 59 18 59 65 0 44 -17 65 -54 65 -69 0 -66 45 4 52 31 3 35 7 42 41 11 53 -4 75 -53 83 -21 4 -42 11 -46 17 -9 15 25 36 48 30 30 -8 49 15 49 61 0 50 -13 66 -56 66 -64 0 -72 19 -80 177 -6 129 -9 143 -25 143 -10 0 -20 -4 -23 -9 -10 -16 -8 -766 2 -851 10 -77 9 -87 -8 -110 -20 -28 -16 -27 -190 -11 -60 6 -132 5 -195 -2 -55 -5 -120 -10 -145 -11 -25 0 -47 -3 -50 -7 -3 -4 -4 -51 -2 -104 3 -86 5 -96 20 -89 71 30 110 37 231 42 126 5 280 -9 310 -27 8 -5 13 -62 17 -190 5 -159 4 -185 -11 -207 -13 -21 -16 -46 -13 -144 2 -82 -1 -123 -9 -131 -18 -18 -480 -13 -509 6 -19 12 -24 12 -34 0 -19 -23 -49 -18 -60 10 l-9 25 -43 -41 -43 -41 -163 0 c-142 0 -166 2 -183 18 -10 9 -19 23 -19 29 0 20 -24 35 -47 29 -11 -3 -26 -20 -34 -37 -12 -27 -20 -33 -53 -35 -24 -2 -42 2 -47 10 -5 7 -9 92 -9 188 0 96 -5 306 -10 467 -5 186 -5 305 1 327 14 50 51 76 109 76 54 0 60 7 60 74 0 51 -13 66 -60 66 -20 0 -45 6 -56 14 -29 22 -4 40 51 38 40 -2 47 1 55 24 6 14 10 43 10 64 0 43 0 43 -84 54 -47 6 -53 12 -40 34 7 11 29 19 60 22 l49 5 3 61 3 61 -55 7 c-90 10 -103 18 -122 79 -21 66 -11 110 27 116 13 1 27 8 31 15 5 6 7 55 7 108 l-1 98 -48 24 c-33 17 -50 21 -53 13 -3 -8 -9 -1525 -7 -1714 0 -6 -13 -16 -29 -21 -29 -10 -29 -12 -33 -94 -3 -75 0 -88 25 -136 46 -88 55 -84 -208 -88 -704 -9 -982 -15 -996 -19 -33 -11 -834 -23 -844 -13 -6 5 -10 75 -11 166 0 86 -2 359 -3 605 -2 246 -2 449 0 450 35 25 63 37 86 37 51 0 57 12 64 117 8 107 1 123 -50 123 -27 0 -111 37 -111 49 0 17 27 31 61 31 52 0 79 35 79 103 0 41 -5 56 -26 78 l-25 26 20 34 c29 46 29 131 1 159 -24 24 -25 52 -4 84 10 17 14 42 12 82 -3 63 -4 63 -80 79 -35 7 -45 26 -53 102 -7 61 -7 61 22 77 24 12 70 15 206 17 121 1 177 5 180 13 2 6 1 38 -4 71 -5 33 -9 74 -11 91 l-2 31 -165 8 c-92 4 -175 12 -186 17 -47 24 -65 51 -65 95 0 24 -4 43 -10 43 -5 0 -10 -9 -10 -20 0 -11 -6 -35 -14 -54 -22 -52 -55 -60 -210 -52 -72 3 -146 3 -163 0 l-32 -6 -3 -107 c-2 -73 1 -109 9 -117 7 -6 76 -11 174 -12 207 -2 210 -4 203 -99 -3 -38 -10 -96 -15 -129 -8 -43 -8 -68 -1 -81 7 -13 8 -46 2 -99 -9 -75 -11 -156 -11 -539 -1 -223 -6 -306 -21 -321 -9 -8 -101 -16 -293 -24 -157 -7 -286 -17 -293 -23 -8 -6 -12 -25 -10 -46 l3 -36 110 0 c61 0 180 2 265 5 l155 5 5 -110 c5 -108 5 -110 33 -123 l27 -13 -2 -216 -3 -216 -35 -12 -35 -12 -7 -104 c-6 -91 -4 -107 11 -129 31 -43 53 -91 48 -105 -4 -10 -125 -13 -599 -14 -326 -1 -712 -6 -857 -11 -330 -12 -305 -24 -297 145 3 66 2 206 -2 310 l-7 190 -7 -235 c-4 -129 -6 -268 -3 -309 6 -112 8 -111 -143 -111 -86 0 -132 4 -140 12 -9 9 -12 129 -12 481 0 459 -3 516 -34 590 -7 19 -16 25 -26 21 -14 -7 -58 -12 -135 -16 -16 -1 -80 -1 -142 0 -110 2 -112 2 -140 32 -25 27 -36 30 -102 35 -40 2 -79 9 -86 15 -9 8 -15 8 -20 0 -9 -15 -52 -12 -59 5 -3 8 -6 837 -6 1842 0 1960 -4 2312 -25 2503 -1 8 -2 24 -4 35 -2 19 -2 19 -13 1 -12 -21 -23 -495 -33 -1481 -3 -335 -10 -830 -15 -1100 -5 -269 -12 -783 -16 -1141 -4 -359 -10 -657 -14 -663 -7 -12 -257 -20 -276 -9 -5 3 -33 2 -63 -3 -33 -5 -61 -4 -72 1 -13 8 -24 4 -45 -13 l-27 -23 -8 -240 c-4 -131 -8 -390 -9 -574 0 -184 -4 -340 -8 -347 -5 -8 -83 -14 -262 -19 -385 -11 -380 -11 -396 11 -15 20 -11 113 6 182 11 42 -15 46 -33 6 -6 -16 -18 -33 -25 -39 -9 -6 -17 -41 -21 -90 l-6 -79 -65 -6 c-36 -4 -69 -3 -74 2 -6 5 -10 42 -10 81 l-1 73 -30 0 c-28 0 -30 -2 -38 -54 -4 -30 -10 -57 -13 -60 -10 -10 -24 24 -24 60 0 21 -8 47 -20 62 -24 30 -24 31 -4 52 15 15 15 17 0 34 -21 23 -21 59 0 82 14 16 15 23 4 49 -10 24 -10 33 0 45 10 13 10 19 -4 33 -9 10 -16 28 -16 40 0 11 -4 23 -9 26 -8 5 -21 -156 -21 -270 0 -73 -16 -160 -35 -190 -8 -12 -11 -31 -8 -43 4 -15 1 -21 -10 -21 -18 0 -30 46 -31 119 -1 44 -26 74 -26 32 0 -11 -10 -26 -22 -32 -32 -17 -38 -28 -38 -76 0 -23 -4 -44 -8 -47 -5 -3 -60 -8 -123 -11 -63 -3 -128 -8 -145 -11 -18 -3 -34 -2 -38 4 -3 5 -6 103 -6 219 -1 115 -6 216 -11 224 -6 9 -9 -6 -10 -46 -2 -140 -10 -304 -17 -355 l-7 -55 -88 -3 c-64 -2 -88 1 -91 10 -3 7 -7 78 -11 158 -7 173 -12 207 -33 215 -33 12 -36 -10 -25 -192 7 -98 8 -181 4 -185 -12 -13 -607 -23 -615 -10 -7 12 -9 4442 -1 4762 2 113 7 857 11 1654 l6 1448 24 36 c30 44 30 50 -2 93 l-25 34 7 300 c7 296 7 300 30 328 13 16 24 32 24 36 0 12 68 83 140 146 128 114 327 228 525 303 144 54 153 56 188 38 54 -27 173 -47 221 -36 109 25 475 90 507 90 19 0 43 6 53 13 17 13 17 19 5 86 l-13 73 -45 20 c-75 33 -139 31 -316 -7z m5072 -6672 c2 -6 -3 -13 -12 -16 -10 -5 -15 0 -15 14 0 21 21 22 27 2z m5573 -1737 c0 -13 -7 -29 -15 -36 -24 -20 -21 -189 3 -221 17 -22 20 -53 26 -301 6 -258 5 -278 -11 -287 -23 -11 -110 2 -128 20 -11 11 -14 97 -17 424 l-3 410 50 6 c94 11 95 11 95 -15z m407 -148 c-3 -8 -6 -5 -6 6 -1 11 2 17 5 13 3 -3 4 -12 1 -19z m963 -418 c0 -5 -4 -10 -10 -10 -5 0 -10 5 -10 10 0 6 5 10 10 10 6 0 10 -4 10 -10z m1549 6 c-11 -10 -179 -16 -179 -7 0 7 34 11 92 11 50 0 89 -2 87 -4z m-3834 -76 c3 -5 -1 -10 -9 -10 -8 0 -18 5 -21 10 -3 6 1 10 9 10 8 0 18 -4 21 -10z m2355 -15 c0 -21 -31 -48 -42 -37 -6 6 -4 19 7 36 17 26 35 27 35 1z m1958 -88 c28 -30 39 -105 19 -131 -20 -27 -64 -14 -78 22 -21 55 -23 91 -4 112 23 26 37 25 63 -3z m-4892 -92 c3 -12 4 -36 2 -51 -3 -26 -7 -29 -41 -32 -48 -4 -67 11 -67 54 0 40 27 62 70 56 21 -3 32 -11 36 -27z m232 12 c18 -14 16 -84 -4 -91 -20 -8 -88 -8 -108 0 -21 8 -21 72 0 95 11 13 25 16 57 12 23 -3 48 -10 55 -16z m-840 -6 c8 -5 12 -23 10 -47 l-3 -39 -58 -3 c-54 -3 -58 -2 -67 24 -17 43 10 74 63 74 23 0 48 -4 55 -9z m3431 -43 c26 -41 -23 -118 -75 -118 -26 0 -74 53 -74 82 0 30 31 77 54 80 28 5 79 -19 95 -44z m-3842 26 c3 -9 -1 -31 -10 -50 -15 -30 -21 -34 -55 -34 -46 0 -62 14 -62 56 0 37 8 42 73 43 35 1 49 -3 54 -15z m197 10 c10 -4 16 -18 16 -39 0 -33 -17 -49 -37 -37 -14 9 -20 53 -10 70 9 14 10 14 31 6z m-628 -29 c34 -51 -19 -91 -61 -45 -18 20 -18 21 5 45 29 31 36 31 56 0z m238 9 c10 -26 7 -61 -6 -71 -10 -8 -93 -11 -129 -4 -13 2 -19 52 -9 71 9 17 21 20 74 20 49 0 65 -4 70 -16z m1834 -20 c-4 -23 -26 -30 -34 -10 -8 20 15 51 29 37 5 -5 7 -17 5 -27z m-2330 14 c15 -15 16 -72 2 -99 -9 -16 -22 -19 -95 -19 -81 0 -85 1 -91 24 -3 13 -4 38 -2 57 3 34 3 34 63 40 101 10 111 9 123 -3z m3686 -10 c22 -31 20 -68 -6 -95 -32 -34 -62 -30 -88 12 -22 36 -21 45 13 83 26 28 61 28 81 0z m-4474 -8 c14 -22 12 -83 -3 -103 -10 -15 -27 -17 -112 -15 l-100 3 -3 59 c-2 33 1 62 7 65 5 3 52 6 105 6 75 0 99 -3 106 -15z m178 8 c13 -13 17 -117 5 -119 -101 -12 -123 -1 -123 65 0 53 13 66 65 66 23 0 46 -5 53 -12z m362 -7 c11 -22 13 -71 4 -95 -8 -21 -48 -21 -68 0 -9 8 -16 31 -16 49 0 57 56 89 80 46z m7265 -4 c-5 -19 1 -29 30 -51 64 -49 28 -99 -44 -62 -40 21 -49 52 -22 80 12 12 21 30 21 39 0 9 5 17 10 17 6 0 8 -10 5 -23z m-8395 -7 c14 -26 12 -104 -2 -118 -16 -16 -220 -16 -236 0 -15 15 -16 110 -1 125 6 6 57 10 120 10 96 1 111 -1 119 -17z m298 8 c7 -7 12 -33 12 -58 0 -25 -5 -51 -12 -58 -8 -8 -48 -12 -114 -12 -84 0 -103 3 -108 16 -8 21 -8 109 1 117 12 13 208 8 221 -5z m570 -54 c-2 -27 -7 -49 -13 -49 -11 0 -19 79 -10 103 11 30 26 -5 23 -54z m-1191 44 c8 -6 13 -33 13 -69 0 -54 -2 -59 -25 -65 -13 -3 -37 -2 -52 3 -29 10 -150 9 -160 -1 -4 -3 -12 -1 -20 5 -18 15 -17 103 1 122 18 17 223 22 243 5z m-329 -10 c16 -16 16 -124 0 -135 -22 -13 -251 -5 -260 9 -4 7 -7 38 -6 68 l3 55 55 6 c102 11 196 9 208 -3z m-338 -17 c15 -30 12 -107 -5 -121 -10 -8 -63 -14 -148 -18 -157 -6 -160 -4 -155 85 l3 58 60 6 c33 3 99 6 147 7 77 2 89 0 98 -17z m-507 -3 c14 -11 15 -23 9 -78 l-7 -65 -94 -3 c-60 -2 -98 1 -107 9 -15 12 -19 105 -6 126 4 7 37 14 72 16 36 2 77 4 91 5 14 1 33 -4 42 -10z m-695 -7 c9 -5 12 -28 10 -77 l-3 -69 -160 -3 c-142 -2 -161 -1 -172 15 -17 22 -17 108 0 121 7 6 58 13 113 15 54 1 122 4 149 5 28 1 56 -2 63 -7z m420 -57 c2 -43 -1 -66 -11 -76 -19 -18 -282 -25 -303 -7 -15 12 -20 129 -7 143 4 3 77 5 162 4 l156 -3 3 -61z m10476 44 c17 -27 -4 -72 -35 -76 -47 -5 -79 54 -47 86 17 17 69 11 82 -10z m-11320 -4 c18 -18 22 -95 6 -125 -10 -18 -23 -19 -179 -19 -133 0 -171 3 -180 14 -7 9 -11 38 -9 73 l3 58 155 5 c85 3 163 7 172 8 9 1 24 -5 32 -14z m9711 -15 c9 -27 -7 -42 -44 -42 -41 0 -64 19 -50 44 15 28 85 27 94 -2z m465 6 c14 -17 5 -35 -17 -35 -18 0 -53 28 -53 42 0 14 57 9 70 -7z m-10848 -12 c11 -14 14 -31 9 -68 l-6 -50 -90 0 -90 1 -7 44 c-11 74 -7 79 75 83 40 1 77 4 83 5 6 1 18 -6 26 -15z m223 -6 c4 -13 5 -43 3 -68 l-3 -44 -78 -3 c-46 -2 -84 2 -92 8 -21 17 -26 81 -9 107 13 21 22 23 94 23 75 0 80 -1 85 -23z m-1887 -64 c2 -14 -2 -23 -10 -24 -82 -4 -223 2 -231 10 -21 21 8 30 98 34 138 5 140 5 143 -20z m-358 -8 c0 -2 -4 -15 -10 -29 -11 -31 -45 -35 -60 -7 -15 29 -12 41 13 50 19 8 57 -2 57 -14z m-146 -4 c3 -5 -1 -11 -9 -15 -18 -6 -45 2 -45 15 0 12 47 12 54 0z"/>
    <path d="M12629 6206 c-2 -2 -67 -16 -144 -30 -122 -23 -142 -29 -158 -51 -10 -14 -26 -25 -35 -25 -10 0 -24 -5 -32 -11 -11 -8 -5 -9 26 -5 28 4 47 1 62 -10 21 -14 34 -14 150 6 70 12 144 26 166 31 36 10 38 12 32 42 -8 40 -48 71 -67 53z"/>
    <path d="M4810 6099 c-96 -3 -217 -7 -267 -8 l-93 -1 0 -50 c0 -45 3 -52 25 -60 18 -7 39 -5 72 6 40 14 56 14 102 4 30 -7 80 -12 111 -11 45 0 61 -4 75 -19 18 -20 18 -20 41 1 21 20 36 22 208 27 l184 5 5 27 c19 92 -11 98 -463 79z"/>
    <path d="M12090 6055 c0 -17 11 -20 26 -6 5 5 18 11 29 14 11 3 4 5 -17 6 -28 1 -38 -3 -38 -14z"/>
    <path d="M14158 4985 c-3 -3 -45 -10 -94 -16 -58 -7 -106 -19 -139 -35 -29 -15 -75 -28 -112 -31 -35 -3 -63 -10 -63 -14 0 -12 16 -11 80 1 36 7 65 7 92 -1 31 -8 66 -6 151 6 148 21 157 24 157 45 0 33 -51 65 -72 45z"/>
    <path d="M12084 4586 c-4 -10 -2 -22 4 -28 8 -8 13 -7 18 6 4 10 2 22 -4 28 -8 8 -13 7 -18 -6z"/>
    <path d="M12092 4519 c-10 -15 -20 -19 -37 -15 -19 5 -28 -1 -46 -25 -21 -30 -21 -31 -3 -56 11 -14 35 -31 54 -37 34 -11 35 -13 40 -71 5 -55 6 -50 14 57 5 65 4 128 0 142 -9 26 -9 26 -22 5z"/>
    <path d="M14390 4256 c-91 -12 -110 -19 -110 -41 0 -23 41 -28 142 -15 101 12 119 20 102 48 -14 22 -30 23 -134 8z"/>
    <path d="M14120 4190 c0 -12 27 -12 55 0 16 7 13 9 -17 9 -21 1 -38 -3 -38 -9z"/>
    <path d="M17005 4146 c-10 -15 -15 -40 -13 -63 3 -36 5 -38 38 -38 26 0 36 5 38 18 7 34 -9 87 -28 97 -16 8 -22 6 -35 -14z"/>
    <path d="M17020 3966 c0 -8 12 -24 26 -35 21 -17 41 -21 95 -21 37 0 71 5 74 10 4 7 -17 10 -58 9 -77 -2 -104 6 -112 32 -7 22 -25 26 -25 5z"/>
    <path d="M14551 3629 c-91 -18 -79 -55 13 -44 50 7 57 10 54 28 -4 25 -11 27 -67 16z"/>
    <path d="M13742 3210 c0 -19 2 -27 5 -17 2 9 2 25 0 35 -3 9 -5 1 -5 -18z"/>
    <path d="M14700 3155 c-31 -6 -66 -18 -80 -25 l-24 -13 22 -8 c14 -5 52 -4 93 3 60 11 69 15 67 32 -4 25 -11 26 -78 11z"/>
    <path d="M14496 3103 c-9 -9 -7 -33 3 -33 12 0 22 28 12 34 -5 3 -11 3 -15 -1z"/>
    <path d="M13742 3080 c0 -14 2 -19 5 -12 2 6 2 18 0 25 -3 6 -5 1 -5 -13z"/>
    <path d="M14120 3014 c0 -14 4 -23 10 -19 6 3 10 15 10 26 0 10 -4 19 -10 19 -5 0 -10 -12 -10 -26z"/>
    <path d="M13741 3004 c0 -11 3 -14 6 -6 3 7 2 16 -1 19 -3 4 -6 -2 -5 -13z"/>
    <path d="M14120 2951 c0 -25 6 -27 13 -6 4 8 2 17 -3 20 -6 4 -10 -3 -10 -14z"/>
    <path d="M14126 2846 c-6 -23 1 -96 10 -105 2 -2 4 26 4 62 0 71 -4 83 -14 43z"/>
    <path d="M13747 2843 c-13 -13 -7 -51 9 -57 15 -6 15 -9 -5 -29 -27 -29 -26 -38 3 -59 31 -23 48 -5 45 49 -1 21 2 45 5 54 5 12 0 22 -16 33 -25 18 -31 19 -41 9z"/>
    <path d="M16680 2840 c-57 -5 -80 -14 -80 -31 0 -10 81 -12 129 -3 31 6 42 28 19 36 -7 2 -38 1 -68 -2z"/>
    <path d="M16515 2800 c-3 -5 -2 -10 4 -10 5 0 13 5 16 10 3 6 2 10 -4 10 -5 0 -13 -4 -16 -10z"/>
    <path d="M16771 2651 c-19 -3 -36 -12 -39 -19 -3 -10 8 -12 44 -10 34 2 49 7 49 17 0 18 -10 20 -54 12z"/>
    <path d="M16910 2470 c-23 -14 0 -29 38 -23 40 6 44 33 5 33 -16 0 -35 -5 -43 -10z"/>
    <path d="M14346 2433 c-4 -13 -3 -31 3 -40 9 -17 10 -17 17 0 3 10 2 28 -3 40 l-10 22 -7 -22z"/>
    <path d="M16800 2200 c0 -11 5 -20 10 -20 6 0 10 9 10 20 0 11 -4 20 -10 20 -5 0 -10 -9 -10 -20z"/>
    <path d="M12255 2170 c-9 -15 -1 -23 21 -18 15 3 16 4 1 16 -11 9 -17 10 -22 2z"/>
    <path d="M15220 2103 c-8 -2 -22 -7 -30 -9 -13 -5 -13 -6 0 -14 24 -15 56 -11 81 10 l24 19 -30 0 c-16 0 -37 -3 -45 -6z"/>
    <path d="M12370 1776 c0 -19 5 -38 10 -41 6 -4 10 10 10 34 0 23 -4 41 -10 41 -5 0 -10 -15 -10 -34z"/>
    <path d="M16641 1744 c0 -11 3 -14 6 -6 3 7 2 16 -1 19 -3 4 -6 -2 -5 -13z"/>
    <path d="M16823 1685 c0 -22 2 -30 4 -17 2 12 2 30 0 40 -3 9 -5 -1 -4 -23z"/>
    <path d="M12382 1670 c0 -14 2 -19 5 -12 2 6 2 18 0 25 -3 6 -5 1 -5 -13z"/>
    <path d="M15078 1570 c-8 -125 -4 -284 7 -290 13 -6 19 297 7 343 -7 27 -9 19 -14 -53z"/>
    <path d="M15575 1608 c-16 -6 -36 -12 -42 -14 -21 -5 -15 -21 10 -28 37 -10 72 -7 92 8 16 12 17 16 6 30 -15 18 -23 18 -66 4z"/>
    <path d="M16819 1618 c-1 -2 -3 -157 -4 -346 -2 -353 2 -387 36 -346 10 12 14 55 14 163 1 80 -2 151 -6 156 -4 6 -10 73 -13 148 -3 76 -8 143 -12 148 -3 6 0 16 6 24 12 15 5 55 -11 55 -5 0 -10 -1 -10 -2z"/>
    <path d="M15768 1283 c-53 -8 -25 -33 37 -33 29 0 54 14 43 25 -7 7 -54 12 -80 8z"/>
    <path d="M15902 1031 c-10 -6 -10 -10 2 -20 16 -13 56 1 56 19 0 12 -40 13 -58 1z"/>
    <path d="M17005 1026 c-18 -13 -18 -14 3 -25 18 -10 27 -8 52 11 16 12 30 23 30 25 0 9 -69 1 -85 -11z"/>
    <path d="M16075 866 c-19 -15 -18 -15 18 -16 27 0 37 4 35 13 -7 18 -31 20 -53 3z"/>
    <path d="M16382 858 c-13 -16 -19 -128 -9 -145 5 -7 21 -13 37 -13 l29 0 -5 73 c-7 87 -9 97 -27 97 -8 0 -19 -6 -25 -12z"/>
    <path d="M19567 793 c-13 -13 -7 -61 11 -83 33 -41 83 10 62 65 -7 19 -17 25 -38 25 -16 0 -32 -3 -35 -7z"/>
    <path d="M2691 734 c0 -11 3 -14 6 -6 3 7 2 16 -1 19 -3 4 -6 -2 -5 -13z"/>
    <path d="M3470 735 c0 -8 5 -15 10 -15 6 0 10 7 10 15 0 8 -4 15 -10 15 -5 0 -10 -7 -10 -15z"/>
    <path d="M3460 655 c0 -10 7 -15 18 -13 21 4 19 22 -2 26 -10 2 -16 -3 -16 -13z"/>
    <path d="M19508 638 c-6 -18 -1 -88 6 -95 3 -4 6 19 6 50 0 56 -4 69 -12 45z"/>
    <path d="M3592 623 c2 -10 10 -18 18 -18 22 0 18 29 -3 33 -14 3 -18 -1 -15 -15z"/>
    <path d="M10771 624 c0 -11 3 -14 6 -6 3 7 2 16 -1 19 -3 4 -6 -2 -5 -13z"/>
    <path d="M3780 609 c0 -5 5 -7 10 -4 6 3 10 8 10 11 0 2 -4 4 -10 4 -5 0 -10 -5 -10 -11z"/>
    <path d="M10771 584 c0 -11 3 -14 6 -6 3 7 2 16 -1 19 -3 4 -6 -2 -5 -13z"/>
    <path d="M10771 544 c0 -11 3 -14 6 -6 3 7 2 16 -1 19 -3 4 -6 -2 -5 -13z"/>
  </g>
</svg>