<?xml version="1.0" encoding="utf-8"?>
<svg viewBox="0 0 2000 1200" preserveAspectRatio="none" xmlns="http://www.w3.org/2000/svg">
  <g transform="matrix(0.10000000149011612, 0, 0, -0.10000000149011612, 0, 1200)" fill="#000000" stroke="none" style="opacity: 0.1;">
    <path d="M9945 11499 c-106 -31 -121 -39 -112 -62 5 -15 204 -68 224 -60 7 3 13 17 13 33 0 45 20 90 44 96 26 6 76 -11 76 -27 0 -8 17 -9 63 -4 34 5 72 9 84 10 13 1 26 5 30 8 13 13 82 7 97 -9 20 -20 21 -80 1 -88 -20 -7 -8 -36 15 -36 25 0 39 21 42 66 4 53 21 48 32 -9 10 -58 14 -58 156 -14 85 27 105 36 105 52 0 16 -18 24 -105 47 -103 27 -111 27 -385 27 -280 -1 -280 -1 -380 -30z m823 -46 c2 -9 -7 -13 -27 -13 -30 0 -39 9 -24 24 11 10 46 3 51 -11z m-833 -3 c8 -13 -20 -24 -41 -16 -20 8 -9 26 16 26 10 0 22 -5 25 -10z"/>
    <path d="M10066 11239 c-3 -19 -15 -131 -26 -249 -40 -416 -43 -430 -73 -430 -13 0 -29 -6 -36 -12 -8 -9 -61 -13 -184 -14 -305 -3 -266 5 -325 -68 -28 -35 -86 -104 -129 -153 -82 -95 -116 -136 -161 -193 -24 -32 -432 -510 -457 -536 -22 -23 -424 -492 -569 -664 -146 -172 -216 -251 -292 -325 -101 -99 -274 -301 -274 -320 0 -9 -19 -35 -42 -58 -86 -86 -280 -311 -322 -374 -15 -23 -52 -69 -83 -102 -48 -54 -59 -61 -91 -61 -60 0 -596 -73 -847 -116 -728 -123 -1463 -329 -1837 -514 -231 -115 -396 -257 -514 -440 -32 -50 -64 -90 -71 -90 -16 0 -93 -50 -93 -60 0 -4 11 -11 25 -14 14 -4 25 -10 25 -14 0 -27 -202 -252 -227 -252 -8 0 -17 -8 -20 -18 -2 -10 -39 -49 -81 -87 -42 -39 -135 -124 -207 -190 -72 -66 -202 -183 -289 -260 -368 -326 -691 -653 -890 -900 -27 -33 -57 -63 -68 -67 -11 -4 -17 -12 -13 -18 3 -5 -12 -36 -33 -67 -112 -165 -166 -352 -143 -489 36 -206 200 -363 467 -445 220 -68 728 -139 1002 -139 37 0 73 -4 81 -9 15 -10 28 5 -240 -281 -84 -91 -237 -256 -338 -368 -101 -111 -190 -202 -198 -202 -17 0 -21 -4 -248 -255 -248 -276 -455 -513 -455 -522 0 -4 -41 -53 -90 -108 -50 -55 -214 -239 -365 -410 -151 -170 -307 -346 -346 -390 -40 -44 -158 -176 -263 -294 -105 -118 -234 -262 -286 -321 -178 -198 -285 -321 -288 -331 -2 -5 365 -9 955 -9 l960 0 185 232 c102 128 229 287 283 353 53 66 108 134 121 150 381 484 596 745 613 745 8 0 29 -13 46 -28 16 -16 75 -64 130 -107 55 -42 102 -81 103 -86 2 -5 -62 -9 -143 -9 -133 0 -151 -2 -182 -21 -32 -20 -34 -24 -31 -68 l3 -46 252 -5 c241 -5 253 -6 282 -27 17 -13 38 -23 48 -23 10 -1 28 -6 40 -13 23 -13 235 -184 478 -387 82 -69 229 -189 325 -268 96 -79 177 -148 178 -153 2 -5 -45 -9 -110 -9 -138 0 -161 -12 -156 -76 l3 -39 189 -3 c170 -2 191 -4 214 -22 13 -11 33 -20 44 -20 25 0 57 -16 89 -46 l25 -24 489 2 488 3 11 40 c12 40 12 40 71 46 112 12 204 10 235 -6 34 -18 53 -47 44 -69 -9 -24 94 -23 111 1 13 17 14 17 32 0 16 -14 39 -17 117 -17 89 0 96 1 88 17 -5 10 -7 24 -5 31 3 7 0 19 -6 26 -18 22 -1 26 109 26 78 0 111 -4 126 -15 11 -8 14 -15 7 -15 -7 0 -13 -7 -13 -15 0 -8 6 -15 13 -15 6 0 4 -5 -5 -11 -10 -5 -18 -14 -18 -19 0 -6 149 -10 388 -10 l387 0 18 45 19 45 177 0 c164 0 180 -2 201 -20 20 -17 37 -20 126 -20 58 0 106 -4 109 -10 3 -5 17 -10 31 -10 13 0 24 -5 24 -10 0 -6 15 -8 40 -4 27 4 40 3 40 -5 0 -7 25 -11 73 -11 l72 0 0 43 c0 24 -6 51 -14 60 -12 16 48 17 880 16 492 -1 959 -4 1039 -8 l145 -6 -3 -40 c-2 -22 -11 -46 -20 -53 -13 -10 6 -12 103 -12 97 0 116 2 103 12 -9 7 -18 31 -20 53 l-3 40 130 3 c72 2 293 0 493 -3 307 -6 361 -9 351 -21 -6 -8 -30 -14 -52 -14 -24 0 -48 -7 -59 -17 -16 -14 -52 -18 -211 -25 -485 -19 -233 -26 1096 -27 1227 -1 1391 1 1404 14 12 12 13 19 3 30 -11 13 19 15 239 15 138 0 251 -4 251 -9 0 -5 -7 -14 -15 -21 -8 -7 -15 -16 -15 -21 0 -5 163 -9 368 -9 l367 0 24 25 23 25 907 0 c498 0 912 -4 920 -9 9 -6 10 -11 2 -15 -6 -4 -11 -11 -11 -17 0 -5 547 -9 1440 -9 953 0 1440 3 1440 10 0 6 -102 10 -286 10 l-286 0 -117 79 c-65 43 -203 121 -307 174 -166 83 -193 101 -220 139 -17 23 -58 77 -90 119 -114 147 -181 235 -260 339 -91 121 -145 190 -264 339 -172 214 -370 472 -370 481 0 11 94 40 129 40 43 -1 473 -121 696 -194 463 -153 850 -322 1217 -532 80 -46 149 -84 152 -84 3 0 6 20 6 45 0 47 -16 65 -58 65 -11 0 -26 8 -33 17 -25 30 -493 244 -785 359 -313 122 -796 286 -1017 344 -26 7 -44 16 -40 20 11 11 220 73 818 245 246 70 324 81 680 90 127 3 276 8 333 11 l102 6 0 35 0 34 -42 -5 c-24 -3 -160 -8 -303 -11 -342 -7 -434 -13 -590 -37 -166 -25 -198 -33 -745 -190 l-455 -130 -74 17 c-105 25 -134 39 -167 82 -16 21 -38 49 -50 63 -28 32 -70 85 -164 206 -73 94 -138 175 -595 747 -311 388 -395 495 -395 501 0 11 60 6 272 -24 358 -51 764 -124 855 -155 24 -8 57 -15 74 -15 33 0 412 -93 664 -163 274 -76 919 -269 945 -282 14 -7 43 -16 65 -19 22 -4 185 -52 361 -107 177 -54 327 -99 333 -99 6 0 11 19 11 45 0 29 -4 45 -12 45 -12 0 -461 136 -663 201 -503 161 -1225 360 -1595 439 -52 11 -126 27 -165 36 -384 85 -868 166 -1148 190 -91 8 -58 -24 -317 304 -88 113 -168 214 -177 224 -9 11 -30 38 -47 60 -17 23 -69 88 -115 146 -134 166 -159 198 -278 351 -62 79 -196 251 -298 382 -102 130 -185 239 -185 242 0 13 78 35 125 35 35 0 57 5 65 15 7 8 20 15 30 15 10 0 20 7 24 15 3 8 12 15 20 15 17 0 79 32 84 43 2 4 15 7 28 7 13 0 24 4 24 10 0 34 114 55 274 51 41 -1 62 3 70 13 12 16 47 19 641 51 154 8 366 20 470 25 105 6 318 17 475 25 157 8 357 19 445 24 88 6 219 13 290 16 72 3 236 12 365 20 129 8 294 17 365 20 72 3 236 12 365 20 129 8 343 20 475 26 132 6 269 15 305 20 80 10 -98 5 -385 -11 -755 -41 -949 -52 -1170 -65 -137 -8 -351 -19 -475 -25 -124 -5 -250 -12 -280 -15 -30 -3 -149 -10 -265 -15 -115 -6 -320 -17 -455 -25 -135 -8 -353 -19 -485 -25 -132 -6 -294 -15 -360 -20 -197 -16 -595 -25 -595 -13 0 17 38 23 159 23 84 0 119 4 130 14 12 10 75 17 231 26 118 6 285 15 370 21 85 5 299 16 475 24 176 8 345 17 375 20 30 3 150 10 265 15 116 6 332 17 480 25 149 9 398 22 555 30 157 9 449 25 650 36 201 11 469 26 597 33 128 6 236 15 240 20 4 5 -28 5 -72 2 -44 -3 -177 -11 -295 -16 -118 -6 -285 -15 -370 -20 -146 -10 -423 -25 -885 -50 -110 -6 -364 -19 -565 -30 -201 -11 -414 -22 -475 -25 -60 -3 -175 -10 -255 -15 -80 -6 -251 -15 -380 -20 -129 -5 -347 -17 -485 -25 -137 -8 -342 -17 -455 -20 -113 -3 -306 -9 -430 -14 -124 -4 -241 -8 -260 -9 -56 -1 -125 -16 -125 -27 0 -5 46 -14 103 -19 57 -4 101 -11 98 -13 -3 -3 -38 -7 -78 -9 -181 -8 -214 -35 -55 -45 53 -3 100 -8 104 -12 3 -4 1 -7 -6 -7 -6 0 -15 -10 -20 -23 -6 -16 -27 -29 -72 -45 -35 -12 -67 -22 -71 -22 -14 0 -89 103 -84 116 2 6 -4 14 -16 17 -15 4 -19 12 -16 34 2 23 -1 29 -19 31 -25 4 -58 41 -201 232 -56 74 -153 203 -217 285 -96 125 -158 207 -359 473 -15 21 4 27 137 46 303 42 654 99 783 126 137 29 768 195 787 207 5 3 46 9 90 14 56 6 83 13 89 24 5 8 20 15 33 15 16 0 25 6 25 15 0 10 11 15 35 15 26 0 33 3 29 15 -5 12 2 15 30 15 23 0 35 4 34 13 -2 7 10 13 30 15 17 2 32 9 32 16 0 7 16 20 35 29 29 14 66 17 195 17 145 0 160 2 172 19 13 18 31 20 203 25 105 3 294 10 420 16 127 5 379 14 560 20 182 5 440 14 575 20 135 5 398 15 585 20 187 6 498 17 690 25 193 8 360 15 373 15 12 0 22 5 22 10 0 6 -25 8 -67 5 -38 -3 -221 -10 -408 -15 -187 -6 -522 -17 -745 -25 -1227 -45 -2072 -71 -2422 -75 -125 -1 -178 2 -178 9 0 23 54 31 195 31 113 0 147 3 158 15 21 21 61 23 642 40 286 8 655 19 820 25 165 6 509 17 765 25 256 9 575 20 710 25 135 5 304 10 375 10 72 0 137 5 145 10 20 13 -92 13 -425 0 -143 -5 -420 -14 -615 -20 -195 -6 -476 -15 -625 -20 -148 -5 -418 -14 -600 -20 -181 -5 -456 -14 -610 -20 -154 -5 -440 -12 -635 -15 -477 -7 -870 -21 -899 -32 l-24 -9 29 -12 c16 -6 38 -12 49 -12 11 0 70 -4 130 -9 61 -5 119 -10 130 -11 17 0 17 -2 5 -10 -8 -5 -53 -10 -100 -11 -120 -2 -203 -12 -207 -26 -5 -15 16 -20 120 -28 87 -7 109 -17 62 -29 -17 -4 -25 -12 -23 -23 3 -17 -26 -32 -282 -141 -124 -53 -220 -89 -315 -119 -33 -10 -59 -24 -58 -30 2 -7 -16 -11 -50 -10 -29 1 -119 -13 -202 -31 -214 -45 -835 -156 -840 -150 -1 2 -28 37 -61 78 -32 41 -110 143 -172 225 -100 132 -113 153 -108 180 9 45 18 48 94 36 39 -6 90 -11 114 -11 36 0 48 -5 71 -31 33 -38 49 -34 61 15 10 36 11 38 45 32 20 -3 74 -9 121 -12 77 -6 88 -10 112 -36 29 -31 46 -33 60 -5 29 59 10 55 171 41 76 -6 91 -10 103 -30 31 -46 70 -40 80 12 7 38 29 49 67 35 14 -6 60 -13 102 -17 62 -6 82 -12 101 -30 39 -40 74 -28 74 26 0 20 19 30 57 30 40 0 21 24 -23 30 -30 4 -40 10 -42 26 -2 17 4 22 40 30 51 11 53 28 3 32 -29 3 -38 9 -50 38 -14 35 -41 45 -51 20 -11 -28 -68 -44 -174 -47 -103 -4 -105 -4 -108 19 -5 34 -28 37 -63 8 -24 -21 -41 -26 -83 -26 -29 0 -81 -3 -114 -6 l-62 -7 -6 32 c-8 37 -26 39 -60 7 -22 -20 -39 -24 -127 -29 -56 -4 -114 -10 -129 -13 -27 -6 -28 -4 -28 30 0 42 -13 46 -49 12 -24 -21 -38 -24 -153 -30 l-128 -7 0 31 c0 37 -18 39 -50 5 -20 -21 -33 -25 -81 -25 l-57 0 -104 137 c-56 75 -132 174 -168 221 -119 157 -230 307 -230 314 0 4 -25 41 -55 83 -30 43 -55 81 -55 85 0 5 33 13 73 20 133 22 450 81 622 116 94 19 184 37 200 40 44 8 327 76 580 140 563 142 1152 332 1470 474 76 34 243 97 370 140 126 43 274 94 329 114 83 31 111 36 182 36 49 0 84 4 84 10 0 6 -6 10 -12 10 -9 0 -8 4 2 10 8 5 32 10 53 10 30 0 37 3 35 18 -2 12 5 18 22 20 53 6 69 12 64 26 -4 10 9 15 46 20 32 4 48 11 44 18 -10 15 16 28 59 28 20 0 37 5 37 10 0 6 -5 10 -11 10 -7 0 10 12 37 27 l49 28 201 -3 c213 -4 201 -6 242 43 11 13 142 15 1172 15 767 0 1160 3 1160 10 0 7 -400 10 -1177 11 -1236 2 -1582 7 -1573 24 3 6 81 10 203 10 179 0 200 2 212 18 12 17 62 18 851 22 462 3 984 5 1162 5 201 0 322 4 322 10 0 6 -438 11 -1207 14 -665 3 -1235 7 -1268 9 -125 8 -862 7 -903 -2 -24 -5 -51 -7 -60 -4 -10 2 -32 -2 -51 -10 -33 -14 -33 -15 -13 -26 11 -6 31 -11 44 -11 13 0 79 -8 148 -17 l125 -18 -105 -7 c-180 -13 -214 -16 -260 -26 -40 -8 -42 -10 -13 -11 17 0 35 -5 38 -11 3 -5 19 -10 36 -10 30 0 211 -29 218 -35 7 -7 -11 -25 -25 -25 -9 0 -24 -5 -35 -11 -16 -8 -18 -13 -8 -25 15 -18 18 -16 -71 -53 -41 -18 -176 -85 -300 -150 -327 -173 -349 -183 -525 -244 -483 -167 -786 -263 -1200 -381 -155 -43 -568 -149 -650 -166 -22 -4 -112 -24 -200 -43 -306 -69 -817 -167 -864 -167 -9 0 -26 15 -38 33 -13 17 -45 55 -73 84 -27 29 -50 61 -50 71 0 10 -15 36 -33 58 -18 21 -42 51 -52 65 -103 137 -141 185 -173 217 -20 20 -68 82 -107 137 -38 55 -183 252 -322 437 -139 186 -253 342 -253 348 0 14 16 13 48 -4 32 -16 142 -36 200 -36 37 0 41 -3 52 -35 20 -61 72 -59 115 6 21 33 31 40 48 35 12 -3 64 -11 116 -18 92 -11 94 -12 107 -44 11 -27 31 -44 51 -44 3 0 24 21 48 47 l43 46 58 -11 c33 -7 92 -15 132 -18 61 -6 72 -10 72 -25 0 -25 36 -60 54 -53 8 3 26 23 40 45 29 43 46 47 133 29 26 -5 75 -11 108 -12 56 -3 61 -5 74 -33 28 -61 60 -60 96 1 27 46 27 46 69 39 22 -4 84 -12 136 -19 82 -10 95 -14 98 -31 11 -59 52 -59 82 0 22 43 25 45 67 45 24 0 54 -5 65 -11 12 -6 59 -14 104 -17 l83 -5 11 -33 c11 -32 33 -49 51 -39 4 3 18 26 29 52 18 42 22 45 47 38 48 -12 146 -25 196 -25 56 0 87 -14 87 -38 0 -10 5 -23 12 -30 23 -23 47 -13 69 31 12 23 27 45 33 49 18 12 62 9 92 -7 18 -9 57 -15 99 -15 78 0 83 -2 107 -45 25 -44 57 -40 84 10 24 45 13 44 214 27 80 -7 86 -9 98 -34 7 -16 22 -33 33 -38 20 -11 41 5 79 60 15 21 16 21 149 9 133 -13 133 -13 143 -41 11 -32 46 -45 75 -30 11 6 28 27 38 46 l20 36 215 -1 c118 -1 238 -1 265 0 l50 1 2 47 c0 32 6 51 18 60 21 15 15 18 -53 27 -53 8 -138 -12 -107 -25 11 -4 45 -8 77 -8 l56 -1 -7 -27 c-7 -23 -13 -28 -37 -26 -16 1 -36 12 -45 24 -17 23 -54 23 -54 -1 0 -22 -26 -39 -61 -40 -33 0 -55 27 -33 41 8 4 5 10 -7 17 -16 9 -13 12 25 18 l44 7 -29 15 c-19 10 -54 15 -104 14 -104 -1 -156 9 -152 31 4 24 -16 57 -34 57 -8 0 -32 -12 -51 -27 -33 -26 -47 -29 -170 -38 -73 -5 -138 -8 -143 -7 -6 2 -10 21 -10 43 0 49 -17 51 -70 9 -34 -27 -46 -30 -106 -31 -38 0 -100 -4 -139 -8 -38 -4 -76 -6 -82 -3 -7 2 -13 19 -13 38 0 29 -3 34 -23 34 -13 0 -34 -11 -47 -25 -27 -29 -45 -32 -209 -39 l-123 -5 4 32 c10 63 -7 67 -72 16 -34 -26 -41 -27 -183 -32 l-148 -5 6 38 c4 21 2 40 -2 43 -5 3 -31 -9 -59 -28 l-49 -33 -144 -4 -143 -4 6 43 c6 42 5 44 -17 37 -12 -3 -36 -17 -54 -30 -29 -22 -44 -25 -179 -30 l-147 -6 6 37 c9 55 -29 57 -88 5 -17 -15 -43 -19 -155 -22 l-135 -3 -1 40 c-1 36 -3 40 -25 37 -13 -1 -41 -14 -61 -27 -33 -22 -48 -25 -170 -27 l-133 -3 3 25 c2 14 5 30 5 35 4 23 -54 15 -95 -13 -41 -28 -48 -29 -165 -31 l-123 -2 3 38 c2 37 1 38 -35 41 -29 2 -43 -3 -71 -27 -32 -29 -40 -31 -113 -31 -43 0 -118 -5 -168 -12 l-91 -12 50 -11 c28 -7 66 -20 85 -31 l35 -19 -65 -6 c-36 -4 -94 -11 -129 -17 -103 -17 -164 6 -126 48 10 11 26 20 35 20 10 0 20 7 23 15 8 19 -54 37 -103 29 -34 -5 -36 -3 -115 98 -44 56 -124 161 -177 233 -53 71 -108 144 -121 160 -13 17 -48 62 -78 100 -146 192 -183 241 -192 246 -5 4 -98 5 -205 2 -175 -4 -200 -3 -234 14 -26 13 -38 24 -38 40 0 30 -11 54 -21 47 -5 -3 -9 -15 -9 -27 0 -19 -10 -25 -64 -41 -51 -14 -71 -16 -98 -7 -18 5 -50 8 -70 6 -21 -2 -39 1 -39 6 -3 19 -5 24 -12 37 -5 6 -19 12 -33 12 -14 0 -22 4 -19 10 8 13 -7 13 -42 -2 -15 -6 -31 -12 -35 -12 -16 -2 -19 -16 -4 -22 13 -5 14 -9 5 -20 -6 -8 -18 -14 -27 -14 -13 0 -14 16 -7 128 4 70 9 141 11 157 11 109 33 409 30 413 -3 2 -7 -11 -10 -29z m1324 -1269 c0 -5 -4 -10 -10 -10 -5 0 -10 5 -10 10 0 6 5 10 10 10 6 0 10 -4 10 -10z m50 -65 c11 -13 10 -14 -4 -9 -9 3 -16 10 -16 15 0 13 6 11 20 -6z m-1888 -117 c-7 -7 -12 -8 -12 -2 0 14 12 26 19 19 2 -3 -1 -11 -7 -17z m-662 -13 c0 -15 -34 -55 -47 -55 -11 0 -9 7 7 30 19 27 40 40 40 25z m-73 -95 c-6 -16 -16 -30 -21 -30 -5 0 -26 -19 -47 -42 -21 -24 -39 -38 -39 -32 0 5 13 23 28 40 15 16 38 44 51 62 28 40 43 42 28 2z m949 -86 c37 -321 144 -1286 153 -1374 5 -41 6 -78 4 -82 -2 -5 -217 -8 -476 -8 -358 0 -491 3 -552 14 -44 8 -114 17 -155 21 -41 4 -78 12 -81 17 -3 5 2 47 12 94 22 102 1 71 371 544 703 900 688 882 702 877 6 -2 16 -48 22 -103z m2419 76 c-28 -12 -47 -12 -40 0 3 6 18 10 33 9 24 0 25 -1 7 -9z m410 -20 c-28 -12 -37 -12 -30 0 3 6 16 10 28 9 21 0 21 -1 2 -9z m405 -10 c0 -5 -12 -10 -27 -10 -22 0 -25 2 -13 10 20 13 40 13 40 0z m-3595 -40 c-16 -16 -31 -28 -33 -25 -6 6 40 55 52 55 6 0 -3 -13 -19 -30z m3990 20 c-3 -5 -15 -10 -26 -10 -10 0 -19 5 -19 10 0 6 12 10 26 10 14 0 23 -4 19 -10z m-990 -21 c5 -5 -12 -9 -48 -9 -54 0 -67 7 -49 24 9 10 84 -2 97 -15z m1395 11 c0 -5 -12 -10 -27 -10 -22 0 -25 2 -13 10 20 13 40 13 40 0z m-1032 -17 l37 -18 -64 -3 c-70 -3 -80 0 -61 23 16 20 42 19 88 -2z m1432 7 c0 -5 -12 -10 -27 -10 -22 0 -25 2 -13 10 20 13 40 13 40 0z m405 -9 c3 -5 -4 -13 -16 -16 -23 -8 -34 -1 -24 14 8 13 32 14 40 2z m-1449 -12 c60 -15 39 -29 -44 -29 -60 0 -62 1 -52 20 12 23 32 25 96 9z m1838 2 c3 -5 -4 -11 -16 -14 -25 -7 -33 -3 -23 12 8 13 32 14 39 2z m-4116 -118 c43 -65 184 -280 312 -478 128 -198 280 -428 337 -511 56 -84 103 -155 103 -158 0 -3 13 -26 30 -52 16 -26 27 -50 25 -54 -5 -8 -107 -25 -250 -40 -55 -6 -135 -18 -179 -26 -84 -15 -401 -20 -423 -6 -13 8 -20 161 -43 852 -5 168 -12 364 -16 437 -6 127 -3 153 16 153 5 0 45 -53 88 -117z m2656 102 c69 -11 55 -25 -24 -25 -38 0 -70 4 -70 8 0 14 24 33 36 28 6 -2 32 -8 58 -11z m1881 5 c4 -6 -9 -10 -32 -10 -28 0 -34 3 -23 10 20 13 47 13 55 0z m400 -10 c-3 -5 -17 -10 -31 -10 -13 0 -24 5 -24 10 0 6 14 10 31 10 17 0 28 -4 24 -10z m-1848 -19 c10 -5 -11 -10 -57 -15 -40 -3 -75 -4 -78 -2 -2 3 -2 13 2 22 5 14 15 16 63 10 30 -4 62 -10 70 -15z m358 0 l70 -18 -79 -6 c-88 -8 -101 -4 -86 24 13 23 7 22 95 0z m1660 -1 c3 -5 2 -10 -4 -10 -5 0 -13 5 -16 10 -3 6 -2 10 4 10 5 0 13 -4 16 -10z m-1237 -17 c63 -9 32 -23 -50 -23 -50 0 -68 4 -68 13 0 22 13 29 45 22 16 -3 49 -9 73 -12z m432 -14 c11 -6 6 -8 -16 -9 -17 0 -52 -3 -78 -6 -43 -6 -46 -5 -46 16 0 21 2 22 63 15 34 -4 69 -11 77 -16z m-6520 -4 c-7 -9 -15 -13 -17 -11 -7 7 7 26 19 26 6 0 6 -6 -2 -15z m6877 3 c27 -11 26 -12 -32 -19 -66 -8 -77 -5 -68 16 6 18 60 20 100 3z m441 -17 c4 -23 2 -23 -57 -19 -67 5 -76 9 -67 33 4 13 18 15 63 13 52 -3 58 -5 61 -27z m69 22 c-14 -4 -16 -8 -6 -19 9 -11 7 -14 -10 -14 -11 0 -21 4 -21 8 0 14 23 32 40 31 11 -1 10 -3 -3 -6z m-7412 -42 c3 -6 -4 -15 -15 -21 -11 -6 -20 -17 -20 -25 0 -8 -6 -15 -12 -16 -10 0 -10 -2 0 -6 23 -9 12 -31 -20 -38 -18 -4 -39 -12 -46 -18 -7 -5 -15 -8 -17 -5 -3 3 19 32 50 64 30 32 55 62 55 67 0 10 18 9 25 -2z m7308 -28 c-7 -2 -19 -2 -25 0 -7 3 -2 5 12 5 14 0 19 -2 13 -5z m-6683 -22 c0 -5 -7 -12 -16 -15 -14 -5 -15 -4 -4 9 14 17 20 19 20 6z m8295 -20 c52 -11 5 -19 -80 -13 -69 6 -75 7 -40 13 52 8 83 8 120 0z m-9055 -91 c0 -12 -10 -24 -24 -30 -18 -7 -24 -15 -22 -34 3 -20 -2 -26 -25 -31 -17 -4 -26 -11 -23 -19 3 -7 -2 -19 -11 -26 -8 -7 -15 -21 -15 -31 0 -21 -15 -25 -26 -8 -4 8 -10 7 -18 -1 -8 -9 -8 -14 2 -17 21 -8 13 -23 -10 -20 -34 6 -32 19 12 64 22 23 40 45 40 48 0 4 15 22 33 42 17 19 42 46 54 59 27 29 33 30 33 4z m38 -9 c3 -8 -1 -12 -9 -9 -7 2 -15 10 -17 17 -3 8 1 12 9 9 7 -2 15 -10 17 -17z m8200 -33 c-2 -6 -21 -17 -41 -24 -21 -7 -45 -20 -53 -29 -8 -8 -25 -15 -38 -15 -30 0 -49 -20 -35 -36 13 -16 0 -23 -132 -70 -174 -61 -196 -67 -179 -50 31 31 434 233 468 235 8 1 12 -4 10 -11z m-8415 -189 c7 0 -4 -6 -23 -13 -41 -14 -48 -12 -30 9 7 9 20 13 27 10 8 -3 20 -5 26 -6z m-78 -59 c-3 -5 -12 -10 -18 -10 -7 0 -6 4 3 10 19 12 23 12 15 0z m-58 -73 c-44 -46 -62 -77 -43 -77 8 0 16 6 19 13 2 6 8 8 13 4 5 -5 -4 -19 -21 -33 -17 -14 -33 -20 -39 -14 -5 5 -28 -12 -56 -42 -27 -29 -50 -46 -54 -40 -4 6 0 14 7 19 7 4 21 19 30 33 29 42 151 168 164 169 7 1 -2 -14 -20 -32z m-227 -257 c0 -5 -4 -10 -10 -10 -5 0 -10 5 -10 10 0 6 5 10 10 10 6 0 10 -4 10 -10z m-40 -43 c0 -2 -10 -12 -21 -23 -22 -19 -22 -19 -8 4 12 19 29 30 29 19z m-305 -337 c-3 -5 -11 -10 -16 -10 -6 0 -7 5 -4 10 3 6 11 10 16 10 6 0 7 -4 4 -10z m2352 -642 c6 -7 18 -98 27 -203 9 -104 23 -251 31 -325 24 -214 38 -380 39 -440 l1 -55 -834 0 -835 0 -28 115 -27 115 39 160 c37 154 47 195 106 445 14 63 30 122 35 131 6 13 29 19 91 24 160 12 371 35 376 40 3 3 222 5 487 5 374 0 485 -3 492 -12z m1443 -7 c107 -11 241 -23 297 -27 56 -3 112 -12 124 -18 16 -8 27 -30 41 -81 10 -38 30 -113 44 -165 14 -52 27 -99 28 -105 0 -5 -35 -14 -79 -20 -60 -7 -80 -14 -80 -25 0 -14 11 -17 133 -36 54 -8 36 -24 -30 -25 -84 -1 -166 -13 -179 -26 -15 -15 43 -31 139 -40 65 -5 74 -9 85 -32 9 -18 22 -27 46 -31 32 -5 34 -8 50 -70 14 -52 16 -88 11 -177 -4 -62 -12 -119 -19 -127 -10 -12 -99 -14 -581 -15 -312 -1 -571 2 -573 6 -3 5 -9 119 -13 255 l-7 247 24 5 c13 3 67 12 119 21 84 14 124 25 91 25 -7 0 -10 4 -7 9 10 16 -18 28 -104 41 -139 21 -126 -1 -134 219 -4 105 -4 196 -1 201 11 17 365 11 575 -9z m-4420 -39 c0 -4 -48 -62 -107 -128 -60 -66 -135 -151 -168 -189 -33 -38 -93 -106 -134 -150 -41 -44 -92 -102 -113 -130 -22 -27 -135 -155 -250 -282 l-209 -233 -55 0 c-53 0 -55 1 -70 35 -8 19 -21 35 -29 35 -8 0 -15 -3 -15 -7 0 -5 -20 -20 -44 -35 -57 -37 -156 -39 -156 -4 0 7 -6 20 -13 30 -13 17 -16 16 -64 -18 -42 -30 -59 -36 -102 -36 -44 0 -53 3 -60 23 -19 49 -36 51 -86 13 -39 -30 -55 -36 -96 -36 -46 0 -51 2 -70 35 -12 19 -24 35 -28 35 -4 0 -28 -15 -52 -34 -31 -25 -56 -35 -84 -36 -64 -3 -69 -1 -87 30 -22 38 -40 38 -88 -1 -22 -18 -54 -33 -79 -36 -37 -5 -43 -3 -73 31 -17 20 -37 36 -44 36 -7 0 -31 -16 -55 -36 l-42 -35 -237 3 c-209 3 -238 5 -254 21 -13 12 -34 17 -77 17 -32 0 -59 3 -59 8 1 17 69 126 110 175 45 54 183 161 289 225 179 108 378 187 849 336 287 91 1123 261 1510 307 48 5 125 16 172 23 100 16 170 19 170 8z m7685 -442 c3 -6 -4 -10 -17 -10 -18 0 -20 2 -8 10 19 12 18 12 25 0z m330 0 c3 -5 -3 -10 -14 -10 -12 0 -21 5 -21 10 0 6 6 10 14 10 8 0 18 -4 21 -10z m-1338 -6 c-3 -3 -12 -4 -19 -1 -8 3 -5 6 6 6 11 1 17 -2 13 -5z m385 -8 c25 -8 82 -18 127 -22 96 -8 108 -24 19 -25 -35 0 -83 -3 -108 -7 -65 -11 -81 -6 -78 26 2 20 -2 27 -22 33 -20 6 -21 7 -5 8 11 0 41 -6 67 -13z m298 10 c0 -9 -30 -14 -35 -6 -4 6 3 10 14 10 12 0 21 -2 21 -4z m495 -23 c73 -5 105 -18 64 -27 -13 -3 -64 -7 -112 -10 -72 -5 -89 -4 -93 9 -12 31 4 48 39 40 17 -4 64 -9 102 -12z m-7006 -70 c11 -43 25 -103 31 -133 6 -30 15 -70 20 -89 5 -19 6 -39 3 -44 -7 -12 -343 -2 -354 10 -10 11 243 332 262 333 13 0 22 -20 38 -77z m5989 65 c112 -13 135 -28 45 -28 -32 0 -88 -3 -125 -7 -63 -5 -68 -4 -68 14 0 38 2 38 148 21z m705 -4 c79 -8 89 -24 15 -24 -29 0 -83 -3 -120 -7 -63 -5 -68 -4 -68 14 0 30 11 35 60 29 25 -3 75 -8 113 -12z m-941 -16 c-9 -9 -15 -9 -24 0 -9 9 -7 12 12 12 19 0 21 -3 12 -12z m2878 -28 c11 -7 6 -10 -20 -10 -26 0 -31 3 -20 10 8 5 17 10 20 10 3 0 12 -5 20 -10z m-630 -108 c0 -9 -81 -52 -98 -52 -7 0 -11 -10 -9 -22 2 -20 -11 -26 -163 -69 -293 -82 -291 -77 15 55 210 91 255 106 255 88z m-3274 -72 c32 -48 44 -74 37 -81 -6 -6 -34 -9 -64 -7 l-54 3 2 63 c3 115 14 118 79 22z m45 -210 l99 0 87 -130 c52 -78 83 -134 77 -139 -13 -13 -433 -36 -445 -24 -6 6 -5 30 0 64 6 29 15 90 22 134 12 85 23 109 46 100 8 -3 59 -5 114 -5z m-4685 -17 c3 -10 14 -34 25 -54 22 -43 24 -77 5 -101 -10 -14 -28 -18 -75 -18 -58 0 -63 2 -79 30 -21 37 -28 37 -72 0 -29 -26 -42 -30 -93 -30 -56 0 -58 1 -68 30 -6 17 -15 30 -20 30 -5 0 -28 -13 -51 -30 -35 -26 -50 -30 -105 -30 -61 0 -63 1 -63 26 0 17 20 51 55 95 l56 69 240 0 c219 0 240 -1 245 -17z m-4018 -185 c-7 -19 -38 -22 -38 -4 0 10 9 16 21 16 12 0 19 -5 17 -12z m6176 -14 c17 -45 30 -44 -825 -44 -801 0 -808 0 -819 20 -6 11 -8 25 -5 30 4 6 301 10 825 10 746 0 818 -1 824 -16z m1933 0 c3 -8 2 -19 -3 -23 -11 -10 -1103 -25 -1127 -15 -9 3 -17 17 -17 30 l0 24 570 0 c509 0 571 -2 577 -16z m-4520 -89 c29 -19 57 -35 63 -35 6 0 18 16 26 35 13 31 18 35 53 35 28 0 54 -10 91 -35 29 -19 56 -35 61 -35 5 0 19 16 30 35 20 33 24 35 74 35 35 0 57 -5 62 -14 4 -7 18 -18 31 -25 15 -8 22 -21 22 -42 0 -18 8 -38 19 -47 11 -10 22 -32 26 -49 8 -41 -6 -48 -125 -57 -182 -15 -712 -81 -885 -111 -44 -8 -83 -11 -87 -7 -9 10 244 331 261 331 8 1 32 -11 53 -25 40 -28 68 -26 68 4 0 54 81 58 157 7z m-3587 15 c0 -5 -5 -10 -11 -10 -5 0 -7 -4 -4 -10 11 -18 126 -12 148 8 17 15 47 17 249 20 l230 3 43 -35 c55 -46 78 -46 99 -1 15 32 21 35 59 35 32 0 55 -9 96 -36 57 -39 82 -38 90 2 5 26 19 34 67 34 30 0 53 -9 90 -35 27 -19 56 -35 65 -35 8 0 23 16 32 35 15 32 20 35 60 35 34 0 55 -8 93 -35 27 -19 55 -35 62 -35 7 0 22 16 33 35 19 31 26 35 63 35 32 0 54 -8 92 -35 27 -19 54 -35 60 -35 7 0 19 16 28 35 16 32 20 35 62 35 34 0 57 -8 99 -36 36 -25 52 -41 47 -49 -10 -19 -618 -702 -667 -750 -22 -22 -67 -56 -100 -75 -122 -71 -280 -251 -325 -370 -25 -63 -60 -106 -106 -129 -36 -19 -43 -25 -33 -37 9 -11 -3 -30 -63 -97 -41 -45 -117 -129 -169 -187 -164 -184 -504 -556 -783 -857 l-271 -293 -50 0 c-116 0 -411 22 -556 40 -501 64 -798 201 -881 407 -20 50 -23 76 -23 179 l0 121 42 84 c23 47 70 121 105 166 223 286 321 395 628 703 179 179 359 361 400 405 102 109 246 242 360 333 253 202 376 316 427 395 18 28 113 59 113 37z m9067 -107 c216 -312 533 -788 533 -799 0 -8 -8 -14 -19 -14 -10 0 -45 -3 -79 -6 -60 -7 -61 -6 -68 20 -7 31 -22 33 -55 8 -17 -14 -48 -21 -109 -25 -90 -6 -102 -3 -113 26 -8 22 -31 22 -65 -2 -20 -15 -48 -20 -107 -23 -78 -3 -80 -3 -93 25 -16 32 -31 34 -64 7 -18 -14 -49 -21 -106 -26 -81 -7 -82 -7 -91 19 -15 38 -24 39 -75 12 -48 -26 -129 -34 -141 -15 -7 11 1 85 50 485 9 72 20 175 26 230 12 124 15 134 42 140 28 6 286 22 393 24 l81 1 60 -87z m-3867 -3 c-30 -5 -165 -16 -300 -24 -135 -9 -262 -19 -282 -22 -30 -5 -38 -2 -48 15 -6 12 -8 26 -5 31 4 6 134 10 348 9 215 -1 321 -4 287 -9z m2890 -57 c0 -37 -4 -105 -10 -152 -5 -47 -16 -176 -25 -286 -9 -110 -21 -212 -26 -226 -15 -40 -58 -59 -136 -60 -37 -1 -81 -5 -98 -9 l-30 -7 28 -11 c16 -7 46 -15 67 -18 59 -10 40 -20 -48 -27 -137 -11 -146 -28 -23 -47 62 -9 84 -17 100 -36 27 -31 54 -30 85 3 16 17 29 24 35 18 10 -11 -6 -200 -18 -225 -7 -13 -53 -15 -320 -15 l-312 0 -80 154 c-43 85 -79 157 -79 162 0 4 19 9 42 11 53 4 65 28 14 28 -20 0 -36 -4 -36 -10 0 -18 -21 -10 -44 16 -20 24 -30 27 -92 28 -118 3 -110 -19 -117 303 -4 153 -7 322 -7 376 l0 97 565 0 565 0 0 -67z m-1909 47 c13 -8 19 -21 19 -48 0 -20 4 -71 10 -112 5 -41 14 -127 20 -190 6 -63 18 -177 27 -254 18 -158 18 -156 -59 -156 l-46 0 -37 -72 c-21 -40 -41 -77 -45 -83 -4 -5 -28 -50 -55 -100 -26 -49 -52 -95 -59 -102 -16 -17 -369 -30 -776 -29 l-334 1 -12 25 c-7 14 -21 66 -33 115 -42 184 -91 391 -100 425 -5 19 -14 55 -20 80 -42 181 -75 322 -87 362 -17 61 -13 63 126 72 58 4 186 13 285 21 281 22 539 36 795 44 359 12 360 12 381 1z m-2018 -128 c3 -4 24 -79 48 -167 23 -88 48 -180 55 -205 7 -25 22 -81 34 -125 11 -44 30 -109 40 -145 49 -163 120 -420 120 -433 0 -24 -126 -37 -147 -16 -9 9 -21 6 -48 -11 -24 -15 -54 -23 -88 -24 -45 -1 -53 2 -62 22 -12 28 -16 28 -62 -3 -30 -21 -47 -25 -88 -23 -43 3 -50 6 -53 26 -4 28 -15 28 -60 -3 -27 -19 -50 -25 -88 -25 -49 0 -53 2 -63 32 l-11 31 -23 -20 c-36 -33 -63 -43 -116 -43 -47 0 -50 2 -56 30 -8 35 -15 37 -39 11 -26 -29 -68 -43 -117 -39 -37 2 -45 7 -47 26 -4 29 -25 28 -66 -3 -26 -20 -45 -25 -89 -25 -52 0 -57 2 -63 25 -8 30 -8 30 -46 3 -61 -43 -158 -42 -158 2 0 26 -12 25 -58 -4 -69 -45 -135 -45 -152 0 -9 22 -40 35 -40 16 0 -15 -86 -52 -119 -52 -25 0 -36 7 -49 30 -21 36 -25 37 -66 5 -57 -43 -146 -46 -146 -5 0 11 53 86 118 167 65 82 155 195 200 253 46 58 162 205 258 326 l174 222 78 11 c337 52 575 83 972 130 103 12 118 12 123 3z m4517 -722 c11 -7 5 -10 -23 -10 -23 0 -36 4 -32 10 8 13 35 13 55 0z m265 0 c16 -7 12 -9 -18 -9 -23 -1 -36 3 -32 9 7 12 23 12 50 0z m273 4 c34 -9 26 -24 -12 -24 -34 0 -52 11 -39 24 8 7 21 8 51 0z m292 -14 c0 -5 -15 -10 -34 -10 -19 0 -38 5 -41 10 -4 6 10 10 34 10 23 0 41 -4 41 -10z m-575 -57 c45 -4 67 -12 87 -30 31 -29 62 -27 66 5 5 32 14 34 115 23 74 -7 91 -12 104 -30 20 -29 55 -24 63 9 6 25 6 25 106 21 88 -3 102 -6 125 -27 34 -32 57 -31 61 4 2 15 9 27 16 27 11 0 212 -288 212 -305 0 -13 -163 -21 -335 -15 -93 3 -354 10 -580 15 -225 5 -457 13 -514 16 l-104 7 6 66 c8 84 17 160 23 187 6 33 32 37 56 9 28 -33 63 -32 85 1 17 26 18 26 102 20 72 -6 88 -11 108 -32 29 -31 48 -30 70 4 23 35 35 43 53 36 8 -3 42 -8 75 -11z m2185 -97 c0 -16 -41 -29 -53 -17 -14 14 2 31 29 31 14 0 24 -6 24 -14z m-2200 -236 c107 -5 378 -13 602 -16 l406 -7 215 -316 c118 -174 270 -395 337 -491 288 -414 412 -602 403 -611 -6 -6 -28 -5 -59 2 -88 19 -186 28 -324 28 -74 0 -292 8 -485 17 -323 16 -351 19 -369 37 -16 16 -28 19 -77 14 -51 -4 -59 -2 -78 18 -59 69 -381 87 -494 28 -27 -13 -63 -14 -321 -4 -451 18 -457 19 -463 24 -3 3 0 36 5 74 6 37 16 120 22 183 6 63 15 158 20 210 5 52 14 151 21 220 6 69 20 206 31 305 11 99 22 203 25 230 8 85 -9 79 201 71 103 -4 275 -11 382 -16z m-3045 -10 c3 -6 -3 -24 -15 -40 l-21 -30 -475 0 -474 0 -12 24 c-26 58 -44 56 496 56 321 0 497 -4 501 -10z m1023 -3 c6 -6 13 -24 17 -40 l7 -27 -271 0 c-255 0 -271 1 -271 18 0 10 9 28 20 40 20 21 27 22 254 22 175 0 236 -3 244 -13z m1077 -27 l0 -35 -260 -3 c-255 -2 -260 -2 -277 19 -10 12 -18 30 -18 40 0 19 10 19 278 17 l277 -3 0 -35z m-5591 -74 c19 -14 38 -26 43 -26 4 0 16 14 25 30 14 25 24 30 53 30 39 0 83 -19 104 -44 18 -22 51 -20 51 2 0 51 74 57 141 12 51 -34 69 -37 69 -12 0 51 83 58 144 12 49 -37 64 -38 68 -2 3 25 7 27 52 30 42 3 56 -1 92 -27 53 -38 60 -38 68 -1 5 28 8 30 55 30 49 0 105 -29 89 -46 -4 -4 -72 -21 -150 -39 -511 -116 -1030 -313 -1298 -493 -208 -140 -322 -257 -397 -410 -27 -54 -48 -82 -75 -100 -21 -13 -38 -26 -38 -29 0 -2 11 -8 25 -13 14 -5 25 -17 25 -27 0 -23 -77 -178 -97 -195 -15 -12 -358 -41 -375 -31 -4 2 11 28 35 57 23 29 195 244 381 477 187 233 409 513 495 621 86 108 161 199 168 202 6 3 23 -4 36 -15 33 -25 54 -24 63 4 4 12 12 26 18 30 21 15 95 0 130 -27z m1216 25 c0 -11 -35 -21 -72 -21 -27 0 -35 9 -21 23 10 10 93 8 93 -2z m456 -16 c41 -31 62 -32 66 -2 3 19 10 22 53 25 43 2 58 -2 95 -27 56 -38 65 -38 79 -1 9 28 13 30 60 30 28 0 51 -4 51 -8 0 -5 11 -14 25 -20 18 -8 25 -19 25 -38 0 -15 6 -35 14 -43 7 -9 37 -104 66 -211 29 -107 60 -222 70 -255 21 -70 105 -338 127 -408 19 -59 8 -77 -47 -77 -51 0 -70 8 -70 31 0 26 -16 24 -52 -6 -23 -19 -41 -25 -79 -25 -36 0 -49 4 -49 14 0 26 -19 28 -54 7 -21 -13 -50 -21 -80 -21 -41 0 -48 3 -56 26 l-10 25 -33 -25 c-44 -34 -126 -37 -134 -6 -7 25 -18 25 -51 1 -53 -36 -132 -37 -132 -2 0 30 -11 31 -45 5 -56 -42 -145 -41 -145 1 0 21 -14 19 -56 -10 -53 -36 -124 -33 -124 6 0 25 -12 24 -56 -6 -54 -37 -134 -33 -134 6 0 10 -7 19 -15 19 -8 0 -15 -3 -15 -7 0 -16 -63 -43 -101 -43 -33 0 -41 4 -49 25 -5 14 -12 25 -14 25 -3 0 -22 -11 -42 -25 -25 -17 -50 -25 -80 -25 -38 0 -44 3 -50 25 -8 31 -12 31 -54 0 -25 -19 -46 -25 -82 -25 -43 0 -50 3 -58 25 -5 14 -11 25 -13 25 -2 0 -18 -11 -37 -25 -25 -19 -46 -25 -82 -25 -43 0 -50 3 -58 25 -12 30 -21 31 -45 5 -40 -44 -145 -51 -145 -10 0 31 -13 30 -60 -1 -54 -37 -108 -37 -126 -1 -17 34 -18 34 -59 2 l-38 -30 -182 0 c-150 0 -185 3 -195 15 -17 20 -37 19 -67 -5 -34 -27 -63 -26 -63 1 0 35 70 165 125 232 242 293 876 575 1718 762 127 29 162 33 179 24 17 -9 24 -8 33 5 7 8 36 21 65 27 46 10 55 9 79 -8 49 -36 51 -36 62 -4 10 29 14 31 62 31 38 0 58 -6 83 -25z m1712 -89 c8 -5 10 -12 4 -19 -5 -7 -28 -48 -52 -92 -23 -44 -62 -114 -85 -155 -23 -41 -58 -104 -77 -140 -87 -162 -213 -388 -230 -412 -18 -27 -23 -28 -101 -28 -45 0 -87 4 -93 8 -18 12 -66 179 -143 497 -23 94 -50 204 -61 246 -11 41 -20 81 -20 87 0 14 121 17 550 16 163 0 301 -4 308 -8z m1200 5 c7 -1 24 -27 38 -58 15 -32 40 -87 56 -123 211 -457 299 -656 291 -664 -4 -3 -334 -6 -735 -6 -640 0 -728 2 -728 15 0 14 239 491 366 732 46 87 58 102 82 105 22 3 590 2 630 -1z m990 1 c9 -7 10 -48 2 -198 -14 -272 -29 -491 -36 -551 -12 -101 -3 -116 -310 515 -57 116 -104 216 -104 221 0 5 6 12 13 14 20 9 421 7 435 -1z m-551 -955 c6 -7 15 -24 18 -39 l7 -28 -816 0 c-563 0 -816 3 -816 10 0 22 30 69 47 74 10 3 362 2 783 -1 557 -3 768 -8 777 -16z m-2007 -2 c0 -6 -76 -45 -87 -45 -12 0 61 49 75 50 6 0 12 -2 12 -5z m-1144 -84 c33 -26 54 -27 54 -2 0 39 71 42 124 6 20 -14 40 -25 45 -25 4 0 13 11 19 25 9 19 19 25 45 25 20 0 50 -11 71 -25 44 -30 56 -31 56 -6 0 23 19 31 70 31 47 0 100 -40 100 -76 0 -13 5 -24 10 -24 6 0 19 -19 29 -42 l18 -43 401 -2 401 -1 23 41 23 42 867 3 867 2 21 -45 20 -45 188 -2 c170 -3 187 -5 190 -21 3 -17 -28 -18 -682 -17 -377 1 -688 5 -691 10 -6 10 19 20 51 20 23 0 25 3 22 38 -2 20 -6 36 -10 35 -5 -2 -84 -3 -178 -3 l-170 0 0 -34 c0 -28 4 -35 25 -40 15 -4 23 -11 19 -17 -8 -13 -1964 -2 -1977 11 -5 4 14 11 42 15 50 7 51 8 51 41 l0 34 -174 0 c-100 0 -177 -4 -181 -10 -9 -15 6 -60 21 -60 8 0 14 -7 14 -15 0 -14 -76 -15 -675 -13 -661 3 -674 3 -689 23 -23 29 -15 48 22 59 40 11 40 17 2 39 -20 12 -30 26 -30 41 0 35 25 39 60 10 33 -29 60 -26 60 5 0 42 81 39 133 -5 34 -29 49 -27 57 7 9 36 64 38 113 4 47 -32 63 -32 71 0 6 22 12 25 48 25 29 0 51 -8 75 -26 37 -28 63 -26 63 6 0 31 79 28 128 -5 45 -31 50 -31 54 -2 2 18 10 23 47 25 31 2 52 -2 70 -15 47 -35 50 -35 63 -9 10 23 17 26 59 26 36 0 55 -6 77 -25 37 -31 50 -31 54 -2 3 19 10 22 51 25 35 2 55 -2 76 -17 37 -26 61 -27 61 -2 0 11 6 22 13 25 24 11 87 -2 113 -23z m-2546 -6 c16 -19 40 -19 76 0 22 11 68 15 200 15 156 0 172 -2 188 -19 18 -19 17 -20 -26 -23 l-43 -3 -5 -54 c-5 -54 -30 -86 -30 -39 l-1 23 -19 -23 c-25 -30 -87 -29 -82 2 3 17 -1 16 -35 -10 -33 -25 -45 -29 -93 -26 -30 1 -100 2 -155 2 -55 0 -106 4 -113 8 -10 7 -5 24 19 75 17 37 38 71 47 77 25 14 58 12 72 -5z m665 -5 c18 -20 17 -20 -53 -20 -40 0 -72 4 -72 8 0 36 95 45 125 12z m190 0 c18 -20 17 -20 -47 -20 -69 0 -80 4 -71 26 9 23 96 18 118 -6z m130 -14 c0 -24 -6 -32 -31 -42 -45 -19 -57 -6 -36 39 14 30 22 37 42 35 20 -3 25 -8 25 -32z m-41 -82 c23 -9 20 -41 -5 -55 -28 -14 -44 1 -35 35 7 27 13 30 40 20z m5981 -3 c31 -7 15 -9 -72 -10 -70 -1 -113 3 -113 9 0 12 128 12 185 1z m-4405 -71 c0 -5 -15 -10 -34 -10 -19 0 -38 5 -41 10 -4 6 10 10 34 10 23 0 41 -4 41 -10z m-2495 -10 c-3 -5 -15 -10 -26 -10 -11 0 -17 5 -14 10 3 6 15 10 26 10 11 0 17 -4 14 -10z m4710 0 c-3 -5 -21 -10 -40 -10 -19 0 -37 5 -40 10 -4 6 12 10 40 10 28 0 44 -4 40 -10z m3495 -10 c18 -6 5 -8 -45 -9 -38 0 -77 4 -85 9 -19 12 92 12 130 0z m-67 -66 c11 -12 -17 -55 -40 -60 -28 -7 -149 0 -313 18 -105 12 -112 14 -85 25 17 7 41 14 55 16 41 7 376 8 383 1z m627 -24 c0 -5 -2 -10 -4 -10 -3 0 -8 5 -11 10 -3 6 -1 10 4 10 6 0 11 -4 11 -10z m410 0 c0 -5 -20 -10 -45 -10 -25 0 -45 5 -45 10 0 6 20 10 45 10 25 0 45 -4 45 -10z m-6858 -18 c-1 -7 2 -22 8 -32 9 -16 21 -20 68 -20 61 0 77 -6 77 -29 0 -22 24 -25 32 -4 10 29 23 33 101 33 75 0 80 3 86 47 3 17 18 18 215 21 244 3 232 8 212 -92 -33 -160 -103 -436 -122 -476 -12 -25 -77 -145 -146 -267 l-125 -223 -521 0 c-287 0 -527 4 -533 8 -20 13 -48 76 -35 80 19 6 12 21 -17 36 -32 17 -52 54 -52 97 0 23 -7 34 -29 47 -16 9 -37 32 -46 51 l-16 34 38 39 38 39 -30 25 c-20 17 -26 27 -17 30 36 16 -11 46 -83 54 -37 4 -51 10 -53 23 -3 14 4 17 37 17 23 0 41 5 41 10 0 6 -12 10 -27 10 -44 0 -51 11 -50 69 l2 54 -45 12 c-25 6 -56 18 -70 25 -34 18 -134 16 -165 -4 -15 -10 -46 -16 -83 -16 -49 0 -62 4 -82 25 -13 14 -29 25 -36 25 -7 0 -22 13 -33 29 -22 31 -17 42 27 55 28 9 28 24 0 28 -13 2 -24 11 -26 20 -3 18 -3 18 88 35 49 9 65 35 34 57 -16 12 -15 14 7 29 22 16 81 17 679 15 529 -3 654 -5 652 -16z m2187 -11 c18 -18 35 -20 186 -20 157 0 167 1 172 19 5 20 18 20 495 20 l489 0 30 -66 c17 -36 28 -71 26 -77 -2 -6 -80 -23 -173 -39 l-169 -27 -698 0 -699 -1 -156 26 c-87 14 -161 30 -166 34 -4 5 7 37 25 72 l34 63 255 5 c140 3 272 7 293 8 25 1 43 -4 56 -17z m-4909 -7 c9 -9 -91 -147 -232 -320 -97 -119 -193 -240 -210 -265 -31 -47 -29 -9 6 138 20 81 50 207 66 278 17 72 36 143 42 159 l11 28 154 -4 c84 -2 157 -8 163 -14z m164 -39 l27 -25 237 -1 c130 -1 250 -4 267 -8 l29 -6 -27 -18 c-15 -9 -27 -25 -27 -35 0 -10 -7 -27 -15 -38 -19 -25 -19 -78 0 -94 19 -16 4 -30 -32 -30 -39 0 -73 -22 -73 -46 0 -13 -4 -25 -10 -29 -5 -3 -7 -12 -4 -19 3 -8 1 -17 -5 -21 -6 -3 -11 -15 -11 -26 0 -10 -5 -19 -11 -19 -6 0 -9 -9 -6 -20 3 -10 -2 -25 -9 -31 -8 -7 -13 -18 -10 -25 3 -7 -2 -18 -9 -24 -8 -7 -12 -16 -10 -21 3 -4 1 -17 -5 -29 -5 -11 -14 -29 -20 -40 -5 -10 -7 -26 -4 -33 3 -8 -2 -17 -11 -21 -11 -4 -14 -13 -10 -25 3 -12 0 -21 -10 -25 -11 -4 -14 -13 -10 -25 3 -11 1 -22 -5 -26 -6 -4 -9 -13 -6 -20 3 -8 -2 -19 -10 -26 -8 -7 -12 -20 -9 -30 4 -11 1 -19 -5 -19 -7 0 -10 -8 -7 -20 3 -10 -1 -25 -9 -31 -8 -6 -13 -17 -12 -23 1 -6 -4 -21 -12 -33 l-15 -23 -436 0 c-239 0 -438 2 -441 5 -5 6 35 186 51 226 5 13 64 83 131 154 106 113 188 216 438 553 31 42 61 72 71 72 10 0 30 -11 45 -25z m7279 -2 c4 -4 -6 -12 -23 -19 -37 -16 -38 -28 -4 -51 l26 -17 -23 -17 c-33 -25 -36 -106 -4 -153 l23 -34 -39 -15 c-36 -14 -38 -17 -35 -53 2 -22 5 -39 6 -39 1 0 3 -19 4 -42 1 -23 5 -45 8 -49 14 -13 -17 -55 -44 -61 -33 -7 -34 -8 -7 -62 29 -60 23 -75 -29 -79 -23 -2 -42 -7 -42 -12 0 -13 22 -18 57 -12 33 5 83 -18 83 -38 0 -5 -17 -12 -37 -16 -21 -3 -48 -12 -60 -20 -12 -8 -24 -14 -27 -14 -2 0 -72 134 -154 298 -135 268 -159 326 -208 495 -5 16 12 17 259 17 145 0 267 -3 270 -7z m1634 -29 c3 -8 16 -20 29 -25 30 -11 31 -25 3 -32 -17 -5 -20 -11 -15 -29 3 -13 6 -38 6 -56 0 -25 9 -43 35 -69 19 -19 35 -36 35 -38 0 -1 -15 -6 -32 -9 -60 -11 -60 -13 -39 -116 11 -52 18 -98 15 -101 -2 -4 2 -12 9 -18 8 -6 12 -27 11 -51 -1 -22 2 -43 7 -46 6 -3 7 -14 4 -24 -3 -10 -1 -21 5 -25 6 -4 8 -15 5 -25 -3 -10 -1 -21 5 -25 6 -4 8 -15 5 -25 -3 -10 -1 -21 5 -25 6 -4 8 -15 5 -25 -3 -10 -1 -21 5 -25 6 -4 8 -15 5 -25 -3 -10 -1 -21 5 -25 6 -4 8 -15 5 -25 -3 -10 -1 -21 4 -24 6 -4 8 -13 4 -21 -3 -9 0 -22 7 -30 10 -12 9 -16 -5 -21 -9 -4 -239 -5 -511 -2 -488 5 -496 5 -516 26 -21 21 -21 22 -5 81 9 34 17 81 17 106 0 38 -3 45 -20 45 -14 0 -21 -9 -26 -35 -8 -45 -32 -47 -32 -2 0 47 -8 102 -16 116 -4 6 -4 16 -1 21 3 6 3 16 -2 23 -4 6 -9 30 -10 51 -2 21 -8 45 -13 52 -8 8 -8 14 0 19 8 5 8 11 0 20 -7 8 -9 19 -5 25 3 5 3 15 -1 22 -4 7 -8 32 -8 57 -1 46 -1 46 -46 60 -57 18 -57 17 -35 40 13 15 16 29 11 58 -4 21 -8 48 -10 60 -1 12 -8 28 -15 36 -9 12 -5 19 26 38 34 21 47 23 128 19 50 -3 179 -5 287 -5 187 0 198 1 225 22 27 21 38 22 236 22 180 1 208 -1 214 -15z m636 -31 c13 -15 53 -136 70 -210 6 -26 -4 -28 -54 -12 -19 6 -40 13 -47 15 -9 2 -7 9 8 24 24 24 26 58 5 86 -8 10 -15 29 -15 41 0 15 -11 28 -31 39 -25 12 -29 18 -18 25 23 14 65 10 82 -8z m-8461 -284 c-3 -24 -20 -41 -35 -32 -4 2 -3 11 3 18 6 7 10 17 9 21 -3 18 1 26 14 21 6 -2 11 -15 9 -28z m8568 -39 c0 -5 -7 -10 -15 -10 -8 0 -15 5 -15 10 0 6 7 10 15 10 8 0 15 -4 15 -10z m-8570 -61 c0 -36 3 -42 30 -52 36 -14 37 -19 5 -123 -28 -92 -29 -93 -118 -92 -46 0 -56 2 -47 13 6 7 8 20 4 29 -3 9 -1 16 5 16 6 0 11 11 11 25 0 14 5 25 11 25 6 0 9 9 6 20 -3 10 1 24 9 31 8 6 11 15 8 21 -3 5 0 15 6 23 6 8 9 19 6 24 -4 6 -2 18 3 28 5 10 12 26 15 36 3 9 15 17 26 17 17 0 20 -6 20 -41z m4779 17 c109 -17 328 -45 414 -53 48 -5 61 -10 77 -33 11 -16 20 -30 20 -33 0 -3 18 -43 39 -89 98 -210 114 -246 132 -286 11 -24 19 -48 19 -53 0 -10 -2923 -13 -2933 -3 -5 6 225 469 241 486 4 4 127 23 272 41 l265 34 679 2 c547 1 697 -2 775 -13z m3801 -7 c0 -5 -7 -9 -15 -9 -15 0 -20 12 -9 23 8 8 24 -1 24 -14z m38 -126 c17 -54 42 -138 57 -188 14 -49 31 -105 36 -122 6 -18 8 -37 4 -43 -11 -17 -35 -11 -35 9 0 11 -5 23 -11 26 -6 4 -8 13 -5 20 2 7 0 17 -6 23 -6 6 -12 29 -14 52 -2 23 -7 47 -11 54 -4 6 -6 19 -5 29 2 9 -2 17 -9 17 -6 0 -9 8 -6 20 3 11 1 23 -5 26 -5 3 -7 12 -4 20 3 8 2 22 -3 32 -16 30 -24 56 -22 74 1 9 -3 19 -9 23 -11 7 -4 25 10 25 5 0 22 -44 38 -97z m-8225 -74 c19 -9 107 -143 107 -164 0 -12 -31 -4 -36 9 -3 8 -35 22 -72 32 -37 9 -71 21 -76 25 -7 6 -4 23 19 97 5 15 26 15 58 1z m-496 -105 c-3 -3 -12 -4 -19 -1 -8 3 -5 6 6 6 11 1 17 -2 13 -5z m1308 -344 c-3 -5 -13 -10 -21 -10 -8 0 -14 5 -14 10 0 6 9 10 21 10 11 0 17 -4 14 -10z m5928 -7 c-7 -2 -19 -2 -25 0 -7 3 -2 5 12 5 14 0 19 -2 13 -5z m-8258 -574 c-14 -18 -29 -45 -32 -60 -4 -19 -12 -29 -24 -29 -37 0 -67 -23 -90 -71 -23 -47 -41 -60 -54 -39 -11 17 -71 11 -98 -10 -32 -25 -32 -25 -283 5 -115 14 -233 28 -262 32 -30 3 -56 12 -59 19 -5 14 24 135 36 147 21 21 234 35 554 36 l339 1 -27 -31z m855 24 c0 -5 -20 -73 -43 -153 l-42 -145 -34 -3 c-18 -2 -40 -1 -49 3 -16 6 -15 8 1 20 12 8 14 15 8 20 -6 3 -11 20 -11 37 0 17 -11 45 -23 62 -21 27 -23 39 -19 93 4 53 7 62 26 66 38 8 186 7 186 0z m1256 -31 c11 -20 48 -86 82 -147 34 -60 62 -113 62 -117 0 -5 -123 -8 -274 -8 -252 0 -308 5 -276 25 6 4 8 15 5 26 -4 11 -2 19 5 19 7 0 9 8 5 19 -3 11 -1 22 5 26 6 4 8 15 5 26 -4 10 -2 19 3 19 6 0 9 18 8 40 -1 25 3 41 11 45 10 3 11 10 5 22 -21 36 5 42 173 43 l160 0 21 -38z m499 -24 c-20 -35 -57 -102 -83 -150 -26 -48 -52 -88 -58 -88 -14 0 -26 43 -18 64 4 10 -2 19 -18 26 -18 9 -95 131 -126 202 -2 5 73 8 167 8 l171 0 -35 -62z m4292 54 c20 -13 76 -143 78 -182 1 -20 5 -41 8 -47 4 -6 4 -18 1 -26 -3 -8 0 -18 6 -22 8 -5 8 -11 -1 -21 -10 -12 -245 -14 -1688 -12 -1841 2 -2121 4 -2121 20 0 6 34 75 76 154 l76 144 1776 0 c977 0 1782 -4 1789 -8z m1528 -22 c3 -11 3 -25 0 -30 -4 -6 -1 -17 5 -25 6 -8 9 -19 6 -24 -4 -5 -2 -13 4 -16 6 -4 8 -15 5 -26 -4 -11 -2 -19 5 -19 7 0 9 -8 5 -19 -3 -11 -2 -22 4 -25 5 -3 7 -15 4 -26 -3 -12 0 -20 7 -20 7 0 9 -8 5 -19 -3 -11 -1 -23 6 -26 22 -14 -15 -25 -88 -25 -54 0 -73 3 -73 13 0 7 -14 28 -31 45 -33 34 -65 40 -100 20 -18 -11 -23 -10 -37 12 -10 14 -27 36 -40 48 -13 13 -21 31 -19 40 4 20 -16 63 -37 81 -14 12 -10 16 27 36 38 20 57 22 189 24 138 1 147 0 153 -19z m823 8 c38 -12 38 -13 39 -62 0 -28 3 -63 8 -78 6 -21 4 -28 -7 -28 -8 0 -34 -23 -58 -51 -43 -51 -89 -79 -132 -79 -21 0 -21 1 -3 13 19 15 13 37 -11 37 -8 0 -14 9 -14 20 0 11 -5 20 -11 20 -6 0 -8 8 -4 19 3 11 2 22 -4 25 -5 3 -7 15 -4 26 3 11 1 20 -3 20 -5 0 -9 17 -9 38 0 20 -3 42 -7 48 -5 6 -6 19 -2 28 5 13 22 16 95 16 49 0 106 -5 127 -12z m839 -82 c2 -2 15 -35 28 -72 23 -64 23 -70 8 -81 -9 -7 -32 -13 -50 -13 -19 0 -52 -10 -73 -22 l-39 -23 -28 27 c-15 15 -25 29 -22 30 2 2 18 10 34 19 17 9 28 22 26 30 -2 8 -6 38 -9 68 l-5 54 63 -6 c35 -4 65 -9 67 -11z m-2120 -202 c44 -12 13 -20 -69 -18 -104 3 -98 2 -98 14 0 11 130 14 167 4z m3132 -331 c44 -67 77 -124 73 -127 -4 -2 -63 8 -132 24 -69 15 -136 30 -150 32 -14 1 -25 9 -25 15 0 17 135 185 145 181 4 -2 44 -58 89 -125z m-5169 -48 c234 -3 502 -6 595 -7 94 -1 154 -3 135 -5 -19 -2 -80 -10 -135 -18 -95 -14 -253 -34 -720 -90 -909 -109 -840 -103 -1017 -80 -62 8 -261 33 -443 55 -181 22 -402 49 -490 60 -360 44 -574 70 -635 76 -36 4 -72 11 -80 15 -14 9 1873 4 2790 -6z m4017 -18 c1 -1 -55 -81 -123 -177 -69 -96 -177 -249 -240 -340 -63 -91 -123 -176 -133 -189 l-19 -25 -108 11 c-77 8 -114 17 -133 31 -35 26 -33 44 6 54 l31 8 -5 63 c-3 38 -12 72 -24 89 -20 29 -19 32 24 42 30 7 36 23 12 32 -12 5 -13 10 -4 20 9 11 9 17 0 28 -6 7 -9 20 -5 29 3 8 1 17 -3 20 -5 3 -8 24 -7 47 1 28 -3 43 -12 47 -12 4 -12 8 -2 20 10 12 9 17 -6 25 -13 7 -14 13 -6 23 8 10 7 16 -6 23 -15 9 -16 13 -5 26 11 13 11 17 -3 22 -12 5 -14 10 -6 19 7 9 6 16 -5 25 -12 10 -13 16 -4 26 9 11 79 13 398 8 212 -3 387 -6 388 -7z m-9892 -19 c49 -12 115 -65 115 -92 0 -18 -70 -199 -87 -226 -40 -62 -103 -99 -179 -107 l-53 -6 -68 66 c-37 36 -90 85 -117 109 l-48 45 7 74 c4 46 3 85 -4 102 -6 16 -9 32 -6 37 8 14 383 11 440 -2z m8015 -17 c0 -29 39 -80 62 -82 7 0 -8 -7 -34 -15 -47 -14 -58 -26 -38 -39 6 -4 8 -10 6 -14 -3 -4 1 -32 9 -62 8 -30 15 -55 15 -56 0 -2 -6 -3 -13 -3 -12 0 -142 251 -142 274 0 9 39 17 118 24 12 2 17 -5 17 -27z m-7426 -8 c-18 -73 -21 -78 -40 -78 -14 0 -19 7 -19 27 -1 16 -6 33 -13 40 -25 25 -13 38 33 38 44 0 45 -1 39 -27z m1216 3 c0 -15 11 -32 27 -44 l28 -20 -30 -7 c-17 -3 -40 -8 -53 -11 -18 -4 -22 -9 -17 -24 4 -12 2 -20 -5 -20 -7 0 -9 -7 -6 -17 4 -9 1 -20 -6 -25 -10 -6 -10 -10 1 -17 11 -7 10 -11 -5 -20 -15 -8 -16 -12 -5 -20 10 -6 10 -10 1 -16 -6 -4 -9 -13 -6 -21 3 -7 1 -16 -5 -20 -6 -3 -8 -12 -5 -19 2 -7 -1 -18 -7 -24 -9 -9 -9 -14 1 -20 11 -6 10 -10 -3 -15 -14 -5 -15 -9 -5 -21 9 -11 10 -15 1 -15 -7 0 -11 -8 -9 -17 1 -10 -1 -24 -6 -32 -5 -8 -4 -16 4 -21 8 -5 7 -9 -6 -14 -12 -5 -14 -10 -7 -17 8 -8 5 -17 -9 -31 -14 -14 -43 -22 -110 -30 l-91 -11 -27 33 c-23 28 -26 40 -22 81 4 39 1 50 -12 55 -27 10 -18 21 23 28 44 7 61 23 40 37 -11 7 -10 11 6 23 19 14 19 15 2 21 -17 7 -17 8 0 20 14 10 15 16 5 28 -10 12 -9 16 3 21 11 4 14 13 10 26 -4 12 -2 20 5 20 7 0 9 8 5 19 -3 11 -1 22 5 26 6 4 8 15 5 25 -3 10 -1 21 5 25 6 4 8 15 5 26 -4 11 -2 19 5 19 6 0 10 8 8 18 -3 14 4 17 43 14 32 -2 49 1 58 12 10 12 32 16 87 16 72 0 74 -1 74 -24z m9145 -52 c201 -46 229 -54 241 -66 6 -7 72 -103 146 -213 73 -110 169 -251 211 -312 190 -278 227 -334 227 -343 0 -11 -1209 -12 -1625 -1 l-239 6 209 234 c305 340 418 472 604 703 28 35 39 34 226 -8z m-7908 1 c65 -8 255 -31 423 -50 168 -20 415 -49 550 -65 135 -16 278 -32 318 -36 39 -3 72 -11 72 -15 0 -5 -8 -9 -17 -9 -10 0 -74 -7 -143 -15 -127 -15 -348 -41 -630 -75 -85 -10 -276 -32 -423 -50 -157 -19 -273 -28 -278 -23 -5 5 -31 58 -58 118 l-49 110 30 55 c16 30 32 58 35 63 6 10 36 9 170 -8z m-2648 -130 l114 -114 -48 -168 c-27 -92 -54 -173 -62 -179 -9 -8 -50 -10 -126 -7 -93 5 -116 9 -134 25 -27 25 -43 16 -43 -23 0 -16 -5 -29 -11 -29 -6 0 -56 44 -110 97 -55 54 -106 101 -114 106 -32 18 -15 34 41 40 122 13 219 90 281 225 61 135 65 142 82 142 9 0 68 -52 130 -115z m541 101 c0 -3 -4 -8 -10 -11 -5 -3 -10 -1 -10 4 0 6 5 11 10 11 6 0 10 -2 10 -4z m5845 -35 c-29 -6 -30 -9 -31 -59 0 -28 3 -52 9 -52 5 0 4 -6 -2 -14 -9 -10 -9 -16 -1 -21 8 -5 8 -10 0 -20 -7 -8 -7 -15 -1 -19 5 -3 7 -15 4 -26 -3 -13 0 -20 8 -20 7 0 3 -7 -9 -16 -25 -18 -8 -18 -297 16 -88 10 -259 31 -380 45 -317 37 -458 55 -462 58 -3 3 110 17 587 72 124 15 290 35 370 45 145 18 269 25 205 11z m-5860 -21 c-3 -5 -10 -10 -16 -10 -5 0 -9 5 -9 10 0 6 7 10 16 10 8 0 12 -4 9 -10z m-5 -39 c0 -12 -20 -25 -27 -18 -7 7 6 27 18 27 5 0 9 -4 9 -9z m-10 -52 c0 -5 -7 -9 -15 -9 -8 0 -15 7 -15 15 0 9 6 12 15 9 8 -4 15 -10 15 -15z m-15 -49 c-3 -5 -13 -10 -21 -10 -8 0 -14 5 -14 10 0 6 9 10 21 10 11 0 17 -4 14 -10z m4473 -49 c136 -16 407 -48 602 -71 718 -83 783 -91 803 -102 15 -8 17 -12 6 -18 -10 -7 -10 -11 0 -23 9 -12 9 -17 0 -23 -9 -5 -8 -10 5 -19 15 -12 15 -13 -1 -20 -17 -6 -17 -7 1 -21 11 -8 14 -14 8 -14 -7 0 -12 -7 -12 -15 0 -8 5 -15 12 -15 8 0 9 -3 2 -10 -7 -7 -233 -9 -660 -8 l-649 3 -3 138 c-3 137 -3 137 20 137 13 0 30 5 38 10 10 6 -36 9 -140 9 -137 0 -151 -2 -120 -13 l35 -13 3 -128 c1 -71 -1 -132 -5 -136 -4 -4 -516 -4 -1138 0 l-1130 6 -28 59 c-15 32 -26 61 -23 63 5 5 124 20 456 58 74 9 209 24 300 35 141 17 423 49 1085 125 72 9 159 19 195 24 36 5 71 9 78 10 6 0 123 -12 260 -28z m-4485 12 c4 -3 -1 -12 -11 -19 -15 -12 -15 -15 -2 -24 8 -5 24 -10 36 -10 32 0 36 -11 10 -31 -48 -38 -80 -15 -70 50 6 37 21 51 37 34z m1858 -70 c11 -29 0 -43 -33 -43 -21 0 -22 8 -8 44 12 33 28 33 41 -1z m5877 -19 c21 -6 22 -8 6 -25 -16 -17 -16 -24 -2 -104 4 -23 -26 -32 -48 -14 -10 8 -11 15 -4 24 8 9 8 15 0 20 -6 4 -9 13 -6 21 3 7 1 16 -5 20 -7 4 -6 10 1 19 8 9 8 15 0 20 -6 3 -8 11 -5 16 7 10 30 11 63 3z m-5768 -208 c11 -25 20 -50 20 -55 0 -7 -53 -11 -155 -11 -169 0 -170 0 -137 55 17 27 26 31 98 41 147 21 151 20 174 -30z m4648 -38 c31 -31 14 -38 -87 -38 -119 0 -135 4 -118 31 10 16 24 19 102 19 58 0 95 -4 103 -12z m6135 -264 c117 -76 177 -122 177 -135 0 -5 -31 -9 -69 -9 -51 0 -74 4 -89 17 -21 19 -142 178 -142 187 0 15 28 1 123 -60z m-6975 -90 c13 -9 43 -22 66 -29 38 -12 33 -13 -69 -9 -60 2 -137 4 -170 4 l-60 1 60 30 c49 25 68 29 104 25 25 -4 56 -13 69 -22z m138 11 l29 -15 -51 0 c-29 0 -58 6 -70 15 -18 13 -16 14 22 15 23 0 55 -7 70 -15z"/>
    <path d="M11563 7244 c-28 -12 -11 -24 32 -24 25 0 45 5 45 10 0 6 -6 10 -12 10 -7 0 -22 2 -33 5 -11 2 -26 2 -32 -1z"/>
    <path d="M11113 7206 c-9 -11 -7 -15 10 -20 36 -10 64 -7 76 8 9 11 8 15 -5 20 -27 10 -68 6 -81 -8z"/>
    <path d="M11270 7195 c0 -8 2 -15 5 -15 3 0 58 -14 122 -30 122 -32 171 -35 183 -10 4 8 12 26 19 38 13 26 9 38 -9 27 -18 -11 -159 -15 -165 -4 -4 5 -40 9 -81 9 -59 0 -74 -3 -74 -15z"/>
    <path d="M11490 5519 c-19 -5 -76 -10 -127 -12 -84 -2 -115 -9 -101 -22 9 -9 181 -55 206 -55 14 0 37 14 56 33 18 18 40 36 50 40 9 4 14 11 11 17 -7 12 -47 11 -95 -1z"/>
    <path d="M5945 3750 c3 -5 11 -10 16 -10 6 0 7 5 4 10 -3 6 -11 10 -16 10 -6 0 -7 -4 -4 -10z"/>
    <path d="M5890 3719 c0 -5 5 -7 10 -4 6 3 10 8 10 11 0 2 -4 4 -10 4 -5 0 -10 -5 -10 -11z"/>
    <path d="M10430 11109 c0 -6 -15 -9 -34 -8 -19 2 -38 0 -42 -4 -4 -4 -2 -7 4 -7 7 0 12 -6 12 -14 0 -14 49 -36 81 -36 28 0 35 38 10 61 -23 22 -31 24 -31 8z"/>
    <path d="M10415 11010 c18 -8 18 -9 2 -9 -10 -1 -16 -5 -13 -10 9 -14 43 -2 43 15 0 9 -10 14 -26 13 -24 0 -24 -1 -6 -9z"/>
    <path d="M10360 10961 c-24 -7 -24 -7 -5 -15 35 -16 43 -15 38 5 -3 10 -6 19 -7 18 0 -1 -12 -4 -26 -8z"/>
    <path d="M10400 10958 c0 -12 42 -26 58 -21 23 9 12 21 -23 25 -19 2 -35 0 -35 -4z"/>
    <path d="M10107 10953 c-11 -11 -8 -31 6 -36 8 -3 14 4 15 19 2 23 -8 31 -21 17z"/>
    <path d="M10287 10953 c-3 -5 -2 -16 2 -25 5 -15 8 -13 18 7 9 20 8 25 -2 25 -8 0 -16 -3 -18 -7z"/>
    <path d="M10413 10915 c0 -18 19 -15 25 3 2 7 -3 12 -10 12 -8 0 -15 -7 -15 -15z"/>
    <path d="M10150 10905 c0 -19 11 -19 36 0 18 14 18 14 -8 15 -18 0 -28 -5 -28 -15z"/>
    <path d="M10340 10890 c20 -13 33 -13 25 0 -3 6 -14 10 -23 10 -15 0 -15 -2 -2 -10z"/>
    <path d="M10492 10868 c-16 -16 -15 -45 2 -51 18 -7 26 1 26 29 0 28 -13 37 -28 22z"/>
    <path d="M10409 10782 c9 -17 6 -23 -15 -37 -14 -9 -37 -15 -51 -13 -15 2 -28 -2 -30 -9 -5 -15 54 -44 100 -49 33 -3 39 0 48 23 6 17 6 30 0 36 -5 5 -7 15 -4 23 3 7 -9 19 -27 29 -30 16 -31 16 -21 -3z"/>
    <path d="M10495 10781 c-3 -5 -1 -12 5 -16 5 -3 10 1 10 9 0 18 -6 21 -15 7z"/>
    <path d="M10220 10750 c0 -12 28 -25 36 -17 3 3 -4 10 -15 17 -15 7 -21 7 -21 0z"/>
    <path d="M10480 10728 c0 -36 11 -68 21 -62 5 3 9 23 9 45 0 28 -4 39 -15 39 -9 0 -15 -9 -15 -22z"/>
    <path d="M10178 10723 c7 -3 16 -2 19 1 4 3 -2 6 -13 5 -11 0 -14 -3 -6 -6z"/>
    <path d="M15155 7191 c-3 -5 0 -13 6 -16 5 -4 9 -24 8 -46 -2 -21 -1 -40 2 -43 8 -8 295 -10 307 -3 6 5 5 20 -4 47 -7 21 -11 46 -8 55 5 13 -5 15 -67 15 -79 0 -119 -12 -77 -24 19 -5 20 -8 8 -16 -18 -11 -5 -27 30 -33 14 -2 3 -5 -25 -5 -27 -1 -56 2 -64 7 -19 12 -5 31 19 26 12 -2 18 0 15 6 -4 5 -10 7 -14 5 -4 -3 -13 -1 -21 5 -13 7 -13 9 0 9 13 0 13 1 0 10 -19 12 -107 13 -115 1z m282 -68 c-3 -3 -15 -2 -27 2 -20 6 -21 7 -3 20 15 11 19 11 26 -2 5 -8 7 -17 4 -20z m-207 7 c0 -5 -4 -10 -9 -10 -6 0 -13 5 -16 10 -3 6 1 10 9 10 9 0 16 -4 16 -10z"/>
    <path d="M10440 10 c-11 -7 -5 -10 23 -10 23 0 36 4 32 10 -8 13 -35 13 -55 0z"/>
    <path d="M10568 3 c6 -2 18 -2 25 0 6 3 1 5 -13 5 -14 0 -19 -2 -12 -5z"/>
  </g>
</svg>