<?xml version="1.0" encoding="utf-8"?>
<svg viewBox="0 0 2000 1200" preserveAspectRatio="none" xmlns="http://www.w3.org/2000/svg">
  <g transform="matrix(0.10000000149011612, 0, 0, -0.10000000149011612, 0, 1200)" fill="#000000" stroke="none" style="opacity: 0.1;">
    <path d="M17335 11990 c-3 -5 1 -10 9 -10 8 0 18 5 21 10 3 6 -1 10 -9 10 -8 0 -18 -4 -21 -10z"/>
    <path d="M18778 11993 c6 -2 18 -2 25 0 6 3 1 5 -13 5 -14 0 -19 -2 -12 -5z"/>
    <path d="M18943 11985 c-3 -9 -3 -19 1 -22 7 -7 36 16 36 28 0 15 -30 10 -37 -6z"/>
    <path d="M19018 11988 c9 -9 15 -9 24 0 9 9 7 12 -12 12 -19 0 -21 -3 -12 -12z"/>
    <path d="M19078 11993 c7 -3 16 -2 19 1 4 3 -2 6 -13 5 -11 0 -14 -3 -6 -6z"/>
    <path d="M19605 11990 c3 -5 15 -10 26 -10 10 0 19 5 19 10 0 6 -12 10 -26 10 -14 0 -23 -4 -19 -10z"/>
    <path d="M16820 11970 c0 -5 5 -10 11 -10 5 0 7 5 4 10 -3 6 -8 10 -11 10 -2 0 -4 -4 -4 -10z"/>
    <path d="M18310 11970 c-12 -8 -12 -10 3 -16 21 -8 35 2 21 16 -5 5 -15 6 -24 0z"/>
    <path d="M18015 11950 c-3 -5 1 -10 10 -10 9 0 13 5 10 10 -3 6 -8 10 -10 10 -2 0 -7 -4 -10 -10z"/>
    <path d="M19698 11953 c6 -2 18 -2 25 0 6 3 1 5 -13 5 -14 0 -19 -2 -12 -5z"/>
    <path d="M18850 11940 c0 -5 9 -10 21 -10 11 0 17 5 14 10 -3 6 -13 10 -21 10 -8 0 -14 -4 -14 -10z"/>
    <path d="M19360 11890 c-13 -8 -13 -10 2 -10 9 0 20 5 23 10 8 13 -5 13 -25 0z"/>
    <path d="M19428 11873 c-10 -2 -18 -9 -18 -14 0 -14 43 -10 64 6 19 14 19 15 -5 14 -13 -1 -32 -3 -41 -6z"/>
    <path d="M18691 11861 c-9 -6 -8 -11 3 -20 21 -18 37 -10 22 11 -7 10 -17 13 -25 9z"/>
    <path d="M18830 11785 c0 -9 9 -15 25 -15 28 0 34 15 9 24 -25 10 -34 7 -34 -9z"/>
    <path d="M18820 11720 c0 -5 5 -10 10 -10 6 0 10 5 10 10 0 6 -4 10 -10 10 -5 0 -10 -4 -10 -10z"/>
    <path d="M10230 10120 c-19 -5 -195 -43 -390 -85 -195 -42 -393 -85 -440 -95 -108 -25 -555 -121 -770 -165 -164 -34 -499 -104 -720 -150 -306 -64 -617 -128 -725 -150 -66 -13 -163 -33 -215 -44 -108 -23 -451 -94 -875 -182 -159 -33 -362 -75 -450 -95 -88 -19 -212 -46 -275 -59 -63 -13 -169 -36 -235 -50 -164 -35 -551 -116 -600 -125 -22 -4 -116 -24 -210 -43 -355 -75 -426 -90 -635 -132 -118 -24 -314 -65 -435 -90 -575 -120 -1092 -227 -1990 -411 -456 -93 -674 -139 -827 -173 -186 -42 -356 -79 -401 -87 l-37 -6 2 -3077 c3 -3070 3 -3076 23 -3073 11 2 22 8 25 12 3 5 18 13 32 19 22 8 29 7 37 -6 8 -14 12 -15 25 -4 13 11 22 10 53 -4 33 -16 44 -17 93 -6 82 19 112 22 105 11 -3 -5 11 -17 31 -26 l36 -17 -28 -16 c-19 -10 -58 -16 -107 -17 -43 -1 -80 -4 -84 -8 -10 -10 -51 -7 -58 4 -3 6 -1 10 4 10 6 0 11 4 11 9 0 5 -17 3 -37 -5 -52 -18 -102 -18 -109 1 -4 8 -17 15 -30 15 l-24 0 0 -900 0 -900 10000 0 10000 0 0 1121 0 1121 -28 -7 c-16 -3 -49 -1 -74 4 -37 9 -53 7 -97 -10 -33 -12 -74 -19 -109 -18 -32 1 -140 -3 -242 -9 -102 -6 -387 -20 -635 -31 -247 -11 -520 -25 -605 -31 -85 -6 -220 -12 -300 -15 -80 -2 -262 -10 -405 -19 -143 -9 -349 -18 -458 -20 -109 -3 -217 -7 -240 -11 -51 -7 -917 -48 -1037 -50 -47 0 -112 -4 -145 -9 -49 -7 -63 -5 -73 7 -17 20 -4 24 153 49 133 20 168 23 460 32 94 4 215 10 270 15 55 6 183 13 285 17 153 5 187 9 197 23 10 13 14 13 21 3 7 -10 47 -13 173 -12 90 1 182 3 204 5 22 1 159 8 305 14 146 6 290 13 320 16 30 3 152 7 270 10 118 3 247 10 285 15 39 5 122 10 185 10 63 0 167 4 230 10 150 12 274 18 500 25 102 4 273 13 380 21 107 7 198 14 203 14 4 0 7 61 7 135 l0 135 -122 -5 c-82 -3 -124 -9 -130 -17 -7 -12 -12 -3 -9 16 1 4 -11 6 -26 3 -84 -17 -88 -17 -68 -8 l20 10 -20 0 c-11 0 -31 -8 -44 -18 -23 -18 -61 -18 -61 0 0 15 -108 11 -117 -4 -11 -18 -41 -28 -48 -17 -4 6 -24 10 -46 10 -21 0 -39 5 -39 10 0 6 -7 10 -15 10 -8 0 -14 -5 -13 -12 2 -7 -18 -12 -59 -14 -35 -1 -73 -6 -85 -10 -13 -4 -36 -6 -51 -5 -15 1 -35 -3 -43 -10 -12 -10 -17 -9 -27 5 -10 14 -24 16 -73 13 -34 -3 -67 -1 -74 3 -8 5 -19 6 -25 2 -12 -8 -25 -10 -84 -17 -25 -3 -52 -12 -60 -19 -23 -21 -110 -38 -150 -31 -53 10 -17 25 50 21 64 -4 91 6 71 26 -10 10 -22 10 -57 0 -25 -7 -56 -12 -68 -12 -13 0 -28 -5 -34 -11 -12 -12 -53 -3 -53 12 0 16 -28 10 -34 -7 -5 -13 -16 -15 -49 -12 -26 3 -47 0 -54 -7 -6 -7 -33 -11 -68 -9 -44 2 -60 7 -76 25 -14 16 -22 20 -27 12 -4 -6 -25 -11 -47 -12 -33 0 -126 -7 -145 -10 -3 -1 2 -6 10 -11 12 -8 11 -10 -7 -10 -13 0 -23 5 -23 10 0 6 -9 10 -20 10 -11 0 -20 4 -20 9 0 6 -18 9 -40 8 -28 -1 -39 -5 -36 -14 8 -19 -35 -26 -81 -14 -22 6 -63 9 -91 5 -30 -3 -53 -1 -57 5 -8 14 -48 14 -62 0 -12 -12 -45 1 -44 17 0 5 -21 8 -47 8 -28 -1 -46 -6 -45 -12 2 -6 -4 -9 -12 -6 -8 4 -23 3 -32 -1 -10 -4 -121 -8 -247 -9 -173 -1 -230 -4 -234 -14 -5 -17 -49 -15 -55 2 -4 9 -14 12 -28 9 l-22 -6 24 -18 c27 -21 27 -21 -24 -24 -27 -1 -35 1 -28 8 17 17 13 37 -8 37 -10 0 -24 -7 -31 -15 -7 -8 -23 -15 -37 -15 -14 0 -21 -4 -18 -10 3 -5 -4 -10 -15 -10 -14 0 -24 8 -27 21 -4 12 -11 18 -20 15 -8 -3 -17 -6 -19 -6 -12 0 -1 -29 14 -35 16 -6 16 -7 -1 -16 -20 -11 -41 -3 -31 13 4 6 -17 8 -62 3 -38 -3 -70 -10 -72 -15 -5 -12 -42 1 -42 15 0 8 -8 11 -19 8 -10 -2 -18 -12 -17 -21 1 -11 -8 -18 -23 -20 -13 -2 -21 1 -17 6 3 5 -6 14 -19 20 -19 9 -25 9 -25 -1 0 -6 -5 -4 -11 6 -5 9 -17 17 -25 17 -12 0 -13 -4 -4 -21 7 -11 10 -22 8 -24 -2 -2 -25 -6 -53 -9 -40 -5 -45 -4 -26 4 41 18 9 33 -72 34 l-73 1 1 -28 c2 -39 13 -46 78 -49 50 -2 56 -5 51 -20 -4 -14 0 -18 19 -18 35 0 43 -28 11 -36 -27 -7 -45 3 -27 14 9 5 6 12 -8 21 -12 7 -18 8 -14 2 3 -6 1 -11 -5 -11 -6 0 -8 -4 -5 -10 6 -10 -48 -15 -112 -11 -18 2 -33 -2 -33 -8 0 -6 -7 -11 -15 -11 -8 0 -15 -4 -15 -10 0 -5 -7 -10 -16 -10 -11 0 -13 6 -9 19 5 16 -1 22 -35 32 -32 10 -39 16 -34 31 6 21 -6 24 -25 5 -10 -8 -12 -8 -7 0 4 7 -4 6 -23 -3 -42 -21 -69 -26 -123 -25 -27 1 -48 -3 -48 -9 0 -14 -53 -12 -69 2 -11 10 -14 10 -18 1 -3 -7 -20 -13 -38 -13 -19 0 -37 -4 -40 -10 -10 -15 -35 -12 -35 5 0 14 20 20 45 15 5 -1 6 2 2 7 -10 10 -68 13 -62 3 2 -4 -14 -12 -36 -19 -34 -10 -44 -9 -69 6 -26 15 -37 16 -98 5 -62 -10 -134 -10 -215 2 -22 3 -27 1 -23 -10 9 -23 -58 -22 -85 2 -12 11 -18 11 -27 2 -7 -7 -12 -8 -12 -2 0 5 -4 3 -9 -4 -4 -7 -16 -13 -27 -12 -45 1 -64 5 -64 12 0 9 -115 10 -148 1 -18 -4 -20 -8 -10 -14 9 -6 4 -9 -14 -9 -16 0 -28 4 -28 10 0 5 -17 9 -37 9 -35 -1 -74 5 -112 17 -11 4 -10 8 5 19 18 14 17 15 -11 9 -16 -4 -39 -17 -50 -30 l-20 -23 -223 3 c-122 2 -225 6 -229 9 -3 4 -13 1 -21 -6 -12 -9 -16 -9 -19 1 -3 6 -18 12 -34 12 -18 0 -28 -4 -24 -10 3 -6 -3 -10 -14 -10 -12 0 -18 5 -16 13 7 16 -59 14 -79 -2 -10 -8 -27 -8 -66 0 -30 6 -71 8 -98 4 -57 -9 -401 -10 -409 -1 -4 3 -22 3 -41 0 -28 -6 -33 -4 -27 7 7 12 6 12 -7 1 -9 -7 -34 -13 -55 -12 -21 0 -47 0 -58 0 -227 -2 -794 6 -946 14 -31 2 -63 7 -70 12 -8 4 -110 9 -229 10 -118 1 -339 6 -490 13 -151 6 -391 13 -533 15 -142 2 -261 7 -265 11 -9 9 -9 1645 0 2830 9 1057 11 4395 4 4402 -23 24 -26 -35 -26 -510 1 -276 1 -608 1 -737 0 -129 0 -419 0 -645 0 -225 -1 -426 -2 -445 -1 -19 -1 -334 -1 -700 1 -366 -1 -991 -4 -1390 -3 -399 -8 -1182 -10 -1740 -3 -632 -8 -1018 -14 -1024 -6 -6 -12 -3 -16 9 -4 9 -4 585 -1 1279 4 693 10 2307 13 3586 6 1927 9 2326 20 2333 11 6 13 51 13 213 -1 161 2 209 13 222 9 11 12 32 8 62 -4 39 -8 45 -30 47 -14 1 -41 -3 -60 -7z m6800 -7670 c0 -5 -5 -10 -11 -10 -5 0 -7 5 -4 10 3 6 8 10 11 10 2 0 4 -4 4 -10z m-110 -40 c0 -22 -7 -25 -29 -11 -16 10 -6 31 15 31 8 0 14 -9 14 -20z m-185 -20 c8 -13 -15 -13 -35 0 -12 8 -11 10 7 10 12 0 25 -4 28 -10z m-206 -106 c2 -2 -13 -4 -35 -4 -26 0 -34 -3 -25 -9 11 -7 9 -10 -8 -16 -24 -7 -41 0 -41 20 0 7 -10 16 -22 18 -13 3 11 2 52 -1 41 -2 77 -6 79 -8z m-189 -6 c0 -5 -4 -7 -9 -3 -5 3 -12 1 -16 -5 -10 -16 -75 -13 -69 4 6 15 94 19 94 4z m210 -18 c0 -13 -11 -13 -30 0 -12 8 -11 10 8 10 12 0 22 -4 22 -10z m90 0 c11 -8 7 -10 -17 -8 -17 1 -29 6 -27 10 7 11 26 10 44 -2z m873 -51 c-8 -8 -16 -8 -30 0 -16 9 -14 10 12 11 21 0 26 -3 18 -11z m232 1 c17 -7 15 -9 -12 -9 -17 -1 -35 4 -38 9 -7 12 22 12 50 0z m-183 -12 c-9 -9 -15 -9 -24 0 -9 9 -7 12 12 12 19 0 21 -3 12 -12z m105 1 c-14 -8 -22 -8 -30 0 -8 8 -3 11 19 11 25 -1 27 -2 11 -11z m-3865 -21 c-9 -9 -15 -9 -24 0 -9 9 -7 12 12 12 19 0 21 -3 12 -12z m2768 -18 c11 -7 5 -10 -23 -10 -23 0 -36 4 -32 10 8 13 35 13 55 0z m77 -6 c-3 -3 -12 -4 -19 -1 -8 3 -5 6 6 6 11 1 17 -2 13 -5z m-447 -24 c0 -5 -4 -10 -9 -10 -6 0 -13 5 -16 10 -3 6 1 10 9 10 9 0 16 -4 16 -10z m-9360 -120 c0 -5 -9 -10 -21 -10 -11 0 -17 5 -14 10 3 6 13 10 21 10 8 0 14 -4 14 -10z m-1455 -10 c4 -6 11 -8 16 -5 8 5 13 -7 11 -26 -1 -3 12 -6 28 -7 16 0 37 -5 47 -10 31 -16 45 -3 23 21 -24 25 -25 37 -5 37 16 0 20 -2 68 -45 24 -21 39 -25 95 -26 37 -1 72 0 77 1 6 1 22 3 38 4 16 0 25 6 23 12 -13 33 51 45 78 15 26 -28 90 -35 313 -32 62 1 63 1 77 36 17 40 29 44 49 15 8 -11 16 -17 20 -14 8 8 3 -18 -6 -33 -14 -22 2 -33 31 -22 15 6 44 8 66 4 21 -3 54 -1 73 6 31 10 37 9 54 -10 11 -12 25 -21 32 -21 7 0 6 4 -3 10 -12 8 -8 10 15 11 17 1 42 2 58 3 37 3 35 -13 -3 -21 -17 -3 -29 -11 -27 -17 6 -17 42 -19 57 -1 7 8 19 15 27 15 8 0 28 8 46 17 24 13 62 17 155 19 67 1 125 -2 128 -7 3 -5 23 -9 45 -9 24 0 38 -4 34 -10 -3 -5 1 -10 9 -10 28 0 17 -16 -16 -26 -18 -6 -48 -7 -65 -3 -18 3 -52 3 -75 -2 -24 -4 -64 -8 -90 -9 -27 0 -48 -4 -48 -9 0 -10 -55 -9 -66 2 -13 13 -74 7 -99 -9 -17 -11 -36 -14 -62 -10 -55 9 -373 14 -368 6 2 -4 -6 -5 -19 -3 -13 3 -26 0 -30 -5 -7 -11 -46 -4 -46 9 0 9 -100 9 -115 0 -5 -3 -32 -7 -60 -8 -27 0 -62 -3 -76 -6 -15 -3 -39 1 -54 9 -34 17 -59 18 -52 1 5 -14 -59 -18 -80 -4 -6 4 -18 4 -26 1 -8 -3 -18 -1 -21 4 -3 5 -17 7 -31 5 -13 -3 -23 -9 -20 -13 7 -11 -78 0 -92 12 -8 7 -13 7 -13 1 0 -12 -77 -35 -100 -30 -32 7 -60 19 -60 26 0 4 -30 7 -67 6 -38 0 -75 3 -83 6 -9 4 -38 3 -64 -3 -37 -8 -59 -7 -87 2 -26 9 -42 10 -51 3 -7 -6 -21 -9 -30 -8 -10 2 -18 -1 -18 -7 0 -6 -13 -8 -32 -4 -18 4 -46 9 -63 13 -16 3 -33 10 -36 15 -7 11 -71 20 -64 8 6 -10 -25 -24 -49 -21 -12 2 -16 -1 -11 -10 5 -8 4 -10 -4 -5 -6 4 -8 12 -5 18 5 7 -8 8 -42 3 -27 -4 -53 -13 -57 -21 -9 -15 -37 -19 -37 -5 0 5 -9 11 -20 14 -11 3 -20 2 -20 -1 0 -4 -14 -7 -31 -8 -19 -1 -26 2 -18 7 10 6 9 9 -6 14 -11 4 -30 11 -43 16 -42 17 -103 -28 -89 -65 5 -12 11 -13 36 -3 37 14 47 6 29 -22 -8 -13 -23 -21 -40 -21 -15 0 -30 -4 -33 -10 -8 -12 -35 -13 -55 0 -12 8 -11 13 9 33 13 14 18 28 13 31 -17 10 -43 -5 -53 -30 -4 -13 -13 -24 -19 -24 -6 0 -8 4 -5 10 3 5 1 19 -5 30 -9 17 -17 20 -41 15 -22 -5 -29 -3 -29 9 0 13 9 15 45 11 34 -3 43 -1 39 9 -4 10 -29 14 -92 15 -48 0 -98 2 -112 4 -31 4 -63 -10 -54 -24 3 -6 -3 -5 -15 3 -15 9 -23 10 -32 1 -9 -9 -4 -14 22 -21 l34 -9 -29 -12 c-22 -9 -32 -9 -43 1 -12 10 -18 9 -29 -7 -8 -10 -14 -25 -14 -32 0 -21 -16 -15 -34 12 -18 27 -36 25 -36 -4 0 -22 -29 -23 -42 -1 -9 13 -19 15 -57 9 -25 -4 -49 -5 -53 -3 -4 2 -10 -1 -13 -7 -4 -5 -30 -9 -59 -8 -28 1 -64 -5 -81 -12 -16 -7 -58 -13 -92 -13 -35 -1 -63 -4 -63 -8 0 -3 -15 -2 -32 3 -44 12 -49 12 -46 -7 4 -22 -58 -26 -90 -5 -21 13 -27 13 -57 -3 -27 -15 -36 -16 -53 -5 -17 11 -27 10 -59 -4 -46 -20 -130 -21 -140 -2 -5 7 -21 15 -37 17 -33 4 -52 27 -42 53 6 17 7 17 20 0 12 -17 13 -17 11 4 -2 36 -19 45 -58 30 -29 -10 -39 -10 -51 0 -13 11 -19 11 -31 1 -21 -17 -19 -28 6 -32 12 -2 27 -11 33 -20 16 -27 -29 -65 -89 -74 -45 -6 -49 -5 -37 9 12 14 9 17 -20 22 -18 3 -45 4 -59 2 -14 -3 -32 -2 -38 3 -7 4 -27 1 -43 -8 -20 -10 -26 -17 -18 -22 8 -5 8 -10 2 -14 -5 -3 -15 1 -22 9 -7 8 -24 15 -38 15 l-25 0 28 26 c30 28 24 47 -12 38 -13 -4 -20 -11 -16 -20 3 -8 -1 -14 -11 -14 -9 0 -16 -5 -16 -11 0 -5 5 -7 12 -3 7 4 8 3 4 -4 -9 -16 -53 -15 -62 0 -5 8 -10 6 -14 -7 -9 -25 -48 -35 -80 -20 -49 24 -117 26 -151 6 -18 -11 -39 -17 -48 -14 -41 13 -61 28 -56 41 4 12 1 11 -19 -2 -31 -20 -37 -20 -30 -1 4 8 1 15 -6 15 -6 0 -8 5 -4 11 4 7 -1 10 -12 7 -11 -2 -23 -13 -29 -26 -11 -25 -25 -28 -43 -10 -10 10 -14 8 -18 -9 -9 -32 -31 -35 -58 -8 -14 14 -36 25 -50 25 -14 0 -48 14 -76 31 -49 30 -74 32 -63 4 3 -8 13 -15 23 -15 11 0 22 -4 25 -10 3 -5 1 -10 -5 -10 -6 0 -8 -6 -4 -12 4 -7 -2 -5 -13 5 -19 17 -27 17 -80 6 -32 -6 -93 -13 -137 -14 -43 -2 -81 -8 -85 -14 -4 -6 -22 -14 -40 -17 -31 -7 -33 -6 -22 14 6 11 11 23 11 25 0 9 -55 21 -95 22 -29 0 -40 5 -43 17 -2 13 3 16 24 15 15 -1 29 4 32 11 3 9 -3 13 -19 12 -48 -4 -80 0 -74 10 3 6 -1 7 -9 4 -9 -3 -16 -1 -16 5 0 15 33 14 48 -1 17 -17 61 5 58 29 -2 13 -12 18 -34 19 -18 0 -32 4 -33 9 -1 12 29 21 69 21 19 -1 32 4 32 12 0 6 -6 12 -12 13 -7 0 -4 4 7 8 11 5 25 5 30 1 6 -5 26 -10 45 -12 27 -2 35 -7 35 -23 0 -15 7 -20 30 -22 17 -1 44 -5 60 -8 23 -5 36 -1 53 15 12 11 27 18 34 14 6 -4 24 -7 39 -6 19 0 30 -5 34 -19 8 -24 17 -24 33 1 11 17 9 20 -14 26 -18 5 -24 12 -22 28 5 35 42 32 62 -6 17 -31 22 -33 74 -35 31 -2 62 2 69 9 11 9 13 8 11 -3 -2 -11 9 -13 57 -11 99 5 117 10 105 33 -9 16 -5 21 27 34 30 13 35 18 23 25 -10 7 7 10 53 10 43 0 66 -4 62 -10 -3 -5 -15 -10 -26 -10 -10 0 -19 -4 -19 -10 0 -5 6 -10 14 -10 21 0 67 26 59 34 -4 4 16 6 45 4 29 -2 51 -7 50 -13 -2 -5 -13 -8 -25 -7 -11 2 -24 -2 -28 -7 -3 -6 -3 -11 2 -11 80 -4 143 -4 143 0 0 3 18 4 40 2 27 -3 40 0 40 8 0 8 -11 11 -29 8 -20 -3 -27 0 -24 8 8 21 343 34 343 13 0 -8 -32 -21 -46 -18 -30 5 -45 -25 -19 -35 16 -6 72 14 107 37 21 15 31 16 48 7 12 -6 45 -13 75 -16 45 -3 54 -2 49 11 -5 12 2 14 36 11 45 -4 81 -26 42 -26 -12 0 -22 -4 -22 -10 0 -5 11 -10 25 -10 14 0 25 5 25 10 0 6 8 10 18 10 9 0 25 7 35 15 11 7 26 11 35 8 10 -4 13 -2 8 5 -5 9 7 12 43 12 28 0 51 -5 53 -11 3 -9 14 -8 41 2 33 12 38 11 51 -6 11 -16 17 -17 42 -7 16 7 40 12 54 11 14 -1 44 2 68 6 26 5 42 4 42 -2 0 -7 39 -9 103 -7 56 2 102 4 102 5 0 5 172 3 180 -2 6 -4 28 -4 50 0 22 4 76 4 120 1 86 -7 182 -5 311 5 76 6 83 5 102 -15 l21 -22 54 22 c51 21 58 22 92 8 28 -11 51 -13 93 -6 38 6 65 5 80 -2 13 -5 28 -7 35 -3 10 6 103 13 202 15 28 0 85 -5 127 -12 73 -12 78 -11 106 9 35 25 55 27 72 6 18 -22 47 -18 72 10 22 26 71 34 83 15z m839 -2 c-6 -10 -4 -10 8 0 11 9 18 10 23 2 7 -11 4 -12 -37 -15 -15 -1 -25 1 -23 6 3 4 -1 10 -7 12 -7 3 0 6 15 6 20 1 26 -3 21 -11z m206 -10 c24 -26 26 -38 5 -38 -8 0 -15 7 -15 15 0 8 -9 15 -19 15 -21 0 -34 13 -24 24 12 12 32 6 53 -16z m315 12 c18 -1 19 -1 2 -11 -28 -16 -129 -17 -135 0 -4 11 3 12 32 7 25 -5 36 -3 36 5 0 7 9 9 23 5 12 -3 31 -6 42 -6z m282 4 c-3 -3 -12 -4 -19 -1 -8 3 -5 6 6 6 11 1 17 -2 13 -5z m808 -4 c18 -8 17 -9 -7 -9 -16 -1 -28 4 -28 9 0 12 8 12 35 0z m175 -4 c-6 -8 -18 -12 -26 -9 -23 9 -16 23 12 23 22 0 24 -2 14 -14z m100 5 c0 -10 -42 -23 -49 -15 -7 6 20 24 37 24 6 0 12 -4 12 -9z m-1320 -11 c0 -5 -2 -10 -4 -10 -3 0 -8 5 -11 10 -3 6 -1 10 4 10 6 0 11 -4 11 -10z m614 -7 c30 -25 28 -56 -4 -58 -14 -1 -36 -5 -49 -9 -16 -6 -21 -5 -17 3 4 6 13 11 21 11 10 0 12 9 8 35 -6 40 6 45 41 18z m236 -8 c8 -9 22 -13 39 -10 21 4 22 4 6 -4 -19 -8 -73 -5 -105 6 -12 4 -11 7 5 13 30 13 41 12 55 -5z m-1660 -5 c0 -5 -8 -10 -17 -10 -15 0 -16 2 -3 10 19 12 20 12 20 0z m-4187 -22 c-8 -10 -19 -16 -23 -13 -4 2 -7 -6 -6 -19 0 -14 -3 -24 -9 -24 -5 0 -9 4 -7 10 1 5 -1 7 -6 4 -5 -3 -18 1 -28 9 -17 13 -18 14 -1 15 9 0 25 9 34 20 9 11 27 19 40 18 21 -2 21 -4 6 -20z m-153 2 c18 -12 2 -12 -25 0 -13 6 -15 9 -5 9 8 0 22 -4 30 -9z m-370 -38 c-14 -2 -28 -8 -31 -14 -3 -5 -8 -1 -11 9 -4 16 0 18 31 14 30 -4 32 -6 11 -9z m139 -3 c-7 -14 -17 -19 -31 -15 -12 3 -29 1 -39 -5 -15 -7 -17 -6 -13 5 3 8 22 19 42 24 53 14 54 14 41 -9z m5806 7 c11 -1 25 -17 25 -28 0 -14 -27 -9 -40 7 -7 8 -23 15 -37 15 -14 0 -21 4 -18 10 3 6 18 7 33 4 15 -4 32 -7 37 -8z m-2410 -65 c7 -12 -12 -24 -25 -16 -11 7 -4 25 10 25 5 0 11 -4 15 -9z m2383 -9 c3 -9 -2 -13 -14 -10 -9 1 -19 9 -22 16 -3 9 2 13 14 10 9 -1 19 -9 22 -16z m-6544 -27 c-29 -22 -84 -30 -95 -14 -8 14 24 24 90 28 24 1 24 0 5 -14z m4216 5 c0 -5 -2 -10 -4 -10 -3 0 -8 5 -11 10 -3 6 -1 10 4 10 6 0 11 -4 11 -10z m-330 -28 c0 -5 -3 -12 -7 -16 -5 -4 -8 -13 -8 -19 0 -7 -9 -13 -20 -16 -17 -3 -18 -1 -6 13 9 10 10 16 2 16 -21 0 -26 -2 -23 -11 1 -5 -2 -9 -8 -9 -14 0 -13 23 2 38 14 14 68 16 68 4z m-3623 -14 c-2 -7 -10 -12 -16 -10 -7 1 -9 -2 -6 -8 4 -6 13 -9 21 -6 8 3 30 -6 50 -19 20 -14 47 -25 58 -25 12 0 27 -5 34 -12 9 -9 12 -9 12 0 0 7 7 12 16 12 9 0 14 -6 12 -12 -5 -16 -88 -24 -88 -9 0 21 -69 44 -115 38 -25 -4 -47 -2 -50 3 -3 6 1 10 10 10 8 0 21 11 27 25 11 25 44 36 35 13z m-442 -18 c17 -8 16 -9 -7 -7 -15 2 -30 6 -34 10 -10 10 17 8 41 -3z m-165 -30 c0 -5 -2 -10 -4 -10 -3 0 -8 5 -11 10 -3 6 -1 10 4 10 6 0 11 -4 11 -10z m3450 -10 c0 -5 -7 -10 -16 -10 -8 0 -12 5 -9 10 3 6 10 10 16 10 5 0 9 -4 9 -10z m-2970 -4 c0 -2 -7 -7 -16 -10 -8 -3 -12 -2 -9 4 6 10 25 14 25 6z m839 -19 c14 -17 4 -27 -25 -27 -30 0 -39 16 -17 29 24 14 29 13 42 -2z m871 -7 c0 -5 -8 -10 -17 -10 -15 0 -16 2 -3 10 19 12 20 12 20 0z m208 -18 c2 -7 -2 -10 -12 -6 -9 3 -16 11 -16 16 0 13 23 5 28 -10z m-655 -11 c3 -14 11 -18 26 -14 12 3 21 1 21 -5 0 -6 -22 -9 -50 -9 -54 2 -59 7 -34 31 21 21 31 20 37 -3z m314 11 c10 -7 10 -12 0 -27 -17 -22 -37 -12 -30 15 6 22 11 24 30 12z m-112 -32 c-3 -5 -15 -10 -26 -10 -10 0 -19 5 -19 10 0 6 12 10 26 10 14 0 23 -4 19 -10z"/>
    <path d="M2340 1957 c-14 -7 -26 -17 -27 -22 -3 -17 40 -16 59 1 10 10 22 13 30 8 7 -5 22 -10 33 -12 18 -2 18 -1 5 12 -22 21 -71 27 -100 13z"/>
    <path d="M3000 1960 c0 -5 5 -10 11 -10 5 0 7 5 4 10 -3 6 -8 10 -11 10 -2 0 -4 -4 -4 -10z"/>
    <path d="M1895 1950 c3 -5 11 -10 16 -10 6 0 7 5 4 10 -3 6 -11 10 -16 10 -6 0 -7 -4 -4 -10z"/>
    <path d="M6310 1950 c0 -5 7 -7 15 -4 8 4 15 8 15 10 0 2 -7 4 -15 4 -8 0 -15 -4 -15 -10z"/>
    <path d="M2991 1899 c-6 -18 -11 -36 -11 -40 0 -16 48 -10 54 6 5 13 9 13 26 3 16 -10 22 -10 32 0 16 16 -4 32 -40 32 -12 0 -25 7 -28 15 -9 24 -21 18 -33 -16z"/>
    <path d="M2710 1910 c-13 -8 -12 -10 3 -10 9 0 17 5 17 10 0 12 -1 12 -20 0z"/>
    <path d="M2793 1893 c9 -2 23 -2 30 0 6 3 -1 5 -18 5 -16 0 -22 -2 -12 -5z"/>
    <path d="M2254 1878 c-4 -5 -2 -14 3 -19 9 -9 53 -1 53 11 0 12 -50 19 -56 8z"/>
    <path d="M3152 1849 c-11 -17 -10 -25 5 -47 18 -28 43 -40 43 -22 0 17 -24 90 -30 90 -3 0 -11 -9 -18 -21z"/>
    <path d="M1124 1834 c3 -9 6 -18 6 -20 0 -3 5 -2 10 1 16 10 12 35 -6 35 -11 0 -14 -5 -10 -16z"/>
    <path d="M5448 1843 c6 -2 18 -2 25 0 6 3 1 5 -13 5 -14 0 -19 -2 -12 -5z"/>
    <path d="M5558 1843 c7 -3 16 -2 19 1 4 3 -2 6 -13 5 -11 0 -14 -3 -6 -6z"/>
    <path d="M2565 1830 c-3 -6 -26 -15 -51 -21 -24 -6 -44 -15 -44 -20 0 -22 96 5 110 31 11 21 -3 29 -15 10z"/>
    <path d="M3242 1820 c-10 -17 -10 -20 3 -20 8 0 15 9 15 20 0 11 -1 20 -3 20 -1 0 -8 -9 -15 -20z"/>
    <path d="M1630 1814 l-35 -13 36 0 c21 -1 42 5 49 14 16 19 1 19 -50 -1z"/>
    <path d="M2250 1820 c0 -5 5 -10 11 -10 5 0 7 5 4 10 -3 6 -8 10 -11 10 -2 0 -4 -4 -4 -10z"/>
    <path d="M2936 1821 c-3 -5 1 -11 9 -15 15 -6 29 7 18 18 -9 9 -21 8 -27 -3z"/>
    <path d="M2846 1811 c-18 -7 -18 -8 -2 -14 27 -11 36 -8 36 8 0 16 -5 17 -34 6z"/>
    <path d="M1343 1798 c-24 -5 -43 -13 -43 -19 0 -12 23 -12 36 0 5 5 23 11 39 13 17 2 26 6 20 9 -5 3 -29 2 -52 -3z"/>
    <path d="M2323 1803 c-24 -5 -30 -18 -14 -28 5 -3 17 2 25 11 14 13 22 27 14 23 -2 -1 -13 -4 -25 -6z"/>
    <path d="M3084 1795 c21 -16 32 -13 21 4 -3 6 -14 11 -23 11 -15 -1 -15 -2 2 -15z"/>
    <path d="M1080 1792 c0 -23 28 -44 48 -38 29 10 28 20 -3 34 -30 14 -45 15 -45 4z"/>
    <path d="M1210 1780 c-8 -5 -11 -12 -7 -16 4 -4 15 0 24 9 18 18 8 23 -17 7z"/>
    <path d="M1320 1750 c-9 -6 -10 -10 -3 -10 6 0 15 5 18 10 8 12 4 12 -15 0z"/>
    <path d="M1913 1723 c9 -2 23 -2 30 0 6 3 -1 5 -18 5 -16 0 -22 -2 -12 -5z"/>
    <path d="M10846 9991 c-3 -5 5 -8 18 -7 13 0 22 4 19 9 -6 10 -31 9 -37 -2z"/>
    <path d="M10939 9967 c5 -5 19 -7 32 -5 20 3 19 5 -9 9 -20 3 -29 2 -23 -4z"/>
    <path d="M11000 9964 c1 -29 31 -45 90 -48 34 -2 64 -7 68 -11 11 -10 -19 -23 -45 -19 -12 2 -23 2 -23 0 0 -8 110 -37 190 -51 41 -8 86 -16 100 -19 14 -3 63 -14 110 -24 47 -11 137 -31 200 -45 63 -14 169 -35 235 -47 66 -11 152 -28 190 -36 112 -24 475 -95 530 -104 28 -5 93 -17 145 -28 52 -11 127 -26 165 -32 39 -6 129 -25 200 -41 113 -25 351 -72 510 -100 27 -5 95 -18 150 -30 129 -27 429 -86 525 -104 41 -7 118 -23 170 -35 52 -13 118 -26 145 -30 28 -5 109 -20 180 -35 72 -15 154 -31 184 -36 30 -6 57 -12 61 -14 4 -3 36 -9 71 -15 35 -5 96 -16 134 -24 39 -8 140 -28 225 -44 155 -30 364 -75 430 -92 19 -5 69 -14 110 -21 41 -6 140 -24 220 -40 80 -15 188 -35 240 -44 52 -8 127 -22 165 -30 39 -8 104 -21 145 -29 41 -8 140 -28 220 -45 254 -52 305 -61 337 -61 17 0 53 -5 80 -10 26 -6 125 -26 218 -44 94 -19 215 -44 270 -55 125 -26 225 -46 340 -66 50 -9 108 -20 130 -25 22 -5 121 -25 220 -44 422 -81 609 -119 750 -151 187 -43 582 -125 601 -125 8 0 14 10 14 23 0 32 -66 53 -230 74 -25 3 -51 10 -57 15 -7 6 -39 14 -70 19 -32 4 -83 13 -113 19 -30 6 -80 15 -110 20 -112 18 -173 31 -191 40 -10 6 -31 10 -48 10 -16 0 -33 5 -36 10 -3 6 -26 10 -50 10 -24 0 -56 5 -72 12 -15 6 -36 10 -45 9 -10 -1 -34 3 -55 9 -21 6 -63 15 -93 20 -114 19 -258 49 -285 61 -11 4 -42 10 -70 13 -77 7 -149 21 -165 31 -15 9 -78 21 -170 31 -25 3 -54 9 -65 13 -23 10 -123 31 -175 38 -19 2 -44 8 -55 13 -11 5 -38 11 -60 14 -22 2 -74 12 -115 21 -41 9 -99 18 -128 22 -29 3 -55 9 -58 14 -3 5 -26 9 -52 9 -26 1 -58 7 -72 15 -14 8 -39 14 -57 15 -17 0 -35 5 -38 10 -3 6 -30 10 -60 10 -30 0 -65 4 -79 10 -14 5 -43 10 -63 11 -21 1 -46 6 -55 11 -10 5 -35 9 -55 10 -21 0 -47 6 -58 13 -20 12 -66 21 -183 34 -36 3 -67 12 -71 20 -6 9 -19 12 -37 8 -15 -2 -45 1 -67 9 -22 8 -57 14 -78 14 -21 0 -40 4 -43 8 -2 4 -24 9 -48 10 -24 2 -61 8 -83 13 -22 6 -56 13 -75 15 -19 3 -39 9 -44 14 -6 6 -34 10 -63 10 -38 0 -55 4 -59 15 -5 11 -22 15 -69 15 -35 0 -67 5 -70 10 -3 6 -28 10 -56 10 -27 0 -49 4 -49 9 0 5 -24 11 -52 14 -79 8 -172 27 -183 38 -5 5 -26 9 -48 9 -21 0 -47 5 -58 10 -10 6 -36 11 -56 12 -21 1 -47 7 -58 14 -11 7 -40 13 -65 12 -24 0 -46 5 -48 11 -2 6 -20 11 -40 11 -20 0 -50 7 -67 16 -20 11 -45 14 -75 11 -28 -3 -54 0 -69 8 -14 7 -31 11 -37 8 -7 -2 -28 2 -46 11 -56 25 -232 43 -263 26 -13 -7 -29 -10 -37 -7 -9 4 -7 6 5 6 9 1 17 8 17 16 0 16 -9 19 -48 15 -13 -1 -31 5 -40 13 -9 8 -39 17 -66 21 -27 3 -54 10 -60 15 -6 5 -31 11 -56 15 -25 3 -65 8 -90 11 -25 3 -54 10 -65 15 -21 9 -138 29 -195 33 -19 2 -45 8 -57 15 -12 7 -35 11 -50 10 -15 -1 -38 4 -50 10 -12 7 -37 12 -56 12 -19 0 -48 7 -63 15 -16 8 -50 15 -76 15 -27 0 -48 5 -48 10 0 6 -20 10 -44 10 -24 0 -60 7 -79 15 -20 8 -51 15 -70 15 -18 0 -37 4 -43 10 -5 5 -27 10 -49 11 -22 1 -45 6 -52 11 -6 5 -44 11 -85 13 -76 4 -159 18 -193 34 -11 5 -33 12 -50 15 -52 8 -133 31 -141 39 -4 4 -24 7 -45 7 -21 0 -50 5 -66 11 -15 6 -39 12 -53 14 -96 13 -190 31 -196 38 -4 4 -27 7 -51 7 -25 0 -54 5 -65 11 -11 6 -44 15 -72 20 -149 24 -230 40 -245 49 -10 5 -27 6 -39 3 -12 -3 -35 3 -54 15 -18 11 -46 18 -63 17 -16 -2 -53 3 -82 11 -51 14 -69 17 -168 33 -27 4 -63 13 -78 19 -16 7 -48 12 -72 12 -24 0 -46 4 -49 9 -3 4 -29 12 -58 15 -113 15 -164 23 -178 29 -8 3 -33 9 -55 12 -22 3 -55 8 -72 11 -18 4 -33 2 -33 -2z m207 -95 c-14 -8 -22 -8 -30 0 -8 8 -3 11 19 11 25 -1 27 -2 11 -11z m101 -5 c12 -4 22 -10 22 -15 0 -14 -44 -10 -66 6 -19 14 -19 14 1 15 11 0 30 -3 43 -6z m3062 -604 c0 -5 -7 -7 -15 -4 -8 4 -15 8 -15 10 0 2 7 4 15 4 8 0 15 -4 15 -10z"/>
    <path d="M10990 9900 c8 -5 29 -10 45 -10 23 0 27 3 15 10 -8 5 -28 10 -45 10 -23 0 -27 -3 -15 -10z"/>
    <path d="M10757 9474 c-3 -3 -3 -13 0 -21 5 -12 7 -12 14 -1 15 23 4 40 -14 22z"/>
    <path d="M10980 9425 c0 -8 5 -15 10 -15 6 0 10 7 10 15 0 8 -4 15 -10 15 -5 0 -10 -7 -10 -15z"/>
    <path d="M11090 9399 c0 -5 5 -7 10 -4 6 3 10 8 10 11 0 2 -4 4 -10 4 -5 0 -10 -5 -10 -11z"/>
    <path d="M11199 9138 c-1 -269 2 -2327 5 -4490 1 -719 5 -1310 9 -1314 4 -4 7 98 8 227 0 129 3 369 5 534 2 165 3 365 3 445 -1 80 -2 204 -2 275 -1 72 -1 416 0 765 1 349 -1 1076 -3 1615 -3 539 -6 1253 -7 1587 -1 335 -5 608 -9 608 -5 0 -8 -114 -9 -252z"/>
    <path d="M11306 9371 c-4 -5 -2 -12 3 -15 5 -4 12 -2 15 3 4 5 2 12 -3 15 -5 4 -12 2 -15 -3z"/>
    <path d="M11091 9334 c0 -11 3 -14 6 -6 3 7 2 16 -1 19 -3 4 -6 -2 -5 -13z"/>
    <path d="M11410 9339 c0 -5 5 -7 10 -4 6 3 10 8 10 11 0 2 -4 4 -10 4 -5 0 -10 -5 -10 -11z"/>
    <path d="M11516 8273 c6 -2579 21 -5093 29 -5101 5 -6 5 -1 10 1038 5 1136 5 1561 0 2020 -3 239 -8 728 -11 1085 -2 358 -5 657 -5 665 0 8 0 186 0 395 1 209 -1 461 -4 560 -3 99 -5 228 -5 288 0 59 -4 107 -8 107 -4 0 -7 -476 -6 -1057z"/>
    <path d="M11620 9314 c-7 -112 5 -2582 14 -3049 3 -170 6 -859 6 -1530 1 -671 4 -1226 9 -1233 13 -22 19 189 20 668 0 250 0 635 1 855 1 405 -4 963 -16 1915 -3 289 -6 534 -6 545 4 116 -6 1652 -11 1772 -1 28 -6 55 -10 59 -4 4 -7 3 -7 -2z"/>
    <path d="M11727 7878 c2 -777 5 -1474 8 -1548 3 -74 7 -828 10 -1675 3 -963 9 -1543 15 -1549 16 -16 20 2250 6 3754 -7 730 -10 1120 -18 2042 -2 273 -6 388 -14 388 -8 0 -10 -391 -7 -1412z"/>
    <path d="M13223 9277 c-23 -5 -44 -16 -47 -24 -4 -8 13 -57 36 -109 l41 -94 -21 -23 c-18 -20 -20 -31 -15 -114 3 -51 9 -91 12 -89 4 3 8 42 9 88 3 105 7 118 38 118 19 0 24 -5 24 -24 0 -12 4 -79 9 -147 6 -68 12 -385 16 -704 7 -742 13 -1028 25 -1350 5 -143 9 -339 9 -435 -1 -96 1 -427 5 -735 3 -308 8 -852 10 -1210 5 -730 15 -1080 28 -1000 4 28 5 86 2 130 -3 44 -8 577 -10 1185 -3 1158 -11 2044 -18 2120 -16 163 -29 853 -37 1900 -1 167 7 230 30 230 28 0 41 -208 46 -775 3 -291 10 -685 16 -875 24 -820 29 -1194 34 -2290 2 -476 7 -998 11 -1160 4 -162 7 -327 5 -366 -1 -39 3 -82 8 -95 9 -26 6 1573 -5 2396 -4 270 -6 538 -5 597 2 59 -2 250 -9 425 -6 175 -16 536 -21 803 -5 267 -10 494 -10 505 -1 11 -1 119 -1 240 0 121 -1 274 -1 340 -3 202 23 278 51 149 14 -65 31 -475 22 -538 -3 -22 -2 -87 1 -145 3 -58 7 -221 8 -361 1 -140 6 -442 12 -670 6 -228 12 -590 14 -804 3 -256 7 -392 14 -399 8 -8 11 -7 11 3 3 71 -2 749 -5 830 -2 58 -6 220 -9 360 -2 140 -7 325 -11 410 -6 162 -17 963 -16 1135 2 171 16 263 37 242 4 -3 13 -41 21 -84 11 -59 15 -209 18 -606 2 -290 8 -639 13 -775 5 -136 9 -317 8 -402 -1 -85 2 -171 6 -190 6 -30 14 -627 23 -1600 9 -1044 18 -1682 24 -1725 6 -48 7 -46 14 43 4 51 6 96 3 100 -3 5 -7 431 -10 948 -3 516 -8 1016 -12 1109 -3 94 -7 350 -9 570 -6 577 -14 1005 -20 1042 -6 36 -19 881 -20 1313 l0 275 -23 3 c-12 2 -20 8 -16 13 9 16 75 39 109 39 21 0 35 6 39 16 8 21 -1 34 -24 34 -24 0 -136 75 -150 100 -7 12 -21 20 -37 20 -31 0 -132 55 -151 81 -10 15 -16 16 -31 7 -12 -7 -27 -8 -47 -1 -18 6 -45 6 -71 0z"/>
    <path d="M11830 9273 c-2 -60 2 -1628 5 -1883 9 -850 17 -1875 20 -2840 2 -575 5 -1094 6 -1155 l2 -110 8 75 c8 85 11 2248 4 3010 -3 278 -7 782 -10 1120 -3 338 -7 863 -10 1165 -3 303 -5 564 -5 582 0 17 -4 34 -10 38 -5 3 -10 3 -10 -2z"/>
    <path d="M11924 9233 c4 -10 10 -562 13 -1228 3 -665 6 -1307 8 -1425 2 -118 6 -658 9 -1200 7 -1310 15 -2112 21 -2118 6 -6 7 79 11 858 5 794 5 1070 -1 1655 -2 275 -7 847 -11 1270 -3 424 -7 811 -10 860 -4 110 -4 697 1 745 2 19 -2 162 -8 318 -9 230 -14 282 -25 282 -9 0 -12 -6 -8 -17z"/>
    <path d="M12035 9063 c5 -98 7 -302 5 -453 -5 -431 -5 -513 2 -1045 10 -680 26 -2959 28 -3924 0 -85 3 -151 6 -148 9 8 13 133 14 432 6 1172 5 1387 -5 2285 -5 388 -9 854 -11 1035 -4 678 -15 1772 -19 1830 -1 33 -3 84 -4 113 -1 31 -5 52 -12 52 -9 0 -10 -47 -4 -177z"/>
    <path d="M12135 9206 c-4 -10 -5 -78 -1 -152 4 -74 6 -293 5 -487 -1 -193 -1 -361 -1 -372 0 -11 3 -387 7 -835 3 -448 8 -878 10 -955 2 -77 6 -579 9 -1115 3 -536 8 -1191 10 -1455 3 -264 5 -538 6 -609 0 -71 3 -126 8 -122 4 4 9 438 11 964 2 526 4 984 5 1017 0 33 -3 335 -8 670 -4 336 -8 619 -8 630 0 11 1 67 2 125 0 58 -1 152 -5 210 -3 58 -8 382 -11 720 -12 1388 -14 1560 -22 1670 -5 76 -11 109 -17 96z"/>
    <path d="M10767 9190 c-4 -14 -6 -50 -6 -80 l1 -55 9 60 c11 70 8 116 -4 75z"/>
    <path d="M12233 9182 c3 -4 8 -484 11 -1067 3 -583 10 -1339 16 -1680 10 -703 13 -1201 11 -1981 -1 -325 2 -551 8 -565 9 -22 10 -20 12 16 1 22 4 265 7 540 3 275 5 545 6 600 0 55 -1 132 -2 170 -2 39 -3 258 -3 488 1 230 -1 422 -4 427 -3 5 -5 89 -5 187 1 98 0 185 0 193 0 8 -5 389 -10 845 -19 1691 -22 1835 -42 1835 -5 0 -7 -3 -5 -8z"/>
    <path d="M11312 9125 l1 -60 7 45 c4 25 4 52 -1 60 -5 9 -8 -8 -7 -45z"/>
    <path d="M12337 8943 c4 -126 8 -246 7 -268 -6 -466 -1 -1002 17 -2195 6 -371 12 -1222 15 -1890 2 -668 5 -1221 6 -1227 1 -7 5 -13 10 -13 11 0 13 2086 2 2950 -3 239 -7 629 -8 865 -3 377 -9 794 -21 1585 -5 270 -14 420 -27 420 -6 0 -7 -81 -1 -227z"/>
    <path d="M11088 9048 c-2 -62 -2 -387 -1 -723 2 -335 4 -619 4 -630 -1 -507 2 -763 10 -960 l1 -30 9 30 c5 17 7 134 4 260 -3 127 -7 664 -10 1195 -3 530 -7 966 -9 968 -2 1 -6 -48 -8 -110z"/>
    <path d="M12429 9156 c-2 -2 -1 -46 3 -98 4 -51 9 -394 12 -763 8 -1013 15 -1716 21 -2055 3 -168 8 -820 11 -1450 3 -630 7 -1158 9 -1175 1 -16 3 -113 4 -214 0 -101 4 -182 7 -179 7 8 7 2536 -1 3013 -3 209 -8 538 -9 730 -12 1238 -23 1898 -32 2030 -1 22 -3 68 -3 103 -1 54 -8 72 -22 58z"/>
    <path d="M11410 8973 c0 -98 -1 -362 -2 -588 -1 -225 2 -867 6 -1425 4 -558 9 -1337 10 -1730 4 -814 3 -771 16 -748 10 16 12 1164 4 1898 -4 367 -5 583 -3 660 1 30 -1 393 -4 805 -4 413 -7 875 -8 1028 -1 152 -6 277 -10 277 -5 0 -9 -80 -9 -177z"/>
    <path d="M12534 8923 c3 -120 8 -542 12 -938 3 -396 8 -873 11 -1060 8 -471 10 -664 16 -1930 6 -1193 15 -1856 26 -1867 9 -10 14 1922 6 2270 -2 67 0 178 4 245 3 67 3 147 -1 177 -4 30 -9 305 -12 610 -7 706 -14 1234 -21 1520 -5 179 -14 738 -14 860 0 114 -15 330 -23 330 -6 0 -7 -82 -4 -217z"/>
    <path d="M12631 9053 c2 -119 15 -139 20 -30 3 73 1 97 -8 97 -9 0 -13 -20 -12 -67z"/>
    <path d="M10871 9084 c0 -11 3 -14 6 -6 3 7 2 16 -1 19 -3 4 -6 -2 -5 -13z"/>
    <path d="M12736 8843 c2 -142 6 -510 9 -818 10 -892 13 -1098 19 -1300 3 -104 8 -536 10 -960 18 -2626 15 -2385 27 -2385 7 0 2 2945 -6 3275 -10 390 -13 637 -20 1325 -3 371 -8 709 -10 750 -2 41 -7 141 -11 223 -4 81 -11 147 -15 147 -4 0 -6 -116 -3 -257z"/>
    <path d="M12835 9081 c-3 -5 -1 -12 5 -16 5 -3 10 1 10 9 0 18 -6 21 -15 7z"/>
    <path d="M12923 9048 c9 -39 17 -450 23 -1323 3 -456 8 -843 11 -860 9 -56 16 -597 19 -1520 1 -506 6 -1120 9 -1365 4 -245 6 -492 6 -550 0 -58 4 -141 8 -185 8 -77 8 -73 11 70 2 83 3 164 1 180 -1 17 -4 602 -7 1300 -6 1511 -7 1645 -17 2060 -12 478 -18 821 -21 1310 -2 242 -7 544 -10 670 -6 200 -9 230 -23 233 -12 3 -14 -2 -10 -20z"/>
    <path d="M11308 9021 c-12 -50 -10 -77 3 -64 5 5 9 30 7 54 l-3 44 -7 -34z"/>
    <path d="M13029 9045 c-8 -8 3 -75 12 -75 5 0 9 18 9 40 0 36 -8 49 -21 35z"/>
    <path d="M10760 9020 c0 -11 5 -20 10 -20 6 0 10 9 10 20 0 11 -4 20 -10 20 -5 0 -10 -9 -10 -20z"/>
    <path d="M10870 8685 c0 -197 2 -356 5 -353 7 7 7 700 0 706 -3 3 -5 -156 -5 -353z"/>
    <path d="M12837 9006 c-5 -21 -6 -71 -3 -110 3 -39 9 -424 12 -856 5 -804 11 -1217 18 -1350 6 -109 17 -1269 21 -2300 4 -867 9 -1248 18 -1256 4 -4 -2 2724 -7 3166 -1 129 -6 402 -10 605 -3 204 -8 478 -9 610 -13 1048 -19 1390 -25 1455 -7 71 -8 73 -15 36z"/>
    <path d="M13125 9020 c-3 -5 -1 -10 4 -10 6 0 11 5 11 10 0 6 -2 10 -4 10 -3 0 -8 -4 -11 -10z"/>
    <path d="M10980 8900 c-6 -147 2 -404 10 -315 3 33 3 143 0 245 -5 181 -5 182 -10 70z"/>
    <path d="M13030 8925 c0 -19 5 -35 10 -35 6 0 10 16 10 35 0 19 -4 35 -10 35 -5 0 -10 -16 -10 -35z"/>
    <path d="M10652 8915 c0 -16 2 -22 5 -12 2 9 2 23 0 30 -3 6 -5 -1 -5 -18z"/>
    <path d="M10763 8820 l0 -125 9 79 c6 50 6 95 0 125 -8 39 -10 27 -9 -79z"/>
    <path d="M11305 8220 c2 -399 4 -738 3 -755 -2 -65 -2 -443 1 -1065 1 -186 10 -2596 10 -2794 1 -148 4 -267 7 -263 15 14 19 1772 8 3467 -3 470 -6 1137 -7 1482 -2 474 -6 631 -15 640 -9 9 -11 -147 -7 -712z"/>
    <path d="M13680 8903 c0 -21 4 -65 9 -98 5 -33 12 -343 16 -690 3 -346 8 -666 10 -710 6 -148 18 -738 20 -985 1 -135 4 -465 8 -735 4 -269 9 -726 12 -1015 7 -623 14 -892 25 -903 11 -12 0 1791 -14 2238 -8 235 -21 961 -22 1180 0 105 -6 388 -13 630 -6 242 -12 594 -13 783 -1 326 -2 342 -19 342 -15 0 -19 -8 -19 -37z"/>
    <path d="M12647 8898 c-8 -31 0 -1485 9 -1660 4 -81 11 -138 17 -138 13 0 -4 1804 -18 1818 -1 2 -5 -8 -8 -20z"/>
    <path d="M13786 8828 c10 -150 20 -172 17 -37 -1 75 -6 125 -12 127 -8 3 -9 -27 -5 -90z"/>
    <path d="M13874 8878 c3 -13 6 -60 6 -105 0 -46 4 -83 9 -83 6 0 9 45 8 105 -2 81 -5 105 -16 105 -9 0 -11 -7 -7 -22z"/>
    <path d="M13135 8170 c2 -703 8 -1081 21 -1475 10 -330 14 -661 18 -1760 3 -588 7 -1119 10 -1180 4 -60 9 -186 12 -280 11 -314 15 -183 8 270 -9 549 -8 500 -5 560 2 37 5 1027 4 1350 -1 276 -17 1095 -24 1200 -4 77 -10 291 -13 475 -2 184 -4 347 -5 363 -1 15 -1 35 0 45 4 68 -14 1085 -20 1117 -5 22 -7 -286 -6 -685z"/>
    <path d="M13039 8876 c-8 -8 2 -1102 17 -1861 10 -493 11 -649 17 -1790 5 -964 15 -1648 27 -1805 4 -58 6 156 4 475 -3 319 -4 643 -3 720 7 714 -2 1753 -17 2140 -9 200 -13 494 -19 1355 -5 588 -11 781 -26 766z"/>
    <path d="M13972 8860 c0 -14 2 -19 5 -12 2 6 2 18 0 25 -3 6 -5 1 -5 -13z"/>
    <path d="M10651 8854 c0 -11 3 -14 6 -6 3 7 2 16 -1 19 -3 4 -6 -2 -5 -13z"/>
    <path d="M10651 8794 c0 -11 3 -14 6 -6 3 7 2 16 -1 19 -3 4 -6 -2 -5 -13z"/>
    <path d="M13230 8799 c-1 -123 -1 -484 0 -514 1 -37 2 -38 12 -15 10 26 5 527 -6 538 -3 3 -6 -1 -6 -9z"/>
    <path d="M14410 8778 c0 -13 5 -30 10 -38 8 -12 10 -11 10 7 0 12 3 28 6 37 4 11 1 16 -10 16 -10 0 -16 -8 -16 -22z"/>
    <path d="M14505 8739 c4 -23 8 -121 10 -218 2 -97 4 -178 5 -181 9 -19 15 93 12 253 -2 161 -5 187 -18 187 -13 0 -14 -8 -9 -41z"/>
    <path d="M13981 8754 c0 -11 3 -14 6 -6 3 7 2 16 -1 19 -3 4 -6 -2 -5 -13z"/>
    <path d="M14600 8763 c-4 -81 3 -620 8 -636 4 -12 5 -69 2 -127 -3 -58 -2 -202 2 -320 3 -118 9 -359 12 -535 4 -176 9 -349 11 -385 3 -36 7 -182 10 -325 11 -653 16 -945 20 -1130 2 -110 4 -414 5 -675 1 -439 8 -746 17 -737 14 14 -1 1936 -16 1992 -4 17 -7 131 -6 255 1 124 -1 331 -6 460 -4 129 -11 354 -14 500 -3 146 -8 315 -12 375 -6 108 -9 373 -12 982 -1 183 -5 305 -11 308 -6 3 -10 3 -10 -2z"/>
    <path d="M14685 8688 c2 -35 4 -78 4 -95 1 -18 6 -33 11 -33 16 0 8 182 -7 187 -9 3 -11 -13 -8 -59z"/>
    <path d="M14768 8658 c2 -40 8 -91 12 -113 l7 -40 8 38 c10 51 -3 187 -19 187 -8 0 -11 -21 -8 -72z"/>
    <path d="M14850 8663 c0 -78 12 -183 21 -183 5 0 6 33 4 73 -2 39 -5 91 -5 115 0 23 -4 42 -10 42 -5 0 -10 -21 -10 -47z"/>
    <path d="M14939 8695 c-9 -8 0 -319 10 -350 8 -25 10 -17 11 50 5 204 -3 319 -21 300z"/>
    <path d="M10762 8670 c0 -14 2 -19 5 -12 2 6 2 18 0 25 -3 6 -5 1 -5 -13z"/>
    <path d="M10652 8660 c0 -14 2 -19 5 -12 2 6 2 18 0 25 -3 6 -5 1 -5 -13z"/>
    <path d="M10763 8570 c0 -41 2 -58 4 -37 2 20 2 54 0 75 -2 20 -4 3 -4 -38z"/>
    <path d="M13976 8609 c-3 -17 -2 -38 4 -47 7 -13 9 -5 10 31 0 54 -5 60 -14 16z"/>
    <path d="M13892 8600 c0 -19 2 -27 5 -17 2 9 2 25 0 35 -3 9 -5 1 -5 -18z"/>
    <path d="M14072 8605 c0 -16 2 -22 5 -12 2 9 2 23 0 30 -3 6 -5 -1 -5 -18z"/>
    <path d="M14336 8135 c4 -451 19 -923 30 -934 8 -8 8 57 1 299 -3 107 -3 215 1 240 4 25 4 95 1 155 -4 61 -11 245 -14 410 -4 165 -11 307 -15 315 -5 8 -7 -210 -4 -485z"/>
    <path d="M15027 8601 c-14 -67 -2 -335 14 -296 10 25 10 225 0 285 l-7 45 -7 -34z"/>
    <path d="M15270 8619 c0 -5 5 -7 10 -4 6 3 10 8 10 11 0 2 -4 4 -10 4 -5 0 -10 -5 -10 -11z"/>
    <path d="M14427 8585 c7 -49 13 -58 13 -19 0 16 -5 36 -10 44 -6 10 -7 2 -3 -25z"/>
    <path d="M14248 8399 c-3 -220 3 -639 20 -1334 20 -800 22 -888 27 -1170 12 -607 16 -945 20 -1535 4 -651 11 -870 28 -870 6 0 8 35 3 98 -3 53 -8 468 -11 922 -3 454 -9 949 -14 1100 -5 151 -10 441 -10 644 -1 203 -3 372 -6 376 -6 9 -29 807 -31 1075 -3 318 -15 889 -20 894 -2 2 -4 -88 -6 -200z"/>
    <path d="M15440 8591 c0 -6 5 -13 10 -16 6 -3 10 1 10 9 0 9 -4 16 -10 16 -5 0 -10 -4 -10 -9z"/>
    <path d="M13797 8583 c-10 -9 -9 -83 1 -83 4 0 8 20 9 45 2 47 1 49 -10 38z"/>
    <path d="M15529 8585 c-4 -5 -8 -107 -8 -225 -2 -233 -7 -298 -24 -281 -6 6 -14 92 -19 193 -5 101 -12 208 -16 238 l-8 55 -7 -65 c-13 -130 -18 -487 -8 -595 5 -60 13 -243 16 -405 3 -162 10 -434 15 -605 23 -709 34 -1174 36 -1405 4 -805 20 -1773 29 -1875 3 -35 12 -422 19 -893 4 -196 6 -226 22 -243 25 -28 36 -23 29 13 -2 18 -7 285 -10 593 -3 308 -8 652 -11 765 -3 113 -8 437 -10 720 -2 283 -6 551 -9 595 -7 107 -6 412 1 451 3 17 1 73 -5 125 -6 52 -13 218 -16 369 -3 151 -10 356 -15 455 -5 99 -12 275 -15 390 -2 116 -10 347 -16 515 -13 326 -7 485 16 440 9 -18 14 -135 20 -420 10 -566 13 -646 25 -930 20 -477 28 -878 36 -1760 6 -711 23 -1448 39 -1730 3 -52 8 -205 11 -339 2 -134 7 -247 10 -252 11 -19 26 -8 20 15 -3 13 -8 223 -11 467 -2 244 -8 559 -11 699 -3 140 -8 491 -10 780 -3 631 -29 2034 -37 2047 -3 5 -11 187 -17 404 -5 217 -13 471 -15 564 -3 94 -8 287 -11 430 -9 456 -23 720 -35 700z"/>
    <path d="M17156 8561 c-6 -8 -88 -26 -113 -24 -7 0 -29 -14 -50 -33 l-38 -34 25 -20 c21 -17 33 -20 70 -14 25 4 62 7 82 7 31 -1 45 6 73 34 19 19 35 38 35 42 0 9 -56 51 -69 51 -5 0 -12 -4 -15 -9z"/>
    <path d="M14073 8480 c0 -47 2 -66 4 -42 2 23 2 61 0 85 -2 23 -4 4 -4 -43z"/>
    <path d="M14159 8479 c-3 -139 2 -732 7 -889 10 -278 22 -230 18 71 -8 590 -14 862 -19 867 -3 3 -6 -19 -6 -49z"/>
    <path d="M14428 8453 c-2 -43 0 -82 4 -87 4 -6 8 29 8 77 0 48 -2 87 -4 87 -3 0 -6 -35 -8 -77z"/>
    <path d="M15105 8490 c-4 -23 -4 -94 1 -158 10 -164 10 -157 12 -261 4 -169 14 -87 16 126 3 232 -2 333 -14 333 -5 0 -11 -18 -15 -40z"/>
    <path d="M10980 8407 c0 -76 4 -116 10 -112 13 8 13 195 0 215 -7 10 -10 -23 -10 -103z"/>
    <path d="M13887 8504 c-4 -4 -7 -17 -7 -28 1 -19 1 -20 11 -3 11 19 8 43 -4 31z"/>
    <path d="M14781 8484 c0 -11 3 -14 6 -6 3 7 2 16 -1 19 -3 4 -6 -2 -5 -13z"/>
    <path d="M13977 8484 c-10 -11 -9 -52 2 -59 13 -8 24 32 14 50 -5 9 -12 12 -16 9z"/>
    <path d="M16011 8408 c0 -90 11 -137 24 -106 7 17 -12 188 -21 188 -2 0 -4 -37 -3 -82z"/>
    <path d="M15190 8358 c0 -148 10 -259 21 -252 10 6 12 223 3 313 -11 102 -24 69 -24 -61z"/>
    <path d="M16094 8286 c7 -242 7 -241 15 -186 10 71 1 380 -11 380 -6 0 -8 -65 -4 -194z"/>
    <path d="M16169 8466 c-8 -9 3 -106 12 -100 11 7 12 104 1 104 -5 0 -11 -2 -13 -4z"/>
    <path d="M15358 8300 c-2 -91 1 -203 5 -250 4 -47 10 -197 13 -335 6 -300 8 -372 22 -805 19 -561 21 -643 28 -980 8 -358 9 -433 17 -1240 6 -579 16 -1030 23 -1041 2 -3 4 -161 4 -350 1 -334 4 -389 20 -389 8 0 4 689 -6 925 -4 88 -8 378 -10 645 -4 831 -17 1487 -35 1930 -6 135 -12 299 -14 365 -5 223 -16 529 -21 615 -2 47 -5 231 -5 410 0 357 -12 619 -28 647 -7 13 -11 -27 -13 -147z"/>
    <path d="M15937 8443 c-10 -26 -7 -270 3 -298 12 -34 23 171 13 249 -6 52 -11 65 -16 49z"/>
    <path d="M16248 8453 c-2 -5 0 -44 3 -88 4 -67 6 -72 8 -30 2 28 4 65 6 83 2 29 -9 53 -17 35z"/>
    <path d="M15277 8398 c-10 -80 -8 -275 3 -343 5 -33 10 -106 11 -162 0 -57 5 -103 10 -103 8 0 5 541 -4 613 -7 56 -13 54 -20 -5z"/>
    <path d="M10762 8420 c0 -14 2 -19 5 -12 2 6 2 18 0 25 -3 6 -5 1 -5 -13z"/>
    <path d="M16320 8426 c0 -8 5 -18 10 -21 6 -3 10 3 10 14 0 12 -4 21 -10 21 -5 0 -10 -6 -10 -14z"/>
    <path d="M16400 8410 c0 -5 5 -10 10 -10 6 0 10 5 10 10 0 6 -4 10 -10 10 -5 0 -10 -4 -10 -10z"/>
    <path d="M15857 8390 c-15 -56 -3 -400 15 -400 5 0 7 15 4 33 -7 44 -7 127 -1 222 7 90 -6 189 -18 145z"/>
    <path d="M16480 8400 c0 -5 5 -10 10 -10 6 0 10 5 10 10 0 6 -4 10 -10 10 -5 0 -10 -4 -10 -10z"/>
    <path d="M13973 8350 c4 -14 7 -63 8 -110 1 -62 3 -76 9 -53 8 37 -2 168 -14 180 -5 4 -6 -3 -3 -17z"/>
    <path d="M14072 8000 c-1 -206 3 -474 8 -595 5 -121 12 -350 15 -510 4 -159 8 -337 10 -395 3 -106 21 -1535 29 -2315 4 -394 11 -573 22 -585 5 -4 -1 829 -12 1635 -2 198 -7 567 -9 820 -3 253 -10 550 -15 660 -6 110 -13 339 -16 510 -3 170 -8 313 -11 318 -3 5 -5 129 -5 275 0 147 -3 332 -7 412 -6 116 -8 70 -9 -230z"/>
    <path d="M14692 8240 c-1 -69 3 -132 8 -140 11 -18 12 86 0 195 -6 64 -7 59 -8 -55z"/>
    <path d="M14782 8335 c0 -16 2 -22 5 -12 2 9 2 23 0 30 -3 6 -5 -1 -5 -18z"/>
    <path d="M15772 8292 c-9 -55 -10 -100 -1 -190 6 -64 12 -118 14 -120 7 -8 14 307 7 343 l-8 40 -12 -73z"/>
    <path d="M14430 8330 c-2 -14 -3 -32 -2 -40 0 -8 4 -109 7 -225 3 -115 8 -211 11 -214 6 -6 3 266 -6 394 -3 61 -8 99 -10 85z"/>
    <path d="M15697 8315 c-9 -54 -8 -325 2 -350 l8 -20 6 20 c8 29 7 271 -1 335 l-8 55 -7 -40z"/>
    <path d="M13885 8143 c10 -410 18 -808 19 -993 3 -291 16 -939 21 -985 4 -42 11 -629 20 -1680 3 -346 10 -701 16 -788 5 -87 8 -161 5 -165 -2 -4 0 -25 5 -47 4 -22 6 208 3 525 -3 311 -7 741 -9 955 -2 215 -6 449 -9 520 -4 72 -9 369 -11 660 -3 292 -10 701 -15 910 -6 209 -13 526 -15 705 -5 382 -14 570 -26 570 -4 0 -6 -84 -4 -187z"/>
    <path d="M15621 8294 c0 -11 3 -14 6 -6 3 7 2 16 -1 19 -3 4 -6 -2 -5 -13z"/>
    <path d="M14940 8290 c0 -5 5 -10 10 -10 6 0 10 5 10 10 0 6 -4 10 -10 10 -5 0 -10 -4 -10 -10z"/>
    <path d="M14782 7928 c-1 -242 2 -369 8 -373 12 -8 12 556 0 670 -4 42 -8 -75 -8 -297z"/>
    <path d="M15030 8175 c0 -63 4 -105 10 -105 6 0 9 40 8 105 -2 58 -6 105 -10 105 -5 0 -8 -47 -8 -105z"/>
    <path d="M10980 8006 c0 -174 4 -267 11 -271 7 -5 9 75 7 260 -1 146 -6 269 -10 271 -4 3 -8 -114 -8 -260z"/>
    <path d="M13797 7938 c4 -346 16 -604 27 -615 14 -14 19 10 8 40 -7 21 -12 137 -13 337 -1 168 -3 348 -5 400 -1 52 -2 112 -3 133 -1 20 -5 37 -10 37 -5 0 -7 -139 -4 -332z"/>
    <path d="M10760 8181 c0 -45 4 -80 8 -77 8 5 5 146 -3 154 -3 3 -5 -32 -5 -77z"/>
    <path d="M14522 8079 c0 -102 4 -192 9 -200 11 -17 10 225 -1 321 -5 48 -7 15 -8 -121z"/>
    <path d="M15611 8208 c-14 -48 -13 -74 5 -358 3 -52 10 -99 15 -104 10 -11 10 265 0 414 l-6 95 -14 -47z"/>
    <path d="M10870 8011 c0 -128 3 -230 8 -228 8 6 6 446 -2 455 -3 3 -6 -99 -6 -227z"/>
    <path d="M16339 8143 c-3 -49 -2 -124 2 -168 4 -62 6 -42 7 88 1 92 0 167 -2 167 -2 0 -5 -39 -7 -87z"/>
    <path d="M13231 8204 c0 -11 3 -14 6 -6 3 7 2 16 -1 19 -3 4 -6 -2 -5 -13z"/>
    <path d="M14942 8195 c0 -16 2 -22 5 -12 2 9 2 23 0 30 -3 6 -5 -1 -5 -18z"/>
    <path d="M13236 8155 c-9 -35 1 -986 14 -1320 12 -316 17 -760 24 -2085 3 -558 7 -1033 9 -1055 2 -22 5 -71 6 -109 0 -38 4 -66 8 -63 3 4 5 141 4 304 -5 563 -6 779 -3 1093 1 173 1 455 -1 625 -2 171 -6 528 -9 795 -4 267 -11 663 -17 880 -6 217 -13 520 -16 674 -2 153 -6 280 -8 283 -3 2 -8 -8 -11 -22z"/>
    <path d="M16501 8124 c0 -11 3 -14 6 -6 3 7 2 16 -1 19 -3 4 -6 -2 -5 -13z"/>
    <path d="M14945 8120 c3 -5 8 -10 11 -10 2 0 4 5 4 10 0 6 -5 10 -11 10 -5 0 -7 -4 -4 -10z"/>
    <path d="M15941 8094 c0 -11 3 -14 6 -6 3 7 2 16 -1 19 -3 4 -6 -2 -5 -13z"/>
    <path d="M16262 8080 c0 -14 2 -19 5 -12 2 6 2 18 0 25 -3 6 -5 1 -5 -13z"/>
    <path d="M10761 8074 c0 -11 3 -14 6 -6 3 7 2 16 -1 19 -3 4 -6 -2 -5 -13z"/>
    <path d="M14873 7970 c0 -108 1 -115 7 -55 4 38 4 94 0 125 -6 42 -7 25 -7 -70z"/>
    <path d="M14962 8035 c0 -16 2 -22 5 -12 2 9 2 23 0 30 -3 6 -5 -1 -5 -18z"/>
    <path d="M16186 7876 c3 -105 7 -192 9 -195 8 -8 4 292 -5 339 -5 28 -6 -27 -4 -144z"/>
    <path d="M16021 8033 c1 -10 5 -31 9 -48 7 -27 8 -25 9 18 0 26 -3 47 -9 47 -5 0 -9 -8 -9 -17z"/>
    <path d="M13980 7906 c0 -77 4 -126 10 -126 6 0 10 46 10 119 0 69 -4 122 -10 126 -6 4 -10 -38 -10 -119z"/>
    <path d="M15213 7960 c0 -36 2 -50 4 -32 2 17 2 47 0 65 -2 17 -4 3 -4 -33z"/>
    <path d="M16490 7996 c0 -14 4 -27 8 -30 5 -3 6 8 4 25 -5 35 -12 38 -12 5z"/>
    <path d="M15941 7993 c0 -10 4 -36 8 -58 l9 -40 1 52 c0 28 -3 55 -9 58 -5 3 -10 -2 -9 -12z"/>
    <path d="M14963 7940 c0 -30 2 -43 4 -27 2 15 2 39 0 55 -2 15 -4 2 -4 -28z"/>
    <path d="M17252 7940 c0 -19 2 -27 5 -17 2 9 2 25 0 35 -3 9 -5 1 -5 -18z"/>
    <path d="M10760 7929 c0 -11 4 -18 10 -14 5 3 7 12 3 20 -7 21 -13 19 -13 -6z"/>
    <path d="M15786 7923 c10 -40 14 -41 14 -5 0 18 -5 32 -10 32 -6 0 -8 -11 -4 -27z"/>
    <path d="M16031 7904 c0 -11 3 -14 6 -6 3 7 2 16 -1 19 -3 4 -6 -2 -5 -13z"/>
    <path d="M16108 7900 c-7 -24 -3 -38 8 -28 3 4 4 17 2 30 l-3 23 -7 -25z"/>
    <path d="M14702 7875 c0 -16 2 -22 5 -12 2 9 2 23 0 30 -3 6 -5 -1 -5 -18z"/>
    <path d="M16503 7850 c0 -25 2 -35 4 -22 2 12 2 32 0 45 -2 12 -4 2 -4 -23z"/>
    <path d="M17960 7876 c0 -8 5 -18 10 -21 6 -3 10 3 10 14 0 12 -4 21 -10 21 -5 0 -10 -6 -10 -14z"/>
    <path d="M15048 7840 c2 -22 6 -40 8 -40 2 0 4 18 4 40 0 22 -3 40 -8 40 -4 0 -6 -18 -4 -40z"/>
    <path d="M15793 7830 c0 -30 2 -43 4 -27 2 15 2 39 0 55 -2 15 -4 2 -4 -28z"/>
    <path d="M16342 7860 c0 -14 2 -19 5 -12 2 6 2 18 0 25 -3 6 -5 1 -5 -13z"/>
    <path d="M15132 7850 c0 -14 2 -19 5 -12 2 6 2 18 0 25 -3 6 -5 1 -5 -13z"/>
    <path d="M15213 7815 c0 -33 2 -45 4 -27 2 18 2 45 0 60 -2 15 -4 0 -4 -33z"/>
    <path d="M16260 7863 c0 -4 5 -15 10 -23 8 -13 10 -13 10 2 0 9 -4 20 -10 23 -5 3 -10 3 -10 -2z"/>
    <path d="M17250 7777 c0 -47 4 -88 9 -91 8 -5 3 164 -5 173 -2 2 -4 -34 -4 -82z"/>
    <path d="M10763 7721 c1 -65 6 -117 10 -114 10 6 6 222 -4 228 -4 3 -6 -49 -6 -114z"/>
    <path d="M14524 7826 c-3 -8 -1 -23 5 -33 9 -15 10 -13 11 15 0 34 -7 42 -16 18z"/>
    <path d="M14872 7820 c0 -14 2 -19 5 -12 2 6 2 18 0 25 -3 6 -5 1 -5 -13z"/>
    <path d="M14703 7780 c0 -30 2 -43 4 -27 2 15 2 39 0 55 -2 15 -4 2 -4 -28z"/>
    <path d="M14958 7778 c-2 -29 -1 -80 3 -113 5 -50 6 -42 8 53 1 119 -4 147 -11 60z"/>
    <path d="M15953 7780 c0 -30 2 -43 4 -27 2 15 2 39 0 55 -2 15 -4 2 -4 -28z"/>
    <path d="M16582 7810 c0 -14 2 -19 5 -12 2 6 2 18 0 25 -3 6 -5 1 -5 -13z"/>
    <path d="M16658 7783 c-2 -10 -1 -31 3 -48 6 -26 7 -23 8 18 1 48 -3 61 -11 30z"/>
    <path d="M15041 7613 c0 -175 6 -266 19 -242 9 19 0 409 -10 409 -4 0 -8 -75 -9 -167z"/>
    <path d="M14529 7765 c-7 -11 -4 -329 5 -570 3 -88 6 -209 6 -269 0 -60 3 -106 7 -103 8 9 4 712 -5 852 -4 55 -10 96 -13 90z"/>
    <path d="M16273 7725 c0 -27 2 -38 4 -22 2 15 2 37 0 50 -2 12 -4 0 -4 -28z"/>
    <path d="M14874 7600 c0 -91 2 -128 3 -82 2 45 2 119 0 165 -1 45 -3 8 -3 -83z"/>
    <path d="M15132 7720 c0 -19 2 -27 5 -17 2 9 2 25 0 35 -3 9 -5 1 -5 -18z"/>
    <path d="M15213 7715 c0 -22 2 -30 4 -17 2 12 2 30 0 40 -3 9 -5 -1 -4 -23z"/>
    <path d="M17100 7736 c0 -9 5 -16 10 -16 6 0 10 4 10 9 0 6 -4 13 -10 16 -5 3 -10 -1 -10 -9z"/>
    <path d="M10871 7603 c0 -75 1 -134 4 -131 3 3 8 50 11 104 3 55 6 106 6 114 2 30 -2 50 -11 50 -4 0 -9 -62 -10 -137z"/>
    <path d="M14441 7730 c-8 -49 5 -739 15 -899 3 -45 9 -79 13 -75 3 5 3 149 0 319 -4 171 -8 369 -9 440 -3 119 -14 251 -19 215z"/>
    <path d="M10986 7633 c-8 -103 -1 -3841 8 -3850 3 -3 6 128 6 293 0 164 1 664 1 1109 2 1306 -1 2525 -5 2525 -2 0 -7 -35 -10 -77z"/>
    <path d="M16420 7696 c0 -9 5 -16 10 -16 6 0 10 4 10 9 0 6 -4 13 -10 16 -5 3 -10 -1 -10 -9z"/>
    <path d="M13983 7684 c-3 -8 -1 -25 5 -37 10 -20 11 -18 11 16 1 39 -5 48 -16 21z"/>
    <path d="M14704 7605 c0 -55 1 -76 3 -47 2 29 2 74 0 100 -2 26 -3 2 -3 -53z"/>
    <path d="M18251 7674 c0 -11 3 -14 6 -6 3 7 2 16 -1 19 -3 4 -6 -2 -5 -13z"/>
    <path d="M15130 7643 c-3 -23 -2 -39 3 -34 5 5 7 24 5 42 -3 33 -4 33 -8 -8z"/>
    <path d="M16270 7574 c0 -54 5 -106 10 -114 7 -10 8 21 4 95 -4 61 -8 112 -10 114 -2 2 -4 -40 -4 -95z"/>
    <path d="M17262 7650 c0 -14 2 -19 5 -12 2 6 2 18 0 25 -3 6 -5 1 -5 -13z"/>
    <path d="M15631 7644 c0 -11 3 -14 6 -6 3 7 2 16 -1 19 -3 4 -6 -2 -5 -13z"/>
    <path d="M15210 7575 c0 -43 2 -76 5 -73 7 7 8 138 1 145 -3 4 -6 -29 -6 -72z"/>
    <path d="M15718 7645 c-6 -7 1 -337 7 -344 3 -2 5 75 5 172 0 98 -1 177 -3 177 -2 0 -6 -2 -9 -5z"/>
    <path d="M16427 7643 c-3 -5 -1 -17 4 -28 7 -17 8 -17 8 8 1 27 -4 34 -12 20z"/>
    <path d="M18253 7580 c0 -41 2 -58 4 -37 2 20 2 54 0 75 -2 20 -4 3 -4 -38z"/>
    <path d="M16661 7624 c0 -11 3 -14 6 -6 3 7 2 16 -1 19 -3 4 -6 -2 -5 -13z"/>
    <path d="M10651 7585 c0 -31 2 -36 9 -23 6 10 7 25 1 40 -9 20 -10 18 -10 -17z"/>
    <path d="M13988 7615 c-8 -13 7 -313 16 -323 8 -8 6 211 -3 283 -4 28 -9 45 -13 40z"/>
    <path d="M16662 7580 c0 -14 2 -19 5 -12 2 6 2 18 0 25 -3 6 -5 1 -5 -13z"/>
    <path d="M15306 7360 c8 -519 15 -778 24 -845 5 -38 8 -149 6 -245 -2 -96 0 -260 5 -365 5 -104 9 -273 9 -375 0 -214 10 -413 20 -385 6 18 4 327 -5 530 -2 50 -6 259 -10 465 -4 206 -8 398 -10 425 -10 163 -16 342 -21 580 -3 149 -9 311 -13 360 -6 63 -7 21 -5 -145z"/>
    <path d="M16352 7565 c0 -16 2 -22 5 -12 2 9 2 23 0 30 -3 6 -5 -1 -5 -18z"/>
    <path d="M16743 7515 c0 -38 2 -53 4 -32 2 20 2 52 0 70 -2 17 -4 1 -4 -38z"/>
    <path d="M17261 7564 c0 -11 3 -14 6 -6 3 7 2 16 -1 19 -3 4 -6 -2 -5 -13z"/>
    <path d="M15881 7554 c0 -11 3 -14 6 -6 3 7 2 16 -1 19 -3 4 -6 -2 -5 -13z"/>
    <path d="M10760 7523 c0 -18 5 -33 10 -33 13 0 13 30 0 50 -7 11 -10 7 -10 -17z"/>
    <path d="M14962 7520 c0 -19 2 -27 5 -17 2 9 2 25 0 35 -3 9 -5 1 -5 -18z"/>
    <path d="M14796 7451 c2 -52 4 -117 4 -145 0 -29 4 -46 9 -40 5 5 5 57 0 124 -11 147 -19 183 -13 61z"/>
    <path d="M16662 7510 c0 -19 2 -27 5 -17 2 9 2 25 0 35 -3 9 -5 1 -5 -18z"/>
    <path d="M15882 7505 c0 -16 2 -22 5 -12 2 9 2 23 0 30 -3 6 -5 -1 -5 -18z"/>
    <path d="M18110 7487 c0 -26 4 -47 10 -47 9 0 6 78 -4 88 -3 3 -6 -16 -6 -41z"/>
    <path d="M15802 7395 c0 -86 2 -114 9 -100 7 14 7 56 1 120 l-9 100 -1 -120z"/>
    <path d="M16042 7460 c0 -25 3 -67 8 -95 7 -50 7 -50 8 20 0 39 -4 81 -8 95 -7 20 -8 17 -8 -20z"/>
    <path d="M10761 7464 c0 -11 3 -14 6 -6 3 7 2 16 -1 19 -3 4 -6 -2 -5 -13z"/>
    <path d="M14962 7450 c0 -19 2 -27 5 -17 2 9 2 25 0 35 -3 9 -5 1 -5 -18z"/>
    <path d="M15881 7454 c0 -11 3 -14 6 -6 3 7 2 16 -1 19 -3 4 -6 -2 -5 -13z"/>
    <path d="M16585 7447 c-3 -12 -2 -34 4 -47 9 -22 10 -19 10 23 1 51 -5 61 -14 24z"/>
    <path d="M16660 7453 c0 -10 5 -25 10 -33 7 -11 10 -7 10 18 0 17 -4 32 -10 32 -5 0 -10 -8 -10 -17z"/>
    <path d="M15643 7295 c-1 -93 2 -210 6 -260 7 -78 8 -66 8 85 1 96 -2 213 -7 260 -6 73 -7 60 -7 -85z"/>
    <path d="M17191 7444 c0 -11 3 -14 6 -6 3 7 2 16 -1 19 -3 4 -6 -2 -5 -13z"/>
    <path d="M15219 7420 c-2 -19 -2 -57 1 -85 l5 -50 7 57 c3 32 3 70 -1 85 l-8 28 -4 -35z"/>
    <path d="M10761 7401 c-1 -32 2 -42 10 -34 7 7 7 21 1 44 l-10 34 -1 -44z"/>
    <path d="M10871 7333 c-1 -61 3 -114 8 -117 8 -5 4 194 -4 219 -2 6 -4 -40 -4 -102z"/>
    <path d="M14710 7398 c0 -31 3 -39 10 -28 13 20 13 57 0 65 -6 4 -10 -11 -10 -37z"/>
    <path d="M15133 7424 c-3 -8 -1 -39 4 -67 l10 -52 2 68 c1 66 -4 82 -16 51z"/>
    <path d="M16901 7424 c0 -11 3 -14 6 -6 3 7 2 16 -1 19 -3 4 -6 -2 -5 -13z"/>
    <path d="M16512 7340 c0 -41 3 -95 7 -120 7 -38 9 -31 9 45 0 50 -4 104 -8 120 -6 22 -8 10 -8 -45z"/>
    <path d="M14972 7380 c0 -14 2 -19 5 -12 2 6 2 18 0 25 -3 6 -5 1 -5 -13z"/>
    <path d="M17191 7384 c0 -11 3 -14 6 -6 3 7 2 16 -1 19 -3 4 -6 -2 -5 -13z"/>
    <path d="M17342 7360 c0 -19 2 -27 5 -17 2 9 2 25 0 35 -3 9 -5 1 -5 -18z"/>
    <path d="M14179 7360 c-2 -14 -1 -90 2 -170 4 -80 8 -235 9 -345 1 -110 6 -213 10 -230 9 -36 0 661 -9 725 -5 35 -8 39 -12 20z"/>
    <path d="M14890 7377 c-9 -10 1 -207 11 -202 5 4 8 39 8 78 -1 74 -10 133 -19 124z"/>
    <path d="M15880 7373 c0 -5 5 -15 10 -23 8 -12 10 -11 10 8 0 12 -4 22 -10 22 -5 0 -10 -3 -10 -7z"/>
    <path d="M16200 7361 c0 -12 5 -21 10 -21 6 0 10 6 10 14 0 8 -4 18 -10 21 -5 3 -10 -3 -10 -14z"/>
    <path d="M16671 7364 c0 -11 3 -14 6 -6 3 7 2 16 -1 19 -3 4 -6 -2 -5 -13z"/>
    <path d="M17192 7330 c0 -19 2 -27 5 -17 2 9 2 25 0 35 -3 9 -5 1 -5 -18z"/>
    <path d="M17980 7331 c0 -17 2 -31 4 -31 8 0 13 51 5 56 -5 3 -9 -9 -9 -25z"/>
    <path d="M14976 7308 c9 -57 14 -61 14 -10 0 22 -5 44 -10 47 -7 4 -8 -8 -4 -37z"/>
    <path d="M10763 7290 c0 -30 2 -43 4 -27 2 15 2 39 0 55 -2 15 -4 2 -4 -28z"/>
    <path d="M16593 7275 c0 -38 2 -53 4 -32 2 20 2 52 0 70 -2 17 -4 1 -4 -38z"/>
    <path d="M18053 7285 c0 -33 2 -45 4 -27 2 18 2 45 0 60 -2 15 -4 0 -4 -33z"/>
    <path d="M14716 7273 c-3 -32 -4 -83 -2 -113 3 -30 5 -133 6 -229 0 -96 3 -171 7 -168 7 7 7 556 0 564 -3 2 -8 -22 -11 -54z"/>
    <path d="M15061 7251 c-1 -40 3 -61 8 -55 6 5 6 32 2 64 l-9 55 -1 -64z"/>
    <path d="M17272 7280 c0 -19 2 -27 5 -17 2 9 2 25 0 35 -3 9 -5 1 -5 -18z"/>
    <path d="M15146 6958 c2 -191 9 -358 14 -370 11 -28 1 584 -11 662 -4 32 -6 -89 -3 -292z"/>
    <path d="M17051 7284 c0 -11 3 -14 6 -6 3 7 2 16 -1 19 -3 4 -6 -2 -5 -13z"/>
    <path d="M17123 7225 c0 -44 2 -61 4 -37 2 23 2 59 0 80 -2 20 -4 1 -4 -43z"/>
    <path d="M18670 7279 c-25 -5 -53 -6 -62 -3 -26 8 -32 -32 -24 -175 10 -191 13 -201 48 -201 16 0 31 -6 34 -15 5 -13 8 -13 21 0 16 17 43 20 43 5 0 -18 138 -15 160 5 9 8 21 15 27 15 6 0 16 7 23 15 8 10 21 13 38 8 23 -5 24 -4 17 18 -4 13 -10 43 -12 67 l-5 42 41 0 41 0 0 43 c0 23 -3 59 -6 79 -6 35 -8 37 -58 43 -28 4 -58 13 -66 20 -8 8 -50 16 -92 19 -42 2 -86 9 -97 15 -11 6 -21 11 -23 10 -2 -1 -23 -5 -48 -10z m300 -309 c0 -5 -5 -10 -11 -10 -5 0 -7 5 -4 10 3 6 8 10 11 10 2 0 4 -4 4 -10z"/>
    <path d="M13817 7245 c-3 -22 -4 -114 -2 -205 1 -91 8 -430 14 -755 7 -324 14 -777 16 -1005 12 -1255 23 -1971 31 -1979 10 -10 10 196 1 1044 -4 369 -10 936 -13 1260 -9 886 -11 972 -18 1075 -4 52 -7 199 -8 325 -2 235 -9 319 -21 240z"/>
    <path d="M14002 7058 c-1 -133 2 -208 8 -208 12 0 12 187 1 325 -7 75 -8 54 -9 -117z"/>
    <path d="M15222 7225 c0 -16 2 -22 5 -12 2 9 2 23 0 30 -3 6 -5 -1 -5 -18z"/>
    <path d="M15801 7215 c0 -31 2 -36 9 -23 6 10 7 25 1 40 -9 20 -10 18 -10 -17z"/>
    <path d="M17343 7210 c0 -25 2 -35 4 -22 2 12 2 32 0 45 -2 12 -4 2 -4 -23z"/>
    <path d="M16362 7175 c0 -38 3 -92 8 -120 6 -44 7 -39 7 40 1 50 -3 104 -7 120 -6 22 -8 12 -8 -40z"/>
    <path d="M14801 7214 c0 -11 3 -14 6 -6 3 7 2 16 -1 19 -3 4 -6 -2 -5 -13z"/>
    <path d="M16445 7170 c2 -36 4 -119 4 -184 1 -66 4 -117 7 -113 9 9 4 288 -5 327 -8 29 -9 23 -6 -30z"/>
    <path d="M17274 7120 c0 -58 1 -81 3 -52 2 28 2 76 0 105 -2 28 -3 5 -3 -53z"/>
    <path d="M10760 7107 c0 -58 4 -108 9 -112 9 -5 4 204 -5 214 -2 2 -4 -43 -4 -102z"/>
    <path d="M14984 7065 c0 -77 2 -107 3 -67 2 40 2 103 0 140 -2 37 -3 4 -3 -73z"/>
    <path d="M16601 7174 c0 -11 3 -14 6 -6 3 7 2 16 -1 19 -3 4 -6 -2 -5 -13z"/>
    <path d="M10870 7161 c0 -12 5 -21 10 -21 6 0 10 6 10 14 0 8 -4 18 -10 21 -5 3 -10 -3 -10 -14z"/>
    <path d="M14361 7145 c1 -40 1 -40 11 -12 7 21 7 32 -1 40 -8 8 -11 0 -10 -28z"/>
    <path d="M14801 7115 c0 -48 3 -64 9 -50 5 11 9 34 9 50 0 17 -4 39 -9 50 -6 14 -9 -2 -9 -50z"/>
    <path d="M15224 7148 c3 -18 8 -93 10 -167 3 -74 8 -136 11 -140 7 -6 4 231 -3 297 -2 23 -8 42 -14 42 -5 0 -7 -15 -4 -32z"/>
    <path d="M15973 7110 c0 -30 2 -43 4 -27 2 15 2 39 0 55 -2 15 -4 2 -4 -28z"/>
    <path d="M19120 7128 c0 -23 3 -29 9 -19 8 12 4 51 -5 51 -2 0 -4 -15 -4 -32z"/>
    <path d="M16604 7060 c0 -52 1 -74 3 -47 2 26 2 68 0 95 -2 26 -3 4 -3 -48z"/>
    <path d="M14893 7055 c0 -38 2 -53 4 -32 2 20 2 52 0 70 -2 17 -4 1 -4 -38z"/>
    <path d="M15801 7110 c0 -8 4 -24 9 -35 l9 -20 0 20 c0 11 -4 27 -9 35 -9 13 -10 13 -9 0z"/>
    <path d="M10543 7060 c0 -25 2 -35 4 -22 2 12 2 32 0 45 -2 12 -4 2 -4 -23z"/>
    <path d="M10872 6902 c-1 -111 2 -183 8 -187 11 -7 12 304 1 344 -4 14 -8 -57 -9 -157z"/>
    <path d="M18202 7050 c0 -19 2 -27 5 -17 2 9 2 25 0 35 -3 9 -5 1 -5 -18z"/>
    <path d="M12657 7056 c-3 -8 -2 -55 3 -105 6 -53 6 -100 1 -114 -5 -13 -5 -58 0 -107 5 -47 9 -191 9 -320 -2 -458 11 -2519 17 -2755 3 -132 8 -243 12 -248 8 -8 7 2426 -1 3098 -3 242 -9 466 -13 498 -8 58 -18 78 -28 53z"/>
    <path d="M16051 6905 c0 -93 4 -188 8 -210 5 -26 8 29 8 150 0 105 -3 199 -8 210 -4 11 -8 -53 -8 -150z"/>
    <path d="M16290 6990 c0 -46 3 -81 6 -77 7 7 6 148 -1 156 -3 2 -5 -33 -5 -79z"/>
    <path d="M15732 7040 c0 -14 2 -19 5 -12 2 6 2 18 0 25 -3 6 -5 1 -5 -13z"/>
    <path d="M17421 7044 c0 -11 3 -14 6 -6 3 7 2 16 -1 19 -3 4 -6 -2 -5 -13z"/>
    <path d="M17567 7045 c-4 -8 -2 -17 3 -20 6 -4 10 3 10 14 0 25 -6 27 -13 6z"/>
    <path d="M10651 7024 c0 -11 3 -14 6 -6 3 7 2 16 -1 19 -3 4 -6 -2 -5 -13z"/>
    <path d="M14364 6920 c3 -69 8 -276 11 -460 3 -184 10 -544 15 -800 6 -256 13 -775 16 -1155 5 -678 9 -873 16 -880 6 -6 1 1447 -6 1745 -4 162 -12 552 -18 865 -12 671 -16 787 -29 800 -7 7 -8 -33 -5 -115z"/>
    <path d="M14807 6787 c1 -129 5 -240 7 -248 3 -8 7 -178 10 -379 4 -201 8 -383 9 -405 2 -22 7 -407 12 -855 4 -448 12 -826 16 -840 14 -41 0 1332 -21 2115 -6 231 -13 516 -16 633 -3 116 -8 212 -12 212 -4 0 -6 -105 -5 -233z"/>
    <path d="M15812 6970 c0 -14 2 -19 5 -12 2 6 2 18 0 25 -3 6 -5 1 -5 -13z"/>
    <path d="M10767 6963 c-10 -36 -8 -113 3 -113 6 0 10 26 10 65 0 65 -5 81 -13 48z"/>
    <path d="M15060 6960 c0 -5 5 -10 10 -10 6 0 10 5 10 10 0 6 -4 10 -10 10 -5 0 -10 -4 -10 -10z"/>
    <path d="M19992 6910 c0 -19 2 -27 5 -17 2 9 2 25 0 35 -3 9 -5 1 -5 -18z"/>
    <path d="M15649 6914 c-2 -86 4 -240 10 -247 4 -4 5 53 3 125 -2 73 -6 135 -8 137 -2 2 -4 -4 -5 -15z"/>
    <path d="M17270 6814 c0 -103 9 -160 23 -144 6 7 -10 250 -17 257 -3 4 -6 -47 -6 -113z"/>
    <path d="M15891 6904 c0 -11 3 -14 6 -6 3 7 2 16 -1 19 -3 4 -6 -2 -5 -13z"/>
    <path d="M15811 6874 c0 -11 3 -14 6 -6 3 7 2 16 -1 19 -3 4 -6 -2 -5 -13z"/>
    <path d="M14982 6850 c0 -14 2 -19 5 -12 2 6 2 18 0 25 -3 6 -5 1 -5 -13z"/>
    <path d="M18272 6840 c0 -19 2 -27 5 -17 2 9 2 25 0 35 -3 9 -5 1 -5 -18z"/>
    <path d="M15065 6818 c-3 -18 -1 -64 4 -103 l8 -70 1 103 c0 56 -1 102 -3 102 -2 0 -7 -15 -10 -32z"/>
    <path d="M19991 6834 c0 -11 3 -14 6 -6 3 7 2 16 -1 19 -3 4 -6 -2 -5 -13z"/>
    <path d="M16216 6831 c-9 -14 -5 -147 5 -162 5 -9 9 22 9 79 0 89 -2 102 -14 83z"/>
    <path d="M16293 6824 c-3 -8 -1 -20 6 -27 8 -8 11 -4 11 16 0 30 -7 35 -17 11z"/>
    <path d="M10651 6814 c0 -11 3 -14 6 -6 3 7 2 16 -1 19 -3 4 -6 -2 -5 -13z"/>
    <path d="M15238 6812 c-5 -17 4 -297 12 -371 0 -3 4 -1 9 5 7 7 -1 259 -12 364 l-2 25 -7 -23z"/>
    <path d="M16450 6707 c0 -77 4 -127 10 -127 10 0 4 239 -6 249 -2 2 -4 -53 -4 -122z"/>
    <path d="M17202 6810 c0 -14 2 -19 5 -12 2 6 2 18 0 25 -3 6 -5 1 -5 -13z"/>
    <path d="M14556 6470 c3 -405 2 -360 15 -360 13 0 4 603 -10 665 -6 26 -8 -82 -5 -305z"/>
    <path d="M10761 6750 c1 -27 6 -47 10 -44 12 7 11 94 -1 94 -5 0 -9 -22 -9 -50z"/>
    <path d="M16531 6689 c0 -63 4 -123 9 -134 5 -12 6 34 3 110 -3 72 -7 132 -9 134 -2 2 -4 -47 -3 -110z"/>
    <path d="M14012 6765 c0 -16 2 -22 5 -12 2 9 2 23 0 30 -3 6 -5 -1 -5 -18z"/>
    <path d="M14899 6764 c-5 -147 8 -324 23 -324 8 0 9 28 4 88 -4 48 -9 125 -13 172 -6 87 -12 116 -14 64z"/>
    <path d="M14984 6689 c3 -51 8 -95 11 -97 3 -3 5 36 5 86 0 55 -4 93 -11 98 -8 4 -9 -21 -5 -87z"/>
    <path d="M15730 6754 c0 -8 5 -12 10 -9 6 4 8 11 5 16 -9 14 -15 11 -15 -7z"/>
    <path d="M17201 6734 c0 -11 3 -14 6 -6 3 7 2 16 -1 19 -3 4 -6 -2 -5 -13z"/>
    <path d="M15818 6728 c-2 -7 -1 -33 3 -58 l6 -45 1 58 c2 55 -2 71 -10 45z"/>
    <path d="M14011 6643 c-1 -50 3 -94 8 -97 15 -10 18 49 5 121 l-12 68 -1 -92z"/>
    <path d="M14464 6518 c3 -117 8 -411 11 -653 3 -242 8 -468 10 -502 3 -35 5 -327 7 -650 1 -324 5 -669 9 -768 4 -99 11 -295 14 -435 4 -140 10 -257 12 -260 3 -3 2 132 -1 300 -4 168 -8 618 -10 1000 -2 382 -8 922 -14 1200 -6 278 -12 561 -12 630 -2 184 -12 350 -21 350 -5 0 -7 -96 -5 -212z"/>
    <path d="M11096 6692 c-2 -4 -5 -57 -6 -117 -3 -173 10 -1628 14 -1632 10 -10 16 434 12 817 -3 234 -5 541 -6 683 0 141 -2 257 -5 257 -2 0 -6 -3 -9 -8z"/>
    <path d="M17136 6603 c3 -54 7 -100 10 -102 2 -2 4 39 4 92 0 53 -4 98 -9 102 -6 3 -8 -33 -5 -92z"/>
    <path d="M16691 6674 c0 -11 3 -14 6 -6 3 7 2 16 -1 19 -3 4 -6 -2 -5 -13z"/>
    <path d="M10761 6635 l1 -50 8 40 c5 22 4 44 -1 50 -5 5 -9 -11 -8 -40z"/>
    <path d="M15741 6628 c-1 -33 3 -58 9 -58 12 0 12 67 0 95 -6 14 -9 4 -9 -37z"/>
    <path d="M10870 6494 c0 -98 0 -314 0 -479 1 -165 2 -519 3 -786 0 -267 4 -495 8 -505 4 -10 8 69 9 176 4 693 -5 1758 -14 1768 -3 3 -6 -75 -6 -174z"/>
    <path d="M17421 6633 c1 -43 13 -81 21 -67 9 13 -3 104 -13 104 -5 0 -9 -17 -8 -37z"/>
    <path d="M19071 6644 c0 -11 3 -14 6 -6 3 7 2 16 -1 19 -3 4 -6 -2 -5 -13z"/>
    <path d="M15662 6630 c0 -14 2 -19 5 -12 2 6 2 18 0 25 -3 6 -5 1 -5 -13z"/>
    <path d="M16693 6590 c0 -36 2 -50 4 -32 2 17 2 47 0 65 -2 17 -4 3 -4 -33z"/>
    <path d="M16986 6588 c9 -84 14 -86 14 -5 0 40 -4 67 -10 67 -7 0 -9 -21 -4 -62z"/>
    <path d="M16142 6620 c0 -14 2 -19 5 -12 2 6 2 18 0 25 -3 6 -5 1 -5 -13z"/>
    <path d="M14735 6280 c5 -420 16 -680 27 -680 5 0 7 33 4 78 -3 42 -9 259 -12 482 -4 223 -10 414 -15 425 -5 11 -7 -124 -4 -305z"/>
    <path d="M16300 6580 c0 -5 5 -10 11 -10 5 0 7 5 4 10 -3 6 -8 10 -11 10 -2 0 -4 -4 -4 -10z"/>
    <path d="M14996 6240 c3 -190 7 -383 9 -430 2 -47 5 -159 5 -250 0 -126 3 -160 12 -146 8 14 9 83 4 235 -4 119 -9 365 -12 546 -2 182 -8 344 -13 360 -6 19 -8 -97 -5 -315z"/>
    <path d="M15072 6454 c0 -130 4 -168 17 -160 10 7 3 268 -8 279 -5 5 -9 -40 -9 -119z"/>
    <path d="M15671 6554 c0 -11 3 -14 6 -6 3 7 2 16 -1 19 -3 4 -6 -2 -5 -13z"/>
    <path d="M19072 6550 c0 -14 2 -19 5 -12 2 6 2 18 0 25 -3 6 -5 1 -5 -13z"/>
    <path d="M14203 6505 c0 -33 2 -45 4 -27 2 18 2 45 0 60 -2 15 -4 0 -4 -33z"/>
    <path d="M15160 6404 c0 -161 11 -223 25 -148 15 79 3 280 -18 300 -4 4 -7 -64 -7 -152z"/>
    <path d="M16229 6529 c-2 -81 3 -145 12 -154 7 -7 9 21 5 84 -5 93 -15 135 -17 70z"/>
    <path d="M10763 6515 c0 -22 2 -30 4 -17 2 12 2 30 0 40 -3 9 -5 -1 -4 -23z"/>
    <path d="M16073 6500 c0 -30 2 -43 4 -27 2 15 2 39 0 55 -2 15 -4 2 -4 -28z"/>
    <path d="M17362 6520 c0 -14 2 -19 5 -12 2 6 2 18 0 25 -3 6 -5 1 -5 -13z"/>
    <path d="M16318 6140 c2 -217 7 -398 11 -402 8 -9 2 632 -7 724 -4 40 -6 -105 -4 -322z"/>
    <path d="M16542 6495 c0 -16 2 -22 5 -12 2 9 2 23 0 30 -3 6 -5 -1 -5 -18z"/>
    <path d="M16922 6500 c0 -14 2 -19 5 -12 2 6 2 18 0 25 -3 6 -5 1 -5 -13z"/>
    <path d="M14017 6497 c-3 -8 -3 -102 -1 -208 3 -107 6 -329 9 -494 2 -165 4 -313 5 -330 l1 -30 10 25 c12 29 1 1016 -11 1039 -6 11 -8 11 -13 -2z"/>
    <path d="M10651 6484 c0 -11 3 -14 6 -6 3 7 2 16 -1 19 -3 4 -6 -2 -5 -13z"/>
    <path d="M15744 6480 c2 -14 5 -33 5 -42 1 -10 5 -18 11 -18 11 0 2 60 -12 75 -5 6 -7 0 -4 -15z"/>
    <path d="M16472 6475 c0 -16 2 -22 5 -12 2 9 2 23 0 30 -3 6 -5 -1 -5 -18z"/>
    <path d="M15664 6453 c3 -21 6 -105 7 -188 1 -109 4 -138 10 -105 9 55 11 255 3 299 -9 45 -28 39 -20 -6z"/>
    <path d="M17441 6474 c0 -11 3 -14 6 -6 3 7 2 16 -1 19 -3 4 -6 -2 -5 -13z"/>
    <path d="M10760 6435 c1 -26 2 -28 11 -12 8 14 8 22 0 30 -8 8 -11 3 -11 -18z"/>
    <path d="M17073 6420 c0 -25 2 -35 4 -22 2 12 2 32 0 45 -2 12 -4 2 -4 -23z"/>
    <path d="M15994 6415 c3 -22 6 -85 6 -139 0 -55 3 -97 6 -93 10 10 4 239 -7 256 -8 12 -9 5 -5 -24z"/>
    <path d="M17942 6420 c0 -19 2 -27 5 -17 2 9 2 25 0 35 -3 9 -5 1 -5 -18z"/>
    <path d="M16071 6424 c0 -11 3 -14 6 -6 3 7 2 16 -1 19 -3 4 -6 -2 -5 -13z"/>
    <path d="M14200 6282 c0 -100 3 -151 10 -147 13 8 13 265 0 285 -6 10 -10 -36 -10 -138z"/>
    <path d="M15842 6410 c0 -14 2 -19 5 -12 2 6 2 18 0 25 -3 6 -5 1 -5 -13z"/>
    <path d="M16473 6335 c0 -79 1 -89 6 -47 4 30 4 75 0 100 -4 34 -6 19 -6 -53z"/>
    <path d="M17521 6371 c0 -37 3 -61 8 -55 4 5 5 34 1 64 l-7 55 -2 -64z"/>
    <path d="M16151 6408 c1 -7 5 -24 9 -38 8 -24 8 -24 9 7 1 17 -3 35 -9 38 -5 3 -10 0 -9 -7z"/>
    <path d="M17453 6375 c0 -27 2 -38 4 -22 2 15 2 37 0 50 -2 12 -4 0 -4 -28z"/>
    <path d="M15923 6360 c0 -30 2 -43 4 -27 2 15 2 39 0 55 -2 15 -4 2 -4 -28z"/>
    <path d="M16542 6390 c0 -14 2 -19 5 -12 2 6 2 18 0 25 -3 6 -5 1 -5 -13z"/>
    <path d="M17228 6375 c2 -19 6 -35 8 -35 2 0 4 16 4 35 0 19 -4 35 -8 35 -4 0 -6 -16 -4 -35z"/>
    <path d="M17372 6385 c0 -16 2 -22 5 -12 2 9 2 23 0 30 -3 6 -5 -1 -5 -18z"/>
    <path d="M10761 6384 c0 -11 3 -14 6 -6 3 7 2 16 -1 19 -3 4 -6 -2 -5 -13z"/>
    <path d="M15757 6291 c-6 -91 1 -300 9 -310 2 -2 4 89 4 202 0 114 -2 207 -3 207 -2 0 -7 -45 -10 -99z"/>
    <path d="M16084 6290 c0 -58 1 -81 3 -52 2 28 2 76 0 105 -2 28 -3 5 -3 -53z"/>
    <path d="M16404 6260 c0 -63 1 -89 3 -57 2 31 2 83 0 115 -2 31 -3 5 -3 -58z"/>
    <path d="M16920 6350 c0 -8 5 -22 10 -30 9 -13 10 -13 10 0 0 8 -5 22 -10 30 -9 13 -10 13 -10 0z"/>
    <path d="M14908 6218 c-3 -129 -1 -148 13 -148 5 0 9 61 9 135 0 78 -4 135 -9 135 -6 0 -11 -55 -13 -122z"/>
    <path d="M17070 6306 c0 -8 5 -18 10 -21 6 -3 10 1 10 9 0 8 -4 18 -10 21 -5 3 -10 -1 -10 -9z"/>
    <path d="M17370 6298 c0 -13 5 -30 10 -38 7 -11 10 -5 10 23 0 20 -4 37 -10 37 -5 0 -10 -10 -10 -22z"/>
    <path d="M17453 6275 c0 -27 2 -38 4 -22 2 15 2 37 0 50 -2 12 -4 0 -4 -28z"/>
    <path d="M15251 6173 c1 -71 5 -141 9 -158 5 -18 8 33 9 128 1 99 -3 157 -9 157 -6 0 -10 -48 -9 -127z"/>
    <path d="M15840 6240 c0 -25 4 -39 10 -35 6 3 10 19 10 35 0 16 -4 32 -10 35 -6 4 -10 -10 -10 -35z"/>
    <path d="M16861 6264 c0 -11 3 -14 6 -6 3 7 2 16 -1 19 -3 4 -6 -2 -5 -13z"/>
    <path d="M16162 6250 c0 -14 2 -19 5 -12 2 6 2 18 0 25 -3 6 -5 1 -5 -13z"/>
    <path d="M17672 6230 c0 -14 2 -19 5 -12 2 6 2 18 0 25 -3 6 -5 1 -5 -13z"/>
    <path d="M17812 6220 c0 -14 2 -19 5 -12 2 6 2 18 0 25 -3 6 -5 1 -5 -13z"/>
    <path d="M15923 6165 c0 -33 2 -45 4 -27 2 18 2 45 0 60 -2 15 -4 0 -4 -33z"/>
    <path d="M17387 6025 c2 -109 6 -201 9 -204 7 -7 2 257 -6 334 -5 42 -6 -9 -3 -130z"/>
    <path d="M15170 6206 c-6 -5 -3 -148 4 -246 2 -30 5 -115 5 -187 1 -73 5 -133 10 -133 5 0 7 74 5 178 -6 216 -17 396 -24 388z"/>
    <path d="M16163 6155 c0 -33 2 -45 4 -27 2 18 2 45 0 60 -2 15 -4 0 -4 -33z"/>
    <path d="M16241 6160 c1 -55 1 -55 9 -15 4 22 4 47 -1 55 -5 10 -8 -5 -8 -40z"/>
    <path d="M16713 6150 c0 -25 2 -35 4 -22 2 12 2 32 0 45 -2 12 -4 2 -4 -23z"/>
    <path d="M16470 6043 c0 -75 2 -134 5 -131 9 8 11 268 3 268 -5 0 -8 -61 -8 -137z"/>
    <path d="M16631 6120 l1 -45 10 34 c6 23 6 37 -1 44 -8 8 -11 -2 -10 -33z"/>
    <path d="M10761 6105 l1 -50 9 39 c6 26 6 43 -1 50 -7 7 -10 -6 -9 -39z"/>
    <path d="M16001 6134 c0 -11 3 -14 6 -6 3 7 2 16 -1 19 -3 4 -6 -2 -5 -13z"/>
    <path d="M19221 6128 c1 -13 5 -34 9 -48 7 -21 8 -19 9 17 1 23 -3 45 -9 48 -6 3 -10 -4 -9 -17z"/>
    <path d="M15084 6030 c3 -47 6 -107 6 -134 0 -27 3 -46 7 -42 11 10 3 228 -9 246 -6 10 -7 -13 -4 -70z"/>
    <path d="M17163 6055 c0 -33 2 -45 4 -27 2 18 2 45 0 60 -2 15 -4 0 -4 -33z"/>
    <path d="M15845 6090 c3 -5 8 -10 11 -10 2 0 4 5 4 10 0 6 -5 10 -11 10 -5 0 -7 -4 -4 -10z"/>
    <path d="M14571 6064 c0 -11 3 -14 6 -6 3 7 2 16 -1 19 -3 4 -6 -2 -5 -13z"/>
    <path d="M16632 6050 c0 -14 2 -19 5 -12 2 6 2 18 0 25 -3 6 -5 1 -5 -13z"/>
    <path d="M17313 6035 c0 -22 2 -30 4 -17 2 12 2 30 0 40 -3 9 -5 -1 -4 -23z"/>
    <path d="M10760 5880 c0 -90 3 -161 6 -157 8 8 8 307 0 314 -3 4 -6 -67 -6 -157z"/>
    <path d="M15923 6005 c0 -22 2 -30 4 -17 2 12 2 30 0 40 -3 9 -5 -1 -4 -23z"/>
    <path d="M16001 6024 c0 -11 3 -14 6 -6 3 7 2 16 -1 19 -3 4 -6 -2 -5 -13z"/>
    <path d="M16862 6020 c0 -14 2 -19 5 -12 2 6 2 18 0 25 -3 6 -5 1 -5 -13z"/>
    <path d="M16240 6011 c0 -25 6 -27 13 -6 4 8 2 17 -3 20 -6 4 -10 -3 -10 -14z"/>
    <path d="M16631 6004 c0 -11 3 -14 6 -6 3 7 2 16 -1 19 -3 4 -6 -2 -5 -13z"/>
    <path d="M14915 5933 c2 -43 7 -258 11 -478 4 -220 8 -416 9 -435 1 -19 2 -190 3 -379 1 -189 4 -342 7 -339 20 20 -5 1708 -25 1708 -5 0 -7 -35 -5 -77z"/>
    <path d="M17461 5994 c0 -11 3 -14 6 -6 3 7 2 16 -1 19 -3 4 -6 -2 -5 -13z"/>
    <path d="M16080 5973 c0 -13 5 -23 10 -23 13 0 13 11 0 30 -8 12 -10 11 -10 -7z"/>
    <path d="M16551 5950 c0 -33 1 -34 10 -11 6 16 6 28 -1 35 -7 7 -10 -1 -9 -24z"/>
    <path d="M17310 5951 c0 -17 5 -31 10 -31 6 0 10 11 10 24 0 14 -4 28 -10 31 -6 4 -10 -7 -10 -24z"/>
    <path d="M15681 5954 c0 -11 3 -14 6 -6 3 7 2 16 -1 19 -3 4 -6 -2 -5 -13z"/>
    <path d="M17011 5906 c-1 -42 2 -57 9 -50 8 8 8 27 2 60 l-10 49 -1 -59z"/>
    <path d="M14209 5944 c-1 -16 0 -166 6 -844 5 -626 12 -916 21 -907 7 7 7 509 0 1022 -10 679 -11 723 -19 731 -4 4 -7 3 -8 -2z"/>
    <path d="M15261 5934 c0 -11 3 -14 6 -6 3 7 2 16 -1 19 -3 4 -6 -2 -5 -13z"/>
    <path d="M16630 5915 c0 -19 4 -35 8 -35 4 0 6 16 4 35 -2 19 -6 35 -8 35 -2 0 -4 -16 -4 -35z"/>
    <path d="M19923 5915 c0 -22 2 -30 4 -17 2 12 2 30 0 40 -3 9 -5 -1 -4 -23z"/>
    <path d="M16712 5920 c0 -14 2 -19 5 -12 2 6 2 18 0 25 -3 6 -5 1 -5 -13z"/>
    <path d="M17460 5911 c0 -17 5 -31 10 -31 6 0 10 11 10 24 0 14 -4 28 -10 31 -6 4 -10 -7 -10 -24z"/>
    <path d="M14576 5415 c3 -286 8 -751 10 -1034 2 -283 6 -516 9 -519 18 -19 2 2011 -16 2052 -6 13 -7 -180 -3 -499z"/>
    <path d="M15683 5807 c3 -66 8 -122 12 -125 3 -4 4 46 2 111 -2 64 -7 120 -11 124 -5 5 -6 -45 -3 -110z"/>
    <path d="M16160 5873 c0 -21 5 -45 10 -53 7 -11 10 0 10 38 0 28 -4 52 -10 52 -5 0 -10 -17 -10 -37z"/>
    <path d="M16561 5884 c0 -11 3 -14 6 -6 3 7 2 16 -1 19 -3 4 -6 -2 -5 -13z"/>
    <path d="M17160 5888 c0 -7 5 -20 10 -28 8 -12 10 -11 10 7 0 12 -4 25 -10 28 -5 3 -10 0 -10 -7z"/>
    <path d="M17323 5835 c0 -38 2 -53 4 -32 2 20 2 52 0 70 -2 17 -4 1 -4 -38z"/>
    <path d="M10652 5870 c0 -14 2 -19 5 -12 2 6 2 18 0 25 -3 6 -5 1 -5 -13z"/>
    <path d="M16401 5874 c0 -11 3 -14 6 -6 3 7 2 16 -1 19 -3 4 -6 -2 -5 -13z"/>
    <path d="M17092 5860 c0 -14 2 -19 5 -12 2 6 2 18 0 25 -3 6 -5 1 -5 -13z"/>
    <path d="M16941 5854 c0 -11 3 -14 6 -6 3 7 2 16 -1 19 -3 4 -6 -2 -5 -13z"/>
    <path d="M18982 5810 c0 -55 1 -61 10 -37 6 18 7 40 0 65 -9 35 -10 33 -10 -28z"/>
    <path d="M16560 5792 c0 -39 4 -73 9 -77 9 -5 4 134 -5 144 -2 2 -4 -28 -4 -67z"/>
    <path d="M13560 5845 c-5 -275 8 -2023 15 -2035 3 -4 5 -117 6 -251 1 -134 5 -253 10 -264 5 -12 7 128 3 335 -3 195 -4 396 -2 445 1 50 2 133 2 185 -1 52 -3 427 -5 832 -3 571 -7 740 -17 750 -6 6 -12 8 -12 3z"/>
    <path d="M15261 5824 c0 -11 3 -14 6 -6 3 7 2 16 -1 19 -3 4 -6 -2 -5 -13z"/>
    <path d="M15090 5816 c0 -9 5 -16 10 -16 6 0 10 4 10 9 0 6 -4 13 -10 16 -5 3 -10 -1 -10 -9z"/>
    <path d="M19994 5685 c0 -82 2 -115 3 -72 2 43 2 110 0 150 -1 40 -3 5 -3 -78z"/>
    <path d="M17091 5804 c0 -11 3 -14 6 -6 3 7 2 16 -1 19 -3 4 -6 -2 -5 -13z"/>
    <path d="M15764 5784 c3 -9 6 -41 6 -72 1 -43 3 -53 11 -40 8 14 8 49 0 121 -1 4 -6 7 -12 7 -6 0 -8 -7 -5 -16z"/>
    <path d="M16011 5784 c0 -11 3 -14 6 -6 3 7 2 16 -1 19 -3 4 -6 -2 -5 -13z"/>
    <path d="M15260 5776 c0 -8 5 -18 10 -21 6 -3 10 3 10 14 0 12 -4 21 -10 21 -5 0 -10 -6 -10 -14z"/>
    <path d="M16401 5774 c0 -11 3 -14 6 -6 3 7 2 16 -1 19 -3 4 -6 -2 -5 -13z"/>
    <path d="M16941 5774 c0 -11 3 -14 6 -6 3 7 2 16 -1 19 -3 4 -6 -2 -5 -13z"/>
    <path d="M18102 5770 c0 -14 2 -19 5 -12 2 6 2 18 0 25 -3 6 -5 1 -5 -13z"/>
    <path d="M16252 5650 c0 -67 3 -95 8 -78 4 14 4 61 0 105 l-7 78 -1 -105z"/>
    <path d="M15941 5724 c0 -11 3 -14 6 -6 3 7 2 16 -1 19 -3 4 -6 -2 -5 -13z"/>
    <path d="M15271 5435 c1 -165 5 -309 9 -320 4 -11 5 122 3 295 -3 173 -7 317 -9 320 -3 2 -4 -131 -3 -295z"/>
    <path d="M18032 5710 c0 -14 2 -19 5 -12 2 6 2 18 0 25 -3 6 -5 1 -5 -13z"/>
    <path d="M16336 5421 c2 -167 6 -307 9 -310 9 -8 4 517 -5 569 -4 25 -6 -92 -4 -259z"/>
    <path d="M16492 5700 c0 -14 2 -19 5 -12 2 6 2 18 0 25 -3 6 -5 1 -5 -13z"/>
    <path d="M16654 5410 c0 -173 2 -244 3 -157 2 86 2 228 0 315 -1 86 -3 15 -3 -158z"/>
    <path d="M10761 5593 c0 -75 4 -111 9 -98 12 28 12 203 0 210 -6 4 -10 -36 -9 -112z"/>
    <path d="M16171 5643 c0 -39 2 -74 7 -76 4 -3 6 18 4 46 -5 92 -9 104 -11 30z"/>
    <path d="M15930 5645 c0 -14 5 -25 10 -25 6 0 10 11 10 25 0 14 -4 25 -10 25 -5 0 -10 -11 -10 -25z"/>
    <path d="M18853 5615 c0 -33 2 -45 4 -27 2 18 2 45 0 60 -2 15 -4 0 -4 -33z"/>
    <path d="M15102 5640 c0 -14 2 -19 5 -12 2 6 2 18 0 25 -3 6 -5 1 -5 -13z"/>
    <path d="M19052 5625 c0 -16 2 -22 5 -12 2 9 2 23 0 30 -3 6 -5 -1 -5 -18z"/>
    <path d="M16010 5625 c0 -8 5 -15 10 -15 6 0 10 7 10 15 0 8 -4 15 -10 15 -5 0 -10 -7 -10 -15z"/>
    <path d="M18037 5620 c3 -11 7 -20 9 -20 2 0 4 9 4 20 0 11 -4 20 -9 20 -5 0 -7 -9 -4 -20z"/>
    <path d="M15771 5583 c0 -28 4 -55 9 -58 11 -7 11 35 0 80 -7 26 -8 23 -9 -22z"/>
    <path d="M16413 5585 c0 -22 2 -30 4 -17 2 12 2 30 0 40 -3 9 -5 -1 -4 -23z"/>
    <path d="M18988 5573 c7 -65 12 -67 12 -5 0 29 -4 52 -9 52 -5 0 -6 -21 -3 -47z"/>
    <path d="M15193 5560 c0 -30 2 -43 4 -27 2 15 2 39 0 55 -2 15 -4 2 -4 -28z"/>
    <path d="M15693 5575 c0 -22 2 -30 4 -17 2 12 2 30 0 40 -3 9 -5 -1 -4 -23z"/>
    <path d="M15100 5575 c0 -15 4 -24 10 -20 6 3 10 12 10 20 0 8 -4 17 -10 20 -6 4 -10 -5 -10 -20z"/>
    <path d="M18251 5584 c0 -11 3 -14 6 -6 3 7 2 16 -1 19 -3 4 -6 -2 -5 -13z"/>
    <path d="M14749 5520 c-1 -178 3 -318 11 -355 l8 -40 1 45 c5 127 -1 406 -10 415 -5 5 -9 -19 -10 -65z"/>
    <path d="M17327 5583 c-10 -10 -8 -66 3 -83 7 -11 10 0 10 38 0 53 -1 57 -13 45z"/>
    <path d="M16103 5515 c0 -33 2 -45 4 -27 2 18 2 45 0 60 -2 15 -4 0 -4 -33z"/>
    <path d="M17252 5438 c-1 -82 2 -139 8 -143 11 -7 12 54 1 190 l-8 90 -1 -137z"/>
    <path d="M17471 5554 c0 -11 3 -14 6 -6 3 7 2 16 -1 19 -3 4 -6 -2 -5 -13z"/>
    <path d="M15102 5395 c-2 -176 9 -425 18 -425 8 0 4 171 -9 415 l-8 150 -1 -140z"/>
    <path d="M15863 5495 c0 -22 2 -30 4 -17 2 12 2 30 0 40 -3 9 -5 -1 -4 -23z"/>
    <path d="M16183 5485 c0 -22 2 -30 4 -17 2 12 2 30 0 40 -3 9 -5 -1 -4 -23z"/>
    <path d="M16259 5508 c-6 -16 -4 -138 2 -153 5 -12 8 14 8 68 1 48 -1 87 -4 87 -3 0 -5 -1 -6 -2z"/>
    <path d="M17401 5484 c0 -11 3 -14 6 -6 3 7 2 16 -1 19 -3 4 -6 -2 -5 -13z"/>
    <path d="M15187 5439 c-4 -29 -2 -59 3 -68 7 -11 9 5 10 52 0 37 -2 67 -4 67 -2 0 -6 -23 -9 -51z"/>
    <path d="M15781 5480 c-8 -20 -12 -198 -5 -259 6 -65 8 -71 14 -43 6 28 -3 318 -9 302z"/>
    <path d="M18111 5464 c0 -11 3 -14 6 -6 3 7 2 16 -1 19 -3 4 -6 -2 -5 -13z"/>
    <path d="M17401 5284 c1 -98 4 -168 8 -154 8 29 5 319 -3 328 -3 3 -6 -75 -5 -174z"/>
    <path d="M18180 5406 c0 -25 5 -46 10 -46 6 0 10 18 10 39 0 22 -4 43 -10 46 -6 4 -10 -12 -10 -39z"/>
    <path d="M15688 5400 c-2 -25 -2 -70 2 -100 l6 -55 5 75 c6 88 -4 155 -13 80z"/>
    <path d="M17333 5370 c0 -30 2 -43 4 -27 2 15 2 39 0 55 -2 15 -4 2 -4 -28z"/>
    <path d="M15011 5374 c0 -11 3 -14 6 -6 3 7 2 16 -1 19 -3 4 -6 -2 -5 -13z"/>
    <path d="M15859 5383 c-8 -17 3 -253 11 -253 8 0 3 250 -5 258 -2 2 -5 0 -6 -5z"/>
    <path d="M16101 5374 c0 -11 3 -14 6 -6 3 7 2 16 -1 19 -3 4 -6 -2 -5 -13z"/>
    <path d="M15191 5262 c-1 -60 3 -91 9 -87 12 7 12 84 1 140 -7 33 -9 23 -10 -53z"/>
    <path d="M17912 5320 c0 -14 2 -19 5 -12 2 6 2 18 0 25 -3 6 -5 1 -5 -13z"/>
    <path d="M18188 5333 c-2 -5 -1 -28 3 -53 l6 -45 1 53 c2 48 -2 63 -10 45z"/>
    <path d="M18122 5305 c0 -16 2 -22 5 -12 2 9 2 23 0 30 -3 6 -5 -1 -5 -18z"/>
    <path d="M17981 5304 c0 -11 3 -14 6 -6 3 7 2 16 -1 19 -3 4 -6 -2 -5 -13z"/>
    <path d="M15016 5174 c3 -78 7 -203 9 -280 3 -190 7 -224 14 -139 8 96 -8 538 -20 550 -6 6 -7 -40 -3 -131z"/>
    <path d="M16250 5291 c0 -25 6 -27 13 -6 4 8 2 17 -3 20 -6 4 -10 -3 -10 -14z"/>
    <path d="M10761 5285 c0 -11 4 -29 9 -40 8 -18 9 -18 9 5 0 14 -4 32 -9 40 -8 12 -10 12 -9 -5z"/>
    <path d="M16727 5263 c8 -52 13 -54 13 -5 0 23 -4 42 -9 42 -6 0 -7 -17 -4 -37z"/>
    <path d="M17331 5274 c0 -11 3 -14 6 -6 3 7 2 16 -1 19 -3 4 -6 -2 -5 -13z"/>
    <path d="M14035 5148 c1 -73 3 -207 4 -297 1 -121 4 -162 12 -154 12 12 14 488 3 551 -13 71 -22 25 -19 -100z"/>
    <path d="M17180 5162 c0 -73 4 -122 10 -122 11 0 8 225 -3 236 -4 4 -7 -47 -7 -114z"/>
    <path d="M16020 5246 c0 -22 3 -27 11 -19 8 8 8 16 0 30 -9 16 -10 14 -11 -11z"/>
    <path d="M17100 5246 c0 -9 5 -16 10 -16 6 0 10 4 10 9 0 6 -4 13 -10 16 -5 3 -10 -1 -10 -9z"/>
    <path d="M17254 5246 c-3 -8 -1 -23 5 -33 9 -15 10 -13 11 15 0 34 -7 42 -16 18z"/>
    <path d="M18054 5155 c0 -60 1 -84 3 -52 2 32 2 81 0 110 -2 29 -3 3 -3 -58z"/>
    <path d="M15941 5234 c0 -11 3 -14 6 -6 3 7 2 16 -1 19 -3 4 -6 -2 -5 -13z"/>
    <path d="M16262 5230 c0 -14 2 -19 5 -12 2 6 2 18 0 25 -3 6 -5 1 -5 -13z"/>
    <path d="M10651 5224 c0 -11 3 -14 6 -6 3 7 2 16 -1 19 -3 4 -6 -2 -5 -13z"/>
    <path d="M15695 5110 c3 -74 5 -155 6 -180 1 -41 2 -42 9 -15 11 46 6 287 -8 310 -8 15 -10 -10 -7 -115z"/>
    <path d="M18191 5214 c0 -11 3 -14 6 -6 3 7 2 16 -1 19 -3 4 -6 -2 -5 -13z"/>
    <path d="M19072 5210 c0 -14 2 -19 5 -12 2 6 2 18 0 25 -3 6 -5 1 -5 -13z"/>
    <path d="M10771 5190 c-2 -14 -5 -47 -7 -75 -2 -41 -1 -46 7 -25 5 13 8 47 6 75 -2 27 -5 39 -6 25z"/>
    <path d="M18122 5180 c0 -14 2 -19 5 -12 2 6 2 18 0 25 -3 6 -5 1 -5 -13z"/>
    <path d="M16026 5154 c-4 -9 -4 -19 -1 -22 2 -3 7 3 11 12 4 9 4 19 1 22 -2 3 -7 -3 -11 -12z"/>
    <path d="M16103 5120 c0 -25 2 -35 4 -22 2 12 2 32 0 45 -2 12 -4 2 -4 -23z"/>
    <path d="M15190 5123 c0 -18 5 -33 10 -33 13 0 13 30 0 50 -7 11 -10 7 -10 -17z"/>
    <path d="M16182 5080 c0 -36 4 -96 8 -135 7 -68 7 -67 7 35 0 58 -3 119 -7 135 -6 23 -8 14 -8 -35z"/>
    <path d="M16732 5120 c0 -14 2 -19 5 -12 2 6 2 18 0 25 -3 6 -5 1 -5 -13z"/>
    <path d="M16261 5085 c0 -27 4 -72 9 -100 7 -46 7 -44 9 35 0 47 -4 92 -9 100 -7 11 -9 1 -9 -35z"/>
    <path d="M17262 5095 c0 -16 2 -22 5 -12 2 9 2 23 0 30 -3 6 -5 -1 -5 -18z"/>
    <path d="M14766 5085 c-8 -22 -5 -553 4 -605 4 -26 8 93 9 288 0 182 -1 332 -3 332 -2 0 -6 -7 -10 -15z"/>
    <path d="M15360 5065 c0 -22 4 -34 10 -30 6 3 10 17 10 30 0 13 -4 27 -10 30 -6 4 -10 -8 -10 -30z"/>
    <path d="M16731 5074 c0 -11 3 -14 6 -6 3 7 2 16 -1 19 -3 4 -6 -2 -5 -13z"/>
    <path d="M15198 5069 c-3 -9 -4 -139 -2 -290 5 -360 6 -376 14 -229 7 143 -2 543 -12 519z"/>
    <path d="M16027 5063 c-4 -3 -7 -11 -7 -17 0 -6 5 -5 12 2 6 6 9 14 7 17 -3 3 -9 2 -12 -2z"/>
    <path d="M16353 5020 c0 -25 2 -35 4 -22 2 12 2 32 0 45 -2 12 -4 2 -4 -23z"/>
    <path d="M18123 5015 c0 -27 2 -38 4 -22 2 15 2 37 0 50 -2 12 -4 0 -4 -28z"/>
    <path d="M15282 5025 c0 -16 2 -22 5 -12 2 9 2 23 0 30 -3 6 -5 -1 -5 -18z"/>
    <path d="M10760 5029 c0 -5 5 -7 10 -4 6 3 10 8 10 11 0 2 -4 4 -10 4 -5 0 -10 -5 -10 -11z"/>
    <path d="M18053 4995 c0 -27 2 -38 4 -22 2 15 2 37 0 50 -2 12 -4 0 -4 -28z"/>
    <path d="M19071 4994 c0 -11 3 -14 6 -6 3 7 2 16 -1 19 -3 4 -6 -2 -5 -13z"/>
    <path d="M10651 4984 c0 -11 3 -14 6 -6 3 7 2 16 -1 19 -3 4 -6 -2 -5 -13z"/>
    <path d="M15361 4968 c0 -28 2 -30 9 -13 12 28 12 45 0 45 -5 0 -10 -15 -9 -32z"/>
    <path d="M18342 4980 c0 -14 2 -19 5 -12 2 6 2 18 0 25 -3 6 -5 1 -5 -13z"/>
    <path d="M15280 4874 c1 -57 3 -74 11 -62 9 16 5 126 -6 136 -3 3 -5 -30 -5 -74z"/>
    <path d="M16027 4936 c-4 -10 -5 -21 -2 -24 9 -9 17 6 13 25 -3 17 -4 17 -11 -1z"/>
    <path d="M19072 4920 c0 -14 2 -19 5 -12 2 6 2 18 0 25 -3 6 -5 1 -5 -13z"/>
    <path d="M11100 4610 c-1 -179 -3 -341 -3 -360 -3 -93 4 -683 7 -679 8 8 14 1145 7 1254 -6 87 -8 41 -11 -215z"/>
    <path d="M15370 4825 c-1 -60 -4 -148 -6 -195 -1 -47 0 -107 4 -135 5 -33 9 17 12 150 3 110 2 220 -1 245 -5 32 -7 13 -9 -65z"/>
    <path d="M16270 4692 c0 -170 3 -243 11 -248 9 -5 10 55 5 237 -4 134 -10 246 -12 248 -2 2 -4 -104 -4 -237z"/>
    <path d="M10761 4904 c0 -11 3 -14 6 -6 3 7 2 16 -1 19 -3 4 -6 -2 -5 -13z"/>
    <path d="M18122 4900 c0 -14 2 -19 5 -12 2 6 2 18 0 25 -3 6 -5 1 -5 -13z"/>
    <path d="M19142 4865 c0 -16 2 -22 5 -12 2 9 2 23 0 30 -3 6 -5 -1 -5 -18z"/>
    <path d="M16351 4864 c0 -11 3 -14 6 -6 3 7 2 16 -1 19 -3 4 -6 -2 -5 -13z"/>
    <path d="M15707 4853 c-11 -10 -8 -53 3 -53 6 0 10 14 10 30 0 31 -2 35 -13 23z"/>
    <path d="M16117 4853 c-10 -18 -8 -183 2 -183 7 0 11 35 11 95 0 89 -3 106 -13 88z"/>
    <path d="M19071 4844 c0 -11 3 -14 6 -6 3 7 2 16 -1 19 -3 4 -6 -2 -5 -13z"/>
    <path d="M17124 4730 c0 -58 1 -81 3 -52 2 28 2 76 0 105 -2 28 -3 5 -3 -53z"/>
    <path d="M15792 4800 c0 -14 2 -19 5 -12 2 6 2 18 0 25 -3 6 -5 1 -5 -13z"/>
    <path d="M16032 4790 c0 -19 2 -27 5 -17 2 9 2 25 0 35 -3 9 -5 1 -5 -18z"/>
    <path d="M10760 4785 c0 -8 5 -15 10 -15 6 0 10 7 10 15 0 8 -4 15 -10 15 -5 0 -10 -7 -10 -15z"/>
    <path d="M17273 4765 c0 -22 2 -30 4 -17 2 12 2 30 0 40 -3 9 -5 -1 -4 -23z"/>
    <path d="M17992 4780 c0 -14 2 -19 5 -12 2 6 2 18 0 25 -3 6 -5 1 -5 -13z"/>
    <path d="M18203 4760 c0 -25 2 -35 4 -22 2 12 2 32 0 45 -2 12 -4 2 -4 -23z"/>
    <path d="M15282 4760 c0 -19 2 -27 5 -17 2 9 2 25 0 35 -3 9 -5 1 -5 -18z"/>
    <path d="M15713 4730 c0 -36 2 -50 4 -32 2 17 2 47 0 65 -2 17 -4 3 -4 -33z"/>
    <path d="M17191 4774 c0 -11 3 -14 6 -6 3 7 2 16 -1 19 -3 4 -6 -2 -5 -13z"/>
    <path d="M16593 4735 c0 -22 2 -30 4 -17 2 12 2 30 0 40 -3 9 -5 -1 -4 -23z"/>
    <path d="M17491 4734 c0 -11 3 -14 6 -6 3 7 2 16 -1 19 -3 4 -6 -2 -5 -13z"/>
    <path d="M17922 4700 c0 -19 2 -27 5 -17 2 9 2 25 0 35 -3 9 -5 1 -5 -18z"/>
    <path d="M17992 4700 c0 -19 2 -27 5 -17 2 9 2 25 0 35 -3 9 -5 1 -5 -18z"/>
    <path d="M15123 4685 c0 -22 2 -30 4 -17 2 12 2 30 0 40 -3 9 -5 -1 -4 -23z"/>
    <path d="M17273 4655 c0 -38 2 -53 4 -32 2 20 2 52 0 70 -2 17 -4 1 -4 -38z"/>
    <path d="M10871 4533 c1 -123 4 -153 9 -113 12 83 12 268 0 275 -7 4 -10 -52 -9 -162z"/>
    <path d="M16430 4665 c0 -8 5 -15 10 -15 6 0 10 7 10 15 0 8 -4 15 -10 15 -5 0 -10 -7 -10 -15z"/>
    <path d="M16522 4655 c0 -16 2 -22 5 -12 2 9 2 23 0 30 -3 6 -5 -1 -5 -18z"/>
    <path d="M10761 4605 c0 -50 2 -65 9 -53 6 10 7 36 1 70 l-9 53 -1 -70z"/>
    <path d="M15032 4645 c0 -16 2 -22 5 -12 2 9 2 23 0 30 -3 6 -5 -1 -5 -18z"/>
    <path d="M16191 4654 c0 -11 3 -14 6 -6 3 7 2 16 -1 19 -3 4 -6 -2 -5 -13z"/>
    <path d="M19460 4656 c0 -9 5 -16 10 -16 6 0 10 4 10 9 0 6 -4 13 -10 16 -5 3 -10 -1 -10 -9z"/>
    <path d="M16673 4610 c0 -30 2 -43 4 -27 2 15 2 39 0 55 -2 15 -4 2 -4 -28z"/>
    <path d="M14041 4355 c2 -348 14 -526 20 -285 2 80 3 163 2 185 0 22 -1 114 -2 205 -1 91 -6 172 -11 180 -6 10 -9 -92 -9 -285z"/>
    <path d="M17921 4634 c0 -11 3 -14 6 -6 3 7 2 16 -1 19 -3 4 -6 -2 -5 -13z"/>
    <path d="M16442 4615 c0 -16 2 -22 5 -12 2 9 2 23 0 30 -3 6 -5 -1 -5 -18z"/>
    <path d="M16902 4620 c0 -14 2 -19 5 -12 2 6 2 18 0 25 -3 6 -5 1 -5 -13z"/>
    <path d="M17572 4620 c0 -14 2 -19 5 -12 2 6 2 18 0 25 -3 6 -5 1 -5 -13z"/>
    <path d="M16117 4607 c-2 -7 -1 -30 3 -52 l8 -40 1 53 c1 52 -2 64 -12 39z"/>
    <path d="M19473 4560 c0 -25 2 -35 4 -22 2 12 2 32 0 45 -2 12 -4 2 -4 -23z"/>
    <path d="M15953 4525 c0 -38 2 -53 4 -32 2 20 2 52 0 70 -2 17 -4 1 -4 -38z"/>
    <path d="M16752 4570 c0 -14 2 -19 5 -12 2 6 2 18 0 25 -3 6 -5 1 -5 -13z"/>
    <path d="M18271 4528 c0 -33 3 -58 9 -58 11 0 11 40 0 85 -6 25 -8 20 -9 -27z"/>
    <path d="M15702 4419 c1 -140 1 -141 8 -52 7 97 5 181 -4 191 -3 3 -5 -60 -4 -139z"/>
    <path d="M15028 4543 c-2 -5 -1 -35 3 -68 l6 -60 1 68 c2 61 -1 80 -10 60z"/>
    <path d="M15111 4533 c1 -10 5 -31 9 -48 7 -28 8 -28 9 12 0 23 -3 45 -9 48 -5 3 -9 -2 -9 -12z"/>
    <path d="M16671 4534 c0 -11 3 -14 6 -6 3 7 2 16 -1 19 -3 4 -6 -2 -5 -13z"/>
    <path d="M10762 4490 c0 -19 2 -27 5 -17 2 9 2 25 0 35 -3 9 -5 1 -5 -18z"/>
    <path d="M16362 4480 c0 -19 2 -27 5 -17 2 9 2 25 0 35 -3 9 -5 1 -5 -18z"/>
    <path d="M15280 4454 c0 -26 3 -45 6 -41 9 9 11 78 2 83 -5 3 -8 -16 -8 -42z"/>
    <path d="M15871 4474 c0 -11 3 -14 6 -6 3 7 2 16 -1 19 -3 4 -6 -2 -5 -13z"/>
    <path d="M16116 4482 c-9 -14 -6 -217 4 -248 6 -20 9 16 9 114 1 135 -1 153 -13 134z"/>
    <path d="M16203 4395 c0 -33 2 -45 4 -27 2 18 2 45 0 60 -2 15 -4 0 -4 -33z"/>
    <path d="M19473 4260 c1 -222 6 -310 17 -270 7 28 3 208 -10 362 -7 93 -8 84 -7 -92z"/>
    <path d="M16751 4424 c0 -11 3 -14 6 -6 3 7 2 16 -1 19 -3 4 -6 -2 -5 -13z"/>
    <path d="M15367 4410 c-3 -11 -1 -20 4 -20 5 0 9 9 9 20 0 11 -2 20 -4 20 -2 0 -6 -9 -9 -20z"/>
    <path d="M16524 4335 c0 -49 1 -71 3 -48 2 23 2 64 0 90 -2 26 -3 8 -3 -42z"/>
    <path d="M15033 4375 c0 -22 2 -30 4 -17 2 12 2 30 0 40 -3 9 -5 -1 -4 -23z"/>
    <path d="M15199 4403 c-4 -43 -3 -65 3 -69 4 -3 8 13 8 35 0 23 -2 41 -5 41 -3 0 -5 -3 -6 -7z"/>
    <path d="M14767 4382 c-5 -7 -5 -52 -1 -100 7 -73 9 -81 14 -47 8 53 -2 164 -13 147z"/>
    <path d="M15283 4350 c0 -25 2 -35 4 -22 2 12 2 32 0 45 -2 12 -4 2 -4 -23z"/>
    <path d="M16361 4374 c0 -11 3 -14 6 -6 3 7 2 16 -1 19 -3 4 -6 -2 -5 -13z"/>
    <path d="M10874 4240 c0 -69 1 -97 3 -62 2 34 2 90 0 125 -2 34 -3 6 -3 -63z"/>
    <path d="M18760 4276 c0 -41 5 -78 10 -81 6 -4 10 21 10 69 0 41 -4 78 -10 81 -6 4 -10 -21 -10 -69z"/>
    <path d="M18143 4265 c0 -44 2 -61 4 -37 2 23 2 59 0 80 -2 20 -4 1 -4 -43z"/>
    <path d="M15031 4304 c0 -11 3 -14 6 -6 3 7 2 16 -1 19 -3 4 -6 -2 -5 -13z"/>
    <path d="M11427 4275 c-13 -65 -1 -699 13 -675 6 11 6 657 0 680 -7 25 -7 25 -13 -5z"/>
    <path d="M15124 4195 c0 -55 1 -76 3 -47 2 29 2 74 0 100 -2 26 -3 2 -3 -53z"/>
    <path d="M15202 4270 c0 -14 2 -19 5 -12 2 6 2 18 0 25 -3 6 -5 1 -5 -13z"/>
    <path d="M15281 4273 c1 -10 5 -31 9 -48 7 -28 8 -28 9 12 0 23 -3 45 -9 48 -5 3 -9 -2 -9 -12z"/>
    <path d="M15031 4264 c0 -11 3 -14 6 -6 3 7 2 16 -1 19 -3 4 -6 -2 -5 -13z"/>
    <path d="M15791 4264 c0 -11 3 -14 6 -6 3 7 2 16 -1 19 -3 4 -6 -2 -5 -13z"/>
    <path d="M15951 4264 c0 -11 3 -14 6 -6 3 7 2 16 -1 19 -3 4 -6 -2 -5 -13z"/>
    <path d="M15030 4207 c0 -23 4 -36 10 -32 13 8 13 35 0 55 -7 11 -10 5 -10 -23z"/>
    <path d="M15962 4215 c0 -16 2 -22 5 -12 2 9 2 23 0 30 -3 6 -5 -1 -5 -18z"/>
    <path d="M16372 4200 c0 -19 2 -27 5 -17 2 9 2 25 0 35 -3 9 -5 1 -5 -18z"/>
    <path d="M19989 4203 c-2 -16 -1 -57 2 -93 5 -63 6 -62 7 28 2 90 -2 119 -9 65z"/>
    <path d="M15372 4195 c0 -16 2 -22 5 -12 2 9 2 23 0 30 -3 6 -5 -1 -5 -18z"/>
    <path d="M16991 4204 c0 -11 3 -14 6 -6 3 7 2 16 -1 19 -3 4 -6 -2 -5 -13z"/>
    <path d="M16291 4194 c0 -11 3 -14 6 -6 3 7 2 16 -1 19 -3 4 -6 -2 -5 -13z"/>
    <path d="M14940 4180 c0 -11 2 -20 4 -20 2 0 6 9 9 20 3 11 1 20 -4 20 -5 0 -9 -9 -9 -20z"/>
    <path d="M15957 4164 c-10 -11 -9 -124 2 -124 11 0 20 88 11 113 -3 10 -9 15 -13 11z"/>
    <path d="M14773 4095 c0 -33 2 -45 4 -27 2 18 2 45 0 60 -2 15 -4 0 -4 -33z"/>
    <path d="M10873 4040 c0 -41 2 -58 4 -37 2 20 2 54 0 75 -2 20 -4 3 -4 -38z"/>
    <path d="M14228 4104 c-3 -8 -3 -78 1 -224 1 -33 4 -41 11 -30 12 19 13 230 1 249 -5 7 -10 9 -13 5z"/>
    <path d="M15201 4064 c0 -11 3 -14 6 -6 3 7 2 16 -1 19 -3 4 -6 -2 -5 -13z"/>
    <path d="M16203 4045 c0 -22 2 -30 4 -17 2 12 2 30 0 40 -3 9 -5 -1 -4 -23z"/>
    <path d="M16042 4045 c0 -16 2 -22 5 -12 2 9 2 23 0 30 -3 6 -5 -1 -5 -18z"/>
    <path d="M16121 3970 c0 -52 2 -70 9 -60 11 18 11 74 0 110 -6 18 -8 3 -9 -50z"/>
    <path d="M14772 4010 c0 -14 2 -19 5 -12 2 6 2 18 0 25 -3 6 -5 1 -5 -13z"/>
    <path d="M19992 3970 c0 -14 2 -19 5 -12 2 6 2 18 0 25 -3 6 -5 1 -5 -13z"/>
    <path d="M16452 3950 c0 -14 2 -19 5 -12 2 6 2 18 0 25 -3 6 -5 1 -5 -13z"/>
    <path d="M17361 3876 c-1 -67 2 -97 9 -90 6 6 7 42 1 99 l-8 90 -2 -99z"/>
    <path d="M15712 3891 c-2 -41 1 -72 7 -76 7 -4 11 19 11 69 0 95 -14 100 -18 7z"/>
    <path d="M19481 3904 c0 -11 3 -14 6 -6 3 7 2 16 -1 19 -3 4 -6 -2 -5 -13z"/>
    <path d="M14051 3798 c-1 -66 3 -108 9 -108 12 0 12 166 0 195 -6 13 -9 -18 -9 -87z"/>
    <path d="M19487 3864 c-6 -6 2 -166 9 -173 2 -2 4 37 4 87 0 91 -1 98 -13 86z"/>
    <path d="M14861 3844 c0 -11 3 -14 6 -6 3 7 2 16 -1 19 -3 4 -6 -2 -5 -13z"/>
    <path d="M15370 3830 c0 -5 5 -10 10 -10 6 0 10 5 10 10 0 6 -4 10 -10 10 -5 0 -10 -4 -10 -10z"/>
    <path d="M14603 3770 c0 -36 2 -50 4 -32 2 17 2 47 0 65 -2 17 -4 3 -4 -33z"/>
    <path d="M15123 3795 c0 -22 2 -30 4 -17 2 12 2 30 0 40 -3 9 -5 -1 -4 -23z"/>
    <path d="M14692 3795 c0 -16 2 -22 5 -12 2 9 2 23 0 30 -3 6 -5 -1 -5 -18z"/>
    <path d="M19991 3804 c0 -11 3 -14 6 -6 3 7 2 16 -1 19 -3 4 -6 -2 -5 -13z"/>
    <path d="M10871 3784 c0 -11 3 -14 6 -6 3 7 2 16 -1 19 -3 4 -6 -2 -5 -13z"/>
    <path d="M16452 3775 c0 -16 2 -22 5 -12 2 9 2 23 0 30 -3 6 -5 -1 -5 -18z"/>
    <path d="M12281 3557 c-1 -137 2 -206 9 -202 12 7 12 298 1 365 -6 30 -9 -24 -10 -163z"/>
    <path d="M15722 3735 c0 -16 2 -22 5 -12 2 9 2 23 0 30 -3 6 -5 -1 -5 -18z"/>
    <path d="M13770 3728 c0 -12 3 -18 7 -14 11 10 12 36 2 36 -5 0 -9 -10 -9 -22z"/>
    <path d="M15121 3724 c0 -11 3 -14 6 -6 3 7 2 16 -1 19 -3 4 -6 -2 -5 -13z"/>
    <path d="M14691 3651 c0 -45 3 -71 8 -65 5 5 6 37 1 74 l-7 65 -2 -74z"/>
    <path d="M13773 3685 c-6 -17 5 -316 12 -324 3 -2 5 73 5 167 0 95 -2 172 -5 172 -3 0 -8 -7 -12 -15z"/>
    <path d="M10992 3655 c0 -16 2 -22 5 -12 2 9 2 23 0 30 -3 6 -5 -1 -5 -18z"/>
    <path d="M19493 3635 c0 -27 2 -38 4 -22 2 15 2 37 0 50 -2 12 -4 0 -4 -28z"/>
    <path d="M14056 3655 c-3 -8 -1 -15 4 -15 6 0 10 7 10 15 0 8 -2 15 -4 15 -2 0 -6 -7 -10 -15z"/>
    <path d="M14871 3654 c0 -11 3 -14 6 -6 3 7 2 16 -1 19 -3 4 -6 -2 -5 -13z"/>
    <path d="M14782 3640 c0 -14 2 -19 5 -12 2 6 2 18 0 25 -3 6 -5 1 -5 -13z"/>
    <path d="M15212 3635 c0 -16 2 -22 5 -12 2 9 2 23 0 30 -3 6 -5 -1 -5 -18z"/>
    <path d="M14243 3605 c0 -22 2 -30 4 -17 2 12 2 30 0 40 -3 9 -5 -1 -4 -23z"/>
    <path d="M10874 3545 c0 -49 1 -71 3 -48 2 23 2 64 0 90 -2 26 -3 8 -3 -42z"/>
    <path d="M10980 3606 c0 -8 5 -18 10 -21 6 -3 10 1 10 9 0 8 -4 18 -10 21 -5 3 -10 -1 -10 -9z"/>
    <path d="M14600 3581 c0 -52 16 -62 18 -11 1 21 -3 42 -8 45 -6 4 -10 -10 -10 -34z"/>
    <path d="M15301 3604 c0 -11 3 -14 6 -6 3 7 2 16 -1 19 -3 4 -6 -2 -5 -13z"/>
    <path d="M15380 3611 c0 -6 5 -13 10 -16 6 -3 10 1 10 9 0 9 -4 16 -10 16 -5 0 -10 -4 -10 -9z"/>
    <path d="M11431 3496 c-1 -55 1 -97 3 -95 8 8 12 145 5 169 -4 15 -7 -14 -8 -74z"/>
    <path d="M19497 3463 c2 -60 7 -110 9 -112 2 -2 4 43 4 102 0 58 -4 108 -9 112 -6 3 -8 -37 -4 -102z"/>
    <path d="M14244 3460 c0 -58 1 -81 3 -52 2 28 2 76 0 105 -2 28 -3 5 -3 -53z"/>
    <path d="M14703 3485 c0 -38 2 -53 4 -32 2 20 2 52 0 70 -2 17 -4 1 -4 -38z"/>
    <path d="M11103 3480 c0 -30 2 -43 4 -27 2 15 2 39 0 55 -2 15 -4 2 -4 -28z"/>
    <path d="M13678 3448 c-2 -29 -1 -64 3 -78 5 -16 8 3 8 53 1 88 -5 102 -11 25z"/>
    <path d="M10992 3470 c0 -14 2 -19 5 -12 2 6 2 18 0 25 -3 6 -5 1 -5 -13z"/>
    <path d="M14062 3470 c0 -14 2 -19 5 -12 2 6 2 18 0 25 -3 6 -5 1 -5 -13z"/>
    <path d="M15300 3481 c0 -6 5 -13 10 -16 6 -3 10 1 10 9 0 9 -4 16 -10 16 -5 0 -10 -4 -10 -9z"/>
    <path d="M11648 3463 c-2 -10 -1 -34 3 -53 6 -31 6 -30 8 18 1 52 -3 67 -11 35z"/>
    <path d="M12070 3324 c0 -87 2 -155 4 -153 9 9 14 299 5 304 -5 4 -9 -58 -9 -151z"/>
    <path d="M14600 3451 c0 -17 5 -33 10 -36 6 -4 10 8 10 29 0 20 -4 36 -10 36 -5 0 -10 -13 -10 -29z"/>
    <path d="M17301 3434 c0 -11 3 -14 6 -6 3 7 2 16 -1 19 -3 4 -6 -2 -5 -13z"/>
    <path d="M13967 3423 c-11 -10 -8 -63 3 -63 6 0 10 16 10 35 0 36 -2 40 -13 28z"/>
    <path d="M14331 3404 c0 -11 3 -14 6 -6 3 7 2 16 -1 19 -3 4 -6 -2 -5 -13z"/>
    <path d="M11650 3355 c-3 -11 -3 -72 0 -135 4 -84 6 -101 10 -65 6 59 -3 229 -10 200z"/>
    <path d="M12387 3320 c-6 -22 2 -292 9 -299 2 -2 4 68 4 157 0 89 -2 162 -4 162 -2 0 -6 -9 -9 -20z"/>
    <path d="M12802 3310 c0 -19 2 -27 5 -17 2 9 2 25 0 35 -3 9 -5 1 -5 -18z"/>
    <path d="M11323 3290 c0 -25 2 -35 4 -22 2 12 2 32 0 45 -2 12 -4 2 -4 -23z"/>
    <path d="M12285 3320 c3 -5 8 -10 11 -10 2 0 4 5 4 10 0 6 -5 10 -11 10 -5 0 -7 -4 -4 -10z"/>
    <path d="M13972 3300 c0 -14 2 -19 5 -12 2 6 2 18 0 25 -3 6 -5 1 -5 -13z"/>
    <path d="M13392 3280 c0 -14 2 -19 5 -12 2 6 2 18 0 25 -3 6 -5 1 -5 -13z"/>
    <path d="M13873 3255 c0 -22 2 -30 4 -17 2 12 2 30 0 40 -3 9 -5 -1 -4 -23z"/>
    <path d="M12802 3230 c0 -19 2 -27 5 -17 2 9 2 25 0 35 -3 9 -5 1 -5 -18z"/>
    <path d="M13589 3208 c-2 -24 -1 -61 2 -83 5 -29 7 -18 8 43 1 87 -5 110 -10 40z"/>
    <path d="M13871 3168 c-1 -21 4 -38 9 -38 12 0 12 27 0 55 -7 16 -9 13 -9 -17z"/>
    <path d="M12803 3145 c0 -27 2 -38 4 -22 2 15 2 37 0 50 -2 12 -4 0 -4 -28z"/>
    <path d="M13491 3174 c0 -11 3 -14 6 -6 3 7 2 16 -1 19 -3 4 -6 -2 -5 -13z"/>
    <path d="M12702 3155 c0 -16 2 -22 5 -12 2 9 2 23 0 30 -3 6 -5 -1 -5 -18z"/>
    <path d="M13780 3140 c0 -18 4 -29 10 -25 6 3 10 15 10 25 0 10 -4 22 -10 25 -6 4 -10 -7 -10 -25z"/>
    <path d="M11972 3140 c0 -14 2 -19 5 -12 2 6 2 18 0 25 -3 6 -5 1 -5 -13z"/>
    <path d="M11862 3110 c0 -19 2 -27 5 -17 2 9 2 25 0 35 -3 9 -5 1 -5 -18z"/>
    <path d="M11971 3084 c0 -11 3 -14 6 -6 3 7 2 16 -1 19 -3 4 -6 -2 -5 -13z"/>
    <path d="M11754 3075 c4 -24 16 -30 16 -7 0 12 -4 22 -9 22 -5 0 -8 -7 -7 -15z"/>
    <path d="M12291 3074 c0 -11 3 -14 6 -6 3 7 2 16 -1 19 -3 4 -6 -2 -5 -13z"/>
    <path d="M13691 2944 c0 -11 3 -14 6 -6 3 7 2 16 -1 19 -3 4 -6 -2 -5 -13z"/>
    <path d="M15480 2873 c0 -21 3 -24 9 -14 5 8 7 20 4 28 -8 21 -13 15 -13 -14z"/>
    <path d="M15492 2670 c0 -14 2 -19 5 -12 2 6 2 18 0 25 -3 6 -5 1 -5 -13z"/>
    <path d="M19837 2613 c-4 -3 -7 -12 -7 -20 0 -10 21 -13 85 -13 78 0 85 2 85 20 0 18 -7 20 -78 20 -43 0 -82 -3 -85 -7z"/>
    <path d="M19736 2603 c-3 -3 -3 -10 0 -14 7 -12 34 -11 34 0 0 11 -26 22 -34 14z"/>
    <path d="M18230 2500 c0 -9 39 -25 45 -18 2 2 -7 8 -21 15 -13 6 -24 7 -24 3z"/>
    <path d="M17710 2490 c0 -5 9 -10 21 -10 11 0 17 5 14 10 -3 6 -13 10 -21 10 -8 0 -14 -4 -14 -10z"/>
    <path d="M11862 2455 c0 -16 2 -22 5 -12 2 9 2 23 0 30 -3 6 -5 -1 -5 -18z"/>
    <path d="M12880 2445 c0 -23 5 -38 15 -42 24 -9 29 3 15 37 -18 44 -30 46 -30 5z"/>
    <path d="M15950 2470 c0 -5 6 -10 14 -10 8 0 18 5 21 10 3 6 -3 10 -14 10 -12 0 -21 -4 -21 -10z"/>
    <path d="M13966 2462 c-4 -7 -18 -12 -32 -12 -13 0 -24 -4 -24 -10 0 -12 40 -13 59 -1 7 5 11 15 9 22 -3 10 -6 10 -12 1z"/>
    <path d="M16465 2430 c3 -5 10 -10 16 -10 5 0 9 5 9 10 0 6 -7 10 -16 10 -8 0 -12 -4 -9 -10z"/>
    <path d="M16389 2421 c12 -8 51 -4 51 5 0 2 -15 4 -32 4 -23 0 -29 -3 -19 -9z"/>
    <path d="M15145 2391 c-11 -4 -30 -6 -42 -5 -29 2 -30 -12 -3 -21 13 -4 33 1 53 14 32 21 29 26 -8 12z"/>
    <path d="M15580 2390 c0 -5 9 -10 21 -10 11 0 17 5 14 10 -3 6 -13 10 -21 10 -8 0 -14 -4 -14 -10z"/>
    <path d="M15701 2391 c-14 -4 -27 -13 -29 -20 -3 -8 0 -11 6 -7 7 4 20 2 31 -3 14 -8 22 -6 35 8 16 17 16 19 1 25 -9 3 -17 6 -18 5 -1 -1 -13 -4 -26 -8z"/>
    <path d="M15245 2380 c3 -5 8 -10 11 -10 2 0 4 5 4 10 0 6 -5 10 -11 10 -5 0 -7 -4 -4 -10z"/>
    <path d="M15440 2355 c0 -10 10 -15 26 -15 22 0 25 2 14 15 -7 8 -19 15 -26 15 -8 0 -14 -7 -14 -15z"/>
    <path d="M15165 2340 c-7 -12 -9 -11 35 -16 l35 -4 -25 15 c-30 17 -37 18 -45 5z"/>
  </g>
</svg>