<?xml version="1.0" encoding="utf-8"?>
<svg viewBox="0 0 2000 1200" preserveAspectRatio="none" xmlns="http://www.w3.org/2000/svg">
  <g transform="matrix(0.10000000149011612, 0, 0, -0.10000000149011612, 0, 1200)" fill="#000000" stroke="none" style="opacity: 0.1;">
    <path d="M15093 8944 c-7 -3 -13 -21 -13 -40 0 -28 5 -36 28 -46 l27 -11 -28 -8 c-45 -13 -57 -28 -57 -75 0 -43 0 -44 34 -44 33 0 35 -2 40 -42 3 -24 8 -270 11 -548 12 -1160 15 -1455 20 -1830 14 -1117 20 -1697 20 -1905 l0 -231 -37 -37 c-42 -41 -53 -45 -67 -20 -9 17 -10 17 -28 0 -26 -23 -55 -22 -71 3 -10 17 -23 20 -82 20 l-69 0 6 -30 c4 -23 2 -30 -11 -30 -9 0 -16 8 -16 18 -1 39 -57 71 -75 42 -10 -17 -65 -11 -105 11 l-37 21 -12 252 c-7 138 -14 267 -15 286 -3 44 -9 -407 -6 -472 1 -39 -2 -49 -17 -55 -10 -4 -22 -12 -28 -19 -5 -7 -28 -14 -50 -17 -22 -3 -61 -11 -86 -18 -43 -11 -49 -10 -79 11 l-32 23 -87 -17 c-110 -21 -134 -20 -156 3 -17 20 -17 20 -53 0 -20 -10 -42 -19 -49 -19 -7 0 -42 -14 -77 -32 l-65 -32 -46 23 c-40 20 -50 21 -76 11 -23 -10 -39 -10 -74 0 -25 7 -48 10 -51 8 -3 -3 5 -26 18 -52 l22 -46 363 0 c293 0 363 3 363 13 0 23 54 65 90 70 19 3 58 12 85 19 29 8 79 12 118 10 l67 -4 0 -44 c0 -33 5 -46 19 -54 12 -6 96 -10 205 -10 184 0 185 0 188 23 3 21 7 22 128 25 138 3 170 -1 170 -23 0 -8 12 -18 27 -21 15 -4 664 -2 1443 5 778 6 1762 13 2185 15 424 2 818 4 878 5 l107 1 0 62 c0 59 -1 61 -19 44 -18 -16 -23 -15 -105 19 -59 24 -94 34 -109 29 -12 -4 -45 -6 -73 -5 -29 1 -55 -2 -59 -8 -8 -14 -48 -14 -62 0 -19 19 -56 -1 -114 -62 -40 -42 -64 -59 -82 -59 -14 0 -29 5 -32 10 -3 5 -17 10 -31 10 -18 0 -24 5 -24 21 0 19 -4 20 -34 15 -41 -8 -51 9 -30 49 8 15 14 34 14 41 0 24 -35 15 -62 -16 -14 -16 -31 -30 -37 -30 -15 0 -14 27 2 33 6 2 8 8 4 13 -5 5 -14 1 -21 -9 -7 -9 -18 -17 -24 -17 -6 0 -19 -11 -30 -25 -11 -14 -25 -25 -31 -25 -18 0 -33 41 -28 76 8 50 -14 62 -55 31 -18 -13 -45 -27 -60 -29 -30 -6 -54 13 -45 35 3 8 1 20 -3 27 -5 8 -4 23 3 34 6 12 12 28 13 36 0 8 3 20 4 25 2 6 1 17 -3 25 -3 8 -7 21 -9 28 -3 10 -7 10 -23 -2 -16 -12 -20 -28 -22 -97 -4 -149 -2 -144 -48 -143 -22 1 -46 2 -52 3 -7 1 -19 14 -27 30 -9 16 -24 31 -36 34 -11 3 -27 21 -36 42 -8 21 -24 39 -35 42 -11 3 -19 14 -19 27 0 25 -17 46 -39 46 -8 0 -23 7 -33 17 -30 27 -34 5 -5 -25 15 -16 27 -32 27 -38 0 -5 9 -17 20 -27 11 -9 23 -31 27 -47 3 -17 9 -30 13 -30 5 0 8 -16 8 -35 0 -39 -21 -48 -38 -16 -8 16 -6 22 7 30 16 9 15 13 -12 35 -29 23 -30 23 -37 5 -10 -25 -18 -24 -62 6 -20 13 -36 23 -36 20 0 -2 27 -31 60 -64 33 -33 60 -63 60 -66 0 -11 -32 -4 -85 20 -65 28 -89 34 -90 20 -1 -33 -50 -49 -61 -20 -4 8 -13 15 -21 15 -10 0 -14 9 -11 33 2 26 -1 33 -19 35 -20 3 -21 8 -19 63 1 33 -2 63 -7 66 -5 3 -7 14 -4 24 6 21 -19 47 -32 33 -12 -13 -22 -129 -12 -140 5 -5 12 -30 15 -56 7 -43 5 -48 -12 -48 -11 0 -23 -7 -26 -16 -3 -8 -10 -12 -16 -9 -6 4 -8 10 -5 15 3 5 2 17 -4 27 -5 10 -20 46 -34 80 -25 61 -25 82 -1 62 8 -7 14 -7 19 1 3 5 -5 14 -18 19 -15 6 -26 20 -30 38 -4 18 -15 34 -32 41 -33 15 -35 15 -35 -3 0 -8 -9 -15 -20 -15 -25 0 -26 -17 -1 -25 32 -10 54 -41 43 -61 -8 -14 -5 -25 10 -46 10 -15 16 -28 13 -28 -4 0 0 -11 9 -25 20 -30 20 -49 1 -65 -14 -11 -56 -5 -54 8 4 23 -2 35 -11 26 -7 -7 -3 -28 15 -65 23 -50 24 -55 8 -67 -32 -23 -48 -10 -45 36 2 33 -1 42 -14 42 -23 0 -55 42 -42 57 10 13 3 33 -13 33 -5 0 -9 -12 -9 -26 0 -33 -19 -27 -45 13 -11 17 -30 33 -43 36 -21 4 -23 2 -17 -22 3 -14 30 -50 58 -79 43 -43 50 -55 41 -70 -6 -9 -23 -18 -37 -20 -14 -2 -31 -10 -37 -18 -16 -18 -34 -18 -50 1 -7 8 -21 15 -32 15 -23 0 -78 39 -78 56 0 24 -21 25 -39 3 -17 -21 -20 -22 -82 -10 -75 14 -199 19 -206 9 -2 -5 -16 -2 -31 6 -40 21 -223 17 -245 -6 -9 -9 -46 -21 -83 -27 -63 -11 -67 -11 -82 10 -13 18 -21 20 -60 15 -25 -3 -63 -1 -84 5 -29 7 -43 7 -54 -2 -11 -9 -18 -8 -34 6 -25 23 -118 27 -143 7 -9 -9 -42 -17 -72 -20 -41 -3 -58 -9 -66 -23 -10 -20 -44 -26 -54 -9 -10 16 -75 12 -81 -5 -7 -17 -41 -20 -46 -4 -8 25 -139 58 -243 61 -27 1 -79 -1 -115 -5 -38 -4 -82 -3 -105 4 -22 6 -76 12 -120 14 -43 2 -90 10 -103 17 -20 11 -25 10 -33 -5 -13 -23 -30 -21 -73 8 -35 24 -39 24 -66 10 -21 -11 -30 -23 -30 -41 0 -21 -4 -25 -22 -22 -21 3 -23 8 -23 68 -1 36 -4 301 -8 590 -4 289 -12 863 -17 1275 -5 413 -12 876 -15 1030 -11 613 -17 1525 -11 1569 5 28 12 46 21 46 15 0 25 22 25 54 0 12 5 27 11 33 15 15 1 35 -19 29 -10 -3 -23 -2 -31 3 -23 15 -2 31 40 31 l40 0 -3 38 -3 37 -80 2 c-44 1 -86 -1 -92 -3z"/>
    <path d="M5910 8371 c-29 -5 -36 -11 -38 -35 -2 -16 2 -32 9 -37 7 -4 45 -5 84 -2 47 4 75 2 79 -5 4 -7 -3 -13 -16 -16 -13 -3 -32 -7 -43 -9 -11 -3 -2 -5 20 -6 73 -2 69 25 57 -412 -7 -217 -14 -526 -17 -687 -4 -161 -8 -310 -10 -330 -2 -20 -7 -205 -10 -411 -3 -206 -8 -378 -10 -381 -3 -4 -7 -214 -11 -466 -3 -252 -7 -461 -9 -464 -2 -3 -6 -192 -10 -420 -6 -309 -11 -425 -21 -455 -8 -22 -14 -48 -14 -57 0 -10 -4 -18 -10 -18 -5 0 -10 -11 -10 -24 0 -24 -3 -25 -62 -24 -35 0 -72 6 -83 13 -26 16 -131 29 -139 17 -3 -5 -29 -12 -58 -16 -59 -8 -78 -20 -78 -47 0 -16 -8 -19 -48 -19 -27 0 -64 8 -84 19 -33 17 -39 17 -59 4 -17 -13 -26 -13 -47 -3 -16 7 -81 13 -157 15 -72 1 -149 8 -172 15 -31 10 -46 10 -56 2 -7 -6 -43 -11 -79 -11 -63 1 -67 2 -78 29 -7 18 -10 53 -6 92 3 35 8 245 12 468 3 223 9 502 13 620 5 118 9 332 10 475 1 143 6 314 11 380 5 66 10 130 10 142 0 19 6 22 50 25 28 2 51 8 53 13 1 6 -18 16 -43 24 -25 8 -54 17 -65 22 -34 13 -120 18 -136 8 -22 -15 17 -39 63 -39 21 0 38 -3 39 -7 4 -56 -6 -557 -26 -1233 -3 -102 -10 -373 -14 -603 -6 -290 -12 -422 -19 -429 -9 -9 -19 -5 -41 16 -26 25 -35 28 -73 22 -51 -7 -83 -13 -120 -22 -22 -5 -28 -3 -28 10 0 10 -8 16 -21 16 -16 0 -19 4 -14 20 8 25 4 25 -40 0 -46 -26 -51 -26 -92 10 -18 17 -43 30 -54 30 -17 0 -19 -4 -13 -35 l6 -35 -36 15 c-39 17 -48 11 -43 -30 2 -16 -5 -21 -28 -23 -16 -1 -51 -5 -78 -8 -37 -5 -56 -1 -88 15 l-41 22 -33 -21 c-43 -26 -58 -25 -130 10 -62 31 -90 37 -100 20 -3 -5 -31 -26 -61 -46 l-56 -37 -51 13 c-29 8 -79 15 -112 16 -33 1 -139 6 -235 10 -224 10 -270 9 -355 -4 -38 -6 -74 -7 -80 -3 -18 14 -90 29 -128 26 -23 -1 -46 -10 -62 -25 -17 -16 -32 -21 -51 -17 -15 3 -40 0 -55 -5 -23 -8 -34 -6 -58 11 -44 32 -138 29 -188 -5 -27 -18 -39 -22 -41 -12 -5 15 -31 38 -44 38 -16 0 -7 -19 12 -25 11 -3 20 -11 20 -16 0 -15 -50 -10 -56 6 -4 8 -19 15 -34 15 -16 0 -32 5 -36 11 -6 10 -53 8 -94 -3 -60 -17 -82 -19 -95 -8 -7 6 -19 10 -27 9 -7 -2 -24 3 -37 10 -19 11 -31 11 -61 1 -21 -7 -54 -10 -76 -6 -22 3 -55 5 -74 4 -19 0 -48 -1 -65 0 -16 1 -61 4 -100 6 -38 2 -160 6 -270 10 l-200 7 -23 27 c-19 22 -22 35 -17 72 3 25 10 167 15 315 6 149 14 349 20 445 5 96 11 254 14 350 10 344 28 766 35 820 l6 55 65 0 c52 1 65 4 68 17 2 9 -5 19 -15 21 -43 13 -164 28 -233 30 -60 2 -75 -1 -75 -13 0 -10 19 -17 65 -25 l65 -10 0 -110 c0 -94 -9 -306 -30 -740 -2 -55 -7 -172 -10 -260 -3 -88 -8 -185 -11 -215 -2 -30 -9 -165 -14 -300 -16 -394 -22 -470 -34 -471 -6 0 -125 0 -264 0 -205 1 -258 3 -282 16 -22 11 -35 12 -56 4 -16 -5 -51 -7 -81 -3 l-53 6 0 -98 0 -99 356 4 356 3 -5 -46 c-6 -45 -6 -45 27 -51 18 -4 46 -5 62 -3 28 3 29 5 27 51 l-1 48 1101 -3 c606 -2 1468 1 1915 6 l812 9 2 23 c1 13 2 32 2 42 1 20 26 30 79 31 l37 1 0 -50 0 -50 564 0 564 0 4 -67 c2 -38 2 -97 0 -133 l-3 -65 -132 2 c-81 1 -122 -2 -107 -7 23 -7 22 -8 -11 -9 -20 -1 -58 -4 -84 -8 -38 -5 -46 -3 -40 7 8 14 20 14 -372 -7 -76 -3 -120 -10 -116 -16 4 -6 -73 -9 -213 -7 -121 2 -365 -2 -544 -8 -179 -6 -401 -13 -493 -16 -93 -2 -170 -6 -173 -9 -3 -2 79 -8 182 -12 104 -4 205 -13 228 -20 l41 -13 -37 -1 c-21 -1 -59 -9 -85 -18 -44 -16 -123 -17 -893 -18 -736 0 -861 -3 -965 -17 -66 -10 -172 -22 -235 -28 -63 -6 -140 -15 -170 -21 -30 -6 -253 -13 -494 -16 l-439 -5 -28 -27 c-15 -16 -29 -36 -31 -47 -3 -17 6 -20 102 -25 75 -4 121 -12 160 -28 30 -13 57 -24 59 -26 1 -2 -44 -4 -100 -4 -284 -1 -400 -6 -409 -21 -5 -7 -59 -28 -122 -46 l-113 -33 130 2 c225 3 517 -4 591 -15 56 -8 92 -7 175 6 222 34 259 37 394 24 155 -15 238 -16 257 -1 12 9 226 13 1133 18 306 2 355 4 355 16 0 9 -33 10 -122 5 -200 -12 -1383 25 -1402 44 -13 13 52 18 344 30 146 6 315 13 375 15 201 8 385 22 392 28 3 4 -57 7 -134 7 -225 0 -503 12 -503 22 0 6 45 9 102 7 172 -4 861 8 891 16 59 15 28 29 -94 41 -69 6 -99 17 -85 31 10 10 118 9 401 -2 303 -13 408 -12 490 4 67 12 442 27 555 21 89 -4 141 -4 210 3 36 3 126 9 200 13 74 4 140 11 147 16 6 5 56 13 110 19 54 5 150 16 213 24 100 13 411 36 478 35 15 0 22 -6 22 -19 0 -22 -11 -31 -54 -46 -16 -5 -32 -16 -34 -24 -3 -10 0 -12 11 -8 9 3 74 11 144 17 220 19 259 23 238 27 -63 12 -65 13 -71 53 -6 38 -18 52 -26 30 -2 -6 -36 6 -78 27 -41 21 -82 37 -90 36 -13 -3 -15 14 -13 118 3 122 7 145 22 120 7 -10 9 -10 14 1 3 10 25 15 73 16 38 1 77 5 87 8 10 3 25 0 33 -7 11 -9 104 -11 417 -6 221 4 875 9 1452 12 578 3 1092 8 1143 11 85 5 92 8 92 27 0 43 -24 54 -105 49 -65 -4 -75 -2 -75 12 0 9 -8 16 -19 16 -10 0 -23 6 -29 13 -6 7 -25 14 -43 15 -29 2 -30 1 -18 -14 12 -14 11 -16 -6 -13 -23 5 -33 38 -14 50 11 6 8 14 -11 33 -28 31 -49 33 -76 8 -55 -51 -109 -66 -154 -42 -14 7 -30 6 -60 -6 -22 -9 -40 -19 -40 -23 0 -6 -64 -41 -75 -41 -2 0 -19 14 -36 31 -26 25 -37 30 -62 25 -18 -4 -36 -1 -45 6 -8 7 -25 14 -36 15 -65 7 -150 25 -174 37 -15 8 -44 17 -64 21 -29 6 -40 3 -57 -14 -24 -24 -67 -27 -95 -6 -25 19 -60 19 -80 0 -10 -10 -35 -15 -75 -15 -33 0 -63 -4 -66 -10 -3 -5 -17 -10 -31 -10 -14 0 -27 -7 -31 -15 -5 -14 -7 -14 -23 0 -22 19 -102 12 -121 -11 -6 -8 -22 -14 -35 -14 -12 0 -26 -5 -30 -11 -4 -7 -20 -9 -43 -4 -102 19 -167 22 -204 9 -45 -16 -111 -5 -162 25 -53 32 -81 34 -99 6 -17 -26 -42 -33 -48 -15 -2 7 -15 5 -35 -5 -29 -15 -35 -15 -64 1 -18 9 -57 20 -88 24 -51 7 -60 6 -93 -17 -36 -24 -39 -25 -63 -9 -20 13 -51 17 -144 17 -99 1 -126 4 -156 20 -36 19 -38 19 -57 3 -16 -16 -22 -16 -40 -5 -18 11 -22 11 -30 -4 -14 -24 -38 -1 -38 36 0 23 -6 32 -26 39 l-27 11 7 187 c3 103 8 313 11 467 8 421 24 1162 31 1410 12 499 24 1054 30 1443 8 469 4 450 87 459 33 4 54 1 71 -11 37 -24 48 -20 44 16 -2 26 -11 37 -43 55 -22 13 -57 23 -77 23 -50 0 -68 9 -68 31 0 14 -18 28 -62 49 -62 30 -96 34 -168 21z m-5083 -4367 c-3 -3 -12 -4 -19 -1 -8 3 -5 6 6 6 11 1 17 -2 13 -5z m4596 -351 c-7 -2 -19 -2 -25 0 -7 3 -2 5 12 5 14 0 19 -2 13 -5z m477 -3 c-8 -5 -35 -9 -60 -8 l-45 1 45 7 c73 11 78 11 60 0z m-1849 -131 c-36 -6 -58 -6 -65 1 -7 7 11 10 55 9 l64 -1 -54 -9z m-1848 -136 c-7 -2 -19 -2 -25 0 -7 3 -2 5 12 5 14 0 19 -2 13 -5z m-827 -112 c-8 -12 -297 -25 -327 -15 l-24 8 25 7 c37 10 332 11 326 0z m-783 -68 c-7 -2 -21 -2 -30 0 -10 3 -4 5 12 5 17 0 24 -2 18 -5z"/>
    <path d="M14487 6763 c-10 -17 -1 -74 13 -83 12 -7 16 -46 20 -197 l6 -188 2 188 c2 172 4 189 22 204 13 12 16 21 10 29 -7 8 -5 15 5 24 8 7 12 16 9 21 -6 11 -81 12 -87 2z"/>
    <path d="M9287 6563 c-15 -15 -5 -32 21 -35 l27 -3 -2 -598 c-1 -457 1 -597 10 -594 12 4 14 68 31 842 4 165 10 303 14 306 4 4 16 9 27 11 11 2 20 10 20 18 0 8 -9 16 -20 18 -11 2 -28 13 -38 23 -17 18 -76 26 -90 12z"/>
    <path d="M14531 5665 c-1 -509 8 -877 22 -868 10 6 -1 1159 -13 1250 -4 32 -8 -140 -9 -382z"/>
    <path d="M5942 5961 c-9 -5 -9 -12 1 -26 15 -19 37 -13 37 10 0 16 -23 26 -38 16z"/>
    <path d="M9333 5288 c-8 -10 -28 -918 -24 -1076 1 -13 -10 -45 -24 -71 -13 -27 -21 -51 -18 -55 4 -3 35 -6 70 -6 l63 0 0 -56 0 -56 115 4 c114 3 115 3 146 35 l32 31 -20 34 c-14 24 -26 33 -46 33 -16 1 -40 14 -59 31 -18 17 -48 37 -65 44 -34 13 -69 7 -58 -9 3 -5 1 -12 -5 -16 -14 -9 -71 24 -68 40 2 8 -4 20 -13 27 -15 12 -16 57 -8 531 5 286 5 526 1 534 -7 12 -10 12 -19 1z"/>
    <path d="M18587 4477 c-3 -8 -1 -20 4 -28 6 -10 9 -7 9 14 0 29 -5 35 -13 14z"/>
    <path d="M18675 4392 l0 -87 29 3 c34 4 46 -10 46 -55 0 -17 5 -35 11 -39 16 -10 29 16 19 40 -9 26 -10 29 -10 61 0 18 -7 28 -25 35 -20 8 -25 16 -25 44 0 19 7 41 15 50 25 24 17 36 -22 36 l-38 0 0 -88z"/>
    <path d="M18600 4406 c0 -18 17 -29 30 -21 8 5 7 11 -1 21 -15 18 -29 18 -29 0z"/>
    <path d="M18944 4326 c-7 -19 14 -58 29 -53 17 5 21 35 7 52 -16 19 -29 19 -36 1z"/>
    <path d="M17856 4321 c-4 -5 3 -15 15 -21 18 -10 20 -9 17 6 -4 20 -23 30 -32 15z"/>
    <path d="M18650 4270 c0 -5 5 -10 11 -10 5 0 7 5 4 10 -3 6 -8 10 -11 10 -2 0 -4 -4 -4 -10z"/>
    <path d="M17935 4260 c3 -5 13 -10 21 -10 8 0 14 5 14 10 0 6 -9 10 -21 10 -11 0 -17 -4 -14 -10z"/>
    <path d="M19040 4245 c-10 -13 -9 -15 9 -15 11 0 21 4 21 9 0 18 -18 21 -30 6z"/>
    <path d="M12650 4115 c0 -19 5 -35 10 -35 6 0 10 16 10 35 0 19 -4 35 -10 35 -5 0 -10 -16 -10 -35z"/>
    <path d="M10227 4134 c-11 -12 3 -24 28 -24 13 0 26 4 29 9 10 15 -43 29 -57 15z"/>
    <path d="M12233 4110 c-3 -11 -14 -20 -24 -20 -11 0 -19 -4 -19 -10 0 -5 -7 -10 -16 -10 -34 0 7 -29 71 -49 59 -19 89 -21 342 -21 254 0 281 2 309 19 16 10 46 21 65 24 19 3 47 9 62 13 19 4 39 1 62 -12 34 -18 59 -14 38 7 -24 24 -183 41 -183 19 0 -12 -116 -2 -143 12 -14 7 -24 5 -41 -11 -30 -28 -138 -28 -120 0 3 5 1 9 -4 9 -5 0 -15 -12 -22 -26 -12 -21 -19 -25 -45 -20 -16 3 -63 8 -104 10 -54 3 -81 10 -102 25 -16 12 -31 21 -34 21 -3 0 -14 9 -25 20 -11 11 -29 20 -41 20 -12 0 -23 -8 -26 -20z"/>
    <path d="M10040 4059 c0 -5 5 -7 10 -4 6 3 10 8 10 11 0 2 -4 4 -10 4 -5 0 -10 -5 -10 -11z"/>
    <path d="M10723 4046 c-11 -13 -27 -26 -34 -28 -8 -3 -11 -9 -7 -13 4 -5 25 0 47 10 34 15 45 16 89 5 48 -13 102 -8 102 9 0 14 -45 29 -72 24 -14 -3 -29 0 -32 6 -13 21 -71 13 -93 -13z"/>
    <path d="M13216 4062 c-3 -6 1 -13 10 -16 23 -9 28 -2 10 13 -8 7 -17 8 -20 3z"/>
    <path d="M13330 4053 c-8 -2 -22 -7 -30 -10 -22 -7 25 -43 56 -43 20 0 24 5 24 30 0 30 -12 36 -50 23z"/>
    <path d="M4671 3968 c-1 -10 -5 -18 -11 -18 -5 0 -10 -20 -10 -45 l0 -45 56 0 c53 0 55 1 49 23 -9 27 -35 57 -35 39 0 -28 -29 -9 -38 26 -5 20 -10 29 -11 20z"/>
    <path d="M9276 3943 c-2 -10 -7 -33 -11 -51 l-7 -32 59 6 c32 4 59 8 61 9 1 1 -3 15 -9 31 -9 23 -13 25 -16 12 -10 -40 -71 -11 -64 30 3 18 -7 14 -13 -5z"/>
    <path d="M13733 3923 c15 -2 37 -2 50 0 12 2 0 4 -28 4 -27 0 -38 -2 -22 -4z"/>
    <path d="M0 3874 c0 -15 9 -16 68 -11 37 4 119 8 182 9 l115 1 -95 7 c-52 4 -134 8 -182 9 -75 1 -88 -1 -88 -15z"/>
    <path d="M17570 3869 c-123 -11 -131 -11 -155 -10 -11 1 -89 2 -173 2 -117 0 -152 -3 -146 -12 5 -9 90 -10 363 -3 366 8 409 9 766 7 273 -1 603 2 685 7 l65 3 -65 7 c-87 10 -1220 9 -1340 -1z"/>
    <path d="M19257 3859 c143 -4 276 -3 295 1 18 4 -98 8 -262 7 l-295 0 262 -8z"/>
    <path d="M7900 3829 c-964 -8 -897 -6 -882 -21 23 -23 1052 -37 1372 -19 102 6 284 11 405 11 236 1 422 13 439 30 11 11 -50 11 -1334 -1z"/>
    <path d="M19938 3833 c12 -2 32 -2 45 0 12 2 2 4 -23 4 -25 0 -35 -2 -22 -4z"/>
    <path d="M15160 3804 c-12 -22 -12 -27 0 -34 8 -5 23 -7 34 -4 10 4 26 7 35 9 9 1 17 9 19 18 3 14 -4 18 -59 33 -9 3 -21 -6 -29 -22z"/>
    <path d="M17680 3810 c-47 -5 -157 -6 -245 -4 -88 2 -178 1 -200 -2 -39 -6 -39 -7 -15 -17 38 -16 792 -13 831 4 22 9 27 14 17 20 -16 10 -269 9 -388 -1z"/>
    <path d="M18684 3811 c7 -11 -14 -18 -74 -24 -64 -7 134 -7 233 0 107 7 113 22 7 21 -36 -1 -89 2 -119 7 -38 5 -52 4 -47 -4z"/>
    <path d="M195 3801 c-15 -6 -2 -10 47 -16 65 -7 88 -3 88 16 0 11 -107 11 -135 0z"/>
    <path d="M15515 3800 c11 -5 37 -9 58 -9 39 -1 50 -17 20 -28 -14 -6 -10 -9 17 -16 75 -19 140 -23 167 -11 l28 11 -38 8 c-45 9 -57 24 -26 33 23 6 23 6 -6 13 -46 10 -244 9 -220 -1z"/>
    <path d="M16495 3790 c-6 -10 116 -21 153 -14 18 4 32 10 32 15 0 11 -179 9 -185 -1z"/>
    <path d="M16780 3790 c0 -6 35 -10 88 -9 58 0 80 3 67 9 -28 12 -155 12 -155 0z"/>
    <path d="M16043 3783 c9 -2 25 -2 35 0 9 3 1 5 -18 5 -19 0 -27 -2 -17 -5z"/>
    <path d="M16100 3783 c0 -22 169 -33 200 -13 11 7 -1 10 -40 10 -30 0 -79 3 -107 6 -33 4 -53 3 -53 -3z"/>
    <path d="M18508 3783 c6 -2 18 -2 25 0 6 3 1 5 -13 5 -14 0 -19 -2 -12 -5z"/>
    <path d="M15153 3728 c6 -25 -9 -51 -33 -61 -10 -3 -7 -6 8 -6 13 -1 34 -13 47 -27 20 -21 36 -27 100 -33 80 -7 90 -4 80 29 -8 25 -25 26 -25 3 0 -24 -27 28 -32 59 -2 15 -11 24 -27 26 -13 2 -31 10 -38 18 -8 8 -30 14 -50 14 -31 0 -35 -2 -30 -22z"/>
    <path d="M6159 3738 c-1 -2 -3 -12 -4 -23 -2 -11 -4 -27 -6 -35 -4 -13 30 -15 256 -14 553 2 1742 15 1773 20 29 5 45 22 22 25 -43 6 -116 5 -403 -3 -261 -7 -383 -5 -594 7 -178 11 -268 12 -273 6 -8 -14 -69 -16 -347 -13 -199 2 -233 4 -233 17 0 12 -17 15 -95 15 -52 0 -96 -1 -96 -2z"/>
    <path d="M17038 3733 c7 -3 16 -2 19 1 4 3 -2 6 -13 5 -11 0 -14 -3 -6 -6z"/>
    <path d="M16603 3713 c9 -2 23 -2 30 0 6 3 -1 5 -18 5 -16 0 -22 -2 -12 -5z"/>
    <path d="M709 3706 c-3 -2 -559 -16 -681 -16 -19 0 -26 -4 -22 -13 8 -22 238 -26 434 -8 63 6 202 15 308 20 107 5 196 12 200 15 6 6 -232 9 -239 2z"/>
    <path d="M15880 3679 c0 -8 -31 -10 -101 -6 -105 5 -139 1 -139 -14 0 -5 27 -9 59 -9 33 0 95 -7 138 -15 97 -19 136 -19 171 -1 34 18 144 17 196 0 54 -19 100 -17 146 6 22 11 40 23 40 26 0 4 -37 5 -82 3 -156 -6 -359 1 -353 11 4 6 -10 10 -34 10 -23 0 -41 -5 -41 -11z"/>
    <path d="M15573 3663 c9 -2 23 -2 30 0 6 3 -1 5 -18 5 -16 0 -22 -2 -12 -5z"/>
    <path d="M16910 3659 c-14 -3 -73 -4 -132 -1 -72 3 -108 1 -108 -5 0 -15 22 -22 52 -16 19 4 37 -3 61 -21 27 -21 41 -25 62 -20 18 5 30 2 36 -7 13 -22 284 -26 333 -5 29 12 60 14 151 9 77 -4 115 -3 115 4 0 6 -15 14 -34 17 -19 4 -39 13 -46 21 -17 20 -40 19 -55 -2 -11 -14 -17 -15 -38 -6 -20 9 -36 8 -75 -4 -30 -10 -57 -13 -68 -8 -14 6 -6 10 35 17 30 4 57 10 59 12 13 13 -304 27 -348 15z"/>
    <path d="M18248 3655 c-3 -3 -109 -6 -236 -8 -140 -1 -232 -6 -233 -12 0 -5 17 -15 38 -23 29 -10 89 -12 258 -8 121 3 237 5 257 5 20 0 39 4 42 9 3 6 61 10 128 11 126 1 213 9 204 19 -8 7 -451 14 -458 7z"/>
    <path d="M17518 3643 c12 -2 32 -2 45 0 12 2 2 4 -23 4 -25 0 -35 -2 -22 -4z"/>
    <path d="M19235 3623 c-27 -2 -86 -10 -130 -18 -88 -16 -312 -35 -414 -35 -35 0 -62 -2 -59 -5 3 -3 86 -5 184 -4 99 0 190 1 204 0 38 0 149 0 200 2 25 0 70 0 100 -1 30 -1 159 1 285 6 208 7 227 9 200 22 -37 17 -30 16 -248 29 -171 11 -214 11 -322 4z"/>
    <path d="M3457 3610 c29 -4 67 -4 85 0 24 6 10 8 -52 8 -78 0 -81 -1 -33 -8z"/>
    <path d="M15768 3593 c6 -2 18 -2 25 0 6 3 1 5 -13 5 -14 0 -19 -2 -12 -5z"/>
    <path d="M14455 3580 c3 -5 8 -10 11 -10 2 0 4 5 4 10 0 6 -5 10 -11 10 -5 0 -7 -4 -4 -10z"/>
    <path d="M15381 3566 c-37 -21 -9 -27 55 -13 49 11 54 15 34 20 -37 10 -62 8 -89 -7z"/>
    <path d="M19880 3570 c59 -11 120 -12 120 -2 0 4 -37 8 -83 8 -69 1 -75 0 -37 -6z"/>
    <path d="M6350 3560 c-16 -5 10 -8 75 -9 55 0 107 4 115 9 19 12 -153 12 -190 0z"/>
    <path d="M14618 3522 l-27 -18 24 -26 c20 -22 29 -25 52 -19 17 5 26 14 24 22 -2 8 -3 24 -3 37 2 28 -31 30 -70 4z"/>
    <path d="M14426 3505 c-3 -8 -13 -15 -22 -15 -25 0 -84 -22 -84 -32 0 -4 7 -13 17 -20 9 -7 35 -32 58 -55 48 -49 55 -51 55 -22 0 11 5 29 11 40 8 16 7 25 -5 38 -14 16 -14 19 1 33 18 18 11 48 -11 48 -7 0 -16 -7 -20 -15z"/>
    <path d="M5238 3500 c-148 -6 -184 -13 -132 -26 71 -18 422 6 408 27 -5 9 -39 9 -276 -1z"/>
    <path d="M5714 3470 c-22 -5 -154 -16 -292 -25 -234 -16 -283 -16 -435 1 -53 5 -135 -2 -125 -11 7 -7 212 -25 398 -34 263 -14 622 -15 710 -2 101 14 183 14 198 -1 9 -9 57 -13 170 -12 219 1 489 11 502 19 6 4 65 8 131 10 109 2 140 7 128 19 -2 2 -166 9 -364 16 -198 6 -430 15 -515 20 -182 12 -448 11 -506 0z"/>
    <path d="M16940 3470 c0 -5 5 -10 11 -10 5 0 7 5 4 10 -3 6 -8 10 -11 10 -2 0 -4 -4 -4 -10z"/>
    <path d="M0 3446 c0 -22 5 -26 28 -26 15 0 32 -4 38 -9 5 -5 97 -12 204 -16 304 -10 263 -28 -97 -42 l-173 -6 0 -102 0 -101 64 7 c113 14 369 106 306 110 -76 5 -102 8 -107 13 -4 3 4 6 16 6 12 0 24 7 27 15 3 8 21 24 39 35 26 16 49 20 128 20 109 0 155 17 155 57 -1 13 -5 26 -10 29 -10 6 -263 22 -500 31 l-118 4 0 -25z m206 -163 l49 -8 -55 -5 c-68 -8 -162 -1 -154 11 6 11 93 12 160 2z"/>
    <path d="M7475 3459 c14 -9 116 -15 345 -20 179 -5 426 -13 550 -18 279 -13 477 -14 484 -2 8 13 -123 20 -599 32 -231 6 -505 13 -610 15 -154 4 -186 3 -170 -7z"/>
    <path d="M16253 3447 c-44 -10 -54 -26 -29 -46 21 -17 17 -70 -6 -84 -10 -7 -18 -15 -18 -19 0 -16 76 -7 108 12 26 16 32 26 32 54 0 18 -7 39 -15 46 -8 7 -15 21 -15 31 0 11 -3 18 -7 18 -5 -1 -27 -6 -50 -12z"/>
    <path d="M18060 3450 c-22 -14 -7 -21 29 -14 23 5 29 9 19 15 -17 11 -29 11 -48 -1z"/>
    <path d="M14756 3443 c-3 -4 -6 -17 -6 -29 0 -30 -38 -43 -56 -19 -11 14 -18 15 -46 6 -18 -6 -52 -16 -75 -21 -51 -13 -56 -19 -39 -52 10 -19 11 -29 3 -37 -8 -8 -5 -11 12 -11 12 0 19 4 16 10 -3 6 -1 10 4 10 15 0 7 -43 -10 -51 -8 -4 -22 -10 -31 -13 -28 -8 -22 -29 7 -24 17 4 25 1 25 -8 0 -8 -4 -14 -10 -14 -22 0 -8 -30 17 -36 15 -4 34 -13 41 -21 31 -30 136 -7 174 39 15 18 28 38 28 44 0 6 11 23 25 38 31 33 31 43 3 66 -17 14 -22 28 -22 59 1 36 -2 44 -26 56 -15 8 -30 11 -34 8z"/>
    <path d="M17055 3440 c-3 -5 1 -10 9 -10 9 0 16 5 16 10 0 6 -4 10 -9 10 -6 0 -13 -4 -16 -10z"/>
    <path d="M18166 3431 c22 -10 55 -37 73 -60 35 -44 55 -50 87 -26 22 16 80 20 89 5 18 -28 77 -42 182 -41 59 0 171 0 248 0 222 -2 356 6 364 20 12 19 82 31 202 36 112 4 156 11 176 27 8 6 32 5 66 -2 40 -9 59 -10 75 -1 11 6 41 11 66 11 25 0 48 5 51 10 4 6 -26 10 -83 10 -49 0 -114 5 -143 11 -34 6 -224 10 -504 9 -247 -1 -459 -2 -470 -1 -11 0 -132 3 -270 6 -250 5 -250 5 -209 -14z"/>
    <path d="M17256 3432 c-14 -6 -16 -11 -7 -16 7 -5 10 -14 7 -22 -4 -10 3 -14 23 -14 16 0 34 -6 40 -13 13 -16 117 -15 147 1 10 6 85 16 167 23 128 10 170 19 155 34 -8 8 -514 15 -532 7z"/>
    <path d="M15030 3410 c0 -5 4 -10 9 -10 6 0 13 5 16 10 3 6 -1 10 -9 10 -9 0 -16 -4 -16 -10z"/>
    <path d="M16697 3413 c-12 -11 -8 -23 8 -23 8 0 15 7 15 15 0 16 -12 20 -23 8z"/>
    <path d="M13685 3371 c-3 -5 -1 -12 4 -15 13 -8 42 4 35 15 -7 12 -31 12 -39 0z"/>
    <path d="M17545 3340 c-3 -5 -1 -10 4 -10 6 0 11 5 11 10 0 6 -2 10 -4 10 -3 0 -8 -4 -11 -10z"/>
    <path d="M14450 3300 c0 -5 7 -10 16 -10 8 0 12 5 9 10 -3 6 -10 10 -16 10 -5 0 -9 -4 -9 -10z"/>
    <path d="M19888 3263 c6 -2 18 -2 25 0 6 3 1 5 -13 5 -14 0 -19 -2 -12 -5z"/>
    <path d="M17660 3229 c-11 -19 -10 -20 10 -9 11 6 18 15 15 21 -9 13 -13 11 -25 -12z"/>
    <path d="M3355 3230 c3 -5 21 -10 38 -10 24 0 28 3 17 10 -20 13 -63 13 -55 0z"/>
    <path d="M15295 3210 c-3 -5 1 -10 9 -10 8 0 18 5 21 10 3 6 -1 10 -9 10 -8 0 -18 -4 -21 -10z"/>
    <path d="M17468 3193 c7 -3 16 -2 19 1 4 3 -2 6 -13 5 -11 0 -14 -3 -6 -6z"/>
    <path d="M17625 3180 c-17 -18 -17 -20 -1 -20 9 0 19 7 23 15 9 25 -2 27 -22 5z"/>
    <path d="M1390 3180 c0 -5 6 -10 14 -10 8 0 18 5 21 10 3 6 -3 10 -14 10 -12 0 -21 -4 -21 -10z"/>
    <path d="M18424 3114 c3 -8 6 -20 6 -25 0 -6 5 -7 10 -4 15 10 12 32 -6 39 -12 5 -15 2 -10 -10z"/>
    <path d="M14827 3084 c-12 -14 -29 -34 -39 -44 -30 -34 18 -44 51 -11 11 11 29 24 40 31 25 13 27 35 5 44 -26 10 -35 7 -57 -20z"/>
    <path d="M17414 3095 c-10 -8 -15 -15 -10 -15 4 0 1 -11 -7 -24 -16 -23 -15 -24 18 -30 35 -7 85 1 85 13 0 4 -11 13 -25 19 -14 6 -25 18 -25 26 0 22 -15 27 -36 11z"/>
    <path d="M19233 3097 c-40 -14 -63 -62 -33 -70 13 -3 21 -17 25 -43 3 -22 9 -51 14 -65 5 -15 4 -33 0 -42 -13 -22 0 -27 84 -38 71 -9 147 -4 147 10 0 4 -25 15 -55 25 -43 13 -56 22 -61 41 -4 18 -13 25 -29 25 -13 0 -27 5 -30 10 -3 6 0 10 7 10 15 0 40 26 57 59 10 18 18 20 59 14 l47 -6 -19 22 c-21 23 -42 27 -48 10 -3 -9 -10 -9 -27 0 -12 7 -35 10 -51 6 -16 -3 -31 -2 -35 4 -3 6 -1 11 6 11 8 0 8 4 -1 15 -7 8 -15 14 -19 14 -3 -1 -20 -7 -38 -12z"/>
    <path d="M16940 3080 c0 -5 9 -10 21 -10 15 0 19 -5 15 -15 -3 -9 0 -15 9 -15 8 0 25 -11 37 -25 13 -15 32 -25 47 -25 15 0 21 4 15 8 -6 4 -19 22 -28 40 -10 19 -24 32 -36 32 -10 0 -22 5 -25 10 -3 6 -17 10 -31 10 -13 0 -24 -4 -24 -10z"/>
    <path d="M16830 3064 c0 -10 7 -14 22 -12 32 5 35 28 4 28 -17 0 -26 -5 -26 -16z"/>
    <path d="M18340 3070 c0 -5 9 -14 19 -20 12 -6 17 -17 14 -28 -7 -28 21 -46 64 -39 49 8 67 28 59 62 -6 25 -9 26 -24 12 -33 -28 -58 -29 -90 -2 -32 27 -42 31 -42 15z"/>
    <path d="M18455 3070 c3 -5 8 -10 11 -10 2 0 4 5 4 10 0 6 -5 10 -11 10 -5 0 -7 -4 -4 -10z"/>
    <path d="M14565 3041 c-3 -5 -1 -12 5 -16 12 -7 30 2 30 16 0 12 -27 12 -35 0z"/>
    <path d="M17685 3040 c-9 -14 7 -72 21 -77 8 -3 14 -11 14 -18 0 -7 7 -15 15 -19 8 -3 15 -15 15 -26 0 -11 5 -20 10 -20 6 0 10 5 10 10 0 11 30 13 54 4 25 -10 19 -24 -11 -24 -16 0 -39 -7 -53 -15 -14 -8 -40 -21 -58 -30 -21 -10 -32 -22 -30 -32 3 -15 -11 -16 -137 -14 -77 2 -143 5 -148 8 -10 6 -77 -17 -77 -27 0 -12 65 -40 95 -40 37 0 65 -17 65 -41 0 -15 5 -19 18 -15 12 4 28 -3 45 -18 32 -30 22 -36 -61 -37 -53 -1 -55 -2 -22 -10 26 -6 1305 -16 1403 -10 19 1 23 26 5 37 -6 4 -25 10 -42 14 -23 5 -2 10 82 20 93 11 116 17 128 34 16 24 19 62 4 71 -22 14 -210 34 -312 35 -97 0 -107 2 -113 20 -5 15 -12 18 -34 14 -20 -4 -30 -1 -34 10 -4 9 -13 13 -21 10 -8 -3 -12 -12 -9 -20 6 -16 -32 -20 -42 -4 -3 6 -16 10 -28 9 -12 0 -16 -3 -9 -6 6 -2 12 -10 12 -18 0 -9 -31 -14 -117 -18 -65 -2 -146 -12 -180 -21 -77 -21 -254 -19 -261 3 -4 11 7 13 56 7 98 -11 137 24 65 58 -21 10 -58 31 -82 48 -24 16 -56 32 -72 35 -16 3 -29 10 -29 15 0 5 -8 7 -19 3 -10 -3 -30 0 -45 6 -23 11 -25 14 -11 29 13 14 13 19 0 37 -16 22 -52 36 -60 23z m315 -410 c0 -5 -4 -10 -10 -10 -5 0 -10 5 -10 10 0 6 5 10 10 10 6 0 10 -4 10 -10z"/>
    <path d="M14182 3013 c-37 -7 -14 -23 34 -23 32 0 44 4 42 13 -5 13 -39 18 -76 10z"/>
    <path d="M16702 3010 c-29 -4 -65 -13 -80 -18 -15 -6 -40 -13 -57 -17 l-30 -7 30 -12 c17 -7 36 -11 43 -8 21 7 13 -14 -14 -42 -27 -26 -68 -35 -79 -16 -11 18 -51 10 -74 -14 -22 -23 -22 -25 -4 -46 10 -12 27 -26 38 -30 15 -7 8 -9 -27 -9 -47 -1 -48 0 -48 29 0 35 -17 39 -55 14 -32 -21 -31 -32 3 -45 58 -24 72 -33 72 -47 0 -13 -14 -14 -92 -8 -103 8 -117 12 -92 30 15 11 12 14 -23 19 -22 4 -294 6 -604 5 -310 -1 -674 -1 -809 1 -135 2 -242 1 -239 -3 5 -5 272 -33 329 -34 41 0 289 -34 359 -48 26 -5 36 -3 43 10 11 19 45 21 51 4 3 -10 46 -13 173 -13 144 0 171 2 185 16 16 16 21 16 75 -2 32 -11 66 -26 75 -35 10 -9 27 -14 37 -12 21 6 52 -8 52 -22 0 -6 -8 -10 -17 -10 -15 0 -15 -2 -3 -14 19 -18 80 -10 80 11 0 20 61 10 73 -12 6 -11 27 -15 85 -14 l77 1 -50 9 c-83 15 -96 19 -90 29 3 5 -7 10 -22 12 -35 4 -43 28 -10 28 36 0 57 -10 57 -26 0 -17 10 -17 44 -4 39 15 213 20 287 8 66 -10 105 -7 219 22 25 6 68 16 95 22 50 11 165 66 196 94 16 14 24 94 9 94 -4 0 -27 17 -51 38 -40 34 -135 84 -156 81 -4 -1 -32 -5 -61 -9z m178 -100 c24 -15 6 -21 -64 -23 -53 -2 -66 -5 -66 -18 0 -24 -10 -29 -37 -16 -18 8 -29 8 -44 -1 -25 -16 -31 -15 -27 5 7 35 198 78 238 53z"/>
    <path d="M17290 3010 c-25 -5 -55 -6 -67 -3 -17 4 -25 -1 -32 -18 -13 -35 1 -44 73 -44 71 0 108 21 99 56 -6 20 -5 20 -73 9z"/>
    <path d="M13077 2993 c-13 -12 -7 -23 13 -23 11 0 20 7 20 15 0 15 -21 21 -33 8z"/>
    <path d="M14383 2993 c9 -2 25 -2 35 0 9 3 1 5 -18 5 -19 0 -27 -2 -17 -5z"/>
    <path d="M16203 2932 c-21 -2 -30 -8 -27 -16 7 -18 -22 -46 -47 -46 -10 0 -19 -4 -19 -10 0 -5 1 -10 3 -10 1 -1 44 -3 95 -7 96 -6 108 0 72 32 -11 10 -20 26 -20 35 0 21 -14 27 -57 22z"/>
    <path d="M16302 2929 c2 -6 8 -10 13 -10 5 0 11 4 13 10 2 6 -4 11 -13 11 -9 0 -15 -5 -13 -11z"/>
    <path d="M18010 2906 c0 -17 54 -41 70 -31 8 5 5 13 -9 26 -23 22 -61 25 -61 5z"/>
    <path d="M12776 2881 c-8 -13 39 -23 71 -15 25 7 25 8 8 15 -28 11 -73 11 -79 0z"/>
    <path d="M17374 2839 c-7 -11 12 -29 31 -29 19 0 38 18 31 29 -4 6 -18 11 -31 11 -13 0 -27 -5 -31 -11z"/>
    <path d="M10182 2783 c-7 -11 -70 -17 -382 -32 -176 -9 -380 -27 -412 -37 -9 -3 -15 -11 -12 -18 3 -9 -5 -15 -25 -18 -22 -3 -31 -1 -31 10 0 12 -18 13 -112 7 -61 -4 -126 -14 -144 -21 -18 -8 -57 -14 -86 -14 -74 0 -100 -9 -93 -30 3 -11 -2 -21 -17 -28 -19 -10 -6 -11 62 -6 113 7 140 13 140 30 0 18 14 18 29 1 8 -10 25 -12 63 -7 56 8 194 -5 237 -22 l26 -10 -24 -19 c-13 -10 -34 -19 -46 -19 -13 0 -36 -5 -52 -11 -15 -6 -101 -12 -191 -14 -98 -1 -167 -6 -174 -13 -7 -7 9 -10 53 -11 35 0 109 -5 164 -11 55 -5 112 -10 128 -10 15 0 27 -5 27 -12 0 -11 -62 -9 -390 11 -97 6 -117 16 -45 23 46 5 36 22 -20 33 -27 6 -55 13 -62 18 -6 4 -60 9 -120 11 -80 3 -101 2 -83 -6 42 -17 53 -23 54 -32 2 -15 -26 -24 -114 -36 -47 -6 -117 -18 -157 -26 -39 -8 -79 -11 -87 -8 -8 3 -75 -1 -148 -10 -203 -24 -228 -25 -593 -35 -260 -7 -351 -12 -386 -24 -24 -8 -62 -19 -84 -23 -22 -4 -45 -14 -51 -22 -9 -12 -35 -14 -159 -9 -114 4 -153 3 -169 -8 -17 -11 -72 -20 -150 -24 -5 -1 -3 -8 4 -16 21 -25 1 -36 -63 -35 -34 1 -79 -2 -99 -6 -25 -4 -38 -2 -38 5 0 6 -9 11 -21 11 -12 0 -18 -4 -13 -11 12 -21 -21 -29 -120 -29 -95 0 -132 -4 -271 -31 -33 -6 -114 -13 -179 -15 -122 -4 -213 -24 -229 -50 -5 -9 -28 -14 -68 -14 -75 0 -69 -16 9 -25 31 -3 80 -12 107 -20 28 -7 78 -19 113 -26 53 -10 60 -14 50 -26 -6 -8 -22 -13 -34 -10 -19 3 -21 2 -11 -15 13 -20 37 -25 37 -7 0 7 25 9 73 6 66 -4 119 -18 156 -41 31 -20 -29 -25 -305 -25 -241 -1 -283 -3 -288 -16 -7 -18 -47 -20 -65 -2 -10 10 -12 9 -9 -3 2 -10 -4 -14 -17 -12 -11 2 -67 7 -125 13 -58 5 -123 13 -145 18 -42 10 -265 5 -325 -8 -19 -4 -53 -4 -75 0 -56 11 -107 11 -101 0 3 -5 20 -11 38 -14 60 -11 162 -25 258 -37 52 -7 110 -18 129 -26 18 -8 51 -14 72 -14 22 0 74 -9 117 -21 99 -27 256 -30 293 -6 18 12 41 15 84 13 33 -3 73 -5 89 -5 l29 -1 -21 -23 c-12 -12 -33 -24 -48 -25 -53 -4 -60 -27 -11 -40 21 -6 31 -14 29 -25 -1 -9 7 -21 18 -27 14 -7 19 -17 16 -27 -10 -25 12 -41 72 -54 59 -12 122 -36 122 -46 0 -3 -16 -39 -35 -79 -35 -73 -41 -94 -28 -94 12 0 83 82 83 96 0 20 15 25 49 13 40 -14 40 -27 -1 -31 -25 -2 -34 -9 -41 -33 -13 -37 -45 -64 -76 -65 -23 0 -24 -1 -6 -20 14 -15 15 -23 6 -34 -17 -21 1 -28 57 -24 36 2 47 -1 50 -13 2 -11 -10 -20 -40 -29 -24 -8 -52 -20 -63 -27 -11 -7 -46 -13 -78 -13 l-59 0 21 33 c11 19 18 37 15 40 -8 7 -64 -20 -64 -31 0 -5 -9 -18 -20 -30 -18 -19 -30 -21 -103 -20 -108 2 -166 -28 -102 -52 49 -19 30 -32 -95 -65 -36 -9 -76 -21 -90 -26 -44 -14 -114 -20 -130 -10 -16 11 -17 10 30 39 l35 22 -28 0 c-15 0 -41 -7 -57 -15 -63 -33 -159 -29 -102 4 11 7 12 10 4 11 -8 0 -27 -8 -43 -17 -32 -19 -49 -12 -29 12 10 12 10 15 -3 15 -8 0 -17 -6 -20 -14 -3 -7 -23 -16 -44 -19 -30 -3 -41 0 -55 17 -17 21 -18 21 -65 4 -26 -10 -52 -13 -56 -9 -5 5 -4 12 2 15 6 4 11 14 11 22 0 27 43 74 67 74 14 0 21 4 18 10 -7 12 -105 11 -150 -1 -257 -68 -485 -107 -686 -116 -131 -6 -137 -5 -155 16 -10 11 -26 21 -36 21 -9 0 -20 4 -23 10 -3 5 -24 14 -46 20 -22 6 -43 18 -46 26 -3 7 -17 14 -32 14 -14 0 -44 10 -66 22 -42 23 -108 32 -329 44 -69 3 -117 10 -129 19 -17 12 -25 12 -55 0 -19 -8 -47 -15 -62 -15 -14 0 -30 -3 -34 -7 -9 -9 -55 -14 -101 -12 -106 5 -297 -3 -325 -15 -8 -3 -62 -10 -120 -15 -302 -27 -448 -44 -480 -56 -55 -22 -136 -18 -160 7 -19 20 -21 21 -82 6 -42 -11 -69 -13 -81 -7 -11 6 -40 6 -80 -2 -34 -6 -109 -12 -167 -14 -65 -2 -133 -11 -180 -23 -41 -11 -112 -23 -158 -26 -80 -6 -82 -6 -83 16 -1 13 -1 27 0 32 1 4 -13 6 -31 2 -120 -22 -168 -26 -228 -17 -39 5 -75 5 -89 -1 -13 -5 -65 -12 -115 -17 -50 -5 -153 -19 -228 -32 l-138 -24 0 -52 c0 -39 4 -54 18 -62 16 -9 16 -10 0 -16 -16 -7 -18 -27 -18 -226 l0 -219 42 6 c35 5 41 4 31 -6 -7 -8 -26 -13 -43 -13 l-30 0 0 -229 0 -228 7359 0 c6532 0 7360 2 7365 15 3 8 13 15 23 15 29 1 103 38 103 52 0 16 47 68 60 68 6 0 10 7 10 15 0 8 21 22 50 32 52 18 58 29 38 64 -11 17 -10 22 7 35 21 16 81 12 118 -8 21 -11 54 9 39 24 -5 5 -294 15 -643 23 -349 8 -665 16 -704 19 -38 3 -250 8 -470 11 -220 3 -528 10 -685 15 -157 5 -402 12 -545 15 -143 3 -339 8 -435 10 -525 15 -1454 38 -1650 40 -124 2 -331 8 -460 14 -365 16 -582 20 -1330 26 -664 5 -1004 12 -1660 35 -390 13 -1026 29 -1275 31 -110 1 -222 5 -250 9 l-50 7 40 18 c22 10 65 22 95 26 60 8 828 -5 1300 -22 643 -23 857 -29 1405 -38 314 -6 809 -13 1100 -16 292 -3 541 -8 555 -10 14 -2 156 -7 315 -10 160 -3 377 -8 483 -11 177 -5 195 -4 207 12 12 17 14 17 37 2 22 -14 87 -18 454 -27 236 -6 593 -16 794 -21 587 -16 696 -19 1060 -25 801 -12 1041 -17 1325 -25 165 -5 462 -12 660 -16 331 -7 359 -6 347 9 -19 22 -7 37 29 37 40 0 33 22 -9 34 -18 5 -32 13 -32 19 0 12 39 47 52 47 5 0 7 4 3 9 -3 5 -48 19 -100 31 -95 22 -124 40 -63 40 66 0 18 10 -73 15 -90 5 -199 29 -199 45 0 5 -15 14 -32 20 -27 11 -29 13 -13 17 47 9 132 37 150 49 11 8 26 14 34 14 21 0 111 -42 111 -52 0 -4 9 -8 21 -8 11 0 17 4 14 10 -3 5 -1 10 4 10 6 0 11 4 11 9 0 5 -26 17 -57 27 -71 21 -71 21 -47 39 13 10 41 15 89 14 78 -1 142 7 196 23 27 8 50 7 89 -2 36 -9 55 -9 62 -2 7 7 0 13 -26 17 -47 9 -46 25 2 25 56 0 159 47 176 81 13 26 13 29 -7 36 -22 8 -32 10 -54 12 -7 0 -13 6 -13 11 0 6 19 10 43 10 43 1 126 19 186 41 30 11 32 13 18 24 -22 16 -21 22 2 28 14 3 18 11 14 26 -5 19 -1 21 35 21 23 0 44 5 48 11 4 7 24 9 49 6 55 -6 73 4 49 27 -13 14 -27 16 -72 10 -44 -5 -54 -4 -50 7 3 8 14 15 26 17 11 2 26 10 32 18 7 8 27 14 44 14 26 1 28 2 13 11 -35 21 -199 29 -569 29 -207 0 -563 4 -790 10 -227 5 -712 12 -1078 15 -366 3 -926 8 -1244 11 -529 5 -579 4 -567 -10 11 -13 11 -16 -2 -16 -25 0 -47 11 -41 21 3 5 -32 9 -79 9 -47 0 -99 3 -116 6 -40 8 -41 -11 -1 -25 17 -5 30 -14 30 -20 0 -18 -63 -31 -110 -23 -58 10 -67 37 -15 46 19 4 33 11 31 15 -5 8 -313 15 -1421 31 -737 10 -1093 18 -1260 25 -60 3 -354 7 -652 11 -490 5 -543 4 -543 -10 0 -9 -3 -16 -7 -17 -5 0 -89 -2 -188 -4 -99 -3 -213 -7 -252 -10 -42 -3 -73 -2 -73 3 0 6 9 12 21 15 12 3 18 10 15 16 -11 17 31 23 91 12 70 -14 133 -14 153 -1 11 7 4 10 -27 10 -23 0 -45 4 -48 10 -9 14 40 23 92 17 25 -3 58 -1 72 4 32 11 178 38 244 46 51 5 85 -10 58 -26 -7 -5 -9 -11 -5 -14 5 -3 180 -8 389 -11 209 -4 580 -11 825 -16 446 -10 1363 -25 2160 -35 234 -3 458 -8 498 -11 48 -4 72 -2 72 5 0 6 -23 12 -52 13 -29 1 -69 3 -89 4 -37 1 -85 36 -74 54 6 10 252 6 278 -5 12 -5 15 -11 7 -20 -17 -20 20 -43 80 -49 30 -3 588 -10 1240 -16 652 -5 1250 -12 1330 -15 80 -3 303 -8 495 -11 193 -3 353 -8 358 -11 4 -2 74 -3 155 -2 81 2 235 3 342 4 107 0 221 5 253 9 l57 9 -41 30 c-38 28 -40 31 -23 44 10 7 24 13 31 13 7 0 14 6 15 13 0 6 2 17 2 23 2 22 27 42 87 69 45 20 58 30 48 36 -8 5 -22 9 -31 9 -50 0 7 50 80 71 l57 17 -30 11 c-53 22 -7 31 123 24 82 -4 122 -3 122 4 0 6 -38 14 -90 18 -49 4 -90 11 -90 16 0 5 11 7 24 3 13 -3 42 0 65 6 23 6 82 12 132 12 52 1 84 5 75 10 -27 15 -161 35 -203 30 -35 -3 -43 -1 -43 12 0 9 8 16 19 16 27 0 35 16 13 25 -24 10 -232 12 -1432 19 -635 4 -1057 3 -1045 -3 12 -5 73 -14 135 -21 325 -35 349 -52 105 -76 -60 -6 -374 7 -660 27 -290 20 -401 24 -532 19 -129 -5 -134 -6 -158 -32 -14 -15 -38 -30 -53 -34 -49 -11 -48 -12 10 -13 70 -1 88 -8 88 -32 0 -23 5 -22 -255 -9 -484 25 -545 27 -649 19 -64 -5 -114 -5 -119 0 -5 5 -21 4 -38 -2 -22 -9 -32 -8 -41 2 -10 11 -10 14 0 18 6 3 12 11 12 19 0 15 22 22 85 27 25 2 15 4 -27 5 -36 1 -73 5 -82 8 -27 10 -18 32 17 42 78 24 107 23 107 -3 0 -9 21 -15 63 -19 34 -4 83 -9 108 -12 36 -4 50 -2 64 13 21 20 24 19 -115 46 -41 8 -102 22 -135 31 -48 12 -121 15 -365 16 -273 0 -695 6 -1795 25 -192 4 -458 8 -590 10 -283 3 -262 2 -247 17 10 10 123 12 490 11 262 -2 538 -5 612 -8 162 -7 1387 -25 1687 -25 198 0 212 1 206 18 -4 9 -14 22 -22 29 -22 16 -13 22 45 29 28 4 60 17 76 29 15 13 43 26 62 29 42 8 43 12 14 35 -24 20 -17 41 15 41 47 0 98 21 109 46 6 13 8 27 5 31 -22 21 -498 44 -533 25 -11 -6 -60 -14 -110 -18 -67 -5 -93 -11 -107 -25 -10 -10 -36 -22 -57 -25 -30 -5 -40 -11 -38 -23 2 -11 -5 -16 -22 -16 -26 0 -31 17 -16 62 6 19 2 22 -46 33 -29 6 -139 11 -245 11 -111 0 -195 4 -198 9 -4 6 -75 10 -168 9 -214 -1 -837 17 -844 25 -17 17 31 20 287 18 242 -3 282 -1 303 13 21 13 34 14 88 5 35 -6 145 -13 244 -15 144 -4 175 -2 155 8 -24 11 -22 12 24 15 27 2 56 0 65 -3 14 -6 14 -8 -4 -21 -18 -14 -3 -15 145 -9 227 8 380 6 480 -7 47 -6 202 -11 345 -12 229 -1 261 1 272 15 7 9 27 19 44 23 17 3 43 18 56 32 22 24 28 25 76 19 29 -4 62 -11 75 -16 13 -5 80 -9 150 -9 147 0 342 -19 339 -33 -3 -16 85 -37 130 -31 63 9 42 24 -33 24 -61 0 -83 11 -48 24 28 11 391 7 421 -5 l28 -11 -25 -10 -25 -10 25 -8 c14 -4 74 -10 133 -13 97 -6 108 -5 114 11 9 25 23 32 67 32 30 0 37 3 32 15 -3 8 3 19 13 24 24 13 188 8 226 -7 17 -6 42 -14 58 -17 48 -10 29 -25 -32 -25 -58 0 -83 -12 -64 -31 5 -5 173 -11 384 -14 240 -3 361 -1 339 5 -19 5 -98 10 -175 10 -77 1 -165 8 -195 15 -30 7 -64 13 -75 12 -11 0 -33 1 -50 2 l-30 3 35 12 c25 9 42 10 58 3 16 -8 26 -7 34 1 16 16 82 15 148 -2 43 -11 74 -12 150 -4 58 6 167 7 280 2 271 -11 320 -10 375 4 54 13 301 6 311 -10 3 -4 27 -8 54 -8 55 0 82 -8 74 -22 -3 -5 -70 -9 -152 -9 -308 0 -784 -8 -790 -13 -5 -5 537 -12 793 -10 234 2 428 7 405 11 -24 4 -77 24 -109 42 -8 4 -17 13 -19 19 -5 15 191 11 388 -7 122 -11 250 -6 250 9 0 44 -158 104 -368 140 -35 6 -76 16 -90 23 -19 8 -200 14 -582 19 -305 5 -568 9 -585 10 -75 3 -234 -6 -229 -14 8 -13 -25 -21 -39 -10 -7 6 -47 14 -90 18 -67 6 -79 4 -90 -10 -9 -12 -23 -16 -42 -14 l-30 4 25 11 c23 11 22 12 -18 12 -23 1 -51 -4 -62 -11 -15 -10 -26 -10 -53 0 -42 15 -82 15 -147 0 -39 -9 -56 -9 -70 0 -13 8 -222 13 -727 17 -389 3 -901 7 -1138 10 -236 2 -718 7 -1070 11 -352 4 -642 8 -645 11 -14 13 32 19 118 17 366 -9 1585 -15 1579 -8 -5 5 -63 14 -130 19 -129 11 -159 27 -67 35 32 3 50 8 43 13 -7 4 -46 5 -88 1 -96 -9 -344 29 -377 58 -12 10 -30 18 -40 18 -10 0 -31 6 -47 14 -22 12 -123 15 -565 18 -398 2 -540 0 -544 -9z m1178 -53 c11 -7 7 -10 -18 -10 -20 0 -31 4 -27 10 8 13 26 13 45 0z m-75 -10 c-3 -5 -10 -10 -16 -10 -5 0 -9 5 -9 10 0 6 7 10 16 10 8 0 12 -4 9 -10z m-1741 -31 c-3 -5 -35 -9 -72 -9 -77 0 -75 17 3 22 57 3 77 0 69 -13z m481 11 c3 -6 0 -12 -7 -14 -7 -1 -28 -8 -47 -14 -44 -15 -58 -6 -29 18 25 21 73 26 83 10z m4025 -160 c0 -5 -7 -10 -15 -10 -8 0 -15 5 -15 10 0 6 7 10 15 10 8 0 15 -4 15 -10z m-5360 -10 c0 -5 -7 -10 -15 -10 -8 0 -15 5 -15 10 0 6 7 10 15 10 8 0 15 -4 15 -10z m6130 -40 c22 -7 21 -8 -12 -9 -21 -1 -38 4 -38 9 0 11 14 11 50 0z m-5807 -46 c26 -4 44 -10 42 -14 -6 -10 -177 0 -189 11 -12 10 79 12 147 3z m202 -14 c15 -6 6 -9 -32 -9 -28 -1 -55 4 -58 9 -8 12 61 12 90 0z m-770 -13 c17 1 62 5 101 9 76 7 74 7 123 -51 11 -14 24 -16 65 -11 50 7 106 -5 106 -21 0 -5 -48 -9 -107 -10 -212 -3 -337 -14 -346 -29 -4 -8 -21 -14 -37 -14 -38 0 -48 -18 -15 -26 53 -13 21 -21 -72 -17 -236 10 -266 12 -276 22 -9 9 11 15 83 24 14 1 24 8 23 15 -2 6 6 12 18 12 14 0 19 5 16 14 -3 7 -1 18 5 24 8 8 -17 10 -88 6 -88 -5 -97 -4 -79 9 23 17 116 36 198 42 32 2 61 6 65 9 3 4 47 3 96 -1 50 -4 105 -7 121 -6z m1483 6 c-10 -2 -28 -2 -40 0 -13 2 -5 4 17 4 22 1 32 -1 23 -4z m-615 -10 c-7 -2 -21 -2 -30 0 -10 3 -4 5 12 5 17 0 24 -2 18 -5z m1012 -3 c4 -6 -8 -10 -30 -10 -22 0 -34 4 -30 10 3 6 17 10 30 10 13 0 27 -4 30 -10z m240 -10 c13 0 16 -3 8 -11 -13 -13 -115 -1 -107 13 4 6 23 8 43 4 20 -3 45 -6 56 -6z m-3480 -70 c-3 -5 -10 -10 -16 -10 -5 0 -9 5 -9 10 0 6 7 10 16 10 8 0 12 -4 9 -10z m385 -29 c47 -8 42 -9 -40 -4 -52 3 -102 9 -110 14 -17 11 63 6 150 -10z m215 -11 c4 -6 -13 -10 -44 -10 -28 0 -51 5 -51 10 0 6 20 10 44 10 25 0 48 -4 51 -10z m198 -9 c8 -8 2 -11 -23 -12 -47 -2 -50 -2 -94 6 -29 5 -36 9 -25 16 19 12 128 4 142 -10z m712 -32 c94 -15 106 -20 73 -29 -14 -4 -48 -4 -75 1 -26 6 -68 7 -93 4 -26 -4 -58 -1 -75 5 -27 11 -28 13 -10 20 31 11 103 11 180 -1z m345 -20 c80 -6 206 -12 280 -13 74 -2 161 -9 194 -16 56 -13 59 -13 75 9 12 15 25 22 42 19 33 -4 29 -22 -7 -29 -26 -5 -25 -6 19 -13 26 -5 50 -13 54 -19 8 -13 -247 -4 -547 19 -113 9 -223 17 -245 18 -40 3 -95 21 -95 31 0 8 69 6 230 -6z m-1170 -39 c0 -5 -4 -10 -10 -10 -5 0 -10 5 -10 10 0 6 5 10 10 10 6 0 10 -4 10 -10z m610 0 c8 -5 12 -12 8 -15 -9 -9 -48 4 -48 16 0 12 21 11 40 -1z m237 -6 c-3 -3 -12 -4 -19 -1 -8 3 -5 6 6 6 11 1 17 -2 13 -5z m133 -10 c0 -2 -7 -4 -15 -4 -8 0 -15 4 -15 10 0 5 7 7 15 4 8 -4 15 -8 15 -10z m70 -4 c0 -5 -7 -10 -15 -10 -8 0 -15 5 -15 10 0 6 7 10 15 10 8 0 15 -4 15 -10z m2364 4 c9 -3 13 -10 10 -15 -7 -12 39 -29 64 -22 11 3 29 0 39 -6 15 -8 10 -11 -27 -12 -25 0 -81 -3 -125 -5 -44 -2 -90 -2 -102 1 -27 6 -31 25 -5 25 9 0 31 9 47 20 30 20 69 25 99 14z m-1781 -43 c4 -1 7 -6 7 -12 0 -14 -128 -5 -143 10 -8 8 79 9 136 2z m-2226 -28 c5 -13 -70 -28 -88 -17 -19 12 22 35 55 32 16 -2 31 -8 33 -15z m168 -43 c4 -6 -5 -10 -19 -10 -14 0 -26 5 -26 10 0 6 9 10 19 10 11 0 23 -4 26 -10z m3763 -1 c49 -17 28 -29 -48 -29 -74 0 -97 12 -53 28 38 14 64 14 101 1z m-3764 -45 c19 -7 19 -8 0 -15 -13 -5 -6 -8 24 -8 54 -1 82 -16 82 -43 0 -20 -3 -21 -87 -13 -49 4 -106 9 -128 10 -88 5 -144 17 -161 36 -20 22 -18 22 64 19 31 -1 44 3 49 16 5 14 16 16 72 11 36 -3 75 -9 85 -13z m-1144 -114 c13 -9 13 -11 0 -20 -8 -5 -25 -10 -37 -10 -27 0 -73 20 -73 32 0 11 92 10 110 -2z m1283 3 c-7 -2 -19 -2 -25 0 -7 3 -2 5 12 5 14 0 19 -2 13 -5z m-1978 -23 c-3 -5 -12 -7 -20 -3 -21 7 -19 13 6 13 11 0 18 -4 14 -10z m1155 -20 c0 -5 -4 -10 -9 -10 -6 0 -13 5 -16 10 -3 6 1 10 9 10 9 0 16 -4 16 -10z m1968 -11 c79 -20 72 -30 -18 -25 -82 4 -102 12 -63 27 25 10 28 10 81 -2z m112 -19 c0 -5 -7 -10 -16 -10 -8 0 -12 5 -9 10 3 6 10 10 16 10 5 0 9 -4 9 -10z m-1052 -58 c3 -10 -9 -13 -49 -12 -74 3 -119 10 -119 22 0 15 163 5 168 -10z m417 -2 c3 -5 -1 -10 -9 -10 -9 0 -16 5 -16 10 0 6 4 10 9 10 6 0 13 -4 16 -10z m1845 -34 c0 -2 -7 -6 -15 -10 -8 -3 -15 -1 -15 4 0 6 7 10 15 10 8 0 15 -2 15 -4z m600 -16 c0 -5 -22 -10 -50 -10 -27 0 -50 5 -50 10 0 6 23 10 50 10 28 0 50 -4 50 -10z m1625 -39 c7 -12 -12 -24 -25 -16 -11 7 -4 25 10 25 5 0 11 -4 15 -9z m1249 -17 c9 -23 -2 -34 -34 -34 -28 0 -41 14 -32 38 6 18 59 15 66 -4z m-1918 -34 c34 -13 24 -24 -21 -22 -41 2 -58 9 -50 23 8 12 37 12 71 -1z m-3752 -49 c3 -5 -9 -11 -27 -14 -37 -5 -48 0 -27 13 19 12 47 13 54 1z m3973 -23 c-2 -9 -23 -12 -63 -11 -79 3 -83 4 -54 13 42 14 122 12 117 -2z m-4512 -178 c3 -5 -1 -10 -9 -10 -9 0 -16 5 -16 10 0 6 4 10 9 10 6 0 13 -4 16 -10z m100 0 c-3 -5 -12 -10 -20 -10 -8 0 -17 5 -20 10 -4 6 5 10 20 10 15 0 24 -4 20 -10z m3953 -37 c2 -9 -8 -13 -32 -13 -34 0 -52 11 -39 24 11 11 66 2 71 -11z m37 -60 c42 -8 93 -38 83 -49 -11 -10 -86 7 -99 22 -6 8 -29 17 -50 20 -22 4 -39 11 -39 16 0 10 17 8 105 -9z m-5375 -43 c0 -5 -9 -10 -20 -10 -11 0 -20 5 -20 10 0 6 9 10 20 10 11 0 20 -4 20 -10z m4657 -108 c12 -7 33 -12 46 -12 17 0 24 -5 23 -17 -1 -13 9 -19 33 -23 l33 -5 -21 -20 c-18 -15 -35 -19 -84 -17 -34 1 -70 5 -79 8 -10 3 -18 1 -18 -5 0 -6 9 -11 20 -11 21 0 26 -16 11 -39 -5 -8 -47 -19 -102 -27 -52 -7 -117 -21 -145 -29 -27 -9 -86 -16 -130 -17 -43 0 -97 -8 -119 -16 -47 -17 -165 -17 -307 -1 -66 7 -107 8 -126 1 -31 -11 -59 -1 -48 16 3 6 -3 17 -14 25 -20 14 -20 15 13 21 19 4 41 14 48 22 30 37 256 119 337 123 36 2 166 17 247 29 79 11 357 7 382 -6z m-9987 -32 c0 -5 -9 -10 -20 -10 -11 0 -20 5 -20 10 0 6 9 10 20 10 11 0 20 -4 20 -10z m14877 -56 c-3 -3 -12 -4 -19 -1 -8 3 -5 6 6 6 11 1 17 -2 13 -5z m-73 -10 c32 -12 14 -24 -37 -24 -31 0 -61 6 -73 15 -17 13 -14 14 38 15 31 0 63 -3 72 -6z m-4617 -20 c-3 -3 -12 -4 -19 -1 -8 3 -5 6 6 6 11 1 17 -2 13 -5z m265 -31 c10 -9 18 -23 18 -30 0 -15 -22 -14 -112 3 -29 6 -38 28 -15 37 28 12 91 6 109 -10z m98 -123 c0 -5 -2 -10 -4 -10 -3 0 -8 5 -11 10 -3 6 -1 10 4 10 6 0 11 -4 11 -10z m-6019 -175 c-1 -15 -24 -12 -29 3 -3 9 2 13 12 10 10 -1 17 -7 17 -13z"/>
    <path d="M8163 2363 c9 -2 23 -2 30 0 6 3 -1 5 -18 5 -16 0 -22 -2 -12 -5z"/>
    <path d="M8300 2346 c0 -2 7 -7 16 -10 8 -3 12 -2 9 4 -6 10 -25 14 -25 6z"/>
    <path d="M8213 2323 c9 -2 25 -2 35 0 9 3 1 5 -18 5 -19 0 -27 -2 -17 -5z"/>
    <path d="M12368 2782 c-54 -2 -68 -6 -68 -18 0 -14 18 -15 138 -12 80 2 145 8 157 15 16 9 4 12 -70 15 -50 2 -120 2 -157 0z"/>
    <path d="M12217 2773 c-13 -12 -7 -23 13 -23 13 0 18 5 14 15 -7 16 -17 19 -27 8z"/>
    <path d="M13215 2761 c-22 -11 -46 -20 -52 -21 -7 0 -13 -4 -13 -9 0 -14 78 -22 183 -19 82 2 99 -1 117 -17 27 -24 153 -25 390 -2 205 19 254 21 245 7 -3 -5 -28 -10 -56 -10 -27 0 -49 -4 -49 -9 0 -16 77 -22 275 -19 105 1 273 -2 375 -6 102 -4 219 -4 260 1 43 5 91 5 112 0 30 -7 41 -5 53 7 9 9 15 16 13 17 -52 11 -354 44 -548 60 -74 5 -187 15 -250 20 -63 5 -317 12 -565 15 -436 5 -451 4 -490 -15z m293 -13 c-7 -19 -53 -21 -68 -4 -11 14 -7 16 30 16 29 0 40 -4 38 -12z"/>
    <path d="M19535 2770 c-3 -5 1 -10 9 -10 9 0 16 5 16 10 0 6 -4 10 -9 10 -6 0 -13 -4 -16 -10z"/>
    <path d="M19575 2680 c3 -5 10 -10 16 -10 5 0 9 5 9 10 0 6 -7 10 -16 10 -8 0 -12 -4 -9 -10z"/>
    <path d="M13255 2671 c-45 -4 -79 -10 -78 -16 1 -6 -85 -9 -245 -8 -156 1 -262 -2 -287 -9 -40 -11 -92 -14 -215 -10 -36 1 -76 1 -90 0 -14 0 -82 0 -151 2 -71 1 -134 -2 -144 -7 -28 -16 107 -20 714 -22 l555 -2 -19 21 c-18 19 -18 20 1 21 10 0 44 8 74 19 l55 18 -45 -1 c-25 0 -81 -3 -125 -6z"/>
    <path d="M18994 2650 c-5 -5 -24 -12 -42 -14 -17 -2 -39 -9 -48 -17 -14 -11 -13 -15 8 -31 13 -9 33 -18 45 -18 35 0 103 -31 103 -46 0 -10 13 -14 44 -14 25 0 47 -4 50 -8 9 -16 -97 -31 -169 -25 -38 3 -140 7 -225 8 -177 2 -434 25 -422 37 5 5 82 15 171 22 89 8 165 16 168 19 3 3 -207 6 -467 7 -316 0 -469 -3 -465 -10 3 -5 17 -10 30 -10 13 0 52 -7 87 -15 35 -8 89 -17 121 -19 32 -3 64 -9 70 -13 6 -4 43 -13 82 -20 38 -7 95 -18 125 -25 30 -6 73 -12 95 -13 22 -1 57 -9 78 -19 22 -9 64 -19 95 -21 72 -5 153 -19 169 -28 6 -4 247 -8 535 -9 493 -2 525 -1 551 16 23 15 42 18 122 14 85 -3 95 -2 95 13 0 27 -62 34 -290 34 -113 0 -214 4 -224 9 -13 7 -17 6 -13 -2 4 -6 -7 -17 -25 -27 -26 -13 -38 -13 -61 -4 -35 15 -19 29 32 29 62 0 24 11 -55 16 -43 3 -93 12 -112 21 -28 14 -32 19 -27 43 9 42 -10 78 -51 95 -48 20 -94 20 -94 0 0 -8 -4 -15 -9 -15 -5 0 -16 -3 -24 -6 -11 -4 -16 2 -19 22 -3 30 -18 40 -34 24z m345 -216 c2 -2 2 -7 -2 -10 -9 -10 -78 6 -72 16 5 8 63 3 74 -6z"/>
    <path d="M15103 2643 c26 -2 67 -2 90 0 23 2 2 3 -48 3 -49 0 -68 -1 -42 -3z"/>
    <path d="M13645 2610 c-4 -6 11 -10 41 -10 54 0 55 4 2 14 -21 4 -39 2 -43 -4z"/>
    <path d="M15168 2611 c-80 -3 -150 -9 -154 -13 -4 -5 15 -8 42 -8 27 0 156 -3 287 -6 145 -3 237 -2 237 4 0 22 -186 33 -412 23z"/>
    <path d="M16282 2611 c-8 -4 43 -10 120 -14 140 -6 197 5 81 16 -94 9 -185 8 -201 -2z"/>
    <path d="M16446 2563 l-148 -4 24 -22 c14 -13 49 -33 79 -46 90 -38 86 -37 71 -19 -7 9 -9 18 -5 21 11 6 53 -10 53 -21 0 -4 48 -9 108 -10 107 -2 152 8 152 34 0 6 17 16 38 22 44 11 35 15 -68 32 -100 16 -129 17 -304 13z"/>
    <path d="M8910 2540 c0 -5 5 -10 10 -10 6 0 10 5 10 10 0 6 -4 10 -10 10 -5 0 -10 -4 -10 -10z"/>
    <path d="M17044 2521 c4 -6 18 -11 31 -11 50 0 76 -25 33 -32 -18 -3 -13 -7 22 -17 36 -11 41 -15 27 -22 -24 -14 -21 -25 11 -37 36 -14 342 -25 362 -12 11 7 -17 25 -115 72 l-130 63 -124 3 c-87 3 -121 0 -117 -7z"/>
    <path d="M17470 2516 c0 -4 16 -14 35 -22 19 -7 71 -32 116 -54 l82 -40 133 0 c176 0 183 13 29 53 -84 22 -98 25 -231 42 -66 9 -129 18 -141 22 -13 3 -23 2 -23 -1z"/>
    <path d="M17488 2343 c7 -3 16 -2 19 1 4 3 -2 6 -13 5 -11 0 -14 -3 -6 -6z"/>
    <path d="M19020 2341 c-24 -7 -24 -8 10 -16 19 -4 112 -10 205 -12 596 -14 667 -15 678 -4 8 8 -12 11 -73 12 -419 6 -532 9 -644 18 -142 12 -140 12 -176 2z"/>
    <path d="M16175 2320 c-50 -5 -22 -7 95 -7 118 0 148 2 105 7 -69 9 -103 9 -200 0z"/>
    <path d="M17685 2320 c3 -5 8 -10 11 -10 2 0 4 5 4 10 0 6 -5 10 -11 10 -5 0 -7 -4 -4 -10z"/>
    <path d="M16008 2313 c7 -3 16 -2 19 1 4 3 -2 6 -13 5 -11 0 -14 -3 -6 -6z"/>
    <path d="M19978 2303 c7 -3 16 -2 19 1 4 3 -2 6 -13 5 -11 0 -14 -3 -6 -6z"/>
    <path d="M12428 2293 c7 -3 16 -2 19 1 4 3 -2 6 -13 5 -11 0 -14 -3 -6 -6z"/>
    <path d="M12709 2290 c-8 -6 -8 -9 0 -14 18 -11 13 -26 -9 -26 -11 0 -20 -4 -20 -10 0 -14 12 -13 50 6 26 13 34 14 40 4 9 -15 155 -7 174 9 6 5 31 11 54 13 23 2 42 8 42 13 0 11 -313 16 -331 5z"/>
    <path d="M13155 2292 c-40 -5 -49 -16 -33 -41 10 -17 23 -21 64 -21 28 0 54 3 57 7 4 3 43 7 87 8 58 2 85 7 98 19 10 9 26 16 35 16 9 0 17 5 17 10 0 10 -251 11 -325 2z"/>
    <path d="M13804 2265 c-2 -20 5 -24 67 -34 37 -6 85 -11 106 -11 47 0 83 -9 83 -21 0 -5 -77 -9 -170 -9 -94 0 -178 -4 -188 -9 -9 -5 -28 -13 -42 -19 -21 -7 -11 -10 55 -16 100 -9 126 -15 119 -28 -4 -6 -66 -7 -162 -2 -125 5 -155 4 -145 -6 7 -7 62 -16 140 -21 166 -12 234 -22 234 -34 0 -16 -92 -23 -313 -24 -177 -1 -208 -4 -208 -16 0 -8 1 -15 3 -16 87 -34 2784 -65 2990 -34 39 6 46 10 36 21 -9 11 -8 15 2 18 8 2 34 10 59 17 25 8 52 13 60 11 9 -1 5 6 -9 18 -13 11 -21 24 -17 28 4 4 40 7 79 7 71 0 110 17 52 23 -56 5 -74 12 -69 26 3 9 -5 16 -23 21 -15 3 -34 12 -42 18 -12 10 -8 13 18 17 37 6 46 24 14 28 -29 4 -30 20 -1 31 71 26 -95 30 -1397 34 l-1330 5 -1 -23z m629 -112 c-7 -2 -19 -2 -25 0 -7 3 -2 5 12 5 14 0 19 -2 13 -5z m1857 -143 c11 -7 5 -10 -23 -10 -23 0 -36 4 -32 10 8 13 35 13 55 0z"/>
    <path d="M17510 2270 l-25 -7 25 -6 c46 -12 335 -32 365 -26 l30 6 -30 12 c-68 28 -298 42 -365 21z"/>
    <path d="M12151 2215 c12 -12 479 -33 486 -22 2 4 -5 7 -16 7 -11 0 -22 4 -25 9 -3 5 -46 8 -96 6 -50 -2 -93 1 -96 6 -3 5 -63 8 -134 7 -85 -2 -126 -6 -119 -13z"/>
    <path d="M17620 2201 c0 -7 -22 -11 -57 -12 -44 0 -53 -2 -36 -9 20 -8 435 -31 528 -29 l40 1 -55 25 c-50 23 -70 25 -237 30 -133 4 -183 3 -183 -6z"/>
    <path d="M19353 2163 c-24 -2 -43 -9 -43 -14 0 -18 44 -26 200 -39 168 -14 234 -28 140 -30 -48 -1 -52 -3 -30 -12 14 -5 58 -18 99 -28 88 -23 99 -30 41 -30 -56 0 -44 -11 23 -21 28 -4 89 -14 135 -22 l82 -14 0 88 0 88 -52 5 c-170 18 -527 35 -595 29z"/>
    <path d="M17575 2128 c-22 -5 -51 -12 -65 -15 -23 -5 -24 -6 -5 -13 27 -12 153 -12 159 -1 3 5 50 12 103 17 l98 8 -60 7 c-85 10 -183 9 -230 -3z"/>
    <path d="M16848 2113 c16 -12 16 -14 -3 -25 -19 -11 -18 -12 10 -18 40 -8 115 0 115 12 0 6 -9 8 -20 5 -15 -4 -19 0 -17 17 2 19 -3 21 -50 22 -45 1 -50 -1 -35 -13z"/>
    <path d="M19017 2060 c-17 -11 -24 -20 -18 -24 18 -11 13 -26 -13 -36 -13 -5 -27 -18 -31 -29 -3 -12 -13 -21 -21 -21 -18 0 -18 -14 0 -30 8 -6 13 -17 10 -24 -3 -7 7 -21 22 -31 20 -13 23 -19 13 -25 -25 -16 43 -24 90 -10 25 7 70 17 100 22 77 13 98 27 41 28 -40 0 -47 4 -62 31 -15 26 -23 30 -50 27 -30 -3 -33 -1 -40 36 -7 33 -5 43 13 62 39 41 -1 59 -54 24z m74 -190 c6 0 7 -4 4 -10 -7 -12 -55 -13 -55 -2 0 15 13 23 28 17 7 -3 18 -5 23 -5z"/>
    <path d="M16680 2042 c14 -2 68 -14 120 -28 91 -23 177 -30 212 -16 14 6 15 10 3 25 -12 17 -31 19 -187 21 -95 1 -162 0 -148 -2z"/>
    <path d="M16540 1964 c40 -8 128 -13 225 -12 211 0 143 14 -105 21 -173 4 -181 4 -120 -9z"/>
    <path d="M16580 1912 c0 -11 48 -22 97 -22 23 0 33 4 31 13 -5 14 -128 23 -128 9z"/>
    <path d="M16846 1902 c-10 -17 7 -22 103 -29 60 -4 91 -2 91 4 0 10 -22 14 -146 30 -24 3 -44 0 -48 -5z"/>
    <path d="M19340 1890 c0 -5 7 -10 16 -10 8 0 12 5 9 10 -3 6 -10 10 -16 10 -5 0 -9 -4 -9 -10z"/>
    <path d="M19352 1838 c-7 -7 -12 -18 -12 -26 0 -8 -10 -22 -22 -32 -30 -24 -20 -32 47 -38 54 -4 125 17 125 38 0 15 -31 40 -49 40 -10 0 -24 7 -31 15 -15 18 -42 19 -58 3z"/>
    <path d="M16743 1831 c-53 -9 -61 -17 -45 -41 16 -27 16 -27 -20 -34 -30 -6 -31 -8 -14 -18 31 -17 262 -24 291 -8 17 9 45 11 90 7 71 -7 107 -1 83 14 -7 5 -41 9 -75 9 -74 0 -91 15 -28 24 98 15 23 44 -130 50 -60 3 -129 1 -152 -3z m14 -27 c-3 -3 -12 -4 -19 -1 -8 3 -5 6 6 6 11 1 17 -2 13 -5z m152 -3 c24 -15 3 -28 -48 -29 -60 -1 -75 13 -29 27 43 12 60 13 77 2z"/>
    <path d="M5188 1674 c-3 -5 -2 -18 1 -29 6 -21 6 -21 51 2 25 12 38 22 29 22 -9 1 -30 4 -47 7 -16 3 -32 2 -34 -2z"/>
    <path d="M7320 1460 c0 -5 7 -10 16 -10 8 0 12 5 9 10 -3 6 -10 10 -16 10 -5 0 -9 -4 -9 -10z"/>
    <path d="M5340 1370 c-8 -5 -12 -11 -9 -14 7 -8 49 5 49 15 0 12 -21 11 -40 -1z"/>
    <path d="M5653 1303 c-15 -5 -18 -33 -4 -33 5 0 19 9 32 20 22 18 23 19 4 19 -11 0 -26 -3 -32 -6z"/>
    <path d="M4933 1283 c-26 -18 -30 -33 -9 -33 16 0 46 26 46 41 0 13 -11 10 -37 -8z"/>
    <path d="M16048 1289 c7 -7 41 -15 80 -16 53 -3 63 -2 49 8 -11 6 -47 13 -80 16 -51 5 -60 3 -49 -8z"/>
    <path d="M4825 1195 c-21 -17 -25 -24 -14 -25 27 0 90 30 84 40 -10 17 -39 11 -70 -15z"/>
    <path d="M1290 1170 c-13 -8 -13 -10 2 -10 9 0 20 5 23 10 8 13 -5 13 -25 0z"/>
    <path d="M4735 1125 c-21 -17 -25 -24 -14 -25 16 0 56 37 48 45 -3 2 -18 -7 -34 -20z"/>
    <path d="M5099 1133 c-13 -15 -11 -16 11 -10 14 4 31 7 38 7 7 0 10 5 7 10 -10 16 -41 12 -56 -7z"/>
    <path d="M15245 261 c-2 -5 4 -11 15 -14 11 -3 20 -2 20 3 0 12 -28 21 -35 11z"/>
    <path d="M16425 200 c-3 -5 1 -10 10 -10 9 0 13 5 10 10 -3 6 -8 10 -10 10 -2 0 -7 -4 -10 -10z"/>
    <path d="M16845 50 c-3 -5 3 -10 15 -10 12 0 18 5 15 10 -3 6 -10 10 -15 10 -5 0 -12 -4 -15 -10z"/>
    <path d="M16780 40 c0 -5 7 -10 15 -10 8 0 15 5 15 10 0 6 -7 10 -15 10 -8 0 -15 -4 -15 -10z"/>
    <path d="M17258 3 c7 -3 16 -2 19 1 4 3 -2 6 -13 5 -11 0 -14 -3 -6 -6z"/>
  </g>
</svg>