<?xml version="1.0" encoding="utf-8"?>
<svg viewBox="0 0 2000 1200" preserveAspectRatio="none" xmlns="http://www.w3.org/2000/svg">
  <g transform="matrix(0.10000000149011612, 0, 0, -0.10000000149011612, 0, 1200)" fill="#000000" stroke="none" style="opacity: 0.1;">
    <path d="M0 8351 l0 -3648 58 -11 c31 -6 93 -18 137 -26 44 -9 118 -19 165 -22 96 -8 120 -16 120 -44 0 -14 -7 -20 -22 -20 -31 0 -182 27 -221 39 -29 9 -114 28 -204 46 l-33 7 0 -81 0 -81 44 -12 c25 -6 43 -15 40 -19 -9 -16 10 -39 32 -39 26 0 30 10 12 28 -9 9 -9 15 0 24 9 9 13 7 18 -5 3 -9 16 -17 29 -17 52 0 84 -12 77 -29 -5 -13 -3 -14 9 -5 16 13 58 2 60 -16 1 -5 2 -14 3 -19 0 -5 4 -13 9 -17 12 -12 8 -51 -8 -64 -8 -6 -21 -37 -30 -68 -9 -32 -22 -64 -29 -72 -7 -8 -16 -22 -20 -30 -4 -8 -23 -42 -42 -75 -19 -33 -55 -103 -80 -155 -25 -52 -57 -107 -70 -121 -54 -57 -54 -64 -54 -1037 l1 -897 82 165 c45 91 130 264 189 385 208 428 234 481 279 565 25 47 54 105 64 130 11 25 39 81 63 125 24 44 53 103 63 130 33 81 358 727 384 761 13 16 30 47 38 66 9 20 26 44 39 52 24 15 101 20 123 7 6 -3 57 -6 115 -8 58 -1 118 -6 133 -12 15 -6 57 -13 94 -17 38 -4 73 -10 78 -15 6 -4 31 -11 55 -14 25 -4 90 -18 145 -32 55 -14 118 -29 140 -34 22 -5 47 -12 55 -15 8 -4 26 -8 40 -9 30 -4 94 -19 135 -33 49 -17 123 -32 155 -32 16 0 31 -4 34 -9 9 -14 79 -21 92 -10 42 35 45 -51 5 -152 -16 -41 -41 -105 -56 -144 -33 -85 -254 -629 -285 -700 -5 -11 -43 -105 -86 -210 -42 -104 -103 -255 -136 -335 -33 -80 -79 -192 -103 -250 -94 -231 -346 -839 -373 -904 -17 -38 -36 -72 -44 -77 -7 -4 -121 14 -253 41 -515 102 -1072 209 -1227 235 -36 6 -38 4 -38 -20 0 -14 2 -25 5 -25 3 0 58 -11 122 -25 65 -13 215 -42 333 -65 276 -52 514 -98 565 -110 22 -4 85 -16 140 -25 55 -9 134 -24 175 -32 41 -9 91 -18 110 -22 22 -4 36 -13 38 -24 2 -9 -24 -86 -59 -170 -144 -352 -232 -567 -266 -647 -53 -124 -143 -343 -143 -347 0 -2 13 -3 28 -3 24 0 32 7 45 38 45 104 153 365 177 427 27 68 187 463 250 617 18 42 38 79 45 82 7 2 44 -2 81 -10 38 -8 90 -19 117 -24 26 -6 68 -15 95 -20 26 -6 103 -21 172 -35 69 -14 166 -34 215 -45 50 -11 205 -42 345 -70 484 -94 463 -88 440 -127 -11 -19 -39 -104 -180 -536 -49 -153 -90 -282 -90 -287 0 -6 248 -10 678 -10 l679 0 43 158 c77 284 129 455 139 465 8 8 34 5 88 -7 43 -9 101 -22 128 -28 28 -5 68 -14 90 -19 22 -4 81 -15 130 -24 50 -9 108 -20 130 -25 100 -23 333 -70 395 -80 40 -7 126 -24 255 -50 22 -5 99 -20 170 -34 173 -34 205 -42 218 -55 8 -8 3 -51 -17 -152 -15 -77 -26 -143 -22 -146 13 -14 35 9 41 44 37 212 56 263 95 247 17 -7 132 -29 225 -44 80 -13 209 -37 265 -50 44 -10 81 -17 210 -39 36 -7 108 -20 160 -30 52 -11 133 -26 180 -35 47 -9 121 -23 165 -32 99 -21 158 -31 213 -40 23 -4 45 -11 48 -15 3 -5 180 -9 395 -9 l389 0 0 38 c0 22 4 74 10 118 5 43 21 189 35 324 23 221 36 345 65 641 5 52 12 113 14 135 3 21 15 129 26 239 28 272 88 814 100 900 5 39 14 111 20 160 19 153 42 198 81 157 24 -26 69 -30 69 -6 0 12 6 15 23 11 90 -22 112 -30 137 -48 18 -14 60 -27 117 -35 146 -24 184 -32 278 -59 50 -14 117 -30 150 -35 33 -5 119 -23 190 -41 72 -18 156 -34 188 -36 45 -4 60 -9 69 -26 12 -24 5 -491 -12 -707 -6 -69 -15 -240 -21 -380 -12 -287 -22 -526 -38 -870 -17 -384 -19 -480 -6 -480 8 0 14 42 18 133 12 258 27 595 37 822 6 127 15 329 20 450 31 729 47 988 66 1013 10 14 16 15 31 6 11 -7 68 -23 129 -37 60 -14 141 -33 179 -42 257 -60 388 -89 503 -110 46 -8 88 -17 92 -20 5 -3 54 -12 109 -19 112 -16 166 -41 183 -85 16 -40 34 -619 54 -1734 l7 -377 720 0 720 0 -7 60 c-4 32 -14 146 -22 252 -44 568 -46 596 -79 988 -35 417 -39 498 -26 514 7 9 18 13 25 9 6 -4 45 -15 86 -24 41 -9 129 -29 195 -44 66 -14 156 -33 200 -40 105 -18 222 -48 235 -61 18 -18 28 -88 125 -929 9 -71 22 -193 30 -270 8 -77 21 -201 29 -275 9 -74 16 -145 16 -157 0 -16 6 -23 20 -23 26 0 26 20 0 215 -11 83 -25 193 -30 245 -6 52 -15 129 -20 170 -10 86 -33 285 -55 480 -8 74 -19 169 -24 210 -19 148 -24 295 -12 319 11 20 14 21 29 8 18 -15 64 -27 202 -52 47 -9 130 -26 185 -40 194 -47 331 -78 375 -86 25 -4 72 -14 105 -23 33 -8 77 -15 97 -16 52 0 100 -48 121 -120 30 -102 49 -175 52 -197 2 -12 6 -26 9 -31 3 -5 8 -65 11 -133 4 -68 11 -146 16 -174 6 -27 14 -81 19 -120 13 -108 69 -463 79 -504 5 -20 12 -62 16 -93 5 -48 10 -58 26 -58 17 0 19 5 13 43 -3 23 -14 74 -24 112 -23 88 -36 225 -22 225 14 0 31 -87 35 -176 2 -38 6 -74 9 -80 2 -5 11 -35 18 -66 l13 -58 343 0 344 0 -3 22 c-1 14 3 22 11 21 14 -3 16 13 2 22 -19 12 -41 78 -30 89 7 7 10 4 10 -8 0 -25 24 -14 28 12 3 16 -1 20 -12 16 -24 -9 -21 31 4 54 16 15 18 24 11 50 -9 29 -8 32 12 32 46 0 49 13 18 75 -23 46 -27 62 -18 73 9 11 6 18 -12 31 -13 10 -25 29 -26 43 -2 15 -7 37 -11 50 -5 12 -9 34 -9 48 0 14 -5 24 -12 23 -12 -3 -22 30 -28 94 -2 22 -9 59 -15 82 -10 37 -9 46 6 62 15 17 15 21 2 36 -17 21 -23 98 -8 108 5 3 10 15 10 25 0 26 48 80 70 80 11 0 25 -9 33 -20 12 -17 19 -19 40 -11 28 11 37 6 37 -20 0 -15 31 -27 75 -30 15 -1 98 11 117 17 21 6 104 -41 118 -66 5 -10 21 -21 35 -24 14 -4 25 -13 25 -21 0 -17 38 -29 93 -29 25 0 37 -5 37 -15 0 -11 4 -10 20 4 22 20 72 15 101 -11 9 -8 35 -16 58 -17 40 -1 42 -3 52 -42 5 -22 27 -95 49 -162 22 -67 40 -129 40 -136 0 -8 20 -90 44 -183 24 -93 54 -215 67 -271 22 -94 26 -103 47 -103 18 0 22 4 17 19 -3 11 -26 104 -51 208 -25 103 -59 244 -76 313 -44 183 -47 199 -48 268 0 55 2 62 20 62 10 0 24 8 29 18 10 16 10 16 11 0 0 -25 12 -22 55 12 24 19 49 30 69 30 48 0 300 -47 406 -75 52 -14 144 -36 204 -49 l110 -23 17 -40 c9 -22 26 -72 37 -109 11 -38 39 -121 62 -184 24 -63 51 -146 61 -185 32 -126 57 -209 70 -237 l12 -28 975 0 c924 0 974 1 967 18 -4 9 -20 53 -35 97 -16 44 -35 97 -44 117 -17 39 -22 98 -8 98 15 0 180 -38 189 -43 4 -3 69 -17 143 -32 120 -23 206 -45 306 -75 17 -6 33 -10 37 -10 4 0 7 990 7 2199 0 1996 -1 2199 -16 2205 -9 3 -26 6 -38 6 -13 0 -36 7 -53 15 -17 8 -59 18 -94 22 -52 5 -69 12 -89 33 -14 15 -40 35 -58 44 -25 13 -32 23 -32 46 0 16 4 31 9 34 5 3 80 -13 167 -36 88 -22 169 -43 182 -45 l22 -5 0 3656 0 3656 -1624 0 -1624 0 -5 -22 -6 -22 -24 22 -23 22 -762 0 c-470 0 -762 -4 -762 -9 0 -6 5 -13 10 -16 17 -10 11 -35 -8 -35 -25 0 -85 30 -95 47 -11 18 -7126 20 -7145 1 -9 -9 -17 -9 -36 2 -32 16 -52 8 -58 -24 -6 -28 1 -33 20 -14 9 9 12 8 12 -4 0 -9 11 -23 24 -31 22 -15 25 -15 41 3 38 42 63 19 40 -36 -19 -46 -19 -47 5 -41 24 6 42 -13 30 -33 -8 -12 -10 -11 -11 5 0 11 -3 14 -6 8 -2 -7 -16 -13 -29 -13 -13 0 -24 -6 -24 -12 -1 -19 -32 -51 -62 -65 -58 -27 -74 -32 -98 -35 -22 -3 -25 -8 -27 -43 -1 -22 5 -55 14 -74 21 -47 9 -62 -55 -66 -56 -4 -61 -1 -35 27 9 10 11 18 5 18 -6 0 -13 -6 -15 -12 -3 -8 -6 -6 -6 5 -1 17 -10 21 -45 17 -16 -1 -18 3 -12 33 6 31 3 37 -27 60 -23 17 -42 24 -56 20 -16 -4 -21 -1 -21 16 0 16 6 21 27 21 21 0 24 3 15 12 -19 19 -14 34 16 48 22 11 24 14 10 17 -10 3 -18 11 -18 19 0 17 47 37 62 28 7 -5 9 2 4 20 -7 29 5 34 24 11 18 -21 27 -19 42 12 7 15 22 32 34 38 29 14 54 41 54 58 0 9 -14 14 -44 15 -41 2 -44 0 -50 -28 -6 -34 -33 -50 -47 -29 -6 9 -3 18 6 25 8 6 15 16 15 23 0 8 -392 11 -1530 11 l-1530 0 0 -25 c0 -19 -5 -25 -22 -25 -13 0 -31 7 -41 15 -11 7 -24 12 -30 10 -41 -15 -65 -12 -70 6 -5 19 -46 19 -2216 19 l-2211 0 0 -3649z m15290 3614 c-7 -8 -16 -15 -21 -15 -5 0 -9 7 -9 15 0 9 9 15 21 15 18 0 19 -2 9 -15z m55 -55 c-5 -8 -11 -8 -17 -2 -6 6 -7 16 -3 22 5 8 11 8 17 2 6 -6 7 -16 3 -22z m-7319 4 c-3 -9 -6 -20 -6 -25 0 -6 -4 -7 -10 -4 -16 10 -12 45 6 45 11 0 14 -5 10 -16z m204 -83 c0 -6 -4 -13 -10 -16 -5 -3 -10 1 -10 9 0 9 5 16 10 16 6 0 10 -4 10 -9z m-3031 -40 c30 -6 64 -17 75 -25 12 -7 39 -16 61 -20 21 -4 55 -16 75 -26 20 -10 88 -33 151 -51 115 -33 139 -43 139 -61 0 -13 -85 -1 -127 18 -17 8 -54 19 -83 24 -28 5 -59 14 -70 20 -11 6 -50 13 -88 17 -37 3 -71 9 -77 13 -5 4 -37 15 -70 25 -33 9 -69 21 -80 26 -11 5 -32 13 -47 19 -56 20 -14 53 51 39 20 -4 60 -12 90 -18z m2744 -92 c-24 -9 -43 8 -23 21 9 6 19 5 28 -3 12 -9 11 -12 -5 -18z m-75 -41 c-7 -19 -38 -22 -38 -4 0 10 9 16 21 16 12 0 19 -5 17 -12z m-2033 -58 c10 -11 24 -20 30 -20 7 0 18 -7 25 -15 10 -13 9 -15 -12 -15 -14 0 -28 3 -32 8 -4 4 -28 12 -53 17 -49 10 -67 30 -36 38 38 10 61 6 78 -13z m-950 -19 c-2 -5 -14 -11 -26 -14 -20 -5 -20 -5 -4 13 17 18 41 18 30 1z m6915 -36 c0 -8 -4 -15 -10 -15 -5 0 -10 7 -10 15 0 8 5 15 10 15 6 0 10 -7 10 -15z m257 -47 c-3 -8 -6 -5 -6 6 -1 11 2 17 5 13 3 -3 4 -12 1 -19z m-1857 -110 c0 -144 -19 -633 -26 -666 -3 -17 -10 -21 -27 -18 -32 6 -130 34 -214 62 -39 13 -138 42 -218 64 -80 22 -166 51 -189 65 -24 14 -54 25 -69 25 -23 0 -27 5 -33 46 -9 62 1 191 17 210 8 10 9 18 3 22 -6 4 -9 37 -6 80 4 66 7 74 35 98 27 23 31 24 40 9 8 -15 10 -15 24 5 11 16 22 20 39 16 12 -3 25 -2 28 3 4 5 41 12 84 16 42 4 84 13 92 21 9 7 24 13 35 13 11 0 58 7 105 16 47 10 123 21 170 25 47 4 91 8 98 9 9 1 12 -29 12 -121z m184 62 c8 0 18 5 22 12 5 8 10 5 15 -9 7 -21 85 -49 122 -45 10 1 30 -7 44 -17 13 -11 30 -18 38 -15 13 6 161 -52 167 -65 2 -3 17 -17 34 -29 24 -16 33 -31 37 -63 3 -24 13 -46 21 -51 13 -7 13 -12 3 -28 -9 -16 -9 -24 0 -39 7 -11 10 -34 8 -52 -2 -18 1 -39 7 -46 5 -7 7 -24 4 -37 -3 -14 -1 -26 5 -28 8 -3 13 -55 16 -150 4 -137 3 -147 -15 -157 -11 -6 -22 -7 -26 -4 -3 3 -6 -7 -6 -24 0 -39 27 -53 39 -20 l8 22 7 -23 c8 -25 0 -45 -15 -36 -6 3 -5 -3 3 -15 21 -34 0 -41 -72 -24 -36 8 -85 21 -110 29 -25 9 -87 24 -139 35 -52 11 -102 24 -111 29 -9 5 -47 16 -85 25 -38 9 -94 23 -124 32 l-54 15 7 222 c12 378 22 582 29 593 5 8 23 3 57 -13 27 -13 56 -24 64 -24z m316 29 c19 -5 43 -20 52 -33 17 -23 17 -24 -20 -30 -21 -3 -64 -1 -96 4 -33 5 -63 7 -67 4 -5 -3 -9 0 -9 5 0 6 -7 11 -15 11 -25 0 -78 31 -69 40 21 20 147 19 224 -1z m-3010 1 c0 -5 -2 -10 -4 -10 -3 0 -8 5 -11 10 -3 6 -1 10 4 10 6 0 11 -4 11 -10z m-2371 -39 c8 -11 21 -17 29 -13 8 3 21 -3 28 -13 13 -18 14 -18 14 3 0 26 22 29 41 6 7 -9 22 -14 36 -11 13 2 27 -1 33 -8 6 -7 21 -10 35 -8 15 3 34 -3 51 -16 15 -12 35 -21 45 -21 10 0 33 -9 51 -20 18 -11 27 -20 20 -20 -7 0 -10 -4 -7 -10 8 -14 52 -13 61 2 5 8 11 6 20 -6 8 -11 29 -19 56 -21 24 -2 43 -4 43 -5 0 -1 18 -3 40 -4 22 -2 58 -8 80 -14 22 -6 64 -16 94 -23 30 -6 79 -23 108 -36 56 -26 58 -29 53 -110 -1 -18 3 -33 9 -33 5 0 13 -9 16 -20 3 -11 13 -20 21 -20 8 0 14 -7 14 -17 0 -15 -1 -15 -18 0 -24 22 -42 22 -42 -1 0 -10 -7 -27 -15 -39 -13 -18 -13 -22 0 -33 12 -10 15 -9 15 9 0 11 5 21 10 21 6 0 10 -6 10 -14 0 -8 -4 -18 -10 -21 -5 -3 -10 -19 -10 -35 0 -16 -4 -32 -10 -35 -5 -3 -10 -1 -10 4 0 6 -14 11 -31 11 -26 0 -29 2 -19 14 6 8 18 12 26 9 8 -3 14 -3 14 0 0 3 -7 7 -15 11 -14 5 -65 -39 -65 -56 0 -4 12 -8 28 -10 19 -2 27 -9 27 -23 0 -16 -6 -19 -32 -17 -17 2 -34 -2 -38 -7 -3 -6 -14 -11 -24 -11 -9 0 -30 -13 -46 -30 -16 -16 -35 -30 -42 -30 -22 0 -14 -28 9 -32 12 -2 24 -9 26 -17 4 -11 -4 -13 -37 -7 -38 6 -42 4 -51 -19 -5 -14 -17 -25 -27 -25 -17 -1 -17 -1 0 -14 21 -16 22 -30 2 -46 -12 -10 -18 -10 -30 0 -12 10 -18 10 -30 0 -8 -7 -15 -19 -15 -26 0 -8 -5 -14 -11 -14 -20 0 -39 -29 -39 -59 0 -28 -2 -30 -25 -21 -19 7 -34 4 -65 -12 -36 -20 -40 -26 -40 -60 0 -42 -6 -47 -26 -20 -13 16 -13 16 -14 -1 0 -14 -5 -17 -21 -12 -18 6 -19 5 -8 -14 18 -27 4 -38 -21 -16 -25 22 -50 13 -50 -20 0 -14 -3 -25 -7 -25 -15 0 -34 -53 -23 -64 13 -13 13 -26 0 -26 -5 0 -10 7 -10 15 0 10 -10 15 -33 15 -18 0 -38 5 -45 12 -15 15 -42 19 -42 7 0 -5 5 -9 10 -9 6 0 10 -10 10 -22 l-1 -23 -19 24 c-11 13 -20 32 -20 42 0 10 -4 19 -10 19 -10 0 -14 -19 -11 -52 2 -13 -5 -18 -22 -18 -19 0 -30 -11 -48 -45 -27 -51 -34 -55 -43 -21 -6 23 10 69 83 241 51 120 53 184 10 296 -34 89 -79 259 -79 300 0 15 7 29 15 33 17 6 20 47 5 62 -6 6 -5 18 4 35 11 22 29 208 30 332 1 52 5 56 25 28z m6778 -28 c-3 -10 -5 -4 -5 12 0 17 2 24 5 18 2 -7 2 -21 0 -30z m93 6 c0 -5 -4 -9 -10 -9 -5 0 -10 7 -10 16 0 8 5 12 10 9 6 -3 10 -10 10 -16z m284 -5 c8 -22 8 -24 -8 -24 -15 0 -28 24 -19 34 11 10 21 7 27 -10z m-652 -172 c11 -9 28 -12 45 -9 32 7 94 -11 106 -30 4 -7 12 -13 17 -13 5 0 34 -11 64 -25 30 -14 62 -25 70 -25 9 0 16 -3 16 -7 1 -5 7 -62 15 -128 8 -66 24 -205 35 -310 11 -104 22 -201 25 -215 2 -14 9 -88 15 -165 6 -77 13 -153 15 -170 10 -56 0 -57 -130 -21 -282 79 -292 83 -299 119 -14 65 -49 514 -61 768 -2 35 -6 103 -10 151 -9 109 -5 122 32 106 15 -7 36 -18 45 -26z m5571 3 c7 -16 -8 -29 -23 -20 -15 9 -12 35 4 35 8 0 16 -7 19 -15z m-8486 -128 c14 -13 13 -16 -7 -22 -39 -12 -128 13 -116 34 8 13 108 3 123 -12z m3363 -40 c0 -23 59 -79 78 -73 22 7 84 -14 106 -37 10 -9 24 -17 32 -17 8 0 14 -4 14 -9 0 -5 12 -14 28 -20 15 -6 45 -28 67 -48 32 -30 37 -38 23 -41 -10 -2 -18 -7 -18 -12 0 -12 123 -70 163 -77 48 -7 64 -34 71 -119 3 -38 10 -96 15 -129 5 -33 16 -116 25 -185 9 -69 28 -161 41 -205 13 -44 27 -108 30 -142 6 -53 5 -63 -8 -63 -9 0 -18 4 -21 9 -4 5 -25 12 -49 16 -23 3 -68 15 -100 26 -31 10 -73 19 -93 19 -19 0 -48 7 -64 15 -27 14 -158 48 -248 64 -23 4 -45 11 -48 14 -4 4 -10 47 -15 97 -5 50 -10 94 -13 98 -2 4 -12 84 -21 177 -9 94 -20 197 -25 230 -8 51 -28 279 -33 380 -2 23 2 29 15 27 9 -1 19 2 23 8 9 14 25 13 25 -3z m-5933 -39 c-3 -8 -6 -5 -6 6 -1 11 2 17 5 13 3 -3 4 -12 1 -19z m7108 13 c8 -14 -33 -34 -53 -26 -14 5 -13 9 8 20 30 17 37 18 45 6z m313 -9 c13 -9 42 -108 42 -150 1 -15 8 -45 16 -67 8 -22 17 -51 19 -65 2 -14 16 -69 30 -123 14 -54 24 -103 22 -110 -3 -7 -8 -4 -13 8 -4 11 -13 24 -21 28 -7 4 -13 19 -13 33 0 14 -8 39 -17 57 -9 18 -16 39 -15 47 3 13 2 13 -8 0 -7 -11 -12 -12 -18 -3 -6 10 -33 11 -67 3 -25 -6 -37 1 -32 20 6 25 -17 44 -45 37 -36 -10 -49 9 -33 47 11 26 11 36 2 46 -9 10 -9 11 1 6 6 -4 12 -3 12 3 0 5 19 12 43 14 26 2 15 4 -33 5 -62 2 -80 6 -104 25 l-29 24 32 22 c19 14 30 29 27 37 -4 11 8 14 59 14 54 0 68 4 92 25 31 27 33 28 51 17z m168 -77 c10 -8 27 -15 37 -15 11 0 17 -6 15 -17 -4 -23 44 -30 63 -10 11 12 23 11 77 -3 36 -9 69 -24 74 -33 5 -10 17 -17 27 -17 21 0 61 -52 61 -79 0 -11 9 -25 20 -31 23 -12 26 -41 8 -71 -11 -17 -10 -23 10 -39 12 -10 22 -23 22 -30 0 -15 41 -94 53 -102 5 -3 10 -23 11 -43 1 -31 -5 -42 -31 -62 -31 -24 -32 -24 -57 -6 -14 10 -29 31 -34 47 -10 36 -32 47 -32 16 0 -20 -4 -22 -32 -16 -39 8 -42 11 -34 31 4 12 10 14 25 6 17 -9 18 -7 16 22 -2 18 -3 37 -4 42 -1 6 -10 0 -21 -13 -33 -40 -48 -11 -29 57 2 8 -4 17 -14 19 -11 2 -18 -2 -16 -10 1 -7 1 -23 0 -36 -1 -19 -5 -22 -23 -16 -33 9 -34 13 -12 28 19 14 19 15 -2 43 -32 42 -54 42 -54 -1 0 -19 6 -41 14 -48 12 -12 10 -18 -10 -37 -13 -13 -31 -21 -39 -17 -19 7 -19 26 0 26 8 0 15 5 15 11 0 5 6 7 13 3 6 -4 2 3 -9 16 -22 23 -44 20 -44 -6 0 -24 -17 -16 -28 14 -9 27 -26 103 -42 194 -5 26 -16 62 -24 80 -17 36 -17 118 0 118 5 0 19 -7 30 -15z m-8690 -287 c9 -29 18 -68 20 -85 4 -27 1 -33 -15 -33 -34 0 -43 23 -35 99 3 39 8 71 10 71 2 0 11 -24 20 -52z m860 15 c-10 -10 -19 5 -10 18 6 11 8 11 12 0 2 -7 1 -15 -2 -18z m1853 -4 c15 -18 21 -20 39 -10 21 11 22 10 22 -21 0 -18 -9 -76 -20 -128 -12 -52 -27 -131 -35 -175 -17 -93 -40 -220 -60 -320 -7 -38 -21 -108 -29 -155 -9 -46 -20 -88 -25 -93 -5 -5 -37 1 -71 12 -35 12 -73 21 -85 21 -13 0 -28 7 -35 15 -13 16 -100 22 -100 7 0 -10 60 -32 88 -32 11 0 23 -4 26 -9 9 -13 126 -53 141 -47 15 5 40 -18 32 -31 -3 -4 -15 -57 -27 -118 -48 -250 -50 -257 -68 -250 -10 4 -60 18 -112 32 -52 13 -111 29 -130 34 -19 6 -60 16 -90 23 -30 7 -71 20 -90 28 -19 8 -62 20 -95 27 -33 8 -108 29 -166 47 -59 18 -129 38 -155 44 -85 19 -90 36 -50 165 14 44 35 115 48 158 l23 78 50 -7 c27 -3 58 -10 67 -15 9 -5 30 -9 47 -9 28 0 96 -16 166 -38 17 -5 50 -15 75 -22 25 -7 61 -18 80 -25 89 -32 104 -35 114 -25 14 14 -7 28 -54 36 -19 3 -54 14 -77 25 -24 10 -49 19 -56 19 -7 0 -17 4 -22 9 -6 5 -57 23 -115 41 -58 18 -123 38 -145 45 -22 7 -55 16 -72 20 -62 13 -35 80 47 119 52 25 61 31 152 120 31 31 64 56 72 56 9 0 54 29 101 65 46 36 87 65 90 65 3 0 14 9 25 20 11 11 28 20 38 20 10 0 29 11 42 25 13 14 27 25 32 25 4 0 31 11 60 25 28 14 57 25 64 25 6 0 17 7 24 15 7 8 16 13 20 10 5 -3 15 1 23 9 22 22 109 64 135 65 13 1 32 -9 41 -20z m5861 -40 c0 -10 -4 -19 -10 -19 -5 0 -10 12 -10 26 0 14 4 23 10 19 6 -3 10 -15 10 -26z m-5668 -4 c21 -14 52 -25 70 -25 18 0 42 -7 52 -15 11 -8 30 -15 43 -15 13 0 34 -6 46 -14 12 -7 52 -16 89 -19 38 -4 77 -11 88 -17 12 -6 51 -19 88 -29 37 -10 83 -27 102 -38 80 -44 109 -65 115 -81 12 -31 15 -347 4 -398 -9 -43 -29 -222 -45 -413 l-6 -64 -46 6 c-26 3 -74 14 -107 25 -33 10 -100 31 -150 46 -49 15 -126 38 -170 51 -44 13 -125 36 -180 51 -55 14 -118 32 -140 40 -22 7 -50 14 -61 14 -12 0 -24 6 -27 13 -4 12 9 98 48 297 9 47 20 108 25 135 5 28 16 82 25 120 9 39 27 126 41 195 36 184 32 178 96 135z m6248 -65 c0 -5 -4 -10 -10 -10 -5 0 -10 5 -10 10 0 6 5 10 10 10 6 0 10 -4 10 -10z m-9146 -90 c38 -14 39 -13 -52 -200 l-22 -45 3 118 c2 91 6 120 17 127 19 12 23 12 54 0z m8863 -15 c6 -15 7 -27 2 -31 -5 -3 -8 -15 -7 -27 5 -36 -16 -35 -23 1 -4 19 -11 38 -17 44 -6 6 -8 17 -5 24 8 22 37 16 50 -11z m-162 -136 c4 -11 5 -23 2 -25 -7 -8 -67 47 -67 61 0 21 57 -11 65 -36z m1796 28 c24 -16 35 -32 37 -52 2 -17 10 -37 18 -46 9 -10 13 -26 9 -41 -4 -17 -1 -31 10 -42 15 -15 15 -16 -4 -16 -24 0 -27 -10 -9 -28 20 -20 38 -14 38 12 0 14 5 28 10 31 8 5 7 11 -1 21 -9 11 -5 20 21 44 49 46 72 48 118 9 32 -26 38 -37 32 -54 -4 -11 -15 -20 -24 -20 -8 0 -15 -4 -13 -10 2 -11 9 -11 48 -1 22 6 29 2 52 -33 15 -22 27 -47 27 -55 0 -8 4 -17 8 -20 5 -3 9 -19 10 -36 0 -16 14 -51 31 -76 22 -32 31 -57 31 -86 0 -25 7 -49 18 -61 9 -10 18 -29 19 -41 6 -52 11 -69 34 -107 13 -22 34 -52 46 -66 15 -17 24 -44 29 -89 4 -41 12 -68 20 -71 8 -3 14 -13 14 -22 0 -9 7 -25 15 -35 8 -11 15 -27 15 -37 0 -9 7 -22 14 -29 8 -6 20 -28 27 -48 6 -20 19 -48 28 -62 9 -14 25 -50 35 -80 10 -30 24 -65 32 -76 9 -16 10 -24 2 -32 -9 -9 -7 -16 4 -29 14 -17 34 -72 21 -59 -4 3 -12 1 -20 -6 -10 -8 -17 -8 -25 0 -8 8 -14 8 -22 -3 -6 -8 -24 -17 -39 -21 -23 -5 -29 -3 -34 15 -6 23 -19 28 -26 9 -4 -9 -8 -9 -14 -3 -11 14 -74 35 -106 35 -15 0 -27 5 -27 10 0 7 -13 8 -35 4 -33 -6 -35 -5 -35 22 0 37 -28 111 -56 149 -12 17 -25 45 -29 63 -4 18 -18 52 -31 76 -26 46 -62 143 -71 189 -3 15 -9 30 -14 33 -5 3 -9 14 -9 25 0 10 -26 74 -59 142 -32 67 -62 143 -65 169 -4 26 -11 50 -17 53 -5 4 -9 18 -9 33 0 15 -6 36 -14 47 -7 11 -17 43 -21 70 -4 28 -12 56 -18 64 -16 18 -37 81 -37 109 0 13 -7 37 -16 54 -9 17 -13 41 -10 53 3 13 2 27 -4 30 -12 8 -13 45 -1 45 4 0 23 -10 42 -23z m-1701 -31 c0 -3 -4 -8 -10 -11 -5 -3 -10 -1 -10 4 0 6 5 11 10 11 6 0 10 -2 10 -4z m40 -22 c0 -9 -5 -14 -12 -12 -18 6 -21 28 -4 28 9 0 16 -7 16 -16z m1778 -6 c18 -18 14 -38 -8 -38 -15 0 -20 7 -20 25 0 27 9 32 28 13z m-2412 -33 c16 -14 33 -25 37 -25 5 0 5 -5 1 -11 -4 -7 0 -9 14 -5 20 7 38 -16 26 -35 -3 -6 5 -7 20 -3 21 5 25 3 20 -10 -4 -11 4 -21 26 -33 18 -10 45 -28 60 -40 15 -13 33 -23 38 -23 6 0 20 -13 32 -30 12 -16 27 -30 34 -30 8 0 30 -20 50 -45 21 -25 43 -45 49 -45 15 0 117 -98 117 -113 0 -12 40 -57 51 -57 4 0 9 8 11 18 3 12 11 4 31 -29 15 -25 27 -51 27 -58 0 -6 6 -22 14 -34 8 -12 17 -41 21 -64 6 -38 4 -43 -12 -43 -10 1 -29 7 -43 15 -14 8 -34 14 -45 15 -17 0 -127 30 -180 49 -11 4 -45 20 -76 34 -30 15 -84 32 -120 38 -108 17 -179 42 -179 64 0 8 4 14 9 13 5 -2 9 0 10 5 3 24 -2 37 -23 60 -17 19 -26 43 -31 88 -4 35 -11 70 -16 79 -4 8 -13 44 -19 80 -7 36 -16 88 -21 115 -15 87 10 109 67 60z m-4061 -11 c29 -19 124 -44 185 -49 25 -2 65 -8 90 -15 25 -6 56 -14 70 -17 14 -2 61 -16 105 -29 137 -42 178 -54 236 -64 54 -10 57 -13 63 -45 4 -19 2 -130 -3 -247 -6 -117 -13 -310 -16 -428 -4 -118 -9 -223 -12 -233 -4 -14 -11 -17 -31 -13 -31 7 -192 57 -297 91 -38 13 -113 35 -165 50 -52 15 -122 36 -155 47 -33 11 -89 26 -124 33 -35 8 -69 19 -74 24 -15 15 5 237 64 726 7 55 14 119 17 143 4 46 11 50 47 26z m-4100 -154 c3 -5 1 -10 -4 -10 -6 0 -11 5 -11 10 0 6 2 10 4 10 3 0 8 -4 11 -10z m-68 -22 c-3 -8 -6 -5 -6 6 -1 11 2 17 5 13 3 -3 4 -12 1 -19z m11500 -30 c-3 -8 -6 -5 -6 6 -1 11 2 17 5 13 3 -3 4 -12 1 -19z m-6387 -47 c52 -16 154 -45 225 -65 72 -20 143 -43 158 -51 16 -8 38 -15 50 -15 23 0 110 -57 132 -87 7 -9 11 -23 8 -29 -7 -18 16 -27 32 -14 12 10 15 9 15 -9 0 -12 -4 -30 -9 -40 -6 -11 -4 -40 4 -83 8 -36 13 -106 12 -155 -2 -55 2 -103 11 -128 9 -26 11 -56 7 -85 -10 -65 -6 -248 6 -294 14 -50 4 -56 -69 -40 -31 7 -84 18 -117 24 -33 6 -78 16 -100 21 -22 6 -78 19 -125 30 -47 11 -114 29 -150 39 -154 44 -177 50 -215 56 -22 4 -43 12 -48 18 -4 6 -5 58 -2 116 3 58 7 168 10 245 10 267 25 540 31 558 7 23 23 22 134 -12z m6730 14 c6 -8 17 -13 22 -12 6 1 13 -4 15 -10 3 -8 -4 -13 -17 -13 -21 0 -22 -4 -18 -50 3 -27 1 -50 -3 -50 -5 0 -9 9 -9 19 0 11 -5 23 -11 26 -6 4 -9 20 -7 36 2 17 -3 33 -11 38 -15 10 -6 31 13 31 8 0 19 -7 26 -15z m-280 -74 c0 -11 6 -21 14 -24 8 -3 12 -14 10 -25 -3 -10 5 -35 17 -56 14 -24 18 -41 12 -47 -12 -12 -39 25 -49 67 -4 16 -13 36 -20 45 -8 8 -17 30 -20 48 -7 32 -6 33 15 22 11 -7 21 -20 21 -30z m368 -9 c-4 -22 -48 -25 -48 -3 0 11 9 17 26 19 19 1 25 -2 22 -16z m-21 -84 c6 -7 13 -25 17 -40 5 -21 3 -28 -9 -28 -11 0 -15 -10 -15 -35 0 -24 5 -35 15 -35 21 0 19 -13 -5 -28 -11 -7 -20 -21 -20 -33 0 -16 4 -19 20 -14 15 5 20 2 20 -14 0 -19 52 -105 71 -116 17 -11 9 -24 -18 -27 -22 -2 -27 -8 -25 -23 5 -29 74 -90 106 -92 14 -1 49 -4 77 -5 43 -3 55 -8 72 -31 20 -25 20 -28 5 -44 -16 -15 -16 -18 2 -43 22 -31 17 -44 -11 -27 -24 15 -39 -1 -16 -18 19 -14 14 -40 -9 -49 -20 -8 -18 -73 2 -84 12 -7 15 -18 12 -37 -4 -21 1 -34 25 -58 l30 -30 -26 -19 c-24 -17 -25 -20 -11 -46 8 -16 12 -40 8 -59 -5 -27 -3 -33 11 -33 9 0 20 10 23 23 5 15 9 3 12 -38 4 -51 8 -60 24 -58 15 1 17 -4 13 -33 -4 -26 -2 -34 9 -34 9 0 14 -5 12 -12 -8 -23 -23 -17 -38 15 -11 23 -23 33 -42 35 -33 4 -33 7 -12 58 9 23 11 34 4 27 -9 -8 -20 -8 -41 -1 -23 8 -29 16 -29 40 0 16 -4 27 -10 23 -5 -3 -7 -12 -3 -20 3 -8 0 -15 -6 -15 -6 0 -11 9 -11 21 0 16 -5 20 -27 17 -22 -2 -28 -8 -26 -25 2 -15 -3 -23 -13 -23 -8 0 -12 -4 -9 -10 3 -5 18 -10 32 -10 20 0 24 -3 17 -17 -4 -10 -7 -28 -7 -40 1 -16 -5 -23 -18 -23 -13 0 -19 7 -19 22 0 12 -10 32 -22 45 -17 18 -19 26 -10 35 17 17 15 29 -5 26 -10 -2 -18 3 -18 12 0 8 -15 44 -32 80 -26 55 -31 75 -28 125 3 67 -15 111 -42 101 -19 -8 -63 30 -63 54 0 10 -9 28 -20 42 -46 59 -145 375 -111 354 16 -10 40 -66 35 -80 -6 -16 13 -32 49 -41 22 -6 27 -4 27 10 0 12 -6 16 -20 12 -11 -3 -20 -2 -20 1 -6 83 -10 106 -19 115 -16 16 -13 27 7 27 15 0 21 13 31 67 13 74 57 173 76 173 7 0 17 -6 22 -12z m-277 -98 c0 -5 7 -10 15 -10 8 0 15 -9 15 -20 0 -11 -4 -20 -9 -20 -5 0 -13 9 -16 20 -3 11 -11 20 -16 20 -5 0 -9 5 -9 10 0 6 5 10 10 10 6 0 10 -4 10 -10z m100 -24 c0 -8 -4 -18 -10 -21 -5 -3 -10 3 -10 14 0 12 5 21 10 21 6 0 10 -6 10 -14z m-8785 -98 c84 -24 176 -53 350 -107 72 -22 159 -49 195 -59 81 -23 77 7 38 -301 l-10 -83 -39 6 c-21 3 -114 27 -206 53 -92 25 -197 54 -233 64 -36 10 -114 32 -175 50 -194 55 -209 59 -226 59 -9 0 -22 7 -29 15 -11 13 -7 47 20 188 18 96 38 177 46 183 10 8 37 4 106 -18 51 -16 125 -38 163 -50z m8835 52 c0 -11 -4 -20 -10 -20 -5 0 -10 9 -10 20 0 11 5 20 10 20 6 0 10 -9 10 -20z m-110 -27 c0 -22 -2 -25 -10 -13 -13 20 -13 40 0 40 6 0 10 -12 10 -27z m70 -23 c0 -5 -5 -10 -11 -10 -5 0 -7 5 -4 10 3 6 8 10 11 10 2 0 4 -4 4 -10z m-2740 -67 c0 -13 -3 -13 -15 -3 -8 7 -15 19 -15 27 0 13 3 13 15 3 8 -7 15 -19 15 -27z m-2210 -39 c52 -15 127 -36 165 -47 39 -11 85 -22 103 -24 18 -3 35 -10 38 -15 4 -6 15 -83 25 -172 27 -233 66 -567 79 -670 7 -48 8 -92 3 -96 -4 -5 -33 0 -63 10 -30 11 -67 19 -83 20 -15 0 -35 4 -45 9 -23 13 -218 63 -264 69 -22 2 -39 11 -43 20 -3 10 -10 78 -15 152 -5 74 -18 248 -29 385 -19 235 -24 326 -22 368 1 24 37 22 151 -9z m5265 -34 c3 -5 1 -10 -4 -10 -6 0 -11 5 -11 10 0 6 2 10 4 10 3 0 8 -4 11 -10z m35 -55 c-7 -8 -17 -12 -23 -8 -6 4 -3 9 9 14 27 11 28 11 14 -6z m-4770 -60 c69 -20 152 -44 184 -53 147 -42 330 -108 337 -122 4 -8 12 -53 18 -100 12 -99 42 -287 66 -415 9 -49 21 -119 25 -155 11 -80 27 -176 35 -201 5 -15 1 -19 -21 -19 -15 0 -43 4 -63 10 -20 5 -79 18 -131 30 -52 11 -126 29 -165 40 -160 44 -242 64 -282 68 -23 2 -47 10 -53 17 -6 7 -17 71 -25 142 -13 124 -30 271 -61 518 -8 66 -17 158 -21 204 -6 80 -5 84 13 78 10 -4 75 -23 144 -42z m-10209 -75 c174 -40 266 -62 329 -80 36 -11 109 -31 163 -46 85 -24 97 -30 97 -50 0 -25 -17 -34 -67 -34 -30 0 -34 -2 -23 -15 11 -13 7 -15 -23 -15 -19 0 -40 7 -47 15 -7 8 -19 15 -28 15 -8 0 -30 9 -48 21 -30 18 -35 19 -40 5 -7 -18 -23 -16 -119 15 -33 10 -73 20 -90 22 -16 2 -43 9 -58 15 -16 7 -47 15 -70 18 -23 4 -48 11 -54 17 -7 5 -21 7 -32 4 -33 -8 -46 8 -27 34 9 13 16 36 16 51 0 34 7 35 121 8z m7057 -31 c64 -17 176 -46 247 -64 72 -19 148 -42 170 -51 22 -9 58 -21 80 -25 22 -5 78 -19 125 -31 l85 -24 -4 -194 c-2 -119 -8 -198 -14 -202 -6 -3 -20 -2 -31 3 -12 4 -106 33 -211 63 -417 120 -552 159 -587 168 -35 10 -38 13 -38 47 0 57 20 304 26 324 7 23 15 22 152 -14z m850 -233 c148 -46 288 -85 447 -126 154 -40 266 -74 293 -89 10 -6 14 -54 17 -200 l3 -193 -26 7 c-15 4 -49 11 -77 15 -45 8 -138 32 -295 76 -30 9 -89 24 -130 34 -42 10 -100 27 -130 38 -30 11 -84 28 -120 37 -36 10 -71 23 -78 28 -19 15 -5 397 14 397 3 0 40 -11 82 -24z m3481 0 c24 -9 76 -23 115 -31 39 -8 87 -19 106 -24 19 -5 85 -22 145 -37 61 -15 115 -30 120 -34 6 -5 27 -11 48 -15 25 -5 42 -15 48 -29 5 -11 29 -106 54 -211 25 -104 72 -301 105 -436 62 -254 67 -284 50 -294 -5 -3 -10 -2 -10 4 0 5 -17 15 -37 21 -21 6 -47 15 -58 20 -11 4 -42 13 -70 20 -27 6 -86 22 -130 35 -105 31 -186 53 -260 70 -92 21 -168 51 -182 72 -7 11 -27 102 -43 204 -17 101 -37 207 -45 234 -22 74 -35 151 -41 235 -2 41 -11 103 -20 137 -9 34 -12 67 -9 74 9 13 54 7 114 -15z m-10114 -76 c22 -6 56 -15 75 -20 54 -12 414 -106 635 -165 172 -45 236 -67 241 -80 6 -13 -41 -110 -63 -133 -7 -7 -16 -25 -19 -40 -4 -15 -12 -35 -18 -44 -10 -15 -13 -13 -25 13 -11 26 -11 33 4 49 20 22 2 39 -20 20 -13 -11 -15 -7 -15 19 0 28 -3 31 -33 31 -21 0 -36 7 -45 20 -7 11 -21 20 -31 20 -11 0 -22 6 -24 13 -4 9 -8 8 -16 -3 -10 -13 -13 -13 -22 3 -8 14 -18 17 -35 13 -30 -8 -88 29 -80 50 3 8 4 14 2 14 -3 0 -12 3 -22 7 -14 5 -16 3 -11 -11 6 -15 3 -17 -26 -11 -42 10 -49 14 -43 30 3 9 -26 23 -97 44 -56 18 -136 43 -178 56 -42 14 -83 25 -92 25 -8 0 -37 7 -63 14 -27 8 -61 18 -76 21 -21 4 -28 11 -28 29 0 12 3 26 7 30 9 9 62 3 118 -14z m13005 -100 c12 -8 11 -10 -7 -10 -12 0 -25 5 -28 10 -8 13 15 13 35 0z m-2162 -15 c34 -8 88 -28 120 -45 31 -16 82 -35 112 -41 30 -6 71 -19 90 -27 19 -9 44 -15 56 -14 11 1 45 -13 75 -31 61 -36 49 -7 140 -327 11 -41 29 -99 40 -128 10 -30 19 -65 19 -78 0 -13 4 -32 9 -42 23 -41 40 -84 46 -114 4 -18 18 -66 31 -107 25 -77 31 -141 13 -141 -6 0 -43 9 -82 19 -40 11 -117 29 -172 41 -55 12 -131 34 -170 51 -38 16 -92 33 -119 38 -26 5 -54 15 -61 22 -22 23 -241 911 -229 930 7 11 7 11 82 -6z m-12478 -30 c0 -8 -9 -15 -20 -15 -20 0 -26 11 -13 23 12 13 33 7 33 -8z m-40 -65 c0 -5 -5 -10 -11 -10 -5 0 -7 5 -4 10 3 6 8 10 11 10 2 0 4 -4 4 -10z m53 -13 c3 -7 -1 -21 -8 -30 -11 -16 -13 -15 -17 8 -7 33 13 52 25 22z m-243 -46 c0 -5 -7 -11 -15 -15 -15 -5 -20 5 -8 17 9 10 23 9 23 -2z m210 -17 c0 -13 -7 -15 -32 -10 -18 3 -39 2 -47 -3 -17 -11 -7 -61 21 -96 24 -30 13 -50 -32 -60 -18 -4 -38 -21 -54 -46 -30 -45 -45 -99 -27 -99 6 0 11 -4 11 -10 0 -5 -9 -10 -20 -10 -25 0 -26 -16 -3 -29 21 -11 17 -16 -20 -25 -23 -5 -29 -3 -37 20 -10 25 -12 26 -29 10 -9 -9 -20 -16 -24 -16 -14 0 7 66 30 93 12 16 23 32 23 36 0 4 14 23 30 41 17 18 30 39 30 45 0 6 13 21 29 33 18 13 31 34 35 57 15 77 21 85 71 85 35 0 45 -4 45 -16z m2828 -30 c134 -37 195 -55 357 -103 55 -16 116 -33 135 -36 19 -4 46 -13 60 -20 14 -7 61 -20 105 -30 86 -18 125 -37 125 -60 0 -22 -41 -44 -72 -38 -16 3 -28 10 -28 15 0 7 -17 8 -42 5 -23 -3 -66 -1 -96 5 -44 9 -56 9 -63 -3 -8 -12 -11 -11 -20 4 -6 9 -22 17 -37 17 -16 0 -33 5 -39 11 -15 15 -141 38 -209 38 -28 1 -54 4 -58 9 -4 4 -18 7 -29 8 -77 3 -92 5 -72 14 17 6 14 9 -17 15 -21 4 -42 13 -49 21 -6 8 -22 14 -35 14 -12 0 -26 5 -29 10 -5 8 -11 7 -21 -1 -8 -6 -17 -9 -21 -6 -3 4 -12 2 -20 -4 -17 -14 -17 1 -2 73 12 54 24 78 41 78 5 0 66 -16 136 -36z m12817 -24 c-5 -8 -11 -8 -17 -2 -6 6 -7 16 -3 22 5 8 11 8 17 2 6 -6 7 -16 3 -22z m-15577 -3 c5 -24 -15 -21 -21 4 -3 13 -1 19 6 16 7 -2 13 -11 15 -20z m-98 -8 c0 -18 -2 -19 -15 -9 -15 12 -12 30 6 30 5 0 9 -10 9 -21z m-252 -36 c2 -12 -6 -31 -17 -42 -12 -12 -21 -23 -21 -25 0 -8 -82 -87 -86 -84 -9 9 20 84 37 96 11 7 17 17 14 22 -8 13 36 61 54 58 9 -2 17 -13 19 -25z m10352 -16 c30 -8 80 -20 110 -27 30 -7 91 -23 135 -35 44 -13 96 -26 116 -30 21 -3 42 -12 49 -20 6 -8 15 -51 20 -97 4 -46 14 -134 21 -195 8 -72 10 -116 4 -122 -6 -6 -59 3 -140 25 -71 19 -164 44 -205 55 -124 32 -169 49 -174 67 -3 9 -10 91 -16 181 -6 91 -13 168 -16 173 -11 17 7 49 24 44 9 -3 42 -11 72 -19z m4370 -35 c0 -5 26 -9 58 -10 53 -2 212 -37 274 -61 26 -10 48 -54 35 -68 -3 -3 -29 0 -57 7 -27 7 -67 13 -88 15 -37 2 -47 5 -174 53 -63 23 -85 42 -72 63 7 11 24 12 24 1z m-14495 -92 c-10 -11 -22 -20 -26 -20 -12 0 -20 36 -14 63 l7 25 25 -24 c25 -23 25 -25 8 -44z m2685 41 c0 -19 -26 -48 -36 -39 -7 8 14 58 26 58 5 0 10 -8 10 -19z m-3060 -63 c0 -5 -4 -8 -10 -8 -5 0 -10 10 -10 23 0 18 2 19 10 7 5 -8 10 -18 10 -22z m11080 3 c36 -10 157 -44 270 -74 253 -69 341 -95 348 -101 7 -8 62 -345 62 -383 0 -38 5 -37 -74 -17 -33 9 -83 20 -111 24 -58 9 -375 89 -485 123 l-75 23 -7 44 c-13 83 -28 214 -34 304 l-7 89 24 -7 c13 -4 53 -15 89 -25z m-7683 2 c5 -15 -28 -26 -41 -13 -8 8 -7 14 4 20 17 11 32 8 37 -7z m-3364 -29 c8 -9 -40 -95 -68 -122 -14 -13 -25 -30 -25 -38 0 -8 -7 -17 -15 -20 -8 -4 -15 -14 -15 -24 0 -16 -75 -121 -92 -128 -5 -2 -8 -14 -8 -26 0 -13 -5 -38 -11 -55 -9 -24 -16 -31 -30 -28 -12 3 -16 0 -12 -10 3 -7 -1 -21 -10 -31 -8 -9 -24 -39 -36 -65 -12 -26 -25 -46 -29 -43 -4 3 -19 -22 -32 -56 -15 -38 -35 -69 -56 -84 -31 -24 -33 -25 -71 -9 -64 28 -147 54 -170 55 -12 0 -25 5 -28 10 -3 6 -1 10 6 10 8 0 6 7 -5 19 -18 20 -15 41 6 41 5 0 19 12 30 26 15 18 24 22 31 15 17 -17 36 -13 65 14 26 25 36 26 90 10 16 -5 22 -3 22 8 0 8 -11 18 -25 21 -28 7 -34 36 -10 56 8 7 15 21 15 31 0 11 11 24 24 30 14 7 27 22 30 35 4 13 13 24 21 24 8 0 30 10 48 23 27 19 33 27 25 40 -12 21 -2 37 22 37 10 0 40 25 66 55 26 31 49 53 53 50 3 -3 0 -10 -7 -14 -10 -6 -9 -11 4 -22 16 -13 17 -11 10 29 -5 31 -3 42 5 36 6 -3 15 0 20 7 8 12 12 11 23 -3 16 -21 46 -24 46 -4 0 7 -7 19 -15 26 -21 18 -19 47 6 60 16 9 24 8 38 -4 19 -18 46 -22 36 -6 -11 19 12 39 28 24z m407 -6 c0 -5 -9 -12 -20 -15 -11 -3 -20 -12 -20 -21 0 -10 -7 -6 -20 11 -11 14 -20 27 -20 29 0 1 18 4 40 5 22 0 40 -3 40 -9z m3065 -52 c11 -13 50 -34 85 -45 93 -31 120 -44 120 -59 0 -9 7 -11 20 -7 24 8 68 -4 52 -14 -17 -10 -3 -48 19 -54 11 -3 19 -9 18 -14 -8 -45 21 -74 36 -35 6 16 7 16 19 0 13 -17 12 -19 -13 -173 -9 -53 -55 -175 -70 -184 -21 -14 -45 -80 -48 -129 -1 -30 -6 -59 -11 -65 -8 -12 -44 -122 -58 -180 -3 -15 -10 -30 -15 -33 -5 -3 -9 -15 -9 -27 0 -12 -18 -64 -40 -115 -22 -51 -39 -96 -38 -100 3 -16 -14 -72 -46 -145 -9 -21 -16 -45 -16 -54 0 -9 -14 -40 -30 -70 -19 -33 -28 -62 -25 -76 8 -36 -18 -60 -57 -52 -46 10 -73 29 -75 54 -1 14 6 23 21 27 18 4 22 11 18 30 -7 40 8 114 28 131 11 9 17 21 13 25 -9 16 -13 549 -4 566 8 14 1 42 -14 60 -6 6 -85 -21 -86 -30 -1 -4 -3 -12 -4 -18 -1 -5 -3 -15 -4 -20 0 -6 -12 -8 -26 -4 -21 5 -25 3 -25 -15 0 -13 -6 -21 -16 -21 -9 0 -25 -11 -35 -24 -11 -14 -28 -27 -38 -31 -11 -3 -22 -17 -25 -31 -4 -14 -14 -28 -24 -31 -25 -8 -142 -132 -142 -150 0 -9 -43 -57 -95 -107 -52 -50 -95 -96 -95 -103 0 -7 -20 -31 -45 -54 -25 -23 -45 -48 -45 -56 0 -17 -40 -17 -104 1 -28 8 -77 22 -108 31 -35 10 -58 22 -58 31 0 7 25 65 55 128 30 63 57 127 61 142 8 33 52 121 62 126 4 2 19 30 33 63 22 54 28 60 57 63 22 2 41 15 65 43 19 21 40 39 48 39 8 0 20 9 27 20 7 11 18 20 25 20 7 0 35 25 62 55 53 60 71 69 61 30 -4 -14 -2 -25 3 -25 5 0 11 10 13 23 2 12 13 26 26 32 12 5 22 14 22 19 0 5 8 18 17 28 10 11 16 32 15 50 -2 18 5 39 14 49 16 18 18 18 29 2 11 -15 16 -14 56 17 66 52 85 80 54 80 -8 0 -15 -4 -15 -9 0 -5 -8 -11 -17 -15 -10 -3 -24 -9 -30 -12 -24 -11 -13 13 11 26 14 7 27 23 30 35 5 18 11 21 31 17 23 -4 30 4 26 31 -2 10 29 68 44 84 7 6 15 9 19 6 3 -4 6 4 6 18 0 13 11 35 25 49 34 34 77 100 64 100 -5 0 -3 14 6 30 20 38 60 41 90 6z m-3365 -60 c0 -7 -7 -19 -15 -26 -8 -7 -15 -19 -15 -26 0 -16 -16 -19 -25 -4 -9 14 23 70 40 70 8 0 15 -6 15 -14z m14892 -45 c18 -11 69 -25 113 -32 79 -12 115 -29 115 -56 0 -7 7 -13 15 -13 8 0 15 -7 15 -16 0 -10 6 -14 15 -10 23 9 48 -46 35 -79 -6 -15 -8 -31 -5 -35 3 -5 -1 -26 -10 -47 -15 -36 -15 -39 4 -55 21 -16 21 -16 -12 -35 -47 -28 -66 -34 -92 -27 -16 4 -21 11 -18 25 3 10 9 19 14 19 5 0 9 10 9 21 0 17 -4 20 -22 15 -13 -3 -32 -6 -42 -6 -18 0 -18 -1 -3 -18 24 -26 21 -41 -10 -48 -34 -9 -56 6 -64 43 -3 16 -10 36 -15 44 -5 8 -7 22 -5 32 1 12 -5 20 -17 24 -13 3 -22 16 -25 36 -13 75 -26 120 -36 126 -6 4 -14 31 -18 59 -7 60 3 65 59 33z m-14802 -5 c0 -11 -19 -15 -25 -6 -3 5 1 10 9 10 9 0 16 -2 16 -4z m-162 -70 c-2 -10 -7 -13 -17 -7 -8 6 -11 16 -7 27 8 21 30 4 24 -20z m-18 -53 c0 -7 -7 -13 -15 -13 -10 0 -15 10 -15 32 0 30 1 31 15 12 8 -10 15 -25 15 -31z m12285 -36 c43 -4 333 -76 550 -136 39 -11 82 -20 96 -20 32 -1 45 -15 53 -61 4 -19 22 -98 41 -175 50 -209 49 -205 30 -205 -16 0 -149 35 -265 70 -36 10 -108 31 -160 45 -52 15 -133 38 -180 53 -46 14 -97 27 -113 29 -51 5 -65 20 -72 71 -7 50 -28 165 -50 271 -14 67 -12 89 8 73 7 -6 35 -12 62 -15z m-12305 -3 c0 -12 -24 -49 -36 -57 -8 -4 -14 -13 -14 -20 0 -7 -16 -25 -35 -41 -19 -16 -35 -38 -35 -48 0 -11 -7 -18 -20 -18 -27 0 -25 18 7 76 48 88 72 112 116 113 9 1 17 -2 17 -5z m15350 -65 c0 -5 -4 -9 -10 -9 -5 0 -10 7 -10 16 0 8 5 12 10 9 6 -3 10 -10 10 -16z m-15335 -57 c-3 -3 -11 0 -18 7 -9 10 -8 11 6 5 10 -3 15 -9 12 -12z m13134 -88 c18 -8 46 -14 61 -14 16 0 89 -20 164 -45 75 -24 172 -54 215 -65 78 -21 121 -48 121 -75 0 -8 23 -89 51 -181 27 -92 48 -173 44 -182 -6 -16 -33 -14 -140 12 -97 23 -354 98 -465 135 l-55 18 -26 114 c-14 63 -36 151 -48 197 -13 46 -20 90 -17 98 6 16 34 12 95 -12z m-7894 -13 c72 -12 139 -26 150 -31 25 -12 101 -31 140 -36 34 -5 99 -22 133 -35 13 -5 40 -9 61 -9 22 0 44 -6 51 -15 8 -9 18 -12 27 -6 8 4 26 6 39 3 18 -3 24 -11 24 -32 0 -29 -53 -319 -70 -380 -9 -34 -16 -75 -45 -240 -7 -41 -38 -196 -69 -345 -78 -372 -87 -412 -97 -475 -6 -30 -14 -59 -19 -65 -7 -8 -63 2 -202 37 -106 27 -220 56 -253 63 -33 8 -76 18 -95 24 -101 27 -559 144 -583 148 -16 3 -31 11 -34 18 -5 15 51 246 97 395 16 52 52 178 79 280 67 242 84 301 115 384 14 38 26 79 26 91 0 13 6 38 14 56 14 34 15 34 24 10 l9 -24 21 23 c12 13 22 29 22 36 0 6 7 14 15 18 8 3 15 14 15 24 0 26 17 38 62 46 21 4 40 12 44 18 5 8 1 9 -10 5 -54 -21 -66 -20 -66 5 0 14 2 27 5 30 13 13 250 -1 370 -21z m-5398 2 c4 -9 1 -19 -5 -21 -23 -7 -41 -33 -35 -48 3 -9 0 -14 -8 -12 -8 2 -15 -7 -17 -22 -2 -14 -13 -35 -24 -47 -11 -12 -17 -26 -13 -32 9 -16 -2 -13 -24 5 -12 10 -17 24 -13 38 6 27 60 108 78 119 8 4 14 15 14 22 0 21 39 19 47 -2z m4963 -13 c4 0 3 -17 -2 -39 -8 -31 -14 -38 -29 -34 -10 3 -19 6 -19 7 0 2 8 25 17 52 10 29 19 42 21 32 2 -10 7 -18 12 -18z m10342 -42 c-2 -10 -8 -18 -13 -18 -5 0 -9 8 -9 18 0 10 6 19 14 19 8 0 11 -8 8 -19z m-15885 -64 c-3 -3 -12 -4 -19 -1 -8 3 -5 6 6 6 11 1 17 -2 13 -5z m6737 -73 c9 -8 40 -14 69 -16 30 -1 65 -10 79 -19 15 -10 32 -16 40 -15 11 2 90 -19 148 -39 8 -3 20 -6 25 -7 6 0 17 -4 25 -7 8 -3 40 -13 70 -22 30 -9 107 -32 170 -51 63 -19 134 -38 157 -44 24 -5 59 -18 78 -30 20 -12 45 -21 55 -21 10 0 20 -5 22 -11 2 -7 -3 -69 -13 -138 -9 -69 -21 -169 -28 -221 -6 -52 -22 -171 -36 -265 -13 -93 -34 -267 -45 -385 -12 -118 -29 -273 -38 -345 -20 -151 -19 -150 -127 -120 -81 23 -112 30 -240 60 -60 14 -126 30 -145 35 -19 5 -87 23 -150 39 -63 17 -135 35 -160 40 -25 5 -90 21 -145 35 -55 13 -117 28 -138 31 -20 4 -40 11 -42 16 -5 7 17 140 50 299 8 41 22 109 29 150 8 41 24 120 35 175 12 55 50 242 86 415 85 409 96 458 113 500 l15 35 13 -31 c7 -17 20 -36 28 -43z m-6843 14 c84 -16 166 -36 277 -68 85 -25 90 -38 32 -90 -22 -19 -40 -41 -40 -47 0 -19 -31 -72 -56 -95 -13 -12 -24 -32 -24 -45 0 -23 -38 -85 -48 -76 -9 9 -32 -15 -32 -34 0 -10 -9 -20 -20 -23 -30 -8 -50 41 -43 105 5 41 3 50 -8 46 -8 -3 -14 -18 -14 -34 0 -28 -2 -29 -60 -35 -33 -3 -45 -6 -27 -7 43 -3 40 -17 -7 -41 l-40 -19 -3 22 c-2 13 -12 22 -27 24 -19 3 -22 0 -17 -13 6 -18 -9 -45 -25 -45 -5 0 -9 17 -9 39 0 30 5 42 25 55 21 14 24 20 15 36 -10 18 -13 19 -38 6 -15 -8 -36 -28 -47 -45 -21 -32 -45 -41 -45 -17 0 7 7 20 17 27 19 17 46 76 39 88 -3 4 5 6 18 4 25 -5 42 10 30 28 -4 8 -9 8 -17 0 -15 -15 -27 -14 -27 4 0 8 20 37 45 65 25 28 45 55 45 60 0 5 8 11 18 15 9 3 25 17 35 30 14 20 16 29 7 46 -7 12 -18 18 -26 15 -14 -5 -20 15 -7 27 9 10 18 9 104 -8z m673 -64 c9 -14 -19 -21 -59 -14 -25 4 -32 9 -23 14 17 11 75 11 82 0z m16966 -21 c0 -5 -4 -10 -10 -10 -5 0 -10 5 -10 10 0 6 5 10 10 10 6 0 10 -4 10 -10z m-17075 -48 c22 -6 85 -20 140 -32 55 -12 127 -29 160 -37 33 -9 92 -21 130 -29 81 -15 207 -48 225 -59 8 -5 8 -11 2 -17 -11 -11 -126 5 -167 22 -26 11 -103 21 -185 24 -74 3 -119 14 -101 25 7 4 -14 14 -46 21 -32 7 -64 18 -71 23 -7 5 -15 7 -18 4 -3 -3 -18 -2 -33 3 -16 4 -47 4 -70 0 -32 -6 -44 -4 -48 6 -7 19 -29 18 -37 -2 -10 -25 -27 -5 -20 24 4 15 9 31 12 35 5 10 68 4 127 -11z m-180 -178 c-8 -16 -15 -34 -15 -40 0 -15 -48 -59 -56 -51 -8 8 -39 -31 -48 -60 -4 -13 -11 -23 -15 -23 -5 0 -11 -14 -15 -32 -5 -23 -9 -29 -17 -21 -13 13 14 95 37 114 8 6 14 17 14 24 0 23 79 113 102 117 31 5 31 5 13 -28z m17032 -111 c-3 -10 -5 -4 -5 12 0 17 2 24 5 18 2 -7 2 -21 0 -30z m-17783 -8 c-4 -8 -10 -15 -15 -15 -5 0 -9 7 -9 15 0 8 7 15 15 15 9 0 12 -6 9 -15z m17716 6 c0 -6 -4 -13 -10 -16 -5 -3 -10 1 -10 9 0 9 5 16 10 16 6 0 10 -4 10 -9z m-8970 -25 c8 -2 22 -6 30 -9 8 -3 26 -8 40 -10 14 -3 51 -12 83 -21 32 -9 74 -16 94 -16 19 0 99 -15 177 -34 77 -18 168 -39 201 -45 33 -7 89 -19 125 -28 36 -8 85 -20 109 -24 25 -5 49 -15 53 -22 11 -16 -1 -410 -32 -1087 -5 -107 -9 -248 -10 -313 0 -65 -4 -127 -10 -137 -9 -17 -13 -17 -72 -3 -35 8 -79 19 -98 24 -71 16 -156 38 -195 49 -22 6 -56 15 -75 20 -19 4 -80 20 -135 35 -55 15 -116 31 -135 36 -19 4 -53 13 -75 19 -22 6 -69 18 -105 26 -129 28 -182 42 -193 53 -16 16 7 248 93 926 17 138 27 226 50 467 10 101 14 112 44 103 11 -4 28 -8 36 -9z m-8790 -6 c0 -5 -7 -10 -15 -10 -8 0 -15 5 -15 10 0 6 7 10 15 10 8 0 15 -4 15 -10z m396 -25 c4 -8 2 -21 -4 -28 -6 -6 -12 -25 -14 -41 -4 -41 -22 -42 -36 -3 -16 44 -15 57 3 57 8 0 15 7 15 15 0 20 29 19 36 0z m2081 -19 c27 -9 95 -27 153 -41 58 -14 137 -34 175 -45 39 -10 106 -25 150 -34 44 -8 101 -21 125 -29 44 -14 82 -23 280 -67 153 -34 166 -42 137 -85 -7 -11 -30 -65 -51 -120 -21 -55 -49 -122 -62 -150 -12 -27 -35 -81 -49 -120 -14 -38 -39 -101 -54 -140 -16 -38 -37 -92 -46 -120 -10 -27 -21 -54 -25 -60 -13 -16 -147 -348 -195 -481 -24 -67 -53 -140 -64 -162 -12 -23 -21 -46 -21 -52 0 -5 -9 -29 -19 -53 -11 -23 -36 -87 -56 -142 -20 -55 -48 -125 -62 -155 -14 -30 -38 -89 -53 -130 -33 -87 -69 -170 -75 -170 -10 0 -143 32 -165 39 -14 5 -59 15 -100 22 -41 7 -96 23 -122 36 -26 12 -54 23 -62 23 -7 0 -16 7 -20 15 -3 9 -12 12 -21 9 -18 -7 -65 31 -65 53 0 7 -7 13 -15 13 -8 0 -15 -7 -15 -15 0 -25 -19 -17 -36 16 -11 23 -13 34 -5 42 18 18 12 27 -19 27 -27 0 -30 3 -30 34 0 21 6 36 15 40 8 3 15 14 15 24 0 17 49 62 69 62 13 0 22 30 16 51 -5 14 -1 19 13 19 26 0 39 17 53 70 9 34 22 52 51 73 30 21 38 32 33 47 -5 15 0 22 20 30 14 5 24 14 21 19 -9 13 4 42 18 40 25 -3 36 2 36 15 0 8 -5 16 -12 18 -12 4 36 58 52 58 6 0 10 8 10 18 0 10 20 32 45 50 25 17 45 39 45 47 0 17 35 63 108 143 23 26 38 48 32 50 -20 7 -9 19 14 15 32 -7 42 22 13 42 -12 8 -16 15 -10 15 6 0 21 11 34 25 13 13 30 25 37 25 6 0 12 7 12 15 0 9 7 27 17 41 12 19 22 24 38 20 17 -4 29 4 55 40 31 44 35 69 7 46 -25 -21 -25 -1 0 26 14 15 27 25 30 22 3 -3 11 7 19 22 10 19 19 25 34 21 20 -5 24 3 21 38 -2 21 35 54 44 39 4 -7 2 -17 -4 -23 -15 -15 -14 -27 4 -27 8 0 15 5 15 12 0 6 7 19 16 29 12 13 13 22 5 38 -15 27 -14 31 7 31 20 0 174 158 166 171 -2 4 -11 6 -18 3 -24 -9 -27 15 -4 27 42 22 110 101 104 121 -3 15 -2 17 9 8 7 -6 16 -7 19 -2 3 5 19 7 36 4 21 -3 30 0 30 9 0 17 -43 59 -59 59 -6 0 -19 4 -29 9 -28 14 -116 41 -133 41 -9 0 -30 7 -45 15 -16 8 -42 15 -58 15 -27 0 -69 11 -121 30 -43 17 -88 30 -200 61 -38 10 -157 35 -210 44 -22 4 -44 10 -50 15 -5 4 -26 10 -45 13 -76 13 -100 20 -100 30 0 13 83 3 147 -17z m-2540 -28 c-3 -7 -5 -2 -5 12 0 14 2 19 5 13 2 -7 2 -19 0 -25z m3673 14 c0 -4 -6 -17 -14 -28 -8 -11 -19 -40 -26 -64 -6 -25 -18 -55 -26 -67 -14 -22 -28 -22 -86 2 -22 9 -24 25 -4 25 8 0 21 8 28 19 7 10 23 21 36 25 12 4 22 13 22 21 0 16 48 75 61 75 5 0 9 -3 9 -8z m-3400 -22 c0 -5 -4 -10 -10 -10 -5 0 -10 5 -10 10 0 6 5 10 10 10 6 0 10 -4 10 -10z m410 -9 c0 -6 -4 -13 -10 -16 -5 -3 -10 1 -10 9 0 9 5 16 10 16 6 0 10 -4 10 -9z m-372 -18 c-5 -25 -28 -28 -28 -4 0 12 6 21 16 21 9 0 14 -7 12 -17z m-58 -26 c0 -20 -1 -20 -16 -5 -9 9 -13 21 -9 27 10 16 25 3 25 -22z m140 11 c0 -6 7 -19 16 -29 9 -10 14 -26 11 -36 -3 -14 -7 -11 -18 15 -7 17 -17 32 -21 32 -4 0 -8 7 -8 15 0 8 5 15 10 15 6 0 10 -5 10 -12z m84 -25 c-8 -47 -20 -61 -29 -34 -3 12 1 30 11 46 22 34 26 32 18 -12z m166 -3 c0 -5 -5 -10 -11 -10 -5 0 -7 5 -4 10 3 6 8 10 11 10 2 0 4 -4 4 -10z m-20 -35 c0 -8 -4 -15 -10 -15 -5 0 -7 7 -4 15 4 8 8 15 10 15 2 0 4 -7 4 -15z m-230 -41 c0 -14 -4 -23 -9 -20 -5 3 -7 15 -4 26 7 28 13 25 13 -6z m9545 -19 c33 -9 76 -21 95 -25 19 -5 60 -16 90 -25 30 -8 71 -19 90 -24 19 -5 62 -18 95 -27 33 -10 64 -17 69 -16 5 2 26 -4 47 -12 22 -9 78 -24 126 -35 119 -26 200 -58 215 -84 9 -16 15 -125 20 -367 4 -190 9 -383 11 -430 3 -47 8 -228 12 -402 l8 -318 -24 0 c-13 0 -42 5 -64 11 -56 15 -241 58 -295 69 -96 19 -143 30 -257 59 -189 48 -295 72 -346 80 -82 13 -81 10 -68 238 6 109 16 299 21 423 11 244 25 513 39 736 9 143 22 194 44 176 7 -5 39 -17 72 -27z m-9965 -45 c0 -5 -4 -10 -10 -10 -5 0 -10 5 -10 10 0 6 5 10 10 10 6 0 10 -4 10 -10z m147 -42 c-3 -8 -6 -5 -6 6 -1 11 2 17 5 13 3 -3 4 -12 1 -19z m163 2 c0 -5 -7 -10 -15 -10 -8 0 -15 5 -15 10 0 6 7 10 15 10 8 0 15 -4 15 -10z m3502 -21 c62 -17 122 -34 133 -39 11 -4 29 -11 39 -14 29 -10 14 -17 -45 -21 -50 -3 -57 -7 -95 -49 -22 -25 -44 -46 -50 -47 -5 0 -31 -30 -59 -66 -48 -62 -90 -113 -145 -174 -14 -15 -47 -58 -75 -96 -27 -37 -53 -69 -57 -71 -5 -2 -8 -10 -8 -18 0 -8 -5 -14 -11 -14 -14 0 -5 37 23 100 30 67 41 94 87 215 24 61 51 131 61 156 11 25 26 68 36 95 17 51 31 74 45 74 5 0 59 -14 121 -31z m14147 15 c22 -11 49 -15 82 -12 37 4 52 1 64 -12 35 -39 -26 -70 -66 -34 -16 15 -20 15 -41 0 -29 -21 -40 -20 -68 4 -13 11 -31 20 -40 20 -17 0 -33 33 -22 44 11 11 59 6 91 -10z m-18039 -17 c0 -14 -20 -37 -32 -37 -12 0 -10 24 4 38 16 16 28 15 28 -1z m571 -90 c-8 -8 -11 -7 -11 4 0 20 13 34 18 19 3 -7 -1 -17 -7 -23z m4138 -122 c47 -8 89 -19 94 -24 15 -15 -3 -51 -30 -64 -22 -10 -24 -16 -19 -46 4 -25 -3 -61 -24 -121 -16 -47 -36 -111 -45 -144 -11 -41 -19 -56 -27 -48 -7 7 -7 30 1 75 6 35 13 128 16 205 l4 141 -32 15 c-18 8 -39 17 -47 19 -31 11 27 7 109 -8z m7295 -199 c18 -7 57 -17 87 -21 30 -4 62 -11 71 -16 19 -10 234 -56 305 -66 24 -3 47 -11 52 -17 5 -6 17 -67 25 -136 9 -69 20 -156 26 -195 5 -38 12 -99 15 -135 3 -36 10 -96 15 -135 11 -84 32 -250 65 -525 37 -315 45 -373 50 -400 12 -57 10 -57 -255 17 -52 14 -113 29 -135 33 -22 4 -76 17 -119 29 -44 11 -89 21 -101 21 -13 0 -27 6 -33 13 -6 7 -15 84 -21 172 -6 88 -15 205 -21 260 -6 55 -26 300 -45 545 -19 245 -37 467 -39 494 -3 29 -1 55 5 63 14 16 12 16 53 -1z m-6100 -72 c33 -9 102 -24 151 -34 81 -17 154 -34 425 -102 47 -11 101 -24 120 -28 19 -5 98 -25 175 -45 77 -20 152 -39 168 -42 16 -3 27 -12 27 -22 0 -16 -41 -220 -60 -296 -35 -145 -60 -257 -65 -300 -7 -45 -36 -184 -79 -375 -18 -78 -61 -270 -82 -360 -8 -36 -35 -159 -60 -275 -118 -536 -110 -505 -122 -517 -5 -5 -56 1 -128 17 -65 14 -193 41 -284 61 -205 43 -575 136 -655 164 -33 11 -91 28 -130 37 -38 8 -76 20 -83 26 -14 11 -8 86 10 119 5 10 13 37 18 60 29 138 42 184 65 232 14 29 25 65 25 79 0 15 5 27 10 27 6 0 8 10 5 23 -4 13 3 51 14 85 12 34 21 67 21 74 0 20 57 230 96 353 35 114 72 242 131 455 19 69 41 148 50 175 8 28 23 82 33 120 10 39 27 97 38 130 11 33 23 76 27 95 19 89 28 93 139 64z m6739 -76 c12 -6 38 -15 57 -19 19 -4 67 -16 106 -28 40 -11 116 -30 170 -42 55 -11 126 -32 159 -45 33 -13 76 -27 95 -30 19 -4 40 -10 45 -14 6 -4 31 -11 57 -14 26 -4 56 -15 66 -24 24 -22 46 -118 102 -447 16 -93 43 -246 60 -340 34 -186 65 -369 82 -485 6 -41 21 -121 33 -178 18 -85 20 -105 9 -109 -8 -3 -47 2 -87 12 -144 33 -365 87 -482 116 -66 17 -167 42 -225 55 -58 14 -110 32 -116 39 -6 8 -14 41 -17 72 -4 32 -11 96 -17 143 -5 47 -17 144 -25 215 -18 158 -76 662 -106 916 -12 103 -19 194 -16 203 8 19 21 20 50 4z m-9663 -58 c0 -5 -5 -10 -11 -10 -5 0 -7 5 -4 10 3 6 8 10 11 10 2 0 4 -4 4 -10z m4160 -166 c36 -8 81 -18 100 -23 59 -16 202 -50 260 -62 52 -11 123 -28 200 -49 19 -5 87 -21 150 -35 63 -14 140 -33 170 -42 30 -8 73 -18 94 -22 21 -3 44 -14 50 -23 7 -13 -6 -131 -53 -460 -34 -244 -78 -555 -97 -693 -83 -590 -134 -933 -143 -958 -6 -15 -15 -27 -21 -27 -25 0 -157 22 -186 31 -17 5 -64 16 -105 23 -103 19 -305 62 -424 91 -55 14 -172 40 -260 59 -242 53 -304 69 -309 81 -2 6 11 81 30 166 19 85 41 188 50 229 8 41 24 113 35 160 35 154 37 164 53 235 8 39 32 144 52 235 20 91 43 197 51 235 8 39 18 86 23 105 4 19 13 62 20 94 6 33 25 112 41 175 17 64 37 145 44 181 8 36 23 108 34 160 12 52 21 104 21 116 0 26 20 46 40 38 8 -3 44 -12 80 -20z m6970 -204 c0 -5 7 -10 15 -10 7 0 18 -7 22 -15 7 -12 14 -13 41 -3 27 10 42 9 104 -10 91 -29 268 -62 328 -63 25 0 52 -6 60 -14 19 -16 102 -29 212 -34 10 -1 22 -10 28 -21 13 -25 99 -351 140 -535 16 -71 45 -191 65 -265 19 -74 50 -198 69 -275 19 -77 52 -212 74 -300 22 -88 43 -174 47 -192 l6 -32 -33 11 c-18 6 -41 15 -50 19 -10 5 -25 9 -33 9 -9 0 -154 34 -323 75 -169 41 -329 80 -357 85 -150 32 -185 54 -185 114 0 19 -9 79 -19 133 -11 54 -29 154 -41 223 -12 69 -27 133 -32 143 -5 10 -13 50 -18 90 -12 89 -24 152 -55 287 -47 205 -77 376 -80 465 -2 53 -7 91 -14 93 -19 6 -12 32 9 32 11 0 20 -4 20 -10z m-10821 -321 c-6 -85 -13 -248 -15 -364 -5 -283 -10 -384 -23 -419 -11 -27 -14 -28 -59 -23 -26 4 -76 14 -112 23 -36 9 -84 17 -107 18 -23 0 -44 3 -47 7 -6 6 33 113 127 344 36 88 95 234 132 325 79 197 104 254 111 247 3 -2 0 -74 -7 -158z m5512 116 c30 -9 70 -20 89 -25 19 -6 85 -22 145 -36 178 -41 317 -74 355 -84 19 -5 64 -17 100 -25 96 -24 141 -35 175 -45 17 -4 53 -13 82 -20 29 -6 56 -17 62 -23 6 -8 4 -145 -5 -392 -8 -209 -19 -506 -24 -660 -5 -154 -14 -363 -19 -465 -6 -102 -15 -281 -20 -399 -6 -118 -14 -218 -20 -224 -10 -10 -89 7 -453 94 -113 27 -228 54 -255 59 -26 5 -79 16 -118 25 -38 8 -131 28 -205 44 -74 16 -148 34 -164 40 l-29 12 7 92 c3 51 15 169 26 262 10 94 24 213 30 265 6 52 13 109 15 125 3 17 10 80 15 140 5 61 19 196 30 300 11 105 27 260 35 345 30 295 64 590 70 600 8 13 12 13 76 -5z m6247 1 c23 -8 65 -19 94 -25 29 -5 67 -15 83 -22 17 -6 37 -13 45 -15 57 -10 132 -34 165 -51 49 -25 111 -50 146 -57 15 -3 29 -14 32 -26 5 -21 41 -28 52 -10 10 16 25 12 25 -6 0 -9 9 -32 21 -50 11 -19 18 -34 15 -34 -3 0 3 -15 14 -34 10 -19 26 -58 34 -87 9 -29 22 -62 30 -74 8 -12 17 -52 20 -91 7 -72 23 -134 63 -244 12 -36 23 -83 23 -104 0 -27 6 -43 22 -56 20 -16 21 -21 10 -45 -11 -23 -10 -30 8 -52 11 -14 20 -39 20 -55 0 -16 14 -57 31 -91 30 -62 41 -100 58 -209 10 -58 27 -119 42 -150 5 -10 9 -26 9 -36 0 -9 6 -26 14 -37 7 -11 16 -37 20 -59 7 -37 6 -38 -16 -32 -57 18 -181 48 -274 66 -56 11 -148 33 -205 49 -145 39 -190 50 -223 53 -27 3 -30 8 -53 83 -13 44 -28 103 -33 130 -5 28 -18 86 -30 130 -11 44 -27 107 -34 140 -8 33 -44 175 -80 315 -140 539 -203 800 -193 800 3 0 23 -6 45 -14z m-5088 -286 c19 -6 85 -21 145 -35 61 -14 126 -29 145 -34 19 -5 85 -21 145 -36 61 -14 144 -35 185 -45 41 -11 131 -33 200 -50 76 -19 130 -37 138 -47 8 -12 12 -68 12 -192 1 -97 3 -221 5 -276 7 -158 24 -846 30 -1240 3 -198 8 -371 11 -385 2 -14 -1 -34 -9 -44 -13 -17 -17 -17 -98 -1 -46 9 -120 25 -164 35 -44 11 -172 40 -285 66 -113 25 -284 64 -380 87 -96 22 -193 42 -215 45 -22 2 -43 10 -47 16 -4 6 -5 79 -2 161 5 159 31 765 39 925 3 52 12 264 20 470 17 427 25 569 31 588 4 13 21 11 94 -8z m7660 -104 c295 -64 300 -66 300 -126 0 -42 -12 -50 -48 -31 -33 18 -57 24 -92 22 -19 -1 -52 5 -72 14 -51 21 -145 46 -191 51 -37 3 -117 55 -117 74 0 9 99 18 135 13 11 -2 49 -10 85 -17z m-15450 -220 c0 -3 -4 -8 -10 -11 -5 -3 -10 -1 -10 4 0 6 5 11 10 11 6 0 10 -2 10 -4z m15425 -35 c22 -5 67 -15 100 -21 77 -14 126 -40 144 -76 8 -16 25 -37 38 -47 13 -11 37 -44 52 -76 16 -31 38 -65 50 -75 12 -11 21 -23 21 -29 0 -5 13 -26 28 -46 16 -20 38 -55 49 -79 12 -24 35 -60 51 -80 53 -63 132 -173 132 -181 0 -5 10 -24 23 -43 13 -18 29 -49 35 -67 6 -18 23 -46 36 -62 34 -40 78 -130 106 -214 12 -38 31 -87 42 -108 10 -21 16 -42 12 -48 -3 -6 1 -18 8 -27 8 -9 25 -46 38 -82 12 -36 31 -83 40 -105 10 -22 30 -67 45 -100 15 -33 35 -76 46 -96 18 -34 17 -69 -1 -69 -4 0 -52 11 -106 25 -55 13 -156 36 -224 50 -205 43 -208 44 -260 126 -25 39 -52 81 -60 94 -76 114 -127 226 -194 431 -26 76 -51 148 -58 159 -6 11 -30 74 -54 140 -48 133 -83 229 -143 385 -23 58 -41 112 -41 120 0 8 -16 51 -35 95 -19 44 -35 90 -35 103 0 22 3 24 38 19 20 -3 55 -10 77 -16z m1378 -107 c106 -25 212 -51 237 -59 25 -7 87 -23 138 -36 79 -19 95 -26 103 -46 15 -40 10 -64 -15 -88 l-25 -23 -16 24 c-11 18 -25 24 -51 24 -19 0 -42 7 -50 15 -11 10 -27 13 -57 9 -47 -7 -122 10 -144 32 -14 14 -36 18 -78 15 -11 -1 -30 9 -42 23 -12 14 -41 30 -65 36 -24 6 -59 16 -78 21 -57 15 -85 45 -81 87 2 18 15 16 224 -34z m-6793 -88 c36 -8 144 -35 240 -59 96 -25 198 -48 225 -52 60 -9 85 -28 85 -66 0 -16 4 -59 10 -96 5 -38 17 -131 25 -208 32 -284 74 -615 85 -680 13 -72 29 -186 40 -290 5 -49 16 -146 25 -215 9 -69 20 -163 26 -210 5 -47 14 -112 19 -145 15 -103 33 -305 28 -311 -3 -2 -32 2 -64 10 -58 15 -108 26 -442 106 -189 44 -218 55 -227 79 -4 9 -11 70 -16 136 -5 66 -13 167 -19 225 -12 129 -26 284 -40 456 -6 72 -21 261 -35 420 -14 159 -30 343 -35 408 -6 65 -17 196 -25 290 -8 93 -15 180 -15 193 0 28 17 29 110 9z m775 -187 c66 -16 136 -34 155 -39 19 -5 98 -25 175 -44 308 -77 391 -98 407 -107 10 -6 19 -27 23 -57 4 -26 13 -72 20 -102 8 -30 17 -82 20 -115 4 -33 13 -84 21 -114 8 -30 25 -132 39 -225 14 -94 32 -202 40 -241 15 -69 55 -315 74 -450 35 -241 37 -388 7 -410 -15 -11 -15 -23 -5 -116 6 -57 16 -108 20 -113 5 -6 9 -20 9 -32 0 -13 5 -26 11 -29 6 -4 8 -14 5 -22 -4 -8 1 -36 9 -61 9 -25 14 -51 11 -58 -7 -17 -76 -13 -171 11 -91 22 -94 23 -200 35 -49 6 -156 27 -236 46 -80 18 -154 34 -165 34 -20 0 -160 43 -169 51 -2 3 -18 111 -35 240 -16 129 -43 338 -59 464 -17 127 -39 316 -51 420 -11 105 -27 244 -36 310 -8 66 -19 160 -25 208 -5 49 -11 98 -14 110 -3 12 -9 60 -15 107 -5 47 -16 137 -25 200 -17 129 -15 145 18 136 12 -4 76 -21 142 -37z m6519 5 c3 -8 -1 -14 -9 -14 -8 0 -15 -9 -15 -20 0 -22 -16 -25 -54 -10 -36 13 -32 31 6 28 27 -3 34 1 36 19 3 24 26 22 36 -3z m-18276 -275 c-2 -6 -8 -10 -13 -10 -5 0 -11 4 -13 10 -2 6 4 11 13 11 9 0 15 -5 13 -11z m128 -14 c11 -11 19 -12 32 -4 12 8 38 7 92 -4 41 -8 113 -22 160 -31 47 -9 126 -28 175 -41 50 -14 121 -30 158 -35 77 -12 151 -45 124 -56 -9 -3 -25 -3 -34 1 -10 3 -67 15 -128 26 -60 11 -128 27 -150 35 -22 9 -69 20 -105 24 -87 12 -149 25 -183 39 -16 6 -41 11 -55 10 -37 -2 -115 24 -120 39 -5 17 16 15 34 -3z m13334 -161 c118 -29 276 -67 350 -84 74 -17 162 -37 195 -45 33 -7 75 -16 92 -20 18 -4 36 -11 39 -16 8 -13 130 -498 149 -594 8 -38 21 -92 29 -120 30 -106 59 -222 68 -275 5 -30 22 -102 38 -160 17 -58 46 -178 65 -267 19 -89 39 -173 44 -186 15 -38 51 -196 51 -221 0 -21 -17 -40 -56 -62 -10 -6 -24 -21 -30 -33 -6 -12 -23 -34 -37 -49 -14 -15 -33 -44 -41 -64 -20 -47 -52 -71 -78 -57 -11 6 -24 8 -31 6 -7 -2 -24 2 -39 9 -15 8 -47 16 -71 18 -44 4 -119 24 -217 56 -30 10 -75 18 -100 19 -29 1 -47 6 -53 17 -7 12 -21 15 -60 12 -60 -3 -114 16 -122 43 -4 10 -12 19 -19 19 -16 0 -26 44 -26 109 0 25 -5 62 -10 81 -6 19 -17 76 -24 126 -8 51 -22 103 -30 117 -9 13 -25 76 -36 138 -11 63 -24 123 -30 134 -5 11 -16 67 -24 125 -8 58 -19 123 -26 145 -18 65 -31 156 -31 220 0 44 -2 55 -9 40 -8 -19 -9 -18 -11 5 -2 14 -3 34 -4 45 -1 11 -4 25 -7 30 -3 6 -9 33 -13 60 -4 28 -11 57 -16 66 -4 9 -9 43 -10 75 -1 33 -5 64 -9 69 -4 6 -14 35 -23 65 -15 52 -24 91 -63 275 -9 44 -22 102 -30 129 -7 27 -11 53 -8 58 6 9 -8 12 274 -58z m-12535 -14 c3 -5 1 -10 -4 -10 -6 0 -11 5 -11 10 0 6 2 10 4 10 3 0 8 -4 11 -10z m75 -21 c0 -5 -7 -9 -15 -9 -8 0 -15 7 -15 15 0 9 6 12 15 9 8 -4 15 -10 15 -15z m290 -52 c14 -7 24 -17 22 -22 -3 -14 -33 -13 -57 2 -11 7 -29 13 -41 13 -12 0 -28 7 -35 17 -13 15 -10 15 36 9 28 -4 61 -13 75 -19z m12994 -108 c22 -6 64 -17 93 -26 29 -8 89 -23 135 -32 46 -10 144 -34 218 -54 74 -20 162 -43 194 -51 63 -17 79 -26 58 -33 -11 -4 -11 -8 1 -22 7 -9 18 -34 24 -56 28 -99 35 -130 32 -130 -2 -1 4 -13 14 -28 10 -15 17 -33 15 -40 -2 -12 44 -197 64 -252 6 -16 12 -44 13 -61 2 -17 7 -40 13 -50 5 -11 13 -43 17 -71 6 -46 4 -56 -17 -82 -12 -16 -34 -46 -48 -66 -14 -20 -37 -51 -51 -68 -30 -38 -116 -165 -150 -223 -27 -46 -59 -91 -144 -204 -33 -43 -73 -98 -89 -120 -16 -23 -32 -38 -36 -33 -8 8 -132 480 -156 593 -17 79 -107 446 -134 550 -11 41 -38 152 -60 245 -22 94 -48 201 -60 240 -11 38 -20 73 -20 77 0 11 26 10 74 -3z m-12787 -58 c43 -7 107 -21 143 -31 36 -10 94 -25 130 -33 165 -38 246 -61 252 -71 4 -6 8 -24 8 -39 0 -15 8 -39 17 -53 13 -21 14 -30 5 -45 -18 -29 -15 -45 14 -66 29 -21 30 -31 15 -142 -7 -51 -7 -79 0 -87 11 -14 21 -76 23 -144 1 -25 11 -64 23 -87 11 -24 17 -45 12 -49 -15 -9 -10 -44 6 -44 8 0 15 -6 15 -13 0 -18 -20 -36 -34 -31 -14 5 -55 -111 -49 -137 3 -10 12 -19 19 -19 23 0 16 -18 -8 -22 -16 -2 -24 -11 -26 -28 -6 -51 -11 -55 -38 -29 -21 20 -27 21 -35 9 -5 -8 -7 -22 -5 -31 2 -10 -3 -41 -10 -70 -8 -30 -12 -60 -9 -68 3 -7 0 -31 -6 -53 -6 -23 -12 -72 -13 -111 l-2 -70 45 -28 c55 -36 84 -36 117 -4 14 14 29 23 33 20 18 -10 18 -87 2 -152 -15 -56 -163 -515 -203 -628 -33 -93 -56 -164 -129 -386 -44 -136 -86 -253 -95 -259 -11 -10 -26 -11 -67 -2 -191 41 -860 174 -1092 217 -86 16 -205 40 -270 54 -19 4 -31 14 -33 26 -1 11 20 74 47 140 26 66 105 260 174 430 69 171 183 450 252 620 69 171 146 362 171 425 47 119 129 320 144 355 5 11 72 172 150 358 158 382 155 374 184 403 19 19 22 20 33 4 8 -11 39 -21 90 -29z m2383 -530 c41 -6 106 -13 144 -15 37 -3 74 -11 82 -17 19 -16 226 -59 305 -64 88 -5 137 -14 177 -32 18 -8 50 -16 70 -18 20 -2 58 -9 83 -15 34 -9 52 -9 67 -1 15 8 23 7 31 -3 7 -8 21 -12 31 -9 14 4 20 0 20 -11 0 -12 9 -16 34 -16 19 0 47 -5 62 -11 21 -7 34 -7 53 3 20 11 25 11 29 0 3 -9 7 -10 17 -2 9 8 20 7 39 -1 51 -24 49 -40 -99 -754 -26 -121 -70 -337 -100 -480 -29 -143 -74 -354 -99 -470 -24 -115 -61 -289 -81 -385 -84 -407 -96 -461 -121 -575 -14 -66 -28 -130 -31 -142 -9 -39 -26 -45 -85 -33 -75 15 -131 27 -223 44 -44 9 -123 25 -175 36 -52 11 -151 32 -220 46 -69 15 -143 30 -165 35 -22 5 -62 13 -90 19 -139 26 -214 41 -250 49 -97 22 -145 32 -215 46 -222 42 -210 32 -176 146 14 46 46 161 72 254 25 94 57 206 69 250 13 44 58 206 100 360 42 154 108 393 147 530 38 138 92 333 120 435 86 316 203 719 224 768 17 42 32 54 59 48 11 -3 54 -9 95 -15z m13244 -86 c27 -8 62 -15 78 -15 16 0 66 -11 111 -26 45 -14 98 -30 117 -36 86 -25 116 -47 142 -101 14 -28 29 -70 32 -92 11 -62 52 -170 105 -276 27 -53 52 -110 56 -127 3 -17 16 -46 28 -64 24 -35 81 -173 92 -223 13 -56 36 -120 56 -153 10 -18 19 -40 19 -48 0 -17 58 -170 101 -269 17 -38 39 -88 49 -110 24 -54 40 -107 40 -133 0 -11 4 -23 9 -26 5 -3 12 -21 15 -40 4 -19 15 -45 26 -59 11 -14 20 -40 20 -60 0 -20 5 -39 10 -42 6 -3 10 -20 10 -36 0 -16 8 -55 19 -87 10 -31 18 -81 18 -110 1 -30 6 -59 12 -65 6 -6 11 -26 11 -45 0 -27 -3 -32 -17 -28 -10 3 -35 8 -55 11 -20 4 -39 14 -42 22 -4 9 -13 12 -26 8 -10 -3 -28 -2 -38 4 -11 6 -57 12 -103 15 -47 2 -96 7 -109 10 -14 3 -66 15 -117 27 l-92 21 -27 72 c-27 74 -83 220 -139 366 -33 87 -105 275 -155 410 -16 41 -53 140 -83 220 -30 80 -74 199 -97 265 -54 156 -77 217 -106 290 -13 33 -32 87 -43 120 -10 33 -33 98 -50 145 -34 93 -37 115 -18 127 25 16 54 98 37 108 -5 3 -15 15 -20 26 -10 17 -7 19 32 19 24 0 65 -7 92 -15z m-11824 -185 c22 -29 70 -42 70 -20 0 20 29 22 64 5 20 -10 47 -15 61 -13 19 4 25 1 25 -13 0 -11 5 -19 10 -19 6 0 10 7 10 17 0 14 2 15 18 1 27 -24 50 -28 63 -12 11 14 13 14 21 0 5 -9 20 -16 33 -16 13 0 27 -5 30 -11 4 -6 19 -7 36 -4 16 4 29 3 29 -2 0 -5 13 -8 29 -5 21 3 40 -3 63 -20 18 -14 61 -33 96 -42 56 -15 66 -16 92 -2 28 13 44 6 19 -10 -8 -5 -7 -10 4 -16 10 -5 23 -4 35 3 24 15 65 3 42 -12 -10 -7 2 -8 41 -4 44 6 58 4 68 -9 8 -9 29 -16 50 -16 27 0 32 3 21 10 -10 7 9 8 60 4 41 -4 84 -7 96 -8 25 -1 56 -25 48 -37 -3 -5 2 -16 10 -25 9 -8 16 -26 16 -38 0 -25 -44 -389 -60 -501 -5 -38 -24 -176 -40 -305 -16 -129 -34 -264 -40 -300 -5 -36 -15 -103 -21 -150 -6 -47 -17 -130 -24 -185 -8 -55 -21 -152 -29 -215 -8 -63 -20 -151 -26 -195 -6 -44 -17 -132 -25 -195 -8 -63 -21 -167 -30 -230 -9 -63 -20 -144 -25 -180 -19 -153 -32 -247 -39 -280 l-7 -35 -71 1 c-38 0 -97 6 -129 13 -33 7 -77 17 -99 21 -22 5 -103 21 -180 35 -77 15 -196 38 -265 51 -69 13 -152 29 -185 35 -33 6 -80 15 -105 20 -25 5 -92 19 -150 31 -58 11 -121 24 -140 28 -19 4 -51 11 -70 15 -19 3 -53 10 -75 15 -22 5 -52 11 -67 15 -35 7 -35 18 -3 166 13 63 47 229 74 369 28 140 65 323 82 405 42 200 50 237 97 470 23 110 52 252 66 315 36 169 85 396 102 470 8 36 25 117 39 182 13 64 38 176 56 250 49 205 78 245 129 178z m610 -110 c0 -5 -4 -10 -10 -10 -5 0 -10 5 -10 10 0 6 5 10 10 10 6 0 10 -4 10 -10z m11120 -222 c22 -48 25 -68 10 -68 -7 0 -40 88 -40 107 0 14 14 -4 30 -39z m-14757 -40 c2 -7 0 -24 -5 -38 -8 -23 -10 -23 -19 -7 -11 18 -3 57 11 57 4 0 10 -6 13 -12z m14846 -213 c0 -34 -56 86 -63 135 -6 42 -4 39 28 -35 19 -44 35 -89 35 -100z m-14944 46 c3 -5 1 -12 -5 -16 -5 -3 -10 1 -10 9 0 18 6 21 15 7z m55 -25 c0 -31 -27 -96 -41 -96 -6 0 -8 8 -5 18 2 9 8 33 11 52 9 41 13 50 26 50 5 0 9 -11 9 -24z m14980 -254 c0 -8 7 -28 15 -45 8 -18 23 -57 34 -87 37 -101 72 -195 85 -225 7 -16 26 -64 40 -105 15 -41 40 -111 56 -155 16 -44 48 -129 70 -190 67 -178 100 -277 99 -299 0 -17 -3 -15 -14 9 -33 76 -94 235 -123 320 -11 33 -37 98 -57 145 -20 47 -65 166 -100 265 -34 99 -78 221 -98 270 -20 50 -41 113 -47 140 -6 28 -13 59 -15 70 -3 11 9 -7 25 -40 16 -33 30 -66 30 -73z m-3351 -1100 c9 -16 4 -50 -12 -70 -5 -7 -10 -22 -11 -35 -2 -34 -30 -26 -43 13 -13 38 -17 93 -7 103 12 11 65 4 73 -11z m51 -238 c0 -8 -5 -12 -10 -9 -6 4 -8 11 -5 16 9 14 15 11 15 -7z m-30 -34 c0 -5 -5 -10 -11 -10 -5 0 -7 5 -4 10 3 6 8 10 11 10 2 0 4 -4 4 -10z m20 -80 c0 -5 -4 -10 -10 -10 -5 0 -10 5 -10 10 0 6 5 10 10 10 6 0 10 -4 10 -10z m0 -51 c0 -6 -4 -7 -10 -4 -5 3 -10 11 -10 16 0 6 5 7 10 4 6 -3 10 -11 10 -16z m20 -70 c0 -10 -3 -25 -6 -34 -10 -26 -24 3 -24 50 1 37 2 39 15 21 8 -11 15 -28 15 -37z m-690 -130 c0 -10 -4 -19 -10 -19 -5 0 -10 12 -10 26 0 14 4 23 10 19 6 -3 10 -15 10 -26z m7 -91 c-3 -7 -5 -2 -5 12 0 14 2 19 5 13 2 -7 2 -19 0 -25z m13 -53 c0 -8 -2 -15 -4 -15 -2 0 -6 7 -10 15 -3 8 -1 15 4 15 6 0 10 -7 10 -15z m790 -199 c0 -3 -4 -8 -10 -11 -5 -3 -10 -1 -10 4 0 6 5 11 10 11 6 0 10 -2 10 -4z"/>
    <path d="M9450 11304 c0 -8 5 -12 10 -9 6 4 8 11 5 16 -9 14 -15 11 -15 -7z"/>
    <path d="M9490 11280 c0 -11 5 -20 10 -20 6 0 10 9 10 20 0 11 -4 20 -10 20 -5 0 -10 -9 -10 -20z"/>
    <path d="M5997 10803 c-10 -19 -17 -64 -9 -59 6 3 12 19 14 36 5 30 3 37 -5 23z"/>
    <path d="M5440 10284 c0 -15 45 -55 53 -47 13 13 7 33 -11 33 -10 0 -23 5 -30 12 -7 7 -12 8 -12 2z"/>
    <path d="M12440 10860 c0 -5 9 -10 21 -10 11 0 17 5 14 10 -3 6 -13 10 -21 10 -8 0 -14 -4 -14 -10z"/>
    <path d="M13620 10811 c0 -14 6 -21 19 -21 24 0 22 34 -2 38 -12 2 -17 -3 -17 -17z"/>
    <path d="M13936 10921 c-4 -5 -2 -12 3 -15 5 -4 12 -2 15 3 4 5 2 12 -3 15 -5 4 -12 2 -15 -3z"/>
    <path d="M14205 10740 c-3 -5 1 -10 10 -10 9 0 13 5 10 10 -3 6 -8 10 -10 10 -2 0 -7 -4 -10 -10z"/>
    <path d="M14250 10705 c0 -10 10 -15 26 -15 22 0 25 2 14 15 -7 8 -19 15 -26 15 -8 0 -14 -7 -14 -15z"/>
    <path d="M13996 10673 c-6 -14 -5 -15 5 -6 7 7 10 15 7 18 -3 3 -9 -2 -12 -12z"/>
    <path d="M14122 10676 c1 -10 8 -17 13 -17 15 1 12 24 -3 29 -9 3 -13 -2 -10 -12z"/>
    <path d="M14210 10680 c0 -5 5 -10 10 -10 6 0 10 5 10 10 0 6 -4 10 -10 10 -5 0 -10 -4 -10 -10z"/>
    <path d="M14360 10472 c0 -12 19 -26 26 -19 2 2 -2 10 -11 17 -9 8 -15 8 -15 2z"/>
    <path d="M15870 10060 c0 -5 5 -10 10 -10 6 0 10 5 10 10 0 6 -4 10 -10 10 -5 0 -10 -4 -10 -10z"/>
    <path d="M16170 9760 c0 -5 7 -10 15 -10 8 0 15 5 15 10 0 6 -7 10 -15 10 -8 0 -15 -4 -15 -10z"/>
    <path d="M16475 9060 c3 -5 8 -10 11 -10 2 0 4 5 4 10 0 6 -5 10 -11 10 -5 0 -7 -4 -4 -10z"/>
    <path d="M10911 9644 c0 -11 3 -14 6 -6 3 7 2 16 -1 19 -3 4 -6 -2 -5 -13z"/>
    <path d="M17050 9621 c0 -14 28 -33 40 -26 20 12 10 35 -15 35 -14 0 -25 -4 -25 -9z"/>
    <path d="M17120 9541 c0 -12 6 -21 16 -21 9 0 14 7 12 17 -5 25 -28 28 -28 4z"/>
    <path d="M17030 9400 c0 -5 5 -10 11 -10 5 0 7 5 4 10 -3 6 -8 10 -11 10 -2 0 -4 -4 -4 -10z"/>
    <path d="M17340 9335 c0 -8 7 -15 15 -15 8 0 15 7 15 15 0 8 -7 15 -15 15 -8 0 -15 -7 -15 -15z"/>
    <path d="M17411 8944 c0 -11 3 -14 6 -6 3 7 2 16 -1 19 -3 4 -6 -2 -5 -13z"/>
    <path d="M17362 8900 c0 -14 2 -19 5 -12 2 6 2 18 0 25 -3 6 -5 1 -5 -13z"/>
    <path d="M1841 8564 c0 -11 3 -14 6 -6 3 7 2 16 -1 19 -3 4 -6 -2 -5 -13z"/>
    <path d="M1330 8197 c0 -7 -10 -17 -22 -22 -13 -6 -24 -18 -26 -27 -3 -14 3 -18 26 -18 28 0 29 2 29 40 0 22 -1 40 -3 40 -2 0 -4 -6 -4 -13z"/>
    <path d="M1225 8140 c-3 -5 3 -10 14 -10 12 0 21 5 21 10 0 6 -6 10 -14 10 -8 0 -18 -4 -21 -10z"/>
    <path d="M1225 8050 c4 -6 11 -8 16 -5 14 9 11 15 -7 15 -8 0 -12 -5 -9 -10z"/>
    <path d="M1270 8050 c0 -5 7 -10 16 -10 8 0 12 5 9 10 -3 6 -10 10 -16 10 -5 0 -9 -4 -9 -10z"/>
    <path d="M1167 8023 c-13 -13 -7 -51 10 -57 23 -9 44 14 37 42 -6 21 -33 30 -47 15z"/>
    <path d="M1163 7936 c-52 -14 -57 -19 -48 -47 l8 -23 13 27 c12 22 18 25 38 17 25 -9 46 3 46 27 0 15 1 15 -57 -1z"/>
    <path d="M1172 7868 c-7 -7 -12 -18 -12 -25 0 -17 -37 -17 -43 0 -4 7 -6 8 -6 1 -1 -6 6 -17 14 -24 8 -7 15 -19 15 -26 0 -32 27 -10 39 31 14 49 12 62 -7 43z"/>
    <path d="M1005 7824 c11 -3 25 -13 32 -21 7 -9 19 -13 29 -9 26 10 4 26 -42 31 -21 2 -30 2 -19 -1z"/>
    <path d="M888 7733 c7 -3 16 -2 19 1 4 3 -2 6 -13 5 -11 0 -14 -3 -6 -6z"/>
    <path d="M5150 8213 c0 -9 29 -33 39 -33 17 0 1 28 -20 33 -10 3 -19 3 -19 0z"/>
    <path d="M5340 8051 c0 -11 5 -23 10 -26 6 -4 10 5 10 19 0 14 -4 26 -10 26 -5 0 -10 -9 -10 -19z"/>
    <path d="M710 7601 c0 -6 5 -13 10 -16 6 -3 10 1 10 9 0 9 -4 16 -10 16 -5 0 -10 -4 -10 -9z"/>
    <path d="M600 7521 c0 -18 18 -21 30 -6 10 13 9 15 -9 15 -11 0 -21 -4 -21 -9z"/>
    <path d="M822 7332 c-20 -13 -4 -72 19 -72 11 0 19 6 19 14 0 7 7 19 15 26 29 24 -19 53 -53 32z"/>
    <path d="M630 7320 c0 -5 7 -10 16 -10 8 0 12 5 9 10 -3 6 -10 10 -16 10 -5 0 -9 -4 -9 -10z"/>
    <path d="M3687 6788 c-6 -40 -2 -45 18 -28 18 15 17 51 -1 57 -7 2 -14 -11 -17 -29z"/>
    <path d="M5603 5029 c-7 -7 -13 -19 -13 -25 0 -7 -7 -20 -16 -28 -14 -15 -14 -18 4 -41 l19 -24 12 37 c16 48 12 99 -6 81z"/>
    <path d="M5552 4895 c0 -16 2 -22 5 -12 2 9 2 23 0 30 -3 6 -5 -1 -5 -18z"/>
    <path d="M16180 4096 c0 -16 5 -26 15 -26 8 0 15 6 15 14 0 7 -7 19 -15 26 -13 11 -15 8 -15 -14z"/>
    <path d="M16230 3962 c0 -5 7 -13 16 -16 10 -4 14 -1 12 6 -5 15 -28 23 -28 10z"/>
    <path d="M16305 3670 c3 -5 8 -10 11 -10 2 0 4 5 4 10 0 6 -5 10 -11 10 -5 0 -7 -4 -4 -10z"/>
    <path d="M16454 3116 c-4 -10 -2 -22 4 -28 8 -8 13 -7 18 6 4 10 2 22 -4 28 -8 8 -13 7 -18 -6z"/>
    <path d="M3380 3575 c0 -8 7 -15 15 -15 9 0 12 6 9 15 -4 8 -10 15 -15 15 -5 0 -9 -7 -9 -15z"/>
    <path d="M3357 3293 c-16 -15 -7 -61 12 -66 23 -6 31 0 31 23 0 20 -34 53 -43 43z"/>
    <path d="M19610 1105 c0 -8 5 -15 10 -15 6 0 10 7 10 15 0 8 -4 15 -10 15 -5 0 -10 -7 -10 -15z"/>
    <path d="M7726 11864 c-9 -22 -8 -24 9 -24 8 0 15 9 15 20 0 24 -15 27 -24 4z"/>
    <path d="M7915 11870 c3 -5 8 -10 11 -10 2 0 4 5 4 10 0 6 -5 10 -11 10 -5 0 -7 -4 -4 -10z"/>
    <path d="M7648 11843 c-26 -6 -23 -43 2 -43 22 0 38 27 24 39 -5 4 -17 6 -26 4z"/>
    <path d="M7627 11767 c-8 -21 8 -39 29 -35 27 5 25 42 -2 46 -12 2 -24 -3 -27 -11z"/>
    <path d="M7655 11701 c-7 -12 12 -24 25 -16 11 7 4 25 -10 25 -5 0 -11 -4 -15 -9z"/>
    <path d="M7625 11630 c-4 -6 -3 -16 3 -22 13 -13 23 4 13 21 -7 10 -10 10 -16 1z"/>
    <path d="M7700 11610 c-9 -16 -8 -20 5 -20 8 0 15 2 15 4 0 2 3 11 6 20 9 23 -13 20 -26 -4z"/>
    <path d="M7715 11560 c-8 -14 3 -30 21 -30 8 0 14 9 14 20 0 21 -24 28 -35 10z"/>
    <path d="M5 4480 c-3 -5 1 -10 10 -10 9 0 13 5 10 10 -3 6 -8 10 -10 10 -2 0 -7 -4 -10 -10z"/>
    <path d="M15330 710 c0 -5 5 -10 10 -10 6 0 10 5 10 10 0 6 -4 10 -10 10 -5 0 -10 -4 -10 -10z"/>
    <path d="M15381 594 c0 -11 3 -14 6 -6 3 7 2 16 -1 19 -3 4 -6 -2 -5 -13z"/>
    <path d="M15766 184 c-3 -8 -3 -20 0 -28 3 -8 -4 -20 -15 -28 -11 -8 -25 -26 -32 -41 -7 -15 -16 -27 -21 -27 -4 0 -8 -7 -8 -15 0 -21 12 -18 39 10 47 51 81 98 81 115 0 22 -37 33 -44 14z"/>
    <path d="M15413 103 c-16 -6 -17 -33 -3 -33 11 0 26 28 19 34 -2 2 -10 1 -16 -1z"/>
    <path d="M14450 41 c-16 -31 -12 -41 15 -41 25 0 31 13 19 44 -8 21 -21 20 -34 -3z"/>
    <path d="M15408 3 c6 -2 18 -2 25 0 6 3 1 5 -13 5 -14 0 -19 -2 -12 -5z"/>
  </g>
</svg>