<?xml version="1.0" encoding="utf-8"?>
<svg viewBox="0 0 2000 1200" preserveAspectRatio="none" xmlns="http://www.w3.org/2000/svg">
  <g transform="matrix(0.10000000149011612, 0, 0, -0.10000000149011612, 0, 1200)" fill="#000000" stroke="none" style="opacity: 0.1;">
    <path d="M9262 10250 c-23 -5 -47 -12 -52 -15 -6 -4 -10 -70 -10 -158 0 -84 -5 -208 -10 -277 -5 -69 -10 -246 -11 -395 -2 -148 -5 -281 -7 -294 l-5 -24 -236 5 c-130 2 -272 2 -316 -1 l-80 -6 130 -7 c72 -5 171 -8 220 -8 50 0 134 -3 188 -7 l99 -6 -6 -76 c-3 -42 -8 -166 -11 -276 -7 -243 -14 -343 -27 -351 -5 -3 -4 -11 2 -19 6 -7 10 -35 8 -62 l-3 -48 -358 0 c-196 0 -464 3 -595 7 -130 3 -349 7 -487 9 -137 1 -329 6 -425 10 -96 4 -404 15 -685 23 -280 9 -600 20 -710 26 -110 5 -292 12 -405 15 -113 3 -358 12 -545 20 -187 8 -437 17 -555 20 -118 3 -372 12 -565 20 -192 8 -510 19 -705 25 -195 5 -386 12 -425 15 -38 3 -261 12 -495 20 -234 8 -535 19 -670 25 -135 5 -337 12 -450 15 -113 3 -297 10 -410 15 -422 19 -650 23 -650 13 0 -7 50 -13 133 -17 163 -7 859 -33 1262 -46 165 -6 415 -15 555 -20 140 -5 413 -14 605 -20 193 -5 373 -12 400 -15 28 -2 131 -7 230 -10 599 -18 811 -26 900 -30 55 -3 240 -9 410 -15 326 -11 735 -27 995 -40 201 -10 -291 -4 -785 10 -192 5 -609 14 -925 20 -316 6 -663 12 -770 15 -107 3 -283 7 -390 10 -107 3 -341 7 -520 10 -528 8 -886 15 -1035 20 -77 2 -268 7 -425 10 -157 3 -365 8 -462 11 -116 4 -178 2 -178 -4 0 -14 176 -20 925 -32 363 -6 737 -12 830 -15 94 -3 413 -10 710 -15 702 -12 1026 -19 1430 -30 182 -5 393 -9 470 -9 205 -1 1147 -19 1615 -31 223 -6 638 -15 922 -20 285 -5 528 -12 540 -15 13 -2 250 -12 528 -21 278 -8 651 -21 830 -27 l325 -12 -1 -273 c-1 -185 -5 -277 -13 -285 -8 -8 -107 -8 -369 1 -196 7 -573 19 -837 27 -264 8 -592 19 -730 24 -137 6 -374 13 -525 16 -151 3 -381 10 -510 15 -129 5 -392 14 -585 20 -445 12 -648 19 -755 25 -47 3 -314 12 -595 20 -280 8 -618 19 -750 24 -132 6 -337 13 -455 16 -118 3 -332 10 -475 15 -143 6 -417 14 -610 20 -395 11 -605 18 -715 25 -155 10 -1192 36 -1197 31 -4 -3 -4 -8 -1 -11 7 -7 418 -23 893 -35 220 -5 425 -12 455 -15 30 -3 294 -12 585 -20 292 -8 647 -19 790 -25 143 -5 422 -14 620 -20 198 -5 392 -12 430 -15 39 -3 259 -9 490 -15 231 -5 472 -12 535 -15 159 -7 948 -33 1215 -40 121 -3 258 -8 305 -11 47 -3 317 -11 600 -19 283 -8 711 -21 950 -29 239 -8 614 -20 832 -27 218 -7 402 -15 408 -19 8 -5 9 -32 4 -90 l-7 -83 -318 7 c-174 4 -346 9 -381 11 -75 4 -266 11 -913 30 -1015 31 -1179 36 -1465 46 -162 5 -513 16 -780 24 -267 8 -615 19 -775 25 -159 6 -443 15 -630 20 -187 5 -461 14 -610 20 -148 5 -443 14 -655 20 -212 5 -502 14 -645 20 -143 5 -420 14 -615 20 -195 6 -465 14 -600 20 -518 19 -720 23 -720 12 0 -13 118 -20 460 -27 151 -3 307 -8 345 -10 97 -6 604 -23 1070 -35 215 -6 435 -13 490 -15 55 -3 354 -12 665 -20 311 -8 592 -17 625 -20 33 -3 328 -12 655 -20 327 -8 642 -17 700 -20 58 -3 332 -12 610 -20 278 -8 568 -17 645 -20 333 -12 462 -16 845 -25 223 -5 443 -12 490 -15 47 -3 236 -10 420 -15 708 -20 1070 -34 1081 -41 7 -4 9 -14 6 -22 -5 -12 -72 -14 -489 -12 -265 2 -760 8 -1098 14 -338 6 -923 16 -1300 22 -377 5 -732 12 -790 14 -58 2 -346 7 -640 10 -294 3 -722 10 -950 15 -228 5 -577 12 -775 15 -1276 19 -1725 26 -1840 30 -71 2 -323 6 -560 9 -237 4 -483 9 -548 12 -102 4 -117 3 -117 -10 0 -14 25 -16 198 -16 190 0 1077 -13 1622 -24 434 -9 849 -16 1310 -21 239 -3 568 -7 730 -10 162 -3 448 -7 635 -10 187 -3 430 -8 540 -10 110 -3 551 -9 980 -15 429 -5 886 -12 1015 -15 129 -2 406 -7 615 -10 615 -9 1304 -25 1387 -31 l78 -6 -5 -87 c-8 -154 -15 -409 -20 -746 -3 -181 -10 -510 -15 -730 -6 -220 -10 -413 -10 -429 l0 -28 -197 6 c-234 7 -657 14 -1318 21 -911 10 -1971 25 -2210 30 -132 3 -548 10 -925 15 -377 5 -1072 16 -1545 25 -473 8 -1186 19 -1585 25 -399 6 -850 13 -1003 17 -254 6 -277 5 -277 -10 0 -15 14 -17 108 -18 59 0 166 -2 237 -4 72 -2 515 -9 985 -15 470 -6 1107 -15 1415 -21 308 -5 862 -14 1230 -19 369 -5 789 -11 935 -14 643 -13 1189 -21 2550 -37 514 -6 1084 -14 1265 -17 l330 -7 0 -50 c-2 -141 -17 -661 -21 -666 -2 -3 -5 -161 -8 -350 -3 -189 -8 -392 -12 -451 l-7 -108 -46 -1 c-80 -1 -95 -18 -16 -18 79 -1 79 -17 0 -25 -127 -15 -160 -25 -84 -27 24 -1 55 -5 69 -9 23 -7 22 -8 -10 -10 -19 -1 -46 -4 -60 -6 -62 -11 -277 -20 -295 -13 -11 4 -14 8 -7 8 6 1 12 6 12 12 0 8 -13 9 -42 4 -81 -16 -315 2 -343 25 -21 18 -15 52 10 58 11 2 66 6 123 9 99 5 128 16 77 29 -13 3 -67 4 -120 2 l-95 -3 0 43 c0 47 -13 58 -55 48 -21 -5 -25 -12 -25 -42 0 -49 0 -49 -200 -45 -88 2 -109 -1 -148 -22 -19 -10 -41 -16 -49 -12 -11 4 7 17 54 39 39 19 73 42 77 52 3 11 9 25 12 32 10 21 -22 13 -88 -22 -81 -44 -126 -53 -166 -32 -35 18 -72 21 -72 6 0 -5 6 -10 14 -10 7 0 19 -7 26 -15 10 -12 7 -15 -14 -21 -30 -7 -47 2 -39 21 3 9 -1 15 -11 15 -8 0 -20 9 -26 20 -6 11 -15 20 -20 20 -8 0 -35 -43 -43 -67 -1 -5 -9 -7 -17 -5 -38 9 -94 7 -108 -4 -12 -9 -5 -12 39 -18 l54 -8 -29 -15 c-23 -12 -30 -12 -36 -2 -10 15 -30 20 -86 24 -23 2 -51 6 -62 9 -12 4 -34 1 -49 -7 -15 -8 -49 -18 -76 -21 -29 -5 -55 -16 -68 -29 -16 -18 -23 -19 -37 -9 -32 23 -42 24 -78 7 -20 -9 -37 -15 -39 -13 -2 1 -1 15 2 31 4 22 10 27 37 27 55 0 79 30 25 32 -57 1 -118 20 -124 39 -6 18 -7 18 -45 -1 -21 -11 -41 -24 -45 -29 -3 -6 -26 -10 -51 -9 -30 0 -41 4 -33 9 10 6 8 9 -9 9 -19 0 -22 4 -17 20 6 18 4 19 -20 10 -33 -13 -82 -13 -90 0 -3 5 -12 7 -20 4 -8 -3 -30 0 -50 6 -42 14 -98 5 -74 -11 10 -7 5 -8 -18 -4 -33 7 -42 -2 -23 -21 8 -8 6 -15 -4 -23 -11 -9 -22 -9 -53 4 -32 14 -47 14 -101 4 -49 -9 -69 -9 -92 1 -20 8 -51 10 -92 6 -35 -4 -98 -7 -140 -8 -43 0 -78 -4 -78 -9 0 -5 -13 -9 -30 -9 -19 0 -30 5 -30 14 0 22 -30 24 -87 4 -76 -26 -151 -35 -202 -25 -40 8 -46 7 -69 -17 l-27 -26 60 -2 c33 -1 80 -1 105 0 32 1 41 -1 30 -8 -13 -8 -12 -10 4 -10 11 0 26 -7 35 -15 9 -8 27 -24 41 -36 l25 -20 -94 6 c-66 5 -96 3 -101 -5 -9 -14 -126 -31 -167 -24 -17 3 -37 3 -43 -1 -6 -4 -50 -7 -98 -7 -104 0 -132 -5 -126 -23 4 -10 -12 -15 -63 -19 -181 -14 -911 -9 -1283 10 -52 2 -201 9 -330 15 -208 9 -240 13 -277 32 -41 20 -43 20 -78 4 -44 -21 -62 -21 -99 -2 -15 8 -36 16 -45 16 -9 1 0 4 19 8 21 3 35 12 35 20 0 8 -16 20 -35 27 -33 12 -30 13 55 14 132 3 173 17 60 20 -88 3 -114 4 -145 9 -8 1 1 11 22 21 20 11 40 24 43 30 10 16 -42 12 -83 -6 -30 -14 -65 -16 -177 -15 -77 2 -143 7 -146 12 -9 15 -72 22 -101 10 -32 -12 -36 -38 -11 -56 16 -12 14 -12 -10 -8 -14 3 -38 2 -52 -1 -22 -6 -24 -9 -15 -27 10 -18 9 -19 -9 -8 -15 10 -25 10 -46 1 -14 -7 -35 -12 -46 -12 -12 0 -23 -8 -26 -19 -3 -12 -17 -21 -40 -24 -49 -8 -59 1 -32 29 27 29 19 42 -17 26 -14 -7 -37 -9 -51 -6 -18 5 -30 2 -37 -8 -15 -20 -54 -40 -65 -33 -10 5 -9 12 4 59 10 35 -4 46 -61 46 -45 0 -70 -19 -60 -47 8 -21 -10 -33 -49 -33 -23 0 -27 3 -15 10 12 8 12 10 -5 11 -19 0 -18 1 3 11 25 13 30 38 6 38 -11 0 -14 6 -9 20 6 19 2 20 -60 20 -64 0 -65 0 -59 24 4 17 0 27 -13 35 -17 10 -17 10 0 11 11 0 15 5 11 11 -3 6 -15 9 -25 6 -11 -3 -19 -1 -19 4 0 6 -6 9 -12 8 -7 -1 -33 -1 -57 0 -36 1 -41 3 -32 15 9 10 8 15 -4 20 -8 3 -15 2 -15 -3 0 -13 -79 -22 -99 -12 -22 12 -91 -7 -91 -25 0 -14 -29 -28 -31 -14 -2 15 -5 23 -19 55 -7 17 -13 33 -12 38 1 4 -2 7 -8 7 -5 0 -10 -5 -10 -11 0 -21 -53 -69 -66 -58 -7 6 -16 4 -24 -6 -7 -8 -23 -15 -37 -15 -13 0 -22 -4 -18 -9 3 -6 -11 -13 -31 -17 -39 -7 -53 -26 -34 -49 7 -8 8 -15 2 -15 -5 0 -15 7 -22 15 -7 8 -20 15 -29 15 -9 0 -31 16 -50 35 -19 19 -43 35 -55 35 -30 0 -43 11 -47 40 -3 21 -9 25 -34 22 -67 -5 -100 -3 -103 6 -2 6 -18 8 -38 5 -19 -3 -34 -1 -34 4 0 17 -77 36 -118 29 -31 -4 -41 -2 -46 9 -4 12 -10 14 -25 5 -27 -14 -41 -13 -41 5 0 21 -88 21 -96 1 -9 -24 -34 -27 -56 -6 -21 20 -21 20 -2 34 33 25 1 42 -68 38 l-28 -2 0 -657 0 -658 353 -2 c349 -1 464 -5 812 -23 202 -11 371 -17 685 -25 318 -9 314 -9 318 -34 2 -12 -2 -21 -10 -22 -7 -1 1 -4 18 -8 52 -13 94 -2 105 27 l10 25 242 -7 c628 -17 1159 -36 1167 -41 5 -3 87 -6 182 -8 95 -1 176 -5 179 -10 3 -4 17 -4 30 1 15 6 63 4 134 -5 133 -18 165 -19 174 -6 9 14 51 23 48 11 -1 -6 4 -13 12 -16 8 -3 11 0 7 7 -4 6 -3 11 3 11 5 0 11 -5 13 -11 2 -5 22 -13 45 -16 30 -4 40 -9 36 -19 -4 -11 7 -14 46 -14 37 0 53 4 58 15 5 14 33 15 203 13 109 -2 193 -6 188 -9 -6 -4 -8 -11 -4 -17 12 -20 -21 -29 -114 -30 -84 0 -91 1 -63 11 37 14 43 30 13 35 -21 4 -74 -31 -63 -42 3 -3 -27 -7 -68 -7 -41 -1 -87 -4 -104 -8 -62 -14 99 -20 383 -14 155 3 281 7 280 8 -2 2 -52 5 -111 8 -59 4 -112 9 -117 12 -16 10 -11 22 11 28 12 3 18 10 14 16 -4 8 31 11 112 10 127 0 168 5 195 28 11 10 18 11 23 4 6 -11 53 -5 69 10 5 4 5 20 1 36 -6 25 -8 26 -17 10 -6 -12 -6 -22 1 -31 8 -10 4 -12 -19 -8 -17 2 -30 10 -30 17 0 15 -27 28 -41 19 -5 -3 -9 -14 -9 -25 0 -28 -25 -23 -39 7 -10 22 -14 24 -27 13 -8 -7 -13 -18 -10 -26 3 -8 -2 -13 -14 -13 -13 0 -20 7 -20 18 0 19 -18 42 -32 42 -4 0 -8 -5 -8 -11 0 -6 -7 -17 -15 -25 -12 -12 -15 -12 -15 -2 0 7 -9 19 -21 26 -18 12 -21 11 -26 -7 -7 -26 -15 -26 -38 -1 -10 11 -15 28 -12 40 3 13 0 20 -8 20 -8 0 -12 -8 -10 -19 6 -31 -20 -46 -51 -32 -22 10 -28 9 -40 -6 -13 -17 -15 -17 -34 5 -10 13 -16 30 -13 37 3 8 0 15 -6 15 -6 0 -11 -8 -11 -18 0 -11 -8 -26 -18 -35 -17 -16 -19 -16 -31 7 -9 17 -10 29 -3 42 8 15 27 18 133 21 175 5 544 4 669 -2 58 -3 219 -7 359 -10 176 -3 257 -8 261 -16 6 -8 9 -8 14 0 5 8 43 10 126 5 126 -6 149 -2 129 22 -16 19 -4 44 21 44 11 0 20 5 20 10 0 9 -135 17 -165 10 -5 -1 -68 -3 -140 -4 l-130 -1 -3 37 -3 36 58 0 c32 -1 64 -6 71 -11 7 -6 17 -6 25 0 6 5 64 8 127 7 93 -3 876 -14 930 -14 8 0 40 0 70 -1 30 -1 64 -1 75 -1 153 5 206 4 218 -7 11 -9 17 -8 28 5 11 13 28 15 104 10 49 -3 235 -8 412 -9 178 -2 326 -7 330 -10 3 -4 -3 -7 -14 -7 -23 0 -36 -22 -27 -45 3 -8 -10 -34 -31 -60 -21 -25 -36 -48 -33 -50 2 -2 42 -6 89 -9 116 -6 120 -7 74 -17 -22 -4 -72 -8 -112 -8 -39 -1 -74 -5 -77 -10 -8 -13 153 -24 409 -27 127 -2 439 -7 695 -11 576 -10 1414 -13 1578 -6 100 4 125 9 130 21 3 9 0 18 -6 20 -40 13 13 20 211 28 240 9 417 10 1060 2 399 -4 523 1 344 16 -118 9 -1124 25 -1664 26 -407 0 -463 2 -471 16 -5 8 -44 24 -88 35 -80 21 -111 37 -97 49 4 4 166 4 358 -1 193 -4 557 -10 810 -14 l460 -6 63 -35 c34 -19 69 -34 76 -34 7 0 35 16 61 37 l48 36 236 -7 c130 -4 499 -9 821 -12 322 -2 684 -8 805 -14 121 -5 346 -12 500 -15 154 -4 291 -8 305 -10 14 -2 88 -7 165 -10 77 -3 280 -12 450 -20 171 -8 414 -17 540 -20 461 -12 1322 -36 1395 -40 41 -2 163 -7 270 -10 107 -3 249 -13 315 -22 66 -9 149 -17 185 -18 154 -4 1199 -19 1234 -17 22 1 45 -3 52 -8 7 -6 58 -10 125 -8 l114 3 3 903 c1 599 -1 902 -8 902 -5 0 -10 11 -10 24 0 14 -5 28 -11 31 -6 5 -3 13 10 22 13 8 18 19 14 26 -4 7 -8 16 -8 22 0 5 -8 11 -17 13 -12 2 -18 -3 -18 -14 0 -16 -2 -15 -16 4 -8 12 -24 22 -35 22 -24 0 -25 19 -1 22 42 3 102 27 102 40 0 5 -10 18 -21 27 -19 15 -20 21 -10 40 11 21 11 22 -11 19 -21 -3 -58 -31 -58 -43 0 -3 11 -3 24 1 28 7 46 -13 19 -22 -10 -3 -31 -12 -48 -19 -16 -7 -60 -16 -97 -20 -37 -3 -71 -11 -74 -16 -3 -6 -12 -8 -20 -5 -7 3 -16 1 -19 -4 -8 -13 -62 -13 -70 0 -10 16 -75 12 -75 -4 0 -19 -22 -35 -60 -43 -24 -4 -31 -3 -26 5 12 20 -32 13 -46 -7 -12 -17 -59 -29 -143 -36 -11 -1 -31 -5 -45 -9 -14 -4 -36 -8 -50 -10 -14 -2 -32 -6 -40 -9 -8 -3 -37 -8 -65 -11 -27 -3 -120 -14 -205 -26 -85 -11 -206 -23 -268 -27 -99 -5 -115 -4 -132 12 -11 10 -20 14 -20 10 0 -5 -6 0 -14 10 -14 19 -15 19 -34 1 -21 -18 -59 -18 -55 1 2 11 -23 10 -63 -2 -13 -4 -27 -1 -37 9 -22 22 -63 21 -69 -2 -3 -10 -22 -26 -42 -36 -20 -9 -36 -21 -36 -26 0 -14 -51 -12 -80 3 -17 9 -24 20 -23 35 2 19 -2 22 -33 22 -20 0 -48 9 -63 19 -15 11 -39 23 -54 26 -15 4 -41 20 -58 36 -17 16 -37 29 -43 29 -7 0 -25 14 -41 30 -28 29 -71 42 -63 18 4 -11 41 -37 78 -55 8 -4 21 -13 30 -20 8 -7 24 -19 35 -27 20 -15 20 -15 -2 -16 -16 0 -23 -6 -23 -20 0 -29 -22 -25 -58 10 -18 17 -43 30 -57 30 -34 0 -61 -29 -57 -61 4 -32 -23 -42 -71 -27 -17 6 -37 12 -43 14 -13 3 -37 129 -32 166 3 22 6 23 98 23 52 0 100 3 105 7 6 3 89 9 185 13 96 3 227 10 290 15 63 5 162 12 220 15 58 4 123 8 145 10 22 2 92 7 155 10 63 3 159 10 213 16 53 5 128 10 165 9 80 -1 352 23 368 33 6 3 25 2 42 -2 17 -5 48 -5 69 -1 21 5 88 11 148 14 374 19 365 18 365 41 0 13 -15 14 -92 10 -51 -3 -122 -8 -158 -12 -36 -4 -69 -6 -73 -5 -4 1 -58 -2 -120 -8 -62 -6 -175 -15 -252 -20 -211 -14 -411 -29 -495 -36 -229 -18 -482 -33 -665 -39 -149 -5 -224 -9 -340 -21 -16 -1 -77 -3 -134 -5 -99 -2 -104 -1 -125 24 -11 13 -45 37 -73 52 -57 30 -77 53 -87 103 -9 37 -34 47 -102 39 -51 -5 -55 -1 -16 15 l27 12 -28 4 c-36 5 -76 -26 -55 -43 8 -5 17 -18 21 -28 5 -14 0 -21 -26 -30 l-32 -12 35 -5 35 -5 9 -73 c4 -40 6 -75 4 -77 -2 -3 -67 -7 -144 -10 -76 -2 -176 -9 -222 -14 -46 -6 -95 -8 -110 -5 -16 3 -35 -1 -47 -10 -18 -14 -13 -15 65 -11 246 14 341 14 347 -1 4 -10 22 -14 63 -14 56 0 58 -1 64 -31 14 -73 1 -153 -17 -105 -3 8 -16 16 -29 18 -13 2 -23 10 -23 18 -1 14 -6 14 -47 3 -12 -4 -18 0 -18 11 0 18 -35 22 -45 6 -4 -6 -1 -17 5 -25 7 -8 10 -24 7 -35 -4 -15 0 -20 14 -20 10 0 19 -7 19 -15 0 -8 5 -15 12 -15 40 0 -76 -29 -202 -50 -421 -72 -800 -130 -847 -130 -22 0 -33 5 -33 14 0 8 -5 18 -10 21 -15 9 -60 -22 -60 -40 0 -11 -11 -15 -39 -15 -22 0 -52 -5 -68 -11 -28 -11 -46 -14 -113 -21 -34 -3 -35 -2 -38 36 -4 43 -24 65 -59 66 -37 0 -63 -30 -63 -72 0 -53 -1 -54 -214 -78 -49 -6 -106 -14 -125 -19 -20 -6 -90 -15 -156 -21 -66 -7 -123 -14 -128 -17 -7 -4 -111 -16 -367 -43 -159 -16 -269 -30 -336 -41 -34 -6 -75 -10 -90 -8 -16 1 -36 0 -44 -3 -23 -8 -170 -27 -315 -40 -126 -11 -135 -10 -330 21 -110 17 -225 36 -255 43 -30 6 -84 15 -120 20 -36 5 -110 16 -165 24 -55 9 -114 16 -131 17 -44 3 -65 23 -58 54 9 32 -8 43 -68 43 -27 0 -48 4 -48 8 0 19 139 42 264 44 166 3 190 6 175 24 -9 11 -55 14 -224 14 l-212 0 -7 68 c-10 101 -15 112 -42 112 -14 0 -36 -7 -49 -16 -23 -15 -25 -23 -25 -91 l0 -74 -137 4 c-76 2 -165 9 -197 16 -41 8 -62 9 -70 1 -5 -5 -24 -10 -40 -10 l-31 0 25 -20 c14 -11 36 -20 48 -20 13 0 37 -8 53 -17 27 -16 31 -16 58 0 46 27 232 11 277 -24 5 -4 8 -24 6 -43 -4 -33 -5 -34 -65 -45 -153 -26 -401 -62 -547 -80 -127 -16 -310 -41 -415 -56 -55 -8 -134 -17 -175 -20 -41 -4 -106 -11 -145 -16 -38 -5 -113 -13 -165 -19 -52 -5 -174 -18 -271 -29 -297 -35 -560 -61 -622 -61 -75 0 -193 18 -234 36 -17 8 -38 14 -48 14 -13 0 -16 8 -13 38 3 31 7 37 28 40 26 3 105 20 130 29 18 6 -82 35 -123 35 -24 1 -28 4 -25 27 5 41 39 51 173 51 107 0 159 9 144 24 -3 3 -73 8 -155 12 l-150 7 4 28 c4 24 9 29 33 29 38 0 37 19 -1 27 -16 3 -30 11 -30 18 0 21 -29 26 -59 10 -33 -16 -41 -33 -41 -81 l0 -34 -60 0 -60 0 -1 33 c-1 17 -2 86 -4 152 -1 66 -5 176 -9 245 -21 399 -27 543 -27 700 l-1 175 34 3 c18 2 400 -1 848 -7 1767 -24 3051 -39 3975 -46 391 -3 778 -8 860 -10 165 -6 1507 -21 2540 -30 363 -3 813 -7 1000 -10 1244 -18 1135 -19 1135 4 0 21 -3 21 -372 22 -205 0 -452 2 -548 4 -96 2 -578 6 -1070 9 -492 4 -1068 8 -1280 11 -212 3 -614 7 -895 10 -1061 11 -1421 15 -1790 20 -209 3 -677 7 -1040 10 -1331 11 -3381 41 -3395 50 -5 3 -9 87 -10 188 0 100 -2 207 -5 237 -2 30 -6 186 -9 345 -14 671 -17 800 -23 997 l-6 206 31 16 c38 20 200 21 597 5 149 -6 342 -12 430 -13 173 -2 619 -18 1165 -41 355 -15 487 -18 479 -11 -7 8 -168 15 -649 31 -250 9 -588 22 -750 30 -162 8 -482 22 -710 31 -228 9 -419 20 -424 24 -4 5 2 13 14 20 20 11 165 8 675 -15 61 -2 236 -7 390 -10 284 -6 923 -27 1405 -45 146 -6 375 -13 510 -15 352 -6 1008 -24 1340 -35 157 -6 463 -15 680 -20 456 -11 725 -19 860 -25 133 -6 384 -14 660 -20 129 -3 294 -8 365 -10 286 -11 744 -24 990 -30 143 -3 368 -10 500 -15 132 -5 411 -14 620 -20 209 -5 432 -12 495 -15 63 -2 198 -7 300 -10 102 -3 249 -8 328 -11 124 -5 142 -3 142 10 0 13 -12 16 -57 16 -32 0 -166 5 -298 10 -132 5 -519 17 -860 25 -342 8 -648 17 -680 20 -33 2 -172 7 -310 10 -389 9 -581 14 -1135 30 -283 8 -686 20 -895 25 -209 5 -609 16 -890 24 -280 9 -697 20 -925 26 -228 6 -451 13 -495 15 -44 2 -190 7 -325 11 -135 3 -267 7 -295 9 -59 4 -643 21 -1250 35 -236 6 -468 12 -515 15 -139 7 -381 15 -815 25 -484 12 -506 14 -524 42 -9 14 -10 23 -2 31 6 6 11 37 11 70 l0 58 68 -5 c37 -3 238 -11 447 -16 1037 -28 1232 -34 1470 -45 61 -3 313 -10 560 -15 248 -6 477 -12 510 -15 33 -3 245 -9 470 -15 226 -5 532 -14 680 -20 149 -5 446 -14 660 -20 215 -5 453 -12 530 -15 554 -20 689 -25 915 -30 140 -3 428 -12 640 -20 212 -8 498 -17 635 -20 138 -3 426 -12 640 -20 215 -8 512 -17 660 -20 149 -3 311 -8 360 -10 50 -2 248 -9 440 -15 193 -5 401 -12 463 -14 84 -2 112 0 112 9 0 16 -97 25 -290 25 -85 0 -254 5 -375 10 -121 5 -407 14 -635 20 -228 6 -548 15 -710 20 -162 5 -470 14 -685 20 -214 5 -507 14 -650 20 -143 5 -447 14 -675 20 -228 6 -545 15 -705 20 -274 10 -470 16 -1345 40 -201 5 -419 12 -485 15 -66 3 -298 10 -515 15 -217 5 -431 12 -475 15 -44 3 -332 12 -640 20 -308 8 -578 17 -600 20 -22 3 -242 9 -490 15 -523 11 -752 18 -887 26 l-98 6 -1 77 c-3 139 -4 148 -18 164 -7 10 -9 17 -3 17 5 0 12 8 16 18 3 9 11 25 18 34 18 25 -2 41 -54 42 -37 1 -51 -5 -96 -43 -29 -24 -55 -41 -59 -37 -4 4 -9 62 -11 130 l-4 123 37 23 37 23 286 -12 c158 -6 440 -16 627 -21 187 -5 372 -12 410 -15 39 -3 306 -12 595 -20 289 -8 631 -19 760 -25 129 -5 372 -14 540 -20 168 -6 330 -12 360 -15 30 -2 179 -7 330 -10 333 -7 735 -21 1005 -35 190 -10 493 -21 1415 -55 223 -8 486 -19 585 -24 99 -6 248 -13 330 -16 272 -10 408 -16 595 -25 102 -6 319 -15 483 -20 164 -6 322 -13 350 -15 29 -3 223 -12 432 -20 209 -8 531 -21 715 -29 528 -23 581 -25 577 -12 -4 12 -79 16 -617 36 -184 7 -357 14 -385 15 -43 3 -790 31 -992 37 -40 2 -73 6 -73 10 0 6 69 5 300 -6 63 -3 221 -8 350 -11 129 -3 402 -12 605 -20 734 -28 815 -29 815 -11 0 14 -18 16 -137 16 -125 0 -484 11 -813 25 -69 2 -285 9 -480 15 -195 6 -524 17 -730 25 -206 8 -476 17 -600 20 -217 5 -429 12 -650 20 -58 2 -256 9 -440 15 -184 6 -517 17 -740 25 -223 8 -583 19 -800 25 -217 6 -487 14 -600 20 -113 5 -270 12 -350 15 -80 3 -298 12 -485 20 -187 9 -515 22 -730 30 -536 20 -1082 42 -1380 55 -176 8 -260 8 -285 1 -41 -13 -186 -13 -215 -1 -13 6 22 9 100 11 l120 2 -130 8 c-71 4 -209 12 -305 18 -96 5 -270 13 -387 17 -116 4 -217 10 -224 15 -10 6 -10 11 -1 22 9 11 10 22 2 42 -14 36 -6 45 38 46 l37 1 -33 8 c-18 4 -34 9 -36 11 -2 2 -6 80 -9 173 -4 117 -9 171 -18 177 -9 5 -6 17 10 45 22 36 22 39 5 51 -39 29 -81 16 -147 -44 l-62 -58 -5 115 c-3 63 -3 121 -1 127 2 7 35 36 74 65 l71 51 166 -2 c91 -1 271 -8 400 -16 251 -16 564 -19 405 -4 -75 7 -190 14 -690 42 l-210 12 -1 35 c-1 19 -4 42 -8 51 -4 10 -3 20 2 23 14 8 3 337 -11 354 -8 10 -7 16 4 23 8 5 10 9 5 9 -4 0 -1 11 7 24 21 31 6 46 -46 46 -34 0 -46 -7 -105 -65 -36 -36 -69 -65 -73 -65 -6 0 -26 661 -21 703 1 10 -7 21 -21 26 -36 14 -159 20 -205 11z m389 -822 c1 -133 9 -241 19 -253 12 -15 -2 -29 -40 -40 -14 -4 -39 -18 -57 -31 -60 -45 -63 -39 -63 105 l0 128 61 77 c33 42 65 76 70 76 5 0 9 -28 10 -62z m2 -875 c10 -154 9 -211 -5 -219 -7 -5 -4 -10 10 -15 12 -5 22 -12 22 -17 0 -7 -54 -34 -142 -70 -12 -5 -9 86 3 94 7 4 8 9 1 13 -11 7 -15 38 -13 133 1 65 2 67 54 127 28 34 55 61 58 61 3 0 9 -48 12 -107z m522 -393 l170 -9 -205 5 c-113 2 -254 5 -315 5 -74 1 -95 4 -65 8 49 7 152 4 415 -9z m838 -37 c-24 -2 -62 -2 -85 0 -24 2 -5 4 42 4 47 0 66 -2 43 -4z m6320 -240 c-7 -2 -19 -2 -25 0 -7 3 -2 5 12 5 14 0 19 -2 13 -5z m100 0 c-7 -2 -19 -2 -25 0 -7 3 -2 5 12 5 14 0 19 -2 13 -5z m280 -10 c-23 -2 -64 -2 -90 0 -26 2 -7 3 42 3 50 0 71 -1 48 -3z m90 0 c-7 -2 -21 -2 -30 0 -10 3 -4 5 12 5 17 0 24 -2 18 -5z m-8152 -95 c1 -13 2 -61 3 -108 l1 -85 -34 -3 c-65 -6 -76 1 -79 60 -2 51 0 55 45 106 26 28 51 52 55 52 5 0 9 -10 9 -22z m3 -234 c3 -8 3 -33 0 -55 -4 -25 -2 -44 6 -54 16 -19 7 -29 -41 -44 -59 -19 -66 -11 -68 85 l-2 84 49 0 c36 0 52 -4 56 -16z m7818 -3008 l48 -33 -48 -6 c-26 -3 -48 -4 -50 -2 -8 8 -13 75 -6 75 5 0 30 -15 56 -34z m2415 -142 c-3 -3 -12 -4 -19 -1 -8 3 -5 6 6 6 11 1 17 -2 13 -5z m-227 -59 c0 -12 -29 -3 -34 10 -4 13 -2 14 14 5 11 -6 20 -13 20 -15z m294 8 c-1 -7 -2 -23 -3 -35 -1 -19 -3 -20 -11 -8 -10 16 -13 16 -70 20 l-35 1 40 18 c46 20 80 22 79 4z m-424 -3 c0 -5 -11 -17 -24 -26 -14 -8 -26 -25 -28 -37 -5 -35 -35 -32 -58 5 -11 18 -20 36 -20 39 0 7 74 26 108 28 12 0 22 -3 22 -9z m-202 -52 c-28 -20 -37 -51 -18 -63 17 -10 11 -35 -7 -35 -15 0 -16 2 -3 10 11 7 4 10 -26 10 -37 0 -42 -3 -47 -26 -6 -31 15 -42 48 -24 13 7 35 10 50 8 32 -6 40 5 19 26 -14 15 -14 16 0 16 9 0 16 -4 16 -10 0 -5 3 -9 8 -8 4 1 17 -1 30 -6 16 -5 22 -15 22 -37 0 -24 4 -29 25 -29 16 0 25 -6 25 -16 0 -8 4 -12 10 -9 14 9 50 -13 50 -31 0 -12 -7 -14 -32 -9 -18 4 -40 13 -49 21 -8 8 -23 14 -33 14 -10 0 -14 5 -10 12 4 7 3 8 -4 4 -16 -10 3 -46 23 -46 22 0 18 -18 -5 -25 -13 -4 -31 0 -46 10 -14 9 -33 15 -42 14 -31 -4 -105 24 -110 43 -2 10 -8 18 -13 18 -5 0 -9 11 -9 25 0 14 -4 25 -10 25 -5 0 -10 6 -10 13 0 10 -16 14 -55 15 -43 0 -55 -3 -55 -15 0 -11 -6 -14 -22 -9 -13 3 -29 6 -35 6 -7 0 -13 6 -13 14 0 10 7 12 22 8 17 -4 20 -2 15 12 -4 10 -7 22 -7 28 0 5 -12 0 -26 -11 -23 -18 -28 -19 -41 -6 -17 17 -39 10 -25 -8 5 -7 13 -23 17 -37 l7 -25 -16 22 c-19 25 -37 22 -75 -11 -13 -12 -21 -15 -17 -8 5 9 -9 12 -59 12 -36 0 -64 -4 -61 -9 3 -4 17 -6 31 -4 18 4 30 -1 44 -18 16 -20 22 -22 42 -12 26 13 129 14 129 2 0 -4 10 -6 23 -3 12 2 36 6 52 8 43 6 66 17 59 27 -3 5 6 9 21 9 22 0 24 -3 15 -19 -14 -27 -13 -31 11 -31 11 0 17 -4 14 -10 -4 -6 -1 -17 5 -25 10 -12 9 -15 -8 -15 -16 0 -21 -7 -24 -32 -3 -30 -6 -33 -41 -36 -36 -3 -37 -2 -31 22 5 20 2 26 -10 26 -9 0 -16 -7 -16 -15 0 -18 -14 -19 -41 -4 -11 5 -17 15 -13 22 5 9 4 9 -6 0 -9 -8 -20 -9 -37 -2 -14 5 -29 7 -34 4 -5 -3 -17 -1 -28 5 -16 8 -22 7 -29 -7 -5 -9 -18 -17 -28 -18 -11 -1 -32 -7 -47 -14 -30 -12 -47 -8 -47 11 0 6 9 8 21 5 16 -4 18 -3 8 9 -6 7 -8 25 -5 38 8 32 -11 38 -49 15 -18 -11 -39 -16 -55 -13 -19 4 -22 3 -10 -5 12 -8 5 -11 -27 -11 -24 0 -43 5 -43 11 0 5 -6 7 -12 3 -8 -5 -8 -1 1 10 11 13 23 16 48 11 20 -4 33 -2 33 5 0 5 -6 10 -12 10 -8 0 -4 7 6 15 16 12 17 18 8 27 -9 9 -15 9 -24 0 -18 -18 -28 -15 -28 8 0 12 -9 24 -22 29 -18 7 -15 9 26 20 31 8 53 8 65 2 10 -6 21 -7 25 -3 7 7 84 18 196 27 36 3 81 10 100 15 19 5 53 12 75 15 22 3 65 10 95 15 63 11 98 15 155 17 l40 2 -27 -21z m278 -5 c-7 -7 -26 7 -26 19 0 6 6 6 15 -2 9 -7 13 -15 11 -17z m352 -21 c2 -7 -3 -12 -12 -12 -9 0 -16 7 -16 16 0 17 22 14 28 -4z m-71 -28 c-3 -3 -12 -4 -19 -1 -8 3 -5 6 6 6 11 1 17 -2 13 -5z m-1369 -23 c10 -6 10 -10 -3 -21 -8 -7 -15 -19 -15 -26 0 -15 -10 -17 -35 -8 -13 5 -14 9 -4 15 10 6 10 11 0 22 -10 13 -9 16 6 20 29 7 37 7 51 -2z m955 -38 c-7 -2 -19 -2 -25 0 -7 3 -2 5 12 5 14 0 19 -2 13 -5z m207 -7 c0 -3 -4 -8 -10 -11 -5 -3 -10 -1 -10 4 0 6 5 11 10 11 6 0 10 -2 10 -4z m40 -26 c0 -5 -4 -10 -10 -10 -5 0 -10 5 -10 10 0 6 5 10 10 10 6 0 10 -4 10 -10z m-2602 -8 c8 8 20 7 42 -2 26 -11 29 -15 16 -22 -9 -5 -29 -7 -46 -5 -16 3 -31 0 -33 -6 -5 -16 -176 -11 -194 6 -9 10 14 16 97 25 41 4 82 5 91 1 9 -5 21 -3 27 3z m-458 -60 c-1 -21 -22 -35 -59 -38 -22 -1 -45 -5 -50 -8 -5 -4 -46 -11 -91 -17 -69 -8 -86 -7 -116 7 -50 24 -31 32 108 47 147 16 208 19 208 9z m458 -17 c29 -9 52 -20 52 -26 0 -6 -4 -7 -10 -4 -5 3 -18 2 -27 -4 -12 -6 -30 -4 -58 7 -51 19 -53 21 -35 32 19 12 18 13 78 -5z m-894 -52 c5 -13 0 -14 -26 -9 -39 8 -47 15 -29 25 18 11 48 2 55 -16z m376 -13 c0 -5 -4 -10 -10 -10 -5 0 -10 5 -10 10 0 6 5 10 10 10 6 0 10 -4 10 -10z m437 4 c-3 -3 -12 -4 -19 -1 -8 3 -5 6 6 6 11 1 17 -2 13 -5z m2403 -4 c0 -5 -2 -10 -4 -10 -3 0 -8 5 -11 10 -3 6 -1 10 4 10 6 0 11 -4 11 -10z m-3495 -10 c-3 -5 -13 -10 -21 -10 -8 0 -14 -4 -14 -8 0 -10 -145 -10 -155 0 -4 3 20 9 52 13 32 4 63 8 68 10 24 8 76 4 70 -5z m-329 -80 c4 -64 -2 -78 -30 -73 -30 6 -44 -23 -15 -32 10 -4 17 -11 14 -16 -4 -5 -67 -7 -151 -4 -80 3 -151 2 -157 -2 -6 -4 -29 -6 -50 -4 -26 2 -37 -1 -33 -8 5 -7 -3 -11 -21 -11 -15 0 -86 -4 -158 -10 -533 -39 -917 -47 -1087 -24 -100 14 -70 19 327 59 77 8 154 17 170 20 30 5 135 17 313 35 53 6 124 15 157 20 33 5 89 11 125 14 36 2 83 8 105 14 44 11 136 25 324 47 69 8 127 17 130 20 3 3 12 4 20 3 10 -2 16 -18 17 -48z m1621 34 c-3 -3 -12 -4 -19 -1 -8 3 -5 6 6 6 11 1 17 -2 13 -5z m-7488 -49 c2 -2 0 -24 -3 -49 -6 -36 -14 -49 -39 -65 l-32 -21 32 6 32 6 -6 -38 c-3 -22 -6 -40 -7 -41 -1 0 -17 -4 -37 -8 l-36 -7 -2 117 -1 117 47 -7 c27 -4 50 -8 52 -10z m2791 -18 c0 -9 -10 -12 -30 -9 -44 6 -47 22 -6 22 23 0 36 -5 36 -13z m-95 -33 c39 -9 75 -18 81 -19 13 -4 27 -77 18 -99 -3 -9 -16 -16 -28 -16 -17 0 -18 -2 -6 -10 12 -8 9 -10 -11 -10 -15 0 -32 7 -39 15 -7 8 -28 15 -47 15 -20 0 -32 4 -28 10 3 6 15 10 26 10 10 0 19 4 19 9 0 5 10 12 23 16 19 7 17 9 -15 12 -20 2 -53 -3 -73 -11 -50 -21 -115 -21 -115 0 0 8 -4 13 -10 9 -5 -3 -32 -7 -61 -9 -34 -2 -56 -9 -64 -19 -14 -20 -36 -23 -32 -4 3 15 -52 22 -66 8 -6 -6 -21 -11 -34 -11 -14 0 -21 -5 -18 -12 7 -18 -41 -68 -64 -68 -10 0 -35 -7 -54 -15 -20 -8 -50 -15 -67 -15 -17 0 -41 -7 -55 -16 -19 -12 -28 -13 -45 -4 -29 16 -105 3 -90 -15 8 -10 -2 -14 -47 -19 -142 -15 -736 -39 -985 -40 -75 -1 -135 -3 -133 -6 2 -3 -4 -6 -13 -6 -9 -1 -144 -4 -300 -8 l-283 -6 3 31 c2 26 8 33 28 34 237 19 336 14 458 -21 13 -4 22 -2 22 5 0 6 -8 11 -17 11 -10 0 -38 7 -63 15 l-45 15 55 -5 c30 -3 62 -6 70 -6 8 0 67 -7 130 -15 120 -15 156 -17 149 -9 -3 2 -32 7 -64 10 -33 3 -78 10 -100 15 -22 5 -57 12 -79 15 -54 9 -39 17 51 26 135 14 427 47 509 58 44 6 129 17 189 25 61 8 160 20 220 26 61 6 128 15 150 20 22 4 74 11 115 15 75 7 441 56 600 80 94 14 132 13 235 -11z m615 -21 c8 -4 24 -5 34 -4 10 2 46 -2 80 -8 34 -5 115 -17 181 -26 124 -17 236 -37 232 -42 -6 -5 -301 -33 -356 -33 -33 0 -62 -4 -65 -9 -3 -4 -59 -11 -124 -15 -65 -4 -172 -13 -237 -21 -66 -7 -121 -13 -122 -12 -1 1 -3 36 -5 77 l-3 75 35 -4 c32 -3 181 13 260 29 34 6 59 4 90 -7z m-11594 -108 c-11 -8 -31 -15 -45 -14 -26 1 -26 1 4 14 42 19 66 19 41 0z m12349 4 c41 -6 75 -15 75 -20 0 -5 -33 -9 -72 -9 -69 0 -146 -3 -423 -14 -153 -7 -108 8 75 23 74 7 155 16 180 20 65 12 81 12 165 0z m1153 -21 c-5 -15 -69 -22 -105 -14 -45 12 -22 26 43 26 48 0 65 -3 62 -12z m-224 -22 c16 -25 15 -26 -9 -32 -22 -6 -219 9 -270 20 -11 2 -36 5 -55 6 l-35 2 30 9 c17 5 44 7 60 5 17 -3 48 -2 70 3 22 4 74 8 116 9 72 3 77 1 93 -22z m576 4 c0 -5 -2 -10 -4 -10 -3 0 -8 5 -11 10 -3 6 -1 10 4 10 6 0 11 -4 11 -10z m-3130 -9 c0 -13 -28 -21 -47 -14 -15 6 -14 8 7 14 36 10 40 10 40 0z m1075 -1 c-3 -5 -27 -9 -53 -9 -46 2 -46 2 -12 9 53 11 72 11 65 0z m-1280 -10 c3 -5 -1 -10 -9 -10 -9 0 -16 5 -16 10 0 6 4 10 9 10 6 0 13 -4 16 -10z m2095 -2 c0 16 47 15 185 -3 61 -8 146 -20 190 -25 44 -6 87 -13 95 -17 14 -5 26 -7 97 -11 17 -1 39 -9 48 -18 8 -9 24 -14 35 -11 10 3 27 -2 37 -10 16 -13 13 -14 -29 -9 -49 6 -58 0 -36 -22 7 -7 10 -12 7 -13 -2 0 -14 -2 -26 -5 -13 -2 -23 1 -23 7 0 7 -12 9 -32 5 -75 -14 -137 -6 -159 20 -10 12 -17 11 -49 -7 -36 -20 -40 -21 -70 -5 -38 18 -86 21 -95 5 -4 -6 -31 -9 -61 -8 -47 2 -57 -1 -70 -20 -11 -15 -23 -21 -35 -18 -11 3 -17 1 -13 -4 9 -15 -16 -10 -33 7 -14 14 -18 12 -40 -21 -13 -19 -29 -33 -35 -29 -17 11 -87 13 -94 3 -3 -5 -16 -6 -30 -3 -18 5 -24 2 -24 -10 0 -9 -6 -16 -12 -16 -20 0 -41 17 -35 26 3 5 -7 9 -21 10 -15 0 -46 3 -70 6 -26 4 -47 2 -55 -5 -15 -15 -85 -15 -112 -1 -22 12 -60 12 -88 0 -10 -5 -30 -3 -48 4 -23 10 -39 10 -69 1 -28 -8 -45 -8 -67 0 -15 6 -39 13 -53 15 -124 16 -141 16 -156 3 -11 -9 -37 -13 -79 -10 -35 1 -73 -2 -85 -9 -16 -8 -25 -8 -35 0 -14 11 -51 10 -72 -3 -6 -4 -14 -3 -18 3 -11 18 -25 11 -26 -12 -1 -18 -3 -16 -12 10 -12 38 -4 51 19 32 13 -12 17 -11 24 0 12 19 3 30 -25 30 -27 0 -29 3 -39 44 -7 28 -6 29 24 23 22 -5 32 -3 37 8 4 13 28 15 147 14 78 -2 148 1 155 5 7 5 43 10 80 11 186 7 377 17 381 20 3 2 127 7 275 11 149 3 272 8 274 10 3 3 8 -1 13 -8 6 -10 8 -10 8 0z m-7505 -7 c-16 -15 -48 -17 -52 -3 -3 8 6 12 28 12 20 0 29 -4 24 -9z m918 3 c3 -3 -3 -15 -13 -27 -23 -24 -35 -18 -25 12 6 20 25 28 38 15z m442 -15 c111 -1 140 -8 140 -34 0 -16 -6 -19 -28 -17 -17 2 -26 -1 -23 -7 7 -10 -52 -27 -61 -17 -4 3 2 6 12 6 15 0 16 3 7 12 -8 8 -37 12 -73 11 -70 -1 -151 29 -111 41 12 4 22 12 22 19 0 8 3 8 12 -1 7 -7 47 -12 103 -13z m1756 -9 c26 -14 24 -32 -3 -28 -13 2 -24 11 -26 21 -4 20 2 21 29 7z m-2941 -9 c0 -10 -24 -21 -46 -21 -8 0 -14 4 -14 9 0 8 10 12 53 20 4 0 7 -3 7 -8z m350 2 c0 -5 -5 -15 -10 -23 -8 -12 -10 -11 -10 8 0 12 5 22 10 22 6 0 10 -3 10 -7z m-1350 -33 c28 -17 1 -22 -42 -7 l-43 15 35 1 c19 0 42 -3 50 -9z m-166 -9 c12 -5 15 -10 9 -14 -6 -4 -24 0 -39 8 -23 12 -25 15 -9 14 11 0 29 -4 39 -8z m3419 -8 c-7 -2 -19 -2 -25 0 -7 3 -2 5 12 5 14 0 19 -2 13 -5z m5921 -15 c20 -9 23 -14 15 -25 -6 -7 -24 -13 -39 -13 -33 0 -90 19 -90 30 0 19 78 25 114 8z m-5214 -15 c0 -10 -5 -25 -10 -33 -8 -13 -11 -13 -26 2 -9 9 -14 24 -11 32 9 22 47 21 47 -1z m-2178 -18 c9 -12 0 -25 -18 -25 -8 0 -14 7 -14 15 0 9 -9 15 -25 15 -17 0 -23 -4 -19 -14 3 -8 -3 -19 -15 -25 -24 -13 -88 -14 -96 -2 -5 10 6 15 62 26 18 4 36 11 39 16 7 13 76 8 86 -6z m493 8 c38 -6 37 -7 -39 -20 -51 -9 -83 -10 -89 -4 -6 6 3 13 24 19 43 13 55 13 104 5z m228 0 c-7 -2 -21 -2 -30 0 -10 3 -4 5 12 5 17 0 24 -2 18 -5z m3247 -13 c-8 -5 -22 -10 -31 -10 -9 0 -22 -15 -30 -32 -17 -43 -16 -43 -34 -24 -9 9 -26 16 -38 15 -20 -1 -20 -2 3 -9 23 -7 24 -8 3 -9 -12 -1 -26 5 -30 13 -4 8 -30 17 -58 21 -58 9 -53 -4 8 -22 35 -9 5 -11 -178 -10 -124 1 -242 6 -270 13 l-50 11 47 8 c63 10 308 12 308 3 0 -5 19 -8 43 -7 36 1 38 2 17 9 -33 11 -32 11 90 25 137 16 220 18 200 5z m2657 -46 c-9 -9 -28 6 -21 18 4 6 10 6 17 -1 6 -6 8 -13 4 -17z m-5809 1 c-3 -3 -47 -8 -98 -12 -68 -4 -91 -3 -86 6 5 7 41 11 98 11 50 0 89 -2 86 -5z m2327 -15 c-38 -4 -106 -7 -150 -7 l-80 0 65 7 c36 4 103 7 150 7 l85 0 -70 -7z m-4400 -10 c3 -5 1 -10 -4 -10 -6 0 -11 5 -11 10 0 6 2 10 4 10 3 0 8 -4 11 -10z m-2748 -6 c-3 -3 -12 -4 -19 -1 -8 3 -5 6 6 6 11 1 17 -2 13 -5z m116 -1 c-13 -2 -35 -2 -50 0 -16 2 -5 4 22 4 28 0 40 -2 28 -4z m335 -10 c-10 -2 -26 -2 -35 0 -10 3 -2 5 17 5 19 0 27 -2 18 -5z m6687 -6 c132 0 260 -3 285 -7 42 -6 39 -15 -4 -10 -14 1 -17 -3 -12 -15 6 -16 2 -17 -31 -11 -54 10 -173 7 -195 -5 -14 -8 -26 -6 -43 5 -28 18 -64 20 -115 6 -19 -5 -66 -11 -103 -14 -37 -3 -75 -10 -85 -14 -23 -12 -136 0 -156 17 -22 18 -20 30 4 24 14 -4 20 0 20 10 0 19 55 25 140 18 30 -3 163 -5 295 -4z m-6582 -4 c-7 -2 -19 -2 -25 0 -7 3 -2 5 12 5 14 0 19 -2 13 -5z m5987 -3 c0 -5 -7 -10 -16 -10 -8 0 -12 5 -9 10 3 6 10 10 16 10 5 0 9 -4 9 -10z m5210 0 c0 -5 -5 -10 -11 -10 -5 0 -7 5 -4 10 3 6 8 10 11 10 2 0 4 -4 4 -10z m-10712 -7 c-10 -2 -26 -2 -35 0 -10 3 -2 5 17 5 19 0 27 -2 18 -5z m470 -7 c9 -9 -331 -5 -353 4 -11 4 63 6 164 4 101 -1 186 -5 189 -8z m6140 7 c-16 -2 -40 -2 -55 0 -16 2 -3 4 27 4 30 0 43 -2 28 -4z m172 0 c0 -5 -4 -14 -9 -22 -7 -11 -17 -11 -60 -1 -28 6 -48 16 -45 21 6 11 114 12 114 2z m-7565 -24 c11 0 45 3 75 5 30 2 73 1 95 -3 l40 -8 -55 -7 c-85 -11 -202 -4 -208 13 -4 11 0 12 14 6 11 -4 28 -7 39 -6z m764 -8 c57 -1 102 -4 99 -7 -10 -9 -425 -5 -450 6 -16 6 19 8 112 5 74 -2 182 -4 239 -4z m9401 -181 c75 -23 80 -24 80 -10 0 6 -8 10 -17 10 -11 0 -14 3 -7 10 5 5 24 6 49 0 22 -5 59 -6 82 -3 29 4 43 2 43 -6 0 -7 -25 -11 -71 -11 -43 0 -68 -4 -64 -10 8 -13 -40 -24 -73 -15 -15 4 -46 8 -69 9 -22 0 -45 4 -49 9 -4 4 -25 7 -46 7 -21 0 -38 5 -38 11 0 6 10 9 23 6 12 -3 31 -1 42 3 30 13 44 12 115 -10z m-9220 -310 c0 -5 -7 -10 -15 -10 -8 0 -15 5 -15 10 0 6 7 10 15 10 8 0 15 -4 15 -10z m-150 -87 c-1 -16 -39 -53 -54 -53 -11 0 -16 9 -16 28 0 18 3 23 9 14 6 -10 10 -10 21 3 13 15 40 21 40 8z m75 -13 c-3 -5 -13 -10 -21 -10 -8 0 -14 5 -14 10 0 6 9 10 21 10 11 0 17 -4 14 -10z m75 0 c0 -5 -10 -10 -22 -10 -19 0 -20 2 -8 10 19 13 30 13 30 0z m100 0 c0 -10 -41 -30 -62 -30 -6 0 -3 9 7 20 19 21 55 27 55 10z m74 1 c9 -14 -21 -33 -45 -29 -22 3 -22 4 -5 21 19 18 42 22 50 8z m74 1 c9 -6 5 -12 -13 -20 -33 -15 -35 -15 -35 2 0 8 6 17 13 19 18 8 21 8 35 -1z m77 -2 c8 -14 -21 -24 -42 -15 -17 7 -16 8 2 15 27 12 33 12 40 0z m68 -7 c-7 -2 -19 -2 -25 0 -7 3 -2 5 12 5 14 0 19 -2 13 -5z m72 -3 c-3 -5 -10 -10 -16 -10 -5 0 -9 5 -9 10 0 6 7 10 16 10 8 0 12 -4 9 -10z m85 0 c-20 -13 -40 -13 -40 0 0 6 12 10 28 10 21 0 24 -2 12 -10z m64 -5 c-4 -10 0 -15 15 -15 12 0 24 7 27 15 4 8 15 15 25 15 10 0 19 -7 19 -15 0 -8 4 -15 9 -15 5 0 14 7 21 15 14 17 50 20 50 5 0 -6 18 -7 47 -3 37 5 44 3 38 -7 -6 -10 -3 -11 16 -6 50 16 82 19 75 7 -4 -6 -3 -11 3 -11 5 0 13 5 16 10 9 14 52 12 58 -2 3 -10 9 -10 26 0 27 15 48 15 53 0 4 -10 11 -10 33 0 25 11 30 11 37 -3 8 -14 11 -14 31 0 12 8 36 15 54 15 26 0 34 -5 39 -25 3 -13 4 -29 2 -36 -5 -14 -256 -23 -272 -10 -6 5 -30 11 -53 14 -32 4 -49 1 -65 -13 -20 -15 -46 -18 -176 -19 -117 -1 -153 1 -156 11 -3 7 -7 30 -11 51 -5 35 -4 37 19 37 18 0 24 -4 20 -15z m-716 -134 c20 -12 -19 -56 -43 -47 -13 5 -15 10 -7 18 6 6 8 17 5 24 -6 16 24 19 45 5z m80 1 c16 -11 6 -39 -19 -53 -26 -14 -38 -4 -37 31 1 24 6 30 22 30 12 0 27 -4 34 -8z m79 0 c18 -11 -8 -57 -32 -57 -15 0 -20 7 -20 25 0 14 1 28 3 33 4 9 34 9 49 -1z m80 -8 c7 -20 -8 -48 -29 -52 -11 -2 -17 7 -20 28 -3 16 -2 32 0 35 12 11 43 4 49 -11z"/>
    <path d="M19450 4320 c0 -5 7 -7 15 -4 8 4 15 8 15 10 0 2 -7 4 -15 4 -8 0 -15 -4 -15 -10z"/>
    <path d="M19090 4235 c0 -2 9 -9 20 -15 16 -9 18 -8 14 5 -5 13 -34 22 -34 10z"/>
    <path d="M19145 4220 c3 -5 13 -10 21 -10 8 0 12 5 9 10 -3 6 -13 10 -21 10 -8 0 -12 -4 -9 -10z"/>
    <path d="M19343 4125 c4 -5 0 -19 -9 -33 -11 -16 -12 -23 -3 -20 18 6 31 46 16 54 -7 4 -9 3 -4 -1z"/>
    <path d="M18850 4090 c0 -16 2 -30 4 -30 3 0 14 14 26 30 l21 30 -25 0 c-22 0 -26 -4 -26 -30z"/>
    <path d="M19090 4070 c0 -5 5 -10 11 -10 5 0 7 5 4 10 -3 6 -8 10 -11 10 -2 0 -4 -4 -4 -10z"/>
    <path d="M15338 3883 c7 -3 16 -2 19 1 4 3 -2 6 -13 5 -11 0 -14 -3 -6 -6z"/>
    <path d="M14663 3783 c-7 -2 -13 -9 -13 -14 0 -14 24 -11 46 6 19 14 19 14 -1 14 -11 0 -26 -3 -32 -6z"/>
    <path d="M11888 3713 c7 -3 16 -2 19 1 4 3 -2 6 -13 5 -11 0 -14 -3 -6 -6z"/>
    <path d="M14184 3629 c-3 -6 -1 -16 4 -21 8 -8 11 -5 9 11 -1 24 -3 25 -13 10z"/>
    <path d="M13089 3589 c16 -6 28 -6 35 1 7 7 -1 10 -24 9 -33 0 -34 -1 -11 -10z"/>
    <path d="M14615 3570 c-9 -15 4 -30 20 -23 8 3 15 9 15 13 0 12 -29 20 -35 10z"/>
    <path d="M13395 3560 c-8 -13 15 -13 35 0 12 8 11 10 -7 10 -12 0 -25 -4 -28 -10z"/>
    <path d="M13532 3559 c6 -17 57 -24 71 -10 8 8 5 11 -8 11 -11 0 -31 3 -44 7 -18 4 -23 2 -19 -8z"/>
    <path d="M13725 3540 c3 -5 18 -10 33 -10 21 0 24 2 12 10 -20 13 -53 13 -45 0z"/>
    <path d="M13925 3530 c-14 -6 -15 -9 -5 -10 99 -8 128 -11 145 -14 11 -3 27 -1 35 4 12 8 12 10 -5 11 -60 3 -109 8 -128 12 -12 3 -31 1 -42 -3z"/>
    <path d="M0 9302 c0 -12 142 -19 490 -27 135 -3 407 -10 605 -15 198 -5 581 -14 850 -20 270 -6 551 -13 625 -15 363 -13 446 -15 720 -20 537 -10 1244 -26 1305 -30 97 -6 436 -7 443 -1 3 3 -16 6 -43 6 -61 0 -719 17 -1210 31 -203 5 -561 14 -795 19 -545 12 -1174 29 -1315 35 -61 2 -369 9 -685 15 -545 9 -664 13 -892 26 -61 3 -98 2 -98 -4z"/>
    <path d="M5060 9170 c0 -9 854 -28 885 -20 11 3 -122 8 -295 12 -173 3 -377 8 -452 11 -76 2 -138 1 -138 -3z"/>
    <path d="M5983 9153 c9 -2 25 -2 35 0 9 3 1 5 -18 5 -19 0 -27 -2 -17 -5z"/>
    <path d="M6135 9145 c6 -2 71 -5 145 -8 74 -2 124 -1 110 4 -24 7 -276 11 -255 4z"/>
    <path d="M6444 9138 c-3 -5 41 -7 98 -7 113 2 107 6 -15 11 -43 2 -81 0 -83 -4z"/>
    <path d="M6853 9123 c70 -2 184 -2 255 0 70 1 12 3 -128 3 -140 0 -198 -2 -127 -3z"/>
    <path d="M7378 9113 c57 -2 147 -2 200 0 53 1 7 3 -103 3 -110 0 -154 -2 -97 -3z"/>
    <path d="M7823 9103 c15 -2 39 -2 55 0 15 2 2 4 -28 4 -30 0 -43 -2 -27 -4z"/>
    <path d="M7960 9100 c33 -11 179 -12 162 -2 -7 5 -52 9 -100 10 -58 0 -79 -2 -62 -8z"/>
    <path d="M8198 9093 c7 -3 16 -2 19 1 4 3 -2 6 -13 5 -11 0 -14 -3 -6 -6z"/>
    <path d="M8470 9090 c-12 -8 -10 -10 8 -10 13 0 20 4 17 10 -7 12 -6 12 -25 0z"/>
    <path d="M10920 9000 c306 -16 385 -18 360 -11 -14 5 -136 11 -270 14 -194 4 -213 3 -90 -3z"/>
    <path d="M11312 8986 c7 -9 53 -12 523 -32 576 -26 590 -26 585 -21 -6 6 -335 24 -655 37 -132 5 -289 13 -350 16 -60 4 -107 4 -103 0z"/>
    <path d="M12503 8923 c37 -2 97 -2 135 0 37 2 6 3 -68 3 -74 0 -105 -1 -67 -3z"/>
    <path d="M12750 8915 c150 -16 1050 -53 1056 -44 2 3 -94 9 -214 13 -119 4 -278 11 -352 16 -132 9 -559 22 -490 15z"/>
    <path d="M13840 8867 c6 -6 125 -13 462 -27 139 -6 274 -12 300 -14 26 -2 46 0 43 4 -3 4 -105 11 -227 15 -123 4 -231 9 -241 11 -33 6 -342 17 -337 11z"/>
    <path d="M14671 8826 c2 -2 51 -6 109 -9 71 -4 92 -3 65 3 -39 9 -182 14 -174 6z"/>
    <path d="M14955 8810 c73 -8 291 -13 284 -6 -2 2 -83 6 -179 8 -103 3 -146 2 -105 -2z"/>
    <path d="M15400 8789 c85 -4 183 -10 218 -12 34 -2 62 -1 62 3 0 9 -214 20 -339 19 -84 -2 -77 -3 59 -10z"/>
    <path d="M15728 8773 c23 -2 59 -2 80 0 20 2 1 4 -43 4 -44 0 -61 -2 -37 -4z"/>
    <path d="M16105 8755 c433 -21 723 -35 950 -45 121 -6 402 -19 625 -30 223 -10 511 -24 640 -30 129 -5 316 -15 415 -20 99 -6 333 -17 520 -25 187 -8 374 -17 415 -19 286 -18 330 -19 330 -7 0 6 -16 11 -37 11 -37 0 -470 20 -868 39 -110 6 -274 13 -365 16 -91 3 -178 8 -195 10 -16 2 -201 11 -410 20 -209 8 -456 20 -550 25 -93 5 -294 14 -445 20 -151 5 -313 12 -360 15 -224 14 -726 35 -815 33 -64 -1 -10 -5 150 -13z"/>
    <path d="M1 8685 c4 -3 130 -10 280 -15 151 -6 306 -12 344 -14 39 -3 160 -8 270 -11 110 -3 252 -7 315 -10 341 -14 464 -17 459 -10 -4 3 -182 13 -395 21 -214 7 -499 18 -634 23 -451 18 -645 23 -639 16z"/>
    <path d="M1710 8621 c40 -11 781 -36 850 -29 30 3 16 5 -40 6 -47 2 -188 7 -315 12 -459 18 -531 20 -495 11z"/>
    <path d="M2661 8586 c7 -7 179 -9 186 -2 3 3 -38 6 -92 6 -54 0 -96 -2 -94 -4z"/>
    <path d="M2918 8573 c18 -2 45 -2 60 0 15 2 0 4 -33 4 -33 0 -45 -2 -27 -4z"/>
    <path d="M3158 8563 c39 -2 105 -2 145 0 39 1 7 3 -73 3 -80 0 -112 -2 -72 -3z"/>
    <path d="M3488 8553 c23 -2 61 -2 85 0 23 2 4 4 -43 4 -47 0 -66 -2 -42 -4z"/>
    <path d="M3753 8543 c15 -2 39 -2 55 0 15 2 2 4 -28 4 -30 0 -43 -2 -27 -4z"/>
    <path d="M4293 8523 c26 -2 68 -2 95 0 26 2 4 3 -48 3 -52 0 -74 -1 -47 -3z"/>
    <path d="M4498 8513 c6 -2 18 -2 25 0 6 3 1 5 -13 5 -14 0 -19 -2 -12 -5z"/>
    <path d="M4563 8513 c9 -2 23 -2 30 0 6 3 -1 5 -18 5 -16 0 -22 -2 -12 -5z"/>
    <path d="M4663 8513 c15 -2 39 -2 55 0 15 2 2 4 -28 4 -30 0 -43 -2 -27 -4z"/>
    <path d="M5058 8493 c6 -2 18 -2 25 0 6 3 1 5 -13 5 -14 0 -19 -2 -12 -5z"/>
    <path d="M5263 8483 c9 -2 23 -2 30 0 6 3 -1 5 -18 5 -16 0 -22 -2 -12 -5z"/>
    <path d="M5418 8483 c17 -2 47 -2 65 0 17 2 3 4 -33 4 -36 0 -50 -2 -32 -4z"/>
    <path d="M5668 8473 c28 -2 76 -2 105 0 28 2 5 3 -53 3 -58 0 -81 -1 -52 -3z"/>
    <path d="M6128 8453 c6 -2 18 -2 25 0 6 3 1 5 -13 5 -14 0 -19 -2 -12 -5z"/>
    <path d="M6463 8443 c20 -2 54 -2 75 0 20 2 3 4 -38 4 -41 0 -58 -2 -37 -4z"/>
    <path d="M6668 8433 c23 -2 61 -2 85 0 23 2 4 4 -43 4 -47 0 -66 -2 -42 -4z"/>
    <path d="M6833 8433 c9 -2 23 -2 30 0 6 3 -1 5 -18 5 -16 0 -22 -2 -12 -5z"/>
    <path d="M7058 8423 c6 -2 18 -2 25 0 6 3 1 5 -13 5 -14 0 -19 -2 -12 -5z"/>
    <path d="M7498 8403 c34 -2 90 -2 125 0 34 2 6 3 -63 3 -69 0 -97 -1 -62 -3z"/>
    <path d="M7733 8393 c9 -2 25 -2 35 0 9 3 1 5 -18 5 -19 0 -27 -2 -17 -5z"/>
    <path d="M7848 8393 c23 -2 61 -2 85 0 23 2 4 4 -43 4 -47 0 -66 -2 -42 -4z"/>
    <path d="M8063 8383 c9 -2 23 -2 30 0 6 3 -1 5 -18 5 -16 0 -22 -2 -12 -5z"/>
    <path d="M8128 8383 c7 -3 16 -2 19 1 4 3 -2 6 -13 5 -11 0 -14 -3 -6 -6z"/>
    <path d="M8240 8380 c0 -5 21 -10 47 -10 55 0 54 5 -4 14 -27 4 -43 2 -43 -4z"/>
    <path d="M8568 8363 c28 -2 76 -2 105 0 28 2 5 3 -53 3 -58 0 -81 -1 -52 -3z"/>
    <path d="M8738 8363 c6 -2 18 -2 25 0 6 3 1 5 -13 5 -14 0 -19 -2 -12 -5z"/>
    <path d="M8853 8353 c26 -2 67 -2 90 0 23 2 2 3 -48 3 -49 0 -68 -1 -42 -3z"/>
    <path d="M9023 8353 c15 -2 37 -2 50 0 12 2 0 4 -28 4 -27 0 -38 -2 -22 -4z"/>
    <path d="M9863 8323 c9 -2 25 -2 35 0 9 3 1 5 -18 5 -19 0 -27 -2 -17 -5z"/>
    <path d="M9953 8313 c9 -2 23 -2 30 0 6 3 -1 5 -18 5 -16 0 -22 -2 -12 -5z"/>
    <path d="M10063 8313 c26 -2 67 -2 90 0 23 2 2 3 -48 3 -49 0 -68 -1 -42 -3z"/>
    <path d="M10298 8303 c12 -2 30 -2 40 0 9 3 -1 5 -23 4 -22 0 -30 -2 -17 -4z"/>
    <path d="M10843 8283 c15 -2 39 -2 55 0 15 2 2 4 -28 4 -30 0 -43 -2 -27 -4z"/>
    <path d="M11043 8273 c26 -2 67 -2 90 0 23 2 2 3 -48 3 -49 0 -68 -1 -42 -3z"/>
    <path d="M11238 8273 c7 -3 16 -2 19 1 4 3 -2 6 -13 5 -11 0 -14 -3 -6 -6z"/>
    <path d="M11873 8243 c9 -2 23 -2 30 0 6 3 -1 5 -18 5 -16 0 -22 -2 -12 -5z"/>
    <path d="M11958 8243 c6 -2 18 -2 25 0 6 3 1 5 -13 5 -14 0 -19 -2 -12 -5z"/>
    <path d="M12318 8233 c6 -2 18 -2 25 0 6 3 1 5 -13 5 -14 0 -19 -2 -12 -5z"/>
    <path d="M13028 8203 c7 -3 16 -2 19 1 4 3 -2 6 -13 5 -11 0 -14 -3 -6 -6z"/>
    <path d="M13113 8203 c9 -2 25 -2 35 0 9 3 1 5 -18 5 -19 0 -27 -2 -17 -5z"/>
    <path d="M13313 8193 c15 -2 37 -2 50 0 12 2 0 4 -28 4 -27 0 -38 -2 -22 -4z"/>
    <path d="M13403 8193 c9 -2 23 -2 30 0 6 3 -1 5 -18 5 -16 0 -22 -2 -12 -5z"/>
    <path d="M14123 8163 c32 -2 81 -2 110 0 29 2 3 3 -58 3 -60 0 -84 -1 -52 -3z"/>
    <path d="M14338 8153 c7 -3 16 -2 19 1 4 3 -2 6 -13 5 -11 0 -14 -3 -6 -6z"/>
    <path d="M14438 8153 c23 -2 61 -2 85 0 23 2 4 4 -43 4 -47 0 -66 -2 -42 -4z"/>
    <path d="M14598 8153 c6 -2 18 -2 25 0 6 3 1 5 -13 5 -14 0 -19 -2 -12 -5z"/>
    <path d="M15263 8123 c48 -2 125 -2 170 0 45 1 6 3 -88 3 -93 0 -130 -2 -82 -3z"/>
    <path d="M15658 8113 c23 -2 61 -2 85 0 23 2 4 4 -43 4 -47 0 -66 -2 -42 -4z"/>
    <path d="M16025 8100 c3 -5 17 -10 31 -10 13 0 24 5 24 10 0 6 -14 10 -31 10 -17 0 -28 -4 -24 -10z"/>
    <path d="M16363 8083 c9 -2 23 -2 30 0 6 3 -1 5 -18 5 -16 0 -22 -2 -12 -5z"/>
    <path d="M16488 8083 c28 -2 76 -2 105 0 28 2 5 3 -53 3 -58 0 -81 -1 -52 -3z"/>
    <path d="M16738 8073 c39 -2 105 -2 145 0 39 1 7 3 -73 3 -80 0 -112 -2 -72 -3z"/>
    <path d="M17085 8064 c46 -7 125 -8 125 -1 0 4 -33 6 -72 6 -40 -1 -64 -3 -53 -5z"/>
    <path d="M17239 8057 c5 -5 19 -7 32 -5 20 3 19 5 -9 9 -20 3 -29 2 -23 -4z"/>
    <path d="M17323 8053 c15 -2 39 -2 55 0 15 2 2 4 -28 4 -30 0 -43 -2 -27 -4z"/>
    <path d="M17438 8053 c7 -3 16 -2 19 1 4 3 -2 6 -13 5 -11 0 -14 -3 -6 -6z"/>
    <path d="M17670 8040 c299 -13 430 -16 422 -8 -4 3 -144 9 -312 11 -262 5 -277 4 -110 -3z"/>
    <path d="M18195 8019 c50 -5 83 -5 89 1 7 7 -22 10 -79 9 l-90 -2 80 -8z"/>
    <path d="M18345 8020 c-4 -6 11 -10 42 -10 77 -1 908 -29 1148 -40 121 -5 276 -9 345 -8 196 1 74 14 -200 22 -129 3 -298 8 -375 11 -77 3 -297 10 -490 15 -192 6 -375 13 -407 16 -34 3 -59 1 -63 -6z"/>
    <path d="M12273 7214 c5 -5 160 -14 345 -21 615 -21 1206 -42 1302 -48 52 -2 293 -12 535 -20 242 -8 481 -17 530 -20 50 -2 221 -9 380 -14 160 -6 360 -13 445 -16 85 -3 238 -10 340 -15 102 -5 284 -12 405 -15 121 -3 369 -12 550 -20 182 -8 425 -17 540 -20 256 -7 432 -14 505 -21 30 -2 258 -11 505 -19 248 -8 545 -19 660 -24 478 -21 688 -24 683 -10 -4 11 -58 15 -264 21 -142 4 -423 14 -624 22 -201 9 -520 21 -710 26 -190 6 -366 13 -392 15 -26 2 -213 9 -415 14 -202 6 -471 16 -598 21 -126 6 -437 17 -690 25 -253 8 -503 17 -555 20 -114 6 -284 12 -725 25 -181 6 -350 12 -375 15 -50 4 -179 9 -880 30 -261 8 -511 17 -555 20 -44 3 -222 10 -395 15 -173 5 -369 13 -435 16 -68 4 -116 3 -112 -2z"/>
    <path d="M19915 4730 c-3 -5 -1 -10 4 -10 6 0 11 5 11 10 0 6 -2 10 -4 10 -3 0 -8 -4 -11 -10z"/>
    <path d="M17701 4534 c0 -11 3 -14 6 -6 3 7 2 16 -1 19 -3 4 -6 -2 -5 -13z"/>
    <path d="M19350 4519 c0 -7 26 -19 41 -19 5 0 9 6 9 14 0 9 -10 13 -25 12 -14 0 -25 -4 -25 -7z"/>
    <path d="M19470 4510 c0 -5 5 -10 11 -10 5 0 7 5 4 10 -3 6 -8 10 -11 10 -2 0 -4 -4 -4 -10z"/>
    <path d="M19802 4507 c-8 -10 -6 -13 8 -13 11 0 22 6 24 13 3 7 -1 13 -8 13 -7 0 -18 -6 -24 -13z"/>
    <path d="M18707 4503 c-4 -3 -7 -11 -7 -17 0 -6 5 -5 12 2 6 6 9 14 7 17 -3 3 -9 2 -12 -2z"/>
    <path d="M19710 4489 c14 -6 43 -12 65 -14 22 -2 31 -1 20 2 -11 3 -24 9 -29 14 -6 5 -26 9 -45 8 -34 0 -35 -1 -11 -10z"/>
    <path d="M18198 4483 c6 -2 18 -2 25 0 6 3 1 5 -13 5 -14 0 -19 -2 -12 -5z"/>
    <path d="M19230 4450 c-12 -8 -9 -10 13 -10 16 0 26 4 22 10 -8 12 -16 12 -35 0z"/>
    <path d="M16570 4441 c-115 -10 -38 -19 108 -13 17 1 32 7 32 12 0 10 -30 11 -140 1z"/>
    <path d="M19135 4440 c11 -5 27 -9 35 -9 9 0 8 4 -5 9 -11 5 -27 9 -35 9 -9 0 -8 -4 5 -9z"/>
    <path d="M16330 4433 c-47 -2 -89 -9 -95 -15 -7 -7 12 -9 69 -4 43 3 95 6 115 6 27 0 32 3 21 10 -8 5 -17 9 -20 8 -3 -1 -43 -4 -90 -5z"/>
    <path d="M18778 4433 c7 -3 16 -2 19 1 4 3 -2 6 -13 5 -11 0 -14 -3 -6 -6z"/>
    <path d="M19020 4436 c0 -2 7 -9 15 -16 13 -11 14 -10 9 4 -5 14 -24 23 -24 12z"/>
    <path d="M19950 4436 c0 -2 7 -7 16 -10 8 -3 12 -2 9 4 -6 10 -25 14 -25 6z"/>
    <path d="M19280 4425 c0 -6 30 -18 70 -29 14 -4 8 2 -14 14 -40 20 -56 24 -56 15z"/>
    <path d="M15950 4410 l-115 -6 148 -2 c97 -1 146 1 142 8 -3 6 -18 9 -33 8 -15 -1 -79 -5 -142 -8z"/>
    <path d="M16178 4413 c7 -3 16 -2 19 1 4 3 -2 6 -13 5 -11 0 -14 -3 -6 -6z"/>
    <path d="M15540 4390 c0 -5 9 -10 19 -10 11 0 23 5 26 10 4 6 -5 10 -19 10 -14 0 -26 -4 -26 -10z"/>
    <path d="M15608 4393 c7 -3 16 -2 19 1 4 3 -2 6 -13 5 -11 0 -14 -3 -6 -6z"/>
    <path d="M15643 4394 c7 -8 138 -6 146 1 2 3 -31 5 -74 5 -43 0 -75 -3 -72 -6z"/>
    <path d="M15165 4379 c-55 -4 -156 -10 -224 -13 -68 -3 -126 -8 -129 -11 -9 -8 152 -6 328 6 91 6 207 10 258 10 52 0 103 4 115 9 27 11 -207 10 -348 -1z"/>
    <path d="M343 4363 c9 -2 23 -2 30 0 6 3 -1 5 -18 5 -16 0 -22 -2 -12 -5z"/>
    <path d="M633 4353 c9 -2 25 -2 35 0 9 3 1 5 -18 5 -19 0 -27 -2 -17 -5z"/>
    <path d="M14650 4351 c-16 -5 4 -8 53 -8 42 0 77 4 77 9 0 10 -95 9 -130 -1z"/>
    <path d="M14335 4340 c-4 -6 8 -10 29 -10 19 0 38 5 41 10 4 6 -8 10 -29 10 -19 0 -38 -4 -41 -10z"/>
    <path d="M14435 4340 c3 -5 17 -10 30 -10 13 0 27 5 30 10 4 6 -8 10 -30 10 -22 0 -34 -4 -30 -10z"/>
    <path d="M19066 4341 c-14 -5 -16 -10 -7 -15 15 -9 41 -1 41 14 0 11 -7 12 -34 1z"/>
    <path d="M14137 4329 c7 -7 29 -7 69 -1 l59 10 -69 1 c-50 1 -67 -2 -59 -10z"/>
    <path d="M1408 4323 c7 -3 16 -2 19 1 4 3 -2 6 -13 5 -11 0 -14 -3 -6 -6z"/>
    <path d="M13660 4320 c-22 -7 -21 -8 13 -9 23 -1 36 3 32 9 -7 11 -10 11 -45 0z"/>
    <path d="M13903 4323 c15 -2 37 -2 50 0 12 2 0 4 -28 4 -27 0 -38 -2 -22 -4z"/>
    <path d="M14013 4323 c15 -2 37 -2 50 0 12 2 0 4 -28 4 -27 0 -38 -2 -22 -4z"/>
    <path d="M13468 4313 c12 -2 32 -2 45 0 12 2 2 4 -23 4 -25 0 -35 -2 -22 -4z"/>
    <path d="M13573 4313 c9 -2 25 -2 35 0 9 3 1 5 -18 5 -19 0 -27 -2 -17 -5z"/>
    <path d="M13105 4300 c-4 -6 5 -10 19 -10 14 0 26 5 26 10 0 6 -9 10 -19 10 -11 0 -23 -4 -26 -10z"/>
    <path d="M13263 4303 c26 -2 68 -2 95 0 26 2 4 3 -48 3 -52 0 -74 -1 -47 -3z"/>
    <path d="M12818 4293 c6 -2 18 -2 25 0 6 3 1 5 -13 5 -14 0 -19 -2 -12 -5z"/>
    <path d="M2848 4283 c6 -2 18 -2 25 0 6 3 1 5 -13 5 -14 0 -19 -2 -12 -5z"/>
    <path d="M12503 4283 c15 -2 37 -2 50 0 12 2 0 4 -28 4 -27 0 -38 -2 -22 -4z"/>
    <path d="M12643 4283 c9 -2 23 -2 30 0 6 3 -1 5 -18 5 -16 0 -22 -2 -12 -5z"/>
    <path d="M12062 4275 c8 -8 118 -8 125 -1 4 3 -24 6 -62 6 -38 0 -66 -2 -63 -5z"/>
    <path d="M11748 4263 c6 -2 18 -2 25 0 6 3 1 5 -13 5 -14 0 -19 -2 -12 -5z"/>
    <path d="M10638 4243 c6 -2 18 -2 25 0 6 3 1 5 -13 5 -14 0 -19 -2 -12 -5z"/>
    <path d="M10723 4243 c9 -2 23 -2 30 0 6 3 -1 5 -18 5 -16 0 -22 -2 -12 -5z"/>
    <path d="M5408 4233 c6 -2 18 -2 25 0 6 3 1 5 -13 5 -14 0 -19 -2 -12 -5z"/>
    <path d="M5508 4233 c12 -2 30 -2 40 0 9 3 -1 5 -23 4 -22 0 -30 -2 -17 -4z"/>
    <path d="M5648 4233 c23 -2 59 -2 80 0 20 2 1 4 -43 4 -44 0 -61 -2 -37 -4z"/>
    <path d="M5813 4233 c9 -2 25 -2 35 0 9 3 1 5 -18 5 -19 0 -27 -2 -17 -5z"/>
    <path d="M6138 4233 c7 -3 16 -2 19 1 4 3 -2 6 -13 5 -11 0 -14 -3 -6 -6z"/>
    <path d="M6476 4232 c-7 -12 59 -19 99 -11 28 6 27 7 -10 8 -22 1 -50 4 -61 7 -12 3 -24 1 -28 -4z"/>
    <path d="M9948 4233 c6 -2 18 -2 25 0 6 3 1 5 -13 5 -14 0 -19 -2 -12 -5z"/>
    <path d="M10043 4233 c9 -2 23 -2 30 0 6 3 -1 5 -18 5 -16 0 -22 -2 -12 -5z"/>
    <path d="M6298 4223 c6 -2 18 -2 25 0 6 3 1 5 -13 5 -14 0 -19 -2 -12 -5z"/>
    <path d="M6408 4223 c6 -2 18 -2 25 0 6 3 1 5 -13 5 -14 0 -19 -2 -12 -5z"/>
    <path d="M6628 4223 c6 -2 18 -2 25 0 6 3 1 5 -13 5 -14 0 -19 -2 -12 -5z"/>
    <path d="M6728 4223 c7 -3 16 -2 19 1 4 3 -2 6 -13 5 -11 0 -14 -3 -6 -6z"/>
    <path d="M6800 4220 c0 -13 11 -13 30 0 12 8 11 10 -7 10 -13 0 -23 -4 -23 -10z"/>
    <path d="M6998 4218 c17 -8 26 -8 34 0 9 9 4 12 -22 11 -33 0 -34 -1 -12 -11z"/>
    <path d="M13545 3810 c-3 -5 1 -10 9 -10 9 0 16 5 16 10 0 6 -4 10 -9 10 -6 0 -13 -4 -16 -10z"/>
    <path d="M7458 3753 c7 -3 16 -2 19 1 4 3 -2 6 -13 5 -11 0 -14 -3 -6 -6z"/>
    <path d="M7878 3713 c7 -3 16 -2 19 1 4 3 -2 6 -13 5 -11 0 -14 -3 -6 -6z"/>
    <path d="M8640 3610 l-75 -6 88 -2 c57 -1 86 2 82 8 -3 6 -9 9 -13 8 -4 -1 -41 -4 -82 -8z"/>
    <path d="M8325 3591 c-20 -4 -26 -9 -18 -14 7 -4 21 -4 30 1 10 6 31 8 48 7 16 -2 36 0 45 5 18 11 -57 12 -105 1z"/>
    <path d="M8458 3593 c7 -3 16 -2 19 1 4 3 -2 6 -13 5 -11 0 -14 -3 -6 -6z"/>
    <path d="M8195 3580 c-3 -6 1 -7 9 -4 18 7 21 14 7 14 -6 0 -13 -4 -16 -10z"/>
    <path d="M8698 3553 c18 -2 45 -2 60 0 15 2 0 4 -33 4 -33 0 -45 -2 -27 -4z"/>
    <path d="M8600 3541 c0 -4 11 -6 25 -3 14 2 25 6 25 8 0 2 -11 4 -25 4 -14 0 -25 -4 -25 -9z"/>
    <path d="M7537 2713 c-4 -3 -7 -12 -7 -20 0 -15 26 -18 34 -4 7 11 -18 33 -27 24z"/>
    <path d="M8110 2700 c0 -5 4 -10 9 -10 6 0 13 5 16 10 3 6 -1 10 -9 10 -9 0 -16 -4 -16 -10z"/>
    <path d="M7758 2693 c-14 -4 -16 -8 -8 -24 12 -22 30 -25 48 -7 8 8 9 15 1 25 -12 14 -13 14 -41 6z"/>
    <path d="M7830 2669 c0 -5 5 -7 10 -4 6 3 10 8 10 11 0 2 -4 4 -10 4 -5 0 -10 -5 -10 -11z"/>
    <path d="M5180 2620 c0 -5 5 -10 11 -10 5 0 7 5 4 10 -3 6 -8 10 -11 10 -2 0 -4 -4 -4 -10z"/>
    <path d="M5030 2604 c0 -8 5 -12 10 -9 6 3 10 10 10 16 0 5 -4 9 -10 9 -5 0 -10 -7 -10 -16z"/>
    <path d="M5577 2554 c-8 -8 1 -24 14 -24 5 0 9 7 9 15 0 15 -12 20 -23 9z"/>
    <path d="M5670 2550 c0 -5 5 -10 11 -10 5 0 7 5 4 10 -3 6 -8 10 -11 10 -2 0 -4 -4 -4 -10z"/>
    <path d="M5750 2550 c0 -5 7 -10 16 -10 8 0 12 5 9 10 -3 6 -10 10 -16 10 -5 0 -9 -4 -9 -10z"/>
    <path d="M5830 2550 c0 -5 7 -10 16 -10 8 0 12 5 9 10 -3 6 -10 10 -16 10 -5 0 -9 -4 -9 -10z"/>
    <path d="M12468 2523 c7 -3 16 -2 19 1 4 3 -2 6 -13 5 -11 0 -14 -3 -6 -6z"/>
    <path d="M3640 2510 c0 -5 11 -10 24 -10 14 0 28 5 31 10 4 6 -7 10 -24 10 -17 0 -31 -4 -31 -10z"/>
    <path d="M5640 2508 c-72 -10 -81 -15 -60 -29 15 -10 142 -5 174 7 14 5 13 9 -10 20 -14 8 -29 13 -33 13 -3 -1 -35 -6 -71 -11z"/>
    <path d="M6060 2480 c0 -18 49 -35 62 -22 8 8 4 14 -16 22 -34 13 -46 13 -46 0z"/>
    <path d="M5510 2470 c-9 -6 -10 -10 -3 -10 6 0 15 5 18 10 8 12 4 12 -15 0z"/>
    <path d="M2330 2460 c0 -5 18 -10 39 -10 22 0 43 5 46 10 4 6 -12 10 -39 10 -25 0 -46 -4 -46 -10z"/>
    <path d="M3950 2455 c0 -8 9 -15 20 -15 11 0 20 7 20 15 0 8 -9 15 -20 15 -11 0 -20 -7 -20 -15z"/>
    <path d="M4680 2460 c0 -5 7 -10 15 -10 8 0 15 5 15 10 0 6 -7 10 -15 10 -8 0 -15 -4 -15 -10z"/>
    <path d="M6335 2460 c3 -5 17 -10 31 -10 14 0 22 4 19 10 -3 6 -17 10 -31 10 -14 0 -22 -4 -19 -10z"/>
    <path d="M9683 2456 c17 -13 11 -15 -58 -21 -51 -5 -80 -4 -88 4 -8 8 -14 7 -25 -1 -18 -16 -405 -13 -410 2 -2 5 -22 10 -43 10 -24 0 -38 -4 -34 -10 8 -12 143 -11 -1775 -16 -957 -2 -1579 0 -1570 6 13 8 12 10 -1 15 -8 3 -29 7 -45 8 -23 2 -30 -2 -32 -20 -2 -12 -11 -24 -20 -26 -19 -5 -21 -5 993 -10 947 -5 3239 13 3243 24 5 12 32 11 32 -1 0 -6 126 -10 343 -10 188 0 781 -2 1317 -5 536 -3 997 -2 1023 1 142 19 -64 24 -936 22 -720 -1 -960 1 -969 10 -17 17 -43 15 -59 -4 -11 -13 -33 -15 -141 -12 -83 2 -131 7 -136 15 -10 16 -78 27 -86 14 -4 -6 -1 -11 6 -11 11 0 11 -2 0 -9 -17 -10 -64 -2 -56 10 3 5 -6 9 -20 9 -14 0 -28 -4 -31 -10 -11 -17 -35 -12 -28 6 5 14 -1 15 -48 9 -30 -4 -58 -11 -63 -16 -14 -13 -44 -11 -69 5 -26 17 -135 25 -139 11 -2 -5 11 -13 27 -16 28 -6 27 -7 -10 -8 -42 -1 -69 10 -63 25 1 5 -8 10 -22 12 -23 2 -24 2 -7 -12z"/>
    <path d="M3135 2450 c-3 -5 1 -10 10 -10 9 0 13 5 10 10 -3 6 -8 10 -10 10 -2 0 -7 -4 -10 -10z"/>
    <path d="M4077 2453 c-28 -7 -9 -23 28 -23 37 0 54 14 29 24 -17 6 -29 6 -57 -1z"/>
    <path d="M2690 2445 c0 -13 75 -34 99 -28 25 7 25 7 -14 19 -42 13 -85 18 -85 9z"/>
    <path d="M3283 2443 c9 -2 23 -2 30 0 6 3 -1 5 -18 5 -16 0 -22 -2 -12 -5z"/>
    <path d="M19218 2443 c7 -3 16 -2 19 1 4 3 -2 6 -13 5 -11 0 -14 -3 -6 -6z"/>
    <path d="M1678 2433 c6 -2 18 -2 25 0 6 3 1 5 -13 5 -14 0 -19 -2 -12 -5z"/>
    <path d="M2050 2430 c0 -5 9 -10 19 -10 11 0 23 5 26 10 4 6 -5 10 -19 10 -14 0 -26 -4 -26 -10z"/>
    <path d="M12662 2421 c-28 -17 22 -21 272 -21 263 0 379 7 370 21 -7 12 -625 11 -642 0z"/>
    <path d="M13640 2420 l-165 -6 170 -4 c94 -3 229 -4 300 -3 72 1 181 2 244 3 63 0 112 2 109 5 -7 8 -470 11 -658 5z"/>
    <path d="M18947 2394 c-5 -4 -5700 -16 -8717 -19 -3061 -3 -5403 -11 -6065 -20 -115 -2 -1100 -3 -2187 -4 l-1978 -1 0 -152 0 -151 523 7 c287 3 639 9 782 11 143 3 404 7 580 10 176 3 518 10 760 15 242 5 584 12 760 15 176 3 412 7 525 10 643 16 1862 25 3690 29 1136 3 2241 7 2455 10 304 4 417 2 510 -9 66 -8 242 -26 390 -40 149 -14 326 -32 395 -40 69 -8 177 -20 240 -25 182 -17 404 -40 420 -45 47 -14 792 -89 995 -100 66 -3 149 -11 185 -17 36 -6 81 -12 100 -14 90 -7 611 -65 768 -85 40 -5 131 -9 202 -9 71 0 139 -4 152 -9 28 -11 213 -33 503 -61 116 -11 248 -24 295 -30 47 -5 135 -15 195 -20 61 -6 142 -15 180 -20 39 -5 138 -14 220 -20 297 -22 623 -51 785 -71 91 -11 206 -24 255 -29 50 -5 149 -16 220 -24 72 -8 173 -18 225 -21 52 -4 154 -13 225 -21 204 -23 298 -33 475 -49 170 -15 194 -18 585 -61 127 -14 277 -29 335 -35 313 -28 445 -41 535 -54 55 -8 172 -19 260 -25 88 -6 186 -14 218 -17 l57 -5 0 55 c0 44 -4 57 -17 61 -20 6 -160 19 -428 41 -99 8 -220 19 -270 24 -49 6 -142 15 -205 20 -391 35 -572 53 -625 63 -33 6 -123 14 -200 18 -130 7 -468 35 -715 60 -58 6 -233 22 -390 35 -157 14 -332 30 -390 36 -58 5 -179 16 -270 24 -284 24 -500 45 -640 60 -74 8 -193 19 -265 25 -71 5 -260 23 -420 39 -159 16 -333 32 -385 35 -52 3 -142 11 -200 16 -58 6 -163 15 -235 20 -71 4 -186 15 -255 24 -149 18 -451 48 -760 77 -124 11 -274 27 -335 34 -60 8 -175 19 -255 25 -80 5 -183 15 -230 20 -94 12 -414 43 -675 65 -93 8 -176 17 -183 20 -8 3 -78 12 -155 21 -78 9 -173 19 -212 23 -57 7 -72 6 -82 -7 -10 -12 -26 -14 -84 -8 -39 3 -79 11 -88 17 -12 7 -2 8 34 4 36 -4 46 -3 35 4 -8 6 -33 11 -55 11 -64 0 -145 12 -145 21 0 4 231 5 513 3 281 -3 519 -6 527 -6 1191 21 1563 24 2682 26 632 0 1143 -1 1137 -3 -5 -1 -2 -9 8 -16 16 -12 15 -14 -17 -14 -55 1 -127 -15 -112 -24 6 -5 17 -5 24 -1 7 4 8 3 4 -4 -12 -19 -61 -14 -82 9 -16 18 -30 20 -104 20 -47 -1 -101 -1 -120 0 -125 4 -310 -2 -310 -9 0 -17 12 -20 43 -10 26 10 33 8 47 -10 10 -12 20 -19 23 -16 12 12 74 9 74 -3 0 -20 -77 -16 -100 4 -17 16 -20 16 -31 2 -10 -14 -23 -16 -71 -10 -6 0 -11 11 -12 23 -1 11 -8 25 -15 29 -22 14 -122 10 -144 -6 -12 -8 -33 -13 -47 -12 -35 3 -35 -16 0 -21 63 -8 39 -26 -35 -25 -101 1 -123 5 -67 13 l50 7 -45 2 c-50 2 -76 13 -66 30 4 6 0 11 -9 11 -9 0 -13 -5 -10 -10 4 -7 -2 -9 -19 -4 -22 5 -26 3 -26 -14 0 -17 8 -22 38 -25 20 -2 6 -4 -33 -5 -38 0 -65 2 -59 4 7 3 10 14 7 24 -5 18 -15 20 -102 21 -194 3 -296 -1 -279 -12 7 -5 23 -9 36 -9 12 0 22 -4 22 -10 0 -5 7 -10 15 -10 8 0 15 5 15 11 0 5 5 7 12 3 7 -5 29 -7 49 -5 20 1 40 -3 44 -9 5 -7 -59 -11 -222 -11 -125 0 -327 -2 -448 -5 -121 -2 -251 -3 -290 -2 -38 1 -146 1 -238 1 -93 0 -165 3 -160 8 4 4 26 10 48 12 22 2 -2 4 -52 3 -51 0 -93 -4 -93 -8 0 -5 8 -8 17 -8 9 0 14 -3 10 -6 -10 -10 -95 -6 -117 6 -16 9 -20 8 -20 -6 0 -12 -6 -15 -22 -10 -13 3 -48 6 -78 7 -40 0 -50 3 -35 9 21 9 16 11 -35 14 -16 1 -25 -4 -25 -14 0 -10 -8 -14 -25 -12 -14 2 -49 3 -78 3 -34 -1 -67 6 -95 19 -40 20 -43 20 -74 3 -30 -16 -33 -16 -52 1 -18 17 -19 17 -26 -5 -5 -15 -10 -18 -15 -9 -5 8 -9 7 -14 -6 -3 -9 -5 -18 -3 -20 3 -3 398 -10 1057 -19 184 -2 457 -7 605 -10 149 -4 322 -6 385 -6 63 1 122 1 130 1 8 0 400 0 870 1 470 0 875 1 900 1 135 2 266 -7 278 -19 7 -7 29 -13 48 -13 28 0 34 4 32 18 -3 14 4 17 37 14 22 -1 112 -4 200 -6 88 -2 167 -4 175 -5 8 0 65 2 125 4 130 5 151 2 158 -25 5 -19 12 -20 171 -19 166 2 201 8 103 19 -39 5 -47 8 -32 14 11 4 30 13 42 18 12 6 30 7 40 3 15 -6 289 -7 428 -2 29 2 40 -2 40 -13 0 -22 45 -40 103 -40 39 0 53 4 50 13 -3 6 -14 13 -26 15 -26 4 -30 22 -4 22 9 0 32 -4 50 -9 23 -7 46 -6 77 3 29 9 58 11 87 6 46 -9 262 -14 390 -11 85 3 105 -3 88 -24 -13 -16 145 -24 344 -17 123 4 137 7 120 19 -18 13 -17 14 9 8 15 -4 33 -3 40 3 17 13 115 23 122 11 8 -12 52 -12 60 1 4 6 11 8 16 4 6 -3 59 -6 117 -5 97 1 105 -1 88 -14 -11 -8 -27 -16 -35 -17 -9 -1 31 -4 89 -8 127 -9 210 -2 210 16 0 7 -10 15 -22 17 l-23 4 23 2 c21 1 22 5 22 80 l0 79 -52 1 c-29 1 -60 2 -68 2 -8 0 -43 -1 -77 -4 -35 -2 -60 -1 -58 3 3 5 -28 7 -67 5 -80 -4 -588 -14 -1078 -21 -173 -3 -331 -6 -350 -7 -19 -1 -47 1 -62 5 -15 3 -51 0 -79 -7 -29 -8 -57 -11 -63 -7 -23 14 -46 15 -226 13 -143 -1 -188 -5 -199 -16 -12 -12 -17 -11 -37 2 -20 13 -46 14 -146 10 -68 -3 -124 -6 -126 -6 -2 -1 -1 -5 3 -10 6 -10 -23 -28 -40 -26 -26 4 -66 26 -61 34 6 9 -142 6 -152 -3 -3 -3 4 -6 16 -6 12 0 22 -3 22 -7 0 -7 -27 -8 -74 -4 -4 1 -6 7 -3 14 4 11 -66 14 -391 15 -408 1 -531 5 -592 21 -22 6 171 9 520 10 811 2 1625 9 1865 16 116 4 514 8 885 10 371 2 678 4 683 4 12 2 8 29 -5 34 -10 4 -10 6 0 6 8 1 12 20 12 61 l0 59 -526 -2 c-289 -1 -526 -3 -527 -3z m-9497 -74 c10 -7 -5 -9 -50 -8 -59 1 -61 2 -25 8 59 11 59 11 75 0z m289 6 c-11 -10 -208 -16 -214 -7 -4 8 30 11 106 11 62 0 110 -2 108 -4z m131 -6 c17 -6 9 -7 -25 -3 -27 3 -52 7 -54 9 -8 7 54 2 79 -6z m288 3 c-16 -2 -40 -2 -55 0 -16 2 -3 4 27 4 30 0 43 -2 28 -4z m100 0 c-10 -2 -26 -2 -35 0 -10 3 -2 5 17 5 19 0 27 -2 18 -5z m80 0 c-10 -2 -28 -2 -40 0 -13 2 -5 4 17 4 22 1 32 -1 23 -4z m199 0 c-20 -2 -52 -2 -70 0 -17 2 0 4 38 4 39 0 53 -2 32 -4z m96 0 c-7 -2 -21 -2 -30 0 -10 3 -4 5 12 5 17 0 24 -2 18 -5z m-2300 -10 c-7 -2 -21 -2 -30 0 -10 3 -4 5 12 5 17 0 24 -2 18 -5z m225 0 c-10 -2 -26 -2 -35 0 -10 3 -2 5 17 5 19 0 27 -2 18 -5z m80 0 c-10 -2 -26 -2 -35 0 -10 3 -2 5 17 5 19 0 27 -2 18 -5z m229 1 c-3 -3 -12 -4 -19 -1 -8 3 -5 6 6 6 11 1 17 -2 13 -5z m345 -1 c-51 -2 -132 -2 -180 0 -48 1 -6 3 93 3 99 0 138 -2 87 -3z m9632 -44 c-4 -7 -67 -10 -198 -8 -105 2 -310 0 -456 -4 -251 -7 -599 -10 -2795 -22 -511 -3 -1418 -8 -2015 -11 -597 -4 -1094 -7 -1105 -6 -11 1 -180 0 -375 0 -195 -1 -368 -1 -385 -1 -16 0 -46 0 -65 1 -19 0 -186 -1 -370 -4 -184 -3 -357 -5 -385 -5 -69 0 -117 -8 -110 -20 4 -5 -8 -8 -27 -8 -18 1 -25 3 -15 6 28 7 9 23 -28 23 -42 0 -55 -17 -18 -23 16 -2 -258 -5 -607 -6 -3760 -10 -5184 -12 -5180 -7 8 7 559 15 1575 21 451 3 824 10 828 14 5 5 -4 12 -21 15 -16 4 -1206 5 -2643 2 -1460 -2 -2596 0 -2574 4 22 5 114 9 205 9 91 -1 554 2 1030 5 1342 9 3749 16 8075 22 2184 3 3972 8 3974 10 2 2 834 3 1848 4 1328 0 1842 -3 1837 -11z m281 1 c19 -5 -12 -7 -82 -7 -61 1 -110 4 -107 9 6 10 148 8 189 -2z m178 3 c-7 -2 -21 -2 -30 0 -10 3 -4 5 12 5 17 0 24 -2 18 -5z m80 0 c-13 -2 -33 -2 -45 0 -13 2 -3 4 22 4 25 0 35 -2 23 -4z m130 0 c-7 -2 -19 -2 -25 0 -7 3 -2 5 12 5 14 0 19 -2 13 -5z m104 1 c-3 -3 -12 -4 -19 -1 -8 3 -5 6 6 6 11 1 17 -2 13 -5z m160 0 c-3 -3 -12 -4 -19 -1 -8 3 -5 6 6 6 11 1 17 -2 13 -5z m-17970 -47 c3 -4 -131 -6 -298 -5 -167 1 -270 4 -229 7 102 8 518 6 527 -2z m-624 -4 c-13 -2 -33 -2 -45 0 -13 2 -3 4 22 4 25 0 35 -2 23 -4z m9530 -40 c-7 -2 -21 -2 -30 0 -10 3 -4 5 12 5 17 0 24 -2 18 -5z m130 0 c-18 -2 -48 -2 -65 0 -18 2 -4 4 32 4 36 0 50 -2 33 -4z m4135 -45 c3 -14 -1 -16 -28 -8 -17 5 -33 9 -36 9 -3 -1 -9 3 -12 7 -4 4 -1 4 6 0 6 -4 12 -2 12 4 0 18 54 7 58 -12z m748 -5 c-7 -7 -26 7 -26 19 0 6 6 6 15 -2 9 -7 13 -15 11 -17z m164 12 c10 -13 9 -15 -12 -15 -13 0 -29 -5 -36 -12 -9 -9 -12 -9 -12 0 0 7 -11 12 -24 12 -26 0 -40 12 -29 24 13 13 101 6 113 -9z m668 3 c-6 -16 -58 -23 -58 -8 0 6 4 9 9 5 5 -3 12 -1 16 5 9 14 37 12 33 -2z m862 2 c0 -5 -7 -10 -15 -10 -8 0 -15 5 -15 10 0 6 7 10 15 10 8 0 15 -4 15 -10z m510 0 c0 -5 -2 -10 -4 -10 -3 0 -8 5 -11 10 -3 6 -1 10 4 10 6 0 11 -4 11 -10z m-2575 -15 c0 -5 -17 -11 -37 -13 -36 -3 -47 5 -31 22 11 10 68 3 68 -9z m45 5 c0 -5 -5 -10 -11 -10 -5 0 -7 5 -4 10 3 6 8 10 11 10 2 0 4 -4 4 -10z m860 -1 c0 -9 -35 -14 -82 -10 -16 1 -28 -3 -28 -8 0 -6 -6 -11 -14 -11 -9 0 -12 7 -9 19 4 16 15 19 69 19 35 0 64 -4 64 -9z m120 1 c12 -8 9 -10 -13 -10 -16 0 -26 4 -22 10 8 12 16 12 35 0z m105 0 c4 -6 -5 -10 -19 -10 -14 0 -26 5 -26 10 0 6 9 10 19 10 11 0 23 -4 26 -10z m180 0 c3 -5 -3 -10 -15 -10 -12 0 -18 5 -15 10 3 6 10 10 15 10 5 0 12 -4 15 -10z m95 -1 c0 -5 -13 -9 -30 -9 -16 0 -30 4 -30 8 0 5 14 9 30 10 17 0 30 -4 30 -9z m-1247 -12 c3 -9 -6 -14 -29 -15 -19 -2 -34 2 -34 7 0 6 6 8 14 5 8 -3 17 -1 21 5 9 15 22 14 28 -2z m494 -2 c0 -8 -6 -15 -13 -15 -15 0 -26 15 -17 24 12 11 30 6 30 -9z m73 5 c0 -5 -11 -10 -24 -10 -14 0 -28 5 -31 10 -4 6 7 10 24 10 17 0 31 -4 31 -10z m-357 -17 c-7 -2 -19 -2 -25 0 -7 3 -2 5 12 5 14 0 19 -2 13 -5z m190 0 c-7 -2 -19 -2 -25 0 -7 3 -2 5 12 5 14 0 19 -2 13 -5z m3328 -73 c5 0 9 -4 9 -10 0 -13 -67 -13 -75 -1 -6 11 23 21 43 15 8 -2 18 -4 23 -4z m-156 -16 c19 -14 17 -15 -20 -8 -67 12 -86 23 -40 23 22 0 49 -7 60 -15z"/>
    <path d="M7153 2213 c15 -2 37 -2 50 0 12 2 0 4 -28 4 -27 0 -38 -2 -22 -4z"/>
    <path d="M7273 2214 c7 -8 97 -7 105 1 3 3 -21 5 -53 5 -32 0 -56 -3 -52 -6z"/>
    <path d="M9655 2210 c-4 -6 9 -10 31 -10 42 0 42 4 2 14 -15 3 -30 2 -33 -4z"/>
    <path d="M10408 2198 c17 -8 26 -8 34 0 9 9 4 12 -22 11 -33 0 -34 -1 -12 -11z"/>
    <path d="M10208 2193 c7 -3 16 -2 19 1 4 3 -2 6 -13 5 -11 0 -14 -3 -6 -6z"/>
    <path d="M17248 2173 c12 -2 30 -2 40 0 9 3 -1 5 -23 4 -22 0 -30 -2 -17 -4z"/>
    <path d="M14550 2160 c0 -5 4 -10 9 -10 6 0 13 5 16 10 3 6 -1 10 -9 10 -9 0 -16 -4 -16 -10z"/>
    <path d="M13493 2150 c-32 -13 -29 -30 5 -30 34 0 57 14 48 29 -8 13 -23 13 -53 1z"/>
    <path d="M13730 2150 c-11 -7 -12 -12 -3 -21 14 -14 53 -2 53 17 0 16 -28 18 -50 4z"/>
    <path d="M13953 2153 c9 -2 23 -2 30 0 6 3 -1 5 -18 5 -16 0 -22 -2 -12 -5z"/>
    <path d="M13580 2140 c-11 -7 -2 -10 32 -10 26 0 50 5 53 10 8 13 -65 13 -85 0z"/>
    <path d="M11620 2131 c0 -6 9 -9 19 -8 11 0 17 5 15 9 -7 11 -34 10 -34 -1z"/>
    <path d="M12113 2127 c-39 -13 -44 -32 -8 -25 14 3 25 1 25 -3 0 -18 15 -8 27 16 13 28 9 29 -44 12z"/>
    <path d="M13145 2130 c-3 -5 3 -10 15 -10 12 0 18 5 15 10 -3 6 -10 10 -15 10 -5 0 -12 -4 -15 -10z"/>
    <path d="M13325 2130 c-8 -13 25 -13 45 0 12 8 9 10 -12 10 -15 0 -30 -4 -33 -10z"/>
    <path d="M13860 2130 c0 -5 7 -10 15 -10 8 0 15 5 15 10 0 6 -7 10 -15 10 -8 0 -15 -4 -15 -10z"/>
    <path d="M11785 2120 l-30 -8 32 -1 c17 0 35 4 38 9 7 11 3 11 -40 0z"/>
    <path d="M11936 2115 c-2 -7 1 -19 9 -25 17 -14 107 -9 112 6 2 7 -8 9 -27 6 -17 -2 -36 0 -43 5 -23 18 -45 22 -51 8z"/>
    <path d="M12435 2120 c-3 -5 3 -10 14 -10 11 0 23 5 26 10 3 6 -3 10 -14 10 -11 0 -23 -4 -26 -10z"/>
    <path d="M11858 2103 c6 -2 18 -2 25 0 6 3 1 5 -13 5 -14 0 -19 -2 -12 -5z"/>
    <path d="M27 2032 l-27 -3 0 -140 0 -139 143 -1 c78 0 216 -2 307 -4 91 -2 316 -7 500 -10 184 -3 337 -8 341 -11 4 -2 150 -4 325 -4 176 0 371 -3 434 -7 l115 -7 -53 -16 c-64 -20 -55 -34 28 -44 239 -28 337 -33 820 -42 173 -3 459 -10 635 -15 563 -15 2967 5 3293 28 104 7 106 23 3 23 -35 0 -89 6 -120 14 -53 13 -301 23 -1036 41 -121 3 -323 10 -450 15 -126 5 -473 15 -770 21 -531 10 -623 13 -631 22 -11 11 752 17 2132 17 1321 0 1526 2 1563 15 23 8 72 17 109 20 89 8 117 14 106 24 -13 12 -178 31 -271 31 -64 0 -85 4 -99 17 -13 13 -19 14 -22 5 -2 -6 -10 -12 -19 -12 -8 0 -13 6 -10 13 2 6 15 12 28 12 13 0 26 3 29 7 7 8 129 14 592 27 202 6 377 12 390 15 13 3 118 8 233 11 116 3 224 8 240 10 17 2 84 7 150 10 115 6 134 9 123 20 -3 3 -1195 8 -2649 11 -2271 5 -3422 10 -3584 16 -22 0 -609 1 -1305 0 -1176 -1 -1539 2 -1558 10 -4 2 -19 2 -35 0z"/>
    <path d="M17835 2000 c7 -11 55 -11 100 0 23 6 14 8 -38 9 -43 1 -66 -3 -62 -9z"/>
    <path d="M18398 2003 c7 -3 16 -2 19 1 4 3 -2 6 -13 5 -11 0 -14 -3 -6 -6z"/>
    <path d="M1834 1670 c50 -15 136 -23 136 -12 0 14 -37 22 -105 21 -49 -1 -55 -2 -31 -9z"/>
    <path d="M2522 1498 c-163 -6 -423 -31 -443 -44 -4 -2 -63 -6 -131 -9 -67 -3 -141 -8 -163 -12 -22 -4 -49 -6 -60 -5 -19 2 -19 2 -2 -11 9 -8 17 -17 17 -20 0 -3 -64 -6 -142 -7 -79 -1 -177 -3 -218 -5 -41 -2 -88 -4 -105 -5 -22 0 -26 -3 -15 -9 8 -5 141 -11 295 -15 154 -4 332 -12 395 -17 63 -6 149 -13 190 -15 41 -2 118 -8 170 -14 52 -5 102 -8 110 -5 8 2 22 0 30 -5 12 -8 12 -10 -5 -11 -11 -1 -23 -1 -27 0 -4 0 -27 -5 -50 -13 -24 -8 -69 -17 -100 -21 -58 -6 -81 -25 -32 -25 15 0 41 -9 58 -19 17 -11 62 -22 101 -27 64 -7 67 -8 38 -16 -37 -10 -46 -23 -10 -15 12 3 31 -1 41 -9 18 -13 14 -14 -45 -15 -35 0 -71 -2 -79 -3 -8 -2 -71 -7 -140 -11 -69 -4 -129 -9 -133 -12 -5 -3 -48 -7 -95 -9 -234 -9 -296 -14 -416 -30 -72 -9 -138 -23 -147 -31 -8 -7 -26 -13 -40 -13 -36 0 -100 -20 -116 -36 -9 -9 -37 -14 -76 -14 -154 -1 -365 -8 -395 -13 -18 -3 -78 -9 -134 -12 -56 -3 -106 -10 -113 -15 -6 -5 -40 -11 -76 -14 -98 -6 -179 -18 -184 -26 -13 -21 161 -26 480 -15 321 11 415 13 480 12 33 0 79 0 102 1 23 1 44 -1 47 -6 2 -4 35 -5 73 -2 37 3 90 3 117 -2 57 -8 234 -2 346 13 79 10 217 19 337 22 39 1 69 5 67 8 -11 18 35 29 151 35 72 3 133 8 136 10 8 5 163 23 254 29 44 3 132 11 195 16 63 6 140 12 171 14 31 3 69 9 84 15 14 5 37 7 50 4 12 -3 26 -1 29 5 4 6 26 8 56 4 33 -4 64 -1 92 10 24 8 70 18 103 22 33 4 74 9 90 11 17 2 50 4 75 5 24 1 52 7 62 13 14 8 23 8 39 -2 16 -11 24 -11 36 -1 12 10 19 10 34 0 16 -9 27 -9 55 1 44 15 44 28 0 28 -19 0 -42 7 -50 16 -15 14 -41 11 -32 -4 2 -4 -42 -7 -97 -6 -56 1 -107 -3 -114 -8 -7 -5 -18 -6 -25 -2 -7 5 -38 9 -68 9 -30 1 -72 5 -92 9 -21 5 -46 5 -55 1 -21 -9 -91 -10 -99 -2 -9 9 25 15 121 23 126 10 165 10 165 1 0 -12 52 -29 62 -19 16 16 -22 36 -71 38 -63 3 -265 34 -271 42 -10 14 -106 27 -290 42 -69 6 -145 15 -170 22 l-44 12 29 8 c17 5 87 10 157 12 82 2 133 7 142 15 9 8 24 10 38 5 38 -12 70 -13 118 -4 25 5 131 12 235 16 105 3 217 8 250 10 33 2 179 6 325 9 146 2 294 7 330 10 36 3 179 6 318 6 157 1 252 6 252 12 0 5 15 7 35 4 19 -3 37 -1 41 5 3 5 34 8 68 7 64 -3 106 6 106 22 0 5 -12 9 -27 9 -16 0 -109 7 -208 15 -99 8 -346 19 -550 25 -390 11 -1732 10 -2043 -2z m745 -355 c0 -8 -7 -11 -14 -8 -8 3 -17 5 -19 5 -3 0 -3 4 0 8 8 14 33 10 33 -5z m68 -3 c3 -5 -1 -10 -9 -10 -9 0 -16 5 -16 10 0 6 4 10 9 10 6 0 13 -4 16 -10z"/>
    <path d="M5582 1461 c-9 -5 -8 -12 4 -29 18 -25 49 -29 58 -7 3 9 11 15 18 14 30 -4 68 2 68 9 0 5 -25 7 -55 4 -31 -3 -61 0 -68 6 -7 6 -18 8 -25 3z"/>
    <path d="M5510 1450 c0 -5 4 -10 9 -10 6 0 13 5 16 10 3 6 -1 10 -9 10 -9 0 -16 -4 -16 -10z"/>
    <path d="M5429 1437 c5 -5 19 -7 32 -5 20 3 19 5 -9 9 -20 3 -29 2 -23 -4z"/>
    <path d="M5800 1446 c0 -8 59 -34 64 -28 11 10 -17 32 -40 32 -13 0 -24 -2 -24 -4z"/>
    <path d="M3855 1199 c-6 -9 7 -13 40 -9 35 3 35 15 0 17 -19 1 -37 -3 -40 -8z"/>
    <path d="M4005 1190 c3 -5 21 -10 38 -10 24 0 28 3 17 10 -20 13 -63 13 -55 0z"/>
    <path d="M208 883 c7 -3 16 -2 19 1 4 3 -2 6 -13 5 -11 0 -14 -3 -6 -6z"/>
    <path d="M1181 871 c-19 -3 -36 -10 -38 -16 -2 -6 46 -11 128 -13 104 -2 130 0 127 10 -4 9 -28 13 -84 13 -43 0 -83 3 -89 6 -5 3 -25 3 -44 0z"/>
    <path d="M0 559 c0 -137 2 -159 16 -159 8 0 12 4 9 10 -8 14 21 12 75 -4 29 -8 56 -10 80 -5 19 5 62 11 94 14 33 4 62 6 65 7 3 0 22 0 41 -1 27 -1 31 -4 20 -11 -18 -11 -3 -12 25 -1 12 5 28 3 41 -5 22 -15 48 -17 109 -8 22 3 58 7 80 8 22 1 50 5 62 9 13 5 31 3 44 -4 19 -10 25 -8 40 12 15 20 19 21 33 10 12 -10 33 -12 76 -7 40 5 65 3 79 -5 15 -10 23 -10 33 -1 10 8 47 9 119 6 57 -3 118 -6 136 -7 17 -1 35 -5 39 -9 4 -4 13 -3 19 2 7 6 52 13 101 16 48 3 96 10 107 15 10 6 25 8 32 5 23 -9 26 10 5 34 -18 21 -26 22 -149 21 -72 -1 -131 2 -131 6 0 5 12 9 28 9 15 1 43 3 62 5 19 1 50 -1 69 -6 25 -6 32 -5 27 3 -5 9 12 12 61 13 37 1 74 1 82 -1 19 -2 71 20 71 31 0 5 5 9 11 9 5 0 7 -6 3 -13 -6 -9 -5 -9 7 0 9 8 20 9 29 3 24 -15 87 -11 105 6 8 9 35 17 58 19 23 2 46 4 50 4 5 1 5 6 2 12 -4 6 -14 8 -23 4 -8 -3 -66 -6 -128 -6 -63 0 -116 -4 -119 -9 -10 -16 -92 -12 -109 6 -9 9 -16 11 -16 4 0 -6 -5 -8 -10 -5 -6 4 -9 1 -8 -6 3 -14 -33 -20 -70 -12 -14 3 -21 11 -18 19 4 10 -4 14 -27 14 -22 0 -28 -3 -18 -9 18 -12 -21 -24 -68 -23 -19 1 -39 -2 -45 -7 -6 -5 -60 -11 -121 -14 -60 -3 -120 -8 -132 -11 -12 -2 -27 2 -34 10 -16 20 -60 19 -53 -1 9 -23 -24 -19 -38 5 -14 21 -34 27 -40 10 -4 -14 -99 -30 -119 -20 -15 9 -54 4 -74 -10 -5 -3 -75 -7 -155 -9 -110 -1 -150 1 -163 12 -18 12 -16 14 20 25 66 19 97 25 143 26 111 4 141 6 137 14 -3 4 14 5 37 4 29 -3 48 1 59 12 17 17 62 22 71 7 8 -12 110 -13 141 -1 19 7 32 6 48 -4 18 -12 25 -13 40 -1 13 9 15 14 5 18 -7 2 12 4 42 3 30 -1 65 -8 78 -14 18 -11 22 -10 22 2 0 8 6 17 13 19 31 13 -24 25 -147 31 -133 7 -179 10 -321 21 -44 3 -234 8 -422 10 l-343 3 0 -159z m155 -138 c10 -17 -12 -21 -25 -6 -10 12 -10 15 3 15 9 0 18 -4 22 -9z"/>
    <path d="M1310 683 c-53 -6 -68 -12 -51 -23 19 -11 119 -11 126 0 5 8 -28 33 -37 28 -2 0 -19 -3 -38 -5z"/>
    <path d="M1409 669 c-10 -6 -5 -9 19 -9 17 0 32 4 32 8 0 11 -34 12 -51 1z"/>
    <path d="M1518 673 c7 -3 16 -2 19 1 4 3 -2 6 -13 5 -11 0 -14 -3 -6 -6z"/>
    <path d="M1590 606 c0 -2 7 -6 15 -10 8 -3 15 -1 15 4 0 6 -7 10 -15 10 -8 0 -15 -2 -15 -4z"/>
    <path d="M1078 593 c7 -3 16 -2 19 1 4 3 -2 6 -13 5 -11 0 -14 -3 -6 -6z"/>
    <path d="M1253 583 c8 -9 20 -12 26 -9 19 12 12 24 -15 24 -23 0 -24 -2 -11 -15z"/>
    <path d="M1990 580 c0 -5 6 -10 14 -10 8 0 18 5 21 10 3 6 -3 10 -14 10 -12 0 -21 -4 -21 -10z"/>
    <path d="M2185 571 c3 -5 -3 -12 -12 -14 -11 -3 -8 -5 10 -6 29 -1 37 13 11 23 -8 3 -12 2 -9 -3z"/>
    <path d="M1900 560 c0 -6 7 -10 15 -10 8 0 15 2 15 4 0 2 -7 6 -15 10 -8 3 -15 1 -15 -4z"/>
    <path d="M1620 460 c0 -5 7 -10 15 -10 8 0 15 5 15 10 0 6 -7 10 -15 10 -8 0 -15 -4 -15 -10z"/>
    <path d="M1660 460 c0 -5 5 -10 10 -10 6 0 10 5 10 10 0 6 -4 10 -10 10 -5 0 -10 -4 -10 -10z"/>
  </g>
</svg>