<?xml version="1.0" encoding="utf-8"?>
<svg viewBox="0 0 2000 1200" preserveAspectRatio="none" xmlns="http://www.w3.org/2000/svg">
  <g transform="matrix(0.10000000149011612, 0, 0, -0.10000000149011612, 0, 1200)" fill="#000000" stroke="none" style="opacity: 0.1;">
    <path d="M140 11982 c21 -11 33 -24 31 -32 -2 -8 -3 -22 -1 -30 1 -8 3 -47 3 -87 2 -58 6 -76 22 -92 24 -23 116 -52 143 -44 11 2 29 0 41 -6 23 -13 71 -99 71 -129 0 -10 11 -33 25 -52 14 -19 25 -43 25 -54 0 -11 6 -27 13 -35 18 -22 117 -187 117 -195 0 -3 20 -39 44 -79 64 -105 105 -189 108 -217 3 -21 -8 -32 -61 -67 -35 -23 -78 -53 -95 -68 -39 -32 -83 -62 -166 -115 -36 -22 -85 -56 -110 -75 -55 -43 -307 -216 -332 -229 -16 -8 -18 -27 -18 -193 0 -140 3 -183 13 -183 16 1 64 31 163 102 43 32 124 87 179 123 55 36 107 70 115 76 163 111 153 107 268 92 56 -7 164 -19 239 -27 142 -15 173 -22 173 -37 0 -8 146 -282 170 -319 5 -8 26 -48 45 -87 20 -40 41 -75 46 -79 6 -3 7 -18 4 -34 -5 -23 -1 -31 24 -50 17 -12 46 -51 65 -88 18 -37 50 -94 70 -127 20 -33 36 -64 36 -68 0 -5 10 -23 22 -39 28 -41 18 -54 -62 -85 -113 -43 -90 -47 -440 77 -63 23 -162 57 -220 76 -130 43 -232 83 -245 96 -7 6 -4 14 7 22 24 18 23 46 -1 46 -11 0 -23 -4 -26 -10 -11 -17 -37 -11 -61 15 -13 14 -34 25 -47 25 -14 0 -47 7 -75 16 -45 15 -52 15 -72 1 -20 -14 -32 -12 -161 34 -77 27 -153 56 -169 64 -44 23 -60 19 -60 -14 0 -22 6 -31 27 -39 16 -5 64 -24 108 -40 44 -17 103 -38 130 -47 78 -26 95 -40 95 -80 0 -28 5 -38 25 -47 15 -7 25 -19 25 -33 0 -29 40 -65 72 -65 21 0 25 4 21 20 -4 16 0 20 20 20 31 0 43 -16 26 -36 -10 -12 -4 -18 40 -36 38 -16 51 -27 51 -42 0 -12 4 -28 10 -36 5 -9 5 -19 -1 -27 -8 -9 2 -10 44 -6 35 4 57 2 61 -6 4 -6 14 -11 22 -11 10 0 14 13 14 48 0 56 -18 78 -71 88 -43 8 -99 60 -99 92 0 32 12 30 230 -48 96 -34 243 -85 325 -114 221 -79 214 -72 128 -111 -53 -25 -60 -26 -117 -15 -86 17 -116 4 -116 -49 0 -34 -6 -44 -37 -69 -21 -16 -65 -44 -98 -63 -33 -18 -84 -53 -112 -77 -41 -35 -61 -45 -94 -46 -45 -2 -59 -16 -59 -60 0 -20 -15 -44 -52 -85 -28 -31 -65 -77 -82 -102 -114 -170 -146 -220 -169 -267 -15 -30 -27 -58 -27 -63 0 -6 -12 -36 -27 -67 -29 -62 -40 -110 -78 -362 -19 -124 -27 -223 -31 -400 -12 -454 11 -483 446 -548 93 -14 204 -57 283 -109 103 -68 101 -93 -6 -93 -44 0 -72 -7 -118 -30 -68 -35 -76 -48 -58 -92 21 -52 58 -88 89 -88 45 0 116 36 169 85 47 44 64 51 95 39 22 -8 20 -26 -6 -48 l-22 -19 27 -22 c19 -14 27 -29 25 -45 -4 -29 31 -50 83 -50 32 0 44 -8 88 -56 28 -30 51 -61 51 -67 0 -6 10 -21 22 -34 25 -27 59 -81 88 -139 10 -22 28 -51 38 -65 11 -13 34 -53 52 -89 18 -36 49 -90 70 -121 38 -56 80 -135 80 -151 0 -13 -210 -9 -343 6 -67 8 -174 20 -237 25 -142 14 -269 28 -425 47 -281 34 -634 72 -682 74 -7 0 -13 -6 -13 -14 0 -10 16 -16 52 -20 377 -41 427 -53 226 -55 -89 0 -158 -5 -158 -10 0 -14 41 -19 212 -26 164 -7 198 -2 157 22 -22 13 -16 14 60 9 100 -5 137 -26 46 -26 -32 0 -56 -3 -52 -6 20 -20 146 -34 302 -33 331 3 387 0 727 -40 87 -10 164 -24 172 -30 16 -13 116 -174 116 -187 0 -5 16 -31 35 -58 19 -27 35 -55 35 -62 0 -7 10 -25 23 -41 13 -15 29 -44 37 -63 8 -19 24 -48 37 -63 19 -24 23 -40 23 -97 0 -58 4 -73 24 -97 25 -30 82 -53 128 -53 31 0 84 56 129 135 19 34 39 57 52 60 12 2 69 13 127 25 58 12 149 35 203 51 l99 30 66 -19 c176 -51 290 -72 399 -72 105 0 309 20 463 45 158 26 204 29 217 14 6 -8 29 -48 51 -89 22 -41 63 -118 92 -170 29 -52 57 -104 62 -115 5 -11 21 -41 36 -67 15 -26 48 -87 73 -135 25 -49 111 -200 191 -338 80 -137 161 -279 180 -315 20 -36 64 -114 98 -175 85 -150 85 -149 136 -240 67 -120 68 -125 58 -135 -10 -10 -305 3 -419 19 -187 26 -661 57 -1020 66 -617 15 -648 16 -1000 40 -115 8 -275 20 -355 25 -80 6 -248 14 -375 20 -126 5 -275 14 -330 20 -55 5 -174 14 -265 20 -91 6 -212 15 -270 21 -232 21 -881 59 -893 52 -4 -2 -7 -17 -7 -33 0 -35 9 -37 235 -45 88 -3 223 -10 300 -16 160 -12 207 -14 475 -29 107 -6 251 -15 320 -20 69 -5 190 -12 270 -15 80 -3 226 -10 325 -15 99 -6 302 -17 450 -25 149 -8 329 -17 400 -20 72 -3 209 -10 305 -15 96 -5 328 -17 515 -25 187 -9 441 -22 565 -30 124 -8 286 -17 360 -20 74 -3 167 -10 205 -15 39 -5 109 -15 158 -21 96 -12 115 -23 152 -84 98 -166 99 -167 80 -181 -9 -7 -47 -15 -83 -19 -37 -3 -123 -13 -191 -21 -69 -9 -177 -17 -240 -19 -107 -2 -122 -5 -186 -35 -111 -51 -164 -70 -195 -70 -16 0 -40 -5 -54 -11 -19 -9 -32 -9 -56 1 -27 11 -34 10 -68 -14 -21 -14 -44 -26 -50 -26 -7 0 -25 -9 -41 -21 -21 -15 -39 -19 -77 -17 -47 3 -49 4 -49 32 0 41 -35 52 -93 30 -55 -21 -125 -14 -156 15 -28 26 -50 27 -92 0 -31 -19 -48 -20 -231 -19 -109 1 -243 3 -298 5 -55 2 -266 6 -470 9 -203 3 -482 8 -620 11 -137 3 -360 8 -495 10 -604 11 -833 16 -1092 21 -272 6 -278 6 -278 -14 0 -19 11 -19 373 -26 204 -4 532 -11 727 -16 751 -20 1285 -30 1805 -35 510 -5 687 -12 850 -34 109 -14 122 -24 88 -65 -12 -14 -9 -13 10 4 27 24 35 25 125 22 94 -2 162 -16 162 -31 0 -14 -33 -75 -57 -107 -29 -39 -29 -56 0 -52 16 2 26 14 35 45 8 26 26 52 47 67 33 25 33 25 160 16 73 -5 133 -14 141 -21 25 -20 45 -68 42 -97 -2 -20 2 -28 17 -30 26 -6 44 -31 45 -63 0 -14 5 -40 11 -57 9 -27 6 -38 -20 -89 l-31 -58 23 -6 c25 -6 26 -38 2 -75 -23 -35 -106 -42 -127 -11 -4 7 -24 4 -54 -8 -72 -27 -322 -25 -387 3 -33 15 -48 28 -53 46 -5 20 -12 26 -35 26 -34 0 -37 -12 -9 -40 25 -25 26 -47 2 -54 -17 -5 -375 -13 -907 -21 -165 -2 -415 -6 -555 -9 -140 -3 -421 -8 -625 -11 -203 -4 -451 -8 -550 -10 -99 -2 -422 -7 -717 -11 l-538 -7 0 -28 c0 -27 1 -27 53 -24 28 3 248 7 487 10 239 3 617 10 840 15 223 5 655 14 960 20 305 5 783 14 1062 20 367 7 514 7 531 -1 18 -8 30 -8 47 1 27 15 579 30 654 18 27 -4 56 -3 65 1 30 16 593 14 618 -2 7 -4 42 1 79 13 94 28 148 26 220 -10 58 -28 61 -32 128 -152 38 -68 83 -145 101 -173 35 -53 135 -231 135 -241 0 -3 18 -32 40 -65 50 -75 90 -159 90 -187 0 -12 4 -22 9 -22 17 0 65 -70 55 -79 -5 -5 -74 -20 -154 -34 l-144 -25 -37 41 c-21 22 -35 46 -32 53 2 7 32 15 66 19 73 9 110 24 57 24 -19 0 -53 -4 -75 -10 -22 -6 -76 -15 -119 -20 -44 -5 -81 -11 -84 -13 -2 -3 10 -22 27 -43 35 -42 40 -69 14 -77 -40 -12 -174 -35 -263 -46 -52 -6 -122 -16 -155 -22 -190 -33 -302 -43 -330 -28 -31 17 -66 75 -58 96 5 14 -9 15 -128 8 -74 -4 -144 -11 -157 -15 -48 -18 -112 -11 -144 16 -34 29 -51 28 -57 -1 -6 -35 -22 -42 -109 -48 -216 -15 -340 -28 -391 -42 -30 -8 -78 -14 -106 -14 -51 0 -322 -24 -429 -39 -56 -7 -60 -6 -88 21 -33 32 -51 32 -56 1 -3 -22 -40 -43 -75 -43 -12 0 -29 -5 -37 -10 -11 -7 -2 -10 33 -10 65 0 58 -23 -9 -31 -27 -4 -66 -15 -87 -25 -38 -18 -39 -18 -53 0 -17 24 -4 42 40 56 23 7 9 9 -59 5 -134 -8 -345 -28 -340 -33 2 -3 45 -4 94 -3 101 2 99 4 127 -87 24 -81 21 -89 -38 -101 -170 -33 -700 -77 -776 -65 -37 6 -38 7 -66 89 -16 46 -26 87 -22 93 3 5 43 12 88 15 258 18 378 29 423 36 l50 9 -70 1 c-38 1 -169 -8 -290 -18 -121 -11 -281 -25 -355 -31 -74 -6 -229 -20 -345 -31 -115 -11 -302 -26 -415 -34 -336 -23 -681 -49 -897 -66 l-143 -12 0 -43 c0 -51 -11 -49 170 -34 63 6 212 17 330 25 118 9 307 23 420 33 294 26 343 23 670 -39 184 -34 246 -41 426 -46 124 -3 246 -1 320 6 158 16 525 60 545 67 23 6 49 -5 49 -22 0 -37 51 -113 96 -142 52 -35 83 -41 239 -47 122 -4 205 -14 205 -25 0 -10 -202 -27 -575 -50 -308 -19 -481 -30 -760 -50 -71 -5 -179 -12 -240 -15 -60 -3 -166 -10 -235 -15 -221 -17 -439 -31 -695 -45 -239 -13 -375 -23 -640 -45 -66 -6 -152 -10 -191 -10 -111 0 -134 -7 -134 -41 0 -29 1 -29 57 -29 58 0 540 32 758 50 223 18 379 30 555 40 96 6 238 15 315 20 77 6 241 17 365 25 124 8 392 26 595 40 204 14 438 30 520 35 83 5 242 16 355 25 403 32 863 63 1540 105 85 6 180 12 210 15 30 3 98 7 150 11 52 3 138 9 190 14 52 4 154 13 225 20 72 6 254 20 405 29 220 15 279 16 295 6 11 -7 34 -39 51 -71 17 -33 42 -78 57 -102 15 -23 35 -59 44 -80 10 -20 23 -44 29 -52 7 -8 41 -65 75 -125 34 -61 78 -138 97 -172 l36 -63 423 0 423 0 -30 58 c-17 31 -45 80 -62 107 -17 28 -48 79 -68 115 -20 36 -64 112 -97 170 -56 96 -61 111 -65 178 -6 85 0 92 79 93 26 0 71 4 98 9 110 20 687 39 1038 34 313 -4 741 -19 852 -29 22 -2 124 -9 226 -14 198 -11 227 -18 306 -73 24 -16 58 -36 76 -44 17 -8 52 -28 77 -44 55 -36 110 -62 123 -57 12 4 -114 81 -253 155 -34 18 -60 38 -57 45 5 14 732 18 1137 5 140 -4 345 -10 455 -13 110 -4 234 -11 275 -17 41 -5 86 -9 100 -8 24 2 647 12 910 14 107 1 1029 -15 1145 -20 22 0 197 -2 389 -3 l348 -1 37 -38 c20 -20 53 -64 74 -97 20 -33 64 -98 97 -145 97 -137 133 -189 165 -239 17 -26 41 -61 55 -78 14 -17 30 -38 35 -47 9 -15 42 -16 348 -14 l339 3 -49 66 c-26 37 -66 92 -88 123 -22 32 -63 87 -90 124 -28 37 -68 92 -88 122 -21 30 -54 77 -73 103 -20 27 -33 55 -30 63 7 19 62 40 125 49 50 7 131 -7 156 -26 6 -4 28 -11 50 -15 22 -4 58 -13 80 -21 22 -8 99 -32 170 -54 72 -22 193 -60 270 -84 352 -111 659 -197 774 -216 29 -6 63 -15 75 -21 11 -6 37 -15 56 -19 19 -4 60 -17 90 -28 62 -22 261 -66 415 -91 28 -5 84 -18 125 -30 97 -28 171 -40 295 -47 77 -4 97 -2 88 7 -15 16 -185 60 -229 60 -19 0 -51 7 -70 15 -20 8 -40 13 -44 10 -4 -2 -45 6 -91 19 -46 13 -115 27 -154 30 -38 3 -88 13 -111 20 -22 8 -85 22 -140 31 -54 9 -113 20 -129 25 -17 5 -57 14 -90 19 -33 5 -87 19 -120 30 -275 91 -376 124 -410 131 -51 10 -235 64 -345 100 -47 16 -105 33 -130 40 -25 6 -101 29 -170 50 -69 22 -143 44 -165 50 -46 11 -72 26 -63 35 3 3 75 10 159 16 85 5 188 11 229 14 41 3 111 7 155 10 44 3 184 12 310 21 127 9 302 19 390 24 88 4 223 13 300 19 77 6 248 18 380 26 132 8 276 19 320 25 44 5 175 14 290 20 116 6 239 15 275 20 36 5 148 14 250 20 102 7 199 14 215 16 17 2 100 9 185 14 85 5 191 14 235 20 44 6 125 12 180 14 55 3 148 8 208 12 l107 7 0 30 0 30 -57 -7 c-32 -4 -107 -11 -168 -16 -152 -13 -311 -27 -435 -40 -58 -5 -145 -12 -195 -14 -49 -2 -130 -9 -180 -15 -49 -6 -153 -15 -230 -20 -139 -10 -238 -18 -575 -46 -96 -8 -224 -17 -285 -20 -60 -3 -193 -12 -295 -20 -207 -16 -471 -34 -570 -40 -193 -11 -300 -17 -630 -39 -556 -37 -732 -46 -750 -36 -10 6 -27 10 -36 10 -40 0 -249 74 -266 94 -58 69 -118 160 -114 173 8 20 71 13 151 -17 36 -13 94 -24 145 -28 59 -3 96 -11 120 -25 19 -11 60 -26 90 -34 65 -16 502 -40 543 -29 16 4 46 25 68 47 l39 39 242 -2 c233 -3 245 -2 291 19 52 24 74 25 1007 27 1084 2 1294 3 1385 10 55 5 127 9 160 11 33 1 103 7 155 13 52 5 102 10 110 10 41 0 156 16 166 23 6 5 34 5 62 0 l52 -8 0 38 c0 41 6 40 -85 18 -22 -5 -76 -11 -120 -13 -44 -2 -102 -7 -130 -10 -27 -4 -102 -8 -165 -11 -63 -2 -185 -9 -270 -16 -85 -6 -182 -13 -215 -16 -33 -2 -370 -5 -750 -8 -379 -2 -874 -5 -1100 -7 l-410 -3 0 -25 c0 -24 -3 -25 -66 -28 -75 -3 -119 10 -126 38 -5 21 -51 35 -81 26 -11 -4 -18 -15 -18 -29 1 -19 -5 -22 -39 -25 -51 -4 -112 14 -124 37 -5 9 -27 23 -48 29 -48 14 -259 32 -296 25 -31 -6 -178 13 -220 29 -20 8 -31 8 -40 -1 -6 -6 -35 -11 -65 -11 -49 0 -53 -2 -47 -20 6 -19 2 -20 -77 -20 -57 0 -90 5 -104 14 -18 14 -17 15 19 30 20 9 37 23 37 31 0 33 195 72 475 94 289 23 384 33 520 51 77 11 208 26 290 35 83 8 184 19 225 25 109 13 254 29 340 35 41 3 98 10 125 15 28 5 129 16 225 25 96 9 222 22 280 30 107 14 361 18 593 9 169 -6 581 11 604 26 14 8 -20 9 -137 3 -186 -9 -612 -5 -623 7 -5 4 -4 11 2 15 25 15 672 39 991 37 121 -1 170 2 185 12 17 11 28 11 70 -1 49 -14 120 -24 160 -23 11 1 64 3 118 6 l97 5 0 35 c0 37 -6 40 -60 24 -24 -7 -57 -7 -107 1 -54 9 -80 9 -100 0 -16 -6 -89 -13 -164 -16 -75 -2 -196 -9 -270 -14 -74 -6 -186 -10 -249 -10 -63 -1 -152 -4 -196 -7 -53 -4 -84 -3 -88 4 -9 15 69 30 339 67 61 8 157 22 215 31 58 9 133 20 168 25 35 4 67 11 73 15 6 3 43 7 83 9 41 2 82 8 92 14 25 13 134 32 145 25 17 -10 119 26 119 42 0 13 -8 15 -42 11 -24 -4 -97 -11 -163 -17 -66 -6 -129 -16 -140 -23 -11 -6 -81 -19 -155 -29 -74 -10 -157 -22 -185 -28 -27 -5 -113 -18 -190 -30 -77 -11 -210 -32 -295 -46 -85 -14 -200 -32 -255 -39 -55 -8 -147 -22 -205 -31 -87 -14 -189 -17 -610 -18 -278 0 -576 2 -662 5 -131 5 -158 4 -162 -8 -4 -10 -23 -14 -68 -13 -35 1 -371 1 -748 1 -377 1 -743 2 -815 5 -71 2 -141 3 -155 3 -108 -4 -220 10 -220 27 0 7 5 16 10 19 26 16 -4 21 -52 9 -29 -8 -59 -14 -68 -14 -38 0 -215 232 -193 254 4 3 42 6 85 6 72 0 99 10 63 24 -23 9 -18 24 14 41 21 10 28 20 24 34 -4 16 4 22 51 37 47 15 62 16 89 6 47 -17 122 -15 137 3 13 15 6 35 -13 35 -7 1 -30 9 -52 20 -22 11 -48 19 -57 20 -21 0 -50 28 -43 41 9 14 53 11 87 -7 22 -12 46 -15 80 -11 64 8 160 -8 175 -30 11 -14 35 -16 201 -14 180 2 391 -11 1007 -65 99 -9 227 -17 285 -18 103 -3 475 -20 675 -31 299 -17 588 -22 1105 -17 848 7 1068 16 1368 54 88 11 92 13 92 36 0 22 -3 24 -36 17 -38 -7 -263 -25 -369 -30 -33 -1 -109 -7 -170 -13 -350 -35 -1464 -34 -2105 1 -63 4 -173 10 -245 13 -77 3 -141 11 -158 19 -19 9 -37 11 -58 5 -49 -14 -1038 51 -1129 74 -31 8 -104 14 -166 14 -61 1 -149 5 -195 11 -196 25 -317 43 -361 52 -25 6 -66 7 -91 4 -33 -5 -64 0 -126 18 l-82 26 -42 -19 c-57 -26 -72 -25 -104 10 -29 33 -66 39 -97 15 -21 -16 -46 -4 -46 22 0 8 -4 23 -10 33 -8 15 -15 17 -47 8 -72 -18 -87 -3 -219 203 -17 27 -38 57 -46 66 -22 25 -48 79 -42 86 3 3 -6 13 -20 23 -36 23 -136 170 -136 199 0 14 -7 26 -18 29 -22 7 -37 27 -179 239 -62 92 -127 186 -146 210 -19 23 -55 74 -81 112 -25 39 -62 92 -81 119 -20 27 -34 54 -32 60 3 7 26 10 58 9 54 -2 150 14 244 42 28 8 95 19 150 25 397 43 432 48 356 49 -41 1 -102 -3 -135 -9 -34 -5 -117 -14 -186 -20 -69 -6 -163 -15 -210 -20 -47 -5 -135 -13 -195 -16 -107 -7 -112 -6 -138 17 -32 27 -54 99 -34 111 7 4 22 8 35 8 12 0 22 4 22 10 0 5 17 14 38 19 61 17 281 44 304 38 12 -4 34 1 50 11 36 21 62 7 66 -37 2 -17 9 -31 15 -31 18 0 99 57 133 94 23 26 42 35 80 40 53 8 106 17 404 72 287 53 618 68 875 38 132 -15 554 -22 735 -13 125 6 395 -3 406 -14 4 -4 5 -9 2 -12 -6 -6 -447 -65 -858 -115 -194 -24 -277 -44 -145 -35 82 6 367 37 510 55 44 6 118 15 165 20 47 5 119 15 160 20 180 26 427 52 571 60 85 5 207 13 270 18 63 5 276 8 474 6 198 -2 373 -4 388 -4 23 0 27 -3 22 -19 -5 -18 -3 -18 47 -6 29 7 78 23 108 35 52 22 72 24 395 30 372 7 371 7 415 -51 14 -18 30 -37 35 -43 6 -6 32 -40 58 -76 66 -90 128 -172 267 -352 12 -15 18 -32 15 -38 -4 -6 -31 -25 -61 -41 -30 -17 -54 -37 -54 -44 0 -14 39 -29 103 -41 26 -4 44 -2 62 10 13 9 30 16 38 16 14 0 77 -63 152 -153 53 -65 51 -76 -15 -77 -45 0 -65 -13 -56 -35 5 -15 15 -16 54 -11 104 13 97 15 95 -26 -2 -34 0 -38 21 -38 40 0 56 -11 77 -51 11 -22 24 -39 29 -39 5 0 25 -14 45 -31 36 -32 44 -59 23 -76 -25 -19 -192 -33 -598 -49 -47 -1 -107 -5 -135 -8 -27 -3 -151 -13 -275 -21 -124 -9 -272 -21 -330 -26 -207 -21 -324 -22 -359 -5 -17 9 -31 21 -31 25 0 22 -53 71 -77 71 -22 0 -24 -3 -19 -22 18 -64 18 -76 0 -86 -11 -5 -145 -15 -299 -21 -154 -6 -312 -14 -352 -17 -68 -6 -73 -5 -96 20 -31 33 -71 34 -101 1 -25 -27 -125 -75 -155 -75 -10 0 -46 -19 -81 -43 -173 -117 -253 -143 -286 -92 -11 17 -25 25 -44 25 -34 0 -42 -18 -24 -51 21 -37 18 -43 -32 -68 -94 -45 -153 -108 -140 -149 7 -20 66 -62 87 -62 25 0 199 73 271 113 36 20 87 56 114 80 l48 43 -17 43 c-12 29 -14 47 -8 59 5 10 49 37 98 60 75 35 106 44 208 56 66 9 145 15 175 15 30 0 242 7 470 16 228 9 645 18 925 20 281 3 573 6 650 8 195 6 250 -6 143 -31 -29 -7 -66 -17 -83 -22 -50 -16 82 -3 193 19 53 11 145 25 205 32 l107 12 0 217 0 217 -45 45 c-25 25 -45 54 -45 65 0 11 -17 32 -39 48 -21 17 -49 45 -62 64 -13 19 -48 61 -77 93 -55 59 -64 90 -27 96 30 6 45 22 45 47 0 38 -23 48 -94 41 l-63 -6 -84 102 c-46 56 -100 120 -119 142 -55 63 -120 152 -120 163 0 15 47 33 86 33 19 0 65 5 102 10 37 6 155 15 262 20 252 12 280 16 280 42 0 20 -3 20 -122 12 -68 -4 -157 -9 -198 -9 -41 -1 -160 -12 -265 -24 -186 -21 -190 -21 -215 -3 -14 11 -26 26 -28 35 -6 30 39 41 188 44 80 2 159 7 175 12 17 5 104 12 195 15 230 8 270 14 270 38 0 18 -6 19 -87 13 -212 -14 -465 -29 -553 -31 -52 -1 -111 -7 -130 -13 -19 -6 -54 -11 -77 -11 -33 0 -46 5 -63 27 -24 30 -14 43 33 43 63 0 0 35 -100 55 -17 3 -38 16 -46 28 -8 12 -38 47 -67 77 -60 63 -196 229 -234 285 -18 26 -24 45 -20 61 5 20 2 24 -19 24 -30 0 -55 26 -39 42 5 5 122 38 259 72 356 89 357 90 403 82 35 -6 41 -4 37 9 -9 21 14 31 155 65 113 29 312 81 433 116 28 8 65 17 83 20 22 5 32 12 32 25 0 25 -14 24 -134 -10 -110 -32 -382 -105 -541 -146 -55 -15 -122 -26 -150 -27 -34 0 -55 -6 -66 -17 -9 -9 -43 -23 -75 -30 -32 -7 -70 -17 -82 -22 -56 -22 -263 -68 -335 -75 -73 -6 -80 -5 -102 16 -26 25 -65 116 -65 153 0 12 11 41 24 64 l25 43 -39 -20 c-48 -25 -57 -25 -112 0 -31 13 -51 31 -67 60 -27 49 -20 64 40 82 22 6 39 15 39 20 0 20 -65 68 -92 68 -42 0 -41 14 4 69 30 37 61 61 112 86 39 20 94 49 121 66 90 56 179 97 250 114 39 9 142 36 230 60 132 37 173 44 233 42 72 -2 74 -1 100 31 15 18 33 32 41 32 17 0 240 60 371 100 52 16 134 39 183 51 72 18 87 25 87 41 0 24 -9 22 -185 -27 -66 -19 -156 -44 -200 -56 -110 -29 -130 -35 -210 -58 -44 -13 -100 -21 -152 -21 -76 0 -82 2 -89 23 -4 12 -7 29 -6 37 4 28 -51 69 -114 86 -32 8 -69 21 -81 29 -25 17 -40 70 -24 89 9 11 2 19 -34 41 -53 30 -129 40 -130 15 0 -8 -4 -29 -8 -46 -6 -22 -3 -44 7 -69 20 -46 20 -69 2 -84 -21 -18 -5 -63 27 -79 15 -7 25 -17 22 -23 -7 -10 -142 -91 -237 -142 -33 -17 -68 -37 -77 -42 -112 -70 -236 -126 -321 -144 -52 -12 -110 -26 -128 -32 -30 -10 -38 -8 -73 16 -21 15 -64 57 -95 93 -42 50 -55 71 -51 89 4 20 -3 29 -37 50 -22 14 -53 41 -69 59 -15 18 -37 36 -50 40 -31 9 -87 53 -87 68 0 21 -62 60 -110 67 -65 10 -75 2 -40 -31 17 -15 30 -38 30 -49 0 -16 8 -23 30 -27 20 -4 35 -16 45 -37 22 -44 19 -62 -16 -91 -26 -23 -30 -30 -24 -58 13 -59 12 -119 -3 -127 -11 -6 -12 -12 -2 -27 23 -35 91 -83 128 -90 57 -10 80 -35 45 -49 -10 -4 -90 -24 -178 -46 -88 -22 -191 -48 -230 -59 -89 -24 -395 -103 -545 -140 -63 -16 -227 -57 -365 -91 -214 -54 -262 -63 -333 -62 -69 1 -83 -1 -78 -13 8 -22 -38 -39 -214 -80 -85 -19 -182 -42 -215 -50 -33 -7 -103 -23 -155 -34 -52 -11 -117 -27 -145 -35 -53 -15 -327 -77 -558 -125 -76 -16 -155 -34 -175 -39 -20 -6 -89 -22 -152 -36 -63 -14 -131 -30 -150 -35 -19 -5 -82 -19 -140 -31 -58 -11 -177 -38 -265 -59 -88 -20 -210 -48 -271 -60 l-110 -22 -40 20 -40 20 1 -26 c0 -25 -5 -28 -85 -49 -47 -12 -97 -19 -112 -17 -16 3 -37 -2 -54 -13 -18 -11 -50 -18 -95 -20 -43 -1 -77 -8 -91 -17 -12 -9 -39 -16 -58 -16 -33 0 -40 6 -82 64 -62 85 -78 119 -78 158 0 32 4 35 98 81 53 26 103 47 110 47 7 0 42 32 78 70 37 38 74 70 84 70 18 0 35 -16 55 -50 14 -25 166 -204 177 -208 37 -15 -66 152 -130 210 -23 21 -42 41 -42 44 0 3 -11 20 -25 38 -14 18 -25 37 -25 42 0 6 -20 38 -45 72 -25 34 -45 68 -45 75 0 8 -10 27 -22 42 -22 28 -63 101 -96 170 -22 46 -46 70 -62 60 -16 -10 -12 -25 15 -57 15 -17 25 -42 25 -60 0 -35 -19 -34 -37 2 -6 13 -19 27 -27 32 -9 5 -16 15 -16 22 0 7 -18 36 -40 64 -44 55 -48 67 -24 76 28 11 42 6 71 -24 15 -17 31 -30 35 -30 13 0 8 34 -7 54 -8 11 -15 30 -15 43 0 13 -7 26 -15 29 -8 3 -17 15 -21 26 -6 19 -12 20 -76 14 -86 -8 -111 4 -79 38 l21 22 -53 56 c-29 31 -65 62 -80 67 -16 6 -73 14 -128 17 -54 4 -103 12 -107 18 -18 23 -35 97 -26 106 9 9 130 -11 254 -43 30 -8 87 -20 125 -26 39 -7 95 -18 125 -25 199 -50 411 -96 435 -96 47 1 -21 22 -177 56 -258 55 -372 80 -538 118 -85 20 -192 45 -238 55 -45 11 -95 27 -110 38 -18 12 -46 18 -87 19 -87 1 -281 45 -305 70 -11 10 -39 49 -62 86 -24 36 -64 98 -90 137 -43 63 -53 101 -28 101 4 0 10 6 13 14 4 11 -3 13 -33 9 -36 -5 -40 -3 -68 38 -17 24 -41 57 -53 72 -14 19 -18 32 -12 38 6 6 59 15 119 20 378 33 437 41 814 125 122 26 255 44 455 59 262 20 446 40 575 62 58 10 141 18 185 18 83 0 77 1 395 -100 138 -44 215 -57 115 -19 -38 14 -83 29 -100 33 -26 7 -154 48 -264 85 -19 6 -34 15 -35 21 -1 5 80 22 179 36 99 14 216 33 260 41 44 9 118 22 165 28 213 31 521 99 744 167 27 8 110 30 185 49 146 38 162 38 261 3 76 -26 107 -24 51 4 -56 27 -61 43 -19 50 18 3 76 13 128 21 182 30 226 38 395 73 198 40 269 57 460 108 77 20 221 55 320 76 99 21 191 43 205 48 36 15 133 38 230 55 321 59 567 125 935 251 105 36 224 72 265 81 195 40 406 87 515 115 66 17 149 37 185 45 65 15 200 55 400 119 159 51 461 137 498 143 31 4 32 6 32 48 0 49 -12 54 -67 33 -27 -10 -146 -37 -353 -79 -108 -22 -165 -35 -335 -80 -125 -32 -144 -38 -465 -144 -107 -35 -267 -81 -355 -101 -88 -20 -236 -59 -328 -86 -93 -28 -219 -61 -280 -75 -205 -45 -453 -109 -561 -144 -17 -5 -94 -30 -171 -56 -157 -51 -303 -89 -385 -99 -129 -15 -342 -48 -435 -66 -142 -29 -534 -124 -730 -178 -106 -29 -312 -64 -348 -58 -43 7 -257 83 -270 96 -7 7 -2 13 17 21 15 5 32 10 38 10 23 0 271 63 438 111 213 62 363 96 495 114 176 24 238 34 340 54 163 33 301 66 460 111 83 24 206 56 275 72 122 28 202 49 325 88 33 10 132 35 220 55 88 20 201 48 250 62 139 38 525 162 570 182 61 28 285 86 425 110 149 26 413 86 490 111 30 9 96 29 145 44 50 15 140 44 200 66 61 21 155 50 210 64 204 52 185 42 185 93 0 44 -1 45 -27 40 -16 -3 -91 -19 -167 -36 -121 -26 -187 -42 -391 -92 -85 -20 -354 -102 -495 -150 -63 -21 -221 -66 -350 -98 -129 -33 -266 -69 -304 -81 -38 -12 -132 -37 -210 -55 -207 -49 -489 -130 -586 -170 -190 -77 -429 -147 -565 -164 -105 -14 -505 -93 -585 -116 -30 -9 -86 -24 -125 -34 -38 -10 -105 -28 -147 -39 -42 -12 -132 -32 -200 -46 -160 -33 -230 -49 -358 -80 -58 -14 -161 -35 -230 -45 -195 -31 -375 -68 -518 -107 l-62 -16 -94 31 c-51 17 -116 40 -142 52 -27 11 -67 27 -89 34 -22 7 -83 29 -135 48 -52 19 -183 66 -290 105 -107 39 -231 84 -275 101 -124 46 -341 125 -555 202 -107 39 -251 92 -320 119 -69 27 -168 64 -220 84 -52 19 -122 45 -156 59 -33 13 -85 30 -115 37 -30 7 -65 22 -79 34 -14 13 -59 35 -100 51 -72 27 -160 67 -263 120 -26 14 -51 25 -56 25 -9 0 -143 63 -506 240 -104 51 -260 126 -345 166 -85 41 -166 81 -180 89 -14 9 -47 25 -75 37 -27 12 -106 50 -175 84 -69 34 -219 108 -335 164 -115 56 -273 133 -350 170 -77 37 -243 118 -370 179 -126 61 -239 117 -250 123 -26 15 -162 82 -310 153 -240 115 -706 345 -1955 962 -549 272 -817 405 -845 421 -11 6 -231 115 -490 242 -258 127 -481 237 -495 245 -14 7 -47 25 -75 39 -27 15 -59 38 -71 52 -30 37 -80 47 -245 51 l-147 4 -21 -34 c-27 -44 -27 -67 -1 -67 13 0 28 12 38 30 16 29 56 50 69 37 3 -4 -4 -22 -16 -42 -11 -20 -21 -42 -21 -50 0 -23 30 -26 48 -4 67 79 97 95 122 64 7 -8 20 -15 30 -15 24 0 87 -27 96 -41 10 -17 -17 -30 -53 -25 -44 6 -46 -22 -3 -31 17 -3 40 -17 50 -31 25 -31 80 -72 97 -72 8 0 13 10 11 28 -2 33 10 72 22 72 5 0 62 -26 127 -59 65 -32 186 -91 268 -131 83 -40 166 -82 185 -92 19 -10 89 -45 155 -77 208 -100 778 -381 835 -412 30 -16 84 -43 120 -60 36 -17 169 -82 295 -144 127 -62 320 -156 430 -210 110 -53 313 -152 450 -220 265 -131 607 -297 740 -360 44 -21 143 -68 220 -106 77 -37 183 -88 235 -113 52 -25 102 -50 110 -55 8 -5 51 -26 95 -47 44 -20 179 -85 300 -144 287 -140 503 -244 645 -312 63 -31 174 -84 245 -118 72 -34 186 -89 255 -122 69 -33 202 -97 295 -143 94 -45 276 -133 405 -195 129 -61 280 -133 335 -159 55 -27 142 -68 193 -92 85 -41 106 -59 83 -73 -5 -3 -8 -35 -7 -72 2 -73 10 -84 66 -84 19 0 41 -4 48 -9 21 -13 8 -21 -377 -242 -85 -49 -156 -89 -158 -89 -3 0 -23 -13 -46 -28 -82 -55 -366 -212 -384 -212 -10 0 -90 23 -178 51 -88 28 -194 61 -235 74 -41 13 -169 56 -285 95 -115 39 -252 83 -304 97 -51 14 -100 32 -110 42 -9 9 -50 27 -91 40 -41 13 -101 35 -133 48 -32 12 -63 23 -68 23 -5 0 -31 11 -58 24 -27 13 -62 27 -78 30 -60 15 -148 68 -177 107 -33 43 -43 46 -72 24 -10 -8 -27 -15 -37 -15 -18 0 -185 63 -332 124 -44 19 -136 56 -205 82 -69 26 -134 53 -145 60 -11 7 -76 33 -145 59 -68 26 -190 74 -270 107 -80 33 -172 70 -205 83 -33 12 -168 66 -300 120 -249 101 -262 106 -435 174 -58 23 -130 53 -160 66 -30 14 -73 31 -95 39 -22 8 -69 26 -105 40 -36 15 -108 44 -160 65 -52 22 -177 73 -277 116 -101 42 -215 87 -254 101 -40 14 -93 36 -118 48 -25 13 -57 27 -71 31 -14 4 -88 34 -165 65 -301 124 -474 194 -565 230 -100 40 -274 111 -375 153 -66 28 -367 151 -625 257 -91 37 -192 80 -225 95 -33 15 -82 35 -110 45 -27 10 -95 37 -150 60 -188 79 -240 100 -252 100 -7 0 -34 13 -60 29 -27 16 -61 32 -78 36 -26 6 -162 59 -250 99 -85 38 -107 46 -119 46 -8 0 -39 13 -69 29 -30 16 -72 34 -93 41 -22 7 -48 17 -59 23 -11 6 -54 25 -95 42 -55 22 -78 37 -88 57 -7 15 -32 36 -57 48 -25 12 -53 33 -64 46 -21 27 -58 31 -87 9 -10 -8 -30 -14 -44 -15 -36 0 -314 127 -318 145 -2 8 5 30 16 48 11 17 23 43 27 57 4 14 13 32 20 40 7 8 17 29 23 46 19 58 62 113 114 148 29 19 82 56 118 81 36 26 74 51 85 56 24 11 146 92 310 204 l118 80 -286 3 -286 2 -178 -118 c-98 -65 -240 -160 -317 -212 -157 -107 -157 -107 -249 -168 l-67 -45 -48 13 c-26 8 -78 28 -117 46 -38 17 -124 54 -190 82 -66 28 -134 58 -150 66 -17 9 -35 16 -42 16 -6 0 -24 16 -40 36 -15 19 -43 51 -60 71 l-33 35 -84 -7 c-90 -8 -152 7 -205 47 -13 10 -29 18 -37 18 -7 0 -47 18 -88 41 -54 29 -76 46 -76 60 0 18 -9 19 -162 19 -163 0 -163 0 -128 -18z m479 -193 c37 -13 40 -36 7 -49 -13 -5 -27 -14 -31 -19 -10 -16 -51 -13 -66 5 -11 14 -9 20 19 45 38 34 31 32 71 18z m616 -259 c53 -19 116 -45 150 -60 11 -5 42 -18 70 -28 27 -11 50 -23 52 -29 6 -18 -192 -153 -226 -153 -18 1 -68 71 -101 143 -12 26 -26 50 -31 53 -5 3 -9 13 -9 23 0 10 -9 26 -20 36 -20 18 -26 45 -14 58 4 3 23 -1 43 -9 20 -9 59 -24 86 -34z m900 -127 c-4 -10 -10 -27 -13 -38 -3 -11 -18 -39 -34 -63 -32 -46 -39 -47 -102 -15 -34 18 -31 22 65 88 69 47 96 56 84 28z m-115 -200 c13 -12 11 -22 -19 -81 -56 -111 -84 -166 -91 -182 -27 -57 -61 -127 -70 -140 -19 -31 -50 -104 -50 -121 0 -10 -4 -21 -10 -24 -5 -3 -19 -27 -30 -53 -37 -84 -70 -104 -88 -53 -6 16 -24 48 -41 71 -17 24 -31 48 -31 55 0 7 -9 24 -21 39 -22 28 -89 147 -115 204 -11 24 -12 37 -5 46 10 11 68 51 216 149 22 14 65 44 95 67 30 22 73 49 94 59 39 19 40 19 95 -1 31 -11 63 -27 71 -35z m184 -72 c34 -15 90 -39 126 -51 36 -13 68 -26 72 -29 4 -4 14 -28 22 -54 l14 -48 -40 -46 c-29 -34 -38 -52 -33 -67 3 -12 8 -28 10 -36 2 -8 4 -16 4 -18 2 -6 68 65 73 78 6 18 77 4 85 -16 3 -9 0 -26 -7 -38 -10 -20 -9 -28 6 -51 l18 -27 28 31 c16 18 28 43 28 59 0 15 10 36 23 48 19 18 33 21 102 19 44 -1 89 -6 100 -12 11 -6 126 -54 256 -106 130 -52 254 -104 275 -115 22 -10 50 -22 64 -25 14 -3 34 -13 45 -21 19 -14 18 -16 -25 -67 -35 -41 -45 -62 -45 -89 l0 -35 -45 3 c-25 2 -88 12 -140 23 -181 39 -225 48 -275 54 -27 4 -64 14 -82 23 -18 9 -34 14 -36 12 -2 -3 -7 -23 -10 -46 -7 -41 -6 -41 36 -59 93 -40 147 -68 147 -76 0 -8 -35 -48 -92 -107 -31 -31 -144 -122 -152 -122 -5 0 -28 -17 -51 -37 -23 -21 -68 -56 -100 -78 -31 -22 -77 -56 -102 -76 -24 -20 -64 -46 -88 -58 -25 -12 -48 -28 -52 -36 -5 -7 -30 -31 -58 -54 -49 -41 -144 -78 -171 -67 -8 3 -27 31 -43 63 -15 32 -54 100 -85 150 -31 51 -56 95 -56 98 0 8 -118 214 -141 246 -10 15 -19 34 -19 42 0 8 -6 20 -14 26 -8 6 -19 25 -26 40 -10 24 -8 35 9 70 12 22 21 46 21 54 0 8 9 22 20 32 11 10 20 26 20 35 0 21 136 306 150 315 6 3 15 26 21 50 6 24 22 59 35 76 13 18 24 38 24 44 0 22 60 105 76 105 10 0 44 -13 78 -29z m-1212 -533 c14 -18 37 -59 53 -90 40 -79 33 -84 -92 -68 -187 23 -198 25 -198 38 0 14 182 152 201 152 6 0 23 -15 36 -32z m2739 -92 c68 -29 135 -57 149 -61 31 -9 218 -88 285 -120 28 -13 106 -44 175 -70 68 -25 145 -56 170 -69 25 -12 90 -39 145 -61 349 -134 696 -274 783 -315 46 -22 86 -40 89 -40 9 0 128 -47 180 -71 24 -10 47 -19 53 -19 6 0 18 -4 28 -10 9 -5 40 -18 67 -29 28 -10 158 -62 290 -116 132 -54 258 -104 280 -112 22 -7 49 -18 60 -23 59 -27 192 -81 280 -114 55 -21 129 -51 165 -66 36 -15 115 -47 175 -70 61 -24 146 -57 190 -76 44 -18 125 -51 180 -72 55 -22 163 -65 240 -97 166 -67 250 -101 365 -145 47 -18 123 -48 170 -67 127 -53 188 -78 260 -106 36 -14 106 -42 155 -62 50 -20 133 -52 185 -71 90 -33 229 -89 295 -118 17 -8 53 -22 80 -31 59 -21 165 -75 165 -85 0 -3 -14 -19 -30 -35 -41 -39 -38 -49 13 -42 33 5 51 1 75 -13 18 -11 48 -20 66 -20 18 0 39 -7 46 -15 15 -18 40 -20 40 -2 0 7 -7 22 -15 34 -8 12 -12 24 -8 26 10 6 172 -49 278 -95 75 -32 80 -36 78 -63 -1 -16 3 -35 8 -42 6 -7 8 -25 5 -39 -12 -46 15 -72 76 -76 44 -2 53 -6 56 -23 4 -28 22 -63 56 -113 l30 -42 -22 -30 c-12 -16 -22 -34 -22 -40 0 -19 81 -152 206 -340 24 -36 44 -71 44 -77 0 -18 -47 -50 -280 -188 -118 -71 -238 -143 -265 -162 -28 -18 -56 -33 -64 -33 -8 0 -28 -11 -45 -23 -48 -37 -240 -154 -264 -162 -21 -6 -178 27 -282 60 -25 8 -81 26 -125 39 -44 13 -118 38 -165 56 -47 17 -110 38 -140 45 -30 7 -167 52 -305 99 -137 48 -329 113 -425 146 -96 33 -287 98 -425 145 -137 47 -322 110 -410 140 -88 30 -205 70 -260 90 -55 20 -120 42 -145 49 -168 52 -211 74 -258 139 -22 28 -55 66 -73 83 -19 18 -74 74 -124 125 -82 85 -212 197 -334 289 -207 155 -701 615 -686 639 3 6 16 11 28 11 41 0 131 29 150 48 17 18 18 23 6 56 -7 20 -30 55 -51 78 -21 23 -38 49 -38 58 0 19 -66 147 -90 175 -10 11 -27 38 -39 60 -32 60 -148 225 -189 269 -159 167 -399 248 -777 262 -121 5 -177 11 -196 21 -22 13 -31 13 -79 -1 -32 -10 -90 -16 -144 -16 -117 0 -302 -16 -546 -47 -439 -56 -401 -54 -413 -20 -6 16 -21 25 -74 41 -18 6 -25 1 -38 -24 -33 -64 -138 -98 -335 -106 -30 -1 -84 -7 -118 -14 -35 -6 -66 -9 -70 -6 -11 11 26 73 58 97 18 13 45 36 60 52 15 15 32 27 38 27 5 0 15 7 23 16 7 9 67 57 133 107 67 49 137 102 156 117 57 43 190 143 223 168 17 12 42 22 55 22 13 0 37 14 55 33 18 18 51 46 74 61 39 26 49 28 162 30 l121 3 25 -55 c14 -30 25 -62 25 -71 0 -9 13 -32 29 -51 15 -19 31 -45 35 -58 9 -26 27 -37 79 -46 26 -5 53 -21 82 -49 133 -127 131 -126 252 -121 59 3 108 6 110 8 2 2 -17 34 -43 72 -25 38 -55 85 -66 104 l-20 34 22 18 c45 36 188 14 229 -35 7 -9 18 -14 23 -11 12 8 -19 42 -54 60 -15 8 -46 14 -70 14 -89 0 -165 43 -184 103 -8 24 -2 29 43 36 20 3 38 12 41 19 3 9 -6 11 -35 6 -38 -6 -40 -5 -49 27 -9 30 -21 37 -168 105 -87 40 -160 75 -161 76 -2 2 -6 15 -10 31 -10 39 10 36 156 -27z m9 -240 c0 -8 29 -38 65 -67 36 -29 65 -57 65 -62 0 -6 -7 -19 -17 -29 -22 -24 -93 -25 -93 -1 0 9 -6 24 -14 32 -15 17 -27 141 -14 141 4 0 8 -6 8 -14z m835 -600 c161 -34 157 -33 260 -84 135 -67 228 -168 327 -354 15 -28 34 -58 43 -68 21 -23 19 -47 -6 -60 -11 -7 -38 -27 -59 -47 -29 -25 -43 -32 -55 -26 -20 12 -85 102 -85 119 0 45 -81 58 -131 22 -29 -22 -30 -22 -97 -5 -48 12 -106 17 -202 17 -130 -1 -155 -4 -374 -51 -46 -10 -65 -10 -92 0 -44 16 -74 6 -74 -24 0 -31 -67 -60 -105 -45 -34 13 -32 33 6 63 l31 24 -27 54 c-53 106 -104 139 -218 139 -90 0 -99 9 -92 83 9 91 15 128 20 137 3 5 28 16 56 25 28 10 63 24 78 31 14 8 33 14 41 14 9 0 26 7 39 16 13 9 44 25 70 36 42 17 68 18 286 14 209 -4 255 -7 360 -30z m-719 15 c-3 -5 -18 -12 -32 -15 -14 -4 -38 -16 -53 -26 -14 -11 -48 -25 -74 -32 -43 -11 -54 -10 -117 11 -39 13 -73 21 -77 18 -10 -11 -11 -61 -1 -73 5 -7 11 -57 15 -112 l6 -100 -42 -12 c-57 -15 -85 -44 -76 -78 4 -15 9 -45 12 -66 3 -22 14 -53 24 -70 55 -90 63 -129 30 -153 -37 -25 -43 -48 -25 -93 15 -37 56 -82 86 -93 9 -3 1 -27 -28 -83 -39 -75 -43 -79 -73 -77 -31 1 -225 67 -306 103 -22 10 -74 28 -115 40 -116 34 -130 41 -130 61 0 17 8 19 81 19 l80 0 -18 24 c-10 13 -25 34 -33 46 -8 13 -25 35 -37 50 -12 15 -31 51 -43 80 -19 49 -20 72 -5 112 3 8 -6 27 -20 42 -19 20 -25 35 -21 51 10 38 -5 86 -28 95 -12 5 -59 23 -106 41 -47 17 -90 37 -97 43 -10 8 6 25 64 70 88 68 93 70 238 91 61 9 153 22 205 30 84 13 241 31 490 55 113 10 232 11 226 1z m-292 -103 c10 -37 7 -56 -9 -62 -20 -7 -38 29 -31 60 8 30 32 31 40 2z m-1224 -127 c14 -27 13 -84 -2 -79 -15 5 -45 47 -53 76 -5 19 -3 22 19 22 15 0 30 -8 36 -19z m357 -188 c8 -24 44 -63 58 -63 18 0 72 -63 77 -90 3 -14 8 -32 12 -41 6 -13 -3 -17 -54 -22 -64 -7 -100 3 -100 27 0 8 -6 19 -14 25 -9 8 -12 24 -9 49 3 25 -2 50 -16 76 -11 21 -18 43 -15 47 10 16 54 10 61 -8z m-1179 -44 c2 -10 -30 -40 -84 -82 -88 -68 -114 -80 -114 -51 0 23 90 124 125 139 38 17 69 15 73 -6z m221 -60 c37 -15 57 -33 81 -70 39 -61 130 -239 130 -256 0 -15 -21 -20 -112 -27 -67 -5 -68 -5 -198 60 -110 56 -131 69 -135 92 -3 15 -12 39 -20 54 -13 26 -12 28 48 81 113 98 125 101 206 66z m-521 -171 c-3 -7 -22 -20 -44 -28 -21 -8 -50 -23 -64 -32 -14 -9 -44 -20 -67 -24 -36 -5 -43 -4 -43 10 0 24 76 69 129 77 77 11 93 10 89 -3z m1414 -1 c-16 -19 -3 -57 20 -57 36 0 120 -52 106 -66 -10 -10 -109 28 -121 46 -6 11 -20 20 -29 20 -17 0 -38 28 -38 49 0 5 12 12 28 14 15 2 31 5 36 6 5 0 4 -5 -2 -12z m-1310 -108 c5 -35 -13 -49 -37 -29 -19 16 -19 35 1 54 20 21 31 14 36 -25z m1468 -89 c63 -22 151 -52 195 -66 44 -15 109 -37 145 -49 36 -13 129 -45 208 -71 83 -27 142 -52 142 -59 0 -7 16 -26 35 -42 95 -76 124 -105 118 -120 -3 -8 -53 -38 -110 -65 -100 -49 -104 -52 -98 -78 5 -22 -1 -35 -29 -66 -18 -22 -58 -75 -88 -118 -43 -63 -62 -82 -91 -92 -47 -16 -59 -12 -79 29 -36 74 -89 165 -103 177 -8 7 -15 17 -15 22 0 5 -9 21 -19 36 -10 15 -39 60 -62 101 -24 41 -54 91 -66 110 -13 20 -35 58 -49 86 -15 27 -33 54 -40 60 -7 5 -36 56 -64 112 -29 57 -56 105 -61 109 -13 8 -11 24 4 24 6 0 64 -18 127 -40z m-1962 19 c27 -9 32 -17 42 -67 6 -31 19 -77 30 -102 10 -25 22 -69 26 -98 l6 -52 -51 -46 c-55 -49 -131 -166 -131 -201 0 -41 -31 -63 -118 -83 -46 -10 -85 -20 -86 -22 -23 -28 -22 -45 4 -97 15 -31 31 -72 35 -91 4 -19 17 -70 30 -112 13 -42 21 -79 18 -81 -2 -3 6 -27 20 -54 13 -26 32 -75 41 -108 36 -121 132 -364 172 -438 8 -15 19 -58 23 -95 5 -37 11 -75 16 -84 10 -24 -1 -23 -92 12 -48 19 -138 40 -233 56 -193 32 -227 46 -266 110 l-29 49 -1 190 c-2 366 48 721 130 915 16 36 34 72 42 81 8 8 14 21 14 27 0 12 30 61 108 178 39 59 192 224 208 224 6 0 25 -5 42 -11z m251 -43 c58 -13 83 -36 32 -28 -26 4 -31 0 -55 -51 -28 -60 -36 -69 -52 -59 -11 8 -30 67 -38 120 -5 31 -4 32 27 32 17 -1 56 -7 86 -14z m266 -46 c0 -22 -8 -28 -65 -47 -101 -34 -149 -28 -136 18 9 36 60 56 136 55 62 -1 65 -2 65 -26z m3996 -146 c84 -80 188 -176 230 -212 284 -248 523 -481 635 -618 41 -51 74 -94 74 -98 0 -13 -39 -5 -125 28 -49 18 -151 54 -225 79 -318 108 -353 122 -377 158 -13 18 -23 38 -23 45 0 6 -9 19 -19 28 -11 10 -27 34 -37 54 -9 21 -36 69 -60 108 -24 39 -44 77 -44 85 0 8 -12 31 -26 50 -15 19 -41 66 -60 104 -18 39 -44 85 -58 104 -14 19 -26 40 -26 47 0 6 -9 23 -21 37 -17 23 -19 35 -13 87 4 33 10 60 13 60 4 0 77 -66 162 -146z m6989 -289 c0 -10 -10 -15 -26 -15 -22 0 -25 2 -14 15 7 8 19 15 26 15 8 0 14 -7 14 -15z m324 -100 c116 -42 227 -82 246 -90 19 -8 87 -33 150 -55 117 -42 190 -68 315 -115 39 -15 108 -39 155 -55 47 -15 118 -42 159 -59 41 -17 78 -31 82 -31 5 0 68 -22 141 -49 73 -26 156 -55 183 -64 28 -9 100 -35 160 -58 181 -69 209 -78 227 -79 27 0 128 -53 128 -66 0 -13 -47 -32 -140 -58 -100 -27 -153 -36 -395 -66 -132 -16 -283 -38 -335 -49 -164 -33 -293 -60 -360 -76 -36 -8 -123 -24 -195 -35 -71 -11 -169 -29 -216 -40 -48 -11 -102 -20 -120 -20 -39 0 -155 32 -309 83 -104 35 -583 190 -875 283 -82 26 -156 52 -163 57 -18 14 -1 30 81 75 40 22 113 63 162 92 82 48 263 150 390 220 28 15 72 41 99 59 28 17 59 31 70 31 11 0 30 10 43 22 13 12 45 34 71 48 58 31 66 63 28 113 -30 39 -33 57 -10 57 9 0 111 -34 228 -75z m-8802 -160 c20 -33 37 -67 37 -76 1 -8 12 -26 26 -39 14 -13 25 -31 25 -40 0 -9 4 -20 9 -25 5 -6 27 -44 48 -85 56 -105 107 -200 164 -302 27 -48 49 -90 49 -93 0 -3 11 -23 25 -43 14 -20 25 -44 25 -54 0 -19 -58 -56 -139 -88 -30 -12 -72 -37 -93 -55 -32 -29 -43 -34 -70 -28 -83 15 -101 27 -139 88 -37 60 -90 157 -137 250 -13 28 -34 63 -46 80 -34 49 -116 215 -116 237 0 11 25 63 56 115 49 83 55 99 45 119 -9 20 -7 26 12 39 12 8 28 15 37 15 8 1 35 12 60 25 64 35 79 29 122 -40z m-2968 -41 c36 -14 88 -126 90 -194 1 -35 6 -47 23 -56 64 -32 94 -88 123 -233 20 -96 16 -125 -15 -143 -7 -5 -39 -29 -70 -54 -48 -39 -59 -44 -70 -33 -7 8 -36 70 -65 139 -29 69 -63 150 -77 180 -13 30 -31 80 -38 110 -19 76 -61 222 -69 241 -11 25 15 38 84 42 36 2 66 4 67 5 1 1 8 -1 17 -4z m5287 -91 c60 -54 193 -187 254 -254 l40 -44 -30 -3 c-24 -3 -37 4 -75 46 -25 27 -88 95 -140 151 -92 100 -130 151 -111 151 5 0 33 -21 62 -47z m4356 -73 c486 -158 594 -194 611 -206 18 -13 -4 -29 -128 -96 -36 -19 -104 -58 -151 -86 -47 -29 -93 -52 -101 -52 -17 0 -86 77 -109 122 -27 54 -110 167 -137 188 -22 18 -36 21 -87 17 -33 -3 -80 -9 -105 -15 -32 -7 -49 -7 -59 1 -17 14 -81 114 -81 127 0 5 -11 12 -25 16 -14 3 -25 11 -25 18 0 14 60 65 77 66 7 0 151 -45 320 -100z m-4612 -103 c393 -135 447 -156 461 -174 78 -102 141 -215 180 -321 22 -63 26 -90 27 -190 1 -92 -3 -123 -16 -147 -9 -16 -17 -40 -17 -51 0 -12 -9 -33 -20 -47 -11 -14 -20 -30 -20 -35 0 -6 -31 -42 -69 -80 -107 -107 -229 -163 -516 -237 -219 -56 -303 -84 -400 -130 -76 -36 -106 -44 -193 -54 -145 -16 -192 -14 -225 8 -23 15 -37 17 -80 10 -109 -17 -237 -40 -368 -64 -119 -23 -140 -24 -175 -13 -35 12 -39 16 -39 48 0 32 -4 36 -40 48 -50 17 -164 10 -199 -13 -44 -29 -67 -17 -103 55 -18 35 -33 70 -33 76 0 7 -6 14 -13 17 -7 2 -26 31 -42 63 -17 33 -54 95 -83 139 -29 44 -58 98 -64 120 -6 22 -17 47 -25 56 -21 25 -15 37 25 49 20 7 57 21 80 32 40 18 52 18 155 8 l112 -11 83 35 c120 51 121 51 180 -47 27 -46 53 -94 57 -107 4 -14 19 -41 32 -61 21 -33 33 -39 95 -54 160 -40 483 12 793 127 130 48 264 114 345 169 85 58 166 142 174 181 8 40 -23 107 -94 203 -28 37 -50 75 -50 83 0 9 -17 41 -38 72 -21 30 -47 75 -56 100 -10 25 -21 50 -26 55 -14 17 -80 147 -80 158 0 17 63 1 285 -76z m589 -201 c37 -15 89 -91 149 -217 47 -99 67 -237 47 -326 -29 -131 -52 -182 -125 -268 -41 -48 -105 -95 -105 -78 0 5 19 31 42 58 129 156 152 423 54 622 -14 29 -26 57 -26 61 0 4 -20 39 -45 76 -24 38 -42 72 -39 77 7 12 9 11 48 -5z m5076 -36 c58 -18 165 -52 239 -76 73 -25 175 -56 225 -70 50 -14 96 -30 101 -34 6 -5 29 -13 50 -19 22 -5 90 -26 150 -45 61 -19 168 -53 239 -76 72 -22 132 -42 134 -45 13 -12 -17 -24 -90 -34 -159 -22 -354 -61 -513 -102 -88 -22 -193 -49 -233 -59 -40 -10 -134 -24 -210 -29 -75 -6 -217 -21 -315 -33 -97 -12 -180 -18 -184 -14 -6 6 35 192 57 256 4 14 22 72 40 130 18 58 38 122 46 143 8 20 14 52 14 70 0 25 8 37 33 54 41 29 79 26 217 -17z m-10760 -30 c11 -21 20 -50 19 -62 0 -18 -4 -15 -18 17 -38 85 -39 119 -1 45z m6096 -76 c282 -97 596 -203 1499 -505 347 -116 636 -215 643 -221 9 -8 10 -14 0 -25 -9 -11 -9 -19 0 -34 14 -22 6 -94 -12 -107 -38 -29 -383 -53 -726 -50 -171 2 -341 -2 -425 -10 -156 -13 -353 -28 -582 -42 -102 -6 -189 -18 -260 -36 -161 -38 -390 -54 -918 -62 -258 -4 -474 -6 -479 -4 -32 16 150 72 479 148 148 34 296 102 398 182 145 114 225 291 214 473 -8 121 -22 170 -83 290 -39 76 -41 89 -15 89 10 0 131 -39 267 -86z m4307 12 c5 -14 -26 -144 -63 -261 -10 -33 -28 -93 -40 -132 -13 -44 -27 -73 -35 -73 -7 0 -42 37 -76 83 -34 45 -82 106 -106 136 -41 50 -43 55 -27 72 9 10 35 27 57 39 23 11 92 50 152 85 117 68 130 73 138 51z m3735 -30 c43 -19 92 -37 109 -40 33 -8 60 -31 46 -39 -18 -11 -254 -66 -353 -82 -151 -24 -310 -59 -595 -130 -262 -66 -389 -86 -665 -105 -128 -8 -164 -8 -205 4 -27 8 -68 20 -90 26 -129 37 -202 67 -189 80 14 12 170 38 264 45 194 14 607 84 800 136 41 11 122 28 180 39 58 10 170 32 250 50 205 44 300 59 338 54 18 -3 68 -20 110 -38z m-14083 -36 c17 -33 19 -50 6 -50 -8 0 -31 52 -31 71 0 17 10 9 25 -21z m55 -117 c0 -13 -3 -13 -15 -3 -8 7 -15 19 -15 27 0 13 3 13 15 3 8 -7 15 -19 15 -27z m12085 -179 c91 -25 205 -66 205 -74 0 -13 -21 -18 -172 -40 -79 -12 -183 -30 -233 -40 -49 -10 -139 -24 -200 -30 -60 -7 -171 -23 -245 -36 -74 -13 -209 -31 -300 -39 -91 -9 -191 -20 -222 -25 -32 -6 -86 -15 -120 -20 -35 -6 -132 -25 -216 -41 -152 -31 -186 -32 -176 -6 4 12 -3 14 -38 10 -32 -4 -47 -1 -57 10 -17 22 -8 34 31 39 30 5 100 19 313 63 39 8 90 17 115 20 70 9 218 35 290 51 36 8 118 21 182 29 215 27 408 65 588 115 155 43 152 42 255 14z m-2494 -76 c10 -13 33 -45 50 -71 41 -62 32 -72 -47 -58 -33 6 -89 15 -126 22 -93 15 -102 30 -41 65 26 15 59 36 72 46 32 24 69 23 92 -4z m-248 -148 c180 -25 327 -55 327 -67 0 -7 -8 -13 -18 -13 -10 0 -42 -6 -72 -14 -30 -8 -122 -22 -205 -31 -82 -9 -168 -20 -190 -25 -85 -18 -215 -33 -223 -25 -4 4 -2 9 4 12 6 2 60 33 120 69 107 65 176 104 182 104 2 0 36 -4 75 -10z m452 -146 c9 -9 12 -21 8 -25 -5 -5 -62 -13 -126 -18 -183 -15 -195 7 -22 40 118 22 121 22 140 3z m-1367 -80 c30 -9 28 -21 -10 -44 -41 -25 -83 -27 -74 -4 3 9 6 24 6 35 0 20 31 25 78 13z m1484 -86 c37 -48 68 -114 68 -142 0 -34 -21 -52 -81 -66 -43 -10 -61 -10 -112 3 -34 9 -102 25 -152 36 -265 61 -595 144 -595 151 0 4 109 11 243 15 133 4 305 13 382 20 222 20 219 20 247 -17z m-966 -37 c119 -26 266 -59 334 -76 30 -8 84 -20 120 -28 36 -9 103 -24 150 -35 240 -58 232 -55 214 -71 -11 -11 -177 -67 -224 -76 -19 -3 -72 -15 -118 -27 -59 -14 -98 -18 -133 -13 -45 6 -51 5 -70 -19 -17 -21 -24 -24 -46 -15 -27 10 -103 61 -141 93 -20 17 -27 18 -55 8 -45 -16 -54 -15 -60 8 -6 22 -23 25 -47 10 -12 -7 -12 -12 -2 -22 22 -22 13 -40 -54 -104 -65 -63 -73 -84 -30 -84 26 0 46 -17 46 -41 0 -18 26 -33 41 -24 21 14 141 -75 235 -173 35 -37 45 -42 70 -37 16 3 38 8 49 10 25 5 57 57 49 79 -5 14 -1 16 35 10 39 -6 41 -5 41 20 0 14 -4 26 -10 26 -14 0 -12 34 3 49 10 10 7 16 -13 32 -44 34 -50 40 -50 49 0 16 82 52 165 72 44 11 89 25 100 32 25 16 198 78 284 102 56 15 73 16 140 5 106 -17 141 -29 182 -65 38 -32 206 -277 228 -333 7 -17 30 -51 52 -74 21 -23 39 -46 39 -51 0 -5 23 -43 51 -85 56 -83 57 -99 4 -118 -25 -9 -31 -6 -66 35 -22 25 -47 62 -57 82 -16 35 -20 38 -60 38 -24 0 -56 -7 -72 -15 -25 -13 -30 -22 -30 -51 0 -22 8 -45 20 -58 10 -11 37 -44 58 -71 31 -40 49 -53 92 -67 51 -17 54 -16 78 2 14 11 31 20 39 20 7 0 25 7 38 16 13 8 34 14 46 12 22 -3 34 -19 180 -246 31 -48 97 -149 145 -224 49 -75 125 -194 169 -263 44 -70 100 -156 123 -193 24 -37 52 -83 62 -102 10 -19 27 -44 39 -54 22 -20 27 -41 12 -51 -5 -3 -29 -9 -53 -14 -24 -5 -131 -28 -238 -51 -107 -22 -231 -48 -275 -56 -44 -8 -114 -21 -155 -30 -233 -45 -287 -54 -339 -54 -31 0 -62 -5 -68 -11 -15 -15 -363 -86 -678 -139 -71 -12 -159 -27 -195 -35 -36 -7 -119 -23 -185 -34 -66 -11 -196 -34 -290 -51 -93 -16 -237 -41 -320 -55 -82 -14 -168 -30 -190 -35 -22 -4 -76 -13 -120 -20 -44 -6 -102 -15 -130 -20 -45 -9 -143 -24 -312 -50 -35 -6 -93 -15 -130 -20 -38 -6 -117 -19 -178 -30 -60 -10 -141 -24 -180 -29 -38 -6 -113 -17 -165 -25 -52 -8 -129 -20 -170 -26 -99 -14 -202 -29 -270 -40 -66 -11 -176 -27 -245 -35 -55 -6 -100 -13 -345 -50 -91 -13 -212 -31 -270 -40 -251 -38 -283 -39 -459 -21 -135 13 -177 22 -223 43 l-58 27 -23 -22 c-20 -19 -30 -21 -63 -14 -38 7 -39 10 -48 59 -10 56 -7 54 -124 69 -40 6 -46 11 -86 73 -24 36 -63 102 -87 146 -23 44 -75 135 -115 201 -40 67 -92 157 -115 200 -23 44 -55 97 -71 118 -15 22 -28 45 -28 51 0 6 -16 38 -36 71 -43 70 -60 99 -104 179 -18 33 -61 107 -95 165 -34 58 -82 143 -107 190 -25 47 -62 112 -82 145 -19 33 -43 76 -52 95 -9 19 -41 76 -70 127 -39 66 -53 99 -49 115 4 18 -1 27 -25 40 -19 11 -28 22 -24 32 10 25 32 26 61 2 45 -37 69 -46 122 -46 47 0 121 -15 199 -41 25 -8 45 -8 75 0 35 10 58 8 137 -9 52 -12 118 -25 145 -30 28 -4 72 -14 98 -20 26 -7 50 -10 53 -8 5 5 -45 18 -271 69 -49 11 -121 29 -160 39 -80 21 -191 46 -250 56 -50 9 -105 31 -105 43 0 5 12 14 28 19 151 57 472 169 522 184 19 6 76 24 125 40 50 16 113 36 140 43 28 7 73 20 100 28 305 90 321 95 595 165 41 11 118 25 170 31 207 26 320 43 440 66 69 13 175 31 235 40 61 9 169 27 240 40 170 32 227 42 360 60 107 15 249 40 387 69 82 17 333 42 563 56 94 6 224 19 290 29 66 9 126 15 133 13 7 -2 22 -24 33 -49 30 -67 51 -83 107 -83 26 0 56 7 66 15 11 8 28 15 39 15 10 0 31 13 45 28 15 15 67 52 116 81 82 49 97 55 189 67 56 8 103 17 106 19 7 8 23 6 117 -14z m-6574 -18 c8 -10 35 -56 58 -103 24 -47 52 -97 62 -112 10 -14 18 -31 18 -38 0 -6 14 -31 30 -55 17 -24 30 -46 30 -50 0 -3 12 -24 26 -46 14 -22 24 -48 22 -56 -2 -11 -36 -26 -103 -46 -141 -42 -154 -41 -181 9 -12 22 -36 60 -53 84 -17 24 -31 50 -31 59 0 8 -18 41 -40 72 -22 32 -40 61 -40 67 0 13 33 41 71 60 25 13 37 31 56 81 34 93 47 106 75 74z m4453 -103 c3 -5 5 -10 3 -10 -2 0 -57 -12 -123 -26 -66 -14 -151 -29 -190 -34 -94 -12 -248 -12 -241 -1 4 5 41 17 84 26 42 9 95 21 117 27 76 21 340 34 350 18z m-1035 -70 c0 -14 -42 -30 -105 -40 -46 -7 -466 -29 -929 -48 -204 -8 -229 -2 -182 41 24 23 37 26 139 30 62 3 123 5 137 5 66 -3 724 13 729 17 9 10 211 5 211 -5z m4260 -20 c12 -8 11 -10 -7 -10 -12 0 -25 5 -28 10 -8 13 15 13 35 0z m-5593 -26 c2 -6 -4 -21 -14 -33 -14 -17 -34 -23 -93 -30 -80 -8 -130 0 -150 25 -21 24 1 36 87 44 102 10 166 8 170 -6z m1821 -6 c-6 -17 -40 -24 -228 -48 -186 -23 -315 -46 -378 -66 -23 -8 -66 -14 -94 -14 -46 0 -50 2 -38 14 8 8 69 28 135 45 66 16 147 37 180 46 54 15 213 30 368 34 42 1 58 -2 55 -11z m-2917 -29 c34 -24 36 -34 9 -49 -17 -9 -28 -7 -55 10 -38 24 -41 30 -23 48 17 17 36 15 69 -9z m2009 -18 c0 -10 -12 -13 -145 -35 -49 -8 -148 -25 -220 -38 -150 -26 -215 -27 -304 -4 -71 18 -97 34 -83 48 6 6 131 15 278 22 344 17 474 18 474 7z m12666 -14 c19 -17 25 -29 20 -42 -5 -14 -14 -17 -52 -12 -60 6 -72 25 -38 55 31 28 36 27 70 -1z m-14296 -12 c10 -12 5 -17 -25 -30 -50 -20 -155 -21 -155 0 0 13 20 21 95 38 41 9 73 7 85 -8z m751 -56 c43 -30 57 -44 47 -50 -7 -4 -96 -13 -198 -20 -145 -10 -241 -10 -455 0 -279 12 -335 18 -335 31 0 20 80 32 265 41 110 5 207 12 215 15 21 9 339 33 372 28 15 -2 55 -22 89 -45z m55 37 c10 -8 16 -18 12 -22 -10 -9 -58 12 -58 26 0 14 23 12 46 -4z m4485 -69 c30 -28 85 -72 122 -97 37 -25 67 -52 67 -62 0 -20 -68 -78 -93 -78 -9 0 -48 23 -85 51 -103 79 -112 89 -112 123 0 21 -9 37 -31 55 -34 29 -32 52 4 68 32 15 65 -1 128 -60z m1916 -53 c138 -33 146 -37 138 -74 -5 -23 1 -40 26 -77 17 -26 40 -55 51 -63 18 -15 18 -17 1 -32 -16 -14 -125 -58 -144 -58 -4 0 -27 30 -52 68 -25 37 -70 103 -101 147 -58 83 -65 100 -43 108 6 3 13 6 14 6 1 1 50 -11 110 -25z m-5876 -39 c0 -5 -39 -22 -88 -37 -161 -48 -597 -180 -673 -203 -41 -13 -127 -42 -190 -65 -223 -81 -405 -140 -430 -140 -33 0 -65 23 -58 41 5 14 146 81 418 201 156 69 216 92 396 153 125 42 140 44 295 53 202 12 329 10 330 -3z m13080 5 c10 -6 19 -15 19 -20 0 -9 -62 -30 -142 -49 -90 -21 -88 -11 9 45 63 35 84 40 114 24z m-14206 -20 c66 -5 180 -12 253 -16 109 -5 131 -9 122 -20 -7 -7 -35 -20 -63 -30 -69 -22 -129 -47 -399 -171 -125 -56 -233 -103 -241 -103 -17 0 -77 65 -77 84 0 7 -31 65 -70 130 -38 65 -70 122 -70 126 0 5 6 11 13 14 16 7 384 -3 532 -14z m-1321 -79 c8 -13 -51 -48 -99 -60 -22 -5 -49 -12 -60 -15 -11 -4 -26 -2 -34 3 -28 18 -2 38 76 55 43 10 83 19 88 21 18 6 24 5 29 -4z m-79 -110 c3 -5 1 -13 -5 -16 -15 -9 -43 3 -35 15 8 13 32 13 40 1z m50 -81 c0 -20 10 -30 55 -52 63 -31 87 -33 114 -13 11 8 28 15 38 15 20 0 61 -58 54 -77 -3 -6 4 -19 16 -30 27 -24 89 -156 79 -166 -15 -15 -184 -49 -271 -54 -255 -14 -289 -14 -413 2 -134 17 -198 33 -200 49 -2 10 209 134 230 135 6 1 40 31 75 68 35 37 75 79 89 93 14 14 28 33 32 43 5 15 16 18 54 15 44 -3 48 -5 48 -28z m14269 -166 c19 -19 19 -14 2 -56 -12 -28 -36 -46 -146 -108 -72 -41 -206 -120 -298 -174 -92 -55 -188 -105 -213 -113 -30 -9 -49 -21 -52 -33 -6 -25 -52 -36 -92 -21 -17 6 -41 11 -53 11 -28 0 -38 19 -17 34 15 10 15 16 6 34 -16 30 -6 42 36 42 29 0 33 2 24 14 -6 8 -34 24 -62 35 -56 25 -127 21 -155 -7 -14 -14 -13 -16 15 -28 22 -9 29 -17 24 -30 -4 -12 -14 -15 -39 -11 -38 6 -43 -5 -18 -41 9 -13 13 -29 10 -37 -3 -9 5 -20 22 -29 15 -8 36 -23 46 -35 12 -13 31 -21 53 -21 25 0 44 -10 77 -40 47 -44 95 -53 132 -25 35 26 129 19 200 -15 61 -30 62 -30 98 -13 20 9 36 22 36 28 0 23 -59 55 -100 55 -46 0 -80 14 -80 34 0 7 44 36 98 66 53 29 111 63 127 75 17 13 53 35 80 49 28 14 79 44 115 65 177 107 189 112 238 105 33 -5 54 -15 74 -38 15 -17 28 -34 28 -39 0 -5 23 -34 50 -66 28 -32 50 -64 50 -72 0 -8 18 -33 41 -54 45 -44 69 -84 69 -114 0 -11 9 -25 21 -32 13 -6 18 -14 12 -20 -10 -10 -119 -44 -188 -58 -22 -5 -94 -22 -160 -39 -73 -18 -133 -28 -153 -25 -22 4 -39 0 -51 -11 -10 -9 -56 -25 -102 -37 -192 -46 -371 -88 -514 -118 -108 -24 -284 -64 -380 -87 -33 -8 -91 -20 -130 -28 -68 -14 -221 -49 -515 -120 -80 -19 -230 -48 -335 -65 -245 -40 -452 -78 -820 -151 -76 -15 -147 -20 -291 -22 -105 0 -196 2 -202 6 -7 4 -114 9 -239 12 -182 4 -235 3 -261 -8 l-33 -14 27 -12 c22 -11 25 -17 20 -40 -4 -15 -16 -34 -26 -44 -25 -21 -25 -28 0 -28 32 0 23 -28 -11 -35 -20 -5 -36 -2 -47 7 -16 13 -67 38 -77 38 -3 0 -5 -5 -5 -12 0 -19 -42 -58 -62 -58 -11 0 -27 -4 -36 -9 -9 -5 -84 -21 -167 -36 -171 -31 -282 -30 -319 5 -67 61 -96 93 -96 105 0 14 87 73 135 91 27 10 30 15 28 49 -2 21 -4 40 -6 42 -9 8 -35 -10 -40 -28 -3 -12 -11 -17 -20 -13 -9 3 -14 11 -11 18 3 8 -15 22 -47 36 -50 21 -54 21 -86 6 -75 -36 -101 -18 -163 113 -11 25 -19 50 -16 57 5 14 53 24 115 24 25 0 55 7 65 15 11 8 39 15 61 15 23 0 55 7 71 15 41 20 166 45 192 38 13 -3 43 5 75 21 28 14 79 30 112 35 33 5 121 23 195 40 74 17 187 42 250 56 63 14 133 30 155 35 77 19 181 41 275 60 52 11 136 29 185 41 50 11 106 24 125 29 41 9 172 40 325 76 61 14 126 30 145 34 36 8 166 38 395 92 406 95 473 109 547 110 51 2 68 6 71 17 5 18 34 28 212 71 72 17 182 44 245 60 63 16 129 32 145 36 17 3 75 19 130 34 55 15 188 49 295 74 107 26 263 64 345 85 174 45 188 46 209 25z m-14729 -230 c30 -12 30 -12 5 -14 -14 -1 -35 -1 -48 0 -26 2 -92 27 -92 35 0 9 103 -7 135 -21z m-838 -120 c8 -20 -36 -66 -61 -62 -19 3 -31 39 -22 65 8 19 75 17 83 -3z m13 -97 c0 -18 -36 -50 -50 -45 -7 2 -3 14 10 31 23 29 40 35 40 14z m16056 -279 c-6 -47 -4 -56 19 -83 24 -29 26 -29 39 -11 11 13 22 17 39 12 29 -7 136 -134 134 -158 -1 -9 14 -27 33 -40 34 -23 140 -151 140 -169 0 -16 -47 -28 -157 -39 -59 -6 -124 -15 -143 -19 -19 -5 -80 -14 -135 -21 -55 -6 -163 -21 -240 -32 -151 -21 -216 -30 -395 -53 -76 -10 -237 -17 -470 -19 -209 -3 -392 -10 -445 -17 -62 -9 -237 -13 -555 -14 -256 0 -598 -5 -760 -9 -216 -6 -303 -5 -324 3 -53 21 -35 26 334 96 41 8 138 23 215 34 226 33 353 58 558 110 106 27 217 54 247 60 30 6 82 18 115 25 175 40 393 89 415 93 14 3 45 11 70 18 25 7 79 20 120 29 41 9 167 37 280 62 113 26 232 52 265 60 33 7 89 13 124 14 47 0 67 4 76 16 13 19 309 101 369 103 l38 1 -6 -52z m354 -518 c0 -5 -10 -12 -22 -14 -13 -2 -48 -9 -78 -15 -98 -19 -189 -17 -168 4 3 3 49 9 102 14 53 4 99 11 103 15 10 10 63 7 63 -4z m-6317 -17 c36 -42 207 -308 203 -318 -2 -6 -38 -26 -80 -45 -41 -19 -75 -38 -76 -41 0 -3 16 -24 36 -47 29 -34 33 -45 24 -61 -6 -12 -24 -22 -43 -25 -75 -11 -185 -26 -231 -31 -27 -4 -52 -8 -55 -9 -3 -2 -58 -11 -121 -20 -63 -9 -171 -25 -240 -36 -69 -11 -226 -33 -350 -50 -124 -17 -270 -37 -325 -45 -55 -8 -172 -24 -260 -35 -152 -19 -371 -48 -535 -70 -143 -19 -316 -40 -465 -55 -82 -9 -181 -20 -220 -25 -38 -5 -117 -12 -175 -15 -58 -3 -163 -10 -235 -15 -71 -6 -267 -19 -434 -29 -167 -11 -305 -22 -307 -24 -3 -2 15 -7 38 -11 38 -6 41 -8 23 -19 -29 -16 -207 -16 -212 1 -3 9 11 12 54 12 37 0 53 4 43 9 -8 5 -112 5 -230 0 -140 -6 -233 -6 -269 1 -30 5 -105 10 -167 10 -100 0 -112 -2 -117 -19 -5 -19 -54 -34 -63 -19 -3 5 0 16 7 24 11 13 -10 15 -182 12 -191 -3 -194 -3 -197 -25 -3 -18 3 -23 32 -29 23 -4 36 -12 36 -21 0 -13 -10 -14 -60 -9 -33 4 -93 16 -133 26 -39 11 -82 20 -93 20 -12 0 -33 10 -48 21 -15 12 -46 27 -69 34 -46 13 -64 49 -30 59 41 12 261 45 438 66 44 5 107 14 140 20 33 6 123 20 200 31 77 11 199 29 270 40 72 11 162 24 200 29 39 5 80 12 92 15 12 3 80 14 150 25 70 10 202 31 293 45 91 14 208 32 260 40 52 8 147 24 210 35 107 19 216 37 365 60 33 5 101 16 150 25 50 9 128 23 175 30 47 8 126 21 175 30 50 8 117 20 150 26 77 12 253 45 375 69 52 10 140 26 195 35 55 9 141 25 190 36 211 44 385 72 451 73 39 1 78 7 86 13 13 12 115 37 213 53 28 5 154 30 280 56 127 25 255 50 285 55 30 4 69 12 85 18 47 15 80 13 98 -6z m6427 -3 c0 -11 -65 -24 -79 -15 -24 14 -9 25 34 25 25 0 45 -4 45 -10z m77 -75 c24 -21 26 -26 13 -35 -8 -5 -96 -10 -200 -10 -102 0 -203 -2 -224 -3 -22 -1 -41 3 -43 9 -6 17 92 44 161 45 33 0 81 4 106 8 25 5 71 9 102 10 47 1 62 -3 85 -24z m-500 -12 c13 -38 -298 -73 -656 -74 -145 0 -266 3 -269 6 -21 20 34 29 235 36 120 4 243 13 273 19 122 26 410 35 417 13z m-5282 -33 c4 -6 -5 -10 -19 -10 -14 0 -26 5 -26 10 0 6 9 10 19 10 11 0 23 -4 26 -10z m4030 -19 c-33 -29 -505 -58 -505 -31 0 6 19 10 43 11 23 0 80 6 127 13 97 15 349 20 335 7z m-2649 -29 c16 -9 16 -12 4 -16 -12 -5 -290 -59 -410 -80 -87 -16 -48 75 43 101 51 15 335 11 363 -5z m-1892 -213 c-3 -5 -10 -7 -15 -3 -5 3 -7 10 -3 15 3 5 10 7 15 3 5 -3 7 -10 3 -15z m175 -191 c38 -52 39 -63 4 -76 -24 -9 -266 -35 -533 -57 -122 -10 -162 -25 -55 -20 97 4 421 31 470 40 17 2 63 5 104 6 71 2 76 0 99 -27 39 -48 155 -220 228 -339 20 -33 47 -73 61 -90 53 -64 134 -200 129 -218 -3 -12 3 -22 19 -29 22 -10 265 -366 265 -388 0 -6 10 -21 23 -34 34 -34 88 -118 84 -130 -4 -13 -61 -11 -197 6 -77 9 -99 15 -118 34 -24 25 -46 25 -125 2 -30 -9 -49 -9 -85 2 -26 7 -78 17 -117 21 -142 15 -257 37 -274 53 -20 18 -51 20 -96 7 -33 -9 -57 -6 -410 53 -115 19 -235 37 -265 41 -30 3 -77 10 -105 16 -27 5 -138 20 -245 34 -107 14 -226 30 -265 35 -38 5 -196 25 -350 45 -154 20 -329 44 -390 54 -60 11 -150 25 -200 31 -49 7 -144 20 -210 30 -66 10 -158 24 -205 30 -47 6 -188 26 -315 45 -126 19 -261 39 -300 45 -38 6 -133 19 -210 30 -77 11 -201 29 -275 40 -74 12 -216 32 -315 46 -185 25 -269 38 -365 54 -30 5 -107 17 -170 25 -188 26 -186 41 7 55 70 5 183 14 251 20 83 7 140 8 176 1 53 -10 96 -6 96 9 0 15 32 20 173 30 130 9 370 36 667 75 63 8 144 17 180 20 36 4 97 10 135 16 39 5 169 16 290 25 404 29 439 32 550 57 149 34 258 54 395 71 63 9 214 29 335 45 121 17 272 37 335 46 63 8 187 26 275 40 88 14 207 30 265 35 58 6 125 16 150 21 25 6 106 17 180 25 74 7 149 18 165 23 48 15 52 13 84 -31z m6959 -36 c2 -7 -3 -12 -12 -12 -9 0 -16 7 -16 16 0 17 22 14 28 -4z m-13578 -336 c111 -19 82 -33 -112 -55 -105 -12 -138 -1 -138 44 0 25 0 25 93 24 50 -1 121 -6 157 -13z m416 -57 c76 -11 143 -25 149 -30 5 -5 10 -37 11 -70 3 -59 2 -62 -27 -72 -38 -15 -37 -22 7 -24 29 -1 45 -12 84 -52 51 -53 80 -65 80 -32 0 12 9 20 29 24 16 4 40 17 53 31 36 38 68 46 150 37 40 -5 86 -14 101 -20 16 -6 32 -9 37 -6 13 8 40 -6 40 -21 0 -8 21 -29 47 -47 69 -47 83 -64 83 -97 0 -35 2 -36 35 -14 19 13 23 20 15 34 -7 13 -5 21 5 30 7 6 11 18 8 26 -3 8 -2 30 1 48 5 27 16 40 52 61 43 25 54 27 168 28 66 0 175 -7 241 -17 194 -27 449 -66 465 -71 9 -3 65 -12 125 -20 61 -8 169 -24 240 -35 72 -11 159 -25 195 -30 36 -6 94 -14 130 -20 36 -6 99 -15 140 -20 41 -5 127 -16 190 -25 63 -9 149 -20 190 -26 94 -12 187 -25 270 -38 36 -5 137 -19 225 -31 88 -11 183 -25 210 -30 80 -15 680 -97 915 -125 118 -14 240 -30 270 -35 30 -6 190 -28 355 -50 165 -22 325 -45 355 -51 30 -5 93 -16 140 -24 47 -7 112 -18 145 -24 33 -5 123 -18 200 -27 77 -9 194 -28 260 -41 66 -13 147 -28 179 -34 69 -11 73 -13 57 -33 -9 -11 -10 -25 -2 -53 6 -21 13 -50 16 -65 3 -19 13 -30 30 -34 28 -7 148 -132 139 -145 -3 -5 -17 -9 -32 -9 -15 -1 -40 -6 -56 -13 -28 -12 -27 -13 35 -25 116 -23 163 -31 219 -38 30 -4 78 -17 107 -30 37 -16 63 -21 91 -17 57 8 146 -21 190 -62 28 -24 42 -31 52 -24 8 5 29 9 47 9 35 0 64 -24 90 -75 9 -16 29 -45 44 -63 47 -53 40 -65 -33 -58 -35 3 -101 7 -148 9 -47 1 -95 8 -107 15 -17 9 -28 10 -43 2 -13 -7 -47 -7 -107 -1 -49 6 -155 15 -238 21 -82 6 -183 15 -223 21 -40 5 -93 9 -117 9 -49 0 -179 44 -210 70 -16 14 -105 33 -105 23 0 -1 18 -12 40 -23 39 -20 52 -39 28 -41 -35 -3 -159 4 -298 17 -85 8 -218 19 -295 25 -108 8 -146 14 -166 28 -21 16 -29 17 -50 6 -19 -10 -63 -9 -229 6 -338 29 -421 39 -444 51 -12 7 -75 12 -151 13 -71 1 -175 7 -230 13 -55 6 -158 16 -230 22 -71 6 -166 15 -210 20 -44 6 -136 14 -205 20 -69 5 -192 16 -275 24 -232 22 -560 55 -665 66 -94 10 -312 32 -505 50 -55 5 -208 21 -340 35 -132 14 -249 25 -262 25 -23 0 -108 65 -117 90 -3 8 -21 32 -40 52 -19 21 -37 46 -40 55 -3 10 -17 25 -31 33 -36 22 -215 201 -215 215 0 30 46 54 120 62 l75 9 -67 8 c-61 7 -71 5 -111 -18 -53 -31 -67 -32 -101 -5 -27 21 -38 11 -11 -11 23 -19 18 -46 -12 -59 -24 -11 -26 -14 -10 -22 11 -6 24 -6 36 1 11 5 29 10 41 10 27 0 129 -95 146 -137 8 -18 38 -50 69 -73 31 -23 63 -56 72 -74 9 -20 30 -40 50 -50 26 -12 34 -22 31 -39 -3 -21 -6 -22 -88 -19 -47 2 -107 9 -135 14 -27 6 -59 10 -70 10 -37 -1 -258 19 -375 33 -161 20 -428 45 -535 49 -49 2 -91 5 -92 5 -2 1 -3 12 -3 25 0 28 -28 41 -66 32 -17 -5 -24 -13 -24 -31 0 -20 -5 -25 -24 -25 -16 0 -27 7 -31 19 -12 38 -76 38 -103 0 -8 -12 -25 -19 -47 -19 -37 0 -54 15 -36 33 6 6 7 15 2 21 -17 22 -19 93 -4 109 28 27 -2 26 -70 -4 -37 -17 -76 -28 -85 -25 -10 3 -26 21 -36 38 -32 56 -157 272 -167 288 -5 8 -24 43 -41 78 -28 53 -31 64 -18 72 46 29 387 -2 535 -50 283 -90 270 -86 261 -72 -3 5 -32 17 -66 27 -42 13 -74 31 -105 60 l-44 42 -108 6 c-59 4 -124 11 -143 16 -19 6 -75 12 -123 14 -75 4 -92 8 -113 28 -15 14 -22 29 -18 41 4 15 0 18 -25 18 -19 0 -31 5 -31 13 0 19 43 37 93 38 23 1 56 5 72 9 44 10 -165 11 -231 0 -30 -5 -65 -5 -77 -1 -27 11 -99 128 -95 156 3 18 21 22 193 46 237 33 242 33 411 8z m1023 -45 c1 -1 0 -8 -4 -14 -4 -7 -27 -9 -66 -4 -56 6 -61 5 -66 -15 -5 -19 -12 -22 -46 -19 -54 4 -56 19 -5 44 36 18 55 20 113 16 39 -2 72 -6 74 -8z m560 10 c53 -11 28 -29 -50 -35 -179 -16 -429 -22 -429 -11 0 7 6 12 13 12 6 1 68 9 137 19 129 20 273 26 329 15z m-1295 -14 c57 -21 8 -62 -51 -43 -17 6 -29 18 -31 31 -3 18 2 22 27 22 16 0 41 -4 55 -10z m300 -71 c15 -14 -18 -21 -48 -9 -15 5 -24 14 -21 20 7 11 54 3 69 -11z m-1929 -49 c14 -22 26 -50 28 -62 2 -22 -3 -23 -92 -32 -64 -6 -106 -6 -130 2 -86 25 -202 69 -213 80 -14 14 3 18 152 32 63 6 116 13 119 16 2 2 28 4 58 4 51 0 54 -2 78 -40z m1555 30 c0 -5 -4 -10 -10 -10 -5 0 -10 5 -10 10 0 6 5 10 10 10 6 0 10 -4 10 -10z m-1912 -90 c53 -32 40 -40 -66 -40 -93 0 -112 5 -152 37 -14 12 35 23 105 23 62 0 87 -4 113 -20z m1242 -20 c0 -5 -7 -10 -15 -10 -8 0 -15 5 -15 10 0 6 7 10 15 10 8 0 15 -4 15 -10z m-1730 -40 c0 -11 -59 -24 -68 -15 -11 11 27 33 48 28 11 -3 20 -9 20 -13z m598 -5 c9 -4 7 -13 -10 -36 l-23 -31 -122 4 c-129 4 -158 13 -133 43 8 10 31 15 69 16 31 1 66 4 79 7 23 7 116 4 140 -3z m320 -3 c2 -7 -6 -16 -18 -19 -12 -3 -26 -17 -31 -30 -9 -23 -10 -24 -101 -18 -51 4 -98 8 -105 10 -15 5 -5 46 16 63 22 18 233 13 239 -6z m-1080 -31 c9 -5 -8 -12 -48 -21 -47 -10 -64 -10 -73 -1 -9 9 -8 14 3 21 19 12 100 13 118 1z m92 -1 c0 -5 -16 -10 -36 -10 -21 0 -33 4 -29 10 3 6 19 10 36 10 16 0 29 -4 29 -10z m919 -61 c73 -7 121 -16 131 -25 8 -8 33 -48 55 -89 22 -41 70 -129 108 -196 37 -66 67 -124 67 -129 0 -4 7 -13 15 -20 10 -8 15 -30 15 -61 0 -55 -7 -60 -90 -57 -25 1 -213 -2 -418 -6 l-372 -8 -15 35 c-30 73 -57 184 -56 237 1 47 -16 140 -18 102 -1 -7 -6 -10 -12 -6 -8 5 -7 9 1 14 9 5 14 39 16 96 2 58 7 90 16 96 7 5 45 7 83 4 39 -3 108 1 155 8 111 17 179 18 319 5z m1606 -659 c236 -11 407 -24 605 -45 74 -8 171 -17 215 -20 44 -4 130 -13 190 -21 61 -8 186 -21 279 -29 93 -9 176 -20 185 -25 9 -4 70 -63 135 -129 66 -67 121 -121 123 -121 7 0 -17 38 -26 42 -16 5 -161 172 -161 184 0 7 6 14 14 17 13 5 157 -7 466 -38 246 -25 350 -35 420 -40 36 -3 101 -9 145 -15 44 -5 154 -16 245 -25 91 -8 208 -19 260 -25 231 -24 417 -42 730 -70 363 -33 375 -34 421 -57 25 -12 41 -13 93 -4 49 9 98 8 222 -4 87 -9 215 -20 284 -25 264 -20 433 -40 454 -54 12 -7 29 -36 39 -62 22 -59 38 -94 70 -154 14 -25 33 -62 43 -82 18 -37 34 -49 34 -26 0 6 -16 40 -35 75 -19 35 -35 69 -35 75 0 6 -10 25 -23 42 -61 83 -71 136 -25 136 27 -1 206 -15 368 -30 199 -18 342 -30 435 -36 59 -4 118 -15 176 -35 97 -32 108 -34 91 -17 -7 7 -12 16 -12 20 0 11 65 10 152 -2 40 -6 152 -14 248 -19 120 -6 191 -14 225 -26 37 -13 53 -15 67 -6 22 14 55 14 63 1 4 -6 35 -7 79 -4 84 8 140 -7 158 -39 6 -12 26 -40 43 -62 79 -99 194 -280 185 -289 -10 -10 -99 18 -325 102 -137 51 -428 151 -460 157 -36 8 66 -39 150 -68 33 -11 78 -29 101 -39 23 -10 108 -41 189 -69 168 -57 215 -79 233 -109 20 -33 5 -43 -31 -21 -46 28 -68 30 -327 36 -515 11 -979 27 -1050 36 -41 5 -85 9 -97 9 -42 -2 -147 -3 -293 -2 -111 1 -150 5 -165 16 -41 31 23 74 111 75 28 1 44 6 48 16 3 9 18 15 38 15 50 0 184 -45 223 -74 41 -31 45 -32 45 -6 0 12 -7 20 -18 20 -9 0 -34 9 -55 20 -92 50 -248 64 -362 34 l-60 -15 -22 25 c-30 36 -36 33 -28 -14 6 -35 3 -43 -23 -70 -23 -23 -40 -30 -69 -30 -36 0 -218 7 -840 30 -277 11 -302 12 -693 30 -360 16 -639 28 -727 30 -79 1 -81 1 -76 -20 5 -19 2 -21 -23 -18 -18 2 -29 9 -29 18 0 17 -87 52 -110 45 -50 -16 -48 -14 -31 -31 9 -8 16 -25 16 -36 0 -21 -3 -21 -151 -15 -121 5 -159 10 -188 25 -25 14 -35 26 -34 40 3 24 -36 34 -144 37 -71 2 -117 19 -136 52 -4 7 -22 20 -39 29 -17 9 -41 25 -52 36 -28 26 -56 41 -56 29 0 -5 29 -33 64 -62 36 -30 65 -61 65 -70 1 -10 13 -20 29 -24 36 -9 74 -34 67 -44 -5 -9 -217 -5 -280 4 -37 6 -62 40 -44 61 9 11 8 14 -7 15 -11 0 -55 5 -99 11 -44 5 -115 11 -158 12 -62 1 -81 5 -91 19 -16 21 -30 21 -59 3 -17 -11 -33 -13 -69 -6 -27 5 -139 12 -250 15 -204 5 -269 14 -337 49 -33 17 -33 17 -60 -8 -15 -14 -35 -26 -44 -26 -9 0 -17 -4 -17 -8 0 -5 -19 -16 -42 -25 -49 -20 -71 -9 -50 23 10 17 10 21 0 24 -7 2 -29 8 -49 15 -58 18 -120 11 -100 -13 5 -6 12 -27 16 -47 11 -57 0 -61 -190 -57 l-167 3 -24 28 c-13 15 -24 39 -24 52 0 31 29 37 163 33 58 -2 108 0 112 4 11 11 -26 58 -46 58 -10 0 -29 -5 -43 -11 -34 -16 -56 3 -56 48 0 44 -16 49 -89 29 -64 -18 -132 -13 -152 10 -16 20 -75 116 -139 229 -31 55 -81 141 -110 190 -82 139 -101 176 -95 186 8 11 33 11 290 -1z m7758 -116 c23 -13 64 -31 90 -40 28 -9 55 -26 64 -41 16 -25 16 -26 -10 -49 -35 -30 -104 -49 -136 -38 -28 10 -154 180 -145 196 10 16 89 0 137 -28z m200 30 c70 -12 27 -64 -53 -64 -45 0 -112 26 -114 45 -1 6 24 13 54 16 30 3 60 6 65 7 6 1 27 -1 48 -4z m-1025 -194 c6 0 12 -4 12 -10 0 -5 -18 -10 -40 -10 -38 0 -49 8 -33 24 4 4 17 5 28 2 11 -3 26 -6 33 -6z m182 -35 c0 -9 -9 -15 -25 -15 -24 0 -32 10 -18 23 12 13 43 7 43 -8z m2115 -389 c473 1 987 2 1141 2 266 1 529 -10 542 -22 12 -12 -10 -19 -85 -27 -43 -4 -116 -12 -163 -18 -47 -5 -175 -19 -285 -30 -110 -12 -254 -28 -320 -36 -66 -8 -163 -19 -215 -25 -52 -6 -104 -12 -116 -15 -11 -2 -37 0 -58 6 -29 8 -42 7 -60 -4 -13 -9 -60 -18 -112 -21 -94 -7 -165 -14 -491 -46 -112 -11 -223 -20 -247 -20 -39 0 -47 -4 -58 -27 -18 -39 -113 -86 -153 -78 -86 19 -147 3 -89 -23 42 -20 24 -37 -37 -34 -78 4 -100 31 -43 52 19 8 23 15 19 33 -5 18 0 28 20 41 25 17 26 19 11 34 -14 15 -22 15 -87 -1 -84 -20 -99 -15 -139 52 -14 23 -49 73 -77 112 -47 62 -60 86 -50 90 10 6 238 14 262 9 17 -3 417 -5 890 -4z m-8623 -261 c9 -34 -21 -87 -59 -104 -24 -11 -30 -26 -14 -35 5 -3 9 -37 10 -76 l1 -71 -52 7 c-29 4 -58 11 -65 16 -16 13 -63 93 -63 108 0 7 -11 26 -25 42 -35 42 -67 107 -61 124 4 10 36 14 128 17 199 5 191 6 200 -28z m1667 -27 c149 -11 155 -12 200 -44 159 -113 223 -155 228 -150 4 3 4 7 2 9 -2 2 -43 32 -91 67 -125 91 -124 94 19 85 258 -16 322 -15 422 7 119 26 295 28 676 10 402 -19 849 -35 1290 -47 121 -3 253 -8 294 -11 l73 -6 -5 -37 c-2 -20 -23 -62 -46 -95 -40 -58 -50 -86 -32 -86 5 0 19 16 31 36 13 19 34 40 47 45 19 7 23 14 18 29 -5 15 4 34 31 67 l37 45 56 -6 c31 -4 65 -7 76 -7 11 0 67 0 125 -1 58 -1 140 -2 183 -2 55 -1 80 -5 86 -15 7 -11 15 -12 38 -2 40 16 51 16 628 3 709 -16 755 -19 813 -43 81 -36 135 -49 199 -49 80 0 111 -12 119 -47 4 -15 23 -46 44 -68 49 -54 133 -176 125 -184 -7 -6 -541 -4 -1280 4 -209 3 -618 7 -910 11 -291 3 -533 8 -537 10 -15 10 -7 39 22 83 36 54 41 84 9 55 -12 -10 -28 -32 -35 -49 -7 -16 -24 -43 -37 -59 l-24 -30 -270 3 c-149 1 -336 4 -417 6 -81 2 -342 7 -579 9 -542 7 -759 14 -820 28 -34 7 -51 7 -61 -1 -12 -10 -191 -8 -416 4 -326 18 -576 25 -895 24 -636 -1 -611 -2 -634 22 -17 18 -26 20 -66 14 -28 -4 -58 -2 -74 4 -21 9 -38 8 -81 -6 -30 -10 -77 -18 -105 -18 -42 0 -51 4 -61 24 -7 13 -26 30 -43 37 -26 11 -31 18 -31 47 0 23 6 37 17 41 15 6 15 8 -1 19 -25 18 -24 86 0 104 10 7 32 13 48 13 47 0 76 11 76 28 0 12 -9 14 -45 9 -56 -8 -68 8 -30 41 27 23 35 24 103 19 46 -3 80 -11 91 -21 13 -12 31 -14 82 -10 36 4 155 1 264 -5 520 -29 646 -24 694 23 24 24 32 26 116 26 49 0 159 -5 244 -12z m-2796 -35 c13 -21 53 -90 89 -153 36 -63 85 -148 108 -189 40 -66 42 -75 27 -85 -9 -8 -88 -17 -194 -24 -238 -15 -871 -59 -1318 -92 -71 -5 -177 -12 -235 -15 -183 -10 -421 -25 -535 -35 -60 -5 -157 -12 -214 -15 -57 -3 -160 -10 -230 -15 -162 -12 -241 -12 -241 -1 0 5 19 19 43 30 42 21 127 35 397 66 119 14 291 37 540 71 80 11 142 14 207 9 l94 -7 32 35 c17 19 47 42 65 51 43 22 92 99 92 145 0 49 9 79 25 85 7 2 130 21 272 41 364 50 453 63 578 86 160 29 284 47 332 48 39 1 45 -2 66 -36z m8207 -78 c17 -9 30 -19 30 -24 0 -12 -45 -22 -64 -15 -16 6 -22 35 -9 47 9 9 10 9 43 -8z m1060 -94 l25 -7 -25 -7 c-30 -8 -72 2 -64 14 6 10 28 10 64 0z m-13773 -79 c14 -9 53 -124 46 -136 -8 -12 -87 -2 -278 33 -88 16 -177 33 -199 36 -25 4 -35 10 -29 16 10 10 63 17 318 44 66 7 122 13 125 14 3 0 10 -3 17 -7z"/>
    <path d="M2390 10707 c0 -8 9 -24 20 -37 11 -13 20 -25 20 -27 0 -15 -32 -62 -46 -67 -26 -10 -9 -19 54 -27 31 -4 71 -10 87 -14 29 -6 31 -5 49 48 10 31 15 63 12 75 -7 20 -9 21 -31 6 -39 -26 -145 4 -145 41 0 8 -4 15 -10 15 -5 0 -10 -6 -10 -13z"/>
    <path d="M4220 10004 c0 -14 4 -23 10 -19 6 3 10 15 10 26 0 10 -4 19 -10 19 -5 0 -10 -12 -10 -26z"/>
    <path d="M4182 9900 c-18 -17 -41 -30 -52 -30 -12 0 -25 -10 -32 -25 -14 -32 -8 -38 27 -25 20 8 38 7 62 -1 19 -6 40 -8 48 -5 19 7 19 32 1 43 -23 14 -37 48 -24 61 24 24 2 10 -30 -18z"/>
    <path d="M9483 7983 c-7 -3 -13 -16 -13 -29 0 -18 9 -29 35 -41 33 -16 36 -15 55 2 19 17 28 55 13 55 -5 0 -24 4 -43 9 -19 4 -41 6 -47 4z"/>
    <path d="M2923 9285 c-19 -21 -16 -27 9 -23 13 2 24 11 26 21 4 20 -18 22 -35 2z"/>
    <path d="M3072 8852 c-20 -13 118 -62 141 -50 40 20 10 41 -78 52 -27 3 -56 3 -63 -2z"/>
    <path d="M9958 5673 c-36 -14 -51 -33 -28 -33 13 0 90 39 90 45 0 9 -24 4 -62 -12z"/>
    <path d="M5560 5266 c41 -17 106 -22 78 -6 -9 6 -38 12 -65 15 l-48 5 35 -14z"/>
    <path d="M5740 5226 c83 -26 249 -60 257 -53 2 3 -4 8 -14 10 -50 15 -233 56 -273 61 -37 5 -32 2 30 -18z"/>
    <path d="M6030 5166 c0 -7 64 -23 120 -30 l45 -6 -35 14 c-39 14 -130 30 -130 22z"/>
    <path d="M6208 5123 c6 -2 18 -2 25 0 6 3 1 5 -13 5 -14 0 -19 -2 -12 -5z"/>
    <path d="M6513 5053 c10 -10 137 -32 137 -23 0 4 -26 12 -57 19 -64 12 -89 14 -80 4z"/>
    <path d="M6750 5000 c8 -5 24 -9 35 -9 l20 0 -20 9 c-11 5 -27 9 -35 9 -13 1 -13 0 0 -9z"/>
    <path d="M6840 4980 c8 -5 22 -10 30 -10 13 0 13 1 0 10 -8 5 -22 10 -30 10 -13 0 -13 -1 0 -10z"/>
    <path d="M7105 4920 c11 -5 34 -9 50 -9 26 0 27 2 10 9 -11 5 -33 9 -50 9 -26 0 -27 -2 -10 -9z"/>
    <path d="M8988 4523 c7 -3 16 -2 19 1 4 3 -2 6 -13 5 -11 0 -14 -3 -6 -6z"/>
    <path d="M9348 4453 c7 -3 16 -2 19 1 4 3 -2 6 -13 5 -11 0 -14 -3 -6 -6z"/>
    <path d="M3270 5471 c0 -5 9 -11 21 -14 16 -4 18 -3 8 9 -13 16 -29 19 -29 5z"/>
    <path d="M13127 4354 c-8 -8 73 -83 91 -84 20 0 14 28 -9 35 -11 4 -25 18 -31 31 -11 23 -37 32 -51 18z"/>
    <path d="M13365 4149 c-50 -31 -39 -44 35 -41 86 3 163 -14 199 -44 16 -13 37 -24 46 -24 17 0 17 1 1 19 -14 16 -15 24 -6 40 8 16 8 22 -2 25 -7 2 -28 9 -46 15 -18 6 -45 8 -60 5 -15 -3 -47 1 -72 10 -55 19 -58 19 -95 -5z"/>
    <path d="M13720 4132 c0 -5 9 -12 21 -15 13 -3 19 -1 16 6 -5 15 -37 22 -37 9z"/>
    <path d="M13235 4051 c-7 -12 12 -24 25 -16 11 7 4 25 -10 25 -5 0 -11 -4 -15 -9z"/>
    <path d="M13230 3979 c0 -24 23 -21 28 4 2 10 -3 17 -12 17 -10 0 -16 -9 -16 -21z"/>
    <path d="M12092 4038 c-20 -20 -14 -40 11 -36 14 2 23 11 25 26 4 24 -16 30 -36 10z"/>
    <path d="M12040 3911 c0 -12 35 -20 50 -11 8 5 7 9 -5 14 -24 9 -45 8 -45 -3z"/>
    <path d="M11915 3500 c-4 -7 13 -8 52 -4 76 9 80 14 10 14 -31 0 -59 -5 -62 -10z"/>
    <path d="M11753 3483 c15 -2 37 -2 50 0 12 2 0 4 -28 4 -27 0 -38 -2 -22 -4z"/>
    <path d="M11613 3473 c9 -2 25 -2 35 0 9 3 1 5 -18 5 -19 0 -27 -2 -17 -5z"/>
    <path d="M8678 3143 c7 -3 16 -2 19 1 4 3 -2 6 -13 5 -11 0 -14 -3 -6 -6z"/>
    <path d="M12543 2883 c9 -2 23 -2 30 0 6 3 -1 5 -18 5 -16 0 -22 -2 -12 -5z"/>
    <path d="M6390 3040 c-41 -6 -39 -7 25 -7 39 -1 97 3 130 7 59 7 59 7 -25 7 -47 0 -105 -3 -130 -7z"/>
    <path d="M7010 2837 c46 -23 65 -38 65 -52 0 -31 62 -40 184 -26 118 14 123 15 114 37 -4 11 -15 15 -35 12 -57 -9 -213 11 -288 36 -102 35 -118 31 -40 -7z"/>
    <path d="M7550 2755 c7 -8 17 -15 22 -15 6 0 5 7 -2 15 -7 8 -17 15 -22 15 -6 0 -5 -7 2 -15z"/>
    <path d="M7441 2675 c23 -39 64 -75 85 -75 22 0 16 14 -21 53 -32 33 -65 57 -79 57 -3 0 4 -16 15 -35z"/>
    <path d="M6990 2685 c0 -14 293 -132 345 -138 45 -5 40 -2 -45 27 -97 34 -192 72 -245 100 -29 15 -55 21 -55 11z"/>
    <path d="M7630 2686 c0 -5 78 -56 86 -56 13 0 -20 32 -47 46 -28 14 -39 17 -39 10z"/>
    <path d="M8130 2611 c-30 -4 -48 -9 -40 -13 41 -15 110 -31 150 -34 25 -2 85 -8 133 -14 126 -16 161 -9 67 13 -41 10 -79 22 -85 26 -5 5 -37 11 -70 15 -32 4 -68 8 -80 10 -11 2 -45 0 -75 -3z"/>
    <path d="M7413 2533 c4 -3 201 -40 246 -46 8 -1 16 3 18 9 6 18 -77 36 -175 39 -51 1 -91 0 -89 -2z"/>
    <path d="M8595 2520 c19 -8 73 -14 64 -6 -2 2 -22 6 -44 9 -28 5 -34 4 -20 -3z"/>
    <path d="M8680 2501 c8 -5 40 -11 70 -14 53 -5 54 -5 25 8 -33 15 -121 20 -95 6z"/>
    <path d="M8951 2461 c18 -12 243 -41 232 -30 -5 4 -46 12 -93 18 -47 7 -101 14 -120 17 -26 4 -31 3 -19 -5z"/>
    <path d="M9210 2426 c0 -3 26 -9 58 -15 31 -6 89 -18 127 -25 39 -8 102 -20 140 -26 39 -7 106 -18 150 -26 119 -22 420 -57 570 -68 l80 -5 -80 15 c-44 8 -93 16 -110 19 -64 8 -257 37 -410 60 -88 14 -175 25 -192 25 -18 0 -52 4 -75 10 -39 9 -234 40 -251 40 -4 0 -7 -2 -7 -4z"/>
    <path d="M12760 2276 c0 -14 5 -28 10 -31 6 -3 10 -17 10 -30 0 -32 16 -40 44 -22 12 9 36 17 52 19 l29 4 -26 11 c-14 6 -40 25 -57 42 -37 38 -62 40 -62 7z"/>
    <path d="M10718 2213 c7 -3 16 -2 19 1 4 3 -2 6 -13 5 -11 0 -14 -3 -6 -6z"/>
    <path d="M11013 2180 c21 -6 100 -17 174 -25 74 -8 138 -17 142 -20 4 -2 102 -11 217 -20 115 -9 222 -20 238 -26 39 -12 133 -12 120 1 -5 5 -79 16 -164 24 -150 14 -320 35 -465 55 -103 15 -311 23 -262 11z"/>
    <path d="M11940 2082 c21 -13 140 -22 140 -11 0 5 -13 9 -29 9 -15 0 -50 3 -77 6 -32 3 -44 2 -34 -4z"/>
    <path d="M12226 2050 c6 -6 31 -14 55 -17 60 -7 40 14 -21 23 -35 5 -42 4 -34 -6z"/>
    <path d="M12365 2040 c3 -5 20 -10 36 -10 18 0 28 4 24 10 -3 6 -20 10 -36 10 -18 0 -28 -4 -24 -10z"/>
    <path d="M12845 1980 c3 -5 13 -10 21 -10 8 0 12 5 9 10 -3 6 -13 10 -21 10 -8 0 -12 -4 -9 -10z"/>
    <path d="M12058 1959 c-23 -13 -23 -29 -2 -29 27 0 94 23 94 32 0 11 -71 10 -92 -3z"/>
    <path d="M8520 1786 c0 -8 54 -56 62 -56 4 0 5 6 2 13 -5 13 -64 53 -64 43z"/>
    <path d="M15290 1231 c0 -24 24 -33 68 -25 l36 7 -23 18 c-31 26 -81 25 -81 0z"/>
    <path d="M12745 1058 c-16 -5 -43 -15 -60 -21 -17 -7 -78 -12 -138 -11 -139 0 -126 -16 23 -28 103 -9 113 -8 144 11 18 12 40 21 49 21 8 0 18 7 21 16 11 28 10 28 -39 12z"/>
    <path d="M12261 904 c6 -8 18 -14 26 -14 20 0 8 16 -17 23 -17 4 -19 3 -9 -9z"/>
    <path d="M12340 875 c39 -15 130 -20 115 -6 -6 5 -41 11 -80 14 -67 6 -68 5 -35 -8z"/>
    <path d="M15555 7150 c11 -5 27 -9 35 -9 13 -1 13 0 0 9 -8 5 -24 9 -35 9 l-20 0 20 -9z"/>
    <path d="M15612 7135 c17 -17 436 -157 452 -152 6 3 -9 10 -34 16 -25 6 -61 19 -80 28 -41 18 -320 113 -334 113 -5 0 -7 -2 -4 -5z"/>
    <path d="M16226 6921 c15 -13 74 -31 74 -21 0 4 -14 13 -31 19 -39 13 -57 14 -43 2z"/>
    <path d="M16390 6866 c0 -5 120 -46 134 -46 18 1 -21 20 -71 35 -50 16 -63 18 -63 11z"/>
    <path d="M16580 6800 c8 -5 20 -10 25 -10 6 0 3 5 -5 10 -8 5 -19 10 -25 10 -5 0 -3 -5 5 -10z"/>
    <path d="M16739 6745 c37 -17 60 -20 46 -6 -6 5 -26 12 -45 15 l-35 7 34 -16z"/>
    <path d="M16810 6721 c8 -5 31 -12 50 -15 l35 -7 -34 16 c-37 17 -79 22 -51 6z"/>
    <path d="M14155 6674 c39 -13 79 -22 90 -21 23 3 -112 47 -141 46 -10 0 13 -11 51 -25z"/>
    <path d="M16928 6683 c7 -3 16 -2 19 1 4 3 -2 6 -13 5 -11 0 -14 -3 -6 -6z"/>
    <path d="M17045 6640 c11 -5 29 -9 40 -9 17 -1 17 1 5 9 -8 5 -26 9 -40 9 -23 0 -23 -1 -5 -9z"/>
    <path d="M14290 6636 c0 -7 111 -37 123 -33 6 2 -12 11 -40 20 -50 17 -83 21 -83 13z"/>
    <path d="M17170 6606 c0 -6 97 -41 135 -50 48 -10 6 11 -66 34 -67 22 -69 22 -69 16z"/>
    <path d="M14450 6590 c0 -9 43 -24 100 -35 55 -11 24 10 -42 28 -32 8 -58 12 -58 7z"/>
    <path d="M17404 6525 c11 -8 27 -15 35 -15 10 1 7 6 -9 15 -33 19 -50 18 -26 0z"/>
    <path d="M14665 6520 c11 -5 29 -9 40 -9 17 -1 17 1 5 9 -8 5 -26 9 -40 9 -23 0 -23 -1 -5 -9z"/>
    <path d="M17506 6491 c5 -5 27 -11 49 -15 l40 -6 -34 15 c-37 17 -71 20 -55 6z"/>
    <path d="M14805 6482 c6 -6 26 -13 45 -16 23 -5 30 -4 20 2 -23 14 -77 25 -65 14z"/>
    <path d="M14935 6442 c6 -7 26 -15 45 -18 26 -5 32 -4 25 4 -6 7 -26 15 -45 18 -26 5 -32 4 -25 -4z"/>
    <path d="M17665 6440 c3 -5 16 -10 28 -10 18 0 19 2 7 10 -20 13 -43 13 -35 0z"/>
    <path d="M15170 6370 c8 -5 24 -10 35 -10 17 0 17 2 5 10 -8 5 -24 10 -35 10 -17 0 -17 -2 -5 -10z"/>
    <path d="M15310 6325 c40 -16 79 -19 65 -6 -6 5 -30 11 -55 14 l-45 6 35 -14z"/>
    <path d="M15448 6283 c7 -3 16 -2 19 1 4 3 -2 6 -13 5 -11 0 -14 -3 -6 -6z"/>
    <path d="M15536 6260 c6 -6 28 -13 50 -15 l39 -5 -35 14 c-43 18 -68 20 -54 6z"/>
    <path d="M15690 6210 c20 -13 53 -13 45 0 -3 6 -18 10 -33 10 -21 0 -24 -2 -12 -10z"/>
    <path d="M0 5826 c0 -18 6 -19 35 -6 11 5 15 9 8 9 -6 1 -18 4 -27 7 -11 4 -16 1 -16 -10z"/>
    <path d="M13230 5707 c0 -3 33 -12 73 -21 39 -10 97 -23 127 -31 98 -24 110 -26 110 -16 0 9 0 9 -140 39 -129 27 -170 34 -170 29z"/>
    <path d="M19270 5630 c-12 -8 -12 -10 3 -16 22 -8 50 3 42 16 -8 12 -25 13 -45 0z"/>
    <path d="M13648 5613 c7 -3 16 -2 19 1 4 3 -2 6 -13 5 -11 0 -14 -3 -6 -6z"/>
    <path d="M19200 5610 c-12 -8 -11 -10 8 -10 12 0 22 5 22 10 0 13 -11 13 -30 0z"/>
    <path d="M13705 5599 c54 -17 287 -61 292 -55 6 6 2 7 -159 41 -118 25 -196 33 -133 14z"/>
    <path d="M18881 5539 c-48 -6 -71 -15 -91 -34 -41 -39 -99 -44 -142 -13 -30 23 -88 48 -111 48 -5 0 -6 -7 -3 -16 3 -8 1 -25 -5 -37 -10 -18 -7 -25 30 -59 22 -21 41 -45 41 -53 0 -23 -30 -45 -61 -45 -26 0 -28 -2 -19 -19 5 -11 7 -28 3 -38 -7 -17 -6 -17 21 0 15 10 39 17 54 15 24 -3 27 0 24 25 -4 32 20 37 56 11 26 -18 29 -44 6 -44 -27 0 3 -28 38 -35 23 -5 35 -2 54 16 13 12 24 28 24 35 0 14 -35 79 -56 104 -19 22 24 66 83 86 45 14 75 26 133 52 31 13 16 13 -79 1z"/>
    <path d="M14075 5520 c11 -5 27 -9 35 -9 13 -1 13 0 0 9 -8 5 -24 9 -35 9 l-20 0 20 -9z"/>
    <path d="M14190 5502 c0 -6 24 -15 53 -20 28 -6 90 -18 137 -27 132 -26 192 -36 197 -32 2 3 -38 12 -89 22 -51 10 -104 22 -118 27 -14 6 -50 14 -80 18 -30 5 -65 12 -77 16 -14 4 -23 2 -23 -4z"/>
    <path d="M14735 5385 c22 -8 51 -14 65 -14 20 1 17 4 -15 14 -22 8 -51 14 -65 14 -19 0 -16 -3 15 -14z"/>
    <path d="M14958 5343 c7 -3 16 -2 19 1 4 3 -2 6 -13 5 -11 0 -14 -3 -6 -6z"/>
    <path d="M15098 5313 c6 -2 18 -2 25 0 6 3 1 5 -13 5 -14 0 -19 -2 -12 -5z"/>
    <path d="M15380 5254 c25 -7 56 -13 70 -13 18 0 12 4 -20 15 -25 7 -56 13 -70 13 -18 0 -12 -4 20 -15z"/>
    <path d="M15621 5206 c2 -2 31 -6 64 -10 40 -4 53 -3 40 3 -19 9 -113 15 -104 7z"/>
    <path d="M19905 4480 l-30 -8 35 0 c19 0 49 4 65 8 l30 8 -35 0 c-19 0 -48 -4 -65 -8z"/>
    <path d="M17870 3974 c-36 -14 -78 -31 -94 -37 -16 -6 -25 -12 -19 -14 17 -6 203 60 203 72 0 10 -26 4 -90 -21z"/>
    <path d="M17530 3850 c-52 -21 -86 -39 -75 -40 21 0 173 57 190 72 20 17 -23 6 -115 -32z"/>
    <path d="M15250 3850 c0 -13 30 -13 50 0 11 7 7 10 -17 10 -18 0 -33 -4 -33 -10z"/>
    <path d="M15193 3843 c9 -2 25 -2 35 0 9 3 1 5 -18 5 -19 0 -27 -2 -17 -5z"/>
    <path d="M13635 3817 c-13 -10 -15 -16 -6 -21 17 -11 41 0 41 19 0 19 -11 19 -35 2z"/>
    <path d="M17385 3796 c-18 -13 -18 -14 8 -9 15 3 30 9 33 14 8 14 -20 10 -41 -5z"/>
    <path d="M14388 3753 c7 -3 16 -2 19 1 4 3 -2 6 -13 5 -11 0 -14 -3 -6 -6z"/>
    <path d="M16498 3473 c6 -2 18 -2 25 0 6 3 1 5 -13 5 -14 0 -19 -2 -12 -5z"/>
    <path d="M16410 3460 c0 -5 14 -7 33 -3 45 8 47 13 4 13 -20 0 -37 -4 -37 -10z"/>
    <path d="M15898 3273 c7 -3 16 -2 19 1 4 3 -2 6 -13 5 -11 0 -14 -3 -6 -6z"/>
    <path d="M19055 3066 c-18 -13 -18 -14 4 -21 21 -6 96 2 115 12 15 10 -19 23 -60 23 -22 0 -49 -6 -59 -14z"/>
    <path d="M18795 3053 c-84 -4 -117 -17 -68 -27 56 -11 258 8 269 25 5 9 -30 9 -201 2z"/>
    <path d="M18378 3030 c-38 -4 -71 -10 -75 -13 -16 -17 15 -19 126 -8 65 6 147 11 180 11 34 0 61 4 61 10 0 10 -178 10 -292 0z"/>
    <path d="M18118 3003 c12 -2 32 -2 45 0 12 2 2 4 -23 4 -25 0 -35 -2 -22 -4z"/>
    <path d="M17545 2984 c-99 -7 -225 -15 -280 -18 -202 -11 -401 -28 -420 -36 -42 -18 149 -9 850 41 373 27 366 26 190 26 -88 0 -241 -6 -340 -13z"/>
    <path d="M14930 2935 c-14 -8 -34 -14 -46 -15 -11 0 -29 -7 -40 -15 -17 -13 -15 -14 34 -15 40 0 52 3 52 15 0 9 11 20 25 25 14 5 25 12 25 15 0 9 -25 5 -50 -10z"/>
    <path d="M16365 2909 c-88 -4 -245 -10 -350 -13 -361 -11 -520 -19 -489 -26 17 -4 127 -3 245 1 118 4 320 10 449 14 129 3 244 7 255 9 11 3 39 5 63 5 26 1 41 5 37 11 -3 6 -16 9 -28 8 -12 0 -94 -5 -182 -9z"/>
    <path d="M16648 2913 c17 -2 47 -2 65 0 17 2 3 4 -33 4 -36 0 -50 -2 -32 -4z"/>
    <path d="M14713 2883 c-7 -2 -13 -9 -13 -14 0 -14 62 -10 90 6 24 14 24 14 -20 14 -25 0 -51 -3 -57 -6z"/>
    <path d="M3779 2723 c-13 -16 -12 -17 4 -4 9 7 17 15 17 17 0 8 -8 3 -21 -13z"/>
    <path d="M19400 2670 c0 -12 8 -12 35 0 18 8 17 9 -7 9 -16 1 -28 -3 -28 -9z"/>
    <path d="M19230 2658 c-14 -6 -47 -14 -75 -18 -27 -4 -70 -12 -95 -18 -25 -7 -63 -15 -85 -19 -31 -5 -34 -8 -17 -11 13 -2 67 4 120 14 54 10 118 19 143 20 56 2 149 25 149 36 0 12 -111 9 -140 -4z"/>
    <path d="M4130 2600 c0 -5 13 -16 30 -25 46 -24 153 -19 230 10 36 13 58 24 49 24 -9 1 -32 -6 -51 -14 -20 -8 -64 -17 -100 -21 -53 -5 -73 -3 -111 14 -26 12 -47 17 -47 12z"/>
    <path d="M18805 2579 c-27 -5 -81 -16 -120 -24 -38 -8 -92 -17 -120 -21 -27 -3 -88 -15 -135 -26 -47 -11 -121 -26 -165 -33 -44 -7 -134 -24 -200 -38 -66 -14 -154 -30 -195 -37 -41 -6 -129 -22 -195 -35 -66 -13 -137 -26 -157 -29 -38 -7 -53 -26 -20 -26 41 1 272 42 367 66 67 17 138 30 237 44 37 5 113 20 170 34 57 13 132 27 168 31 36 4 110 18 165 31 55 13 130 29 167 34 75 11 154 39 108 38 -14 0 -47 -4 -75 -9z"/>
    <path d="M19280 2572 c0 -6 9 -31 20 -56 14 -33 25 -46 40 -46 26 0 25 15 -3 65 -21 37 -57 60 -57 37z"/>
    <path d="M17325 2330 c-10 -11 -26 -20 -36 -20 -33 0 -49 -12 -49 -36 0 -30 12 -30 86 0 65 27 88 51 64 66 -24 15 -45 12 -65 -10z"/>
    <path d="M4674 2135 c-7 -18 -27 -19 -55 -2 -18 10 -23 8 -45 -17 l-26 -29 29 -23 c17 -14 36 -22 48 -19 11 3 32 5 47 5 22 0 31 7 42 34 12 28 21 35 48 39 33 4 33 4 -5 5 -21 1 -47 7 -58 12 -15 9 -21 7 -25 -5z"/>
    <path d="M4070 2026 c0 -9 0 -19 0 -23 0 -5 14 -12 32 -16 18 -5 44 -17 58 -27 14 -9 36 -20 50 -24 24 -7 24 -6 -6 21 -17 15 -33 35 -37 44 -3 9 -18 19 -34 21 -15 3 -36 9 -45 13 -13 5 -18 3 -18 -9z"/>
    <path d="M4307 1890 c4 -5 44 -17 88 -28 58 -14 94 -18 130 -12 57 8 100 24 110 39 10 17 -17 13 -38 -6 -25 -24 -148 -24 -235 -2 -35 9 -60 13 -55 9z"/>
    <path d="M15513 1730 c-13 -6 -23 -18 -23 -30 0 -17 6 -20 45 -20 38 0 45 3 45 20 0 10 -9 24 -19 30 -22 11 -19 11 -48 0z"/>
    <path d="M15690 1679 c61 -11 253 -29 258 -24 2 2 -11 6 -29 8 -19 3 -67 10 -107 16 -40 6 -94 10 -120 10 l-47 -1 45 -9z"/>
    <path d="M16006 1641 c13 -12 174 -32 188 -24 6 4 -20 13 -59 20 -84 14 -143 16 -129 4z"/>
    <path d="M16261 1611 c19 -12 175 -29 190 -21 6 4 -20 10 -58 14 -37 4 -86 9 -108 12 -29 4 -36 3 -24 -5z"/>
    <path d="M16531 1580 c8 -5 62 -12 120 -15 57 -4 119 -11 138 -16 20 -5 41 -4 50 1 14 8 14 9 1 10 -8 0 -64 7 -125 15 -127 17 -208 19 -184 5z"/>
    <path d="M19550 1507 c-24 -11 -24 -11 14 -15 43 -4 66 2 66 18 0 13 -48 12 -80 -3z"/>
    <path d="M19365 1491 c-20 -8 -20 -8 2 -15 12 -4 34 -4 49 0 25 7 26 8 9 15 -25 10 -35 10 -60 0z"/>
    <path d="M930 1470 c-13 -8 -13 -10 2 -10 9 0 20 5 23 10 8 13 -5 13 -25 0z"/>
    <path d="M5490 1304 c-35 -14 -35 -14 25 -9 33 3 64 10 69 15 15 15 -54 11 -94 -6z"/>
    <path d="M5268 1283 c-34 -9 -18 -21 36 -27 52 -7 96 5 96 26 0 8 -103 9 -132 1z"/>
    <path d="M10354 482 c12 -20 323 -185 338 -180 6 2 -36 28 -93 57 -57 30 -137 72 -178 93 -40 22 -71 36 -67 30z"/>
    <path d="M19954 383 c-4 -10 -7 -21 -6 -24 1 -4 -7 -5 -17 -2 -10 2 -31 -7 -48 -21 -17 -14 -39 -26 -49 -26 -19 0 -94 -48 -94 -60 0 -4 26 -11 57 -15 56 -7 59 -6 83 23 15 18 37 32 55 34 18 2 34 11 41 25 6 13 14 20 17 16 4 -3 7 10 7 30 0 30 -4 37 -19 37 -10 0 -22 -8 -27 -17z"/>
    <path d="M19596 201 c-3 -4 -24 -11 -46 -15 -43 -7 -110 -35 -110 -47 0 -4 10 -10 23 -14 15 -5 -3 -10 -61 -16 -45 -4 -97 -15 -114 -24 -33 -16 -88 -12 -88 6 0 16 -41 10 -68 -10 -15 -11 -35 -33 -45 -50 l-18 -31 291 0 c287 0 331 5 240 30 -64 17 -79 80 -20 80 39 0 57 24 43 60 -8 21 -8 30 1 34 6 2 3 5 -6 5 -9 1 -19 -3 -22 -8z"/>
    <path d="M11243 110 c32 -11 81 -22 110 -25 l52 -5 -60 18 c-33 11 -82 22 -110 25 l-50 6 58 -19z"/>
    <path d="M11435 70 c33 -14 158 -32 185 -27 20 3 17 5 -10 6 -20 0 -62 8 -93 16 -32 8 -68 15 -80 14 -21 0 -21 -1 -2 -9z"/>
    <path d="M11840 20 c-26 -16 15 -23 108 -17 144 8 158 26 22 26 -63 0 -122 -3 -130 -9z"/>
  </g>
</svg>