<?xml version="1.0" encoding="utf-8"?>
<svg viewBox="0 0 2000 1200" preserveAspectRatio="none" xmlns="http://www.w3.org/2000/svg">
  <g transform="matrix(0.10000000149011612, 0, 0, -0.10000000149011612, 0, 1200)" fill="#000000" stroke="none" style="opacity: 0.1;">
    <path d="M1270 11970 c0 -25 7 -33 48 -54 26 -13 81 -33 122 -45 41 -12 111 -34 155 -50 44 -16 179 -63 300 -104 121 -42 299 -104 395 -137 96 -34 191 -66 210 -72 19 -5 49 -16 65 -23 17 -8 95 -35 175 -60 120 -40 314 -106 455 -156 17 -6 129 -44 250 -85 121 -40 265 -90 320 -110 55 -20 186 -64 290 -99 105 -35 323 -109 485 -164 162 -55 311 -105 330 -112 88 -29 176 -63 185 -71 5 -4 18 -8 30 -8 11 0 37 -9 58 -20 21 -12 56 -20 82 -20 40 0 47 3 55 26 16 40 22 98 12 112 -5 8 -38 21 -73 31 -35 10 -80 24 -99 33 -19 9 -60 24 -90 33 -30 10 -59 21 -65 25 -5 4 -26 11 -45 15 -39 8 -178 58 -227 82 -18 9 -33 24 -33 33 0 9 -23 37 -52 61 -28 24 -66 58 -85 76 -19 17 -49 38 -68 47 -19 9 -43 29 -55 43 -12 15 -40 41 -63 58 -23 16 -55 42 -71 57 -15 15 -38 30 -50 34 -11 4 -39 24 -61 45 -22 22 -43 39 -47 39 -3 0 -30 24 -58 54 -28 30 -63 56 -78 60 -15 3 -65 41 -111 85 -66 63 -91 80 -123 85 -21 4 -43 4 -49 1 -5 -4 -9 1 -9 9 0 9 5 16 10 16 6 0 10 4 10 9 0 5 -28 9 -62 8 -43 -1 -69 3 -80 13 -23 18 -24 44 -2 36 27 -10 35 4 19 33 -12 25 -33 41 -52 41 -3 0 -3 -9 0 -20 4 -17 1 -20 -21 -18 -22 3 -28 -2 -38 -32 -6 -19 -19 -36 -28 -38 -9 -2 -16 -12 -16 -23 0 -18 -25 -25 -67 -20 -19 3 -16 -20 5 -36 15 -12 14 -13 -13 -11 -16 1 -40 11 -52 21 -27 24 -57 19 -61 -10 -5 -31 -32 -18 -32 16 0 17 -3 22 -8 13 -7 -10 -14 -8 -34 8 -15 11 -30 20 -35 20 -6 0 -31 19 -56 43 -25 23 -64 55 -86 71 -28 20 -41 37 -41 53 0 20 -4 22 -25 17 -28 -7 -59 12 -51 32 3 8 0 11 -10 7 -8 -3 -14 1 -14 11 0 15 -59 16 -642 15 l-643 0 113 -38 c62 -21 118 -43 125 -50 6 -6 22 -11 36 -11 33 0 129 -26 144 -38 7 -6 48 -22 92 -37 44 -15 105 -39 135 -52 30 -14 74 -28 98 -31 23 -2 42 -9 42 -13 0 -5 6 -9 14 -9 7 0 19 -7 26 -15 10 -12 10 -15 -3 -15 -8 0 -20 7 -28 16 -8 10 -22 14 -41 10 -16 -3 -33 0 -41 8 -7 8 -32 17 -55 21 -23 4 -42 10 -42 15 0 4 -17 10 -37 13 -21 2 -92 24 -158 47 -66 23 -133 46 -150 50 -52 14 -99 34 -125 53 -13 9 -37 17 -52 17 -14 0 -33 7 -42 15 -8 8 -25 15 -38 15 -13 0 -48 7 -78 15 -30 8 -92 15 -137 15 l-83 0 0 -30z m1285 -320 c38 -14 30 -18 -17 -9 -24 4 -46 8 -50 9 -5 0 -8 5 -8 11 0 11 26 8 75 -11z m160 -60 c32 -15 35 -19 17 -19 -22 -1 -82 24 -82 34 0 9 25 3 65 -15z m590 -205 c33 -13 54 -25 47 -25 -19 0 -115 31 -126 41 -19 17 19 9 79 -16z m313 -76 c17 -6 33 -17 36 -26 4 -8 12 -13 20 -10 8 3 22 -4 33 -15 18 -21 18 -21 -2 -14 -11 5 -33 12 -50 16 -46 11 -105 42 -99 52 7 11 25 10 62 -3z m172 -85 c0 -2 -7 -4 -15 -4 -8 0 -15 4 -15 10 0 5 7 7 15 4 8 -4 15 -8 15 -10z m35 -4 c3 -5 -1 -10 -10 -10 -9 0 -13 5 -10 10 3 6 8 10 10 10 2 0 7 -4 10 -10z"/>
    <path d="M6936 11990 c6 -6 32 -16 60 -24 27 -8 114 -37 194 -66 80 -28 197 -69 260 -91 63 -22 158 -56 210 -74 513 -180 606 -211 674 -229 71 -18 101 -9 109 31 3 15 3 31 1 35 -3 4 -33 16 -67 27 -34 11 -114 38 -177 61 -63 23 -135 48 -159 56 -24 7 -49 17 -55 22 -6 4 -36 16 -66 26 -30 11 -62 25 -70 32 -8 7 -43 20 -78 30 -59 16 -63 19 -60 44 2 19 -7 38 -27 61 -63 72 -48 69 -422 69 -226 0 -334 -3 -327 -10z m734 -100 c0 -5 -4 -10 -10 -10 -5 0 -10 5 -10 10 0 6 5 10 10 10 6 0 10 -4 10 -10z"/>
    <path d="M8054 11991 c6 -10 221 -177 291 -226 23 -16 62 -46 86 -65 24 -20 58 -44 74 -54 17 -11 53 -36 80 -58 185 -144 196 -150 225 -144 17 3 45 -1 67 -11 l38 -16 -32 -9 c-29 -7 -63 -40 -63 -60 0 -9 82 -52 120 -63 14 -4 50 -18 80 -30 123 -53 324 -129 445 -170 94 -32 235 -83 260 -94 45 -22 260 -101 315 -116 14 -4 44 -16 68 -26 23 -11 79 -33 125 -50 45 -17 111 -42 147 -55 36 -14 86 -32 112 -40 26 -8 69 -25 95 -38 27 -13 73 -29 103 -36 30 -7 75 -23 100 -35 25 -12 59 -25 75 -29 28 -7 102 -33 170 -61 17 -7 53 -20 80 -29 123 -39 333 -107 360 -117 95 -34 179 -59 201 -59 19 0 28 8 40 36 23 55 4 75 -108 114 -162 56 -251 88 -308 110 -30 12 -75 29 -100 38 -25 8 -56 23 -70 32 -14 10 -34 19 -45 21 -11 2 -24 14 -30 27 -5 12 -14 22 -19 22 -5 0 -28 16 -52 35 -23 19 -49 35 -58 35 -9 0 -16 4 -16 9 0 10 -32 34 -140 107 -30 21 -76 56 -101 78 -70 62 -116 93 -165 113 -24 10 -44 23 -44 29 0 6 -11 16 -25 22 -14 7 -47 32 -73 56 -26 25 -60 48 -75 51 -15 4 -27 13 -27 20 0 14 -81 69 -117 80 -13 3 -23 10 -23 15 0 4 -10 10 -23 14 -12 3 -30 19 -40 35 -9 16 -26 33 -37 36 -11 4 -20 12 -20 19 0 12 -82 46 -112 46 -10 0 -18 7 -18 16 0 12 -6 15 -22 11 -13 -4 -32 2 -49 14 -15 10 -30 19 -34 19 -13 0 -55 -50 -55 -66 0 -7 -7 -14 -15 -14 -8 0 -24 -9 -35 -20 -11 -11 -24 -20 -30 -20 -5 0 -15 9 -22 20 -7 11 -16 20 -20 20 -5 0 -8 -9 -8 -20 0 -11 -4 -20 -10 -20 -5 0 -10 8 -10 18 0 23 -30 52 -54 52 -14 0 -15 4 -6 20 9 16 8 18 -5 13 -10 -3 -22 3 -32 16 -12 18 -18 20 -29 10 -12 -10 -16 -8 -21 9 -5 21 -23 31 -23 13 0 -16 -40 0 -51 20 -5 10 -23 26 -40 35 -25 13 -30 20 -25 40 4 13 3 24 -1 25 -5 1 -24 2 -43 4 -19 2 -41 3 -47 4 -9 1 -11 16 -8 52 4 48 3 51 -26 61 -35 12 -41 53 -9 63 11 3 20 10 20 14 0 7 -52 41 -82 53 -11 4 -15 13 -12 23 6 13 -49 15 -506 15 -304 0 -509 -4 -506 -9z m1661 -531 c3 -5 -3 -10 -14 -10 -12 0 -21 5 -21 10 0 6 6 10 14 10 8 0 18 -4 21 -10z"/>
    <path d="M10956 11986 c6 -15 101 -69 144 -81 14 -4 31 -12 38 -18 7 -6 34 -18 60 -27 164 -59 231 -84 257 -96 17 -7 48 -20 70 -27 22 -8 90 -34 150 -57 61 -23 128 -48 150 -55 22 -8 99 -37 170 -65 72 -28 171 -66 220 -85 50 -18 104 -40 120 -49 17 -9 36 -16 42 -16 7 0 63 -20 125 -44 108 -42 534 -200 628 -233 25 -9 50 -20 56 -24 5 -5 36 -15 68 -23 64 -17 98 -10 116 24 17 31 42 24 128 -35 44 -30 85 -55 91 -55 6 0 11 -4 11 -8 0 -16 65 -80 98 -97 19 -9 95 -38 170 -65 76 -27 162 -58 192 -70 234 -93 608 -234 760 -286 41 -14 100 -36 130 -49 30 -12 80 -31 110 -43 30 -11 118 -45 195 -75 77 -30 172 -67 210 -82 39 -15 111 -42 160 -60 238 -87 241 -87 268 -57 26 29 21 61 -10 73 -67 27 -191 71 -218 78 -31 8 -84 29 -225 89 -25 10 -76 37 -114 60 -37 23 -74 42 -81 42 -8 0 -16 4 -19 9 -3 5 -51 31 -106 57 -54 27 -99 55 -100 61 0 7 -17 21 -38 32 -21 11 -44 31 -50 46 -9 19 -17 25 -29 21 -10 -4 -26 6 -47 29 -17 19 -41 36 -52 38 -12 2 -29 11 -38 20 -10 9 -24 17 -32 17 -8 0 -14 6 -14 13 0 7 -9 17 -20 22 -90 46 -114 60 -138 84 -40 39 -96 71 -125 71 -14 0 -30 6 -34 13 -4 8 -17 17 -28 21 -15 5 -16 9 -6 15 9 6 10 11 2 15 -5 4 -20 1 -31 -6 -17 -11 -22 -11 -31 2 -8 11 -12 12 -16 3 -2 -7 -11 -13 -20 -13 -10 0 -12 6 -7 23 15 47 11 52 -34 51 -38 -1 -43 2 -39 18 3 12 -1 22 -10 25 -8 3 -19 17 -24 30 -5 13 -22 29 -39 34 -16 6 -30 15 -30 19 0 4 -13 13 -29 18 -16 6 -32 20 -36 31 -3 12 -18 24 -33 27 -38 8 -92 36 -105 55 -7 9 -24 19 -39 23 -16 3 -28 13 -28 21 0 8 -15 21 -32 28 -18 8 -39 21 -47 30 -7 10 -19 17 -26 17 -7 0 -18 14 -24 30 -5 17 -18 33 -28 36 -19 6 -61 26 -106 50 -16 9 -33 27 -40 41 -18 39 -108 80 -377 170 -74 25 -184 65 -244 90 -239 98 -215 93 -480 93 -130 0 -236 -3 -236 -7 0 -5 21 -21 48 -38 66 -42 212 -144 242 -171 14 -12 107 -77 208 -145 375 -254 479 -325 555 -383 71 -54 91 -76 68 -76 -15 0 -156 47 -176 58 -19 11 -183 72 -233 87 -13 4 -43 20 -65 35 -61 40 -108 66 -137 73 -14 3 -41 20 -60 37 -18 16 -40 30 -47 30 -8 0 -16 6 -19 14 -3 8 -23 22 -45 30 -22 9 -44 27 -50 39 -7 15 -24 27 -46 33 -19 5 -35 14 -36 19 -1 6 -38 32 -83 58 -44 27 -100 66 -125 88 -43 38 -81 50 -94 29 -9 -15 -27 -1 -21 16 3 9 -1 14 -14 14 -10 0 -22 5 -25 10 -3 6 -14 10 -23 10 -10 0 -22 13 -29 30 -10 27 -15 29 -42 24 -20 -4 -31 -2 -31 5 0 6 -7 11 -15 11 -8 0 -15 6 -15 13 0 18 -51 37 -88 32 -23 -2 -35 1 -39 11 -4 12 -66 14 -399 14 -333 0 -393 -2 -388 -14z"/>
    <path d="M14174 11987 c11 -7 34 -24 51 -39 18 -16 35 -28 38 -28 9 0 127 -80 197 -133 35 -27 71 -52 80 -55 8 -3 38 -22 65 -42 28 -20 86 -58 130 -84 44 -27 94 -61 110 -76 17 -15 73 -45 125 -65 52 -21 119 -48 148 -61 29 -13 58 -24 65 -24 7 0 23 -9 37 -20 14 -11 30 -20 36 -20 6 0 41 -13 77 -30 37 -16 72 -30 79 -30 7 0 34 -11 60 -25 26 -14 53 -25 60 -25 12 0 285 -111 320 -131 10 -5 23 -9 29 -9 5 0 35 -11 65 -25 30 -14 61 -25 69 -25 7 0 16 -4 20 -9 3 -5 22 -15 43 -21 20 -7 78 -29 127 -50 50 -21 110 -45 135 -53 57 -18 208 -74 235 -86 78 -35 116 -44 185 -43 66 0 82 -4 130 -31 30 -17 76 -48 101 -68 42 -35 126 -79 150 -79 5 0 37 -13 71 -28 35 -16 81 -34 103 -41 22 -7 63 -23 90 -36 28 -12 75 -32 105 -43 183 -68 359 -137 440 -172 36 -15 112 -45 170 -66 58 -20 110 -40 115 -44 6 -4 23 -10 40 -14 16 -4 48 -16 72 -27 23 -10 45 -19 48 -19 3 0 31 -11 61 -25 30 -14 59 -25 65 -25 6 0 25 -7 42 -15 62 -28 186 -65 220 -65 23 0 37 6 41 16 7 19 -10 44 -31 44 -16 0 -91 30 -167 66 -28 13 -56 24 -63 24 -7 0 -21 4 -31 9 -9 6 -55 27 -102 47 -47 20 -87 40 -90 43 -3 4 -16 12 -30 19 -79 41 -97 52 -109 66 -8 9 -19 16 -27 16 -7 0 -22 10 -33 22 -11 11 -37 24 -58 27 -26 4 -41 13 -48 29 -5 12 -19 25 -30 28 -22 7 -116 70 -180 120 -22 17 -67 46 -100 65 -33 18 -73 43 -90 54 -16 12 -46 30 -65 39 -60 30 -106 59 -171 109 -34 26 -87 60 -118 74 -57 26 -70 36 -121 85 -15 15 -50 39 -78 53 -27 13 -55 32 -62 40 -7 8 -21 15 -31 15 -11 0 -34 15 -52 33 -17 19 -44 37 -60 40 -15 4 -27 12 -27 17 0 5 -15 17 -32 26 -18 10 -37 22 -43 29 -22 25 -147 114 -185 131 -14 6 -64 30 -112 53 -47 22 -95 41 -105 41 -10 0 -23 4 -29 9 -5 5 -27 14 -49 21 -22 7 -54 21 -71 31 -17 11 -40 19 -50 19 -11 0 -28 6 -39 13 -11 8 -34 17 -51 20 -17 3 -60 19 -95 36 -35 16 -107 46 -159 66 -52 20 -124 49 -160 65 -36 15 -96 40 -135 54 -38 14 -104 39 -145 56 -41 18 -85 32 -98 32 -12 0 -25 4 -28 9 -8 14 -54 10 -54 -4 0 -15 38 -53 69 -71 11 -6 53 -36 93 -67 40 -31 91 -65 113 -77 22 -11 57 -36 77 -55 21 -19 79 -62 130 -95 51 -34 111 -74 132 -89 47 -33 51 -36 96 -57 50 -24 77 -40 98 -59 10 -10 21 -17 24 -17 3 0 34 -19 68 -42 34 -24 76 -52 93 -62 18 -11 69 -46 115 -78 45 -32 84 -58 87 -58 7 0 98 -63 119 -82 38 -35 4 -30 -115 17 -117 47 -179 86 -179 112 0 7 -11 13 -24 13 -12 0 -38 11 -57 25 -19 13 -43 29 -54 34 -12 5 -27 16 -34 25 -7 9 -24 16 -38 16 -13 0 -34 11 -47 25 -13 14 -28 25 -33 25 -5 0 -18 9 -28 20 -10 11 -24 20 -32 20 -7 0 -13 4 -13 9 0 5 -10 13 -22 17 -13 4 -43 24 -69 45 -25 22 -52 39 -61 39 -8 0 -27 9 -41 20 -14 11 -30 20 -35 20 -5 0 -15 7 -22 15 -7 9 -28 23 -47 31 -18 9 -38 25 -44 35 -5 11 -20 19 -34 19 -13 0 -26 4 -29 9 -4 5 -39 28 -79 51 -39 23 -76 48 -80 56 -4 8 -16 14 -25 14 -9 1 -35 12 -57 25 -22 14 -54 31 -70 39 -17 8 -39 24 -49 35 -11 12 -24 21 -30 21 -6 0 -42 20 -79 45 -38 25 -73 45 -78 45 -4 0 -13 9 -19 19 -5 11 -35 33 -67 50 l-57 31 -310 -1 c-245 0 -307 -3 -292 -12z"/>
    <path d="M16457 11973 c200 -135 333 -223 337 -223 2 0 37 -20 77 -45 40 -25 77 -45 82 -45 8 0 82 -45 147 -90 14 -10 43 -27 65 -39 54 -29 71 -40 130 -82 89 -63 262 -166 299 -179 20 -6 48 -27 62 -45 15 -20 38 -37 57 -41 18 -3 68 -23 112 -44 44 -20 105 -47 135 -59 30 -11 114 -44 185 -72 72 -28 157 -62 190 -74 33 -12 107 -44 165 -70 137 -62 202 -88 275 -113 57 -19 151 -56 315 -125 59 -25 91 -32 150 -34 120 -2 135 -9 204 -79 44 -46 71 -66 95 -70 19 -4 49 -15 66 -25 17 -10 50 -25 75 -34 24 -8 51 -21 60 -28 15 -13 232 -97 250 -97 6 0 10 37 10 85 0 81 -2 87 -27 110 -16 13 -49 32 -75 40 -27 9 -48 21 -48 26 0 5 -12 12 -27 15 -37 9 -103 51 -103 65 0 7 -11 9 -25 7 -14 -3 -25 -1 -25 3 0 5 -11 11 -25 15 -14 3 -23 9 -20 14 5 8 -26 25 -65 36 -14 4 -41 17 -60 29 -19 12 -40 20 -47 18 -7 -3 -15 7 -19 21 -5 22 -10 24 -37 19 -26 -5 -29 -4 -24 11 4 11 1 19 -11 23 -9 3 -34 23 -54 44 -22 22 -48 39 -60 39 -25 0 -114 67 -192 146 -62 62 -154 108 -411 204 -60 23 -133 52 -160 65 -28 13 -64 27 -80 31 -17 3 -50 17 -75 29 -59 29 -142 62 -210 85 -30 10 -85 29 -121 43 -80 30 -107 23 -69 -19 14 -15 39 -32 56 -40 17 -7 37 -20 44 -29 7 -9 27 -22 44 -29 17 -7 60 -37 96 -65 36 -29 82 -62 103 -72 21 -11 40 -26 44 -34 3 -8 8 -13 12 -11 3 2 47 -21 96 -50 50 -30 106 -61 125 -70 18 -9 53 -31 76 -50 22 -19 45 -34 51 -34 5 0 18 -8 29 -17 10 -10 44 -31 74 -47 30 -16 62 -34 70 -41 8 -6 48 -31 88 -54 39 -24 72 -47 72 -52 0 -17 -65 -9 -98 11 -18 11 -43 20 -57 20 -13 0 -30 6 -38 14 -8 8 -56 36 -108 62 -52 26 -123 68 -159 93 -36 26 -99 68 -140 95 -41 27 -87 57 -102 67 -15 11 -32 19 -39 19 -10 0 -49 27 -89 63 -8 8 -42 27 -75 43 -33 15 -82 45 -109 67 -27 21 -55 36 -62 33 -8 -3 -17 1 -21 8 -5 8 -24 21 -43 30 -19 8 -73 40 -120 70 -90 57 -218 126 -235 126 -6 0 -23 14 -39 30 -15 17 -41 37 -57 45 -15 8 -54 41 -86 73 -32 32 -74 64 -93 71 -19 8 -42 20 -50 26 -8 6 -35 17 -60 24 -52 14 -77 25 -216 92 l-101 49 -199 0 -198 0 41 -27z"/>
    <path d="M17400 11978 c62 -29 140 -59 170 -65 14 -4 36 -14 49 -24 13 -11 36 -19 51 -19 15 0 33 -6 39 -14 6 -8 24 -16 39 -19 66 -14 88 -20 102 -31 23 -18 89 -38 100 -31 15 9 -7 35 -30 35 -9 0 -25 9 -34 19 -10 11 -30 22 -44 26 -38 9 -189 81 -197 94 -3 6 -17 11 -30 11 -14 0 -39 9 -57 20 -27 16 -50 20 -118 19 l-85 -1 45 -20z"/>
    <path d="M18365 11955 c39 -24 82 -50 97 -56 38 -15 26 -29 -18 -22 -31 5 -36 3 -33 -12 2 -10 18 -23 34 -28 17 -5 41 -20 56 -33 14 -13 29 -24 33 -24 4 0 31 -15 59 -34 29 -18 88 -55 132 -81 44 -26 125 -76 181 -111 55 -35 104 -64 108 -64 4 0 60 -33 124 -74 150 -94 174 -106 215 -106 19 0 40 -7 47 -15 13 -16 110 -17 110 0 0 6 -9 21 -20 35 -11 14 -20 29 -20 33 0 4 -18 32 -39 61 -37 50 -94 96 -119 96 -7 0 -44 15 -84 34 -40 18 -107 48 -148 66 -127 55 -164 71 -190 81 -14 6 -38 17 -53 25 -16 8 -36 14 -44 14 -9 0 -37 13 -62 29 -26 15 -57 32 -69 35 -26 9 -30 30 -4 23 9 -3 33 -8 54 -11 20 -4 38 -13 41 -20 3 -8 15 -12 31 -9 20 4 28 0 35 -20 8 -19 19 -27 53 -32 24 -4 57 -15 74 -25 27 -15 83 -30 135 -35 8 0 49 -17 90 -38 89 -44 166 -67 201 -60 20 4 29 0 37 -16 7 -12 20 -21 30 -21 10 0 24 -7 31 -15 7 -8 25 -15 40 -15 15 0 35 -9 45 -20 10 -11 34 -22 54 -26 43 -7 68 -14 141 -44 54 -21 54 -21 36 -1 -11 12 -25 21 -32 21 -7 0 -18 9 -24 21 -6 11 -32 29 -58 40 -26 11 -60 27 -76 35 -17 8 -47 17 -68 20 -21 4 -43 13 -49 20 -6 8 -29 17 -50 20 -21 4 -48 17 -60 30 -12 13 -30 24 -40 24 -9 0 -22 6 -28 14 -7 8 -27 18 -44 21 -18 3 -41 10 -52 14 -67 27 -95 42 -95 50 0 5 -17 15 -37 21 -21 7 -42 16 -47 21 -6 5 -16 9 -23 9 -13 0 -135 51 -218 91 -22 10 -45 19 -51 19 -7 0 -14 7 -18 15 -3 8 -9 14 -13 13 -14 -4 -54 13 -90 38 -34 23 -44 24 -177 24 l-140 0 69 -45z"/>
    <path d="M18683 11993 c9 -2 25 -2 35 0 9 3 1 5 -18 5 -19 0 -27 -2 -17 -5z"/>
    <path d="M18789 11980 c13 -11 33 -20 45 -20 12 0 27 -5 34 -12 12 -12 72 -36 112 -45 14 -3 34 -14 45 -24 11 -9 34 -21 50 -25 17 -4 35 -10 40 -15 6 -4 22 -10 35 -12 14 -2 34 -7 45 -11 11 -5 45 -17 75 -28 140 -51 192 -72 278 -116 38 -19 72 -30 83 -27 19 6 59 -10 71 -28 3 -6 12 -12 20 -13 7 -1 42 -15 78 -32 36 -16 86 -36 113 -42 26 -7 50 -17 53 -21 3 -5 12 -9 20 -9 12 0 14 22 12 137 l-3 136 -46 16 c-26 9 -53 21 -60 27 -18 14 -100 44 -120 44 -9 0 -28 9 -42 20 -14 11 -40 23 -59 26 -39 7 -153 61 -169 81 -9 10 -81 13 -373 13 -360 -1 -361 -1 -337 -20z"/>
    <path d="M19906 11975 c-9 -13 -16 -29 -16 -34 0 -15 40 -38 78 -45 l32 -5 0 54 0 55 -39 0 c-30 0 -42 -5 -55 -25z"/>
    <path d="M3600 11796 c0 -9 7 -16 16 -16 9 0 14 5 12 12 -6 18 -28 21 -28 4z"/>
    <path d="M19842 11391 c13 -16 37 -35 53 -41 17 -7 44 -19 62 -26 41 -18 43 -18 43 10 0 27 -18 37 -52 29 -20 -6 -21 -5 -10 10 12 14 9 18 -23 32 -21 8 -51 15 -67 15 l-30 0 24 -29z"/>
    <path d="M0 10767 l0 -554 367 -364 c436 -433 397 -396 454 -441 104 -83 139 -107 139 -95 0 6 9 1 19 -12 10 -13 16 -33 13 -47 -9 -46 82 -144 132 -144 10 0 106 -29 214 -65 108 -36 200 -65 205 -65 4 0 43 -13 85 -29 42 -16 120 -41 172 -56 52 -15 113 -33 135 -40 22 -7 74 -23 115 -35 41 -12 93 -28 115 -35 22 -8 87 -28 145 -46 58 -17 114 -39 125 -49 13 -12 25 -16 35 -11 18 10 52 1 270 -72 91 -30 287 -94 435 -142 149 -48 311 -100 360 -117 50 -16 117 -38 150 -48 33 -10 123 -37 200 -60 77 -23 158 -47 180 -52 21 -5 44 -13 51 -19 6 -5 20 -8 30 -7 11 1 54 -1 97 -6 57 -6 81 -13 90 -26 8 -12 36 -23 76 -30 60 -11 65 -10 86 10 22 21 52 20 40 -1 -4 -5 1 -9 10 -9 37 0 4 28 -83 70 -77 37 -92 48 -88 64 6 24 -10 56 -29 56 -8 0 -36 11 -62 25 -27 13 -56 27 -65 29 -10 3 -18 14 -18 25 0 13 -8 21 -22 23 -20 3 -21 4 -5 19 9 9 13 19 10 23 -4 3 -2 6 4 6 5 0 10 7 10 16 0 10 -7 14 -19 11 -12 -4 -18 0 -18 11 0 11 -3 13 -8 5 -11 -18 -152 -31 -180 -17 -17 8 -20 13 -10 18 7 3 3 4 -9 2 -12 -2 -22 -1 -21 3 3 14 -22 61 -32 61 -6 0 -9 4 -6 9 4 5 -3 7 -14 4 -11 -3 -20 0 -20 6 0 6 -9 11 -20 11 -11 0 -23 6 -26 14 -5 13 -56 30 -81 27 -7 -1 -22 3 -34 9 -16 9 -18 14 -8 26 6 8 18 14 25 14 8 0 14 7 14 15 0 8 -8 15 -19 15 -19 0 -45 23 -35 32 2 3 -3 8 -12 12 -12 5 -15 2 -10 -9 7 -20 -23 -33 -35 -14 -4 8 -6 24 -2 36 3 14 1 23 -6 23 -10 0 -15 -14 -12 -32 3 -18 -17 -6 -39 24 -19 25 -21 35 -11 50 6 10 7 18 2 18 -6 0 -13 -5 -16 -11 -4 -5 -13 -9 -20 -7 -16 3 -180 155 -375 346 -74 72 -138 132 -141 132 -4 0 -83 74 -175 165 -93 90 -182 177 -198 192 -16 15 -90 91 -165 168 -75 77 -161 163 -191 190 -78 71 -94 94 -75 101 8 3 15 16 15 27 1 22 1 63 0 95 0 31 6 67 18 95 7 16 12 38 12 49 0 12 7 29 15 38 8 9 19 39 25 66 9 46 8 50 -17 71 -15 12 -42 26 -62 31 -48 14 -494 166 -506 174 -6 3 -48 17 -95 32 -47 15 -94 31 -105 36 -26 11 -553 186 -710 235 -66 20 -232 74 -370 120 -137 46 -276 90 -307 99 -31 9 -60 21 -63 26 -3 6 -15 10 -26 10 -19 0 -19 -12 -19 -553z m1280 -1532 l25 -15 -25 4 c-14 3 -35 5 -48 5 -13 1 -20 5 -17 11 9 14 36 12 65 -5z m-50 -47 c0 -5 8 -8 18 -9 11 0 12 -2 4 -6 -15 -6 -72 15 -72 27 0 15 13 18 31 7 10 -6 19 -15 19 -19z m167 -64 c-7 -7 -37 7 -37 17 0 6 9 5 21 -1 11 -7 19 -14 16 -16z m2368 -534 c3 -5 1 -10 -4 -10 -6 0 -11 5 -11 10 0 6 2 10 4 10 3 0 8 -4 11 -10z m109 -95 c3 -8 12 -15 21 -15 8 0 15 -7 15 -15 0 -23 -21 -18 -60 15 l-35 29 26 1 c15 0 29 -7 33 -15z"/>
    <path d="M7186 11211 c-7 -10 106 -112 204 -186 36 -26 110 -88 166 -137 56 -49 170 -140 255 -204 153 -113 275 -207 520 -399 70 -55 172 -133 226 -173 54 -40 132 -99 173 -132 41 -32 136 -105 210 -162 74 -57 144 -111 155 -121 20 -18 193 -152 300 -232 30 -22 123 -96 209 -165 85 -69 162 -130 173 -137 17 -12 17 -13 -4 -31 l-22 -19 42 -41 c27 -26 66 -50 107 -65 36 -13 93 -38 127 -56 34 -17 70 -31 79 -31 8 0 43 -11 77 -24 79 -30 138 -50 260 -87 53 -16 105 -34 115 -39 9 -6 62 -26 117 -45 55 -18 186 -63 290 -100 105 -37 204 -70 220 -74 17 -4 77 -26 135 -48 128 -49 216 -79 295 -104 49 -14 231 -76 380 -128 27 -10 257 -85 620 -204 77 -25 194 -62 260 -82 66 -20 130 -41 143 -46 13 -5 32 -9 42 -9 19 0 70 57 70 78 0 14 -46 39 -96 51 -22 5 -64 19 -94 31 -70 28 -168 62 -245 86 -33 9 -71 23 -85 30 -14 7 -51 23 -83 35 -31 13 -52 26 -46 30 6 3 7 9 2 12 -5 3 -15 2 -22 -2 -15 -9 -59 -3 -67 10 -3 5 4 9 15 9 40 0 33 23 -20 71 -30 26 -62 48 -72 49 -10 0 -22 11 -27 25 -5 14 -14 25 -20 25 -6 0 -32 20 -58 43 -26 24 -74 61 -107 82 -33 21 -70 47 -82 59 -24 24 -64 54 -183 135 -47 32 -94 67 -105 78 -11 11 -35 28 -52 37 -18 9 -47 30 -65 46 -98 88 -174 146 -248 187 -25 15 -55 37 -68 50 -13 12 -29 23 -37 23 -8 0 -18 8 -24 17 -7 13 -21 17 -50 17 -38 -1 -42 1 -49 29 -13 50 -93 110 -154 116 -5 1 -8 11 -8 24 0 13 -5 28 -12 35 -15 15 -58 16 -58 2 0 -5 -4 -10 -10 -10 -5 0 -10 16 -10 35 0 19 -4 35 -10 35 -5 0 -19 9 -31 21 -14 14 -28 19 -42 14 -12 -3 -39 -9 -59 -12 -34 -5 -36 -8 -27 -25 6 -11 7 -18 2 -15 -4 2 -18 1 -30 -4 -19 -7 -23 -16 -23 -52 0 -54 -6 -61 -31 -36 -20 20 -19 49 3 76 8 10 4 12 -20 7 -34 -7 -55 13 -28 28 20 11 21 32 1 48 -8 7 -12 16 -9 22 3 5 11 4 20 -3 11 -9 10 -5 -1 19 -23 46 -37 53 -76 42 -43 -12 -49 -12 -49 0 0 6 8 10 18 10 16 1 16 1 0 14 -10 7 -18 20 -18 29 0 8 -5 17 -12 19 -6 2 3 10 20 17 18 8 32 16 32 20 0 3 -19 12 -42 19 -37 12 -44 11 -54 -2 -16 -22 -27 -20 -21 4 3 10 -1 24 -9 31 -20 17 -18 40 4 33 12 -4 13 -3 4 3 -7 6 -12 16 -10 23 2 8 -4 15 -13 17 -17 4 -18 1 -18 -86 0 -27 -3 -32 -16 -27 -9 3 -19 6 -21 6 -2 0 -4 7 -4 15 0 8 4 15 9 15 5 0 11 7 15 15 3 8 2 14 -2 14 -24 -4 -34 2 -24 14 7 8 8 18 1 27 -8 12 -9 11 -7 -5 2 -14 -3 -20 -17 -20 -13 0 -20 6 -19 18 2 14 -7 17 -52 17 -39 0 -56 -4 -60 -15 -7 -17 -37 -20 -65 -5 -23 13 -25 33 -4 50 11 9 12 16 2 31 -6 10 -17 19 -24 19 -7 0 -13 6 -13 13 0 8 -9 22 -19 31 -19 17 -18 46 1 46 10 0 38 25 38 34 0 3 -6 3 -13 0 -7 -2 -21 4 -31 15 -10 11 -22 19 -25 16 -4 -2 -13 6 -21 18 -12 20 -12 21 3 9 9 -8 18 -9 21 -3 4 5 0 13 -7 18 -7 4 -26 25 -41 45 -32 43 -92 70 -361 164 -234 81 -458 160 -620 219 -71 26 -148 53 -170 61 -22 7 -71 24 -110 38 -38 14 -106 38 -150 54 -44 16 -125 46 -180 66 -429 159 -533 196 -580 207 -62 15 -135 39 -195 65 -30 13 -111 44 -180 69 -69 25 -139 52 -157 60 -35 17 -69 19 -77 6z m2959 -1390 c3 -5 1 -12 -5 -16 -5 -3 -10 1 -10 9 0 18 6 21 15 7z m155 -11 c0 -5 -2 -10 -4 -10 -3 0 -8 5 -11 10 -3 6 -1 10 4 10 6 0 11 -4 11 -10z m90 -60 c0 -5 -2 -10 -4 -10 -3 0 -8 5 -11 10 -3 6 -1 10 4 10 6 0 11 -4 11 -10z m100 -230 c0 -5 -5 -10 -11 -10 -5 0 -7 5 -4 10 3 6 8 10 11 10 2 0 4 -4 4 -10z m88 -88 c-11 -12 -14 -11 -22 7 -6 14 -15 19 -26 16 -23 -7 -50 4 -50 20 0 8 14 15 33 17 41 4 85 -36 65 -60z m145 -232 c3 -11 2 -20 -3 -20 -4 0 -10 9 -13 20 -3 11 -2 20 3 20 4 0 10 -9 13 -20z m-834 -34 c16 -9 20 -15 12 -21 -15 -9 -73 14 -65 26 7 12 25 11 53 -5z m146 -56 c3 -5 2 -10 -4 -10 -5 0 -13 5 -16 10 -3 6 -2 10 4 10 5 0 13 -4 16 -10z m1340 -460 c3 -5 -1 -10 -10 -10 -9 0 -13 5 -10 10 3 6 8 10 10 10 2 0 7 -4 10 -10z m266 -90 c5 0 9 -4 9 -9 0 -12 -38 -2 -47 12 -4 7 0 8 11 4 10 -4 22 -7 27 -7z m63 -15 c8 -8 19 -15 25 -15 5 0 12 -4 16 -10 3 -5 -7 -5 -27 1 -18 6 -39 13 -46 15 -7 2 -10 8 -7 14 9 14 21 12 39 -5z m182 -68 c11 -11 -65 -8 -87 3 -35 19 -20 27 30 16 27 -6 53 -14 57 -19z m253 -82 c1 -2 1 -8 0 -13 -2 -5 -22 -1 -44 10 l-40 18 40 -6 c22 -3 42 -7 44 -9z m91 -33 c0 -14 -11 -21 -26 -15 -8 3 -11 9 -8 14 7 11 34 12 34 1z"/>
    <path d="M19830 11021 c0 -14 30 -35 52 -36 11 -1 23 -8 28 -15 6 -10 70 -39 88 -40 1 0 2 12 2 28 0 23 -7 30 -43 44 -51 20 -127 32 -127 19z"/>
    <path d="M12703 10787 c-7 -12 23 -38 127 -107 94 -63 179 -122 295 -205 50 -36 126 -89 170 -119 103 -70 172 -119 309 -220 120 -88 148 -108 207 -146 21 -14 95 -65 165 -115 69 -49 144 -101 165 -115 61 -39 144 -97 279 -195 69 -50 172 -124 230 -164 58 -40 161 -113 230 -162 94 -67 133 -89 157 -89 30 0 31 -2 26 -33 -6 -40 11 -57 90 -86 32 -11 75 -30 96 -40 20 -11 64 -29 97 -40 68 -23 415 -153 489 -182 111 -45 216 -82 325 -115 63 -20 129 -44 146 -55 17 -10 38 -19 45 -19 8 0 26 -6 40 -14 14 -7 52 -21 85 -30 32 -10 73 -24 89 -31 50 -23 302 -112 678 -240 256 -88 279 -92 320 -57 12 11 16 24 12 39 -7 29 5 29 36 1 14 -13 63 -43 109 -68 57 -31 90 -55 103 -77 20 -35 94 -85 148 -102 44 -12 158 -58 184 -73 11 -6 43 -17 70 -24 28 -7 115 -38 195 -69 80 -31 177 -67 215 -80 75 -25 205 -72 430 -155 77 -29 158 -58 180 -66 71 -26 149 -56 170 -65 11 -5 61 -22 110 -38 50 -16 126 -43 170 -61 80 -32 281 -100 297 -100 4 0 8 26 8 58 l0 57 -62 21 c-66 22 -121 42 -228 82 -57 22 -157 72 -185 94 -5 4 -30 24 -54 44 -24 19 -58 42 -75 51 -17 9 -54 37 -81 63 -33 30 -72 55 -110 69 -80 29 -111 47 -169 98 -29 26 -58 43 -73 43 -13 0 -34 10 -47 23 -12 12 -47 35 -78 50 -30 15 -80 50 -111 77 -30 28 -60 50 -66 50 -15 0 -83 48 -98 70 -8 11 -23 20 -33 20 -10 0 -21 9 -25 19 -3 11 -25 29 -48 41 -80 41 -99 52 -118 71 -10 10 -35 29 -56 42 -21 14 -47 34 -57 46 -11 11 -24 21 -30 21 -12 0 -58 23 -116 59 -19 12 -43 24 -52 27 -10 4 -18 13 -18 20 0 9 -11 14 -29 14 -21 0 -36 9 -54 34 -14 18 -50 44 -79 58 -29 14 -63 37 -75 52 -13 14 -31 26 -42 26 -10 0 -25 7 -32 16 -7 9 -36 31 -64 50 -92 63 -131 92 -212 163 -58 50 -103 79 -155 100 -98 40 -283 111 -393 151 -145 53 -297 110 -333 126 -18 8 -40 14 -48 14 -9 0 -52 15 -97 34 -112 46 -476 189 -562 221 -38 15 -83 32 -100 39 -124 54 -234 90 -259 85 -15 -4 -14 -7 5 -34 12 -16 48 -48 80 -70 32 -22 98 -68 146 -102 48 -34 131 -92 183 -128 52 -36 113 -78 135 -94 202 -147 761 -530 898 -616 151 -94 465 -315 570 -401 9 -8 21 -14 26 -14 5 0 14 -7 21 -15 10 -12 10 -15 -3 -15 -8 0 -20 7 -27 15 -7 8 -29 15 -50 15 -22 0 -48 8 -63 20 -14 11 -31 20 -39 20 -19 0 -139 39 -152 49 -6 4 -25 11 -41 14 -58 11 -147 49 -178 77 -18 15 -54 39 -82 54 -56 30 -104 58 -155 92 -19 12 -48 26 -65 30 -33 8 -44 16 -89 60 -17 17 -50 43 -73 58 -24 14 -43 30 -43 35 0 4 -11 13 -25 19 -17 8 -25 20 -25 36 0 19 -7 26 -32 31 -36 8 -97 44 -128 75 -11 11 -27 20 -35 20 -17 0 -63 30 -110 71 -16 15 -42 29 -56 33 -15 3 -29 15 -32 26 -3 13 -17 22 -36 26 -16 4 -37 17 -46 30 -10 15 -25 24 -41 24 -16 0 -23 4 -18 11 5 8 -1 10 -19 7 -28 -5 -37 1 -96 71 -19 23 -40 41 -47 41 -6 0 -28 13 -49 30 -20 16 -46 32 -56 35 -11 4 -24 17 -29 30 -5 14 -23 28 -46 35 -21 7 -53 28 -72 46 -19 18 -44 36 -56 40 -11 4 -35 17 -52 30 -17 13 -36 24 -42 24 -6 0 -37 23 -69 51 -32 28 -71 58 -88 66 -16 9 -34 21 -40 28 -20 23 -81 62 -107 69 -15 3 -38 17 -50 30 -13 13 -41 35 -63 49 -22 13 -49 35 -60 47 -74 80 -112 109 -184 138 -42 18 -81 32 -85 32 -5 0 -72 28 -150 61 -77 34 -181 75 -231 91 -49 15 -99 32 -110 37 -11 5 -51 20 -90 32 -94 31 -198 69 -441 163 -50 19 -103 38 -119 42 -15 4 -64 22 -109 41 -44 19 -105 41 -135 49 -30 8 -60 18 -65 23 -6 5 -56 23 -111 41 -96 31 -134 46 -200 75 -41 18 -113 26 -122 12z"/>
    <path d="M16430 10520 c0 -5 5 -10 10 -10 6 0 10 5 10 10 0 6 -4 10 -10 10 -5 0 -10 -4 -10 -10z"/>
    <path d="M16473 10503 c-29 -11 -7 -35 103 -109 63 -44 123 -83 132 -89 94 -55 152 -93 178 -114 17 -14 64 -45 105 -69 41 -23 109 -66 151 -95 42 -28 98 -65 124 -82 26 -16 55 -34 64 -40 8 -5 30 -20 47 -32 17 -13 34 -23 39 -23 4 0 30 -17 58 -39 29 -21 71 -48 94 -60 24 -12 52 -31 63 -42 11 -11 30 -24 43 -29 13 -5 44 -23 67 -40 61 -44 235 -157 289 -187 25 -14 65 -42 90 -62 25 -20 77 -57 115 -81 172 -107 271 -175 289 -197 20 -27 91 -65 163 -89 26 -9 118 -45 203 -81 211 -88 428 -173 442 -173 4 0 31 -10 60 -23 29 -13 73 -31 98 -39 25 -9 70 -26 100 -38 30 -13 78 -32 105 -42 45 -17 161 -65 253 -104 18 -8 37 -14 42 -14 6 0 10 31 10 69 0 66 -1 69 -27 76 -15 3 -40 17 -56 31 -16 13 -37 24 -47 24 -11 0 -24 9 -30 20 -6 11 -18 20 -27 20 -9 0 -31 11 -49 25 -18 14 -36 25 -39 25 -4 0 -31 20 -59 45 -29 25 -59 45 -67 45 -8 0 -32 16 -54 35 -22 19 -46 33 -53 30 -8 -3 -25 4 -39 15 -14 11 -33 20 -42 20 -9 0 -40 23 -69 50 -29 28 -56 50 -61 50 -5 0 -44 29 -86 65 -42 36 -85 65 -95 65 -10 0 -25 8 -32 19 -7 10 -39 33 -70 51 -32 17 -58 36 -58 41 0 5 -7 9 -15 9 -8 0 -24 9 -35 20 -11 11 -28 20 -38 20 -11 0 -27 9 -36 19 -10 11 -31 23 -47 26 -16 4 -34 15 -39 25 -5 10 -23 21 -39 25 -15 3 -41 19 -56 35 -28 30 -96 70 -116 70 -6 0 -26 12 -44 28 -18 15 -56 43 -85 62 -29 19 -66 47 -84 61 -17 14 -47 34 -66 45 -19 10 -50 31 -68 47 -18 15 -39 27 -46 27 -7 0 -33 15 -57 33 -44 34 -148 81 -314 142 -49 18 -110 42 -135 53 -25 11 -58 24 -75 30 -98 34 -133 47 -218 86 -31 14 -65 26 -73 26 -9 0 -28 6 -42 14 -15 8 -61 26 -102 41 -147 54 -235 89 -269 107 -31 18 -52 26 -186 80 -51 20 -150 49 -163 47 -4 0 -13 -3 -19 -6z"/>
    <path d="M19203 10302 c-23 -14 67 -94 200 -178 43 -27 104 -66 135 -87 31 -20 71 -44 87 -52 17 -8 55 -33 85 -54 30 -22 83 -56 117 -75 34 -20 65 -41 68 -47 9 -13 82 -59 95 -59 6 0 10 46 10 123 l-1 122 -62 28 c-34 15 -66 27 -70 27 -5 0 -23 6 -40 14 -18 7 -59 24 -92 36 -33 12 -89 35 -125 50 -36 15 -76 31 -90 35 -14 4 -66 24 -115 45 -156 66 -191 79 -202 72z"/>
    <path d="M3477 10173 c-14 -14 -6 -32 24 -50 29 -19 156 -134 509 -463 91 -85 229 -211 305 -280 76 -69 175 -159 219 -201 45 -41 102 -93 127 -115 25 -21 95 -84 155 -139 60 -55 134 -121 164 -147 102 -86 114 -97 330 -293 85 -78 169 -152 186 -165 17 -14 159 -144 316 -290 262 -244 359 -332 461 -420 20 -18 37 -38 37 -45 0 -6 24 -35 53 -63 48 -45 102 -72 144 -72 7 0 41 -11 75 -24 35 -13 128 -43 208 -67 80 -23 195 -58 255 -76 61 -19 148 -45 195 -58 47 -13 118 -33 158 -44 39 -12 104 -30 143 -41 40 -12 81 -27 93 -35 11 -8 38 -15 59 -15 22 0 101 -20 176 -44 75 -24 204 -65 286 -91 134 -41 292 -90 595 -187 52 -16 122 -36 155 -43 33 -7 104 -27 159 -44 54 -17 108 -31 120 -31 12 0 27 -5 33 -11 6 -6 41 -19 79 -29 155 -42 244 -75 244 -90 0 -14 -14 -13 -57 5 -19 8 -44 15 -55 15 -11 0 -41 7 -67 15 -25 8 -73 21 -106 29 -33 8 -154 42 -270 75 -115 34 -250 72 -300 86 -49 14 -117 34 -150 45 -33 11 -114 36 -180 56 -66 20 -136 42 -155 49 -30 11 -199 61 -380 113 -30 8 -73 26 -96 39 -24 13 -57 23 -81 23 -44 0 -359 83 -548 145 -27 9 -66 20 -85 24 -19 5 -46 13 -60 19 -14 6 -65 23 -115 37 -49 15 -146 45 -215 67 -75 24 -126 36 -128 30 -2 -6 -16 -26 -32 -44 -17 -18 -30 -36 -30 -39 0 -16 34 -30 146 -64 65 -20 128 -42 139 -49 11 -8 52 -23 90 -34 39 -11 111 -34 160 -51 87 -29 176 -57 490 -155 83 -26 188 -60 235 -76 47 -16 150 -49 230 -74 80 -24 190 -58 245 -75 55 -17 143 -42 195 -55 52 -13 115 -31 140 -40 25 -9 85 -28 135 -41 49 -13 110 -31 135 -39 169 -57 389 -127 410 -131 14 -2 45 -10 70 -19 25 -9 54 -16 66 -16 11 0 29 -7 40 -15 10 -8 31 -15 47 -15 15 0 27 -4 27 -9 0 -10 35 -20 90 -27 43 -5 210 -64 210 -74 0 -4 11 -5 24 -3 27 6 96 -14 96 -27 0 -4 17 -10 38 -13 69 -10 131 -26 176 -47 25 -11 51 -20 58 -20 8 0 20 -6 26 -12 7 -7 31 -13 53 -14 26 0 45 -7 58 -21 15 -15 36 -21 95 -26 44 -3 85 -12 98 -21 12 -9 29 -16 38 -16 9 0 23 -9 33 -20 11 -14 29 -20 57 -20 29 0 42 -5 50 -20 6 -11 16 -18 22 -14 7 4 6 9 -3 15 -8 5 -11 9 -6 9 4 0 25 -12 46 -26 36 -24 42 -24 80 -13 33 10 40 16 36 31 -3 10 -7 27 -10 37 -3 10 -15 21 -27 24 -20 6 -20 7 -5 31 10 14 17 32 17 40 0 19 -52 56 -79 56 -11 0 -53 11 -93 24 -40 13 -92 29 -115 36 -32 8 -43 16 -43 30 0 15 -7 20 -29 20 -16 0 -34 7 -41 15 -8 9 -21 13 -36 9 -15 -4 -24 -2 -24 5 0 6 -9 11 -20 11 -48 0 -134 37 -171 72 -22 21 -42 38 -45 38 -3 0 -29 24 -58 53 -49 49 -71 69 -222 199 -93 81 -184 160 -214 188 -56 52 -112 100 -116 100 -5 0 -50 37 -81 68 -13 12 -28 22 -33 22 -6 0 -43 32 -82 70 -40 39 -83 73 -96 76 -12 4 -36 26 -53 50 -16 24 -36 44 -44 44 -8 0 -15 4 -15 8 0 5 -30 33 -67 63 -37 30 -74 61 -83 69 -8 8 -47 41 -85 72 -39 32 -78 64 -88 73 -10 9 -37 25 -60 37 -23 12 -59 41 -80 65 -21 24 -45 43 -52 43 -8 0 -23 14 -35 30 -23 32 -68 60 -96 60 -9 0 -40 26 -69 58 -51 55 -79 66 -55 23 13 -25 -2 -28 -24 -5 -18 17 -21 28 -6 19 18 -11 10 15 -10 32 -11 10 -20 22 -20 29 0 12 -51 60 -92 86 -25 17 -27 17 -42 -7 -15 -23 -15 -25 0 -25 16 0 16 -1 0 -19 -12 -13 -14 -21 -6 -26 11 -7 8 -54 -5 -74 -3 -6 2 -11 13 -11 11 0 25 -7 33 -16 7 -8 21 -13 30 -11 10 3 17 1 16 -3 -1 -4 10 -22 26 -39 15 -17 27 -34 27 -37 0 -4 11 -22 26 -41 14 -18 20 -33 15 -33 -6 0 -11 -7 -11 -15 0 -9 9 -15 25 -15 15 0 25 -6 25 -14 0 -8 3 -16 8 -18 23 -10 48 -68 50 -115 2 -50 1 -53 -23 -53 -14 0 -25 -5 -25 -11 0 -20 -76 -3 -100 21 -13 13 -25 19 -27 13 -6 -17 -45 -2 -77 29 -17 15 -33 28 -37 28 -4 0 -9 9 -12 20 -3 12 -14 20 -26 20 -11 0 -30 13 -42 29 -12 16 -32 32 -44 35 -12 3 -25 15 -28 26 -3 11 -10 20 -16 20 -8 0 -9 -6 -2 -19 9 -15 7 -20 -9 -24 -22 -6 -60 18 -60 39 0 8 7 14 15 14 8 0 15 5 15 11 0 5 -3 8 -8 5 -13 -8 -40 19 -44 44 -4 29 -23 37 -32 13 -5 -11 -1 -22 10 -30 10 -7 14 -16 11 -20 -4 -3 -17 3 -30 15 -13 12 -28 22 -33 22 -5 0 -22 13 -37 29 -15 17 -35 32 -45 35 -9 3 -28 22 -41 41 -13 20 -25 34 -27 32 -2 -2 -27 18 -56 45 -28 26 -55 48 -59 48 -4 0 -33 24 -64 53 -32 28 -75 68 -96 88 -32 29 -39 42 -39 72 0 20 4 37 8 37 15 0 34 52 23 63 -13 13 -61 0 -61 -17 0 -14 -29 -26 -66 -26 -28 0 -114 76 -114 101 0 11 -13 25 -32 35 -66 33 -119 105 -86 116 20 7 22 136 3 179 -20 44 -15 66 20 79 21 8 24 14 19 39 -5 23 -2 30 15 36 19 6 20 8 7 34 -9 16 -11 33 -6 41 8 12 5 44 -5 80 -3 9 -33 22 -77 32 -40 10 -134 38 -208 62 -74 24 -189 60 -255 81 -66 20 -138 43 -160 51 -22 7 -87 27 -144 45 -58 17 -114 37 -126 45 -12 7 -73 31 -136 52 -372 125 -485 165 -493 173 -6 5 -19 9 -30 9 -12 1 -52 12 -91 26 -38 14 -97 33 -130 44 -33 10 -80 26 -105 35 -86 34 -386 136 -465 160 -44 13 -105 33 -135 43 -30 11 -199 68 -374 126 -176 59 -335 113 -355 121 -58 21 -229 75 -239 75 -5 0 -12 -3 -15 -7z m5048 -2863 c-4 -6 -2 -17 5 -25 9 -11 7 -12 -9 -8 -31 8 -26 34 7 42 2 1 0 -4 -3 -9z m82 -15 c3 -9 3 -19 -1 -22 -7 -7 -36 16 -36 28 0 15 30 10 37 -6z m1113 -845 c12 -8 12 -10 -4 -16 -11 -4 -24 0 -34 10 -15 15 -15 16 3 16 11 0 27 -4 35 -10z m125 -40 c4 -6 -5 -10 -19 -10 -14 0 -26 5 -26 10 0 6 9 10 19 10 11 0 23 -4 26 -10z m85 -31 l35 -20 -35 7 c-37 6 -78 34 -50 34 8 -1 31 -10 50 -21z"/>
    <path d="M10080 10005 c0 -8 4 -15 8 -15 5 0 16 -15 25 -32 10 -21 16 -27 16 -15 1 17 31 25 31 8 0 -5 9 -7 20 -4 11 3 20 11 20 18 0 13 -8 17 -62 29 -16 4 -28 11 -28 16 0 6 -7 10 -15 10 -8 0 -15 -7 -15 -15z"/>
    <path d="M10260 9950 c0 -6 7 -10 15 -10 8 0 15 2 15 4 0 2 -7 6 -15 10 -8 3 -15 1 -15 -4z"/>
    <path d="M10820 9906 c0 -7 20 -29 46 -47 111 -83 221 -167 264 -204 26 -22 89 -71 140 -110 51 -38 145 -112 209 -163 64 -52 145 -115 180 -140 35 -26 90 -67 122 -92 32 -25 89 -67 126 -93 37 -27 124 -89 193 -138 69 -50 142 -102 163 -117 21 -15 93 -69 160 -120 67 -51 196 -147 286 -215 143 -107 257 -193 486 -367 271 -207 263 -202 332 -205 32 -2 81 -13 108 -24 l50 -22 -60 6 c-33 3 -74 8 -92 10 -31 3 -54 -17 -33 -30 6 -4 10 -14 10 -24 0 -10 10 -25 23 -34 32 -21 140 -62 217 -83 36 -9 89 -28 119 -41 29 -12 60 -23 68 -23 13 0 123 -41 274 -101 25 -10 63 -23 85 -28 41 -10 295 -94 354 -116 19 -8 62 -21 95 -31 124 -36 267 -86 327 -114 35 -17 71 -30 81 -30 9 0 25 -4 35 -9 20 -10 88 -35 232 -85 58 -21 123 -46 145 -56 22 -10 69 -29 105 -41 65 -22 120 -46 173 -75 15 -8 58 -19 95 -24 103 -14 145 -24 317 -80 172 -56 221 -69 247 -70 19 0 58 58 54 82 -2 16 -67 68 -84 68 -8 0 -158 58 -184 71 -10 5 -26 9 -36 9 -10 0 -22 4 -27 9 -6 5 -30 13 -55 19 -98 22 -187 62 -270 122 -36 26 -87 62 -115 80 -27 19 -52 37 -55 40 -3 4 -13 9 -22 13 -10 3 -18 13 -18 21 0 14 -75 51 -98 47 -6 -1 -16 8 -21 21 -5 14 -24 29 -46 37 -20 7 -48 23 -62 35 -13 11 -39 26 -56 32 -21 7 -33 18 -35 32 -3 20 -58 65 -188 157 -23 17 -55 41 -70 54 -14 12 -42 29 -60 37 -19 8 -34 18 -34 23 0 6 -10 13 -22 17 -13 3 -41 19 -62 35 -22 16 -44 29 -49 29 -5 0 -22 11 -39 25 -16 14 -37 25 -46 25 -20 1 -52 23 -52 37 0 24 -28 36 -97 42 -7 0 -13 10 -13 21 0 11 -8 23 -17 26 -10 3 -26 10 -35 15 -25 13 -38 11 -38 -5 0 -8 -7 -17 -16 -20 -23 -9 -25 -8 -22 10 4 21 -50 43 -61 25 -5 -8 -15 -5 -31 9 -13 11 -31 20 -41 20 -21 0 -34 16 -19 25 6 4 -3 17 -19 31 -22 18 -37 23 -60 19 -24 -4 -31 -1 -37 17 -4 13 -15 29 -25 36 -13 9 -19 25 -19 51 0 48 -8 55 -32 28 -18 -21 -19 -21 -17 -2 1 11 -1 28 -6 38 -10 25 -1 31 24 16 11 -7 24 -10 28 -5 10 9 -43 54 -74 62 -12 3 -24 11 -26 18 -8 21 -91 39 -134 31 -21 -5 -46 -7 -55 -6 -13 2 -18 -5 -18 -20 0 -16 5 -20 20 -16 11 3 17 1 14 -4 -3 -6 -1 -16 5 -23 9 -10 7 -15 -8 -19 -11 -3 -26 2 -32 10 -9 10 -14 11 -19 2 -4 -6 -13 -8 -19 -5 -6 4 -8 12 -5 18 4 6 2 8 -4 4 -6 -3 -13 -2 -16 3 -3 5 5 12 19 15 35 9 31 33 -10 57 -19 12 -35 25 -35 30 0 15 -37 10 -54 -7 -15 -14 -16 -14 -17 3 -2 26 -2 26 6 51 5 18 2 22 -15 22 -24 0 -38 31 -44 96 -2 25 -8 50 -13 55 -14 14 -64 17 -87 6 -16 -8 -18 -6 -13 12 3 14 -2 26 -16 36 -15 11 -17 15 -7 16 8 0 4 5 -10 10 -14 6 -33 8 -42 5 -10 -2 -18 0 -18 5 0 4 -9 17 -21 28 -14 13 -19 26 -15 39 4 11 0 24 -9 32 -8 7 -15 9 -15 4 0 -4 -11 3 -25 16 -14 13 -25 29 -25 35 0 6 -19 29 -42 52 -36 34 -67 51 -183 93 -77 28 -162 61 -190 72 -27 11 -147 54 -265 95 -118 41 -246 86 -285 99 -38 14 -79 29 -90 34 -11 5 -54 21 -95 34 -41 13 -106 36 -145 51 -175 68 -254 98 -300 112 -27 9 -77 26 -110 38 -33 12 -108 39 -166 59 -58 19 -119 42 -135 51 -16 8 -36 15 -45 15 -10 0 -68 18 -130 40 -138 49 -329 110 -346 110 -7 0 -13 -6 -13 -14z m2750 -1206 c0 -5 -7 -10 -16 -10 -8 0 -12 5 -9 10 3 6 10 10 16 10 5 0 9 -4 9 -10z m224 -236 c3 -9 6 -20 6 -25 0 -16 -47 -10 -61 8 -8 9 -9 14 -3 10 7 -4 17 0 24 8 16 19 26 19 34 -1z m216 -41 c0 -8 -12 -13 -29 -13 -16 0 -31 6 -34 13 -3 8 6 12 29 12 21 0 34 -5 34 -12z m40 -23 c0 -5 -12 -10 -27 -9 -25 0 -26 1 -8 9 27 12 35 12 35 0z m224 -311 c-3 -5 -10 -7 -15 -3 -5 3 -7 10 -3 15 3 5 10 7 15 3 5 -3 7 -10 3 -15z m273 -95 c-3 -3 -12 -4 -19 -1 -8 3 -5 6 6 6 11 1 17 -2 13 -5z m233 -514 c0 -5 -4 -10 -9 -10 -6 0 -13 5 -16 10 -3 6 1 10 9 10 9 0 16 -4 16 -10z"/>
    <path d="M18686 9622 c-7 -11 2 -19 156 -130 118 -84 215 -149 256 -171 15 -7 41 -26 57 -41 17 -15 53 -39 81 -53 27 -14 56 -33 64 -42 11 -13 81 -59 171 -111 10 -6 27 -18 36 -26 10 -8 27 -18 37 -22 17 -6 81 -46 180 -112 16 -10 44 -28 62 -39 18 -11 72 -44 119 -72 47 -29 87 -53 90 -53 3 0 5 91 5 203 l0 204 -32 10 c-18 6 -82 32 -143 58 -60 26 -123 51 -140 56 -68 20 -233 77 -251 87 -34 20 -88 41 -149 61 -56 18 -76 25 -172 67 -21 9 -72 29 -113 44 -41 16 -105 40 -142 54 -77 29 -162 43 -172 28z"/>
    <path d="M10661 9514 c0 -11 3 -14 6 -6 3 7 2 16 -1 19 -3 4 -6 -2 -5 -13z"/>
    <path d="M1092 9026 c-43 -24 -55 -72 -24 -99 25 -22 99 -53 162 -66 56 -11 143 -37 325 -96 55 -18 134 -42 175 -55 41 -13 147 -48 235 -78 88 -29 176 -58 195 -62 100 -24 137 -35 280 -81 85 -27 182 -59 215 -70 33 -11 78 -24 100 -29 22 -5 94 -26 160 -48 121 -39 257 -81 395 -122 41 -12 89 -28 107 -36 17 -8 39 -14 49 -14 10 0 52 -11 94 -24 41 -14 125 -39 185 -56 201 -58 658 -197 740 -225 22 -7 121 -37 220 -65 99 -28 227 -67 285 -85 58 -18 175 -54 260 -80 85 -25 207 -65 270 -87 63 -22 132 -44 152 -49 20 -5 59 -18 87 -29 45 -17 52 -18 66 -4 16 17 25 42 28 88 2 28 -1 30 -78 56 -44 15 -123 42 -175 59 -139 47 -307 100 -370 117 -30 8 -100 29 -155 45 -55 17 -127 39 -160 49 -195 58 -273 84 -300 100 -27 16 -250 84 -464 141 -41 11 -90 27 -109 35 -19 8 -48 14 -64 14 -16 0 -41 8 -54 19 -13 10 -44 22 -69 25 -24 4 -47 11 -50 15 -2 5 -22 12 -42 16 -48 8 -190 49 -263 74 -30 11 -102 34 -160 51 -275 83 -772 251 -832 281 -29 15 -42 17 -55 8 -14 -8 -57 2 -204 50 -102 34 -191 61 -198 61 -7 0 -45 11 -84 24 -40 13 -117 36 -172 51 -55 15 -136 40 -180 55 -44 16 -152 50 -240 75 -87 26 -163 49 -168 52 -16 9 -97 9 -115 -1z"/>
    <path d="M4080 8566 c0 -2 7 -7 16 -10 8 -3 12 -2 9 4 -6 10 -25 14 -25 6z"/>
    <path d="M4080 8500 c0 -5 7 -10 16 -10 8 0 12 5 9 10 -3 6 -10 10 -16 10 -5 0 -9 -4 -9 -10z"/>
    <path d="M4500 8490 c0 -5 5 -10 11 -10 5 0 7 5 4 10 -3 6 -8 10 -11 10 -2 0 -4 -4 -4 -10z"/>
    <path d="M6996 8484 c-9 -23 -8 -24 13 -24 19 0 35 23 24 34 -12 11 -31 6 -37 -10z"/>
    <path d="M4542 8434 c3 -19 45 -38 53 -24 7 11 -22 40 -41 40 -9 0 -14 -7 -12 -16z"/>
    <path d="M4662 8323 c4 -21 33 -25 33 -3 0 8 -8 16 -18 18 -14 3 -18 -1 -15 -15z"/>
    <path d="M4480 8186 c0 -9 5 -16 10 -16 6 0 10 4 10 9 0 6 -4 13 -10 16 -5 3 -10 -1 -10 -9z"/>
    <path d="M4798 8163 c-23 -6 -30 -29 -12 -43 8 -7 14 -17 14 -22 0 -5 9 -18 20 -30 28 -30 14 -42 -21 -18 -16 12 -33 18 -39 15 -5 -3 -10 -1 -10 5 0 6 -7 18 -15 27 -14 13 -13 17 7 33 34 27 14 36 -21 10 l-31 -21 -29 20 c-39 28 -61 27 -61 -2 0 -12 -8 -29 -19 -36 -11 -8 -16 -21 -14 -32 6 -23 21 -25 29 -4 5 12 9 11 27 -5 11 -11 26 -20 33 -20 7 0 29 -9 48 -21 36 -21 56 -19 56 6 0 21 95 -21 115 -51 14 -21 22 -24 78 -23 34 1 67 5 73 10 7 6 18 1 29 -11 21 -23 45 -26 45 -6 0 20 -27 39 -45 32 -11 -4 -22 4 -33 25 -15 26 -21 29 -49 24 -33 -6 -42 2 -22 22 16 16 -45 56 -76 51 -23 -5 -41 14 -30 32 7 12 -28 37 -47 33z m122 -116 c0 -4 -9 -3 -20 3 -11 6 -20 15 -20 20 0 6 9 5 20 -2 11 -7 20 -16 20 -21z"/>
    <path d="M8030 8080 c0 -5 7 -10 16 -10 8 0 12 5 9 10 -3 6 -10 10 -16 10 -5 0 -9 -4 -9 -10z"/>
    <path d="M5100 7910 c0 -13 28 -25 38 -16 3 4 0 11 -8 16 -20 13 -30 12 -30 0z"/>
    <path d="M17120 7678 c1 -7 18 -26 38 -41 54 -41 162 -120 181 -132 8 -5 56 -39 106 -74 49 -36 115 -82 145 -102 78 -54 158 -110 210 -147 25 -18 61 -44 80 -57 19 -14 49 -35 66 -47 34 -25 30 -22 232 -157 79 -53 151 -101 160 -106 9 -6 60 -42 112 -81 95 -70 205 -144 216 -144 3 0 31 -20 62 -43 108 -83 247 -184 327 -237 109 -72 133 -89 185 -131 41 -32 102 -76 253 -179 29 -20 95 -67 147 -106 52 -39 129 -94 170 -123 41 -28 97 -67 125 -86 27 -19 53 -35 58 -35 4 0 7 169 7 377 -1 266 -4 373 -12 365 -7 -7 -25 5 -62 43 -28 29 -64 60 -81 69 -16 9 -42 24 -56 34 -14 9 -41 27 -60 39 -53 35 -68 46 -113 80 -22 18 -49 33 -58 33 -10 0 -18 7 -18 15 0 17 -97 85 -122 85 -10 0 -18 4 -18 9 0 5 -9 13 -20 16 -11 3 -20 10 -20 15 0 5 -26 37 -57 69 -52 54 -68 64 -148 91 -49 18 -103 35 -120 40 -16 4 -48 15 -69 25 -22 9 -69 26 -105 37 -36 11 -79 26 -96 33 -78 33 -139 55 -154 55 -9 0 -41 12 -71 27 -30 14 -82 34 -115 43 -33 10 -139 45 -235 79 -96 33 -218 75 -270 92 -52 17 -108 38 -123 46 -15 8 -74 30 -130 48 -56 19 -129 47 -162 64 -33 17 -67 31 -76 31 -9 0 -59 15 -110 34 -111 40 -199 55 -199 34z"/>
    <path d="M0 7638 c0 -31 40 -48 109 -48 56 0 116 -16 139 -37 14 -14 111 -43 142 -43 11 0 40 -9 62 -20 23 -11 52 -20 65 -20 20 0 22 2 11 19 -13 22 -90 61 -118 61 -35 0 -145 34 -155 48 -6 7 -40 17 -75 22 -36 5 -87 15 -115 24 -64 20 -65 20 -65 -6z"/>
    <path d="M547 7479 c3 -8 10 -16 16 -16 7 0 36 -3 65 -7 30 -4 52 -3 52 2 0 14 -51 33 -97 35 -32 2 -39 -1 -36 -14z"/>
    <path d="M845 7401 c8 -14 74 -34 94 -28 10 2 26 -2 36 -9 27 -20 51 -19 31 1 -8 8 -19 15 -24 15 -5 0 -15 7 -22 15 -14 17 -126 22 -115 6z"/>
    <path d="M1058 7333 c6 -2 18 -2 25 0 6 3 1 5 -13 5 -14 0 -19 -2 -12 -5z"/>
    <path d="M12090 7324 c0 -16 68 -84 85 -84 6 0 24 -13 40 -28 43 -40 186 -150 564 -437 14 -10 58 -44 96 -75 39 -30 86 -66 105 -79 19 -14 67 -50 105 -82 102 -84 265 -213 380 -301 55 -43 159 -122 230 -178 131 -101 306 -235 380 -290 22 -16 66 -51 97 -77 72 -60 142 -116 239 -190 181 -137 247 -189 289 -228 25 -22 80 -66 122 -98 42 -32 78 -61 80 -66 2 -4 30 -29 63 -56 121 -98 220 -181 284 -242 83 -77 200 -173 211 -173 5 0 12 5 15 10 14 23 175 -7 175 -32 0 -9 -52 -9 -95 1 -17 4 -43 2 -61 -5 -19 -8 -35 -9 -45 -3 -18 11 -29 11 -29 0 0 -5 9 -13 20 -16 11 -3 20 -14 20 -24 0 -19 41 -62 79 -81 12 -6 62 -23 110 -36 102 -30 257 -76 361 -109 41 -13 143 -45 225 -71 83 -25 195 -61 250 -80 137 -45 400 -124 455 -136 25 -6 50 -14 55 -19 6 -4 29 -12 50 -18 42 -10 70 -19 175 -59 36 -14 79 -28 95 -33 100 -26 182 -51 270 -83 55 -19 108 -36 117 -36 10 0 32 -6 50 -14 18 -8 62 -22 98 -32 36 -9 111 -32 168 -51 56 -18 110 -33 120 -33 9 0 42 -9 72 -20 71 -26 259 -83 382 -114 53 -14 123 -38 155 -52 111 -51 175 -40 189 33 5 26 2 34 -18 47 -28 18 -119 51 -268 96 -58 18 -133 40 -167 51 -34 10 -69 19 -77 19 -9 0 -30 6 -48 14 -44 18 -230 76 -245 76 -7 0 -20 8 -30 18 -16 17 -93 41 -183 57 -19 4 -66 17 -105 30 -38 13 -104 33 -145 45 -124 35 -144 41 -165 50 -11 4 -67 22 -125 39 -58 18 -118 36 -135 41 -16 5 -49 14 -71 19 -23 6 -45 18 -48 27 -5 12 -2 15 11 9 10 -4 34 -9 53 -11 20 -2 49 -10 65 -18 17 -9 55 -16 88 -16 31 0 57 -4 57 -8 0 -5 19 -14 43 -21 23 -7 51 -18 62 -25 11 -7 51 -16 88 -20 48 -6 75 -14 88 -27 13 -13 27 -18 39 -14 11 3 34 0 52 -8 18 -8 59 -20 90 -27 31 -7 56 -16 55 -19 -3 -9 8 -11 51 -11 27 0 33 3 22 10 -8 5 -11 10 -7 10 12 0 -45 55 -65 63 -19 7 -25 37 -8 37 10 0 33 71 25 79 -6 5 -90 22 -131 25 -17 2 -37 7 -44 11 -9 5 -11 4 -6 -3 4 -7 1 -12 -7 -12 -8 0 -18 11 -21 24 -4 18 -11 23 -26 19 -16 -4 -20 0 -20 19 0 25 -27 58 -48 58 -7 0 -12 6 -12 14 0 13 -20 26 -40 26 -4 0 -6 -9 -3 -20 4 -15 0 -20 -15 -20 -11 0 -22 6 -25 14 -3 7 -25 23 -49 36 -23 12 -51 30 -60 40 -9 10 -39 21 -67 25 -56 8 -74 29 -33 40 l27 7 -27 14 c-19 10 -28 23 -28 38 0 21 -4 23 -40 22 -31 0 -40 -5 -40 -18 0 -10 7 -18 17 -18 9 0 14 -3 11 -6 -4 -3 -22 -1 -42 4 -30 9 -36 8 -41 -7 -6 -20 -60 -27 -71 -9 -4 6 -9 6 -15 -3 -6 -11 -12 -10 -27 4 -21 19 -43 22 -58 7 -6 -6 -15 -6 -24 0 -12 8 -11 10 5 10 18 0 18 2 -5 20 -14 11 -30 20 -37 20 -6 0 -18 6 -25 13 -7 8 -34 17 -60 20 -59 8 -90 26 -83 48 4 11 -4 24 -22 36 -30 20 -50 22 -71 9 -19 -11 -27 1 -13 18 11 13 7 17 -22 30 -43 18 -51 30 -35 55 15 25 10 30 -39 42 -29 6 -40 5 -49 -6 -15 -20 -22 -19 -60 10 -18 14 -37 25 -42 25 -6 0 -12 7 -16 15 -3 9 -18 15 -36 15 -19 0 -30 5 -30 14 0 7 -10 16 -21 19 -14 4 -20 11 -16 21 8 20 -5 27 -56 31 -23 2 -40 7 -37 11 3 5 8 8 11 7 3 -1 4 9 1 22 -3 16 -11 25 -23 25 -11 0 -27 8 -37 18 -10 10 -26 22 -36 25 -10 4 -20 16 -23 26 -3 11 -11 17 -18 15 -7 -3 -22 3 -33 13 -10 10 -30 26 -44 36 -15 11 -29 32 -32 52 -7 37 -30 63 -41 45 -3 -6 -11 -8 -16 -4 -5 3 -7 10 -4 15 4 5 2 9 -3 9 -4 0 -23 13 -42 30 -29 26 -39 29 -72 24 -31 -5 -38 -4 -38 9 0 10 6 14 14 11 8 -3 16 3 19 15 3 13 1 18 -9 14 -9 -3 -12 2 -9 15 3 16 -1 18 -22 14 -17 -3 -30 1 -38 11 -6 9 -24 21 -39 27 -24 9 -26 13 -16 25 11 13 7 17 -19 26 -17 6 -31 17 -31 24 0 7 -10 15 -22 18 -20 6 -21 7 -6 24 21 23 9 35 -55 53 -50 15 -60 29 -27 37 28 7 16 21 -16 17 -24 -2 -25 -1 -19 36 5 30 3 40 -11 48 -16 9 -16 11 2 35 10 14 28 27 39 29 11 2 21 12 23 24 3 18 -1 21 -23 16 -14 -2 -30 -13 -36 -23 -5 -11 -16 -19 -23 -19 -7 0 -19 -11 -26 -25 -8 -15 -22 -25 -36 -25 -13 0 -26 -4 -29 -10 -11 -18 -45 -10 -55 13 -5 12 -9 18 -10 12 -1 -5 -5 1 -9 15 -7 27 -45 40 -64 21 -6 -6 -15 -11 -19 -11 -13 0 -9 28 5 33 8 4 9 8 1 14 -15 12 -32 87 -26 118 2 15 11 29 19 32 11 4 8 13 -14 36 -19 20 -24 31 -16 34 10 4 10 10 1 26 -6 12 -16 25 -22 29 -8 6 -8 8 0 8 7 0 14 9 17 20 3 11 1 18 -4 14 -5 -3 -9 -1 -9 4 0 5 -9 12 -20 15 -15 4 -20 13 -18 34 4 58 -3 91 -22 113 -11 13 -20 29 -20 36 0 15 -62 57 -100 68 -14 4 -54 18 -90 31 -36 12 -81 28 -100 34 -19 7 -138 48 -265 92 -208 72 -372 125 -510 164 -27 7 -81 26 -120 40 -89 34 -305 104 -480 156 -22 6 -57 20 -77 30 -21 11 -48 19 -62 19 -14 0 -62 13 -108 29 -46 15 -110 36 -143 45 -33 9 -69 21 -80 25 -11 5 -139 47 -285 95 -146 48 -281 93 -300 101 -180 71 -220 80 -220 49z m3445 -1824 c-3 -5 -10 -10 -16 -10 -5 0 -9 5 -9 10 0 6 7 10 16 10 8 0 12 -4 9 -10z m1075 -840 c0 -5 -4 -10 -9 -10 -6 0 -13 5 -16 10 -3 6 1 10 9 10 9 0 16 -4 16 -10z m-795 -83 c39 -11 150 -47 249 -79 98 -32 184 -58 192 -58 20 0 124 -44 124 -52 0 -17 -109 3 -155 29 -11 6 -58 21 -105 33 -47 13 -89 26 -95 30 -5 4 -44 15 -85 24 -41 10 -97 28 -125 41 -27 13 -69 28 -92 35 -51 13 -59 35 -10 25 17 -4 64 -16 102 -28z m1042 -103 c-3 -3 -12 -4 -19 -1 -8 3 -5 6 6 6 11 1 17 -2 13 -5z m-364 -121 c-7 -2 -19 -2 -25 0 -7 3 -2 5 12 5 14 0 19 -2 13 -5z m522 -163 c4 -6 -8 -10 -29 -10 -20 0 -36 5 -36 10 0 6 13 10 29 10 17 0 33 -4 36 -10z m805 -71 c0 -6 -4 -7 -10 -4 -5 3 -10 11 -10 16 0 6 5 7 10 4 6 -3 10 -11 10 -16z"/>
    <path d="M1150 7321 c0 -17 25 -28 65 -29 l40 -1 -24 19 c-23 20 -81 28 -81 11z"/>
    <path d="M1334 7265 c10 -8 23 -12 29 -8 11 7 -12 23 -33 23 -12 -1 -11 -4 4 -15z"/>
    <path d="M221 7206 c-13 -7 -19 -16 -14 -19 12 -8 53 3 53 14 0 15 -15 17 -39 5z"/>
    <path d="M1555 7211 c-8 -13 33 -34 52 -27 12 5 13 9 3 21 -14 17 -46 20 -55 6z"/>
    <path d="M398 7100 c-5 -35 9 -39 40 -11 30 25 27 41 -7 41 -24 0 -29 -5 -33 -30z"/>
    <path d="M482 7061 c-28 -24 -28 -31 3 -31 14 0 25 -4 25 -9 0 -5 9 -11 21 -14 19 -5 19 -4 6 11 -12 14 -13 19 -2 29 7 6 17 9 21 5 5 -4 2 1 -5 11 -17 22 -42 22 -69 -2z"/>
    <path d="M2006 7070 c5 -5 24 -10 42 -12 19 -1 36 -6 38 -10 3 -4 16 -8 30 -8 14 0 22 4 19 10 -3 6 -17 10 -30 10 -13 0 -27 5 -30 10 -3 6 -23 10 -43 10 -23 0 -33 -3 -26 -10z"/>
    <path d="M2192 7023 c4 -22 43 -25 43 -3 0 8 -11 16 -23 18 -19 3 -23 0 -20 -15z"/>
    <path d="M2256 7013 c-2 -3 -2 -11 0 -18 6 -14 101 -41 111 -32 9 10 -9 28 -23 23 -8 -3 -14 -1 -14 4 0 13 -64 33 -74 23z"/>
    <path d="M3223 6747 c3 -9 1 -18 -6 -20 -21 -8 6 -25 51 -32 35 -6 42 -4 42 9 0 9 -8 16 -19 16 -11 0 -23 4 -26 10 -3 5 -16 15 -27 21 -18 9 -20 9 -15 -4z"/>
    <path d="M38 6683 c7 -3 16 -2 19 1 4 3 -2 6 -13 5 -11 0 -14 -3 -6 -6z"/>
    <path d="M3320 6670 c0 -5 5 -10 11 -10 5 0 7 5 4 10 -3 6 -8 10 -11 10 -2 0 -4 -4 -4 -10z"/>
    <path d="M19971 6671 c-12 -8 -12 -12 -2 -25 19 -23 31 -20 31 9 0 27 -6 30 -29 16z"/>
    <path d="M0 6615 c0 -43 3 -55 16 -55 8 0 13 -4 9 -9 -3 -6 5 -15 17 -22 32 -16 32 -16 15 -34 -9 -8 -25 -15 -36 -15 -18 0 -21 -6 -21 -48 0 -42 4 -51 25 -62 14 -7 25 -16 25 -20 0 -4 9 -17 20 -30 28 -32 25 -44 -10 -37 -30 6 -50 -7 -34 -23 5 -5 20 -10 34 -12 14 -2 41 -14 59 -27 39 -28 91 -42 181 -48 45 -2 60 -1 50 6 -12 9 -12 11 3 17 22 8 48 -2 45 -17 -3 -10 80 -40 227 -83 66 -20 235 -47 246 -40 5 3 9 0 9 -7 0 -8 11 -10 35 -6 31 5 37 3 47 -19 8 -17 19 -24 40 -24 15 0 28 -4 28 -9 0 -4 12 -6 27 -3 16 3 30 -1 37 -9 6 -8 23 -20 39 -28 15 -8 27 -18 27 -23 0 -4 12 -8 26 -8 14 0 23 4 20 9 -7 11 17 21 50 21 15 0 24 -6 24 -15 0 -17 41 -30 70 -22 10 3 21 -1 24 -8 5 -14 66 -26 66 -13 0 16 18 8 22 -10 3 -11 26 -25 60 -36 34 -12 58 -27 64 -40 6 -13 18 -21 34 -21 19 0 25 6 30 30 9 43 -2 78 -28 91 -32 16 -51 44 -52 77 0 21 -5 27 -21 27 -32 0 -54 28 -58 74 -1 4 -14 6 -30 4 -22 -3 -32 2 -47 24 -16 23 -24 26 -51 22 -24 -4 -35 -1 -39 10 -3 8 -12 12 -19 10 -25 -10 -122 25 -155 56 -18 17 -36 27 -39 21 -3 -5 -18 -7 -32 -4 -20 4 -25 9 -22 24 6 22 -12 26 -21 4 -3 -8 -12 -15 -20 -15 -10 0 -13 -6 -10 -15 7 -18 -18 -20 -45 -3 -16 10 -17 14 -5 25 18 19 18 61 -1 80 -8 8 -13 19 -10 24 6 9 -33 13 -89 9 -38 -2 -30 22 9 27 41 6 45 13 8 13 -17 0 -36 7 -43 15 -7 8 -16 12 -21 9 -5 -3 -9 4 -9 16 0 21 -35 41 -57 33 -7 -3 -25 2 -40 10 -42 23 -114 37 -188 37 -57 0 -66 -2 -61 -16 5 -12 -2 -15 -37 -12 -30 2 -43 8 -45 20 -2 12 5 17 30 20 35 3 37 22 3 24 -49 3 -55 5 -55 19 0 11 -11 15 -37 15 -39 0 -92 14 -135 36 -14 8 -46 14 -70 14 -24 0 -53 7 -64 15 -35 27 -44 19 -44 -40z m533 -132 c-7 -2 -19 -2 -25 0 -7 3 -2 5 12 5 14 0 19 -2 13 -5z"/>
    <path d="M3618 6608 c-3 -7 40 -56 96 -108 55 -52 119 -115 141 -140 22 -25 67 -69 100 -99 33 -30 195 -186 360 -346 429 -418 434 -423 495 -478 30 -27 206 -197 390 -377 184 -179 382 -371 440 -425 58 -55 179 -172 270 -260 170 -167 378 -361 458 -428 32 -27 53 -37 69 -34 16 3 24 -2 29 -15 4 -13 10 -16 17 -10 23 17 98 8 115 -15 12 -14 29 -22 52 -22 19 0 73 -13 120 -29 75 -25 87 -32 99 -60 9 -20 21 -32 30 -30 9 1 33 -5 54 -15 20 -10 42 -15 47 -12 6 3 10 1 10 -5 0 -27 84 -111 104 -104 12 5 15 2 10 -10 -4 -9 -1 -16 6 -16 7 0 10 -6 7 -14 -6 -15 47 -43 73 -38 13 2 13 1 1 -7 -17 -11 -7 -41 14 -41 8 0 15 -6 15 -14 0 -8 12 -22 28 -31 15 -9 35 -28 45 -41 l18 -24 -40 0 c-22 0 -42 4 -45 9 -3 4 -28 11 -55 15 -28 4 -69 14 -93 22 -24 9 -72 24 -108 34 -36 10 -82 25 -102 34 -21 9 -39 12 -43 7 -5 -9 272 -287 492 -493 88 -83 107 -96 145 -101 24 -3 93 -20 153 -37 137 -38 300 -81 430 -115 55 -14 152 -41 215 -60 63 -19 174 -48 245 -65 72 -17 162 -39 200 -50 39 -10 115 -28 170 -40 100 -22 147 -34 440 -119 123 -35 286 -79 415 -111 238 -59 395 -102 405 -110 6 -4 33 -12 60 -19 111 -24 266 -63 370 -92 108 -30 303 -54 352 -42 11 2 23 13 26 24 3 10 1 16 -4 13 -6 -3 -7 5 -3 19 5 23 3 25 -17 20 -14 -4 -26 0 -34 11 -10 13 -18 14 -40 6 -15 -6 -30 -8 -33 -6 -8 9 7 38 17 31 5 -3 12 -1 16 5 4 6 -10 10 -35 10 -37 0 -41 2 -35 20 7 23 -6 26 -37 9 -11 -6 -31 -8 -45 -4 -21 5 -24 10 -18 34 7 33 -3 42 -62 61 -24 7 -43 19 -43 25 0 7 -8 15 -19 18 -34 8 -11 -32 51 -93 58 -57 67 -70 48 -70 -14 0 -25 9 -118 97 -43 40 -106 95 -141 124 -35 28 -59 54 -55 58 5 3 9 15 9 26 0 35 -38 61 -48 32 -7 -18 -42 6 -135 93 -45 41 -98 88 -119 103 -42 31 -208 184 -353 325 -86 84 -116 108 -213 180 -17 12 -71 62 -121 110 -50 48 -120 111 -156 141 -97 80 -250 227 -250 239 0 6 -15 22 -33 34 -49 34 -236 200 -347 309 -25 24 -76 71 -115 104 -38 33 -101 90 -140 127 -38 37 -117 107 -175 156 -102 87 -211 197 -230 233 -6 10 -19 21 -30 24 -12 4 -20 15 -20 29 0 13 -9 31 -20 41 -23 21 -26 35 -6 35 7 0 20 8 27 18 7 9 9 14 5 10 -13 -11 -36 11 -36 34 0 10 7 21 15 24 18 7 20 45 4 61 -8 8 -6 11 7 10 15 -2 20 6 22 38 2 22 8 45 13 51 7 8 6 14 -1 19 -5 3 -10 13 -10 22 0 13 3 13 15 3 12 -10 15 -10 15 4 0 9 -7 16 -15 16 -8 0 -15 4 -15 10 0 5 3 9 8 9 19 -3 23 2 12 16 -10 12 -9 16 4 21 9 3 16 12 16 20 0 8 7 14 16 14 12 0 14 7 9 28 -3 15 1 47 9 70 15 41 14 43 -7 56 -12 8 -62 26 -112 41 -88 25 -195 58 -445 135 -69 21 -152 47 -185 56 -119 34 -251 75 -285 89 -19 8 -53 19 -75 24 -83 20 -113 29 -123 35 -6 3 -61 19 -124 35 -62 16 -151 40 -198 54 -47 13 -139 39 -205 57 -66 18 -154 44 -195 57 -62 20 -227 69 -420 125 -114 33 -642 191 -675 202 -22 7 -67 21 -100 30 -33 10 -87 26 -120 36 -33 11 -98 29 -145 40 -47 12 -128 34 -180 49 -52 15 -147 43 -210 61 -63 17 -135 38 -160 46 -25 8 -97 30 -160 48 -63 19 -135 42 -159 50 -53 19 -67 20 -73 4z m7157 -4509 c23 -22 -36 -7 -62 16 l-28 25 40 -16 c22 -9 44 -20 50 -25z"/>
    <path d="M1070 6311 c0 -12 6 -21 16 -21 9 0 14 7 12 17 -5 25 -28 28 -28 4z"/>
    <path d="M15912 6063 c2 -10 37 -43 78 -75 41 -32 94 -73 116 -91 23 -17 126 -95 228 -172 158 -118 317 -242 611 -475 96 -76 231 -179 295 -227 36 -26 108 -81 161 -123 53 -41 158 -120 234 -175 116 -85 298 -223 356 -270 68 -54 150 -115 184 -135 22 -13 145 -103 273 -199 365 -274 428 -324 549 -423 28 -24 82 -69 120 -100 37 -31 86 -72 107 -92 40 -36 62 -42 134 -37 19 1 39 -2 45 -7 7 -5 40 -15 75 -22 42 -9 66 -19 73 -31 11 -20 0 -26 -18 -8 -5 5 -46 12 -90 15 l-81 4 -4 -41 c-3 -35 0 -46 21 -65 25 -23 176 -84 209 -84 9 0 91 -25 181 -55 90 -30 179 -57 197 -61 l34 -6 0 291 0 291 -22 0 c-36 0 -50 14 -43 42 7 29 -10 47 -28 29 -6 -6 -20 -11 -32 -10 -11 0 -15 3 -8 6 9 3 6 17 -10 48 -17 35 -27 44 -47 44 l-25 -1 25 -8 c23 -7 23 -8 3 -9 -34 -2 -53 9 -53 30 0 16 7 19 40 19 38 0 40 1 34 25 -3 14 -2 25 3 25 12 0 33 45 33 71 0 32 -44 69 -82 69 -23 0 -29 -3 -19 -9 11 -7 9 -10 -10 -13 -17 -2 -25 -10 -27 -29 -3 -22 -7 -25 -28 -21 -13 2 -24 8 -24 13 0 5 -9 9 -20 9 -19 0 -24 -10 -21 -37 1 -8 -10 -13 -29 -13 -23 0 -33 6 -42 25 -6 13 -18 27 -27 30 -37 12 -81 65 -81 95 0 28 -2 30 -27 24 -16 -4 -29 -11 -31 -16 -2 -4 -8 -8 -13 -8 -4 0 -6 7 -2 16 4 11 -5 26 -27 45 -18 16 -36 29 -41 29 -5 0 -6 7 -2 16 4 12 0 15 -18 12 -18 -2 -23 1 -21 15 2 13 -4 17 -24 17 -19 0 -25 4 -20 15 4 11 -1 15 -19 15 -13 0 -27 5 -30 10 -4 6 -18 9 -32 8 -34 -4 -41 18 -8 26 37 9 21 26 -20 21 -27 -4 -37 0 -45 15 -6 11 -17 20 -24 20 -13 0 -46 31 -46 43 0 4 9 7 20 7 12 0 20 7 20 16 0 12 -6 15 -24 10 -19 -5 -26 -1 -31 14 -3 11 -15 20 -25 20 -25 0 -33 27 -12 39 9 6 15 11 12 12 -3 0 -18 3 -35 5 -37 6 -55 21 -55 45 0 12 -10 21 -25 25 -36 9 -48 34 -27 58 16 18 16 19 -11 12 -34 -8 -72 22 -63 51 8 25 -8 47 -29 40 -9 -4 -14 -3 -10 3 3 6 1 11 -4 11 -6 1 -15 3 -21 4 -5 1 -14 3 -20 4 -16 2 -12 21 4 21 22 0 28 16 16 40 -5 11 -14 28 -19 38 -5 11 -5 25 1 35 5 11 5 17 0 17 -6 0 -13 -8 -16 -17 -6 -15 -8 -15 -16 -3 -6 9 -5 19 0 24 17 17 11 27 -19 37 -23 8 -30 17 -34 47 -2 20 0 44 4 53 6 13 -4 29 -42 67 -41 41 -67 57 -135 81 -47 17 -91 31 -99 31 -8 0 -16 4 -20 9 -3 5 -20 13 -38 16 -17 4 -77 23 -132 42 -55 19 -156 52 -225 75 -69 22 -145 48 -170 57 -25 10 -146 51 -270 90 -124 40 -245 79 -270 87 -25 9 -83 27 -130 41 -47 14 -105 33 -130 43 -72 29 -994 331 -1008 330 -8 0 -12 -8 -10 -17z m3803 -2138 c29 -30 31 -35 9 -35 -9 0 -18 9 -21 20 -3 11 -12 20 -20 20 -8 0 -11 5 -8 10 9 14 11 13 40 -15z m31 -576 c19 -22 19 -22 -6 -14 -14 4 -36 14 -50 21 l-25 13 31 1 c19 0 38 -8 50 -21z"/>
    <path d="M1010 5558 c-19 -4 -48 -7 -65 -7 -16 1 -47 1 -68 0 -37 -1 -37 -1 -24 -28 7 -16 12 -35 10 -44 -2 -8 7 -21 20 -28 17 -9 23 -19 20 -32 -4 -14 0 -19 16 -19 11 0 21 -5 21 -11 0 -6 6 -9 13 -6 16 6 49 -12 42 -22 -3 -5 6 -12 20 -15 14 -4 37 -20 52 -36 14 -17 32 -30 40 -30 7 0 13 -11 13 -23 0 -28 34 -62 50 -52 21 13 1 78 -32 105 l-30 25 22 25 c12 13 19 31 17 40 -3 11 4 15 26 15 21 0 37 -9 56 -32 20 -25 36 -33 59 -33 29 0 32 -3 32 -30 0 -23 6 -33 23 -39 12 -5 24 -5 27 -1 3 4 14 9 25 11 33 7 30 35 -5 43 -18 3 -29 10 -25 16 4 6 -5 10 -20 10 -25 0 -25 0 -8 27 10 15 13 24 6 20 -16 -10 -27 11 -14 27 13 15 -4 26 -40 26 -10 0 -19 5 -19 10 0 6 -6 10 -14 10 -7 0 -30 14 -51 30 -21 17 -48 30 -60 30 -12 0 -40 6 -61 13 -26 9 -51 11 -74 5z m290 -174 c0 -17 -22 -14 -28 4 -2 7 3 12 12 12 9 0 16 -7 16 -16z"/>
    <path d="M1907 5528 c-7 -24 16 -47 46 -48 10 0 17 -8 17 -19 0 -10 11 -29 25 -42 13 -13 25 -29 25 -36 0 -13 74 -111 98 -130 9 -7 13 -15 11 -18 -8 -7 -49 6 -49 16 0 5 -9 9 -21 9 -11 0 -29 5 -40 10 -13 8 -19 7 -19 0 0 -7 -6 -10 -12 -7 -7 2 -12 9 -11 15 1 5 -7 8 -17 5 -26 -7 -25 -12 5 -48 18 -22 27 -27 33 -17 6 9 17 4 42 -22 29 -29 37 -33 57 -23 19 8 27 7 42 -10 21 -22 63 -21 91 2 8 7 26 15 40 17 14 1 24 8 22 13 -2 6 -11 9 -22 7 -22 -4 -80 24 -80 38 0 5 -11 12 -24 16 -19 5 -24 12 -25 37 0 49 -3 67 -13 67 -15 0 -35 24 -30 38 2 6 -3 12 -12 12 -9 0 -16 4 -16 8 0 5 -11 15 -25 22 -14 7 -25 22 -25 32 0 10 -7 18 -15 18 -9 0 -20 11 -24 24 -16 40 -65 49 -74 14z"/>
    <path d="M1496 5392 c-3 -6 1 -13 10 -16 8 -3 12 -10 9 -16 -4 -6 8 -10 29 -10 29 0 36 4 36 20 0 14 -7 20 -24 20 -13 0 -31 3 -39 6 -8 3 -18 1 -21 -4z"/>
    <path d="M0 5184 c0 -47 3 -65 12 -62 17 6 48 -23 40 -36 -15 -25 -9 -34 27 -34 41 0 74 14 66 29 -4 5 -10 7 -15 4 -16 -10 -40 7 -40 29 0 14 -10 28 -26 36 -14 8 -28 26 -31 42 -3 17 -10 25 -17 21 -7 -4 -6 -1 1 9 7 8 10 18 6 21 -17 17 -23 2 -23 -59z"/>
    <path d="M1762 5211 c-21 -18 -15 -40 7 -27 5 4 11 2 13 -3 1 -5 14 -11 28 -13 32 -4 40 -15 40 -57 0 -27 3 -32 12 -23 16 16 12 66 -8 99 -10 15 -18 29 -18 30 -1 1 -12 4 -26 8 -18 4 -33 0 -48 -14z"/>
    <path d="M117 5195 c-15 -8 -25 -10 -22 -5 4 6 1 10 -5 10 -6 0 -10 -12 -8 -27 4 -38 27 -35 49 5 10 17 18 32 16 32 -1 0 -15 -7 -30 -15z"/>
    <path d="M140 5150 c0 -23 22 -27 39 -7 13 16 5 27 -21 27 -11 0 -18 -7 -18 -20z"/>
    <path d="M1230 5136 c0 -10 9 -16 21 -16 24 0 21 23 -4 28 -10 2 -17 -3 -17 -12z"/>
    <path d="M2082 5098 c7 -20 48 -23 48 -4 0 11 -9 16 -26 16 -16 0 -24 -5 -22 -12z"/>
    <path d="M880 5036 c0 -7 40 -44 89 -82 51 -39 91 -78 93 -89 2 -13 12 -21 28 -23 14 -2 32 -9 40 -16 31 -26 95 -42 105 -27 2 5 -9 14 -25 21 -16 7 -32 21 -36 32 -3 11 -12 17 -20 14 -20 -8 -59 53 -55 86 2 22 -2 28 -16 28 -11 0 -38 14 -61 31 -46 33 -142 51 -142 25z"/>
    <path d="M2312 4998 c-16 -16 -15 -35 1 -41 8 -3 6 -10 -8 -21 -19 -15 -18 -15 26 -16 39 0 48 3 52 21 4 14 -2 29 -18 45 -27 27 -36 29 -53 12z"/>
    <path d="M9210 4971 c0 -8 41 -47 195 -187 305 -275 380 -342 414 -369 62 -50 582 -516 637 -571 28 -29 107 -100 175 -160 169 -148 185 -162 249 -219 31 -27 101 -89 156 -138 55 -48 110 -100 122 -117 12 -16 43 -43 69 -61 27 -18 93 -71 148 -119 55 -47 186 -158 290 -245 105 -88 208 -176 230 -196 22 -21 58 -50 80 -65 22 -14 77 -63 122 -106 45 -44 94 -88 110 -98 15 -9 42 -30 59 -46 39 -35 63 -53 86 -60 9 -3 18 -16 20 -28 2 -15 11 -22 31 -24 26 -3 28 -2 31 41 1 6 -3 12 -9 12 -22 2 -55 17 -55 26 0 5 -7 9 -15 9 -8 0 -15 7 -15 15 0 16 35 21 45 5 3 -5 12 -7 20 -4 8 4 18 -1 21 -10 4 -10 18 -16 35 -16 16 0 29 -4 29 -10 0 -5 -7 -10 -15 -10 -20 0 -39 -37 -22 -43 8 -3 6 -10 -8 -20 -19 -16 -18 -18 53 -89 67 -66 75 -71 86 -55 13 17 46 24 46 9 0 -5 -9 -17 -20 -27 -28 -25 -25 -49 8 -70 33 -22 136 -110 217 -186 97 -91 268 -239 361 -311 79 -60 92 -67 148 -73 33 -4 79 -14 101 -22 22 -8 78 -23 125 -34 176 -41 210 -50 395 -99 105 -28 208 -55 230 -59 22 -5 76 -18 120 -29 44 -11 136 -34 205 -51 129 -33 220 -59 400 -118 94 -31 277 -81 370 -103 19 -4 94 -24 165 -43 258 -69 481 -125 520 -132 22 -4 48 -14 57 -22 12 -11 27 -13 54 -9 28 6 41 3 58 -12 12 -12 43 -22 76 -26 115 -15 136 -19 155 -32 11 -8 44 -14 76 -14 48 0 57 -3 62 -20 3 -11 12 -20 19 -20 22 0 135 -49 118 -51 -28 -3 -55 2 -194 37 -76 19 -150 34 -166 34 -15 0 -39 9 -53 20 -15 12 -41 20 -64 20 -41 1 -143 23 -293 65 -52 14 -131 34 -175 44 -44 10 -116 28 -160 41 -44 12 -114 30 -155 41 -41 11 -88 24 -105 28 -92 27 -151 43 -250 67 -60 14 -173 43 -250 63 -77 21 -203 52 -280 70 -77 18 -163 39 -192 47 -29 9 -89 24 -135 33 -46 10 -137 32 -203 49 -66 17 -218 54 -337 83 l-217 52 -50 -42 c-28 -24 -51 -48 -51 -55 0 -28 72 -76 113 -76 13 0 68 -14 123 -31 277 -86 472 -142 589 -170 71 -17 136 -34 145 -38 8 -4 78 -22 155 -40 77 -18 174 -41 215 -52 41 -12 113 -29 159 -39 46 -11 96 -24 110 -29 14 -6 67 -19 116 -30 175 -38 226 -51 245 -61 10 -5 31 -10 45 -10 14 0 36 -5 47 -11 11 -6 44 -15 72 -19 69 -11 153 -33 200 -53 21 -10 50 -17 63 -17 33 0 219 -38 241 -49 9 -5 71 -23 137 -41 66 -18 138 -39 160 -46 22 -8 62 -19 90 -24 27 -6 76 -21 110 -34 33 -13 89 -28 125 -33 36 -6 86 -20 110 -32 24 -11 51 -21 59 -21 9 0 49 -11 89 -25 41 -14 95 -25 122 -25 46 0 116 -21 105 -31 -2 -3 37 -11 87 -18 51 -6 96 -17 99 -23 4 -6 30 -13 58 -14 29 -1 62 -9 74 -17 13 -8 35 -12 55 -9 19 2 43 0 55 -6 54 -25 115 -32 271 -32 165 0 166 0 165 23 0 12 3 34 6 48 6 24 3 28 -31 39 -46 15 -96 45 -89 52 3 3 -1 10 -8 17 -10 8 -22 8 -46 0 -37 -13 -109 2 -151 30 -28 19 -115 51 -139 51 -9 0 -28 7 -44 15 -29 15 -173 38 -187 30 -17 -11 -38 8 -44 39 -7 35 -59 94 -116 131 -19 12 -46 35 -60 50 -14 15 -38 33 -55 40 -16 7 -51 33 -76 58 -25 24 -56 48 -67 51 -12 4 -22 12 -22 17 0 5 -5 9 -11 9 -12 0 -73 60 -74 73 0 10 -66 77 -75 77 -4 0 -12 11 -18 25 -6 14 -17 25 -23 25 -7 0 -22 10 -34 23 -12 12 -43 40 -70 62 -26 22 -61 51 -76 65 -15 14 -51 41 -80 60 -28 19 -68 50 -88 68 -20 19 -48 38 -62 43 -15 6 -35 25 -45 44 -10 19 -30 39 -44 45 -14 6 -43 28 -65 50 -22 21 -45 39 -50 40 -6 0 -19 11 -29 25 -10 14 -27 25 -36 25 -10 0 -20 7 -24 15 -3 9 -18 15 -37 15 -22 0 -32 5 -36 20 -3 11 -10 21 -17 21 -18 3 -49 5 -81 8 -26 1 -27 3 -12 12 9 5 17 14 17 19 0 17 -29 11 -39 -9 -8 -13 -18 -17 -37 -13 -15 3 -25 1 -22 -4 3 -5 -3 -18 -14 -29 -12 -12 -18 -14 -16 -6 2 7 -3 16 -11 19 -10 3 -12 0 -8 -12 4 -9 4 -37 0 -61 -5 -36 -8 -43 -19 -34 -11 9 -12 6 -3 -20 6 -18 9 -35 5 -38 -3 -3 -1 -12 5 -19 8 -10 2 -15 -28 -20 -21 -5 -46 -7 -55 -5 -9 1 -18 -6 -21 -16 -4 -17 -5 -17 -6 0 -1 11 -9 17 -25 17 -14 0 -28 5 -31 10 -9 15 -25 12 -25 -5 0 -10 -10 -15 -30 -15 -33 0 -41 23 -14 38 13 7 10 13 -21 31 -37 22 -55 21 -55 -4 0 -24 -30 -5 -36 24 -4 14 -11 31 -16 37 -5 7 -8 16 -7 20 4 15 -20 64 -30 64 -14 0 -19 -23 -10 -48 5 -13 13 -20 19 -17 15 9 12 -11 -4 -24 -11 -9 -20 -7 -42 13 -27 22 -28 26 -15 50 17 31 10 43 -12 21 -20 -19 -37 -19 -37 1 0 8 -4 13 -9 10 -31 -19 -287 197 -274 231 3 8 -2 13 -12 13 -21 0 -73 36 -103 72 -13 16 -28 28 -34 28 -17 0 -156 119 -163 139 -3 10 -34 36 -68 56 -92 57 -287 223 -287 245 0 12 -81 70 -98 70 -8 0 -36 18 -61 41 -25 23 -62 55 -82 72 -19 18 -68 59 -109 92 -71 57 -173 147 -250 218 -19 18 -49 43 -67 55 -49 34 -78 79 -63 97 10 13 8 15 -13 15 -14 0 -37 4 -52 10 -30 11 -148 104 -186 146 -14 16 -46 46 -70 67 -98 83 -121 116 -101 147 15 24 16 50 2 50 -5 0 -10 6 -10 14 0 8 -6 17 -12 19 -9 4 -10 8 -2 14 19 15 43 79 37 101 -3 13 -1 22 6 22 6 0 11 9 11 19 0 14 5 18 20 14 15 -4 20 0 20 16 0 12 -6 21 -15 21 -22 0 -18 37 5 43 28 7 28 62 0 77 -19 10 -20 25 -8 104 3 21 -9 29 -67 45 -76 21 -290 83 -390 112 -55 17 -156 46 -225 66 -69 20 -145 41 -170 48 -25 7 -99 27 -165 45 -66 17 -145 40 -175 50 -30 10 -120 37 -200 60 -219 63 -341 99 -665 196 -121 36 -249 74 -285 84 -85 23 -272 78 -440 129 -140 42 -548 164 -775 231 -71 21 -147 46 -167 54 -41 17 -88 21 -88 7z m3015 -2601 c3 -5 -1 -10 -10 -10 -9 0 -13 5 -10 10 3 6 8 10 10 10 2 0 7 -4 10 -10z m286 -201 c5 -11 6 -19 2 -19 -4 0 3 -9 17 -20 21 -16 23 -20 8 -25 -22 -9 -66 34 -48 45 9 6 7 11 -9 19 -11 7 -21 16 -21 20 0 16 40 -1 51 -20z m230 -205 c11 -14 10 -15 -11 -12 -13 1 -25 9 -28 16 -5 17 23 15 39 -4z m2764 -714 c0 -8 -8 -16 -17 -18 -13 -2 -18 3 -18 18 0 15 5 20 18 18 9 -2 17 -10 17 -18z m1295 -820 c0 -5 -11 -10 -24 -10 -14 0 -28 5 -31 10 -4 6 7 10 24 10 17 0 31 -4 31 -10z m73 -27 c-7 -2 -19 -2 -25 0 -7 3 -2 5 12 5 14 0 19 -2 13 -5z m65 -10 c2 -7 -1 -13 -6 -13 -17 0 -42 12 -42 20 0 12 43 6 48 -7z m72 -23 c0 -5 -5 -10 -11 -10 -5 0 -7 5 -4 10 3 6 8 10 11 10 2 0 4 -4 4 -10z"/>
    <path d="M1435 4951 c-11 -5 -23 -6 -28 -4 -4 2 -6 -1 -5 -9 2 -8 -5 -12 -17 -11 -15 1 -13 -4 14 -27 30 -26 117 -60 154 -60 9 0 17 -5 19 -10 2 -6 19 -13 38 -15 19 -3 47 -7 63 -11 66 -15 8 57 -60 75 -23 6 -55 23 -71 36 -17 14 -37 25 -46 25 -9 0 -16 5 -16 10 0 12 -17 12 -45 1z"/>
    <path d="M2305 4880 c-4 -6 -5 -12 -4 -13 2 -1 20 -10 39 -20 34 -18 34 -18 17 0 -9 11 -14 24 -10 29 5 5 4 6 -1 2 -5 -4 -15 -3 -22 3 -8 7 -14 7 -19 -1z"/>
    <path d="M2154 4830 c1 -8 -9 -16 -21 -18 -13 -2 -23 1 -23 7 0 6 -17 11 -37 10 -35 0 -36 -1 -15 -11 12 -6 22 -19 22 -30 0 -10 4 -18 9 -18 5 0 11 -12 13 -27 2 -19 11 -29 33 -36 17 -6 36 -18 43 -28 9 -14 20 -17 43 -12 22 4 35 1 49 -14 22 -24 204 -84 273 -91 37 -3 53 0 68 14 19 17 21 17 48 1 16 -9 42 -17 59 -17 19 0 35 -7 43 -21 11 -16 20 -19 42 -14 45 12 33 44 -19 50 -14 1 -32 12 -40 23 -8 12 -21 18 -33 15 -10 -3 -22 0 -25 6 -4 6 -18 11 -31 11 -25 0 -41 36 -30 72 9 27 -20 56 -63 64 -19 4 -47 13 -61 20 -14 8 -33 14 -42 14 -22 0 -49 -42 -39 -61 4 -8 11 -24 14 -36 11 -34 -11 -29 -86 16 -35 21 -72 40 -82 42 -28 6 -45 37 -26 49 13 9 12 12 -5 22 -30 18 -82 17 -81 -2z"/>
    <path d="M1793 4796 c4 -20 46 -53 84 -65 44 -15 83 -3 83 24 0 8 5 15 10 15 6 0 10 7 10 15 0 18 -20 19 -54 4 -20 -9 -29 -9 -41 1 -18 15 -94 20 -92 6z"/>
    <path d="M18783 4793 c9 -9 19 -14 23 -11 10 10 -6 28 -24 28 -15 0 -15 -1 1 -17z"/>
    <path d="M1267 4763 c-7 -11 89 -136 112 -147 11 -5 27 -6 36 -2 14 5 14 8 -1 30 -9 14 -35 38 -59 53 -24 15 -41 31 -39 35 3 4 1 8 -5 8 -5 0 -16 7 -25 15 -8 8 -17 12 -19 8z"/>
    <path d="M7948 4693 c7 -3 16 -2 19 1 4 3 -2 6 -13 5 -11 0 -14 -3 -6 -6z"/>
    <path d="M18865 4650 c3 -5 8 -10 11 -10 2 0 4 5 4 10 0 6 -5 10 -11 10 -5 0 -7 -4 -4 -10z"/>
    <path d="M17244 4607 c-2 -7 -2 -24 0 -37 2 -14 5 -27 5 -30 1 -3 10 -6 20 -6 15 0 17 3 9 13 -8 10 -6 17 8 28 19 15 19 15 0 30 -24 18 -35 19 -42 2z"/>
    <path d="M16910 4584 c0 -8 5 -12 10 -9 6 3 10 10 10 16 0 5 -4 9 -10 9 -5 0 -10 -7 -10 -16z"/>
    <path d="M460 4570 c-10 -6 -12 -12 -5 -19 12 -12 105 -23 105 -13 0 12 -40 33 -51 26 -5 -3 -15 -1 -22 5 -8 6 -18 6 -27 1z"/>
    <path d="M720 4490 c0 -12 69 -44 78 -36 4 4 -4 16 -18 26 -27 21 -60 26 -60 10z"/>
    <path d="M19510 4410 c-6 -11 -22 -23 -35 -26 -31 -8 -31 -19 -1 -48 12 -13 26 -31 29 -40 4 -9 11 -16 17 -16 6 0 9 4 5 10 -3 5 16 3 42 -5 43 -13 50 -13 77 3 39 23 43 38 11 46 -15 4 -25 13 -25 25 0 25 -21 41 -64 48 -20 3 -33 9 -30 14 3 5 1 9 -5 9 -6 0 -15 -9 -21 -20z"/>
    <path d="M0 4305 c0 -96 3 -115 15 -115 8 0 23 8 33 18 10 10 24 16 32 14 8 -3 10 0 6 7 -4 7 -3 18 4 25 8 11 5 19 -16 35 -26 21 -27 22 -8 35 19 14 19 15 -2 38 -12 13 -24 31 -27 41 -4 9 -13 17 -22 17 -13 0 -15 -18 -15 -115z"/>
    <path d="M19741 4251 c-10 -7 -10 -10 -1 -16 6 -4 16 -3 22 3 13 13 -4 23 -21 13z"/>
    <path d="M19720 4100 c19 -13 30 -13 30 0 0 6 -10 10 -22 10 -19 0 -20 -2 -8 -10z"/>
    <path d="M13 4093 c-7 -2 -13 -19 -13 -36 1 -27 9 -37 53 -67 29 -20 72 -45 97 -55 58 -25 70 -37 70 -70 0 -21 7 -29 30 -38 36 -14 39 -27 6 -27 -31 0 -35 -7 -29 -47 l5 -33 64 0 c35 0 63 -3 63 -7 -1 -5 0 -12 1 -18 2 -5 3 -19 4 -29 1 -14 15 -24 51 -36 31 -10 44 -19 35 -23 -10 -3 -7 -6 8 -6 12 -1 26 -9 29 -18 6 -17 15 -28 73 -89 11 -12 20 -26 20 -32 0 -16 21 -26 60 -28 19 0 46 -4 60 -8 29 -7 56 6 46 23 -4 6 -18 11 -32 11 -28 0 -31 8 -7 25 15 11 15 14 -5 35 -12 13 -22 27 -22 32 0 4 -9 8 -21 8 -14 0 -19 6 -18 18 2 9 -11 33 -29 52 -18 19 -32 38 -32 42 0 5 -6 8 -14 8 -7 0 -17 10 -21 23 l-7 22 -8 -25 c-4 -14 -8 -19 -9 -12 -1 7 -13 17 -27 22 -16 6 -23 14 -18 22 4 7 4 10 -1 6 -11 -10 -45 10 -45 27 0 8 -7 15 -15 15 -8 0 -15 -7 -15 -15 0 -8 -4 -15 -10 -15 -14 0 -13 16 3 41 10 17 9 22 -5 30 -26 15 -11 42 19 34 23 -5 24 -4 22 49 -2 40 -6 53 -16 49 -7 -3 -13 0 -13 6 0 6 -9 11 -19 11 -11 0 -23 5 -26 10 -4 6 -11 8 -16 4 -5 -3 -8 0 -7 8 2 7 -8 14 -22 16 -14 2 -32 10 -40 17 -8 7 -33 19 -55 26 -22 8 -46 22 -53 31 -15 21 -38 23 -45 6 -4 -10 -7 -10 -18 0 -13 12 -62 15 -86 5z"/>
    <path d="M18086 3963 c-11 -11 -6 -23 8 -23 8 0 17 4 20 9 7 10 -19 23 -28 14z"/>
    <path d="M477 3921 c3 -12 10 -21 15 -21 13 0 6 32 -9 37 -7 3 -9 -3 -6 -16z"/>
    <path d="M2375 3912 c6 -4 10 -14 10 -22 0 -8 8 -16 18 -18 9 -2 17 1 17 7 0 6 -4 11 -10 11 -5 0 -10 7 -10 15 0 8 -8 15 -17 15 -10 0 -14 -4 -8 -8z"/>
    <path d="M3492 3881 c-11 -7 -9 -15 9 -44 23 -34 71 -71 81 -62 3 3 2 22 -1 42 -4 26 -14 41 -36 54 -36 21 -36 21 -53 10z"/>
    <path d="M6520 3820 c0 -5 9 -10 20 -10 11 0 20 5 20 10 0 6 -9 10 -20 10 -11 0 -20 -4 -20 -10z"/>
    <path d="M2650 3780 c0 -5 14 -10 30 -10 17 0 30 5 30 10 0 6 -13 10 -30 10 -16 0 -30 -4 -30 -10z"/>
    <path d="M2895 3720 c3 -5 13 -10 21 -10 8 0 14 5 14 10 0 6 -9 10 -21 10 -11 0 -17 -4 -14 -10z"/>
    <path d="M3320 3723 c-14 -3 -37 -14 -51 -24 -15 -10 -37 -19 -48 -19 -13 0 -21 -6 -21 -17 0 -15 -1 -15 -18 0 -10 10 -29 17 -43 17 -21 -1 -22 -2 -6 -11 20 -12 23 -35 5 -42 -10 -4 -9 -6 1 -6 18 -1 40 -31 41 -53 0 -13 8 -18 26 -18 14 0 38 -6 52 -14 15 -8 35 -17 45 -20 9 -3 17 -15 17 -26 0 -13 7 -20 19 -20 21 0 45 23 34 33 -3 4 4 7 16 7 14 0 25 -9 32 -27 7 -16 13 -23 16 -15 6 16 23 15 23 -2 0 -14 38 -28 62 -23 7 2 9 2 5 -1 -4 -2 -2 -11 5 -20 11 -12 11 -16 0 -20 -19 -6 5 -32 32 -33 20 0 21 -1 1 -9 -17 -7 -15 -9 12 -9 20 -1 36 -8 42 -19 10 -18 80 -72 94 -72 4 0 6 6 5 13 -2 7 10 13 27 15 17 2 36 9 43 14 7 6 16 8 19 4 4 -4 2 -11 -6 -15 -21 -13 67 -43 118 -39 41 2 46 0 49 -20 2 -12 10 -22 18 -22 8 0 13 -4 10 -8 -7 -11 24 -36 49 -40 11 -1 30 -8 43 -14 34 -17 93 12 85 43 -6 21 -4 22 28 14 59 -13 99 -13 99 0 0 18 -49 67 -59 60 -5 -3 -12 -1 -16 5 -3 5 -15 10 -26 10 -22 0 -25 22 -4 40 11 9 12 15 2 25 -7 7 -16 9 -22 4 -7 -5 -18 2 -30 17 -10 14 -25 22 -32 20 -8 -3 -21 -2 -31 3 -9 5 -29 14 -45 20 -15 6 -32 21 -37 33 -5 13 -16 32 -24 42 -13 16 -18 17 -31 6 -12 -10 -15 -10 -15 4 0 12 -6 15 -25 10 -15 -4 -25 -2 -25 5 0 6 -4 11 -10 11 -12 0 -50 37 -50 49 0 5 -13 14 -30 21 -16 7 -30 19 -30 26 0 8 -8 14 -17 14 -13 0 -14 -3 -5 -12 17 -17 15 -25 -8 -31 -11 -3 -20 -12 -20 -21 0 -9 -8 -16 -19 -16 -29 0 -51 11 -51 25 0 8 -17 16 -40 20 -33 6 -40 10 -35 25 7 21 -3 29 -38 32 -14 1 -24 5 -21 9 5 9 -22 19 -51 19 -13 0 -32 11 -43 25 -20 25 -37 28 -92 18z m580 -298 c0 -8 -7 -15 -15 -15 -16 0 -20 12 -8 23 11 12 23 8 23 -8z"/>
    <path d="M1490 3690 c0 -5 5 -10 11 -10 5 0 7 5 4 10 -3 6 -8 10 -11 10 -2 0 -4 -4 -4 -10z"/>
    <path d="M1556 3673 c-5 -13 1 -25 21 -40 29 -24 63 -30 63 -13 0 6 5 9 11 8 6 -2 13 2 16 9 2 7 -13 17 -39 24 -24 7 -48 16 -54 21 -7 5 -14 2 -18 -9z"/>
    <path d="M1475 3600 c10 -34 23 -46 35 -34 7 7 2 18 -16 35 l-26 24 7 -25z"/>
    <path d="M2667 3587 c-7 -21 4 -46 24 -52 10 -4 19 -11 19 -17 0 -7 5 -6 14 2 19 15 12 32 -24 58 -20 15 -30 18 -33 9z"/>
    <path d="M2791 3481 c-10 -7 -10 -10 -1 -16 6 -4 16 -3 22 3 13 13 -4 23 -21 13z"/>
    <path d="M4134 3437 c-7 -20 26 -65 44 -59 18 6 15 20 -13 49 -21 23 -25 25 -31 10z"/>
    <path d="M2829 3412 c11 -16 23 -40 26 -55 14 -53 65 -63 65 -11 0 19 -7 28 -29 37 -16 6 -35 21 -42 34 -7 13 -19 23 -26 23 -11 0 -9 -7 6 -28z"/>
    <path d="M4080 3424 c0 -9 5 -14 12 -12 18 6 21 28 4 28 -9 0 -16 -7 -16 -16z"/>
    <path d="M800 3410 c0 -5 5 -10 10 -10 6 0 10 5 10 10 0 6 -4 10 -10 10 -5 0 -10 -4 -10 -10z"/>
    <path d="M3012 3298 c3 -7 22 -14 44 -15 21 0 51 -4 67 -8 17 -5 27 -3 27 3 0 16 -9 19 -79 26 -50 6 -62 4 -59 -6z"/>
    <path d="M3220 3251 c0 -5 6 -11 13 -14 8 -3 14 1 14 9 0 8 -6 14 -14 14 -7 0 -13 -4 -13 -9z"/>
    <path d="M3950 3221 c0 -11 -6 -22 -12 -24 -7 -3 -3 -6 8 -6 17 -1 20 4 16 24 -5 30 -12 33 -12 6z"/>
    <path d="M4460 3200 c0 -5 5 -10 10 -10 6 0 10 5 10 10 0 6 -4 10 -10 10 -5 0 -10 -4 -10 -10z"/>
    <path d="M934 3183 c-19 -14 -19 -14 0 -29 26 -19 43 -18 43 3 0 30 -20 43 -43 26z"/>
    <path d="M4403 3171 c-9 -12 -24 -21 -33 -22 -8 -1 -4 -4 10 -8 27 -8 50 -4 50 10 0 4 -8 6 -17 3 -16 -5 -15 -3 1 10 11 9 17 19 13 22 -3 3 -14 -4 -24 -15z"/>
    <path d="M4496 3174 c-11 -30 -6 -44 17 -44 12 0 32 -7 44 -15 34 -24 38 0 7 40 -28 37 -58 45 -68 19z"/>
    <path d="M3550 3170 c0 -5 9 -10 21 -10 11 0 17 5 14 10 -3 6 -13 10 -21 10 -8 0 -14 -4 -14 -10z"/>
    <path d="M3634 3159 c-8 -13 -7 -13 35 -28 49 -16 58 1 11 21 -25 10 -42 13 -46 7z"/>
    <path d="M1042 3144 c1 -9 9 -19 16 -22 9 -3 13 2 10 14 -1 9 -9 19 -16 22 -9 3 -13 -2 -10 -14z"/>
    <path d="M3752 3129 c2 -7 10 -15 17 -17 8 -3 12 1 9 9 -2 7 -10 15 -17 17 -8 3 -12 -1 -9 -9z"/>
    <path d="M7536 2753 c-8 -17 -31 -44 -50 -61 -28 -25 -32 -33 -23 -46 16 -20 103 -62 147 -71 19 -3 73 -15 120 -25 47 -10 123 -26 169 -35 46 -8 87 -18 91 -20 8 -5 371 -105 410 -112 14 -3 63 -17 110 -30 96 -28 100 -29 305 -78 83 -20 195 -49 250 -64 55 -16 138 -38 185 -49 47 -11 139 -34 205 -50 66 -17 158 -40 205 -50 112 -26 397 -107 483 -138 38 -13 82 -24 99 -24 17 0 73 -13 125 -30 51 -16 101 -30 111 -30 9 0 58 -13 107 -29 50 -16 121 -37 159 -46 38 -9 78 -20 90 -25 11 -4 102 -27 201 -50 163 -38 278 -67 345 -90 14 -5 41 -11 60 -15 19 -3 76 -17 125 -30 151 -41 295 -76 395 -95 133 -26 368 -83 475 -115 152 -45 195 -55 229 -55 l34 0 0 53 c0 28 2 62 4 75 3 20 -5 26 -52 42 -80 28 -313 95 -400 115 -41 9 -118 30 -170 45 -52 16 -140 40 -195 54 -55 14 -176 47 -270 72 -292 79 -279 73 -269 111 9 32 40 35 73 7 17 -14 42 -24 59 -24 17 0 33 -6 35 -12 4 -10 6 -10 6 0 1 6 12 12 26 12 18 0 23 -4 19 -15 -8 -20 10 -19 41 1 14 9 32 14 40 10 9 -3 15 0 15 9 0 8 -9 15 -19 15 -10 0 -21 7 -25 15 -3 9 -18 15 -38 15 -51 0 -77 10 -71 26 6 16 -13 19 -22 4 -3 -5 -12 -10 -19 -10 -19 0 -15 32 4 37 12 3 16 12 12 30 -4 20 -17 31 -53 46 -38 16 -49 26 -49 43 0 12 -7 24 -15 28 -30 11 -16 28 17 20 29 -6 31 -5 19 10 -7 9 -11 26 -8 38 7 24 -17 58 -39 58 -20 0 -74 -59 -68 -74 3 -8 1 -17 -5 -21 -18 -10 -13 -23 13 -37 21 -11 23 -16 12 -30 -10 -13 -30 -18 -82 -20 -38 -2 -69 -7 -69 -13 1 -12 -65 -36 -78 -28 -4 3 -6 11 -3 19 4 10 -3 14 -22 14 -16 0 -33 5 -39 11 -9 9 -18 8 -37 -5 -32 -21 -34 -46 -3 -46 12 0 33 -7 45 -16 15 -10 32 -14 48 -10 16 4 38 0 62 -13 20 -11 58 -23 85 -26 43 -6 49 -10 67 -46 l20 -39 -22 0 c-26 0 -219 44 -303 70 -33 10 -96 25 -140 35 -124 26 -430 106 -600 156 -16 4 -77 18 -134 29 -57 11 -108 23 -115 27 -6 4 -31 10 -56 14 -25 3 -85 18 -135 33 -49 15 -108 31 -130 35 -53 11 -262 66 -350 93 -38 11 -94 27 -124 34 -30 8 -76 26 -103 39 -28 14 -66 25 -86 25 -20 0 -72 11 -115 25 -43 14 -88 25 -100 25 -32 0 -118 20 -589 140 -125 32 -242 63 -260 69 -18 6 -78 22 -133 36 -55 14 -113 30 -130 35 -16 5 -51 12 -77 15 -44 7 -47 6 -62 -22z m3814 -736 c0 -8 -7 -14 -15 -14 -8 0 -15 6 -15 14 0 7 7 13 15 13 8 0 15 -6 15 -13z m100 -27 c0 -5 -2 -10 -4 -10 -3 0 -8 5 -11 10 -3 6 -1 10 4 10 6 0 11 -4 11 -10z m70 -130 c0 -5 -2 -10 -4 -10 -3 0 -8 5 -11 10 -3 6 -1 10 4 10 6 0 11 -4 11 -10z"/>
    <path d="M5005 2720 c3 -5 13 -10 21 -10 8 0 14 5 14 10 0 6 -9 10 -21 10 -11 0 -17 -4 -14 -10z"/>
    <path d="M14350 2667 c0 -19 8 -27 40 -37 22 -7 40 -17 40 -22 0 -11 -7 -10 -30 4 -17 11 -24 9 -49 -19 -29 -33 -30 -43 -2 -43 9 0 28 -11 41 -23 14 -13 33 -23 43 -21 9 1 15 -1 12 -6 -9 -14 29 -40 45 -30 8 5 19 5 25 0 15 -13 60 -17 60 -5 0 5 -9 11 -20 13 -11 1 -21 7 -23 12 -2 6 -9 10 -15 10 -12 0 -37 45 -37 66 0 6 10 18 23 27 l22 15 -25 10 c-14 5 -34 19 -44 31 -21 24 -42 27 -49 9 -4 -8 -8 -4 -12 10 -10 31 -45 30 -45 -1z"/>
    <path d="M14520 2528 c0 -18 31 -35 56 -30 22 4 35 30 17 33 -53 8 -73 7 -73 -3z"/>
    <path d="M14360 2520 c0 -5 7 -10 16 -10 8 0 12 5 9 10 -3 6 -10 10 -16 10 -5 0 -9 -4 -9 -10z"/>
    <path d="M3755 2480 c-3 -5 1 -10 10 -10 9 0 13 5 10 10 -3 6 -8 10 -10 10 -2 0 -7 -4 -10 -10z"/>
    <path d="M3987 2433 c-31 -8 1 -33 42 -33 l36 1 -24 19 c-13 11 -26 19 -30 19 -3 -1 -14 -3 -24 -6z"/>
    <path d="M14595 2390 c3 -5 13 -10 21 -10 8 0 12 5 9 10 -3 6 -13 10 -21 10 -8 0 -12 -4 -9 -10z"/>
    <path d="M14681 2326 c-16 -9 -20 -15 -12 -21 7 -4 13 -5 14 -4 2 2 9 12 16 22 16 20 14 21 -18 3z"/>
    <path d="M14593 2323 c-21 -8 -15 -22 7 -16 11 3 20 9 20 14 0 10 -8 10 -27 2z"/>
    <path d="M18414 2295 c-18 -14 -17 -17 36 -66 30 -28 114 -95 185 -149 72 -54 159 -124 195 -155 36 -31 76 -64 90 -73 14 -9 48 -36 76 -61 27 -26 99 -82 158 -126 183 -136 175 -130 276 -215 92 -79 263 -207 395 -297 39 -26 89 -65 112 -85 24 -21 47 -38 53 -38 7 0 10 142 10 423 l0 424 -92 27 c-51 16 -106 32 -123 36 -16 5 -95 29 -175 54 -262 82 -393 118 -505 141 -165 34 -307 71 -563 150 -97 29 -102 30 -128 10z"/>
    <path d="M14607 2286 c-14 -11 -15 -15 -4 -24 8 -7 18 -7 27 -2 9 5 19 5 27 -2 16 -13 17 -4 3 23 -12 22 -28 24 -53 5z"/>
    <path d="M14713 2283 c-9 -3 -10 -10 -3 -24 10 -18 40 -27 40 -11 -1 15 -26 39 -37 35z"/>
    <path d="M12400 2240 c0 -5 5 -10 10 -10 6 0 10 5 10 10 0 6 -4 10 -10 10 -5 0 -10 -4 -10 -10z"/>
    <path d="M14764 2187 c-7 -20 3 -37 22 -37 8 0 25 -7 37 -15 27 -17 117 -29 147 -20 30 9 24 25 -9 25 -17 0 -33 5 -36 10 -8 13 -70 39 -92 39 -10 -1 -28 2 -40 6 -16 5 -25 3 -29 -8z"/>
    <path d="M11437 2152 c-10 -2 -16 -9 -14 -15 4 -14 57 -22 57 -9 0 15 -24 29 -43 24z"/>
    <path d="M15066 2113 c-3 -3 -1 -14 5 -25 11 -20 29 -16 29 7 0 14 -24 27 -34 18z"/>
    <path d="M11548 1923 c7 -3 16 -2 19 1 4 3 -2 6 -13 5 -11 0 -14 -3 -6 -6z"/>
    <path d="M0 956 l0 -956 1329 0 1329 0 12 30 c7 17 17 30 22 30 14 0 38 26 31 34 -9 8 18 37 43 46 13 5 25 21 29 39 3 16 13 32 20 35 8 3 28 29 44 58 23 40 39 57 66 67 19 7 35 17 35 22 0 5 14 23 31 40 33 32 33 59 0 59 -12 0 -26 11 -35 28 -8 16 -28 41 -44 58 -16 16 -53 64 -82 107 -28 43 -57 80 -63 82 -7 2 -26 6 -44 9 -25 4 -31 2 -26 -9 3 -8 13 -15 22 -15 19 0 48 -49 57 -98 4 -18 11 -35 16 -38 5 -3 4 -12 -3 -20 -9 -11 -8 -15 5 -20 22 -8 20 -21 -4 -29 -11 -3 -20 -12 -20 -19 0 -17 -30 -43 -55 -48 -13 -2 -20 -11 -19 -26 0 -12 -5 -22 -12 -22 -7 0 -14 -7 -16 -15 -2 -12 -7 -12 -28 -2 -18 9 -24 19 -22 38 2 18 -8 35 -37 64 -23 22 -41 49 -41 61 0 11 -15 35 -32 52 -60 59 -75 77 -83 101 -4 13 -29 46 -56 73 -27 27 -49 55 -49 61 0 7 -20 32 -44 56 -45 44 -62 76 -45 87 6 3 7 15 3 26 -4 15 -3 18 7 13 9 -6 11 -3 6 8 -4 10 -2 16 5 14 7 -1 13 3 13 8 1 6 5 21 9 34 5 13 4 33 -2 45 -5 11 -15 33 -22 47 -15 32 2 74 27 65 8 -3 17 -6 19 -6 2 0 4 -9 4 -20 0 -11 7 -20 15 -20 9 0 19 -8 22 -17 9 -22 29 -47 74 -92 20 -20 39 -44 42 -54 4 -10 11 -15 17 -12 5 3 10 1 10 -5 0 -16 93 -120 108 -120 6 0 12 -9 12 -21 0 -26 55 -79 82 -79 19 0 19 0 -1 28 -11 15 -33 42 -50 60 -17 18 -31 38 -31 43 0 11 -54 77 -145 178 -28 31 -70 82 -94 113 -23 32 -53 60 -64 64 -27 8 -37 22 -37 51 0 38 -90 77 -240 103 -25 4 -166 35 -315 69 -246 56 -530 118 -645 141 -139 27 -390 95 -425 115 -37 22 -77 32 -260 70 -38 8 -94 21 -124 30 -29 9 -85 23 -125 30 -39 8 -83 17 -98 21 l-28 6 0 -956z m2100 -447 c0 -5 -7 -9 -15 -9 -8 0 -15 7 -15 15 0 9 6 12 15 9 8 -4 15 -10 15 -15z m140 -61 c27 4 26 -15 -2 -24 -15 -4 -25 -1 -35 11 -7 10 -25 27 -40 38 -16 10 -20 17 -10 13 10 -3 17 0 17 7 1 7 12 -1 25 -18 16 -19 32 -29 45 -27z m36 -74 c-16 -16 -16 -18 5 -40 28 -30 39 -30 39 -2 0 12 7 29 16 39 13 14 21 15 45 7 16 -5 29 -16 29 -24 0 -7 14 -36 30 -64 17 -28 30 -53 30 -57 0 -3 -11 -3 -25 -1 -14 3 -25 3 -25 1 0 -2 11 -25 25 -52 13 -27 21 -51 18 -55 -11 -10 -61 -7 -69 6 -4 6 1 17 11 24 16 12 16 13 -8 19 -14 4 -28 13 -31 21 -3 8 -11 14 -18 14 -16 0 -84 65 -120 115 -39 54 -37 73 10 77 46 4 60 -6 38 -28z m254 -74 c0 -5 -9 -10 -21 -10 -11 0 -17 5 -14 10 3 6 13 10 21 10 8 0 14 -4 14 -10z m44 -85 c4 -10 -1 -15 -14 -15 -11 0 -20 7 -20 15 0 8 6 15 14 15 8 0 16 -7 20 -15z"/>
    <path d="M11805 1830 c-4 -6 -12 -10 -18 -9 -25 3 -47 -1 -47 -9 0 -18 48 -31 81 -22 17 5 36 7 40 4 22 -13 6 7 -20 26 -19 13 -32 17 -36 10z"/>
    <path d="M11872 1768 c3 -7 15 -15 27 -16 16 -3 22 1 19 10 -3 7 -15 15 -27 16 -16 3 -22 -1 -19 -10z"/>
    <path d="M15570 1700 c0 -5 7 -10 15 -10 8 0 15 5 15 10 0 6 -7 10 -15 10 -8 0 -15 -4 -15 -10z"/>
    <path d="M15405 1640 c3 -5 10 -10 16 -10 5 0 9 5 9 10 0 6 -7 10 -16 10 -8 0 -12 -4 -9 -10z"/>
    <path d="M4594 1598 c-4 -5 -1 -14 7 -18 14 -9 29 -4 29 10 0 13 -29 20 -36 8z"/>
    <path d="M4702 1579 c5 -16 58 -25 58 -10 0 6 -6 11 -14 11 -8 0 -22 3 -32 7 -12 4 -15 2 -12 -8z"/>
    <path d="M15230 1450 c0 -5 5 -10 10 -10 6 0 10 5 10 10 0 6 -4 10 -10 10 -5 0 -10 -4 -10 -10z"/>
    <path d="M5297 1434 c-12 -12 -8 -24 8 -24 8 0 30 -8 48 -19 33 -18 34 -18 45 0 16 26 16 26 -20 32 -18 3 -42 8 -53 12 -11 3 -24 3 -28 -1z"/>
    <path d="M5495 1320 c-3 -5 1 -10 9 -10 9 0 16 5 16 10 0 6 -4 10 -9 10 -6 0 -13 -4 -16 -10z"/>
    <path d="M2300 952 c0 -12 39 -52 51 -52 13 0 1 42 -15 52 -15 10 -36 10 -36 0z"/>
    <path d="M9806 383 c-14 -8 -26 -18 -26 -23 0 -11 54 -50 70 -50 7 0 24 -9 38 -19 15 -10 30 -20 33 -22 3 -2 13 2 22 10 9 7 32 13 52 13 53 0 44 24 -20 53 -30 13 -58 31 -61 40 -8 19 -70 18 -108 -2z"/>
    <path d="M6855 339 c-18 -28 37 -48 92 -33 20 5 21 8 7 21 -17 18 -90 27 -99 12z"/>
    <path d="M3084 326 c-4 -11 3 -27 19 -44 14 -15 29 -39 32 -54 5 -21 3 -27 -14 -33 -12 -3 -19 -10 -16 -15 7 -11 96 23 92 35 -2 5 -13 14 -25 20 -12 5 -22 15 -22 21 0 6 -13 28 -30 49 -24 31 -31 34 -36 21z"/>
    <path d="M10115 240 c3 -5 8 -10 11 -10 2 0 4 5 4 10 0 6 -5 10 -11 10 -5 0 -7 -4 -4 -10z"/>
    <path d="M3238 116 c3 -24 11 -37 28 -45 24 -11 33 -31 13 -31 -5 0 -8 -4 -5 -9 4 -5 -3 -7 -14 -4 -16 4 -19 2 -14 -11 10 -26 74 -18 74 10 0 8 5 14 10 14 6 0 10 4 10 8 0 11 -87 102 -98 102 -4 0 -6 -15 -4 -34z"/>
  </g>
</svg>